<svg width="384" height="388" viewBox="0 0 384 388" fill="none" xmlns="http://www.w3.org/2000/svg">
<rect width="272.048" height="99.7683" transform="translate(0.109375 284.732)" fill="#090C9B"/>
<path d="M25.5202 326.23C22.2062 326.23 19.2402 325.572 16.6222 324.255C14.0043 322.939 11.9311 321.032 10.4027 318.535C8.88944 316.023 8.13281 313.012 8.13281 309.501C8.13281 306.656 8.59436 304.167 9.51745 302.033C10.4405 299.884 11.7041 298.098 13.3082 296.676C14.9274 295.254 16.7811 294.194 18.8694 293.498C20.9729 292.787 23.1822 292.431 25.4975 292.431C28.7662 292.431 31.717 293.097 34.3501 294.429C36.9832 295.745 39.0639 297.667 40.5923 300.194C42.1358 302.722 42.9076 305.778 42.9076 309.365C42.9076 312.104 42.4612 314.525 41.5684 316.628C40.6755 318.732 39.4271 320.495 37.823 321.917C36.2341 323.34 34.3879 324.414 32.2845 325.141C30.1811 325.867 27.9263 326.23 25.5202 326.23ZM25.5202 321.895L26.2466 321.872C29.6817 321.615 32.4131 320.298 34.4409 317.922C36.4687 315.546 37.4826 312.686 37.4826 309.342C37.4826 305.967 36.4611 303.1 34.4182 300.739C32.3904 298.363 29.6514 297.047 26.2012 296.79L25.5202 296.767L24.8392 296.79C21.389 297.047 18.6424 298.363 16.5995 300.739C14.5717 303.115 13.5579 305.983 13.5579 309.342C13.5579 312.701 14.5717 315.569 16.5995 317.945C18.6424 320.321 21.389 321.63 24.8392 321.872L25.5202 321.895ZM59.4778 325.617H54.1663V308.184H45.7677V303.917H67.8765V308.184H59.4778V325.617ZM86.1718 325.617H70.6911V303.94H84.2878C85.1806 303.94 86.0205 304.114 86.8074 304.462C87.5943 304.795 88.2828 305.249 88.873 305.824C89.4632 306.429 89.9247 307.125 90.2576 307.912C90.6057 308.699 90.7797 309.539 90.7797 310.432C90.7797 311.657 90.4619 312.777 89.8263 313.791C90.6889 314.381 91.3774 315.145 91.892 316.084C92.4065 317.007 92.6637 318.028 92.6637 319.148C92.6637 320.041 92.4897 320.881 92.1416 321.668C91.8087 322.439 91.3547 323.128 90.7797 323.733C90.1744 324.323 89.4783 324.785 88.6914 325.118C87.9196 325.451 87.0798 325.617 86.1718 325.617ZM85.1277 321.35C85.7481 321.35 86.2702 321.138 86.6939 320.714C87.1327 320.275 87.3522 319.753 87.3522 319.148C87.3522 318.528 87.1327 318.005 86.6939 317.582C86.2702 317.143 85.7481 316.923 85.1277 316.923H76.0027V321.35H85.1277ZM83.2437 312.656C83.849 312.656 84.371 312.437 84.8099 311.998C85.2487 311.559 85.4682 311.037 85.4682 310.432C85.4682 309.811 85.2487 309.282 84.8099 308.843C84.371 308.404 83.849 308.184 83.2437 308.184H76.0027V312.656H83.2437ZM107.668 326.457C106.518 326.457 105.368 326.344 104.217 326.117C103.083 325.89 102.054 325.542 101.13 325.072C99.3145 324.18 97.8769 322.863 96.8176 321.123C95.7735 319.367 95.2514 317.287 95.2514 314.881C95.2514 314.154 95.3422 313.277 95.5238 312.248C95.7205 311.203 95.9475 310.363 96.2048 309.728C96.8555 308.23 97.7331 306.996 98.8378 306.028C99.9576 305.044 101.236 304.31 102.674 303.826C104.127 303.327 105.655 303.077 107.259 303.077C109.529 303.077 111.572 303.539 113.388 304.462C115.204 305.385 116.641 306.717 117.701 308.457C118.775 310.182 119.312 312.293 119.312 314.79L119.29 315.675L101.085 317.491C101.478 318.808 102.159 319.882 103.128 320.714C104.112 321.547 105.368 322.016 106.896 322.122H108.462C109.567 322.046 110.603 321.736 111.572 321.191C112.54 320.646 113.297 319.98 113.842 319.193L118.813 321.123C117.375 323.332 115.431 324.861 112.979 325.708C112.223 325.95 111.353 326.132 110.369 326.253C109.4 326.389 108.5 326.457 107.668 326.457ZM100.813 313.224L113.456 311.952C113.047 310.651 112.351 309.592 111.368 308.775C110.399 307.957 109.166 307.503 107.668 307.413H106.873C105.148 307.534 103.771 308.124 102.742 309.183C101.713 310.242 101.07 311.589 100.813 313.224ZM134.475 325.617H129.164V308.184H120.765V303.917H142.874V308.184H134.475V325.617ZM175.787 325.617H170.476V303.917H175.787V325.617ZM160.125 325.617H145.688V303.917H151V310.522H160.125C162.213 310.522 163.991 311.264 165.459 312.747C166.927 314.215 167.661 315.993 167.661 318.081C167.661 320.154 166.92 321.932 165.437 323.415C163.969 324.883 162.198 325.617 160.125 325.617ZM159.058 321.35C159.966 321.35 160.738 321.032 161.373 320.396C162.024 319.761 162.35 318.989 162.35 318.081C162.35 317.173 162.024 316.401 161.373 315.766C160.738 315.115 159.966 314.79 159.058 314.79H151V321.35H159.058ZM30.2416 376.617H24.93V367.901H13.4444V376.617H8.13281L8.13281 354.917H13.4444V363.633H24.93V354.917H30.2416V376.617ZM42.953 377.389H42.6352C41.0463 377.389 39.6617 377.207 38.4813 376.844C37.301 376.496 36.3249 376.012 35.5531 375.391C34.0096 374.12 33.2379 372.539 33.2379 370.647C33.2379 368.922 33.7978 367.424 34.9176 366.153C36.0525 364.867 37.4977 364.095 39.2531 363.838L50.1259 362.476C49.8686 361.295 49.2633 360.334 48.31 359.593C47.3566 358.836 46.0476 358.458 44.383 358.458H43.9064C43.2708 358.458 42.6352 358.579 41.9997 358.821C41.3792 359.063 40.8042 359.374 40.2745 359.752C39.4422 360.357 38.905 361 38.6629 361.681L33.7372 359.797C34.509 358.118 35.8558 356.756 37.7776 355.711C39.7146 354.667 41.8937 354.145 44.3149 354.145H44.4738C46.5319 354.145 48.4008 354.645 50.0805 355.643C51.7602 356.642 53.0994 358.019 54.0982 359.775C55.0969 361.53 55.5963 363.429 55.5963 365.472V371.147C55.5963 371.449 55.672 371.775 55.8233 372.123C55.9898 372.456 56.2395 372.622 56.5724 372.622C56.8902 372.622 57.155 372.584 57.3668 372.509L57.6846 372.372V376.254L56.6405 376.549C55.9444 376.746 55.1423 376.859 54.2344 376.89C53.2659 376.859 52.4866 376.602 51.8964 376.118C51.3214 375.634 50.9052 375.134 50.648 374.62C50.4058 374.09 50.2848 373.689 50.2848 373.417L50.1032 374.03C49.9821 374.423 49.687 374.885 49.2179 375.414C48.7488 375.929 48.0224 376.383 47.0388 376.776C46.0552 377.185 44.6933 377.389 42.953 377.389ZM43.5886 373.167C45.4348 373.167 47.0086 372.607 48.31 371.487C49.6265 370.352 50.2848 368.93 50.2848 367.22V366.493L43.0892 367.379C41.47 367.591 40.3048 367.939 39.5936 368.423C38.8975 368.907 38.5494 369.52 38.5494 370.261C38.5494 371.064 38.8748 371.744 39.5255 372.304C40.4486 372.879 41.8029 373.167 43.5886 373.167ZM87.2614 376.617H71.7807V354.94H85.3774C86.2702 354.94 87.11 355.114 87.8969 355.462C88.6838 355.795 89.3724 356.249 89.9625 356.824C90.5527 357.429 91.0143 358.125 91.3472 358.912C91.6952 359.699 91.8693 360.539 91.8693 361.432C91.8693 362.657 91.5515 363.777 90.9159 364.791C91.7785 365.381 92.467 366.145 92.9815 367.084C93.496 368.007 93.7533 369.028 93.7533 370.148C93.7533 371.041 93.5792 371.881 93.2312 372.668C92.8983 373.439 92.4443 374.128 91.8693 374.733C91.2639 375.323 90.5678 375.785 89.7809 376.118C89.0092 376.451 88.1693 376.617 87.2614 376.617ZM86.2172 372.35C86.8377 372.35 87.3597 372.138 87.7834 371.714C88.2223 371.275 88.4417 370.753 88.4417 370.148C88.4417 369.528 88.2223 369.005 87.7834 368.582C87.3597 368.143 86.8377 367.923 86.2172 367.923H77.0922V372.35H86.2172ZM84.3332 363.656C84.9385 363.656 85.4606 363.437 85.8994 362.998C86.3383 362.559 86.5577 362.037 86.5577 361.432C86.5577 360.811 86.3383 360.282 85.8994 359.843C85.4606 359.404 84.9385 359.184 84.3332 359.184H77.0922V363.656H84.3332ZM108.099 377.457C105.799 377.457 103.741 377.003 101.925 376.095C100.124 375.172 98.6941 373.848 97.6348 372.123C96.5906 370.398 96.0686 368.325 96.0686 365.903C96.0686 362.09 97.264 359.131 99.655 357.028C101.879 355.061 104.687 354.077 108.076 354.077C110.346 354.077 112.389 354.539 114.205 355.462C116.021 356.385 117.459 357.717 118.518 359.457C119.592 361.197 120.129 363.308 120.129 365.79C120.129 369.467 118.957 372.365 116.611 374.483C114.387 376.466 111.549 377.457 108.099 377.457ZM108.508 373.122C110.52 372.97 112.049 372.198 113.093 370.806C114.152 369.414 114.682 367.734 114.682 365.767C114.682 363.8 114.152 362.12 113.093 360.728C112.033 359.336 110.498 358.564 108.485 358.413H107.69C105.693 358.564 104.157 359.336 103.083 360.728C102.023 362.12 101.494 363.8 101.494 365.767C101.494 367.734 102.023 369.414 103.083 370.806C104.157 372.198 105.693 372.97 107.69 373.122H108.508ZM145.507 376.617H140.195V359.184H128.71V376.617H123.398V354.917H145.507V376.617ZM155.063 387.059H149.638V354.713H155.063V356.415L155.131 356.37C155.298 356.218 155.676 355.954 156.266 355.575C156.871 355.182 157.636 354.811 158.559 354.463C159.482 354.1 160.518 353.918 161.669 353.918C165.119 353.918 167.956 354.909 170.181 356.892C172.526 358.995 173.699 361.886 173.699 365.563C173.699 368.06 173.162 370.178 172.087 371.919C171.028 373.659 169.59 374.99 167.775 375.914C165.959 376.821 163.916 377.275 161.646 377.275C160.481 377.275 159.436 377.124 158.513 376.821C157.605 376.519 156.856 376.193 156.266 375.845C155.676 375.482 155.275 375.21 155.063 375.028V387.059ZM161.669 372.963L162.054 372.94C164.067 372.789 165.603 372.024 166.662 370.647C167.722 369.255 168.251 367.568 168.251 365.585C168.251 363.633 167.722 361.961 166.662 360.569C165.618 359.177 164.09 358.405 162.077 358.254L161.669 358.231L161.26 358.254C159.232 358.39 157.583 359.154 156.312 360.546C155.056 361.939 154.428 363.618 154.428 365.585C154.428 367.553 155.056 369.232 156.312 370.625C157.583 372.017 159.232 372.789 161.26 372.94L161.669 372.963ZM188.907 377.457C186.607 377.457 184.549 377.003 182.733 376.095C180.932 375.172 179.502 373.848 178.443 372.123C177.399 370.398 176.877 368.325 176.877 365.903C176.877 362.09 178.072 359.131 180.463 357.028C182.688 355.061 185.495 354.077 188.885 354.077C191.154 354.077 193.197 354.539 195.013 355.462C196.829 356.385 198.267 357.717 199.326 359.457C200.401 361.197 200.938 363.308 200.938 365.79C200.938 369.467 199.765 372.365 197.419 374.483C195.195 376.466 192.358 377.457 188.907 377.457ZM189.316 373.122C191.328 372.97 192.857 372.198 193.901 370.806C194.96 369.414 195.49 367.734 195.49 365.767C195.49 363.8 194.96 362.12 193.901 360.728C192.842 359.336 191.306 358.564 189.293 358.413H188.499C186.501 358.564 184.965 359.336 183.891 360.728C182.832 362.12 182.302 363.8 182.302 365.767C182.302 367.734 182.832 369.414 183.891 370.806C184.965 372.198 186.501 372.97 188.499 373.122H189.316ZM215.806 377.457C213.521 377.457 211.47 377.003 209.654 376.095C207.853 375.172 206.423 373.855 205.364 372.145C204.32 370.42 203.798 368.34 203.798 365.903C203.798 363.936 204.116 362.211 204.751 360.728C205.387 359.245 206.257 358.012 207.362 357.028C208.481 356.044 209.768 355.31 211.22 354.826C212.673 354.342 214.201 354.1 215.806 354.1C218.06 354.1 220.103 354.554 221.934 355.462C223.675 356.339 225.067 357.603 226.111 359.252L221.117 361.114C219.937 359.313 218.038 358.413 215.42 358.413C213.407 358.564 211.871 359.336 210.812 360.728C209.752 362.12 209.223 363.8 209.223 365.767C209.223 367.734 209.752 369.414 210.812 370.806C211.871 372.198 213.407 372.97 215.42 373.122C218.038 373.122 219.929 372.236 221.094 370.466L226.065 372.372C225.596 373.159 225.021 373.863 224.34 374.483C222.116 376.466 219.271 377.457 215.806 377.457ZM259.183 376.617H253.872V354.917H259.183V376.617ZM243.521 376.617H229.084V354.917H234.396V361.522H243.521C245.609 361.522 247.387 362.264 248.855 363.747C250.323 365.215 251.057 366.993 251.057 369.081C251.057 371.154 250.316 372.932 248.833 374.415C247.365 375.883 245.594 376.617 243.521 376.617ZM242.454 372.35C243.362 372.35 244.134 372.032 244.769 371.396C245.42 370.761 245.745 369.989 245.745 369.081C245.745 368.173 245.42 367.401 244.769 366.766C244.134 366.115 243.362 365.79 242.454 365.79H234.396V372.35H242.454Z" fill="white"/>
<rect x="207.182" y="265.913" width="88.3271" height="48.0125" transform="rotate(15 207.182 265.913)" fill="white"/>
<rect x="207.182" y="265.913" width="88.3271" height="48.0125" transform="rotate(15 207.182 265.913)" stroke="#090C9B"/>
<path d="M229.139 313.731L223.504 312.221L228.459 305.042L217.277 302.046L212.322 309.225L206.687 307.715L211.642 300.536L206.336 299.114L207.441 294.992L214.215 296.808L218.826 290.124L213.367 288.661L214.471 284.539L221.4 286.395L226.343 279.26L231.956 280.764L227.035 287.905L238.217 290.902L243.138 283.76L248.773 285.27L243.852 292.411L249.136 293.827L248.031 297.949L241.278 296.14L236.667 302.824L242.105 304.281L241 308.403L234.094 306.552L229.139 313.731ZM231.032 301.314L235.643 294.63L224.461 291.634L219.85 298.318L231.032 301.314ZM271.301 325.029L245.736 318.179L246.841 314.057L267.871 304.417C268.703 304.06 269.436 303.544 270.072 302.868C270.707 302.192 271.177 301.433 271.481 300.59L271.591 300.267C271.791 299.522 271.788 298.745 271.581 297.938C271.393 297.12 270.881 296.34 270.045 295.6C269.214 294.844 267.972 294.245 266.321 293.802L265.679 293.654C263.645 293.234 261.745 293.281 259.978 293.795C258.215 294.294 256.656 295.169 255.303 296.42L250.869 293.234L250.897 293.218C253.023 291.187 255.523 289.868 258.397 289.259C261.285 288.654 264.315 288.777 267.487 289.626C269.723 290.226 271.528 291.031 272.902 292.041C274.277 293.052 275.284 294.175 275.924 295.412C276.567 296.634 276.897 297.89 276.912 299.178C276.93 300.045 276.828 300.895 276.605 301.728C276.499 302.123 276.285 302.716 275.964 303.507C275.646 304.283 275.042 305.132 274.153 306.053C273.279 306.978 272.259 307.684 271.095 308.171L254.273 316.048L272.406 320.907L271.301 325.029Z" fill="#090C9B"/>
<rect width="368.532" height="69.5318" fill="#090C9B"/>
<path d="M28.1584 28.7656H23.5816L13.9214 18.8995H9.47135V28.7656H5.76562V6.05616H9.47135V15.9223H13.7472L22.2197 6.05616H26.9073L17.057 17.4109L28.1584 28.7656ZM36.6784 29.3516C35.0736 29.3516 33.6378 29.0348 32.3709 28.4014C31.1145 27.7574 30.1168 26.8336 29.3778 25.63C28.6493 24.4264 28.2851 22.98 28.2851 21.2908C28.2851 18.6303 29.1191 16.5663 30.7872 15.0988C32.3392 13.7263 34.2976 13.04 36.6625 13.04C38.2462 13.04 39.6715 13.362 40.9384 14.0061C42.2053 14.6501 43.2083 15.5791 43.9473 16.7933C44.6969 18.0074 45.0717 19.4802 45.0717 21.2116C45.0717 23.7771 44.2535 25.7989 42.617 27.277C41.0651 28.66 39.0855 29.3516 36.6784 29.3516ZM36.9634 26.3268C38.3676 26.2212 39.4339 25.6828 40.1624 24.7115C40.9014 23.7402 41.2709 22.5683 41.2709 21.1958C41.2709 19.8233 40.9014 18.6514 40.1624 17.6801C39.4234 16.7088 38.3518 16.1704 36.9476 16.0648H36.3933C34.9997 16.1704 33.9281 16.7088 33.1785 17.6801C32.4395 18.6514 32.07 19.8233 32.07 21.1958C32.07 22.5683 32.4395 23.7402 33.1785 24.7115C33.9281 25.6828 34.9997 26.2212 36.3933 26.3268H36.9634ZM51.0579 28.7656H47.3521V13.6418H60.3855V16.6032H51.0579V28.7656ZM78.9142 32.6297H75.2085V28.7656H62.4918V32.6297H58.7861V25.7884H61.4624C62.7504 22.9484 63.3945 19.9922 63.3945 16.92V13.6418H76.1586V25.7884H78.9142V32.6297ZM72.4529 25.7884V16.6032H67.1002V16.92C67.1002 19.9922 66.4562 22.9484 65.1681 25.7884H72.4529ZM86.9749 29.3041H86.7532C85.6447 29.3041 84.6786 29.1774 83.8552 28.924C83.0317 28.6812 82.3507 28.3433 81.8123 27.9105C80.7354 27.0236 80.1969 25.9203 80.1969 24.6006C80.1969 23.3971 80.5876 22.3519 81.3688 21.465C82.1607 20.5676 83.1689 20.0292 84.3936 19.8497L91.9793 18.8995C91.7998 18.076 91.3775 17.4056 90.7123 16.8883C90.0472 16.3604 89.134 16.0965 87.9726 16.0965H87.6401C87.1966 16.0965 86.7532 16.1809 86.3098 16.3498C85.8769 16.5188 85.4758 16.7352 85.1062 16.9991C84.5256 17.4214 84.1508 17.8701 83.9818 18.3452L80.5453 17.0308C81.0838 15.8589 82.0234 14.9087 83.3642 14.1803C84.7156 13.4518 86.2359 13.0875 87.9251 13.0875H88.036C89.4718 13.0875 90.7757 13.4359 91.9476 14.1327C93.1195 14.8295 94.0538 15.7903 94.7506 17.015C95.4474 18.2397 95.7958 19.5646 95.7958 20.9899V24.949C95.7958 25.1602 95.8486 25.3872 95.9542 25.63C96.0703 25.8623 96.2445 25.9784 96.4768 25.9784C96.6985 25.9784 96.8833 25.952 97.0311 25.8992L97.2528 25.8042V28.5122L96.5243 28.7181C96.0387 28.8554 95.4791 28.9345 94.8456 28.9557C94.17 28.9345 93.6262 28.7551 93.2145 28.4172C92.8133 28.0794 92.523 27.731 92.3435 27.372C92.1746 27.0025 92.0901 26.7227 92.0901 26.5327L91.9634 26.9603C91.879 27.2348 91.6731 27.5568 91.3458 27.9263C91.0185 28.2853 90.5117 28.602 89.8255 28.8765C89.1392 29.1615 88.1891 29.3041 86.9749 29.3041ZM87.4184 26.3585C88.7064 26.3585 89.8044 25.9679 90.7123 25.1866C91.6309 24.3948 92.0901 23.4023 92.0901 22.2093V21.7026L87.07 22.3202C85.9403 22.468 85.1273 22.7108 84.6311 23.0487C84.1455 23.3865 83.9027 23.8141 83.9027 24.3314C83.9027 24.891 84.1297 25.3661 84.5836 25.7567C85.2276 26.1579 86.1726 26.3585 87.4184 26.3585ZM122.512 28.7656H118.806V22.6844H110.793V28.7656H107.087V13.626H110.793V19.7072H118.806V13.626H122.512V28.7656ZM131.38 29.3041H131.159C130.05 29.3041 129.084 29.1774 128.261 28.924C127.437 28.6812 126.756 28.3433 126.218 27.9105C125.141 27.0236 124.602 25.9203 124.602 24.6006C124.602 23.3971 124.993 22.3519 125.774 21.465C126.566 20.5676 127.574 20.0292 128.799 19.8497L136.385 18.8995C136.205 18.076 135.783 17.4056 135.118 16.8883C134.453 16.3604 133.539 16.0965 132.378 16.0965H132.045C131.602 16.0965 131.159 16.1809 130.715 16.3498C130.282 16.5188 129.881 16.7352 129.512 16.9991C128.931 17.4214 128.556 17.8701 128.387 18.3452L124.951 17.0308C125.489 15.8589 126.429 14.9087 127.77 14.1803C129.121 13.4518 130.641 13.0875 132.331 13.0875H132.441C133.877 13.0875 135.181 13.4359 136.353 14.1327C137.525 14.8295 138.459 15.7903 139.156 17.015C139.853 18.2397 140.201 19.5646 140.201 20.9899V24.949C140.201 25.1602 140.254 25.3872 140.36 25.63C140.476 25.8623 140.65 25.9784 140.882 25.9784C141.104 25.9784 141.289 25.952 141.436 25.8992L141.658 25.8042V28.5122L140.93 28.7181C140.444 28.8554 139.885 28.9345 139.251 28.9557C138.575 28.9345 138.032 28.7551 137.62 28.4172C137.219 28.0794 136.928 27.731 136.749 27.372C136.58 27.0025 136.496 26.7227 136.496 26.5327L136.369 26.9603C136.284 27.2348 136.078 27.5568 135.751 27.9263C135.424 28.2853 134.917 28.602 134.231 28.8765C133.545 29.1615 132.594 29.3041 131.38 29.3041ZM131.824 26.3585C133.112 26.3585 134.21 25.9679 135.118 25.1866C136.036 24.3948 136.496 23.4023 136.496 22.2093V21.7026L131.475 22.3202C130.346 22.468 129.533 22.7108 129.037 23.0487C128.551 23.3865 128.308 23.8141 128.308 24.3314C128.308 24.891 128.535 25.3661 128.989 25.7567C129.633 26.1579 130.578 26.3585 131.824 26.3585ZM163.449 32.6297H159.743V28.7656H147.027V32.6297H143.321V25.7884H145.997C147.285 22.9484 147.929 19.9922 147.929 16.92V13.6418H160.694V25.7884H163.449V32.6297ZM156.988 25.7884V16.6032H151.635V16.92C151.635 19.9922 150.991 22.9484 149.703 25.7884H156.988ZM172.983 29.3516C172.18 29.3516 171.378 29.2724 170.576 29.114C169.784 28.9557 169.066 28.7128 168.422 28.3856C167.155 27.7626 166.152 26.8441 165.413 25.63C164.684 24.4053 164.32 22.9536 164.32 21.275C164.32 20.7682 164.384 20.1559 164.51 19.438C164.647 18.7095 164.806 18.1235 164.985 17.6801C165.439 16.6349 166.052 15.7745 166.822 15.0988C167.604 14.4125 168.496 13.9005 169.499 13.5626C170.512 13.2142 171.579 13.04 172.698 13.04C174.281 13.04 175.707 13.362 176.973 14.0061C178.24 14.6501 179.243 15.5791 179.982 16.7933C180.732 17.9968 181.107 19.4696 181.107 21.2116L181.091 21.8293L168.39 23.0962C168.665 24.0147 169.14 24.7643 169.815 25.345C170.502 25.9256 171.378 26.2529 172.444 26.3268H173.537C174.308 26.274 175.031 26.0576 175.707 25.6775C176.382 25.2974 176.91 24.8329 177.29 24.2839L180.758 25.63C179.755 27.1714 178.399 28.2377 176.688 28.829C176.161 28.9979 175.553 29.1246 174.867 29.209C174.192 29.3041 173.563 29.3516 172.983 29.3516ZM168.2 20.1189L177.021 19.2321C176.736 18.3241 176.25 17.5851 175.564 17.015C174.888 16.4449 174.028 16.1281 172.983 16.0648H172.428C171.225 16.1493 170.264 16.561 169.546 17.3C168.828 18.0391 168.38 18.9787 168.2 20.1189ZM198.511 28.7656H194.805V16.6032H190.118L189.041 23.3337C188.756 24.9279 188.017 26.2318 186.824 27.2453C185.641 28.2589 184.258 28.7656 182.675 28.7656H182.247V25.7884H182.675C183.329 25.7884 183.899 25.5825 184.385 25.1708C184.881 24.7484 185.187 24.21 185.303 23.5554L186.871 13.6418H198.511V28.7656ZM223.865 36.3671H220.159V28.4806C220.117 28.5017 219.991 28.5545 219.779 28.6389C219.568 28.7234 219.304 28.8131 218.988 28.9082C218.681 29.0032 218.354 29.0824 218.006 29.1457C217.668 29.2196 217.356 29.2566 217.071 29.2566C216.491 29.2566 215.979 29.2143 215.535 29.1299C215.102 29.0454 214.638 28.9134 214.142 28.734C212.083 27.9949 210.652 26.6224 209.85 24.6165C209.417 23.6029 209.201 22.4363 209.201 21.1166C209.201 19.8075 209.575 18.5406 210.325 17.3159C211.001 16.1017 211.946 15.178 213.16 14.5445C213.772 14.2172 214.379 13.9744 214.981 13.816C215.583 13.6577 216.28 13.5785 217.071 13.5785C217.758 13.5785 218.317 13.6418 218.75 13.7685C219.183 13.8952 219.653 14.08 220.159 14.3228V12.4858L222.028 12.4699L223.865 12.4858V14.3228C224.383 14.08 224.858 13.8952 225.29 13.7685C225.723 13.6418 226.283 13.5785 226.969 13.5785C227.761 13.5785 228.452 13.6577 229.044 13.816C229.646 13.9744 230.258 14.2172 230.881 14.5445C232.095 15.178 233.04 16.1017 233.715 17.3159C234.465 18.5406 234.84 19.8075 234.84 21.1166C234.84 22.4363 234.623 23.6029 234.191 24.6165C233.388 26.6224 231.958 27.9949 229.899 28.734C229.403 28.9134 228.933 29.0454 228.489 29.1299C228.057 29.2143 227.55 29.2566 226.969 29.2566C226.684 29.2566 226.367 29.2196 226.019 29.1457C225.681 29.0824 225.354 29.0032 225.037 28.9082C224.731 28.8131 224.467 28.7234 224.245 28.6389C224.034 28.5545 223.907 28.5017 223.865 28.4806V36.3671ZM227.032 26.2318L227.08 26.216C228.009 26.1632 228.775 25.9045 229.376 25.44C229.978 24.9754 230.421 24.3631 230.707 23.6029C230.992 22.8428 231.134 22.0087 231.134 21.1008C231.134 20.1506 230.802 19.1899 230.136 18.2185C229.482 17.2472 228.463 16.7088 227.08 16.6032H226.874C226.22 16.6243 225.639 16.7933 225.132 17.11C224.636 17.4162 224.24 17.9335 223.944 18.662C223.659 19.3904 223.517 20.2034 223.517 21.1008C223.517 22.4205 223.659 23.4446 223.944 24.1731C224.24 24.9015 224.636 25.4241 225.132 25.7409C225.639 26.047 226.214 26.2054 226.858 26.216L226.906 26.2318H227.032ZM217.119 26.2318L217.182 26.216C217.826 26.2054 218.396 26.047 218.893 25.7409C219.399 25.4241 219.795 24.9015 220.08 24.1731C220.376 23.4446 220.524 22.4205 220.524 21.1008C220.524 20.2034 220.376 19.3904 220.08 18.662C219.795 17.9335 219.399 17.4162 218.893 17.11C218.396 16.7933 217.821 16.6243 217.166 16.6032H216.961C215.577 16.7088 214.553 17.2472 213.888 18.2185C213.234 19.1899 212.906 20.1506 212.906 21.1008C212.906 22.0087 213.049 22.8428 213.334 23.6029C213.619 24.3631 214.057 24.9754 214.648 25.44C215.25 25.9045 216.016 26.1632 216.945 26.216L217.008 26.2318H217.119ZM240.889 36.9214C240.098 36.9214 239.364 36.8264 238.688 36.6363C238.023 36.4463 237.442 36.2352 236.946 36.0029C236.46 35.7706 236.08 35.5753 235.806 35.4169L235.616 35.3061L238.07 32.7722C238.239 32.9095 238.524 33.089 238.926 33.3107C239.327 33.543 239.744 33.6591 240.177 33.6591C240.81 33.6591 241.396 33.5113 241.935 33.2157C242.473 32.9201 242.853 32.5241 243.075 32.0279C243.233 31.6373 243.619 30.534 244.231 28.7181C242.7 28.4753 241.57 27.6624 240.842 26.2793L235.204 13.626H239.527L243.772 24.3631C243.941 24.7537 244.146 25.0599 244.389 25.2816C244.632 25.5033 244.959 25.6142 245.371 25.6142L249.219 13.626H253.115L253.099 13.6577C252.793 14.5656 251.706 17.7171 249.837 23.112C247.979 28.4964 246.728 32.0385 246.084 33.7383C245.651 34.7729 244.965 35.5595 244.025 36.0979C243.096 36.6469 242.051 36.9214 240.889 36.9214ZM263.805 28.7656H260.099V16.6032H254.24V13.626H269.664V16.6032H263.805V28.7656ZM280.021 29.2882C278.427 29.2882 276.996 28.9715 275.73 28.338C274.473 27.7046 273.476 26.7861 272.736 25.5825C272.05 24.4423 271.691 23.0962 271.66 21.5442C271.649 21.5442 271.638 21.5231 271.628 21.4809C271.628 21.4386 271.628 21.3647 271.628 21.2591V19.2321C271.628 17.9124 271.654 16.6824 271.707 15.5422C271.76 14.402 271.929 13.3462 272.214 12.3749C272.277 12.1532 272.409 11.8417 272.61 11.4405C272.821 11.0394 273.117 10.6118 273.497 10.1578C273.887 9.69326 274.378 9.24984 274.969 8.82754C275.561 8.40523 276.273 8.06211 277.107 7.79817C277.941 7.52367 278.913 7.38642 280.021 7.38642H280.322C281.969 7.23861 283.152 6.53125 283.87 5.26433L287.354 6.61043C287.237 6.86382 286.931 7.28612 286.435 7.87735C285.949 8.45802 285.189 9.01229 284.155 9.54018C283.13 10.0575 281.753 10.3426 280.021 10.3953L279.752 10.4112C278.855 10.4323 278.047 10.7015 277.329 11.2188C276.611 11.7362 276.062 12.66 275.682 13.9902C276.938 13.3251 278.385 12.9925 280.021 12.9925C281.594 12.9925 283.014 13.3145 284.281 13.9585C285.559 14.592 286.567 15.5158 287.306 16.7299C288.045 17.9441 288.415 19.4221 288.415 21.1641C288.415 23.7296 287.602 25.7461 285.976 27.2137C284.424 28.5967 282.439 29.2882 280.021 29.2882ZM280.037 26.2793L280.322 26.2635C281.716 26.1579 282.782 25.6195 283.521 24.6481C284.26 23.6768 284.63 22.5102 284.63 21.1483C284.63 19.7652 284.26 18.5933 283.521 17.6326C282.782 16.6613 281.71 16.1229 280.306 16.0173L280.037 16.0014L279.752 16.0173C278.358 16.1123 277.292 16.6349 276.553 17.5851C275.825 18.5247 275.45 19.6913 275.429 21.0849V21.1483C275.429 22.5208 275.798 23.6927 276.537 24.664C277.287 25.6353 278.358 26.1684 279.752 26.2635L280.037 26.2793ZM298.993 29.3516C297.389 29.3516 295.953 29.0348 294.686 28.4014C293.429 27.7574 292.432 26.8336 291.693 25.63C290.964 24.4264 290.6 22.98 290.6 21.2908C290.6 18.6303 291.434 16.5663 293.102 15.0988C294.654 13.7263 296.613 13.04 298.977 13.04C300.561 13.04 301.986 13.362 303.253 14.0061C304.52 14.6501 305.523 15.5791 306.262 16.7933C307.012 18.0074 307.387 19.4802 307.387 21.2116C307.387 23.7771 306.568 25.7989 304.932 27.277C303.38 28.66 301.4 29.3516 298.993 29.3516ZM299.278 26.3268C300.683 26.2212 301.749 25.6828 302.477 24.7115C303.216 23.7402 303.586 22.5683 303.586 21.1958C303.586 19.8233 303.216 18.6514 302.477 17.6801C301.738 16.7088 300.667 16.1704 299.263 16.0648H298.708C297.315 16.1704 296.243 16.7088 295.493 17.6801C294.754 18.6514 294.385 19.8233 294.385 21.1958C294.385 22.5683 294.754 23.7402 295.493 24.7115C296.243 25.6828 297.315 26.2212 298.708 26.3268H299.278ZM324.474 28.7656H320.768V16.6032H316.081L315.004 23.3337C314.719 24.9279 313.98 26.2318 312.787 27.2453C311.604 28.2589 310.221 28.7656 308.638 28.7656H308.21V25.7884H308.638C309.292 25.7884 309.862 25.5825 310.348 25.1708C310.844 24.7484 311.15 24.21 311.267 23.5554L312.834 13.6418H324.474V28.7656ZM342.939 28.7656H338.695L333.723 21.8451H330.825V28.7656H327.119V13.6418H330.825V18.8678H333.358L337.634 13.6418H341.878L336.652 20.0239L342.939 28.7656ZM348.546 36.9214C347.754 36.9214 347.02 36.8264 346.344 36.6363C345.679 36.4463 345.099 36.2352 344.602 36.0029C344.117 35.7706 343.737 35.5753 343.462 35.4169L343.272 35.3061L345.727 32.7722C345.896 32.9095 346.181 33.089 346.582 33.3107C346.983 33.543 347.4 33.6591 347.833 33.6591C348.466 33.6591 349.052 33.5113 349.591 33.2157C350.129 32.9201 350.509 32.5241 350.731 32.0279C350.889 31.6373 351.275 30.534 351.887 28.7181C350.356 28.4753 349.227 27.6624 348.498 26.2793L342.86 13.626H347.184L351.428 24.3631C351.597 24.7537 351.803 25.0599 352.045 25.2816C352.288 25.5033 352.616 25.6142 353.027 25.6142L356.876 13.626H360.771L360.755 13.6577C360.449 14.5656 359.362 17.7171 357.493 23.112C355.635 28.4964 354.384 32.0385 353.74 33.7383C353.307 34.7729 352.621 35.5595 351.681 36.0979C350.752 36.6469 349.707 36.9214 348.546 36.9214ZM14.1589 64.3516C12.5542 64.3516 11.1183 64.0348 9.85143 63.4014C8.59507 62.7574 7.59737 61.8336 6.85834 60.63C6.12986 59.4264 5.76562 57.98 5.76562 56.2908C5.76562 53.6303 6.59968 51.5663 8.26778 50.0988C9.81976 48.7263 11.7782 48.04 14.1431 48.04C15.7268 48.04 17.152 48.362 18.4189 49.0061C19.6859 49.6501 20.6888 50.5791 21.4279 51.7933C22.1775 53.0074 22.5523 54.4802 22.5523 56.2116C22.5523 58.7771 21.734 60.7989 20.0976 62.277C18.5456 63.66 16.5661 64.3516 14.1589 64.3516ZM14.444 61.3268C15.8482 61.2212 16.9145 60.6828 17.643 59.7115C18.382 58.7402 18.7515 57.5683 18.7515 56.1958C18.7515 54.8233 18.382 53.6514 17.643 52.6801C16.9039 51.7088 15.8323 51.1704 14.4282 51.0648H13.8739C12.4803 51.1704 11.4087 51.7088 10.6591 52.6801C9.92005 53.6514 9.55054 54.8233 9.55054 56.1958C9.55054 57.5683 9.92005 58.7402 10.6591 59.7115C11.4087 60.6828 12.4803 61.2212 13.8739 61.3268H14.444ZM32.6242 63.7656H28.9185V51.6032H23.059V48.626H38.4837V51.6032H32.6242V63.7656ZM55.9513 63.7656H51.4221L58.4377 54.818L47.3838 41.0562H51.8814L60.5281 52.2684L68.8739 41.0403H73.1972L55.9513 63.7656ZM86.7216 63.7656H83.0158V57.6844H75.0026V63.7656H71.2969V48.626H75.0026V54.7072H83.0158V48.626H86.7216V63.7656ZM104.997 63.7656H101.291V53.5986L92.9294 63.7656H89.5721V48.6418H93.2778V58.8088L101.639 48.6418H104.997V63.7656ZM122.797 63.7656H107.784V41.0562H121.071C121.926 41.0562 122.734 41.2145 123.494 41.5313C124.254 41.848 124.924 42.2861 125.505 42.8457C126.825 44.102 127.485 45.6434 127.485 47.4699C127.485 48.2829 127.342 49.0536 127.057 49.782C126.772 50.5 126.381 51.144 125.885 51.7141C126.255 51.9147 126.592 52.147 126.899 52.4109C127.617 53.0021 128.181 53.7253 128.593 54.5805C129.005 55.4251 129.211 56.3436 129.211 57.336C129.211 58.6135 128.878 59.7643 128.213 60.7884C127.569 61.8441 126.666 62.6307 125.505 63.148C124.671 63.5598 123.768 63.7656 122.797 63.7656ZM120.517 50.9223C121.467 50.9223 122.274 50.5844 122.94 49.9087C123.615 49.233 123.953 48.4201 123.953 47.4699C123.953 46.5197 123.615 45.7121 122.94 45.0469C122.274 44.3713 121.467 44.0334 120.517 44.0334H111.49V50.9223H120.517ZM122.243 60.7884C123.193 60.7884 124.001 60.4558 124.666 59.7907C125.341 59.115 125.679 58.2968 125.679 57.336C125.679 56.3858 125.341 55.5782 124.666 54.913C124.001 54.2374 123.193 53.8995 122.243 53.8995H111.49V60.7884H122.243ZM140.17 64.3516C139.367 64.3516 138.565 64.2724 137.762 64.114C136.971 63.9557 136.253 63.7128 135.609 63.3856C134.342 62.7626 133.339 61.8441 132.6 60.63C131.871 59.4053 131.507 57.9536 131.507 56.275C131.507 55.7682 131.57 55.1559 131.697 54.438C131.834 53.7095 131.993 53.1235 132.172 52.6801C132.626 51.6349 133.238 50.7745 134.009 50.0988C134.79 49.4125 135.683 48.9005 136.686 48.5626C137.699 48.2142 138.765 48.04 139.885 48.04C141.468 48.04 142.893 48.362 144.16 49.0061C145.427 49.6501 146.43 50.5791 147.169 51.7933C147.919 52.9968 148.294 54.4696 148.294 56.2116L148.278 56.8293L135.577 58.0962C135.852 59.0147 136.327 59.7643 137.002 60.345C137.689 60.9256 138.565 61.2529 139.631 61.3268H140.724C141.495 61.274 142.218 61.0576 142.893 60.6775C143.569 60.2974 144.097 59.8329 144.477 59.2839L147.945 60.63C146.942 62.1714 145.586 63.2377 143.875 63.829C143.347 63.9979 142.74 64.1246 142.054 64.209C141.378 64.3041 140.75 64.3516 140.17 64.3516ZM135.387 55.1189L144.208 54.2321C143.923 53.3241 143.437 52.5851 142.751 52.015C142.075 51.4449 141.215 51.1281 140.17 51.0648H139.615C138.412 51.1493 137.451 51.561 136.733 52.3C136.015 53.0391 135.566 53.9787 135.387 55.1189ZM166.157 63.7656H162.451V57.6844H154.438V63.7656H150.732V48.626H154.438V54.7072H162.451V48.626H166.157V63.7656ZM187.996 67.6297H184.29V63.7656H171.573V67.6297H167.868V60.7884H170.544C171.832 57.9484 172.476 54.9922 172.476 51.92V48.6418H185.24V60.7884H187.996V67.6297ZM181.534 60.7884V51.6032H176.182V51.92C176.182 54.9922 175.538 57.9484 174.25 60.7884H181.534Z" fill="white"/>
<rect x="318.025" y="35.3702" width="66.749" height="33.5953" transform="rotate(15 318.025 35.3702)" fill="white"/>
<rect x="318.025" y="35.3702" width="66.749" height="33.5953" transform="rotate(15 318.025 35.3702)" stroke="#090C9B"/>
<path d="M317.661 72.1114L314.005 71.1317L319.846 49.3338L323.502 50.3134L323.195 51.4606L323.249 51.4423C323.388 51.3704 323.691 51.2603 324.157 51.1119C324.636 50.956 325.218 50.8442 325.903 50.7763C326.591 50.6982 327.322 50.763 328.097 50.9707C330.422 51.5937 332.155 52.774 333.296 54.5116C334.497 56.3527 334.766 58.5123 334.102 60.9903C333.651 62.673 332.906 64.0037 331.868 64.9824C330.84 65.9639 329.631 66.6017 328.24 66.8959C326.852 67.1799 325.394 67.1169 323.864 66.7071C323.079 66.4967 322.403 66.2061 321.835 65.8355C321.278 65.4676 320.832 65.1131 320.497 64.7719C320.165 64.4206 319.944 64.1647 319.834 64.004L317.661 72.1114ZM324.658 63.8048L324.922 63.8591C326.306 64.1206 327.479 63.8829 328.442 63.1462C329.407 62.3993 330.068 61.3579 330.426 60.0219C330.779 58.7064 330.724 57.4839 330.261 56.3544C329.809 55.2277 328.918 54.4316 327.589 53.9662L327.318 53.8771L327.039 53.8186C325.648 53.5443 324.398 53.7614 323.29 54.4701C322.192 55.1815 321.466 56.2001 321.111 57.5258C320.755 58.8515 320.875 60.0969 321.47 61.2619C322.075 62.4296 323.048 63.2475 324.387 63.7157L324.658 63.8048ZM342.203 71.7521C340.653 71.3367 339.348 70.6592 338.288 69.7194C337.241 68.7721 336.516 67.6216 336.114 66.2678C335.722 64.9167 335.745 63.4253 336.182 61.7936C336.87 59.2238 338.21 57.4459 340.201 56.4602C342.056 55.5361 344.125 55.3801 346.409 55.9922C347.939 56.4021 349.232 57.082 350.289 58.032C351.346 58.982 352.075 60.139 352.474 61.503C352.884 62.8698 352.865 64.3894 352.417 66.0618C351.753 68.5399 350.439 70.2811 348.476 71.2852C346.619 72.2195 344.528 72.3751 342.203 71.7521ZM343.261 68.9041C344.645 69.1656 345.814 68.9215 346.769 68.1718C347.734 67.4249 348.395 66.3886 348.75 65.0628C349.105 63.7371 349.051 62.5095 348.589 61.38C348.126 60.2505 347.231 59.4531 345.902 58.9877L345.366 58.8442C343.993 58.5855 342.818 58.8283 341.843 59.5725C340.878 60.3194 340.217 61.3557 339.862 62.6814C339.507 64.0072 339.561 65.2348 340.023 66.3643C340.496 67.4965 341.392 68.2939 342.71 68.7566L343.261 68.9041ZM361.323 76.2686L357.559 75.2603L354.713 58.8401L358.724 59.8987L360.408 72.1544L367.994 62.3826L371.998 63.4717L361.323 76.2686Z" fill="#090C9B"/>
<rect x="224.109" y="96.3008" width="158.93" height="158.93" rx="79.4648" fill="#090C9B"/>
<path d="M271.721 178.56L254.231 199.403H268.771L308.44 152.125H293.903L278.99 169.897L264.076 152.125H249.539L271.721 178.56Z" fill="#F5F1ED"/>
<path fill-rule="evenodd" clip-rule="evenodd" d="M342.083 199.401H313.664V152.145H338.988L340.68 152.125C348.14 152.125 354.188 158.173 354.188 165.633C354.188 168.206 353.468 170.611 352.22 172.658C355.475 175.445 357.565 179.585 357.565 184.206C357.565 192.599 350.761 199.403 342.368 199.403L342.083 199.401ZM323.795 162.256H338.991C345.745 162.256 345.745 170.698 338.991 170.698H323.795V162.256ZM323.795 179.141H342.368C349.122 179.141 349.122 189.272 342.368 189.272H323.795V179.141Z" fill="#F5F1ED"/>
</svg>
