<svg width="435" height="435" viewBox="0 0 435 435" fill="none" xmlns="http://www.w3.org/2000/svg">
<rect width="435" height="435" fill="#090C9B"/>
<path d="M115.354 227.034L59.0928 294.081H105.866L233.472 142H186.708L138.735 199.169L90.763 142H44L115.354 227.034Z" fill="#F5F1ED"/>
<path fill-rule="evenodd" clip-rule="evenodd" d="M341.848 294.077H250.43V142.064H331.891L337.333 142C361.331 142 380.785 161.454 380.785 185.452C380.785 193.728 378.471 201.465 374.454 208.049C384.926 217.014 391.648 230.331 391.648 245.198C391.648 272.195 369.762 294.081 342.764 294.081L341.848 294.077ZM283.018 174.589H331.902C353.627 174.589 353.627 201.746 331.902 201.746H283.018V174.589ZM283.018 228.903H342.764C364.49 228.903 364.49 261.492 342.764 261.492H283.018V228.903Z" fill="#F5F1ED"/>
</svg>
