<svg width="208" height="72" viewBox="0 0 208 72" fill="none" xmlns="http://www.w3.org/2000/svg">
<rect width="160.289" height="37.2893" transform="translate(5.24946 0.00195312) rotate(5.93327)" fill="#090C9B"/>
<path d="M8.82394 15.5997L6.81371 15.3908L8.094 3.07168L15.147 3.80468C15.7083 3.86301 16.227 4.02402 16.7032 4.2877C17.1795 4.55139 17.5844 4.88871 17.918 5.29967C18.2509 5.71635 18.4975 6.18483 18.6576 6.70511C18.8241 7.22027 18.8778 7.76134 18.8189 8.32833C18.7409 9.07858 18.4834 9.7465 18.0462 10.3321C17.6154 10.9125 17.0685 11.3564 16.4056 11.6638C15.7489 11.9661 15.0455 12.0782 14.2953 12.0002L9.25249 11.4762L8.82394 15.5997ZM14.0593 10.3432C14.7466 10.4146 15.3589 10.2322 15.8963 9.79603C16.4337 9.35981 16.7378 8.80094 16.8087 8.11941C16.8801 7.43215 16.6977 6.81982 16.2615 6.28242C15.831 5.74562 15.2693 5.4412 14.5763 5.36918L9.93727 4.88707L9.42034 9.8611L14.0593 10.3432ZM22.1436 17.2792L22.0233 17.2667C21.422 17.2042 20.9051 17.081 20.4726 16.8972C20.0396 16.719 19.6893 16.4973 19.4216 16.2322C18.8874 15.6904 18.6575 15.0615 18.7319 14.3456C18.7998 13.6928 19.0706 13.1478 19.5444 12.7108C20.0245 12.2686 20.6018 12.0333 21.2763 12.005L25.4448 11.9172C25.3939 11.4604 25.2026 11.0729 24.871 10.7548C24.5399 10.4309 24.0594 10.2363 23.4294 10.1708L23.249 10.152C23.0085 10.127 22.7632 10.1479 22.5131 10.2145C22.2688 10.2817 22.0389 10.3765 21.8236 10.4989C21.4848 10.6952 21.2562 10.9175 21.1378 11.1657L19.3477 10.2589C19.7058 9.65356 20.2691 9.19109 21.0375 8.87151C21.8117 8.55252 22.6569 8.44064 23.5733 8.53588L23.6334 8.54213C24.4123 8.62307 25.1 8.88558 25.6964 9.32964C26.2928 9.7737 26.7455 10.3475 27.0545 11.0512C27.3634 11.7548 27.4777 12.4932 27.3973 13.2664L27.1741 15.4141C27.1622 15.5286 27.1781 15.6547 27.2217 15.7924C27.2716 15.9249 27.3595 15.9978 27.4855 16.0108C27.6058 16.0233 27.7075 16.0194 27.7907 15.9991L27.9163 15.9601L27.7636 17.4291L27.3568 17.4997C27.0856 17.5468 26.7776 17.5582 26.4328 17.5339C26.0675 17.4844 25.7826 17.3564 25.5783 17.1499C25.3797 16.944 25.2419 16.7387 25.1648 16.5338C25.094 16.3238 25.0639 16.1673 25.0746 16.0642L24.9818 16.289C24.9205 16.4332 24.7907 16.5962 24.5923 16.7782C24.3945 16.9545 24.1018 17.0978 23.714 17.208C23.3257 17.3239 22.8022 17.3477 22.1436 17.2792ZM22.5502 15.7063C23.2489 15.779 23.8665 15.629 24.4031 15.2563C24.946 14.8786 25.2511 14.3661 25.3184 13.7189L25.3469 13.444L22.5889 13.4961C21.9677 13.5126 21.513 13.5984 21.2248 13.7537C20.9423 13.9096 20.7865 14.1279 20.7573 14.4085C20.7258 14.7121 20.8221 14.9826 21.0464 15.2201C21.3731 15.474 21.8744 15.6361 22.5502 15.7063ZM32.9566 18.429C32.0918 18.3392 31.3337 18.0867 30.6821 17.6716C30.0369 17.2515 29.5475 16.6969 29.2138 16.0081C28.8865 15.3141 28.7708 14.5061 28.8666 13.5841C28.944 12.8395 29.1321 12.1991 29.431 11.6629C29.7298 11.1266 30.1076 10.6941 30.5644 10.3653C31.0269 10.037 31.5426 9.80986 32.1114 9.68373C32.6803 9.5576 33.2683 9.52608 33.8753 9.58917C34.7287 9.67786 35.484 9.93003 36.1413 10.3457C36.7654 10.7463 37.2426 11.2793 37.5729 11.9446L35.6097 12.4526C35.2338 11.7247 34.5505 11.3092 33.5597 11.2062C32.792 11.1843 32.1803 11.416 31.7247 11.9012C31.269 12.3865 31.0025 13.0014 30.9251 13.7459C30.8477 14.4904 30.9821 15.147 31.3283 15.7155C31.6744 16.2841 32.2254 16.6366 32.9811 16.773C33.9719 16.876 34.7226 16.6154 35.2333 15.9911L37.0396 16.9083C36.8311 17.1876 36.5858 17.4313 36.3037 17.6393C35.3839 18.3021 34.2682 18.5653 32.9566 18.429ZM46.3826 19.5031L44.3724 19.2941L45.0581 12.6965L40.7112 12.2447L40.0255 18.8424L38.0153 18.6335L38.8688 10.4207L47.2362 11.2903L46.3826 19.5031ZM51.3349 20.313L51.2146 20.3005C50.6133 20.238 50.0964 20.1148 49.664 19.9309C49.2309 19.7528 48.8806 19.5311 48.6129 19.2659C48.0787 18.7241 47.8488 18.0953 47.9232 17.3794C47.9911 16.7265 48.2619 16.1815 48.7357 15.7445C49.2158 15.3023 49.7931 15.0671 50.4676 15.0388L54.6361 14.951C54.5852 14.4942 54.3939 14.1067 54.0623 13.7885C53.7312 13.4647 53.2507 13.27 52.6207 13.2046L52.4403 13.1858C52.1998 13.1608 51.9545 13.1816 51.7044 13.2483C51.4601 13.3155 51.2302 13.4103 51.0149 13.5326C50.6761 13.729 50.4475 13.9513 50.3291 14.1995L48.539 13.2927C48.8971 12.6873 49.4604 12.2249 50.2288 11.9053C51.003 11.5863 51.8482 11.4744 52.7646 11.5696L52.8247 11.5759C53.6036 11.6568 54.2913 11.9193 54.8877 12.3634C55.4841 12.8075 55.9368 13.3813 56.2458 14.0849C56.5547 14.7886 56.669 15.527 56.5887 16.3001L56.3655 18.4478C56.3536 18.5624 56.3694 18.6885 56.413 18.8262C56.4629 18.9587 56.5508 19.0315 56.6768 19.0446C56.7971 19.0571 56.8988 19.0532 56.982 19.0329L57.1076 18.9939L56.9549 20.4629L56.5481 20.5335C56.277 20.5806 55.969 20.592 55.6241 20.5677C55.2588 20.5182 54.974 20.3901 54.7696 20.1837C54.5711 19.9778 54.4332 19.7724 54.3561 19.5676C54.2853 19.3576 54.2552 19.2011 54.2659 19.098L54.1731 19.3228C54.1118 19.4669 53.982 19.63 53.7836 19.812C53.5858 19.9883 53.2931 20.1315 52.9053 20.2417C52.517 20.3577 51.9935 20.3814 51.3349 20.313ZM51.7415 18.7401C52.4402 18.8127 53.0579 18.6627 53.5944 18.2901C54.1373 17.9123 54.4424 17.3999 54.5097 16.7527L54.5383 16.4778L51.7802 16.5298C51.159 16.5463 50.7044 16.6322 50.4161 16.7875C50.1336 16.9434 49.9778 17.1617 49.9486 17.4423C49.9171 17.7458 50.0134 18.0163 50.2377 18.2538C50.5644 18.5078 51.0657 18.6699 51.7415 18.7401ZM66.6825 21.6128L64.3802 21.3735L62.0729 17.339L60.5008 17.1756L60.1106 20.9298L58.1004 20.7209L58.953 12.5167L60.9633 12.7256L60.6686 15.5606L62.0431 15.7034L64.6573 13.1095L66.9596 13.3488L63.7648 16.5162L66.6825 21.6128ZM71.2627 22.4101C70.3922 22.3196 69.6312 22.0668 68.9796 21.6518C68.3344 21.2316 67.8452 20.6742 67.5122 19.9797C67.1849 19.2857 67.0688 18.4805 67.1641 17.5642C67.3141 16.121 67.8829 15.0483 68.8705 14.3463C69.7898 13.6892 70.8908 13.4274 72.1737 13.5607C73.0328 13.65 73.7878 13.905 74.4388 14.3258C75.0897 14.7466 75.5814 15.3071 75.9139 16.0074C76.252 16.7083 76.3723 17.5284 76.2747 18.4676C76.1301 19.8593 75.5722 20.9099 74.6012 21.6195C73.6813 22.2822 72.5685 22.5458 71.2627 22.4101ZM71.5879 20.7853C72.3555 20.8072 72.9643 20.5752 73.4143 20.0894C73.8699 19.6042 74.1365 18.9893 74.2138 18.2448C74.2912 17.5002 74.1568 16.8437 73.8107 16.2751C73.4645 15.7066 72.9136 15.3541 72.1578 15.2176L71.8572 15.1864C71.0952 15.1651 70.4836 15.3967 70.0222 15.8814C69.5665 16.3666 69.3 16.9815 69.2226 17.726C69.1452 18.4706 69.2796 19.1271 69.6258 19.6957C69.9776 20.2648 70.5286 20.6173 71.2786 20.7532L71.5879 20.7853ZM82.9448 23.3029L77.0859 22.694L77.9385 14.4898L83.0844 15.0246C83.4223 15.0597 83.7333 15.1586 84.0174 15.3213C84.3021 15.4782 84.5449 15.6771 84.7456 15.918C84.9452 16.1703 85.0925 16.4519 85.1875 16.7628C85.2883 17.0743 85.3211 17.399 85.286 17.7369C85.2378 18.2008 85.0735 18.6121 84.793 18.9708C85.0963 19.2281 85.3268 19.5444 85.4846 19.9197C85.643 20.2893 85.7002 20.686 85.6562 21.1098C85.6211 21.4477 85.5222 21.7588 85.3595 22.0429C85.2031 22.3219 85.0042 22.5646 84.7628 22.7711C84.5105 22.9706 84.2289 23.1179 83.918 23.213C83.6128 23.3086 83.2884 23.3386 82.9448 23.3029ZM82.7175 21.6467C82.9523 21.6711 83.1582 21.6115 83.3352 21.4678C83.5186 21.319 83.6221 21.13 83.646 20.9009C83.6704 20.6661 83.6078 20.4599 83.4584 20.2823C83.3153 20.0995 83.1264 19.9959 82.8916 19.9715L79.4381 19.6126L79.264 21.2878L82.7175 21.6467ZM82.3464 18.2824C82.5755 18.3062 82.7817 18.2437 82.965 18.0948C83.1484 17.946 83.252 17.7571 83.2758 17.528C83.3002 17.2932 83.238 17.0841 83.0891 16.9007C82.9403 16.7174 82.7513 16.6138 82.5223 16.59L79.7818 16.3052L79.6059 17.9976L82.3464 18.2824ZM95.2381 24.5805L92.9358 24.3412L90.6285 20.3067L89.0564 20.1433L88.6662 23.8975L86.656 23.6885L87.5086 15.4844L89.5188 15.6933L89.2242 18.5283L90.5987 18.6711L93.2129 16.0772L95.5152 16.3165L92.3204 19.4839L95.2381 24.5805ZM99.065 25.2734L98.9447 25.2609C98.3434 25.1984 97.8265 25.0752 97.3941 24.8914C96.961 24.7132 96.6107 24.4915 96.343 24.2264C95.8088 23.6846 95.5789 23.0557 95.6533 22.3399C95.7212 21.687 95.992 21.142 96.4658 20.705C96.946 20.2628 97.5233 20.0275 98.1977 19.9992L102.366 19.9114C102.315 19.4546 102.124 19.0671 101.792 18.749C101.461 18.4251 100.981 18.2305 100.351 18.165L100.17 18.1462C99.9299 18.1212 99.6846 18.1421 99.4345 18.2087C99.1902 18.2759 98.9603 18.3707 98.745 18.4931C98.4062 18.6894 98.1776 18.9117 98.0592 19.1599L96.2691 18.2531C96.6272 17.6478 97.1905 17.1853 97.9589 16.8657C98.7331 16.5467 99.5783 16.4348 100.495 16.5301L100.555 16.5363C101.334 16.6173 102.021 16.8798 102.618 17.3238C103.214 17.7679 103.667 18.3417 103.976 19.0454C104.285 19.749 104.399 20.4874 104.319 21.2606L104.096 23.4083C104.084 23.5228 104.099 23.6489 104.143 23.7866C104.193 23.9191 104.281 23.992 104.407 24.0051C104.527 24.0176 104.629 24.0136 104.712 23.9933L104.838 23.9543L104.685 25.4233L104.278 25.4939C104.007 25.541 103.699 25.5524 103.354 25.5281C102.989 25.4786 102.704 25.3506 102.5 25.1441C102.301 24.9382 102.163 24.7329 102.086 24.528C102.015 24.318 101.985 24.1615 101.996 24.0584L101.903 24.2832C101.842 24.4274 101.712 24.5904 101.514 24.7724C101.316 24.9487 101.023 25.092 100.635 25.2022C100.247 25.3181 99.7236 25.3419 99.065 25.2734ZM99.4716 23.7005C100.17 23.7732 100.788 23.6232 101.325 23.2505C101.867 22.8728 102.173 22.3603 102.24 21.7131L102.268 21.4382L99.5103 21.4903C98.8891 21.5068 98.4345 21.5927 98.1462 21.7479C97.8637 21.9038 97.7079 22.1221 97.6787 22.4027C97.6472 22.7063 97.7435 22.9768 97.9678 23.2143C98.2945 23.4682 98.7958 23.6303 99.4716 23.7005ZM118.373 26.9848L116.363 26.7759L116.706 23.477L112.359 23.0253L112.016 26.3241L110.006 26.1152L110.859 17.9025L112.869 18.1114L112.527 21.4102L116.873 21.862L117.216 18.5631L119.226 18.7721L118.373 26.9848ZM124.285 27.9205C123.414 27.83 122.653 27.5772 122.002 27.1622C121.356 26.742 120.867 26.1846 120.534 25.4901C120.207 24.7961 120.091 23.991 120.186 23.0746C120.336 21.6314 120.905 20.5587 121.892 19.8567C122.812 19.1997 123.913 18.9378 125.196 19.0711C126.055 19.1604 126.81 19.4154 127.461 19.8362C128.112 20.257 128.603 20.8175 128.936 21.5178C129.274 22.2187 129.394 23.0388 129.297 23.978C129.152 25.3697 128.594 26.4203 127.623 27.1299C126.703 27.7927 125.591 28.0562 124.285 27.9205ZM124.61 26.2957C125.378 26.3176 125.986 26.0856 126.436 25.5998C126.892 25.1146 127.158 24.4997 127.236 23.7552C127.313 23.0106 127.179 22.3541 126.833 21.7855C126.487 21.217 125.936 20.8645 125.18 20.728L124.879 20.6968C124.117 20.6755 123.506 20.9072 123.044 21.3918C122.589 21.877 122.322 22.4919 122.245 23.2364C122.167 23.981 122.302 24.6375 122.648 25.2061C123 25.7752 123.551 26.1277 124.301 26.2636L124.61 26.2957ZM135.967 28.8133L130.108 28.2044L130.961 20.0002L136.106 20.535C136.444 20.5701 136.755 20.669 137.039 20.8317C137.324 20.9887 137.567 21.1875 137.768 21.4284C137.967 21.6807 138.114 21.9623 138.21 22.2732C138.31 22.5847 138.343 22.9094 138.308 23.2473C138.26 23.7112 138.095 24.1225 137.815 24.4812C138.118 24.7385 138.349 25.0548 138.507 25.4301C138.665 25.7997 138.722 26.1964 138.678 26.6203C138.643 26.9582 138.544 27.2692 138.381 27.5533C138.225 27.8323 138.026 28.075 137.785 28.2815C137.533 28.481 137.251 28.6283 136.94 28.7234C136.635 28.819 136.31 28.849 135.967 28.8133ZM135.739 27.1571C135.974 27.1815 136.18 27.1219 136.357 26.9782C136.541 26.8294 136.644 26.6404 136.668 26.4113C136.692 26.1765 136.63 25.9703 136.48 25.7927C136.337 25.6099 136.148 25.5064 135.914 25.4819L132.46 25.123L132.286 26.7982L135.739 27.1571ZM135.368 23.7928C135.597 23.8166 135.804 23.7541 135.987 23.6053C136.17 23.4564 136.274 23.2675 136.298 23.0384C136.322 22.8036 136.26 22.5945 136.111 22.4111C135.962 22.2278 135.773 22.1242 135.544 22.1004L132.804 21.8156L132.628 23.508L135.368 23.7928ZM143.82 29.9507C142.95 29.8603 142.188 29.6075 141.537 29.1924C140.892 28.7722 140.403 28.2149 140.07 27.5203C139.742 26.8264 139.626 26.0212 139.721 25.1049C139.871 23.6616 140.44 22.589 141.428 21.8869C142.347 21.2299 143.448 20.968 144.731 21.1014C145.59 21.1907 146.345 21.4457 146.996 21.8665C147.647 22.2872 148.139 22.8478 148.471 23.5481C148.809 24.249 148.93 25.069 148.832 26.0083C148.687 27.4 148.13 28.4506 147.159 29.1601C146.239 29.8229 145.126 30.0864 143.82 29.9507ZM144.145 28.326C144.913 28.3479 145.522 28.1159 145.972 27.6301C146.427 27.1448 146.694 26.5299 146.771 25.7854C146.849 25.0409 146.714 24.3843 146.368 23.8158C146.022 23.2472 145.471 22.8947 144.715 22.7583L144.414 22.727C143.653 22.7057 143.041 22.9374 142.58 23.422C142.124 23.9073 141.857 24.5222 141.78 25.2667C141.703 26.0112 141.837 26.6678 142.183 27.2363C142.535 27.8055 143.086 28.158 143.836 28.2938L144.145 28.326ZM154.789 21.4086C154.245 21.3521 153.752 21.1648 153.311 20.8468C152.875 20.5294 152.536 20.1382 152.295 19.6732C152.06 19.203 151.969 18.7131 152.022 18.2034L152.047 17.9628L153.886 18.1539L153.861 18.3944C153.826 18.7323 153.916 19.0341 154.132 19.2996C154.348 19.5594 154.625 19.7069 154.963 19.742C155.3 19.7771 155.599 19.6895 155.858 19.4791C156.124 19.2635 156.274 18.9868 156.309 18.6489L156.334 18.4084L158.173 18.5994L158.148 18.84C158.095 19.3497 157.902 19.8101 157.57 20.2214C157.244 20.6275 156.835 20.941 156.343 21.162C155.851 21.3829 155.333 21.4651 154.789 21.4086ZM158.011 31.1042L156 30.8953L156.574 25.38L151.464 30.4239L149.643 30.2346L150.496 22.0305L152.506 22.2394L151.933 27.7546L157.042 22.7108L158.863 22.9001L158.011 31.1042ZM13.2171 35.1586L11.2068 34.9497L11.8925 28.352L7.54559 27.9002L6.85991 34.4979L4.84968 34.289L5.7032 26.0763L14.0706 26.9459L13.2171 35.1586ZM18.1693 35.9685L18.0491 35.956C17.4477 35.8935 16.9308 35.7703 16.4984 35.5865C16.0653 35.4083 15.715 35.1866 15.4473 34.9215C14.9131 34.3797 14.6833 33.7508 14.7577 33.0349C14.8255 32.3821 15.0963 31.8371 15.5701 31.4001C16.0503 30.9579 16.6276 30.7226 17.302 30.6943L21.4706 30.6065C21.4196 30.1497 21.2283 29.7622 20.8967 29.4441C20.5656 29.1202 20.0851 28.9256 19.4551 28.8601L19.2747 28.8413C19.0342 28.8163 18.7889 28.8372 18.5388 28.9038C18.2945 28.971 18.0647 29.0658 17.8493 29.1882C17.5105 29.3845 17.2819 29.6068 17.1635 29.855L15.3734 28.9482C15.7316 28.3429 16.2948 27.8804 17.0633 27.5608C17.8374 27.2418 18.6827 27.1299 19.599 27.2252L19.6591 27.2314C20.438 27.3124 21.1257 27.5749 21.7221 28.0189C22.3186 28.463 22.7712 29.0368 23.0802 29.7405C23.3891 30.4441 23.5034 31.1825 23.4231 31.9557L23.1999 34.1034C23.188 34.2179 23.2038 34.344 23.2474 34.4817C23.2973 34.6142 23.3853 34.6871 23.5113 34.7001C23.6315 34.7126 23.7332 34.7087 23.8164 34.6884L23.942 34.6494L23.7893 36.1184L23.3826 36.189C23.1114 36.2361 22.8034 36.2475 22.4586 36.2232C22.0932 36.1737 21.8084 36.0457 21.6041 35.8392C21.4055 35.6333 21.2676 35.428 21.1905 35.2231C21.1197 35.0131 21.0897 34.8566 21.1004 34.7535L21.0075 34.9783C20.9462 35.1225 20.8164 35.2855 20.618 35.4675C20.4203 35.6438 20.1275 35.7871 19.7398 35.8973C19.3514 36.0132 18.8279 36.037 18.1693 35.9685ZM18.5759 34.3956C19.2746 34.4683 19.8923 34.3183 20.4289 33.9456C20.9718 33.5679 21.2768 33.0554 21.3441 32.4082L21.3727 32.1333L18.6146 32.1854C17.9935 32.2019 17.5388 32.2877 17.2506 32.443C16.9681 32.5989 16.8122 32.8172 16.7831 33.0978C16.7515 33.4014 16.8479 33.6719 17.0721 33.9094C17.3988 34.1633 17.9001 34.3254 18.5759 34.3956ZM26.3883 40.5219L24.3351 40.3085L25.6074 28.0667L27.6606 28.2801L27.5936 28.9244L27.6212 28.9099C27.6901 28.8592 27.8437 28.7738 28.0819 28.6538C28.3265 28.5287 28.6303 28.4185 28.9934 28.3231C29.357 28.2219 29.7564 28.194 30.1917 28.2392C31.4975 28.3749 32.5324 28.8616 33.2963 29.6994C34.1013 30.5877 34.4314 31.7277 34.2868 33.1194C34.1886 34.0644 33.9019 34.8451 33.4269 35.4615C32.9575 36.0784 32.3611 36.5259 31.6375 36.8038C30.9145 37.076 30.1235 37.1675 29.2644 37.0782C28.8234 37.0323 28.4342 36.934 28.0968 36.7832C27.765 36.6329 27.4943 36.4803 27.2847 36.3254C27.0756 36.1647 26.9345 36.0458 26.8615 35.9688L26.3883 40.5219ZM29.4426 35.4468L29.5896 35.4534C30.3572 35.4753 30.9686 35.2465 31.4237 34.767C31.8793 34.2818 32.1461 33.664 32.2241 32.9138C32.3009 32.175 32.1662 31.5213 31.8201 30.9527C31.4797 30.3847 30.9316 30.0325 30.1758 29.8961L30.0221 29.8714L29.8666 29.864C29.0938 29.8358 28.4394 30.0601 27.9036 30.537C27.3735 31.0145 27.0697 31.6255 26.9924 32.37C26.915 33.1146 27.0866 33.775 27.5072 34.3513C27.9335 34.9282 28.5274 35.2851 29.2889 35.4222L29.4426 35.4468ZM39.3672 37.8763L37.357 37.6674L38.0427 31.0697L34.8641 30.7394L35.032 29.1243L43.3993 29.9939L43.2315 31.609L40.0529 31.2786L39.3672 37.8763ZM51.9784 39.187L49.9682 38.978L50.5414 33.4628L45.4323 38.5066L43.6111 38.3174L44.4637 30.1132L46.4739 30.3221L45.9007 35.8374L51.0098 30.7935L52.8311 30.9828L51.9784 39.187ZM61.8578 40.2137L59.8476 40.0048L60.4207 34.4895L55.3116 39.5334L53.4904 39.3441L54.343 31.1399L56.3533 31.3489L55.7801 36.8641L60.8892 31.8203L62.7104 32.0095L61.8578 40.2137ZM75.2603 45.7747L73.2501 45.5657L73.6947 41.2876C73.6706 41.2966 73.5989 41.3181 73.4796 41.352C73.3603 41.3859 73.2121 41.4197 73.0349 41.4534C72.8634 41.4877 72.6814 41.5122 72.4889 41.5269C72.3014 41.548 72.1304 41.5505 71.9758 41.5344C71.6608 41.5017 71.3854 41.4499 71.1496 41.3791C70.9196 41.3089 70.675 41.2111 70.4159 41.0857C69.3408 40.5688 68.6422 39.7436 68.32 38.6102C68.1423 38.036 68.0907 37.3909 68.1651 36.675C68.2389 35.9649 68.5136 35.2987 68.9893 34.6767C69.4243 34.0561 69.9889 33.6083 70.6833 33.3331C71.0339 33.1901 71.3769 33.0926 71.7123 33.0406C72.0477 32.9886 72.4301 32.9849 72.8596 33.0296C73.2319 33.0683 73.5319 33.1342 73.7595 33.2273C73.9872 33.3204 74.2317 33.4471 74.4929 33.6074L74.5964 32.6109L75.611 32.7077L76.6067 32.8198L76.5031 33.8164C76.7974 33.7138 77.0656 33.6404 77.3075 33.596C77.5495 33.5517 77.8566 33.5489 78.2289 33.5876C78.6584 33.6322 79.0291 33.7142 79.3408 33.8334C79.6584 33.9532 79.9769 34.1195 80.2963 34.3321C80.9192 34.7442 81.3797 35.2986 81.6778 35.9953C82.0154 36.7019 82.1473 37.4103 82.0735 38.1205C81.9991 38.8364 81.8159 39.457 81.5239 39.9824C80.9756 41.0254 80.1222 41.6892 78.9637 41.9741C78.6844 42.0435 78.4221 42.0886 78.1768 42.1094C77.9372 42.1308 77.66 42.1251 77.345 42.0924C77.1903 42.0763 77.0206 42.0384 76.8358 41.9787C76.6561 41.9253 76.483 41.8639 76.3165 41.7945C76.1558 41.7257 76.0177 41.6621 75.9022 41.6038C75.7924 41.5461 75.7267 41.5103 75.7049 41.4965L75.2603 45.7747ZM77.5499 40.4551L77.5765 40.4492C78.0835 40.473 78.5133 40.3758 78.8659 40.1577C79.2186 39.9397 79.4936 39.6325 79.6911 39.2362C79.8886 38.8399 80.0129 38.3955 80.0641 37.903C80.1177 37.3875 79.9915 36.8476 79.6854 36.2832C79.3851 35.7194 78.8628 35.3699 78.1185 35.2347L78.0068 35.2231C77.6505 35.1976 77.326 35.2565 77.0332 35.3997C76.7468 35.5379 76.5029 35.7962 76.3014 36.1747C76.1057 36.5538 75.9826 36.9867 75.932 37.4735C75.8576 38.1894 75.8772 38.753 75.9907 39.1643C76.11 39.5761 76.2953 39.8819 76.5467 40.0817C76.8043 40.2764 77.1075 40.3947 77.4563 40.4367L77.4811 40.448L77.5499 40.4551ZM72.1721 39.8963L72.2073 39.8912C72.5573 39.9218 72.8755 39.868 73.1619 39.7299C73.4547 39.5867 73.6989 39.3255 73.8946 38.9464C74.096 38.5679 74.2339 38.0207 74.3083 37.3048C74.3589 36.818 74.3246 36.3687 74.2053 35.9568C74.0917 35.5456 73.9061 35.2426 73.6485 35.048C73.3972 34.8482 73.0946 34.7241 72.7407 34.6758L72.629 34.6642C71.8728 34.6435 71.2869 34.8778 70.8713 35.3672C70.4615 35.8572 70.2298 36.3599 70.1762 36.8754C70.125 37.3679 70.1553 37.8284 70.2671 38.2568C70.3789 38.6852 70.582 39.0421 70.8765 39.3274C71.1768 39.6134 71.5774 39.7968 72.0785 39.8778L72.1119 39.89L72.1721 39.8963ZM84.4641 47.0351C84.0346 46.9905 83.6419 46.8975 83.2861 46.7564C82.936 46.6158 82.6329 46.4685 82.3768 46.3145C82.1264 46.1612 81.9313 46.0338 81.7913 45.9324L81.6945 45.8615L83.1689 44.6254C83.2528 44.7094 83.3973 44.8228 83.6024 44.9657C83.807 45.1143 84.0266 45.2008 84.2614 45.2252C84.6051 45.2609 84.9313 45.2138 85.24 45.0838C85.5488 44.9538 85.7773 44.7604 85.9255 44.5038C86.0334 44.3008 86.3047 43.724 86.7392 42.7735C85.9225 42.5555 85.3555 42.0508 85.0383 41.2594L82.6934 34.0776L85.0386 34.3214L86.7356 40.3851C86.8052 40.6066 86.8997 40.7843 87.0189 40.9182C87.1381 41.0522 87.3094 41.1308 87.5328 41.154L90.2962 34.8677L92.4095 35.0874L92.3991 35.1037C92.1818 35.5789 91.4143 37.2272 90.0964 40.0484C88.7849 42.8645 87.9065 44.7154 87.4613 45.6012C87.1682 46.1381 86.7516 46.526 86.2115 46.7652C85.6766 47.0106 85.0941 47.1006 84.4641 47.0351ZM97.3547 43.9028L95.3445 43.6938L96.0301 37.0962L92.8516 36.7658L93.0194 35.1508L101.387 36.0204L101.219 37.6354L98.0404 37.3051L97.3547 43.9028ZM106.122 45.1005C105.257 45.0106 104.499 44.7582 103.848 44.3431C103.202 43.9286 102.712 43.3741 102.379 42.6796C102.071 42.0224 101.953 41.2719 102.023 40.4282C102.017 40.4276 102.013 40.4156 102.009 40.3921C102.012 40.3692 102.016 40.3291 102.022 40.2718L102.136 39.1722C102.21 38.4563 102.294 37.7906 102.387 37.175C102.48 36.5595 102.631 35.9963 102.84 35.4854C102.887 35.3687 102.976 35.2072 103.108 35.0009C103.245 34.7952 103.429 34.5799 103.661 34.3551C103.899 34.1251 104.191 33.9122 104.535 33.7165C104.88 33.5207 105.286 33.3748 105.753 33.2786C106.221 33.1767 106.756 33.157 107.357 33.2195L107.52 33.2365C108.422 33.2491 109.103 32.9321 109.564 32.2853L111.378 33.2119C111.301 33.3428 111.111 33.5547 110.808 33.8474C110.512 34.135 110.069 34.3928 109.478 34.6209C108.893 34.8438 108.129 34.9207 107.187 34.8518L107.04 34.8452C106.552 34.806 106.099 34.9065 105.68 35.1467C105.262 35.3868 104.912 35.857 104.631 36.5572C105.35 36.2672 106.153 36.1684 107.041 36.2606C107.894 36.3493 108.646 36.604 109.297 37.0248C109.955 37.4405 110.449 37.9984 110.782 38.6987C111.114 39.399 111.231 40.2217 111.133 41.1666C110.989 42.5583 110.434 43.6064 109.469 44.3108C108.549 44.9736 107.434 45.2368 106.122 45.1005ZM106.3 43.4691L106.456 43.4766C107.218 43.4979 107.827 43.266 108.282 42.7807C108.738 42.2955 109.004 41.6835 109.081 40.9447C109.159 40.1944 109.025 39.5379 108.678 38.975C108.332 38.4065 107.781 38.054 107.025 37.9175L106.88 37.8938L106.724 37.8863C105.963 37.8593 105.355 38.0826 104.901 38.5564C104.452 39.0251 104.183 39.6368 104.093 40.3916L104.09 40.4259C104.012 41.1705 104.147 41.827 104.493 42.3956C104.845 42.9647 105.396 43.3144 106.147 43.4445L106.3 43.4691ZM116.41 46.2044C115.54 46.114 114.779 45.8612 114.127 45.4462C113.482 45.026 112.993 44.4686 112.66 43.774C112.332 43.0801 112.216 42.2749 112.312 41.3586C112.462 39.9153 113.03 38.8427 114.018 38.1407C114.937 37.4836 116.038 37.2218 117.321 37.3551C118.18 37.4444 118.935 37.6994 119.586 38.1202C120.237 38.541 120.729 39.1015 121.061 39.8018C121.4 40.5027 121.52 41.3227 121.422 42.262C121.278 43.6537 120.72 44.7043 119.749 45.4139C118.829 46.0766 117.716 46.3401 116.41 46.2044ZM116.735 44.5797C117.503 44.6016 118.112 44.3696 118.562 43.8838C119.017 43.3985 119.284 42.7837 119.361 42.0391C119.439 41.2946 119.304 40.6381 118.958 40.0695C118.612 39.5009 118.061 39.1484 117.305 39.012L117.005 38.9807C116.243 38.9595 115.631 39.1911 115.17 39.6758C114.714 40.161 114.448 40.7759 114.37 41.5204C114.293 42.2649 114.427 42.9215 114.773 43.49C115.125 44.0592 115.676 44.4117 116.426 44.5475L116.735 44.5797ZM130.266 47.3231L128.256 47.1142L128.941 40.5165L126.398 40.2522L125.435 43.8426C125.19 44.6913 124.716 45.357 124.012 45.8395C123.313 46.3227 122.534 46.5196 121.675 46.4303L121.443 46.4062L121.611 44.7911L121.843 44.8152C122.198 44.8521 122.519 44.7726 122.806 44.5766C123.099 44.3755 123.295 44.1007 123.395 43.7522L124.804 38.4627L131.118 39.119L130.266 47.3231ZM136.135 48.2543C135.264 48.1639 134.503 47.9111 133.851 47.496C133.206 47.0759 132.717 46.5185 132.384 45.8239C132.057 45.13 131.941 44.3248 132.036 43.4085C132.186 41.9652 132.755 40.8926 133.742 40.1905C134.662 39.5335 135.763 39.2717 137.046 39.405C137.905 39.4943 138.66 39.7493 139.311 40.1701C139.962 40.5909 140.453 41.1514 140.786 41.8517C141.124 42.5526 141.244 43.3726 141.147 44.3119C141.002 45.7036 140.444 46.7542 139.473 47.4637C138.553 48.1265 137.44 48.39 136.135 48.2543ZM136.46 46.6296C137.227 46.6515 137.836 46.4195 138.286 45.9337C138.742 45.4484 139.008 44.8335 139.086 44.089C139.163 43.3445 139.029 42.6879 138.683 42.1194C138.336 41.5508 137.785 41.1983 137.03 41.0619L136.729 41.0306C135.967 41.0093 135.355 41.241 134.894 41.7256C134.438 42.2109 134.172 42.8258 134.094 43.5703C134.017 44.3148 134.151 44.9714 134.498 45.5399C134.85 46.1091 135.4 46.4616 136.15 46.5974L136.46 46.6296ZM150.54 49.4301L148.238 49.1909L145.93 45.1564L144.358 44.993L143.968 48.7471L141.958 48.5382L142.81 40.3341L144.821 40.543L144.526 43.3779L145.901 43.5208L148.515 40.9269L150.817 41.1662L147.622 44.3336L150.54 49.4301Z" fill="white"/>
<rect x="159.425" y="36.5336" width="47.7673" height="18.2863" transform="rotate(20.9333 159.425 36.5336)" fill="white"/>
<rect x="159.425" y="36.5336" width="47.7673" height="18.2863" transform="rotate(20.9333 159.425 36.5336)" stroke="#090C9B" stroke-width="0.581479"/>
<path d="M159.81 53.2104L159.697 53.1672C159.132 52.9512 158.665 52.6984 158.295 52.4089C157.923 52.1247 157.642 51.8199 157.452 51.4945C157.076 50.8329 157.017 50.166 157.274 49.4938C157.508 48.8807 157.911 48.4244 158.482 48.1249C159.06 47.8221 159.679 47.7442 160.337 47.8915L164.387 48.8855C164.456 48.4311 164.371 48.0073 164.133 47.6142C163.897 47.2157 163.483 46.9033 162.892 46.677L162.722 46.6122C162.497 46.5258 162.254 46.4824 161.995 46.482C161.742 46.4837 161.495 46.5158 161.256 46.5783C160.878 46.6802 160.599 46.8358 160.421 47.0449L158.926 45.7057C159.429 45.2136 160.093 44.9127 160.918 44.8029C161.748 44.6952 162.593 44.8059 163.454 45.135L163.51 45.1566C164.242 45.4364 164.838 45.8679 165.299 46.4512C165.76 47.0345 166.049 47.706 166.165 48.4656C166.282 49.2252 166.201 49.968 165.923 50.6941L165.152 52.7108C165.111 52.8184 165.093 52.9443 165.1 53.0885C165.114 53.2295 165.18 53.3226 165.298 53.3678C165.411 53.411 165.51 53.4336 165.596 53.4355L165.727 53.4303L165.2 54.8098L164.789 54.7727C164.514 54.748 164.214 54.6793 163.887 54.5666C163.547 54.4242 163.305 54.2268 163.161 53.9745C163.023 53.7242 162.943 53.4902 162.921 53.2723C162.907 53.0512 162.919 52.8922 162.956 52.7954L162.808 52.9885C162.711 53.1119 162.544 53.2358 162.305 53.3603C162.068 53.4793 161.748 53.5419 161.345 53.548C160.94 53.5595 160.428 53.447 159.81 53.2104ZM160.61 51.7964C161.266 52.0473 161.901 52.0623 162.516 51.8413C163.138 51.6169 163.566 51.2008 163.798 50.5931L163.897 50.335L161.219 49.6714C160.615 49.5266 160.154 49.4919 159.835 49.5673C159.522 49.6447 159.315 49.8152 159.214 50.0787C159.105 50.3638 159.128 50.65 159.283 50.9374C159.533 51.2673 159.975 51.5536 160.61 51.7964ZM169.957 57.1197C169.145 56.809 168.478 56.3689 167.956 55.7994C167.442 55.2265 167.112 54.5642 166.968 53.8125C166.832 53.0575 166.929 52.247 167.26 51.3812C167.528 50.6821 167.875 50.1122 168.303 49.6715C168.73 49.2309 169.207 48.9109 169.733 48.7115C170.265 48.5142 170.822 48.4282 171.404 48.4536C171.986 48.479 172.562 48.6007 173.132 48.8188C173.934 49.1253 174.598 49.5644 175.125 50.136C175.624 50.6845 175.947 51.3228 176.094 52.051L174.066 52.0336C173.892 51.2331 173.339 50.6549 172.409 50.299C171.673 50.0792 171.022 50.1447 170.457 50.4955C169.891 50.8462 169.474 51.3712 169.207 52.0703C168.939 52.7694 168.899 53.4384 169.086 54.0772C169.274 54.7159 169.715 55.199 170.409 55.5264C171.34 55.8823 172.132 55.8249 172.787 55.354L174.295 56.7075C174.021 56.9233 173.721 57.0952 173.394 57.2232C172.334 57.6253 171.189 57.5908 169.957 57.1197ZM184.35 62.2831L182.462 61.561L184.347 56.6321L180.793 59.2027L179.495 58.7059L178.563 54.4196L176.678 59.3485L174.79 58.6264L177.74 50.9144L179.628 51.6365L180.91 56.9633L185.412 53.849L187.3 54.5711L184.35 62.2831ZM186.447 67.3393L184.519 66.6018L188.917 55.1064L190.845 55.8439L190.613 56.449L190.644 56.4421C190.723 56.4109 190.894 56.3683 191.155 56.314C191.424 56.2565 191.746 56.2286 192.121 56.2304C192.498 56.2268 192.891 56.3032 193.3 56.4596C194.526 56.9286 195.4 57.6666 195.921 58.6735C196.469 59.7399 196.493 60.9266 195.993 62.2334C195.653 63.1208 195.174 63.8006 194.556 64.2731C193.943 64.7475 193.251 65.0253 192.48 65.1065C191.711 65.1823 190.923 65.0659 190.117 64.7574C189.703 64.599 189.352 64.4032 189.065 64.1702C188.784 63.9392 188.562 63.7217 188.399 63.5178C188.239 63.3085 188.133 63.1572 188.083 63.0638L186.447 67.3393ZM190.711 63.2277L190.851 63.2721C191.587 63.492 192.237 63.4292 192.801 63.0838C193.366 62.733 193.784 62.2054 194.053 61.5009C194.319 60.8071 194.358 60.1408 194.171 59.5021C193.989 58.8653 193.551 58.3833 192.856 58.0559L192.714 57.9923L192.566 57.9448C191.826 57.7175 191.136 57.7649 190.495 58.0869C189.86 58.4109 189.408 58.9225 189.141 59.6216C188.873 60.3207 188.868 61.0031 189.125 61.6686C189.388 62.3362 189.869 62.8347 190.569 63.1641L190.711 63.2277Z" fill="#090C9B"/>
</svg>
