<svg width="181" height="68" viewBox="0 0 181 68" fill="none" xmlns="http://www.w3.org/2000/svg">
<rect x="2.84109" y="40.1385" width="175.448" height="26.7385" transform="rotate(-6.19355 2.84109 40.1385)" fill="white"/>
<rect x="2.84109" y="40.1385" width="175.448" height="26.7385" transform="rotate(-6.19355 2.84109 40.1385)" stroke="black" stroke-width="0.718253"/>
<rect x="2.84109" y="40.1385" width="175.448" height="26.7385" transform="rotate(-6.19355 2.84109 40.1385)" stroke="#090C9B" stroke-width="0.718253"/>
<path d="M15.1479 49.7174L14.3335 49.8058L12.2512 46.6147L13.5999 43.0459L14.4143 42.9575L13.2828 46.5028L15.1479 49.7174ZM12.8963 50.4836L12.0764 50.5726L9.75356 46.8858L11.2309 42.7811L12.0507 42.6921L10.7852 46.7738L12.8963 50.4836ZM24.6514 49.208L23.7664 49.304L23.4671 46.5457L19.8618 46.937C19.3985 46.9873 18.9646 46.9208 18.5602 46.7376C18.1553 46.5508 17.8183 46.2798 17.549 45.9245C17.2833 45.5687 17.1253 45.1592 17.0751 44.6959L16.8023 42.182L17.6873 42.0859L17.9601 44.5998C18.0167 45.1211 18.2496 45.5463 18.6589 45.8754C19.0681 46.2046 19.5352 46.3407 20.0601 46.2837L23.3993 45.9213L22.9214 41.5179L23.8065 41.4219L24.6514 49.208ZM28.4196 48.799L27.5074 48.898L27.0136 44.348L24.8201 44.586L24.7505 43.9453L30.0498 43.3703L30.1194 44.011L27.9258 44.249L28.4196 48.799ZM33.8571 48.4342C33.296 48.4951 32.7845 48.4389 32.3226 48.2656C31.8642 48.0919 31.486 47.8125 31.1878 47.4274C30.8933 47.0418 30.714 46.554 30.65 45.964C30.5498 45.041 30.7565 44.2971 31.2702 43.7322C31.7585 43.2031 32.4153 42.8938 33.2406 42.8043C33.7944 42.7441 34.3023 42.8007 34.7643 42.974C35.2262 43.1473 35.6065 43.4283 35.905 43.8171C36.2072 44.2055 36.3911 44.7019 36.4567 45.3064C36.5533 46.1969 36.3502 46.9239 35.8474 47.4875C35.3603 48.0275 34.6969 48.343 33.8571 48.4342ZM33.9046 47.7588C34.4972 47.6506 34.9285 47.373 35.1987 46.9262C35.4688 46.4794 35.573 45.9718 35.5114 45.4035C35.4497 44.8352 35.239 44.3618 34.8793 43.9833C34.5196 43.6049 34.0351 43.4267 33.4259 43.4489L33.2033 43.473C32.6072 43.5817 32.174 43.8594 31.9039 44.3062C31.6337 44.7531 31.5295 45.2606 31.5912 45.8289C31.6528 46.3972 31.8635 46.8706 32.2232 47.2491C32.5829 47.6276 33.0656 47.8059 33.6712 47.7841L33.9046 47.7588ZM43.2201 47.4401C42.6627 47.5006 42.1532 47.446 41.6916 47.2763C41.2333 47.1027 40.855 46.8233 40.5569 46.4381C40.2795 46.0763 40.0959 45.5487 40.006 44.8553L39.9323 44.2261C39.8792 43.7374 39.8392 43.2839 39.8121 42.8657C39.7886 42.4471 39.8089 42.0603 39.873 41.7054C39.8836 41.6347 39.916 41.5286 39.9703 41.3872C40.0278 41.2418 40.1132 41.0842 40.2266 40.9144C40.3433 40.7406 40.4951 40.5703 40.6821 40.4036C40.8691 40.2368 41.1004 40.0908 41.3762 39.9657C41.6556 39.8401 41.9907 39.7561 42.3816 39.7137L42.5065 39.7002C43.2057 39.562 43.6532 39.2644 43.8489 38.8074L44.7657 39.054C44.5034 39.4047 44.2029 39.69 43.8642 39.9099C43.5291 40.1294 43.0549 40.2816 42.4415 40.3664L42.3443 40.3825C41.9618 40.435 41.5757 40.6234 41.1861 40.9477C40.8001 41.2716 40.6286 41.834 40.6715 42.6351C41.3917 42.1504 42.0377 41.877 42.6097 41.815C43.1635 41.7549 43.6714 41.8115 44.1333 41.9847C44.5953 42.158 44.9755 42.439 45.2741 42.8278C45.5726 43.2166 45.7547 43.7132 45.8203 44.3177C45.917 45.2082 45.7157 45.935 45.2164 46.4983C44.7326 47.0342 44.0671 47.3482 43.2201 47.4401ZM43.2725 46.7587C43.8651 46.6504 44.2964 46.3729 44.5665 45.9261C44.8363 45.4756 44.9405 44.968 44.8792 44.4034C44.8176 43.8351 44.6051 43.3619 44.2417 42.9838C43.882 42.6053 43.4012 42.4268 42.7992 42.4481L42.5658 42.4735C41.9768 42.5813 41.5467 42.8533 41.2754 43.2892C41.0077 43.7248 40.9011 44.2271 40.9555 44.7962L40.9579 44.8179C41.0203 45.3935 41.2314 45.8705 41.5911 46.249C41.9508 46.6274 42.4334 46.8058 43.039 46.784L43.2725 46.7587ZM53.9388 46.0297L53.0272 46.1341L52.4633 40.9379L53.3755 40.8389L53.9388 46.0297ZM50.4427 46.4146L46.9135 46.7975L46.3496 41.6014L47.2618 41.5024L47.4485 43.2236L50.0656 42.9396C50.5471 42.8873 50.9745 43.0131 51.3481 43.3168C51.7249 43.6165 51.9394 44.0071 51.9917 44.4885C52.0435 44.9663 51.9178 45.3938 51.6144 45.771C51.3147 46.1478 50.9242 46.3623 50.4427 46.4146ZM50.1537 45.7757C50.4577 45.7427 50.7049 45.6078 50.8953 45.3711C51.0857 45.1344 51.1646 44.8658 51.132 44.5653C51.099 44.2613 50.9641 44.014 50.7274 43.8237C50.4907 43.6333 50.2203 43.5546 49.9162 43.5876L47.5706 43.8421L47.8081 46.0303L50.1537 45.7757ZM60.3512 45.3338L59.4336 45.4334L58.9392 40.8779L56.7457 41.116L56.6059 43.8779C56.5707 44.4311 56.3709 44.9014 56.0064 45.2889C55.6416 45.6727 55.2166 45.891 54.7315 45.9436L54.662 45.3029C54.9154 45.2754 55.1439 45.1536 55.3475 44.9374C55.5543 44.7172 55.6684 44.4521 55.6897 44.1421L55.8677 40.5685L59.7825 40.1436L60.3512 45.3338ZM64.1327 45.1486C63.5716 45.2095 63.0601 45.1533 62.5982 44.9801C62.1398 44.8064 61.7616 44.527 61.4634 44.1418C61.1689 43.7563 60.9896 43.2685 60.9255 42.6785C60.8254 41.7555 61.0321 41.0115 61.5458 40.4467C62.0341 39.9176 62.6909 39.6083 63.5162 39.5187C64.07 39.4586 64.5779 39.5152 65.0399 39.6885C65.5018 39.8617 65.8821 40.1428 66.1806 40.5315C66.4828 40.9199 66.6667 41.4164 66.7323 42.0209C66.8289 42.9113 66.6258 43.6384 66.123 44.202C65.6359 44.742 64.9725 45.0575 64.1327 45.1486ZM64.1802 44.4733C64.7728 44.365 65.2041 44.0875 65.4743 43.6407C65.7444 43.1938 65.8486 42.6863 65.787 42.118C65.7253 41.5497 65.5146 41.0763 65.1549 40.6978C64.7952 40.3193 64.3107 40.1412 63.7015 40.1633L63.4789 40.1875C62.8828 40.2961 62.4496 40.5739 62.1795 41.0207C61.9093 41.4675 61.8051 41.9751 61.8668 42.5434C61.9284 43.1117 62.1391 43.5851 62.4988 43.9635C62.8585 44.342 63.3412 44.5204 63.9468 44.4986L64.1802 44.4733ZM73.4771 44.1346C72.9196 44.1951 72.4099 44.1387 71.948 43.9654C71.4896 43.7918 71.1116 43.5142 70.8138 43.1326C70.5193 42.7471 70.3398 42.2575 70.2754 41.6638C70.2231 41.1824 70.2538 40.7561 70.3673 40.3848C70.4841 40.0096 70.662 39.6918 70.9011 39.4315C71.1398 39.1675 71.4284 38.9586 71.767 38.8046C72.1051 38.6471 72.4715 38.5469 72.866 38.5041C73.4162 38.4444 73.9261 38.5026 74.3957 38.6787C74.8344 38.8398 75.1387 39.0284 75.3086 39.2443L74.4903 39.6517C74.1572 39.2484 73.6034 39.0888 72.8287 39.1728C72.2326 39.2815 71.7996 39.561 71.5299 40.0115C71.2597 40.4583 71.1553 40.9641 71.2166 41.5287C71.2783 42.097 71.4889 42.5704 71.8486 42.9489C72.2083 43.3274 72.6912 43.5075 73.2972 43.4894C74.0718 43.4053 74.5751 43.1328 74.8071 42.6718L75.7063 42.9093C75.6946 42.9362 75.6149 43.0291 75.4674 43.188C74.9839 43.7275 74.3205 44.0431 73.4771 44.1346ZM78.7137 43.5388L78.6323 43.5477C78.1689 43.598 77.7914 43.595 77.4996 43.5387C77.2119 43.4857 76.9698 43.3985 76.7735 43.2769C76.399 43.0319 76.189 42.6995 76.1434 42.2796C76.097 41.8524 76.2182 41.4676 76.507 41.1249C76.7954 40.7787 77.3612 40.5085 78.2045 40.3144L80.3909 39.808C80.2212 39.3246 79.9774 38.9849 79.6595 38.7886C79.3411 38.5888 78.9376 38.5154 78.449 38.5684L78.3241 38.582C78.1286 38.6032 77.9407 38.6602 77.7603 38.753C77.58 38.8458 77.4197 38.9548 77.2794 39.0799C77.0392 39.2964 76.9102 39.4404 76.8923 39.5119L76.0389 39.2914C76.1215 39.0407 76.381 38.7654 76.8172 38.4653C77.253 38.1617 77.7659 37.9778 78.356 37.9138L78.3994 37.9091C78.8917 37.8556 79.3517 37.9266 79.7794 38.1219C80.2071 38.3172 80.5634 38.6136 80.8483 39.0112C81.1368 39.4084 81.3077 39.8531 81.3611 40.3454L81.5043 41.6648C81.5581 42.1607 81.7117 42.3949 81.9651 42.3674C81.9977 42.3639 82.0335 42.3564 82.0725 42.3448L82.1323 42.3383L82.1953 42.9193C82.0113 43.0125 81.8107 43.0709 81.5935 43.0945C81.4379 43.1114 81.2758 43.0685 81.1072 42.966C80.9422 42.863 80.8301 42.6737 80.7709 42.3982C80.1849 43.0734 79.4992 43.4536 78.7137 43.5388ZM78.7341 42.8664C79.2771 42.8075 79.7258 42.5885 80.0802 42.2094C80.4346 41.8304 80.5835 41.3802 80.5269 40.859L80.4774 40.4029L78.3616 40.9017C77.9082 41.0095 77.5636 41.1586 77.3279 41.349C77.0922 41.5393 76.9893 41.7721 77.0191 42.0472C77.0537 42.3657 77.2176 42.5933 77.5107 42.73C77.8159 42.8763 78.2237 42.9218 78.7341 42.8664ZM89.606 42.159L88.6939 42.258L88.2584 38.2455L86.5544 41.375L85.8594 41.4504L83.5292 38.7587L83.9647 42.7712L83.0525 42.8702L82.4892 37.6795L83.5154 37.5681L86.1191 40.6037L88.0165 37.0797L89.0427 36.9683L89.606 42.159ZM97.7125 41.2793L96.8009 41.3837L96.237 36.1876L97.1492 36.0886L97.7125 41.2793ZM94.2164 41.6642L90.6871 42.0472L90.1232 36.851L91.0354 36.7521L91.2222 38.4732L93.8393 38.1892C94.3207 38.137 94.7482 38.2627 95.1218 38.5665C95.4985 38.8662 95.7131 39.2567 95.7653 39.7382C95.8172 40.216 95.6914 40.6435 95.3881 41.0206C95.0884 41.3974 94.6978 41.612 94.2164 41.6642ZM93.9273 41.0254C94.2314 40.9924 94.4786 40.8575 94.669 40.6207C94.8594 40.384 94.9383 40.1154 94.9057 39.815C94.8727 39.5109 94.7378 39.2637 94.501 39.0733C94.2643 38.8829 93.9939 38.8042 93.6898 38.8372L91.3442 39.0918L91.5817 41.2799L93.9273 41.0254ZM105.309 40.455L104.396 40.554L103.961 36.5415L102.257 39.6709L101.562 39.7464L99.2317 37.0547L99.6671 41.0672L98.755 41.1662L98.1916 35.9754L99.2178 35.8641L101.822 38.8996L103.719 35.3756L104.745 35.2643L105.309 40.455ZM111.951 39.9593C111.394 40.0198 110.884 39.9634 110.422 39.7901C109.964 39.6165 109.586 39.3389 109.288 38.9573C108.994 38.5718 108.814 38.0822 108.75 37.4886C108.697 37.0071 108.728 36.5808 108.842 36.2096C108.958 35.8343 109.136 35.5165 109.375 35.2562C109.614 34.9922 109.903 34.7833 110.241 34.6294C110.579 34.4718 110.946 34.3716 111.34 34.3288C111.891 34.2691 112.4 34.3273 112.87 34.5034C113.309 34.6645 113.613 34.8531 113.783 35.0691L112.965 35.4765C112.632 35.0731 112.078 34.9135 111.303 34.9976C110.707 35.1062 110.274 35.3858 110.004 35.8362C109.734 36.283 109.63 36.7888 109.691 37.3535C109.753 37.9218 109.963 38.3952 110.323 38.7736C110.683 39.1521 111.166 39.3323 111.771 39.3141C112.546 39.2301 113.049 38.9575 113.281 38.4965L114.181 38.734C114.169 38.761 114.089 38.8538 113.942 39.0127C113.458 39.5522 112.795 39.8678 111.951 39.9593ZM120.349 38.8228L119.431 38.9224L118.937 34.3669L116.743 34.605L116.603 37.3669C116.568 37.9201 116.368 38.3904 116.004 38.7779C115.639 39.1618 115.214 39.38 114.729 39.4327L114.659 38.792C114.913 38.7645 115.141 38.6426 115.345 38.4264C115.552 38.2062 115.666 37.9411 115.687 37.6312L115.865 34.0575L119.78 33.6327L120.349 38.8228ZM124.13 38.6377C123.569 38.6986 123.057 38.6424 122.596 38.4691C122.137 38.2954 121.759 38.016 121.461 37.6309C121.166 37.2453 120.987 36.7575 120.923 36.1675C120.823 35.2445 121.03 34.5006 121.543 33.9357C122.031 33.4066 122.688 33.0973 123.514 33.0077C124.067 32.9476 124.575 33.0042 125.037 33.1775C125.499 33.3508 125.879 33.6318 126.178 34.0206C126.48 34.409 126.664 34.9054 126.73 35.5099C126.826 36.4004 126.623 37.1274 126.12 37.691C125.633 38.231 124.97 38.5465 124.13 38.6377ZM124.178 37.9623C124.77 37.8541 125.201 37.5765 125.472 37.1297C125.742 36.6829 125.846 36.1753 125.784 35.607C125.723 35.0387 125.512 34.5653 125.152 34.1868C124.793 33.8084 124.308 33.6302 123.699 33.6524L123.476 33.6765C122.88 33.7852 122.447 34.0629 122.177 34.5097C121.907 34.9566 121.802 35.4641 121.864 36.0324C121.926 36.6007 122.136 37.0741 122.496 37.4526C122.856 37.8311 123.339 38.0094 123.944 37.9876L124.178 37.9623ZM135.361 37.1936L134.362 37.302L132.213 34.9093L131.339 35.0042L131.62 37.5996L130.708 37.6986L130.427 35.1032L129.552 35.1981L127.972 37.9955L126.967 38.1045L128.825 34.8211L126.838 32.8667L127.81 32.7612L129.624 34.5421L130.357 34.4625L130.145 32.5078L131.057 32.4089L131.269 34.3635L132.002 34.284L133.392 32.1555L134.364 32.05L132.843 34.385L135.361 37.1936ZM141.28 36.5513L140.368 36.6503L140.121 34.3753L136.646 34.7524L136.893 37.0274L135.98 37.1264L135.417 31.9357L136.329 31.8367L136.576 34.1117L140.051 33.7346L139.804 31.4596L140.716 31.3606L141.28 36.5513ZM149.305 35.6805L148.393 35.7849L147.829 30.5887L148.741 30.4897L149.305 35.6805ZM145.809 36.0654L142.279 36.4484L141.716 31.2522L142.628 31.1532L142.815 32.8744L145.432 32.5904C145.913 32.5381 146.341 32.6639 146.714 32.9676C147.091 33.2673 147.305 33.6579 147.358 34.1393C147.409 34.6171 147.284 35.0446 146.98 35.4218C146.681 35.7986 146.29 36.0131 145.809 36.0654ZM145.52 35.4265C145.824 35.3935 146.071 35.2586 146.261 35.0219C146.452 34.7852 146.531 34.5166 146.498 34.2161C146.465 33.9121 146.33 33.6648 146.093 33.4745C145.857 33.2841 145.586 33.2054 145.282 33.2384L142.937 33.4929L143.174 35.6811L145.52 35.4265ZM156.901 34.8561L155.989 34.9551L155.553 30.9426L153.849 34.0721L153.154 34.1475L150.824 31.4558L151.259 35.4683L150.347 35.5673L149.784 30.3766L150.81 30.2652L153.414 33.3008L155.311 29.7768L156.338 29.6654L156.901 34.8561ZM14.0118 62.433L13.0996 62.532L12.6058 57.982L9.13084 58.3591L9.62461 62.9091L8.71244 63.0081L8.14913 57.8174L13.4484 57.2423L14.0118 62.433ZM16.247 65.0087L15.3022 65.1112L14.4372 57.1405L15.382 57.038L15.4574 57.733C15.9565 57.0672 16.5771 56.694 17.3191 56.6135C18.1589 56.5224 18.8744 56.6864 19.4656 57.1057C20.0776 57.5484 20.4319 58.2149 20.5286 59.1054C20.5942 59.7099 20.5213 60.236 20.3098 60.6838C20.1016 61.1276 19.7905 61.4836 19.3765 61.752C18.9624 62.0203 18.4785 62.1845 17.9247 62.2446C17.2116 62.322 16.528 62.0977 15.874 61.5717L16.247 65.0087ZM18.032 61.5628C18.6282 61.4541 19.0613 61.1764 19.3314 60.7296C19.6016 60.2827 19.7058 59.7752 19.6441 59.2069C19.5825 58.6386 19.3718 58.1652 19.0121 57.7867C18.656 57.4078 18.1752 57.2293 17.5696 57.251L17.3361 57.2764C16.7436 57.3846 16.2831 57.6635 15.9546 58.113C15.6298 58.5621 15.4986 59.0744 15.5611 59.65C15.6235 60.2255 15.8616 60.6978 16.2752 61.0667C16.6888 61.4357 17.1984 61.6093 17.8039 61.5875L18.032 61.5628ZM26.9234 61.0318L26.0112 61.1308L25.564 57.0098L22.5308 61.5085L21.6241 61.6069L21.0608 56.4162L21.973 56.3172L22.4202 60.4383L25.4534 55.9395L26.3601 55.8411L26.9234 61.0318ZM33.1482 60.5816C32.6378 60.637 32.2066 60.6288 31.8546 60.5571C31.5061 60.4851 31.2207 60.386 30.9983 60.26C30.7758 60.134 30.579 59.9906 30.4077 59.8297L31.2297 59.4054C31.2597 59.4461 31.3526 59.5257 31.5083 59.6443C31.6676 59.7626 31.8694 59.8505 32.1137 59.9082C32.3577 59.9623 32.6642 59.9694 33.0335 59.9293C33.4823 59.8806 33.8409 59.7593 34.1092 59.5653C34.3807 59.3674 34.498 59.0983 34.461 58.7581C34.4253 58.4287 34.2946 58.203 34.0689 58.081C33.8429 57.9553 33.5851 57.9082 33.2955 57.9397L32.4865 58.0274L32.4169 57.3868L32.9979 57.3237C33.2766 57.2935 33.5056 57.21 33.6849 57.0734C33.8674 56.9327 33.9416 56.7049 33.9074 56.39C33.876 56.1004 33.705 55.8919 33.3945 55.7644C33.0877 55.6366 32.7569 55.5919 32.4021 55.6304C32.1669 55.656 31.961 55.7167 31.7847 55.8128C31.6083 55.9088 31.4603 56.0128 31.3406 56.1247C31.2209 56.2366 31.1225 56.3424 31.0454 56.4424L30.1413 56.2109C30.3434 55.9802 30.5385 55.7869 30.7267 55.631C30.9144 55.4714 31.141 55.3315 31.4062 55.2111C31.6751 55.0904 31.987 55.0108 32.3417 54.9723C32.881 54.9137 33.3317 54.9491 33.6936 55.0782C34.0592 55.207 34.3364 55.3821 34.5252 55.6033C34.7172 55.8205 34.8254 56.0413 34.8498 56.2657C34.8663 56.4178 34.8537 56.5546 34.812 56.6764C34.7738 56.7977 34.7282 56.8997 34.6749 56.9824C34.6212 57.0615 34.5831 57.1151 34.5605 57.1431L34.3723 57.3833C34.7081 57.508 34.9555 57.6789 35.1146 57.8961C35.2769 58.1092 35.373 58.3533 35.4028 58.6284C35.4252 58.8347 35.4108 59.0395 35.3597 59.2429C35.3085 59.4462 35.203 59.6389 35.0433 59.8211C34.8869 59.9992 34.6549 60.1562 34.3473 60.2921C34.0438 60.4313 33.6441 60.5277 33.1482 60.5816ZM38.5912 59.9634L38.5097 59.9723C38.0464 60.0225 37.6688 60.0196 37.3771 59.9633C37.0893 59.9103 36.8473 59.8231 36.651 59.7015C36.2765 59.4565 36.0664 59.124 36.0209 58.7042C35.9745 58.277 36.0957 57.8921 36.3845 57.5495C36.6729 57.2032 37.2387 56.9331 38.0819 56.739L40.2683 56.2326C40.0987 55.7492 39.8549 55.4094 39.537 55.2132C39.2186 55.0134 38.8151 54.94 38.3264 54.993L38.2016 55.0066C38.0061 55.0278 37.8182 55.0848 37.6378 55.1776C37.4574 55.2704 37.2971 55.3794 37.1569 55.5045C36.9167 55.721 36.7877 55.865 36.7698 55.9365L35.9163 55.716C35.999 55.4653 36.2584 55.19 36.6947 54.8899C37.1305 54.5862 37.6434 54.4024 38.2334 54.3384L38.2769 54.3337C38.7692 54.2802 39.2292 54.3512 39.6569 54.5465C40.0846 54.7418 40.4409 55.0382 40.7257 55.4358C41.0142 55.833 41.1852 56.2777 41.2386 56.77L41.3818 58.0894C41.4356 58.5853 41.5892 58.8195 41.8426 58.792C41.8752 58.7885 41.911 58.7809 41.95 58.7694L42.0097 58.7629L42.0728 59.3439C41.8888 59.4371 41.6882 59.4955 41.471 59.5191C41.3154 59.5359 41.1532 59.4931 40.9846 59.3905C40.8196 59.2876 40.7075 59.0983 40.6483 58.8228C40.0624 59.498 39.3766 59.8782 38.5912 59.9634ZM38.6116 59.291C39.1545 59.2321 39.6032 59.0131 39.9576 58.634C40.312 58.255 40.4609 57.8048 40.4044 57.2836L40.3549 56.8275L38.2391 57.3263C37.7856 57.4341 37.4411 57.5832 37.2054 57.7735C36.9697 57.9639 36.8667 58.1967 36.8966 58.4718C36.9311 58.7903 37.095 59.0179 37.3882 59.1546C37.6934 59.3009 38.1012 59.3464 38.6116 59.291ZM48.2293 58.7197L47.3171 58.8187L46.8233 54.2687L43.3483 54.6458L43.8421 59.1958L42.9299 59.2948L42.3666 54.1041L47.666 53.529L48.2293 58.7197ZM50.9307 61.2887C50.5796 61.3268 50.2829 61.326 50.0405 61.2864C49.8018 61.2464 49.5167 61.1675 49.1853 61.0496L49.6718 60.42C50.0051 60.5889 50.3455 60.6545 50.693 60.6168C51.0079 60.5826 51.2512 60.4793 51.423 60.3069C51.5947 60.1344 51.7203 59.9248 51.7997 59.6782C51.8444 59.5158 51.9547 59.0644 52.1307 58.3238C51.4022 58.293 50.8979 58.0675 50.618 57.6474L48.1866 53.467L49.2237 53.3545L51.2298 57.0592C51.3283 57.2243 51.4454 57.3581 51.581 57.4605C51.7167 57.563 51.9619 57.595 52.3166 57.5565L53.2362 52.919L54.2189 52.8124C54.2049 52.9531 53.9721 54.0313 53.5207 56.0469C53.0728 58.0622 52.7636 59.3978 52.5931 60.0535C52.4884 60.4055 52.2828 60.6878 51.9763 60.9006C51.6702 61.1169 51.3216 61.2463 50.9307 61.2887ZM57.9616 57.8888C57.4041 57.9493 56.8944 57.8929 56.4325 57.7196C55.9742 57.546 55.5961 57.2684 55.2983 56.8868C55.0038 56.5013 54.8243 56.0117 54.7599 55.418C54.7076 54.9366 54.7383 54.5103 54.8518 54.1391C54.9686 53.7638 55.1465 53.446 55.3856 53.1857C55.6243 52.9217 55.9129 52.7128 56.2515 52.5588C56.5896 52.4013 56.956 52.3011 57.3506 52.2583C57.9008 52.1986 58.4106 52.2568 58.8802 52.4329C59.3189 52.594 59.6232 52.7826 59.7931 52.9985L58.9748 53.406C58.6417 53.0026 58.0879 52.843 57.3133 52.927C56.7171 53.0357 56.2841 53.3152 56.0144 53.7657C55.7443 54.2125 55.6398 54.7183 55.7011 55.2829C55.7628 55.8512 55.9735 56.3246 56.3332 56.7031C56.6929 57.0816 57.1757 57.2617 57.7817 57.2436C58.5563 57.1595 59.0596 56.887 59.2916 56.426L60.1909 56.6635C60.1791 56.6904 60.0995 56.7833 59.9519 56.9422C59.4684 57.4817 58.805 57.7973 57.9616 57.8888ZM66.2122 56.7682L65.2077 56.8772L63.0094 54.4898L61.6194 54.6407L61.9011 57.236L60.9889 57.335L60.4256 52.1443L61.3378 52.0453L61.5499 54L62.7987 53.8645L64.2426 51.7301L65.2145 51.6246L63.688 53.9602L66.2122 56.7682ZM69.152 56.6744C68.8697 56.705 68.5842 56.7067 68.2956 56.6794C68.011 56.6554 67.7522 56.5992 67.5192 56.511C67.0613 56.3409 66.683 56.0615 66.3845 55.6728C66.0895 55.2836 65.9104 54.7976 65.8472 54.2148C65.8279 54.0375 65.8281 53.8195 65.8477 53.5611C65.8668 53.2989 65.8989 53.0885 65.944 52.9298C66.0575 52.5586 66.2338 52.2428 66.4729 51.9825C66.7152 51.7181 67.0055 51.5072 67.3436 51.3496C67.6818 51.1921 68.0463 51.0921 68.4373 51.0496C68.9911 50.9895 69.4992 51.0479 69.9615 51.2248C70.4235 51.3981 70.8037 51.6791 71.1023 52.0679C71.4041 52.4527 71.5879 52.9491 71.6539 53.5572L71.6557 53.5735L66.8752 54.5757C66.9621 55.0387 67.2012 55.4028 67.5925 55.668C67.9875 55.9328 68.4146 56.0549 68.8738 56.0344L69.2973 55.9884C69.628 55.9306 69.9259 55.8067 70.1909 55.6168C70.4596 55.4265 70.6319 55.2594 70.7079 55.1157L71.5963 55.3544C71.3938 55.7499 71.0104 56.0809 70.446 56.3472C70.2717 56.4284 70.0648 56.4966 69.8254 56.5519C69.5865 56.6108 69.362 56.6516 69.152 56.6744ZM66.761 53.9289L70.6231 53.1197C70.4887 52.5557 70.2345 52.1712 69.8607 51.9664C69.4865 51.758 69.0752 51.6634 68.6268 51.6828L68.3988 51.7075C67.8851 51.7999 67.4665 52.0431 67.143 52.4371C66.8228 52.8271 66.6954 53.3244 66.761 53.9289ZM78.2008 55.4672L77.2886 55.5662L76.7948 51.0161L74.6013 51.2542L74.5317 50.6135L79.8311 50.0384L79.9006 50.6791L77.707 50.9172L78.2008 55.4672ZM83.2118 55.1211L83.1304 55.13C82.6671 55.1803 82.2895 55.1773 81.9977 55.1211C81.71 55.068 81.468 54.9808 81.2716 54.8593C80.8971 54.6142 80.6871 54.2818 80.6415 53.8619C80.5952 53.4347 80.7164 53.0499 81.0051 52.7072C81.2935 52.361 81.8593 52.0908 82.7026 51.8967L84.889 51.3903C84.7194 50.907 84.4756 50.5672 84.1576 50.3709C83.8393 50.1711 83.4358 50.0977 82.9471 50.1507L82.8222 50.1643C82.6268 50.1855 82.4388 50.2425 82.2585 50.3353C82.0781 50.4282 81.9178 50.5371 81.7776 50.6622C81.5374 50.8787 81.4083 51.0227 81.3904 51.0943L80.537 50.8737C80.6197 50.623 80.8791 50.3477 81.3153 50.0476C81.7512 49.744 82.2641 49.5601 82.8541 49.4961L82.8975 49.4914C83.3898 49.438 83.8498 49.5089 84.2775 49.7042C84.7053 49.8995 85.0615 50.1959 85.3464 50.5935C85.6349 50.9907 85.8058 51.4355 85.8593 51.9277L86.0025 53.2471C86.0563 53.7431 86.2099 53.9773 86.4633 53.9498C86.4958 53.9462 86.5316 53.9387 86.5707 53.9271L86.6304 53.9206L86.6934 54.5016C86.5094 54.5948 86.3089 54.6532 86.0917 54.6768C85.936 54.6937 85.7739 54.6508 85.6053 54.5483C85.4403 54.4453 85.3282 54.2561 85.269 53.9805C84.683 54.6557 83.9973 55.0359 83.2118 55.1211ZM83.2322 54.4487C83.7752 54.3898 84.2239 54.1708 84.5783 53.7917C84.9327 53.4127 85.0816 52.9625 85.025 52.4413L84.9755 51.9852L82.8597 52.484C82.4063 52.5918 82.0617 52.7409 81.826 52.9313C81.5903 53.1217 81.4874 53.3544 81.5172 53.6295C81.5518 53.948 81.7157 54.1756 82.0089 54.3123C82.3141 54.4586 82.7219 54.5041 83.2322 54.4487ZM92.7196 53.8916L91.7151 54.0006L89.5168 51.6132L88.1268 51.7641L88.4085 54.3594L87.4963 54.4584L86.933 49.2677L87.8452 49.1687L88.0573 51.1234L89.3061 50.9879L90.75 48.8535L91.7219 48.748L90.1955 51.0836L92.7196 53.8916ZM95.6812 53.7954C95.1201 53.8563 94.6086 53.8001 94.1467 53.6268C93.6883 53.4532 93.3101 53.1738 93.0119 52.7886C92.7174 52.4031 92.5381 51.9153 92.4741 51.3253C92.3739 50.4022 92.5807 49.6583 93.0944 49.0935C93.5826 48.5644 94.2394 48.2551 95.0647 48.1655C95.6186 48.1054 96.1264 48.162 96.5884 48.3353C97.0504 48.5085 97.4306 48.7896 97.7292 49.1783C98.0313 49.5667 98.2152 50.0631 98.2808 50.6676C98.3775 51.5581 98.1744 52.2852 97.6715 52.8488C97.1844 53.3887 96.521 53.7043 95.6812 53.7954ZM95.7288 53.1201C96.3213 53.0118 96.7526 52.7343 97.0228 52.2874C97.2929 51.8406 97.3972 51.333 97.3355 50.7647C97.2738 50.1964 97.0631 49.7231 96.7034 49.3446C96.3437 48.9661 95.8593 48.7879 95.2501 48.8101L95.0274 48.8343C94.4313 48.9429 93.9981 49.2206 93.728 49.6675C93.4579 50.1143 93.3536 50.6219 93.4153 51.1902C93.477 51.7585 93.6877 52.2319 94.0474 52.6103C94.4071 52.9888 94.8897 53.1672 95.4953 53.1454L95.7288 53.1201ZM100.256 53.0737L99.3438 53.1727L98.7805 47.982L103.189 47.5036L103.259 48.1442L99.7622 48.5237L100.256 53.0737ZM106.975 52.5698C106.414 52.6307 105.902 52.5745 105.44 52.4013C104.982 52.2276 104.604 51.9482 104.306 51.563C104.011 51.1775 103.832 50.6897 103.768 50.0997C103.668 49.1766 103.874 48.4327 104.388 47.8679C104.876 47.3388 105.533 47.0295 106.358 46.9399C106.912 46.8798 107.42 46.9364 107.882 47.1097C108.344 47.2829 108.724 47.564 109.023 47.9527C109.325 48.3411 109.509 48.8376 109.574 49.4421C109.671 50.3325 109.468 51.0596 108.965 51.6232C108.478 52.1632 107.815 52.4787 106.975 52.5698ZM107.022 51.8945C107.615 51.7862 108.046 51.5087 108.316 51.0618C108.587 50.615 108.691 50.1074 108.629 49.5391C108.567 48.9708 108.357 48.4975 107.997 48.119C107.637 47.7405 107.153 47.5623 106.544 47.5845L106.321 47.6087C105.725 47.7173 105.292 47.9951 105.022 48.4419C104.751 48.8887 104.647 49.3963 104.709 49.9646C104.771 50.5329 104.981 51.0063 105.341 51.3847C105.701 51.7632 106.183 51.9416 106.789 51.9198L107.022 51.8945ZM118.711 53.8508L117.799 53.9497L117.456 50.7897C117.227 50.9793 117.08 51.0923 117.014 51.1287C116.948 51.1615 116.861 51.2003 116.752 51.2451C116.647 51.2894 116.536 51.329 116.419 51.3636C116.306 51.4015 116.204 51.4254 116.114 51.4352C115.911 51.4572 115.732 51.462 115.577 51.4495C115.425 51.4367 115.259 51.4089 115.079 51.3662C114.346 51.1895 113.806 50.7737 113.46 50.1191C113.27 49.7808 113.15 49.3818 113.1 48.9221C113.051 48.4733 113.132 48.025 113.344 47.5772C113.534 47.1354 113.822 46.7837 114.207 46.5221C114.412 46.3863 114.615 46.2801 114.815 46.2034C115.016 46.1267 115.254 46.0735 115.529 46.0436C115.764 46.0181 115.956 46.0192 116.106 46.0469C116.255 46.071 116.543 46.1588 116.97 46.3103L116.879 45.4795L117.792 45.3805L117.882 46.2113C118.27 45.9714 118.532 45.8239 118.669 45.7688C118.809 45.7096 118.998 45.6671 119.237 45.6412C119.509 45.6117 119.751 45.6129 119.963 45.6448C120.175 45.6767 120.396 45.737 120.625 45.8257C121.061 45.9981 121.418 46.2798 121.695 46.671C121.997 47.063 122.173 47.4834 122.222 47.9322C122.271 48.3919 122.241 48.8072 122.132 49.1781C121.931 49.892 121.493 50.4138 120.818 50.7434C120.647 50.8242 120.49 50.8871 120.344 50.9322C120.199 50.9773 120.025 51.0108 119.822 51.0328C119.728 51.043 119.62 51.0419 119.498 51.0295C119.38 51.0204 119.263 51.0056 119.147 50.9852C119.035 50.9644 118.943 50.9451 118.871 50.9272C118.8 50.9057 118.632 50.8269 118.368 50.6907L118.711 53.8508ZM119.837 50.3555L119.863 50.3471C120.251 50.2794 120.565 50.13 120.803 49.899C121.042 49.668 121.204 49.3868 121.289 49.0553C121.377 48.7234 121.401 48.3728 121.361 48.0036C121.317 47.5982 121.132 47.2045 120.805 46.8225C120.477 46.4368 120.011 46.2549 119.405 46.2767L119.313 46.2867C119.028 46.325 118.777 46.4273 118.56 46.5936C118.348 46.7595 118.197 47.0048 118.107 47.3294C118.018 47.6541 117.993 47.9992 118.033 48.3648C118.09 48.8897 118.197 49.3011 118.354 49.599C118.511 49.897 118.711 50.1041 118.954 50.2206C119.197 50.337 119.457 50.3839 119.733 50.3613L119.837 50.3555ZM116.025 50.7692L116.052 50.7608C116.326 50.7237 116.569 50.6222 116.782 50.4563C116.995 50.2903 117.146 50.0451 117.235 49.7204C117.325 49.3957 117.341 48.971 117.284 48.4461C117.244 48.0805 117.146 47.7488 116.989 47.4508C116.832 47.1529 116.632 46.9457 116.389 46.8293C116.145 46.7128 115.878 46.6667 115.588 46.6909L115.501 46.7003C114.901 46.8094 114.483 47.0874 114.246 47.5343C114.012 47.9772 113.917 48.4013 113.961 48.8067C114.001 49.1759 114.098 49.5133 114.252 49.8189C114.406 50.1245 114.624 50.3645 114.907 50.5389C115.189 50.7133 115.528 50.792 115.921 50.7749L116.025 50.7692ZM126.174 50.4863C125.613 50.5472 125.101 50.491 124.639 50.3177C124.181 50.1441 123.803 49.8647 123.505 49.4795C123.21 49.094 123.031 48.6062 122.967 48.0162C122.867 47.0931 123.073 46.3492 123.587 45.7844C124.075 45.2553 124.732 44.946 125.558 44.8564C126.111 44.7963 126.619 44.8529 127.081 45.0262C127.543 45.1994 127.923 45.4804 128.222 45.8692C128.524 46.2576 128.708 46.754 128.774 47.3585C128.87 48.249 128.667 48.976 128.164 49.5397C127.677 50.0796 127.014 50.3952 126.174 50.4863ZM126.222 49.8109C126.814 49.7027 127.245 49.4252 127.516 48.9783C127.786 48.5315 127.89 48.0239 127.828 47.4556C127.767 46.8873 127.556 46.4139 127.196 46.0355C126.837 45.657 126.352 45.4788 125.743 45.501L125.52 45.5252C124.924 45.6338 124.491 45.9115 124.221 46.3584C123.951 46.8052 123.846 47.3128 123.908 47.8811C123.97 48.4494 124.18 48.9227 124.54 49.3012C124.9 49.6797 125.382 49.8581 125.988 49.8363L126.222 49.8109ZM131.084 52.5465L130.139 52.649L129.274 44.6783L130.219 44.5758L130.294 45.2708C130.793 44.605 131.414 44.2319 132.156 44.1513C132.995 44.0602 133.711 44.2243 134.302 44.6436C134.914 45.0862 135.269 45.7528 135.365 46.6432C135.431 47.2477 135.358 47.7739 135.146 48.2216C134.938 48.6654 134.627 49.0215 134.213 49.2898C133.799 49.5581 133.315 49.7223 132.761 49.7825C132.048 49.8598 131.365 49.6355 130.711 49.1095L131.084 52.5465ZM132.869 49.1006C133.465 48.9919 133.898 48.7142 134.168 48.2674C134.438 47.8206 134.542 47.313 134.481 46.7447C134.419 46.1764 134.208 45.703 133.849 45.3245C133.493 44.9457 133.012 44.7671 132.406 44.7889L132.173 44.8142C131.58 44.9225 131.12 45.2013 130.791 45.6508C130.466 46.0999 130.335 46.6123 130.398 47.1878C130.46 47.7633 130.698 48.2356 131.112 48.6045C131.525 48.9735 132.035 49.1471 132.641 49.1253L132.869 49.1006ZM143.014 48.4336L142.102 48.5326L141.667 44.5201L139.963 47.6495L139.268 47.725L136.937 45.0333L137.373 49.0458L136.461 49.1448L135.897 43.954L136.924 43.8427L139.527 46.8782L141.425 43.3542L142.451 43.2428L143.014 48.4336ZM146.239 48.2814L146.157 48.2902C145.694 48.3405 145.317 48.3375 145.025 48.2813C144.737 48.2283 144.495 48.141 144.299 48.0195C143.924 47.7745 143.714 47.442 143.669 47.0221C143.622 46.595 143.743 46.2101 144.032 45.8675C144.321 45.5212 144.886 45.251 145.73 45.057L147.916 44.5505C147.746 44.0672 147.503 43.7274 147.185 43.5312C146.866 43.3313 146.463 43.2579 145.974 43.311L145.849 43.3245C145.654 43.3457 145.466 43.4028 145.286 43.4956C145.105 43.5884 144.945 43.6974 144.805 43.8224C144.564 44.039 144.435 44.183 144.418 44.2545L143.564 44.034C143.647 43.7833 143.906 43.5079 144.342 43.2079C144.778 42.9042 145.291 42.7204 145.881 42.6563L145.925 42.6516C146.417 42.5982 146.877 42.6691 147.305 42.8644C147.732 43.0597 148.089 43.3562 148.374 43.7538C148.662 44.151 148.833 44.5957 148.886 45.088L149.03 46.4074C149.083 46.9033 149.237 47.1375 149.49 47.11C149.523 47.1065 149.559 47.0989 149.598 47.0874L149.657 47.0809L149.721 47.6618C149.537 47.7551 149.336 47.8135 149.119 47.837C148.963 47.8539 148.801 47.8111 148.632 47.7085C148.467 47.6056 148.355 47.4163 148.296 47.1407C147.71 47.8159 147.024 48.1961 146.239 48.2814ZM146.259 47.609C146.802 47.55 147.251 47.331 147.605 46.952C147.96 46.5729 148.109 46.1228 148.052 45.6015L148.003 45.1454L145.887 45.6442C145.433 45.752 145.089 45.9011 144.853 46.0915C144.617 46.2819 144.514 46.5146 144.544 46.7897C144.579 47.1083 144.743 47.3359 145.036 47.4725C145.341 47.6189 145.749 47.6643 146.259 47.609ZM152.717 47.3806L151.805 47.4796L151.311 42.9296L149.117 43.1676L149.048 42.5269L154.347 41.9518L154.417 42.5925L152.223 42.8306L152.717 47.3806ZM157.728 47.0346L157.647 47.0434C157.183 47.0937 156.806 47.0907 156.514 47.0345C156.226 46.9815 155.984 46.8942 155.788 46.7727C155.413 46.5277 155.203 46.1952 155.158 45.7753C155.111 45.3482 155.233 44.9633 155.521 44.6207C155.81 44.2744 156.376 44.0042 157.219 43.8102L159.405 43.3037C159.236 42.8204 158.992 42.4806 158.674 42.2844C158.355 42.0845 157.952 42.0111 157.463 42.0642L157.338 42.0777C157.143 42.0989 156.955 42.1559 156.775 42.2488C156.594 42.3416 156.434 42.4505 156.294 42.5756C156.054 42.7921 155.925 42.9362 155.907 43.0077L155.053 42.7872C155.136 42.5365 155.395 42.2611 155.832 41.9611C156.267 41.6574 156.78 41.4736 157.37 41.4095L157.414 41.4048C157.906 41.3514 158.366 41.4223 158.794 41.6176C159.221 41.8129 159.578 42.1094 159.863 42.507C160.151 42.9042 160.322 43.3489 160.375 43.8412L160.519 45.1606C160.572 45.6565 160.726 45.8907 160.979 45.8632C161.012 45.8597 161.048 45.8521 161.087 45.8406L161.147 45.8341L161.21 46.415C161.026 46.5083 160.825 46.5666 160.608 46.5902C160.452 46.6071 160.29 46.5643 160.121 46.4617C159.956 46.3588 159.844 46.1695 159.785 45.8939C159.199 46.5691 158.514 46.9493 157.728 47.0346ZM157.748 46.3622C158.291 46.3032 158.74 46.0842 159.094 45.7052C159.449 45.3261 159.598 44.876 159.541 44.3547L159.492 43.8986L157.376 44.3974C156.922 44.5052 156.578 44.6543 156.342 44.8447C156.107 45.0351 156.004 45.2678 156.033 45.5429C156.068 45.8615 156.232 46.0891 156.525 46.2257C156.83 46.3721 157.238 46.4175 157.748 46.3622ZM163.888 46.1354C163.761 46.1492 163.648 46.1175 163.548 46.0405C163.451 45.9594 163.396 45.8573 163.383 45.7342C163.369 45.6076 163.401 45.4961 163.478 45.3998C163.559 45.2994 163.663 45.2424 163.789 45.2287C163.916 45.2149 164.028 45.2486 164.124 45.3296C164.224 45.4067 164.281 45.5086 164.295 45.6353C164.308 45.7583 164.274 45.87 164.194 45.9703C164.116 46.0666 164.014 46.1217 163.888 46.1354ZM163.238 44.3491C163.207 44.0668 163.239 43.7886 163.334 43.5146C163.429 43.2406 163.578 42.9974 163.782 42.7848L164.905 41.6357C165.09 41.4508 165.233 41.2338 165.334 40.9848C165.435 40.7322 165.482 40.4743 165.475 40.2114L165.471 40.1185C165.445 39.8796 165.358 39.6546 165.211 39.4435C165.067 39.2321 164.84 39.0698 164.531 38.9569C164.226 38.8435 163.838 38.8123 163.368 38.8634L163.194 38.8877C162.941 38.9152 162.671 39.0251 162.384 39.2173C162.097 39.4096 161.845 39.6329 161.627 39.8873C161.409 40.138 161.288 40.3068 161.265 40.3936L160.406 40.1737C160.49 39.9704 160.66 39.7157 160.916 39.4096C161.172 39.0999 161.494 38.8397 161.881 38.6292C162.268 38.4187 162.742 38.283 163.304 38.2221C163.861 38.1616 164.334 38.1836 164.723 38.2879C165.111 38.3922 165.425 38.5486 165.663 38.7571C165.902 38.9656 166.078 39.2047 166.192 39.4744C166.267 39.6603 166.315 39.851 166.336 40.0465C166.346 40.1406 166.349 40.2868 166.345 40.485C166.341 40.6832 166.283 40.9185 166.169 41.1908C166.056 41.4595 165.894 41.6949 165.686 41.897L164.506 43.1292C164.206 43.4658 164.078 43.8386 164.122 44.2476L163.238 44.3491ZM169.938 44.9899L171.076 41.4494L169.204 38.23L170.024 38.141L172.102 41.3381L170.758 44.9009L169.938 44.9899ZM172.302 45.2553L173.573 41.1784L171.456 37.4638L172.276 37.3748L174.599 41.067L173.122 45.1663L172.302 45.2553Z" fill="#090C9B"/>
<rect width="76.4568" height="22.4568" transform="translate(0.867188 18.9335) rotate(-3.96824)" fill="#090C9B"/>
<path d="M20.3882 36.3521L17.9977 36.5179L17.114 23.7789L7.38859 24.4535L8.27229 37.1926L5.8818 37.3584L4.86487 22.6988L19.3713 21.6925L20.3882 36.3521ZM26.5418 36.2743L26.3987 36.2842C25.6836 36.3338 25.0548 36.2953 24.5122 36.1687C23.9701 36.0489 23.5158 35.8614 23.149 35.6063C22.4147 35.0824 22.018 34.3948 21.9589 33.5435C21.9051 32.7671 22.1103 32.0754 22.5746 31.4683C23.0452 30.854 23.6715 30.4615 24.4535 30.291L29.3043 29.3386C29.1517 28.8154 28.8493 28.4018 28.3971 28.0979C27.9444 27.7871 27.3435 27.6577 26.5943 27.7097L26.3798 27.7245C26.0937 27.7444 25.8115 27.8187 25.533 27.9475C25.2613 28.0759 25.0122 28.2334 24.7857 28.4202C24.43 28.7186 24.2083 29.0249 24.1206 29.3389L21.8449 28.6448C22.1398 27.8647 22.7034 27.2097 23.5358 26.6798C24.3749 26.1494 25.3393 25.8464 26.429 25.7708L26.5005 25.7658C27.4268 25.7016 28.2835 25.868 29.0706 26.265C29.8577 26.6621 30.5035 27.24 31.0078 27.9989C31.5121 28.7577 31.7961 29.5968 31.8599 30.5163L32.0371 33.0702C32.0465 33.2064 32.0907 33.3505 32.1697 33.5024C32.255 33.647 32.3726 33.7141 32.5224 33.7037C32.6654 33.6938 32.7834 33.6685 32.8764 33.6279L33.0152 33.5566L33.1364 35.3035L32.6756 35.469C32.3685 35.5792 32.0111 35.6553 31.6034 35.6973C31.1666 35.7139 30.8078 35.6225 30.5271 35.423C30.2532 35.223 30.0503 35.0112 29.9184 34.7877C29.7929 34.5569 29.7259 34.3802 29.7174 34.2576L29.6548 34.5391C29.6126 34.7199 29.4942 34.9369 29.2996 35.1899C29.1046 35.4361 28.7919 35.6631 28.3615 35.8709C27.9315 36.0855 27.325 36.2199 26.5418 36.2743ZM26.696 34.3543C27.5269 34.2966 28.2177 33.9955 28.7684 33.4509C29.3255 32.899 29.5773 32.2383 29.524 31.4687L29.5013 31.1418L26.2905 31.7649C25.5684 31.9108 25.0549 32.1038 24.7499 32.3439C24.4517 32.5836 24.3142 32.8703 24.3374 33.204C24.3624 33.5649 24.5301 33.8613 24.8404 34.0929C25.2738 34.3229 25.8923 34.41 26.696 34.3543ZM41.494 34.888L34.5268 35.3713L33.85 25.6153L39.9693 25.1908C40.3711 25.1629 40.7545 25.215 41.1195 25.3471C41.4841 25.4723 41.8081 25.6552 42.0917 25.8955C42.3762 26.1495 42.6057 26.4484 42.7801 26.7922C42.9613 27.1354 43.0658 27.508 43.0937 27.9098C43.1319 28.4615 43.0239 28.9754 42.7695 29.4515C43.1761 29.6902 43.5099 30.0126 43.7707 30.4188C44.0311 30.8182 44.1788 31.2699 44.2137 31.7738C44.2416 32.1757 44.1895 32.5591 44.0574 32.9241C43.9317 33.2818 43.7489 33.6059 43.509 33.8963C43.255 34.1808 42.9561 34.4102 42.6123 34.5846C42.2754 34.7585 41.9026 34.8597 41.494 34.888ZM40.8908 33.0001C41.17 32.9807 41.3984 32.869 41.5759 32.6651C41.7597 32.4539 41.8421 32.2121 41.8232 31.9397C41.8039 31.6604 41.6888 31.4323 41.4781 31.2553C41.2737 31.0711 41.0319 30.9886 40.7526 31.008L36.6459 31.2929L36.7841 33.2849L40.8908 33.0001ZM39.7715 29.1462C40.0439 29.1273 40.272 29.0123 40.4558 28.8011C40.6396 28.5899 40.7221 28.3481 40.7032 28.0756C40.6838 27.7964 40.5685 27.5649 40.3573 27.3811C40.1461 27.1973 39.9043 27.1148 39.6319 27.1337L36.3731 27.3598L36.5127 29.3723L39.7715 29.1462ZM51.1945 34.5949C50.6769 34.6308 50.1558 34.6156 49.6311 34.5494C49.1132 34.4827 48.6392 34.3581 48.2092 34.1758C47.364 33.8307 46.6759 33.2831 46.1449 32.5329C45.6201 31.7755 45.3202 30.8554 45.2451 29.7725C45.2224 29.4456 45.2359 29.0477 45.2855 28.579C45.3414 28.1029 45.4173 27.7178 45.5133 27.4238C45.7594 26.7292 46.1159 26.1467 46.5828 25.6764C47.0561 25.1987 47.6086 24.8285 48.2405 24.5657C48.8787 24.2956 49.5588 24.1355 50.2807 24.0854C51.3023 24.0145 52.2361 24.1585 53.0822 24.5172C53.9283 24.876 54.6169 25.4304 55.1479 26.1806C55.6853 26.9234 55.993 27.8567 56.071 28.9804L56.0884 29.3796L47.952 30.7652C48.1702 31.3454 48.5102 31.8077 48.9721 32.152C49.4408 32.4959 50.0207 32.6678 50.7118 32.6678L51.4167 32.6189C51.9115 32.5503 52.3684 32.3784 52.7872 32.1029C53.2061 31.8275 53.5258 31.5042 53.7464 31.1331L56.0439 31.8462C55.4659 32.8855 54.6385 33.634 53.5616 34.0919C53.2287 34.2245 52.8427 34.3334 52.4038 34.4186C51.9722 34.5102 51.5691 34.5689 51.1945 34.5949ZM47.6962 28.8531L53.3467 27.8863C53.1222 27.3134 52.7758 26.8584 52.3077 26.5213C51.8463 26.1838 51.277 26.018 50.6 26.0239L50.2424 26.0487C49.4698 26.157 48.8685 26.4656 48.4384 26.9745C48.0084 27.4833 47.761 28.1096 47.6962 28.8531ZM67.6361 33.0745L65.2456 33.2404L64.7014 25.3947L61.6775 25.6044L61.284 29.9943C61.1715 31.0355 60.7531 31.9096 60.0289 32.6168C59.3114 33.3235 58.4419 33.7123 57.4204 33.7832L57.1445 33.8023L57.0113 31.8818L57.2871 31.8626C57.7094 31.8334 58.0679 31.675 58.3628 31.3877C58.664 31.0931 58.8374 30.732 58.883 30.3046L59.4508 23.8394L66.9594 23.3185L67.6361 33.0745ZM70.6444 25.5367C70.2834 25.5617 69.9682 25.457 69.6987 25.2225C69.4293 24.988 69.282 24.6903 69.257 24.3293C69.2324 23.9752 69.3374 23.6633 69.5719 23.3939C69.8064 23.1244 70.1041 22.9772 70.4651 22.9521C70.8192 22.9275 71.131 23.0325 71.4005 23.267C71.67 23.5015 71.817 23.7959 71.8416 24.15C71.8666 24.511 71.7619 24.8262 71.5274 25.0956C71.2928 25.3651 70.9985 25.5121 70.6444 25.5367ZM71.1504 32.8308C70.7894 32.8558 70.4742 32.7511 70.2047 32.5166C69.9352 32.2821 69.788 31.9843 69.763 31.6234C69.7384 31.2692 69.8434 30.9574 70.0779 30.6879C70.3124 30.4185 70.6101 30.2712 70.9711 30.2462C71.3252 30.2216 71.637 30.3266 71.9065 30.5611C72.176 30.7956 72.323 31.0899 72.3475 31.4441C72.3726 31.805 72.2678 32.1202 72.0333 32.3897C71.7988 32.6592 71.5045 32.8062 71.1504 32.8308Z" fill="white"/>
</svg>
