<svg width="182" height="83" viewBox="0 0 182 83" fill="none" xmlns="http://www.w3.org/2000/svg">
<rect width="176.027" height="30.7247" transform="translate(0 17.3594) rotate(-5.65962)" fill="#090C9B"/>
<path d="M19.0671 41.3378C17.0236 41.5403 15.1546 41.3156 13.4599 40.6638C11.7653 40.012 10.3704 38.963 9.27546 37.5169C8.18981 36.0698 7.53926 34.2592 7.32381 32.0851C7.15089 30.3403 7.28337 28.7772 7.72124 27.3958C8.15911 26.0144 8.82957 24.8409 9.73263 23.8751C10.6441 22.899 11.7219 22.128 12.9661 21.5618C14.2196 20.9947 15.5602 20.6405 16.9878 20.499C19.0032 20.2992 20.8634 20.5295 22.5683 21.1897C24.2732 21.8499 25.6736 22.9078 26.7695 24.3633L23.7383 25.865C23.0375 24.9734 22.1732 24.2864 21.1455 23.8041C20.1169 23.3124 18.9643 23.0921 17.688 23.1432L17.2667 23.1708L16.8482 23.2264C14.7365 23.5959 13.1234 24.5755 12.009 26.1653C10.9038 27.7541 10.4539 29.5842 10.6592 31.6556C10.8645 33.7271 11.6648 35.4333 13.0603 36.7743C14.4652 38.1144 16.2387 38.7537 18.3809 38.6921L18.8021 38.6645L19.2346 38.6075C20.5055 38.4062 21.5929 37.9687 22.4966 37.2949C23.4087 36.6109 24.1158 35.7588 24.6177 34.7385L27.9141 35.6273C27.5187 36.4863 27.0105 37.2527 26.3894 37.9267C24.5963 39.8947 22.1555 41.0317 19.0671 41.3378ZM37.0566 39.1734L33.7815 39.4979L32.7163 28.7489L27.5377 29.2621L27.2769 26.6309L40.9091 25.2799L41.1699 27.9112L35.9914 28.4244L37.0566 39.1734ZM47.9538 44.5949L44.6087 44.9264L42.6322 24.982L45.9772 24.6505L46.0813 25.7002L46.1205 25.668C46.2139 25.5645 46.431 25.3781 46.7717 25.1088C47.1209 24.8292 47.5695 24.5539 48.1174 24.2829C48.6644 24.0025 49.2924 23.8272 50.0016 23.757C52.129 23.5461 53.939 23.9839 55.4318 25.0703C57.0066 26.224 57.9063 27.9345 58.131 30.2018C58.2836 31.7414 58.0818 33.0805 57.5257 34.2192C56.9789 35.357 56.1738 36.2659 55.1106 36.9461C54.0463 37.6169 52.8144 38.0216 51.4148 38.1603C50.6964 38.2315 50.0433 38.202 49.4556 38.0718C48.8773 37.9407 48.3955 37.7858 48.0104 37.6073C47.6243 37.4194 47.3604 37.276 47.2186 37.177L47.9538 44.5949ZM51.1653 35.4997L51.4018 35.4621C52.6336 35.2458 53.5339 34.6808 54.1029 33.7669C54.671 32.8438 54.8945 31.771 54.7734 30.5487C54.6541 29.345 54.2253 28.3464 53.4871 27.5527C52.7582 26.758 51.7687 26.3756 50.5184 26.4052L50.2651 26.4162L50.0146 26.4552C48.7726 26.6631 47.8022 27.2351 47.1035 28.1712C46.4141 29.1063 46.1295 30.1804 46.2497 31.3934C46.37 32.6064 46.8598 33.6038 47.7193 34.3854C48.5882 35.1662 49.6524 35.5413 50.912 35.5107L51.1653 35.4997ZM68.4593 36.4429C67.7502 36.5132 67.0341 36.5135 66.3111 36.4438C65.5974 36.3732 64.9417 36.2215 64.3438 35.9886C63.1696 35.5491 62.2027 34.8252 61.4432 33.8169C60.6921 32.7983 60.2431 31.5472 60.096 30.0636C60.0517 29.6158 60.054 29.069 60.1031 28.4234C60.1606 27.7676 60.2492 27.2359 60.369 26.8283C60.6787 25.8648 61.1445 25.0507 61.7665 24.386C62.3969 23.7111 63.1405 23.1804 63.9973 22.794C64.8625 22.3973 65.7897 22.1499 66.7787 22.0519C68.1783 21.9132 69.4662 22.073 70.6423 22.5312C71.8184 22.9894 72.7862 23.7226 73.5457 24.731C74.3136 25.729 74.7738 26.9978 74.9264 28.5374L74.9665 29.0846L63.8526 31.3167C64.1756 32.1044 64.6611 32.7253 65.3092 33.1793C65.9665 33.6324 66.7696 33.8449 67.7185 33.8168L68.6842 33.7211C69.3608 33.607 69.981 33.3524 70.5448 32.9573C71.1087 32.5622 71.5346 32.1054 71.8224 31.5869L75.0054 32.4728C74.254 33.9229 73.1484 34.9842 71.6886 35.6565C71.2369 35.852 70.7115 36.0172 70.1124 36.1519C69.5235 36.2951 68.9725 36.3921 68.4593 36.4429ZM63.4238 28.7021L71.142 27.1457C70.8105 26.3683 70.3166 25.7576 69.6602 25.3139C69.0131 24.8692 68.2249 24.6646 67.2956 24.7002L66.8057 24.7488C65.7494 24.9288 64.9364 25.3769 64.3666 26.0929C63.7969 26.8089 63.4826 27.6787 63.4238 28.7021ZM63.6011 19.7945C63.1159 19.8426 62.6836 19.7111 62.3041 19.4001C61.9247 19.0891 61.7109 18.691 61.6628 18.2058C61.6147 17.7206 61.7462 17.2883 62.0572 16.9088C62.3673 16.52 62.765 16.3016 63.2502 16.2535C63.7447 16.2045 64.1822 16.3402 64.5625 16.6605C64.942 16.9715 65.1558 17.3697 65.2038 17.8549C65.2519 18.3401 65.1205 18.7724 64.8094 19.1518C64.4984 19.5313 64.0956 19.7455 63.6011 19.7945ZM69.5634 19.2036C69.0782 19.2517 68.6459 19.1203 68.2665 18.8092C67.887 18.4982 67.6732 18.1001 67.6252 17.6149C67.5771 17.1297 67.7086 16.6974 68.0196 16.3179C68.3297 15.9291 68.7273 15.7107 69.2125 15.6626C69.707 15.6136 70.1445 15.7493 70.5249 16.0696C70.9043 16.3807 71.1181 16.7788 71.1662 17.264C71.2143 17.7492 71.0828 18.1815 70.7718 18.5609C70.4607 18.9404 70.058 19.1546 69.5634 19.2036ZM94.3426 33.4962L91.0675 33.8208L90.2201 25.2692L86.9186 31.6031L84.6653 31.8264L80.1849 26.2637L81.0323 34.8153L77.7572 35.1399L76.4312 21.7596L79.7063 21.435L85.4563 28.2571L89.7415 20.4405L93.0166 20.116L94.3426 33.4962ZM117.562 31.1952L114.287 31.5197L113.754 26.1452L106.672 26.8471L107.205 32.2216L103.93 32.5461L102.604 19.1659L105.879 18.8413L106.412 24.2158L113.494 23.514L112.961 18.1395L116.236 17.8149L117.562 31.1952ZM127.299 30.7532C125.881 30.8937 124.584 30.7396 123.409 30.2907C122.242 29.8316 121.279 29.1025 120.521 28.1035C119.771 27.1036 119.323 25.8572 119.175 24.3643C118.942 22.013 119.498 20.1157 120.844 18.6727C122.095 17.3237 123.766 16.5457 125.856 16.3386C127.256 16.1999 128.544 16.3596 129.72 16.8178C130.896 17.2761 131.864 18.0093 132.623 19.0176C133.392 20.025 133.852 21.2938 134.004 22.8241C134.228 25.0914 133.682 26.9499 132.366 28.3996C131.115 29.7578 129.426 30.5424 127.299 30.7532ZM127.286 28.055C128.518 27.8387 129.413 27.2694 129.972 26.3472C130.54 25.424 130.764 24.3559 130.643 23.143C130.523 21.93 130.094 20.9266 129.356 20.1329C128.617 19.3392 127.623 18.9572 126.373 18.9869L125.883 19.0354C124.661 19.2508 123.761 19.8205 123.183 20.7446C122.615 21.6677 122.391 22.7358 122.512 23.9488C122.632 25.1618 123.061 26.1652 123.799 26.9589C124.547 27.7516 125.541 28.1336 126.782 28.1049L127.286 28.055ZM140.664 35.4072L137.319 35.7387L135.342 15.7942L138.687 15.4627L138.791 16.5124L138.831 16.4803C138.924 16.3768 139.141 16.1904 139.482 15.9211C139.831 15.6415 140.28 15.3662 140.828 15.0952C141.375 14.8148 142.003 14.6395 142.712 14.5692C144.839 14.3584 146.649 14.7962 148.142 15.8826C149.717 17.0362 150.617 18.7467 150.841 21.0141C150.994 22.5537 150.792 23.8928 150.236 25.0315C149.689 26.1693 148.884 27.0782 147.821 27.7583C146.757 28.4292 145.525 28.8339 144.125 28.9726C143.407 29.0438 142.753 29.0143 142.166 28.8841C141.587 28.753 141.106 28.5981 140.721 28.4196C140.334 28.2317 140.071 28.0883 139.929 27.9892L140.664 35.4072ZM143.875 26.312L144.112 26.2744C145.344 26.0581 146.244 25.493 146.813 24.5792C147.381 23.6561 147.605 22.5833 147.484 21.361C147.364 20.1573 146.935 19.1586 146.197 18.3649C145.468 17.5703 144.479 17.1878 143.229 17.2175L142.975 17.2285L142.725 17.2675C141.483 17.4753 140.512 18.0473 139.814 18.9834C139.124 19.9186 138.84 20.9927 138.96 22.2057C139.08 23.4187 139.57 24.416 140.43 25.1977C141.298 25.9785 142.363 26.3535 143.622 26.3229L143.875 26.312ZM170.201 25.9785L166.926 26.3031L166.079 17.7515L162.777 24.0854L160.524 24.3087L156.044 18.746L156.891 27.2976L153.616 27.6222L152.29 14.2419L155.565 13.9173L161.315 20.7393L165.6 12.9228L168.875 12.5982L170.201 25.9785Z" fill="white"/>
<rect x="59.9263" y="47.1643" width="58.2489" height="30.0846" transform="rotate(-15.7783 59.9263 47.1643)" fill="white"/>
<rect x="59.9263" y="47.1643" width="58.2489" height="30.0846" transform="rotate(-15.7783 59.9263 47.1643)" stroke="#090C9B" stroke-width="0.640098"/>
<path d="M84.3711 66.2812L81.204 67.1761L78.7487 58.4868L74.0577 69.1954L71.1883 70.0062L67.536 57.0805L70.7031 56.1856L73.1584 64.8749L77.8495 54.1663L80.7188 53.3556L84.3711 66.2812ZM99.8413 61.9099L96.6742 62.8048L93.737 52.4102L89.7308 53.5422L90.4358 59.5545C90.5771 60.9859 90.2604 62.2787 89.4855 63.433C88.7197 64.5848 87.6601 65.3519 86.3066 65.7343L85.9412 65.8376L85.2222 63.2931L85.5876 63.1898C86.147 63.0317 86.5846 62.7181 86.9002 62.2489C87.2223 61.7682 87.3539 61.234 87.2951 60.6466L86.241 51.7952L96.189 48.9843L99.8413 61.9099ZM115.284 57.5463L112.117 58.4412L109.662 49.7519L104.971 60.4605L102.102 61.2713L98.4493 48.3456L101.616 47.4507L104.072 56.14L108.763 45.4314L111.632 44.6206L115.284 57.5463Z" fill="#090C9B"/>
</svg>
