<svg width="256" height="96" viewBox="0 0 256 96" fill="none" xmlns="http://www.w3.org/2000/svg">
<g clip-path="url(#clip0_325_402)">
<rect width="179.205" height="65.7198" transform="translate(31 29.8008)" fill="#090C9B"/>
<path d="M47.5551 57.0639C45.372 57.0639 43.4183 56.6303 41.6937 55.763C39.9692 54.8958 38.6036 53.6398 37.5968 51.995C36.6 50.3403 36.1016 48.3566 36.1016 46.044C36.1016 44.1699 36.4056 42.5302 37.0137 41.1246C37.6217 39.7092 38.4541 38.5329 39.5107 37.5959C40.5773 36.6589 41.7984 35.9611 43.174 35.5026C44.5596 35.0341 46.015 34.7998 47.5401 34.7998C49.6933 34.7998 51.6371 35.2384 53.3715 36.1156C55.106 36.9828 56.4767 38.2488 57.4834 39.9135C58.5002 41.5782 59.0086 43.5918 59.0086 45.9543C59.0086 47.7585 58.7145 49.3534 58.1264 50.739C57.5383 52.1246 56.7159 53.2859 55.6593 54.2229C54.6126 55.1599 53.3965 55.8677 52.0109 56.3462C50.6253 56.8246 49.14 57.0639 47.5551 57.0639ZM47.5551 54.208L48.0336 54.193C50.2963 54.0236 52.0956 53.1563 53.4314 51.5913C54.7671 50.0263 55.435 48.1423 55.435 45.9393C55.435 43.7164 54.7621 41.8274 53.4164 40.2724C52.0807 38.7073 50.2764 37.8401 48.0036 37.6707L47.5551 37.6557L47.1065 37.6707C44.8337 37.8401 43.0245 38.7073 41.6788 40.2724C40.3431 41.8374 39.6752 43.7264 39.6752 45.9393C39.6752 48.1523 40.3431 50.0412 41.6788 51.6063C43.0245 53.1713 44.8337 54.0335 47.1065 54.193L47.5551 54.208ZM69.9238 56.6602H66.425V45.1767H60.8926V42.3657H75.4562V45.1767H69.9238V56.6602ZM87.5078 56.6602H77.3103V42.3806H86.2668C86.8549 42.3806 87.4081 42.4953 87.9265 42.7246C88.4448 42.9439 88.8984 43.2429 89.2871 43.6217C89.6759 44.0204 89.9799 44.479 90.1992 44.9973C90.4285 45.5157 90.5431 46.0689 90.5431 46.657C90.5431 47.4645 90.3338 48.2021 89.9151 48.87C90.4833 49.2587 90.9369 49.7621 91.2758 50.3802C91.6147 50.9882 91.7842 51.6611 91.7842 52.3987C91.7842 52.9869 91.6695 53.5401 91.4403 54.0584C91.221 54.5668 90.9219 55.0204 90.5431 55.4191C90.1444 55.8079 89.6859 56.1119 89.1675 56.3312C88.6591 56.5505 88.1059 56.6602 87.5078 56.6602ZM86.82 53.8491C87.2287 53.8491 87.5726 53.7096 87.8517 53.4304C88.1408 53.1414 88.2853 52.7975 88.2853 52.3987C88.2853 51.99 88.1408 51.6461 87.8517 51.367C87.5726 51.0779 87.2287 50.9334 86.82 50.9334H80.8091V53.8491H86.82ZM85.5789 48.1224C85.9777 48.1224 86.3216 47.9778 86.6107 47.6887C86.8997 47.3997 87.0443 47.0558 87.0443 46.657C87.0443 46.2483 86.8997 45.8994 86.6107 45.6104C86.3216 45.3213 85.9777 45.1767 85.5789 45.1767H80.8091V48.1224H85.5789ZM101.668 57.2134C100.91 57.2134 100.153 57.1386 99.3949 56.9891C98.6473 56.8396 97.9695 56.6103 97.3614 56.3013C96.1652 55.7132 95.2182 54.8459 94.5205 53.6996C93.8327 52.5433 93.4887 51.1726 93.4887 49.5877C93.4887 49.1092 93.5486 48.5311 93.6682 47.8532C93.7978 47.1654 93.9473 46.6122 94.1167 46.1935C94.5454 45.2066 95.1235 44.3942 95.8512 43.7563C96.5889 43.1083 97.4312 42.6249 98.3782 42.3059C99.3351 41.9769 100.342 41.8125 101.399 41.8125C102.894 41.8125 104.239 42.1165 105.436 42.7246C106.632 43.3326 107.579 44.2098 108.277 45.3562C108.984 46.4925 109.338 47.8831 109.338 49.5279L109.323 50.111L97.3315 51.3072C97.5907 52.1744 98.0393 52.8822 98.6772 53.4304C99.3252 53.9787 100.153 54.2877 101.159 54.3575H102.191C102.919 54.3077 103.602 54.1033 104.239 53.7444C104.877 53.3856 105.376 52.947 105.735 52.4286L109.009 53.6996C108.062 55.155 106.781 56.1617 105.167 56.72C104.668 56.8795 104.095 56.9991 103.447 57.0788C102.809 57.1685 102.216 57.2134 101.668 57.2134ZM97.1521 48.4962L105.481 47.6588C105.211 46.8016 104.753 46.1038 104.105 45.5655C103.467 45.0272 102.655 44.7282 101.668 44.6684H101.144C100.008 44.7481 99.1009 45.1369 98.423 45.8346C97.7452 46.5324 97.3215 47.4196 97.1521 48.4962ZM119.326 56.6602H115.828V45.1767H110.295V42.3657H124.859V45.1767H119.326V56.6602ZM146.54 56.6602H143.041V42.3657H146.54V56.6602ZM136.223 56.6602H126.713V42.3657H130.212V46.7168H136.223C137.598 46.7168 138.769 47.2053 139.736 48.1822C140.703 49.1491 141.187 50.3204 141.187 51.696C141.187 53.0616 140.698 54.2329 139.721 55.2098C138.755 56.1767 137.588 56.6602 136.223 56.6602ZM135.52 53.8491C136.118 53.8491 136.626 53.6398 137.045 53.2211C137.474 52.8024 137.688 52.2941 137.688 51.696C137.688 51.0979 137.474 50.5895 137.045 50.1708C136.626 49.7422 136.118 49.5279 135.52 49.5279H130.212V53.8491H135.52ZM50.6652 89.6602H47.1663V83.9184H39.6004V89.6602H36.1016V75.3657H39.6004V81.1074H47.1663V75.3657H50.6652V89.6602ZM59.0385 90.1685H58.8292C57.7825 90.1685 56.8704 90.0489 56.0929 89.8097C55.3154 89.5804 54.6724 89.2614 54.164 88.8527C53.1473 88.0154 52.6389 86.9737 52.6389 85.7277C52.6389 84.5913 53.0077 83.6044 53.7454 82.7671C54.493 81.9198 55.4449 81.4114 56.6013 81.242L63.7634 80.3448C63.594 79.5673 63.1952 78.9343 62.5673 78.4459C61.9393 77.9475 61.077 77.6983 59.9805 77.6983H59.6665C59.2478 77.6983 58.8292 77.778 58.4105 77.9375C58.0018 78.097 57.623 78.3013 57.2741 78.5505C56.7259 78.9493 56.372 79.3729 56.2125 79.8215L52.9678 78.5805C53.4762 77.474 54.3634 76.5768 55.6294 75.889C56.9053 75.2012 58.3407 74.8573 59.9356 74.8573H60.0403C61.396 74.8573 62.6271 75.1863 63.7335 75.8442C64.84 76.5021 65.7222 77.4092 66.3801 78.5655C67.038 79.7218 67.367 80.9728 67.367 82.3185V86.0566C67.367 86.256 67.4168 86.4703 67.5165 86.6996C67.6261 86.9189 67.7906 87.0285 68.0099 87.0285C68.2192 87.0285 68.3937 87.0036 68.5332 86.9538L68.7426 86.8641V89.4209L68.0548 89.6153C67.5962 89.7449 67.0679 89.8196 66.4698 89.8396C65.8319 89.8196 65.3185 89.6502 64.9297 89.3312C64.5509 89.0122 64.2768 88.6833 64.1073 88.3443C63.9479 87.9955 63.8681 87.7313 63.8681 87.5519L63.7485 87.9556C63.6687 88.2148 63.4744 88.5188 63.1653 88.8677C62.8563 89.2066 62.3779 89.5056 61.7299 89.7648C61.082 90.034 60.1848 90.1685 59.0385 90.1685ZM59.4572 87.3874C60.6733 87.3874 61.71 87.0186 62.5673 86.2809C63.4345 85.5333 63.8681 84.5963 63.8681 83.4699V82.9914L59.1282 83.5745C58.0616 83.7141 57.294 83.9434 56.8255 84.2624C56.367 84.5813 56.1377 84.985 56.1377 85.4735C56.1377 86.0018 56.352 86.4504 56.7807 86.8192C57.3887 87.198 58.2809 87.3874 59.4572 87.3874ZM88.2255 89.6602H78.028V75.3806H86.9845C87.5726 75.3806 88.1258 75.4953 88.6442 75.7246C89.1625 75.9439 89.6161 76.2429 90.0048 76.6217C90.3936 77.0204 90.6976 77.479 90.9169 77.9973C91.1462 78.5157 91.2608 79.0689 91.2608 79.657C91.2608 80.4645 91.0515 81.2021 90.6328 81.87C91.201 82.2587 91.6546 82.7621 91.9935 83.3802C92.3324 83.9882 92.5019 84.6611 92.5019 85.3987C92.5019 85.9869 92.3873 86.5401 92.158 87.0584C91.9387 87.5668 91.6396 88.0204 91.2608 88.4191C90.8621 88.8079 90.4036 89.1119 89.8852 89.3312C89.3768 89.5505 88.8236 89.6602 88.2255 89.6602ZM87.5377 86.8491C87.9464 86.8491 88.2903 86.7096 88.5694 86.4304C88.8585 86.1414 89.003 85.7975 89.003 85.3987C89.003 84.99 88.8585 84.6461 88.5694 84.367C88.2903 84.0779 87.9464 83.9334 87.5377 83.9334H81.5268V86.8491H87.5377ZM86.2967 81.1224C86.6954 81.1224 87.0393 80.9778 87.3284 80.6887C87.6174 80.3997 87.762 80.0558 87.762 79.657C87.762 79.2483 87.6174 78.8994 87.3284 78.6104C87.0393 78.3213 86.6954 78.1767 86.2967 78.1767H81.5268V81.1224H86.2967ZM101.952 90.2134C100.437 90.2134 99.0809 89.9143 97.8847 89.3163C96.6985 88.7082 95.7565 87.836 95.0587 86.6996C94.3709 85.5632 94.027 84.1976 94.027 82.6026C94.027 80.0906 94.8145 78.1419 96.3895 76.7563C97.8548 75.4604 99.7039 74.8125 101.937 74.8125C103.432 74.8125 104.778 75.1165 105.974 75.7246C107.17 76.3326 108.117 77.2098 108.815 78.3562C109.523 79.5025 109.877 80.8931 109.877 82.5279C109.877 84.9502 109.104 86.8591 107.559 88.2546C106.094 89.5605 104.225 90.2134 101.952 90.2134ZM102.221 87.3575C103.547 87.2578 104.553 86.7494 105.241 85.8324C105.939 84.9153 106.288 83.8088 106.288 82.5129C106.288 81.2171 105.939 80.1106 105.241 79.1935C104.544 78.2764 103.532 77.768 102.206 77.6684H101.683C100.367 77.768 99.3551 78.2764 98.6473 79.1935C97.9495 80.1106 97.6006 81.2171 97.6006 82.5129C97.6006 83.8088 97.9495 84.9153 98.6473 85.8324C99.3551 86.7494 100.367 87.2578 101.683 87.3575H102.221ZM126.593 89.6602H123.094V78.1767H115.529V89.6602H112.03V75.3657H126.593V89.6602ZM132.888 96.5382H129.315V75.2311H132.888V76.3526L132.933 76.3226C133.043 76.223 133.292 76.0485 133.681 75.7993C134.079 75.5401 134.583 75.2959 135.191 75.0666C135.799 74.8274 136.482 74.7078 137.239 74.7078C139.512 74.7078 141.381 75.3607 142.847 76.6665C144.392 78.0521 145.164 79.9561 145.164 82.3784C145.164 84.0231 144.81 85.4187 144.103 86.565C143.405 87.7114 142.458 88.5886 141.262 89.1966C140.065 89.7947 138.72 90.0938 137.224 90.0938C136.457 90.0938 135.769 89.9941 135.161 89.7947C134.563 89.5954 134.069 89.381 133.681 89.1518C133.292 88.9125 133.028 88.7331 132.888 88.6135V96.5382ZM137.239 87.2528L137.494 87.2379C138.819 87.1382 139.831 86.6348 140.529 85.7277C141.227 84.8106 141.576 83.6991 141.576 82.3933C141.576 81.1074 141.227 80.0059 140.529 79.0888C139.841 78.1718 138.834 77.6634 137.509 77.5637L137.239 77.5487L136.97 77.5637C135.634 77.6534 134.548 78.1568 133.711 79.0739C132.883 79.991 132.47 81.0974 132.47 82.3933C132.47 83.6892 132.883 84.7957 133.711 85.7127C134.548 86.6298 135.634 87.1382 136.97 87.2379L137.239 87.2528ZM155.182 90.2134C153.667 90.2134 152.311 89.9143 151.115 89.3163C149.929 88.7082 148.987 87.836 148.289 86.6996C147.601 85.5632 147.257 84.1976 147.257 82.6026C147.257 80.0906 148.045 78.1419 149.62 76.7563C151.085 75.4604 152.934 74.8125 155.167 74.8125C156.662 74.8125 158.008 75.1165 159.204 75.7246C160.401 76.3326 161.348 77.2098 162.045 78.3562C162.753 79.5025 163.107 80.8931 163.107 82.5279C163.107 84.9502 162.334 86.8591 160.789 88.2546C159.324 89.5605 157.455 90.2134 155.182 90.2134ZM155.451 87.3575C156.777 87.2578 157.784 86.7494 158.472 85.8324C159.17 84.9153 159.518 83.8088 159.518 82.5129C159.518 81.2171 159.17 80.1106 158.472 79.1935C157.774 78.2764 156.762 77.768 155.436 77.6684H154.913C153.597 77.768 152.585 78.2764 151.878 79.1935C151.18 80.1106 150.831 81.2171 150.831 82.5129C150.831 83.8088 151.18 84.9153 151.878 85.8324C152.585 86.7494 153.597 87.2578 154.913 87.3575H155.451ZM172.901 90.2134C171.396 90.2134 170.045 89.9143 168.849 89.3163C167.662 88.7082 166.72 87.841 166.023 86.7145C165.335 85.5782 164.991 84.2075 164.991 82.6026C164.991 81.3068 165.2 80.1704 165.619 79.1935C166.038 78.2166 166.611 77.4042 167.338 76.7563C168.076 76.1083 168.923 75.6249 169.88 75.3059C170.837 74.9869 171.844 74.8274 172.901 74.8274C174.386 74.8274 175.732 75.1265 176.938 75.7246C178.084 76.3027 179.001 77.1351 179.689 78.2216L176.4 79.4477C175.622 78.2615 174.371 77.6684 172.647 77.6684C171.321 77.768 170.309 78.2764 169.611 79.1935C168.913 80.1106 168.565 81.2171 168.565 82.5129C168.565 83.8088 168.913 84.9153 169.611 85.8324C170.309 86.7494 171.321 87.2578 172.647 87.3575C174.371 87.3575 175.617 86.7743 176.385 85.6081L179.659 86.8641C179.35 87.3824 178.971 87.8459 178.523 88.2546C177.058 89.5605 175.183 90.2134 172.901 90.2134ZM201.475 89.6602H197.976V75.3657H201.475V89.6602ZM191.158 89.6602H181.648V75.3657H185.147V79.7168H191.158C192.533 79.7168 193.704 80.2053 194.671 81.1822C195.638 82.1491 196.122 83.3204 196.122 84.696C196.122 86.0616 195.633 87.2329 194.656 88.2098C193.69 89.1767 192.523 89.6602 191.158 89.6602ZM190.455 86.8491C191.053 86.8491 191.561 86.6398 191.98 86.2211C192.409 85.8024 192.623 85.2941 192.623 84.696C192.623 84.0979 192.409 83.5895 191.98 83.1708C191.561 82.7422 191.053 82.5279 190.455 82.5279H185.147V86.8491H190.455Z" fill="white"/>
<rect x="167.916" y="17.6124" width="57.842" height="31.2858" transform="rotate(15 167.916 17.6124)" fill="white"/>
<rect x="167.916" y="17.6124" width="57.842" height="31.2858" transform="rotate(15 167.916 17.6124)" stroke="#090C9B"/>
<path d="M182.353 48.5462L178.641 47.5516L181.905 42.8225L174.539 40.8489L171.275 45.578L167.563 44.5834L170.827 39.8543L167.332 38.9178L168.06 36.2025L172.522 37.3983L175.56 32.9955L171.963 32.0318L172.691 29.3166L177.255 30.5395L180.511 25.8393L184.209 26.83L180.967 31.5341L188.333 33.5077L191.574 28.8037L195.286 29.7982L192.044 34.5023L195.525 35.435L194.798 38.1502L190.349 36.9583L187.312 41.3611L190.894 42.3209L190.166 45.0362L185.617 43.8171L182.353 48.5462ZM183.6 40.3666L186.637 35.9637L179.271 33.99L176.234 38.3929L183.6 40.3666ZM210.126 55.9881L193.286 51.4758L194.013 48.7605L207.867 42.4106C208.415 42.1756 208.898 41.8355 209.316 41.3904C209.735 40.9452 210.044 40.4451 210.245 39.8899L210.317 39.6771C210.449 39.1861 210.446 38.6746 210.31 38.1428C210.186 37.6039 209.849 37.0905 209.299 36.6024C208.751 36.1048 207.933 35.7102 206.845 35.4187L206.423 35.3209C205.083 35.0445 203.831 35.0754 202.667 35.4137C201.506 35.7423 200.479 36.3187 199.588 37.1427L196.667 35.0443L196.685 35.0338C198.086 33.696 199.733 32.8266 201.626 32.4256C203.528 32.0272 205.524 32.108 207.613 32.6678C209.086 33.0626 210.276 33.5928 211.181 34.2584C212.086 34.9241 212.75 35.6643 213.171 36.479C213.595 37.2841 213.812 38.111 213.822 38.9599C213.834 39.5308 213.767 40.0906 213.62 40.6394C213.55 40.8994 213.409 41.29 213.197 41.8111C212.988 42.3226 212.591 42.8817 212.005 43.4885C211.429 44.0978 210.757 44.5628 209.99 44.8836L198.91 50.0724L210.854 53.2729L210.126 55.9881Z" fill="#090C9B"/>
</g>
<defs>
<clipPath id="clip0_325_402">
<rect width="256" height="96" fill="white"/>
</clipPath>
</defs>
</svg>
