<svg width="255" height="95" viewBox="0 0 255 95" fill="none" xmlns="http://www.w3.org/2000/svg">
<g clip-path="url(#clip0_325_403)">
<rect width="179.205" height="65.7198" transform="translate(33 28.8008)" fill="#090C9B"/>
<path d="M49.5551 56.0639C47.372 56.0639 45.4183 55.6303 43.6937 54.763C41.9692 53.8958 40.6036 52.6398 39.5968 50.995C38.6 49.3403 38.1016 47.3566 38.1016 45.044C38.1016 43.1699 38.4056 41.5302 39.0137 40.1246C39.6217 38.7092 40.4541 37.5329 41.5107 36.5959C42.5773 35.6589 43.7984 34.9611 45.174 34.5026C46.5596 34.0341 48.015 33.7998 49.5401 33.7998C51.6933 33.7998 53.6371 34.2384 55.3715 35.1156C57.106 35.9828 58.4767 37.2488 59.4834 38.9135C60.5002 40.5782 61.0086 42.5918 61.0086 44.9543C61.0086 46.7585 60.7145 48.3534 60.1264 49.739C59.5383 51.1246 58.7159 52.2859 57.6593 53.2229C56.6126 54.1599 55.3965 54.8677 54.0109 55.3462C52.6253 55.8246 51.14 56.0639 49.5551 56.0639ZM49.5551 53.208L50.0336 53.193C52.2963 53.0236 54.0956 52.1563 55.4314 50.5913C56.7671 49.0263 57.435 47.1423 57.435 44.9393C57.435 42.7164 56.7621 40.8274 55.4164 39.2724C54.0807 37.7073 52.2764 36.8401 50.0036 36.6707L49.5551 36.6557L49.1065 36.6707C46.8337 36.8401 45.0245 37.7073 43.6788 39.2724C42.3431 40.8374 41.6752 42.7264 41.6752 44.9393C41.6752 47.1523 42.3431 49.0412 43.6788 50.6063C45.0245 52.1713 46.8337 53.0335 49.1065 53.193L49.5551 53.208ZM71.9238 55.6602H68.425V44.1767H62.8926V41.3657H77.4562V44.1767H71.9238V55.6602ZM89.5078 55.6602H79.3103V41.3806H88.2668C88.8549 41.3806 89.4081 41.4953 89.9265 41.7246C90.4448 41.9439 90.8984 42.2429 91.2871 42.6217C91.6759 43.0204 91.9799 43.479 92.1992 43.9973C92.4285 44.5157 92.5431 45.0689 92.5431 45.657C92.5431 46.4645 92.3338 47.2021 91.9151 47.87C92.4833 48.2587 92.9369 48.7621 93.2758 49.3802C93.6147 49.9882 93.7842 50.6611 93.7842 51.3987C93.7842 51.9869 93.6695 52.5401 93.4403 53.0584C93.221 53.5668 92.9219 54.0204 92.5431 54.4191C92.1444 54.8079 91.6859 55.1119 91.1675 55.3312C90.6591 55.5505 90.1059 55.6602 89.5078 55.6602ZM88.82 52.8491C89.2287 52.8491 89.5726 52.7096 89.8517 52.4304C90.1408 52.1414 90.2853 51.7975 90.2853 51.3987C90.2853 50.99 90.1408 50.6461 89.8517 50.367C89.5726 50.0779 89.2287 49.9334 88.82 49.9334H82.8091V52.8491H88.82ZM87.5789 47.1224C87.9777 47.1224 88.3216 46.9778 88.6107 46.6887C88.8997 46.3997 89.0443 46.0558 89.0443 45.657C89.0443 45.2483 88.8997 44.8994 88.6107 44.6104C88.3216 44.3213 87.9777 44.1767 87.5789 44.1767H82.8091V47.1224H87.5789ZM103.668 56.2134C102.91 56.2134 102.153 56.1386 101.395 55.9891C100.647 55.8396 99.9695 55.6103 99.3614 55.3013C98.1652 54.7132 97.2182 53.8459 96.5205 52.6996C95.8327 51.5433 95.4887 50.1726 95.4887 48.5877C95.4887 48.1092 95.5486 47.5311 95.6682 46.8532C95.7978 46.1654 95.9473 45.6122 96.1167 45.1935C96.5454 44.2066 97.1235 43.3942 97.8512 42.7563C98.5889 42.1083 99.4312 41.6249 100.378 41.3059C101.335 40.9769 102.342 40.8125 103.399 40.8125C104.894 40.8125 106.239 41.1165 107.436 41.7246C108.632 42.3326 109.579 43.2098 110.277 44.3562C110.984 45.4925 111.338 46.8831 111.338 48.5279L111.323 49.111L99.3315 50.3072C99.5907 51.1744 100.039 51.8822 100.677 52.4304C101.325 52.9787 102.153 53.2877 103.159 53.3575H104.191C104.919 53.3077 105.602 53.1033 106.239 52.7444C106.877 52.3856 107.376 51.947 107.735 51.4286L111.009 52.6996C110.062 54.155 108.781 55.1617 107.167 55.72C106.668 55.8795 106.095 55.9991 105.447 56.0788C104.809 56.1685 104.216 56.2134 103.668 56.2134ZM99.1521 47.4962L107.481 46.6588C107.211 45.8016 106.753 45.1038 106.105 44.5655C105.467 44.0272 104.655 43.7282 103.668 43.6684H103.144C102.008 43.7481 101.101 44.1369 100.423 44.8346C99.7452 45.5324 99.3215 46.4196 99.1521 47.4962ZM121.326 55.6602H117.828V44.1767H112.295V41.3657H126.859V44.1767H121.326V55.6602ZM148.54 55.6602H145.041V41.3657H148.54V55.6602ZM138.223 55.6602H128.713V41.3657H132.212V45.7168H138.223C139.598 45.7168 140.769 46.2053 141.736 47.1822C142.703 48.1491 143.187 49.3204 143.187 50.696C143.187 52.0616 142.698 53.2329 141.721 54.2098C140.755 55.1767 139.588 55.6602 138.223 55.6602ZM137.52 52.8491C138.118 52.8491 138.626 52.6398 139.045 52.2211C139.474 51.8024 139.688 51.2941 139.688 50.696C139.688 50.0979 139.474 49.5895 139.045 49.1708C138.626 48.7422 138.118 48.5279 137.52 48.5279H132.212V52.8491H137.52ZM52.6652 88.6602H49.1663V82.9184H41.6004V88.6602H38.1016V74.3657H41.6004V80.1074H49.1663V74.3657H52.6652V88.6602ZM61.0385 89.1685H60.8292C59.7825 89.1685 58.8704 89.0489 58.0929 88.8097C57.3154 88.5804 56.6724 88.2614 56.164 87.8527C55.1473 87.0154 54.6389 85.9737 54.6389 84.7277C54.6389 83.5913 55.0077 82.6044 55.7454 81.7671C56.493 80.9198 57.4449 80.4114 58.6013 80.242L65.7634 79.3448C65.594 78.5673 65.1952 77.9343 64.5673 77.4459C63.9393 76.9475 63.077 76.6983 61.9805 76.6983H61.6665C61.2478 76.6983 60.8292 76.778 60.4105 76.9375C60.0018 77.097 59.623 77.3013 59.2741 77.5505C58.7259 77.9493 58.372 78.3729 58.2125 78.8215L54.9678 77.5805C55.4762 76.474 56.3634 75.5768 57.6294 74.889C58.9053 74.2012 60.3407 73.8573 61.9356 73.8573H62.0403C63.396 73.8573 64.6271 74.1863 65.7335 74.8442C66.84 75.5021 67.7222 76.4092 68.3801 77.5655C69.038 78.7218 69.367 79.9728 69.367 81.3185V85.0566C69.367 85.256 69.4168 85.4703 69.5165 85.6996C69.6261 85.9189 69.7906 86.0285 70.0099 86.0285C70.2192 86.0285 70.3937 86.0036 70.5332 85.9538L70.7426 85.8641V88.4209L70.0548 88.6153C69.5962 88.7449 69.0679 88.8196 68.4698 88.8396C67.8319 88.8196 67.3185 88.6502 66.9297 88.3312C66.5509 88.0122 66.2768 87.6833 66.1073 87.3443C65.9479 86.9955 65.8681 86.7313 65.8681 86.5519L65.7485 86.9556C65.6687 87.2148 65.4744 87.5188 65.1653 87.8677C64.8563 88.2066 64.3779 88.5056 63.7299 88.7648C63.082 89.034 62.1848 89.1685 61.0385 89.1685ZM61.4572 86.3874C62.6733 86.3874 63.71 86.0186 64.5673 85.2809C65.4345 84.5333 65.8681 83.5963 65.8681 82.4699V81.9914L61.1282 82.5745C60.0616 82.7141 59.294 82.9434 58.8255 83.2624C58.367 83.5813 58.1377 83.985 58.1377 84.4735C58.1377 85.0018 58.352 85.4504 58.7807 85.8192C59.3887 86.198 60.2809 86.3874 61.4572 86.3874ZM90.2255 88.6602H80.028V74.3806H88.9845C89.5726 74.3806 90.1258 74.4953 90.6442 74.7246C91.1625 74.9439 91.6161 75.2429 92.0048 75.6217C92.3936 76.0204 92.6976 76.479 92.9169 76.9973C93.1462 77.5157 93.2608 78.0689 93.2608 78.657C93.2608 79.4645 93.0515 80.2021 92.6328 80.87C93.201 81.2587 93.6546 81.7621 93.9935 82.3802C94.3324 82.9882 94.5019 83.6611 94.5019 84.3987C94.5019 84.9869 94.3873 85.5401 94.158 86.0584C93.9387 86.5668 93.6396 87.0204 93.2608 87.4191C92.8621 87.8079 92.4036 88.1119 91.8852 88.3312C91.3768 88.5505 90.8236 88.6602 90.2255 88.6602ZM89.5377 85.8491C89.9464 85.8491 90.2903 85.7096 90.5694 85.4304C90.8585 85.1414 91.003 84.7975 91.003 84.3987C91.003 83.99 90.8585 83.6461 90.5694 83.367C90.2903 83.0779 89.9464 82.9334 89.5377 82.9334H83.5268V85.8491H89.5377ZM88.2967 80.1224C88.6954 80.1224 89.0393 79.9778 89.3284 79.6887C89.6174 79.3997 89.762 79.0558 89.762 78.657C89.762 78.2483 89.6174 77.8994 89.3284 77.6104C89.0393 77.3213 88.6954 77.1767 88.2967 77.1767H83.5268V80.1224H88.2967ZM103.952 89.2134C102.437 89.2134 101.081 88.9143 99.8847 88.3163C98.6985 87.7082 97.7565 86.836 97.0587 85.6996C96.3709 84.5632 96.027 83.1976 96.027 81.6026C96.027 79.0906 96.8145 77.1419 98.3895 75.7563C99.8548 74.4604 101.704 73.8125 103.937 73.8125C105.432 73.8125 106.778 74.1165 107.974 74.7246C109.17 75.3326 110.117 76.2098 110.815 77.3562C111.523 78.5025 111.877 79.8931 111.877 81.5279C111.877 83.9502 111.104 85.8591 109.559 87.2546C108.094 88.5605 106.225 89.2134 103.952 89.2134ZM104.221 86.3575C105.547 86.2578 106.553 85.7494 107.241 84.8324C107.939 83.9153 108.288 82.8088 108.288 81.5129C108.288 80.2171 107.939 79.1106 107.241 78.1935C106.544 77.2764 105.532 76.768 104.206 76.6684H103.683C102.367 76.768 101.355 77.2764 100.647 78.1935C99.9495 79.1106 99.6006 80.2171 99.6006 81.5129C99.6006 82.8088 99.9495 83.9153 100.647 84.8324C101.355 85.7494 102.367 86.2578 103.683 86.3575H104.221ZM128.593 88.6602H125.094V77.1767H117.529V88.6602H114.03V74.3657H128.593V88.6602ZM134.888 95.5382H131.315V74.2311H134.888V75.3526L134.933 75.3226C135.043 75.223 135.292 75.0485 135.681 74.7993C136.079 74.5401 136.583 74.2959 137.191 74.0666C137.799 73.8274 138.482 73.7078 139.239 73.7078C141.512 73.7078 143.381 74.3607 144.847 75.6665C146.392 77.0521 147.164 78.9561 147.164 81.3784C147.164 83.0231 146.81 84.4187 146.103 85.565C145.405 86.7114 144.458 87.5886 143.262 88.1966C142.065 88.7947 140.72 89.0938 139.224 89.0938C138.457 89.0938 137.769 88.9941 137.161 88.7947C136.563 88.5954 136.069 88.381 135.681 88.1518C135.292 87.9125 135.028 87.7331 134.888 87.6135V95.5382ZM139.239 86.2528L139.494 86.2379C140.819 86.1382 141.831 85.6348 142.529 84.7277C143.227 83.8106 143.576 82.6991 143.576 81.3933C143.576 80.1074 143.227 79.0059 142.529 78.0888C141.841 77.1718 140.834 76.6634 139.509 76.5637L139.239 76.5487L138.97 76.5637C137.634 76.6534 136.548 77.1568 135.711 78.0739C134.883 78.991 134.47 80.0974 134.47 81.3933C134.47 82.6892 134.883 83.7957 135.711 84.7127C136.548 85.6298 137.634 86.1382 138.97 86.2379L139.239 86.2528ZM157.182 89.2134C155.667 89.2134 154.311 88.9143 153.115 88.3163C151.929 87.7082 150.987 86.836 150.289 85.6996C149.601 84.5632 149.257 83.1976 149.257 81.6026C149.257 79.0906 150.045 77.1419 151.62 75.7563C153.085 74.4604 154.934 73.8125 157.167 73.8125C158.662 73.8125 160.008 74.1165 161.204 74.7246C162.401 75.3326 163.348 76.2098 164.045 77.3562C164.753 78.5025 165.107 79.8931 165.107 81.5279C165.107 83.9502 164.334 85.8591 162.789 87.2546C161.324 88.5605 159.455 89.2134 157.182 89.2134ZM157.451 86.3575C158.777 86.2578 159.784 85.7494 160.472 84.8324C161.17 83.9153 161.518 82.8088 161.518 81.5129C161.518 80.2171 161.17 79.1106 160.472 78.1935C159.774 77.2764 158.762 76.768 157.436 76.6684H156.913C155.597 76.768 154.585 77.2764 153.878 78.1935C153.18 79.1106 152.831 80.2171 152.831 81.5129C152.831 82.8088 153.18 83.9153 153.878 84.8324C154.585 85.7494 155.597 86.2578 156.913 86.3575H157.451ZM174.901 89.2134C173.396 89.2134 172.045 88.9143 170.849 88.3163C169.662 87.7082 168.72 86.841 168.023 85.7145C167.335 84.5782 166.991 83.2075 166.991 81.6026C166.991 80.3068 167.2 79.1704 167.619 78.1935C168.038 77.2166 168.611 76.4042 169.338 75.7563C170.076 75.1083 170.923 74.6249 171.88 74.3059C172.837 73.9869 173.844 73.8274 174.901 73.8274C176.386 73.8274 177.732 74.1265 178.938 74.7246C180.084 75.3027 181.001 76.1351 181.689 77.2216L178.4 78.4477C177.622 77.2615 176.371 76.6684 174.647 76.6684C173.321 76.768 172.309 77.2764 171.611 78.1935C170.913 79.1106 170.565 80.2171 170.565 81.5129C170.565 82.8088 170.913 83.9153 171.611 84.8324C172.309 85.7494 173.321 86.2578 174.647 86.3575C176.371 86.3575 177.617 85.7743 178.385 84.6081L181.659 85.8641C181.35 86.3824 180.971 86.8459 180.523 87.2546C179.058 88.5605 177.183 89.2134 174.901 89.2134ZM203.475 88.6602H199.976V74.3657H203.475V88.6602ZM193.158 88.6602H183.648V74.3657H187.147V78.7168H193.158C194.533 78.7168 195.704 79.2053 196.671 80.1822C197.638 81.1491 198.122 82.3204 198.122 83.696C198.122 85.0616 197.633 86.2329 196.656 87.2098C195.69 88.1767 194.523 88.6602 193.158 88.6602ZM192.455 85.8491C193.053 85.8491 193.561 85.6398 193.98 85.2211C194.409 84.8024 194.623 84.2941 194.623 83.696C194.623 83.0979 194.409 82.5895 193.98 82.1708C193.561 81.7422 193.053 81.5279 192.455 81.5279H187.147V85.8491H192.455Z" fill="white"/>
<rect x="169.916" y="16.6124" width="57.842" height="31.2858" transform="rotate(15 169.916 16.6124)" fill="white"/>
<rect x="169.916" y="16.6124" width="57.842" height="31.2858" transform="rotate(15 169.916 16.6124)" stroke="#090C9B"/>
<path d="M188.313 48.6065L184.602 47.6119L187.866 42.8828L180.5 40.9091L177.236 45.6382L173.524 44.6436L176.788 39.9145L173.293 38.978L174.02 36.2627L178.483 37.4586L181.521 33.0557L177.924 32.0921L178.652 29.3768L183.216 30.5997L186.472 25.8995L190.169 26.8902L186.928 31.5943L194.293 33.568L197.535 28.8639L201.247 29.8585L198.005 34.5626L201.486 35.4952L200.758 38.2105L196.31 37.0185L193.273 41.4214L196.855 42.3811L196.127 45.0964L191.577 43.8774L188.313 48.6065ZM189.561 40.4268L192.598 36.024L185.232 34.0503L182.195 38.4531L189.561 40.4268ZM207.335 53.7032L203.955 52.7976L208.634 35.3362L205.13 36.6265L202.443 34.6372L209.508 32.0721L212.888 32.9777L207.335 53.7032Z" fill="#090C9B"/>
</g>
<defs>
<clipPath id="clip0_325_403">
<rect width="255" height="95" fill="white"/>
</clipPath>
</defs>
</svg>
