<svg width="256" height="96" viewBox="0 0 256 96" fill="none" xmlns="http://www.w3.org/2000/svg">
<g clip-path="url(#clip0_325_404)">
<rect width="179.205" height="65.7198" transform="translate(32 29.8008)" fill="#090C9B"/>
<path d="M48.5551 57.0639C46.372 57.0639 44.4183 56.6303 42.6937 55.763C40.9692 54.8958 39.6036 53.6398 38.5968 51.995C37.6 50.3403 37.1016 48.3566 37.1016 46.044C37.1016 44.1699 37.4056 42.5302 38.0137 41.1246C38.6217 39.7092 39.4541 38.5329 40.5107 37.5959C41.5773 36.6589 42.7984 35.9611 44.174 35.5026C45.5596 35.0341 47.015 34.7998 48.5401 34.7998C50.6933 34.7998 52.6371 35.2384 54.3715 36.1156C56.106 36.9828 57.4767 38.2488 58.4834 39.9135C59.5002 41.5782 60.0086 43.5918 60.0086 45.9543C60.0086 47.7585 59.7145 49.3534 59.1264 50.739C58.5383 52.1246 57.7159 53.2859 56.6593 54.2229C55.6126 55.1599 54.3965 55.8677 53.0109 56.3462C51.6253 56.8246 50.14 57.0639 48.5551 57.0639ZM48.5551 54.208L49.0336 54.193C51.2963 54.0236 53.0956 53.1563 54.4314 51.5913C55.7671 50.0263 56.435 48.1423 56.435 45.9393C56.435 43.7164 55.7621 41.8274 54.4164 40.2724C53.0807 38.7073 51.2764 37.8401 49.0036 37.6707L48.5551 37.6557L48.1065 37.6707C45.8337 37.8401 44.0245 38.7073 42.6788 40.2724C41.3431 41.8374 40.6752 43.7264 40.6752 45.9393C40.6752 48.1523 41.3431 50.0412 42.6788 51.6063C44.0245 53.1713 45.8337 54.0335 48.1065 54.193L48.5551 54.208ZM70.9238 56.6602H67.425V45.1767H61.8926V42.3657H76.4562V45.1767H70.9238V56.6602ZM88.5078 56.6602H78.3103V42.3806H87.2668C87.8549 42.3806 88.4081 42.4953 88.9265 42.7246C89.4448 42.9439 89.8984 43.2429 90.2871 43.6217C90.6759 44.0204 90.9799 44.479 91.1992 44.9973C91.4285 45.5157 91.5431 46.0689 91.5431 46.657C91.5431 47.4645 91.3338 48.2021 90.9151 48.87C91.4833 49.2587 91.9369 49.7621 92.2758 50.3802C92.6147 50.9882 92.7842 51.6611 92.7842 52.3987C92.7842 52.9869 92.6695 53.5401 92.4403 54.0584C92.221 54.5668 91.9219 55.0204 91.5431 55.4191C91.1444 55.8079 90.6859 56.1119 90.1675 56.3312C89.6591 56.5505 89.1059 56.6602 88.5078 56.6602ZM87.82 53.8491C88.2287 53.8491 88.5726 53.7096 88.8517 53.4304C89.1408 53.1414 89.2853 52.7975 89.2853 52.3987C89.2853 51.99 89.1408 51.6461 88.8517 51.367C88.5726 51.0779 88.2287 50.9334 87.82 50.9334H81.8091V53.8491H87.82ZM86.5789 48.1224C86.9777 48.1224 87.3216 47.9778 87.6107 47.6887C87.8997 47.3997 88.0443 47.0558 88.0443 46.657C88.0443 46.2483 87.8997 45.8994 87.6107 45.6104C87.3216 45.3213 86.9777 45.1767 86.5789 45.1767H81.8091V48.1224H86.5789ZM102.668 57.2134C101.91 57.2134 101.153 57.1386 100.395 56.9891C99.6473 56.8396 98.9695 56.6103 98.3614 56.3013C97.1652 55.7132 96.2182 54.8459 95.5205 53.6996C94.8327 52.5433 94.4887 51.1726 94.4887 49.5877C94.4887 49.1092 94.5486 48.5311 94.6682 47.8532C94.7978 47.1654 94.9473 46.6122 95.1167 46.1935C95.5454 45.2066 96.1235 44.3942 96.8512 43.7563C97.5889 43.1083 98.4312 42.6249 99.3782 42.3059C100.335 41.9769 101.342 41.8125 102.399 41.8125C103.894 41.8125 105.239 42.1165 106.436 42.7246C107.632 43.3326 108.579 44.2098 109.277 45.3562C109.984 46.4925 110.338 47.8831 110.338 49.5279L110.323 50.111L98.3315 51.3072C98.5907 52.1744 99.0393 52.8822 99.6772 53.4304C100.325 53.9787 101.153 54.2877 102.159 54.3575H103.191C103.919 54.3077 104.602 54.1033 105.239 53.7444C105.877 53.3856 106.376 52.947 106.735 52.4286L110.009 53.6996C109.062 55.155 107.781 56.1617 106.167 56.72C105.668 56.8795 105.095 56.9991 104.447 57.0788C103.809 57.1685 103.216 57.2134 102.668 57.2134ZM98.1521 48.4962L106.481 47.6588C106.211 46.8016 105.753 46.1038 105.105 45.5655C104.467 45.0272 103.655 44.7282 102.668 44.6684H102.144C101.008 44.7481 100.101 45.1369 99.423 45.8346C98.7452 46.5324 98.3215 47.4196 98.1521 48.4962ZM120.326 56.6602H116.828V45.1767H111.295V42.3657H125.859V45.1767H120.326V56.6602ZM147.54 56.6602H144.041V42.3657H147.54V56.6602ZM137.223 56.6602H127.713V42.3657H131.212V46.7168H137.223C138.598 46.7168 139.769 47.2053 140.736 48.1822C141.703 49.1491 142.187 50.3204 142.187 51.696C142.187 53.0616 141.698 54.2329 140.721 55.2098C139.755 56.1767 138.588 56.6602 137.223 56.6602ZM136.52 53.8491C137.118 53.8491 137.626 53.6398 138.045 53.2211C138.474 52.8024 138.688 52.2941 138.688 51.696C138.688 51.0979 138.474 50.5895 138.045 50.1708C137.626 49.7422 137.118 49.5279 136.52 49.5279H131.212V53.8491H136.52ZM51.6652 89.6602H48.1663V83.9184H40.6004V89.6602H37.1016V75.3657H40.6004V81.1074H48.1663V75.3657H51.6652V89.6602ZM60.0385 90.1685H59.8292C58.7825 90.1685 57.8704 90.0489 57.0929 89.8097C56.3154 89.5804 55.6724 89.2614 55.164 88.8527C54.1473 88.0154 53.6389 86.9737 53.6389 85.7277C53.6389 84.5913 54.0077 83.6044 54.7454 82.7671C55.493 81.9198 56.4449 81.4114 57.6013 81.242L64.7634 80.3448C64.594 79.5673 64.1952 78.9343 63.5673 78.4459C62.9393 77.9475 62.077 77.6983 60.9805 77.6983H60.6665C60.2478 77.6983 59.8292 77.778 59.4105 77.9375C59.0018 78.097 58.623 78.3013 58.2741 78.5505C57.7259 78.9493 57.372 79.3729 57.2125 79.8215L53.9678 78.5805C54.4762 77.474 55.3634 76.5768 56.6294 75.889C57.9053 75.2012 59.3407 74.8573 60.9356 74.8573H61.0403C62.396 74.8573 63.6271 75.1863 64.7335 75.8442C65.84 76.5021 66.7222 77.4092 67.3801 78.5655C68.038 79.7218 68.367 80.9728 68.367 82.3185V86.0566C68.367 86.256 68.4168 86.4703 68.5165 86.6996C68.6261 86.9189 68.7906 87.0285 69.0099 87.0285C69.2192 87.0285 69.3937 87.0036 69.5332 86.9538L69.7426 86.8641V89.4209L69.0548 89.6153C68.5962 89.7449 68.0679 89.8196 67.4698 89.8396C66.8319 89.8196 66.3185 89.6502 65.9297 89.3312C65.5509 89.0122 65.2768 88.6833 65.1073 88.3443C64.9479 87.9955 64.8681 87.7313 64.8681 87.5519L64.7485 87.9556C64.6687 88.2148 64.4744 88.5188 64.1653 88.8677C63.8563 89.2066 63.3779 89.5056 62.7299 89.7648C62.082 90.034 61.1848 90.1685 60.0385 90.1685ZM60.4572 87.3874C61.6733 87.3874 62.71 87.0186 63.5673 86.2809C64.4345 85.5333 64.8681 84.5963 64.8681 83.4699V82.9914L60.1282 83.5745C59.0616 83.7141 58.294 83.9434 57.8255 84.2624C57.367 84.5813 57.1377 84.985 57.1377 85.4735C57.1377 86.0018 57.352 86.4504 57.7807 86.8192C58.3887 87.198 59.2809 87.3874 60.4572 87.3874ZM89.2255 89.6602H79.028V75.3806H87.9845C88.5726 75.3806 89.1258 75.4953 89.6442 75.7246C90.1625 75.9439 90.6161 76.2429 91.0048 76.6217C91.3936 77.0204 91.6976 77.479 91.9169 77.9973C92.1462 78.5157 92.2608 79.0689 92.2608 79.657C92.2608 80.4645 92.0515 81.2021 91.6328 81.87C92.201 82.2587 92.6546 82.7621 92.9935 83.3802C93.3324 83.9882 93.5019 84.6611 93.5019 85.3987C93.5019 85.9869 93.3873 86.5401 93.158 87.0584C92.9387 87.5668 92.6396 88.0204 92.2608 88.4191C91.8621 88.8079 91.4036 89.1119 90.8852 89.3312C90.3768 89.5505 89.8236 89.6602 89.2255 89.6602ZM88.5377 86.8491C88.9464 86.8491 89.2903 86.7096 89.5694 86.4304C89.8585 86.1414 90.003 85.7975 90.003 85.3987C90.003 84.99 89.8585 84.6461 89.5694 84.367C89.2903 84.0779 88.9464 83.9334 88.5377 83.9334H82.5268V86.8491H88.5377ZM87.2967 81.1224C87.6954 81.1224 88.0393 80.9778 88.3284 80.6887C88.6174 80.3997 88.762 80.0558 88.762 79.657C88.762 79.2483 88.6174 78.8994 88.3284 78.6104C88.0393 78.3213 87.6954 78.1767 87.2967 78.1767H82.5268V81.1224H87.2967ZM102.952 90.2134C101.437 90.2134 100.081 89.9143 98.8847 89.3163C97.6985 88.7082 96.7565 87.836 96.0587 86.6996C95.3709 85.5632 95.027 84.1976 95.027 82.6026C95.027 80.0906 95.8145 78.1419 97.3895 76.7563C98.8548 75.4604 100.704 74.8125 102.937 74.8125C104.432 74.8125 105.778 75.1165 106.974 75.7246C108.17 76.3326 109.117 77.2098 109.815 78.3562C110.523 79.5025 110.877 80.8931 110.877 82.5279C110.877 84.9502 110.104 86.8591 108.559 88.2546C107.094 89.5605 105.225 90.2134 102.952 90.2134ZM103.221 87.3575C104.547 87.2578 105.553 86.7494 106.241 85.8324C106.939 84.9153 107.288 83.8088 107.288 82.5129C107.288 81.2171 106.939 80.1106 106.241 79.1935C105.544 78.2764 104.532 77.768 103.206 77.6684H102.683C101.367 77.768 100.355 78.2764 99.6473 79.1935C98.9495 80.1106 98.6006 81.2171 98.6006 82.5129C98.6006 83.8088 98.9495 84.9153 99.6473 85.8324C100.355 86.7494 101.367 87.2578 102.683 87.3575H103.221ZM127.593 89.6602H124.094V78.1767H116.529V89.6602H113.03V75.3657H127.593V89.6602ZM133.888 96.5382H130.315V75.2311H133.888V76.3526L133.933 76.3226C134.043 76.223 134.292 76.0485 134.681 75.7993C135.079 75.5401 135.583 75.2959 136.191 75.0666C136.799 74.8274 137.482 74.7078 138.239 74.7078C140.512 74.7078 142.381 75.3607 143.847 76.6665C145.392 78.0521 146.164 79.9561 146.164 82.3784C146.164 84.0231 145.81 85.4187 145.103 86.565C144.405 87.7114 143.458 88.5886 142.262 89.1966C141.065 89.7947 139.72 90.0938 138.224 90.0938C137.457 90.0938 136.769 89.9941 136.161 89.7947C135.563 89.5954 135.069 89.381 134.681 89.1518C134.292 88.9125 134.028 88.7331 133.888 88.6135V96.5382ZM138.239 87.2528L138.494 87.2379C139.819 87.1382 140.831 86.6348 141.529 85.7277C142.227 84.8106 142.576 83.6991 142.576 82.3933C142.576 81.1074 142.227 80.0059 141.529 79.0888C140.841 78.1718 139.834 77.6634 138.509 77.5637L138.239 77.5487L137.97 77.5637C136.634 77.6534 135.548 78.1568 134.711 79.0739C133.883 79.991 133.47 81.0974 133.47 82.3933C133.47 83.6892 133.883 84.7957 134.711 85.7127C135.548 86.6298 136.634 87.1382 137.97 87.2379L138.239 87.2528ZM156.182 90.2134C154.667 90.2134 153.311 89.9143 152.115 89.3163C150.929 88.7082 149.987 87.836 149.289 86.6996C148.601 85.5632 148.257 84.1976 148.257 82.6026C148.257 80.0906 149.045 78.1419 150.62 76.7563C152.085 75.4604 153.934 74.8125 156.167 74.8125C157.662 74.8125 159.008 75.1165 160.204 75.7246C161.401 76.3326 162.348 77.2098 163.045 78.3562C163.753 79.5025 164.107 80.8931 164.107 82.5279C164.107 84.9502 163.334 86.8591 161.789 88.2546C160.324 89.5605 158.455 90.2134 156.182 90.2134ZM156.451 87.3575C157.777 87.2578 158.784 86.7494 159.472 85.8324C160.17 84.9153 160.518 83.8088 160.518 82.5129C160.518 81.2171 160.17 80.1106 159.472 79.1935C158.774 78.2764 157.762 77.768 156.436 77.6684H155.913C154.597 77.768 153.585 78.2764 152.878 79.1935C152.18 80.1106 151.831 81.2171 151.831 82.5129C151.831 83.8088 152.18 84.9153 152.878 85.8324C153.585 86.7494 154.597 87.2578 155.913 87.3575H156.451ZM173.901 90.2134C172.396 90.2134 171.045 89.9143 169.849 89.3163C168.662 88.7082 167.72 87.841 167.023 86.7145C166.335 85.5782 165.991 84.2075 165.991 82.6026C165.991 81.3068 166.2 80.1704 166.619 79.1935C167.038 78.2166 167.611 77.4042 168.338 76.7563C169.076 76.1083 169.923 75.6249 170.88 75.3059C171.837 74.9869 172.844 74.8274 173.901 74.8274C175.386 74.8274 176.732 75.1265 177.938 75.7246C179.084 76.3027 180.001 77.1351 180.689 78.2216L177.4 79.4477C176.622 78.2615 175.371 77.6684 173.647 77.6684C172.321 77.768 171.309 78.2764 170.611 79.1935C169.913 80.1106 169.565 81.2171 169.565 82.5129C169.565 83.8088 169.913 84.9153 170.611 85.8324C171.309 86.7494 172.321 87.2578 173.647 87.3575C175.371 87.3575 176.617 86.7743 177.385 85.6081L180.659 86.8641C180.35 87.3824 179.971 87.8459 179.523 88.2546C178.058 89.5605 176.183 90.2134 173.901 90.2134ZM202.475 89.6602H198.976V75.3657H202.475V89.6602ZM192.158 89.6602H182.648V75.3657H186.147V79.7168H192.158C193.533 79.7168 194.704 80.2053 195.671 81.1822C196.638 82.1491 197.122 83.3204 197.122 84.696C197.122 86.0616 196.633 87.2329 195.656 88.2098C194.69 89.1767 193.523 89.6602 192.158 89.6602ZM191.455 86.8491C192.053 86.8491 192.561 86.6398 192.98 86.2211C193.409 85.8024 193.623 85.2941 193.623 84.696C193.623 84.0979 193.409 83.5895 192.98 83.1708C192.561 82.7422 192.053 82.5279 191.455 82.5279H186.147V86.8491H191.455Z" fill="white"/>
<rect x="168.916" y="17.6124" width="57.842" height="31.2858" transform="rotate(15 168.916 17.6124)" fill="white"/>
<rect x="168.916" y="17.6124" width="57.842" height="31.2858" transform="rotate(15 168.916 17.6124)" stroke="#090C9B"/>
<path d="M183.12 48.4848L179.408 47.4902L182.672 42.7611L175.306 40.7874L172.042 45.5165L168.331 44.522L171.595 39.7929L168.099 38.8563L168.827 36.1411L173.29 37.3369L176.327 32.934L172.731 31.9704L173.458 29.2552L178.022 30.4781L181.279 25.7779L184.976 26.7686L181.734 31.4726L189.1 33.4463L192.342 28.7422L196.054 29.7368L192.812 34.4409L196.293 35.3736L195.565 38.0888L191.117 36.8969L188.079 41.2997L191.661 42.2595L190.934 44.9747L186.384 43.7557L183.12 48.4848ZM184.368 40.3051L187.405 35.9023L180.039 33.9286L177.002 38.3315L184.368 40.3051ZM202.427 54.076C200.886 53.6632 199.601 53.1435 198.572 52.5168C197.546 51.8805 196.712 51.2185 196.07 50.5307C195.429 49.8428 194.943 49.1915 194.612 48.5766C194.275 47.9495 194.038 47.4268 193.903 47.0086L197.547 46.6383C197.94 47.6726 198.568 48.6044 199.429 49.4338C200.293 50.2535 201.409 50.8465 202.776 51.2129C204.538 51.685 206.07 51.7241 207.373 51.3301C208.678 50.9265 209.473 50.1951 209.757 49.136C209.971 48.3368 209.948 47.6135 209.688 46.9659C209.428 46.3183 209.019 45.7444 208.462 45.2442C207.917 44.7369 207.297 44.2973 206.602 43.9253C205.909 43.5437 205.226 43.2264 204.55 42.9732C203.875 42.72 203.287 42.5264 202.787 42.3922L201.703 42.102L202.446 39.3289L210 36.384L199.081 33.4583L199.809 30.743L215.321 34.8993L214.67 37.3257L206.811 40.5449C206.84 40.5526 206.976 40.6045 207.218 40.7004C207.463 40.7868 207.774 40.9165 208.151 41.0897C208.537 41.2655 208.957 41.4913 209.409 41.7674C209.874 42.0363 210.334 42.3608 210.789 42.7408C211.247 43.1112 211.669 43.5391 212.055 44.0243C212.451 44.5122 212.774 45.058 213.025 45.6619C213.286 46.2684 213.442 46.9348 213.496 47.661C213.549 48.3873 213.459 49.1838 213.227 50.0503C212.971 51.0036 212.573 51.7791 212.031 52.3769C211.491 52.9651 210.868 53.4225 210.161 53.7491C209.467 54.0687 208.738 54.2861 207.974 54.4014C207.213 54.5071 206.469 54.5502 205.741 54.5307C205.026 54.5042 204.377 54.4437 203.793 54.3492C203.21 54.2548 202.754 54.1637 202.427 54.076Z" fill="#090C9B"/>
</g>
<defs>
<clipPath id="clip0_325_404">
<rect width="256" height="96" fill="white"/>
</clipPath>
</defs>
</svg>
