<svg width="299" height="23" viewBox="0 0 299 23" fill="none" xmlns="http://www.w3.org/2000/svg">
<path d="M10.8867 16.8398H0V0.0351562H9.70312C10.3828 0.0351562 11.0234 0.160156 11.625 0.410156C12.2266 0.660156 12.7539 1.00391 13.207 1.44141C14.2461 2.43359 14.7656 3.65234 14.7656 5.09766C14.7656 5.73047 14.543 6.62109 14.0977 7.76953C14.6758 8.31641 15.125 8.92578 15.4453 9.59766C15.7734 10.2695 15.9375 10.9961 15.9375 11.7773C15.9375 12.7773 15.6758 13.6836 15.1523 14.4961C14.6445 15.3242 13.9336 15.9453 13.0195 16.3594C12.3555 16.6797 11.6445 16.8398 10.8867 16.8398ZM9.16406 6.75C9.61719 6.75 10 6.59375 10.3125 6.28125C10.6328 5.96094 10.793 5.57812 10.793 5.13281C10.793 4.6875 10.6328 4.30859 10.3125 3.99609C10 3.67578 9.61719 3.51562 9.16406 3.51562H3.87891V6.75H9.16406ZM10.3945 13.3594C10.8398 13.3594 11.2188 13.2031 11.5312 12.8906C11.8516 12.5703 12.0117 12.1836 12.0117 11.7305C12.0117 11.2852 11.8516 10.9062 11.5312 10.5938C11.2188 10.2734 10.8398 10.1133 10.3945 10.1133H3.9375V13.3594H10.3945Z" fill="#090C9B"/>
<path d="M22.4883 13.8984C23.1523 13.8984 23.707 13.707 24.1523 13.3242C24.6055 12.9336 24.832 12.6055 24.832 12.3398L22.3477 12.6445C21.7227 12.7227 21.3242 12.8047 21.1523 12.8906C20.9805 12.9688 20.8945 13.0938 20.8945 13.2656C20.8945 13.4219 20.9922 13.5664 21.1875 13.6992C21.375 13.832 21.8086 13.8984 22.4883 13.8984ZM25.6055 16.0547C25.3242 16.3672 24.9141 16.6328 24.375 16.8516C23.8438 17.0703 23.1367 17.1797 22.2539 17.1797H22.1133C21.332 17.1797 20.6367 17.0859 20.0273 16.8984C19.418 16.7188 18.8984 16.4609 18.4688 16.125C17.6016 15.4062 17.168 14.5078 17.168 13.4297C17.168 12.4766 17.4805 11.6875 18.1055 11.0625C18.7305 10.4297 19.5234 10.043 20.4844 9.90234L24.6797 9.375C24.1719 8.78125 23.5039 8.48438 22.6758 8.48438H22.582C21.7539 8.48438 21.0508 8.83984 20.4727 9.55078L17.3906 8.19141C17.9297 7.23828 18.6758 6.51562 19.6289 6.02344C20.582 5.52344 21.668 5.27344 22.8867 5.27344H22.9453C24 5.27344 24.9609 5.53125 25.8281 6.04688C26.7031 6.5625 27.3945 7.26953 27.9023 8.16797C28.418 9.06641 28.6758 10.043 28.6758 11.0977V13.0898C28.6758 13.3086 28.6953 13.457 28.7344 13.5352C28.7734 13.6133 28.8594 13.6523 28.9922 13.6523C29.1562 13.6523 29.3711 13.5547 29.6367 13.3594V16.5L28.8398 16.7344C28.3477 16.8828 27.8555 16.957 27.3633 16.957C26.7539 16.957 26.168 16.6562 25.6055 16.0547Z" fill="#090C9B"/>
<path d="M45.7031 16.8516H30.9609V5.63672H34.7461V13.5352H36.4336V5.63672H40.2305V13.5352H41.918V5.63672H45.7031V16.8516Z" fill="#090C9B"/>
<path d="M59.0742 16.8516H55.2773V11.7539L50.8594 16.8516H47.6719V5.63672H51.457V10.8281L55.875 5.63672H59.0742V16.8516Z" fill="#090C9B"/>
<path d="M73.2188 17.2266C72.0703 17.2266 71.0312 16.9922 70.1016 16.5234C69.1719 16.0547 68.4336 15.375 67.8867 14.4844C67.3477 13.5938 67.0781 12.5312 67.0781 11.2969C67.0781 10.3125 67.2422 9.4375 67.5703 8.67188C67.8984 7.90625 68.3516 7.26953 68.9297 6.76172C69.5078 6.25391 70.1641 5.87891 70.8984 5.63672C71.6406 5.38672 72.4102 5.26172 73.207 5.26172C74.3398 5.26172 75.3672 5.49219 76.2891 5.95312C77.1953 6.40625 78.0703 7.30078 78.9141 8.63672L75.3398 9.97266C74.7461 9.05859 73.9883 8.60156 73.0664 8.60156C72.3789 8.64844 71.8477 8.91797 71.4727 9.41016C71.1055 9.89453 70.9219 10.5039 70.9219 11.2383C70.9219 11.9727 71.1055 12.5859 71.4727 13.0781C71.8477 13.5625 72.3789 13.832 73.0664 13.8867C73.9805 13.8867 74.7344 13.4336 75.3281 12.5273L78.8789 13.8867C78.3398 14.7773 77.8906 15.3828 77.5312 15.7031C76.3906 16.7188 74.9531 17.2266 73.2188 17.2266Z" fill="#090C9B"/>
<path d="M83.9297 22.6172C83.3516 22.6172 82.8164 22.5469 82.3242 22.4062C81.8398 22.2734 81.4258 22.125 81.082 21.9609C80.7383 21.7969 80.4727 21.6602 80.2852 21.5508L79.3711 21.0352L82.0547 18.2812C82.4531 18.625 82.7461 18.8516 82.9336 18.9609C83.1289 19.0703 83.3438 19.125 83.5781 19.125C83.7969 19.125 84.0078 19.0859 84.2109 19.0078C84.4141 18.9297 84.5781 18.7539 84.7031 18.4805C84.8047 18.2461 84.9648 17.7656 85.1836 17.0391C84.4961 16.9297 83.8594 16.3164 83.2734 15.1992L79.2891 5.63672H83.625L86.0625 12.7148C86.1328 12.8711 86.1914 12.9727 86.2383 13.0195C86.2852 13.0664 86.3438 13.0898 86.4141 13.0898L86.5195 13.0781L88.9453 5.63672H92.9766C90.0469 14.168 88.3711 18.9922 87.9492 20.1094C87.6055 20.9297 87.0703 21.5508 86.3438 21.9727C85.6172 22.4023 84.8125 22.6172 83.9297 22.6172Z" fill="#090C9B"/>
<path d="M100.125 17.1562C98.9766 17.1562 97.9375 16.9219 97.0078 16.4531C96.0859 15.9844 95.3516 15.3047 94.8047 14.4141C94.2969 13.5703 94.0234 12.0781 93.9844 9.9375C93.9844 9.07031 94 8.25 94.0312 7.47656C94.0703 6.70312 94.1914 5.97266 94.3945 5.28516C94.4492 5.09766 94.5547 4.85156 94.7109 4.54688C94.8672 4.24219 95.0859 3.92188 95.3672 3.58594C95.6562 3.24219 96.0195 2.91406 96.457 2.60156C96.8945 2.28906 97.418 2.03516 98.0273 1.83984C98.6367 1.64453 99.3359 1.54688 100.125 1.54688H100.289C101.102 1.46875 101.781 0.953125 102.328 0L105.82 1.34766C105.516 2.01172 105.18 2.56641 104.812 3.01172C104.445 3.45703 103.883 3.87109 103.125 4.25391C102.367 4.62891 101.379 4.81641 100.16 4.81641H99.9844C98.6719 4.81641 97.8008 5.32031 97.3711 6.32812C98.418 5.64844 99.4141 5.30859 100.359 5.30859C101.336 5.30859 102.289 5.54297 103.219 6.01172C104.156 6.48047 104.898 7.14453 105.445 8.00391C106 8.86328 106.277 9.92578 106.277 11.1914C106.277 13.0586 105.668 14.5391 104.449 15.6328C103.316 16.6484 101.875 17.1562 100.125 17.1562ZM100.289 13.8164C100.977 13.8164 101.504 13.5625 101.871 13.0547C102.246 12.5391 102.434 11.9141 102.434 11.1797C102.434 10.4375 102.246 9.8125 101.871 9.30469C101.504 8.78906 100.973 8.53125 100.277 8.53125H99.9844C99.2969 8.53125 98.7695 8.78125 98.4023 9.28125C98.0352 9.77344 97.8477 10.4023 97.8398 11.168V11.2031C97.8398 11.9219 98.0234 12.5391 98.3906 13.0547C98.7656 13.5625 99.2969 13.8164 99.9844 13.8164H100.289Z" fill="#090C9B"/>
<path d="M114.562 16.8398H110.777V8.94141H106.969V5.63672H118.371V8.94141H114.562V16.8398Z" fill="#090C9B"/>
<path d="M131.215 16.8516H127.418V11.7539L123 16.8516H119.812V5.63672H123.598V10.8281L128.016 5.63672H131.215V16.8516Z" fill="#090C9B"/>
<path d="M140.32 16.8398H136.535V8.94141H132.727V5.63672H144.129V8.94141H140.32V16.8398Z" fill="#090C9B"/>
<path d="M151.945 5.36719C153.531 5.36719 154.895 5.875 156.035 6.89062C157.246 7.98438 157.852 9.46875 157.852 11.3438C157.852 12.6016 157.574 13.6797 157.02 14.5781C156.473 15.4766 155.734 16.1641 154.805 16.6406C153.875 17.1094 152.879 17.3438 151.816 17.3438C150.98 17.3438 150.18 17.1094 149.414 16.6406V22.4414H145.57V5.63672H149.414V6.12891C150.188 5.62109 151.031 5.36719 151.945 5.36719ZM151.852 8.625H151.535C150.816 8.67969 150.23 8.95703 149.777 9.45703C149.332 9.94922 149.109 10.5547 149.109 11.2734C149.109 11.9844 149.332 12.5898 149.777 13.0898C150.23 13.582 150.816 13.8555 151.535 13.9102H151.84C152.527 13.8633 153.074 13.5977 153.48 13.1133C153.895 12.6211 154.102 12.0078 154.102 11.2734C154.102 10.5391 153.898 9.92969 153.492 9.44531C153.086 8.95312 152.539 8.67969 151.852 8.625Z" fill="#090C9B"/>
<path d="M175.676 16.8398L171.891 16.8516V5.63672H175.676V16.8398ZM166.84 16.8516H159.609V5.63672H163.395V8.625H166.84C167.973 8.625 168.941 9.02734 169.746 9.83203C170.551 10.6289 170.953 11.5977 170.953 12.7383C170.953 13.8711 170.551 14.8398 169.746 15.6445C168.941 16.4492 167.973 16.8516 166.84 16.8516ZM166.359 13.5117C166.586 13.5117 166.773 13.4336 166.922 13.2773C167.078 13.1211 167.156 12.9336 167.156 12.7148C167.156 12.4883 167.078 12.2969 166.922 12.1406C166.773 11.9844 166.586 11.9062 166.359 11.9062H163.395V13.5117H166.359Z" fill="#090C9B"/>
<path d="M196.922 19.3594H193.125V16.8516H186.246V19.3594H182.461V13.5352H184.453C185.125 12.0508 185.461 10.3633 185.461 8.47266V5.63672H195.129V13.5352H196.922V19.3594ZM191.355 13.5352V8.75391H189.258C189.258 10.5273 188.969 12.1211 188.391 13.5352H191.355Z" fill="#090C9B"/>
<path d="M210.105 16.8516H206.32V8.95312H204.551L203.953 12.7383C203.734 13.9414 203.176 14.9297 202.277 15.7031C201.379 16.4688 200.328 16.8516 199.125 16.8516H198.164V13.5352H199.125C199.383 13.5352 199.605 13.4531 199.793 13.2891C199.988 13.125 200.109 12.9141 200.156 12.6562L201.27 5.63672H210.105V16.8516Z" fill="#090C9B"/>
<path d="M223.383 16.8398H219.598V13.8516H218.496L216.047 16.8398H211.242L214.113 13.4648C212.738 12.6523 212.051 11.4102 212.051 9.73828C212.051 8.60547 212.449 7.63672 213.246 6.83203C214.051 6.02734 215.02 5.625 216.152 5.625H223.383V16.8398ZM219.645 10.5703V8.96484H216.68C216.453 8.96484 216.262 9.04297 216.105 9.19922C215.957 9.35547 215.883 9.54297 215.883 9.76172C215.883 9.98828 215.957 10.1797 216.105 10.3359C216.262 10.4922 216.453 10.5703 216.68 10.5703H219.645Z" fill="#090C9B"/>
<path d="M239.25 16.8516H231.539V5.64844H238.395C238.895 5.64844 239.363 5.74219 239.801 5.92969C240.238 6.11719 240.625 6.375 240.961 6.70312C241.289 7.03906 241.547 7.42578 241.734 7.86328C241.922 8.30078 242.016 8.76953 242.016 9.26953C242.016 9.95703 241.957 10.3984 241.84 10.5938C241.957 10.6797 242.16 10.9844 242.449 11.5078C242.738 12.0234 242.883 12.5938 242.883 13.2188C242.883 13.7188 242.785 14.1875 242.59 14.625C242.402 15.0625 242.145 15.4492 241.816 15.7852C241.48 16.1211 241.094 16.3828 240.656 16.5703C240.219 16.7578 239.75 16.8516 239.25 16.8516ZM238.008 13.6875C238.328 13.6875 238.578 13.6562 238.758 13.5938C238.938 13.5312 239.027 13.3828 239.027 13.1484C239.027 12.9062 238.938 12.7539 238.758 12.6914C238.578 12.6289 238.328 12.5977 238.008 12.5977H235.266V13.6875H238.008ZM237.387 9.78516C237.629 9.78516 237.82 9.75391 237.961 9.69141C238.102 9.62891 238.172 9.5 238.172 9.30469C238.172 9.08594 238.102 8.94531 237.961 8.88281C237.82 8.82031 237.629 8.78906 237.387 8.78906H235.266V9.78516H237.387Z" fill="#090C9B"/>
<path d="M255.996 16.8516H252.199V11.7539L247.781 16.8516H244.594V5.63672H248.379V10.8281L252.797 5.63672H255.996V16.8516Z" fill="#090C9B"/>
<path d="M271.688 19.3594H267.891V16.8516H261.012V19.3594H257.227V13.5352H259.219C259.891 12.0508 260.227 10.3633 260.227 8.47266V5.63672H269.895V13.5352H271.688V19.3594ZM266.121 13.5352V8.75391H264.023C264.023 10.5273 263.734 12.1211 263.156 13.5352H266.121Z" fill="#090C9B"/>
<path d="M278.66 17.2266C278.098 17.2266 277.527 17.168 276.949 17.0508C276.379 16.9414 275.859 16.7695 275.391 16.5352C274.453 16.0586 273.711 15.3711 273.164 14.4727C272.617 13.5742 272.344 12.5117 272.344 11.2852C272.344 10.918 272.391 10.4805 272.484 9.97266C272.578 9.45703 272.695 9.02734 272.836 8.68359C273.164 7.91016 273.617 7.26953 274.195 6.76172C274.781 6.25391 275.441 5.875 276.176 5.625C276.91 5.375 277.68 5.25 278.484 5.25C279.617 5.25 280.648 5.48828 281.578 5.96484C282.508 6.43359 283.246 7.11719 283.793 8.01562C284.348 8.90625 284.625 10.0273 284.625 11.3789L284.602 11.918L276.457 12.7266C276.793 13.6484 277.496 14.1094 278.566 14.1094H278.648C279.734 14.1094 280.543 13.6562 281.074 12.75L284.637 14.1328C283.668 15.5078 282.551 16.4141 281.285 16.8516C280.902 16.9766 280.469 17.0703 279.984 17.1328C279.508 17.1953 279.066 17.2266 278.66 17.2266ZM276.246 9.70312L280.477 9.30469C280.148 8.67188 279.57 8.33984 278.742 8.30859H278.426C277.285 8.34766 276.559 8.8125 276.246 9.70312Z" fill="#090C9B"/>
<path d="M292.57 17.2266C291.422 17.2266 290.383 16.9922 289.453 16.5234C288.523 16.0547 287.785 15.375 287.238 14.4844C286.699 13.5859 286.43 12.5234 286.43 11.2969C286.43 9.36719 287.047 7.85547 288.281 6.76172C289.43 5.75391 290.855 5.25 292.559 5.25C293.699 5.25 294.734 5.48828 295.664 5.96484C296.594 6.43359 297.332 7.11719 297.879 8.01562C298.434 8.91406 298.711 9.99219 298.711 11.25C298.711 13.125 298.105 14.6094 296.895 15.7031C295.754 16.7188 294.312 17.2266 292.57 17.2266ZM292.734 13.875C293.414 13.8281 293.938 13.5625 294.305 13.0781C294.68 12.5859 294.867 11.9727 294.867 11.2383C294.867 10.5039 294.68 9.89453 294.305 9.41016C293.938 8.91797 293.41 8.64844 292.723 8.60156H292.418C291.73 8.64844 291.199 8.91797 290.824 9.41016C290.457 9.89453 290.273 10.5039 290.273 11.2383C290.273 11.9727 290.457 12.5859 290.824 13.0781C291.199 13.5625 291.73 13.8281 292.418 13.875H292.734Z" fill="#090C9B"/>
</svg>
