<svg width="255" height="255" viewBox="0 0 255 255" fill="none" xmlns="http://www.w3.org/2000/svg">
<rect width="254.172" height="254.172" rx="127.086" fill="#090C9B"/>
<path d="M72.6864 132.092L42.7682 167.746H67.6409L135.499 86.873H110.631L85.1201 117.274L59.6096 86.873H34.7422L72.6864 132.092Z" fill="#F5F1ED"/>
<path fill-rule="evenodd" clip-rule="evenodd" d="M193.13 167.744H144.516V86.9069H187.835L190.729 86.873C203.49 86.873 213.835 97.2182 213.835 109.98C213.835 114.381 212.605 118.495 210.469 121.996C216.038 126.764 219.612 133.845 219.612 141.751C219.612 156.108 207.974 167.746 193.617 167.746L193.13 167.744ZM161.846 104.203H187.84C199.394 104.203 199.394 118.645 187.84 118.645H161.846V104.203ZM161.846 133.086H193.617C205.17 133.086 205.17 150.416 193.617 150.416H161.846V133.086Z" fill="#F5F1ED"/>
</svg>
