<svg width="162" height="287" viewBox="0 0 162 287" fill="none" xmlns="http://www.w3.org/2000/svg">
<g clip-path="url(#clip0_291_22932)">
<rect x="161.352" y="7.05276e-06" width="287" height="161.348" transform="rotate(90 161.352 7.05276e-06)" fill="white"/>
<path d="M51.9776 122.756L52.5427 121.847L51.9776 122.756ZM91.044 128.521L91.0446 127.45L91.044 128.521ZM116.393 117.049L115.997 116.054C115.99 116.057 115.983 116.059 115.976 116.062L116.393 117.049ZM35.6457 108.535L34.6506 108.931C35.5973 111.312 37.8966 113.79 40.8076 116.223C43.7527 118.685 47.4627 121.212 51.4125 123.666L51.9776 122.756L52.5427 121.847C48.6295 119.415 45.0153 116.949 42.1812 114.58C39.3129 112.183 37.3777 109.993 36.6408 108.14L35.6457 108.535ZM51.9776 122.756L51.4125 123.666C62.8558 130.775 70.2029 129.579 91.0433 129.592L91.044 128.521L91.0446 127.45C69.9107 127.437 63.3399 128.554 52.5427 121.847L51.9776 122.756ZM91.044 128.521L91.0433 129.592C95.9804 129.595 100.503 127.453 104.699 124.995C108.989 122.482 112.843 119.712 116.81 118.035L116.393 117.049L115.976 116.062C111.844 117.81 107.659 120.779 103.617 123.147C99.4803 125.57 95.378 127.453 91.0446 127.45L91.044 128.521ZM116.393 117.049L116.789 118.044C118.974 117.174 121.567 115.879 123.573 114.548L122.981 113.656L122.389 112.764C120.529 113.997 118.072 115.227 115.997 116.054L116.393 117.049ZM122.981 113.656L123.573 114.548C125.603 113.202 126.931 111.87 128.234 110.568L127.477 109.811L126.719 109.053C125.42 110.353 124.223 111.547 122.389 112.764L122.981 113.656Z" fill="black"/>
<path d="M21.6634 117.865L22.143 118.822C22.1525 118.818 22.162 118.813 22.1713 118.808L21.6634 117.865ZM35.6484 112.361L35.4384 111.311C31.0874 112.181 26.7107 113.929 21.1554 116.922L21.6634 117.865L22.1713 118.808C27.623 115.87 31.7916 114.225 35.8585 113.411L35.6484 112.361ZM21.6634 117.865L21.1837 116.907C17.8083 118.598 13.1984 120.694 10.1958 121.982L10.6182 122.967L11.0405 123.951C14.0707 122.65 18.7204 120.537 22.143 118.822L21.6634 117.865ZM10.6182 122.967L10.1958 121.982C7.21087 123.263 5.84561 123.724 3.17075 125.499L3.76273 126.391L4.35471 127.283C6.83258 125.64 7.99266 125.259 11.0405 123.951L10.6182 122.967Z" fill="black"/>
<path d="M48.3984 105.984V104.913C48.1733 104.913 47.8422 104.911 47.4063 105.03C46.9898 105.143 46.5275 105.351 45.9495 105.696L46.498 106.616L47.0466 107.535C47.5272 107.249 47.8047 107.141 47.9684 107.097C48.1129 107.057 48.2027 107.055 48.3984 107.055V105.984ZM46.498 106.616L45.9495 105.696C45.3827 106.034 44.6626 106.532 43.9086 107.052C43.1395 107.582 42.3098 108.152 41.478 108.674L42.0468 109.581L42.6156 110.488C43.4928 109.939 44.3595 109.342 45.1241 108.815C45.9038 108.278 46.5548 107.829 47.0466 107.535L46.498 106.616ZM42.0468 109.581L41.478 108.674C39.8313 109.706 37.9604 110.649 36.0872 112.963L36.9196 113.637L37.7519 114.311C39.3479 112.339 40.8442 111.599 42.6156 110.488L42.0468 109.581Z" fill="black"/>
<path d="M59.8197 115.321L59.3966 116.305V116.305L59.8197 115.321ZM73.0748 116.483L73.0507 117.554L73.0748 116.483ZM95.3996 116.604L95.4429 117.674L95.3996 116.604ZM115.528 108.998L115.149 107.996C115.074 108.025 115.001 108.062 114.934 108.107L115.528 108.998ZM126.566 110.821L126.239 111.84C126.25 111.844 126.26 111.847 126.271 111.85L126.566 110.821ZM49.1278 106.684L48.1246 107.058C48.9457 109.256 51.9863 113.118 59.3966 116.305L59.8197 115.321L60.2428 114.337C53.1597 111.291 50.6796 107.778 50.1309 106.309L49.1278 106.684ZM59.8197 115.321L59.3966 116.305C61.2651 117.108 63.4729 117.375 65.7642 117.472C68.0041 117.567 70.6261 117.499 73.0507 117.554L73.0748 116.483L73.099 115.412C70.456 115.353 68.1337 115.428 65.8545 115.332C63.6267 115.238 61.7407 114.981 60.2428 114.337L59.8197 115.321ZM73.0748 116.483L73.0507 117.554C76.2691 117.626 84.1111 118.133 95.4429 117.674L95.3996 116.604L95.3563 115.534C84.1143 115.989 76.3973 115.487 73.099 115.412L73.0748 116.483ZM95.3996 116.604L95.4429 117.674C101.181 117.442 105.316 116.2 108.562 114.638C111.765 113.097 114.126 111.22 116.122 109.889L115.528 108.998L114.934 108.107C112.765 109.553 110.656 111.253 107.633 112.708C104.654 114.141 100.807 115.314 95.3563 115.534L95.3996 116.604ZM115.528 108.998L115.906 109.999C116.547 109.758 117.63 109.708 119.4 110.014C121.137 110.313 123.379 110.925 126.239 111.84L126.566 110.821L126.892 109.801C124.007 108.877 121.651 108.229 119.764 107.903C117.912 107.583 116.349 107.543 115.149 107.996L115.528 108.998ZM126.566 110.821L126.271 111.85C129.535 112.786 133.443 113.705 137.434 114.644L137.68 113.602L137.925 112.559C133.919 111.617 130.065 110.71 126.861 109.791L126.566 110.821Z" fill="black"/>
<path d="M69.9269 107.261L69.9388 108.332C69.9518 108.332 69.9649 108.332 69.9779 108.331L69.9269 107.261ZM102.48 107.95L102.349 109.012C102.375 109.016 102.402 109.018 102.428 109.019L102.48 107.95ZM51.8948 107.375L51.8948 108.446C52.8104 108.446 59.6774 108.446 69.9388 108.332L69.9269 107.261L69.915 106.19C59.6641 106.305 52.8055 106.305 51.8948 106.305L51.8948 107.375ZM69.9269 107.261L69.9779 108.331C82.0541 107.755 95.8679 108.213 102.349 109.012L102.48 107.95L102.611 106.887C95.9755 106.068 82.0339 105.612 69.8759 106.192L69.9269 107.261ZM102.48 107.95L102.428 109.019C104.881 109.138 108.107 109.138 111.391 109.138V108.067L111.391 106.996C108.088 106.996 104.922 106.996 102.532 106.88L102.48 107.95Z" fill="black"/>
<path d="M75.0618 112.556L74.044 112.889C74.2032 113.376 74.6842 113.682 75.1922 113.619L75.0618 112.556ZM85.9958 111.072L86.1198 112.136C86.1899 112.128 86.259 112.113 86.3262 112.091L85.9958 111.072ZM75.4146 108.762L74.6573 108.004C74.1929 108.469 73.9115 109.252 73.7953 110.02C73.6707 110.845 73.7036 111.85 74.044 112.889L75.0618 112.556L76.0795 112.223C75.8526 111.53 75.8337 110.866 75.9131 110.34C76.001 109.759 76.1797 109.511 76.1718 109.519L75.4146 108.762ZM75.0618 112.556L75.1922 113.619C76.5169 113.457 78.2865 113.198 80.1938 112.925C82.1092 112.651 84.1752 112.363 86.1198 112.136L85.9958 111.072L85.8719 110.009C83.8973 110.239 81.8073 110.531 79.8909 110.805C77.9664 111.08 76.2286 111.334 74.9313 111.493L75.0618 112.556ZM85.9958 111.072L86.3262 112.091C87.2366 111.796 87.8579 111.314 88.2686 110.683C88.6454 110.104 88.7963 109.461 88.9061 109.021L87.8672 108.762L86.8283 108.502C86.7029 109.004 86.622 109.287 86.4739 109.514C86.3597 109.69 86.163 109.892 85.6655 110.054L85.9958 111.072Z" fill="black"/>
<path d="M6.55783 214.619L6.10778 213.647C6.09238 213.654 6.07714 213.662 6.06209 213.67L6.55783 214.619ZM2.08181 216.684L2.08181 217.755C2.40057 217.755 2.72691 217.65 2.96995 217.561C3.24819 217.46 3.57859 217.315 3.95543 217.138C4.71062 216.784 5.73505 216.257 7.05357 215.568L6.55783 214.619L6.06209 213.67C4.73789 214.361 3.7526 214.867 3.04462 215.2C2.68986 215.367 2.42531 215.48 2.2344 215.55C2.00832 215.632 1.99134 215.613 2.08181 215.613L2.08181 216.684ZM6.55783 214.619L7.00787 215.591C7.3761 215.42 7.72451 215.269 8.03199 215.169C8.18394 215.119 8.30895 215.087 8.40777 215.071C8.45617 215.063 8.49303 215.059 8.51947 215.058C8.54614 215.056 8.55696 215.058 8.55483 215.058C8.55067 215.057 8.47155 215.046 8.37784 214.972C8.27625 214.892 8.23495 214.8 8.22393 214.763C8.2172 214.74 8.23391 214.78 8.22079 214.925C8.208 215.065 8.17013 215.269 8.08693 215.551L9.11407 215.854L10.1412 216.157C10.3484 215.455 10.4551 214.757 10.2785 214.157C10.1812 213.827 9.99538 213.52 9.70231 213.289C9.41712 213.065 9.09959 212.967 8.82152 212.933C8.30375 212.868 7.77166 213 7.36611 213.133C6.93302 213.275 6.49017 213.47 6.10778 213.647L6.55783 214.619ZM9.11407 215.854L8.08693 215.551C7.73832 216.733 6.74657 218.773 5.34402 221.365C3.95883 223.925 2.22868 226.924 0.4624 229.985L1.38999 230.52L2.31759 231.056C4.07955 228.001 5.82575 224.975 7.2277 222.384C8.61229 219.825 9.71846 217.59 10.1412 216.157L9.11407 215.854Z" fill="black"/>
<path d="M153.586 233.977L152.628 234.455C153.095 235.388 153.603 236.407 154.736 237.673L155.534 236.958L156.332 236.244C155.396 235.199 154.991 234.391 154.544 233.498L153.586 233.977ZM155.534 236.958L154.736 237.673C155.828 238.893 157.49 240.315 159.116 241.708L159.812 240.895L160.509 240.082C158.842 238.652 157.308 237.334 156.332 236.244L155.534 236.958Z" fill="black"/>
<path d="M27.6797 80.3966L28.7186 80.1369C28.0225 77.3523 27.3252 74.5755 23.652 64.5758L22.6468 64.945L21.6415 65.3143C25.2946 75.2594 25.9671 77.9618 26.6408 80.6564L27.6797 80.3966ZM22.6468 64.945L23.652 64.5758C19.9849 54.5925 13.36 37.4594 6.54053 19.8228L5.5417 20.209L4.54288 20.5952C11.3659 38.241 17.9823 55.3525 21.6415 65.3143L22.6468 64.945Z" fill="black"/>
<path d="M65.726 69.3272L66.7419 69.6658C66.8772 69.26 67.0172 68.8204 67.0669 67.8844C67.1139 66.9988 67.0817 65.6564 66.9114 63.4141L65.8436 63.4952L64.7758 63.5763C64.9444 65.7962 64.9676 67.0273 64.9281 67.7709C64.8913 68.4641 64.8031 68.7094 64.71 68.9885L65.726 69.3272ZM65.8436 63.4952L66.9114 63.4141C66.5702 58.9226 65.6521 50.6553 64.1421 43.3945L63.0936 43.6125L62.0452 43.8306C63.5307 50.9733 64.439 59.1434 64.7758 63.5763L65.8436 63.4952ZM63.0936 43.6125L64.1421 43.3945C62.6285 36.1169 60.5519 30.1211 58.4362 24.0091L57.4242 24.3594L56.4122 24.7097C58.5304 30.8289 60.5632 36.7046 62.0452 43.8306L63.0936 43.6125Z" fill="black"/>
<path d="M82.3335 58.9501L83.0907 59.7073C83.2035 59.5946 83.3609 59.4254 83.4979 59.1021C83.6064 58.8462 83.6946 58.5124 83.7841 58.058C83.9657 57.1369 84.199 55.4674 84.543 52.3285L83.4785 52.2118L82.4139 52.0952C82.0695 55.2379 81.8445 56.8234 81.6828 57.6438C81.6007 58.0603 81.546 58.219 81.5259 58.2664C81.5203 58.2797 81.5283 58.2579 81.5548 58.2216C81.5796 58.1875 81.6051 58.1639 81.5763 58.1928L82.3335 58.9501ZM83.4785 52.2118L84.543 52.3285C85.2326 46.0354 86.3751 33.6952 87.5507 20.9991L86.4844 20.9004L85.418 20.8017C84.2414 33.5089 83.101 45.8249 82.4139 52.0952L83.4785 52.2118Z" fill="black"/>
<path d="M116.925 66.5594L117.941 66.898C118.851 64.167 119.758 61.4479 121.702 56.5236L120.706 56.1303L119.71 55.737C117.745 60.7125 116.825 63.4726 115.909 66.2207L116.925 66.5594ZM120.706 56.1303L121.702 56.5236C123.651 51.5869 126.613 44.5243 128.591 40.095L127.614 39.6582L126.636 39.2215C124.643 43.682 121.669 50.7738 119.71 55.737L120.706 56.1303ZM127.614 39.6582L128.591 40.095C130.561 35.6867 131.457 34.1202 132.383 32.5001L131.453 31.9688L130.523 31.4374C129.567 33.1103 128.638 34.7401 126.636 39.2215L127.614 39.6582Z" fill="black"/>
<path d="M132.827 63.7934L133.805 64.2284C135.631 60.1203 137.46 56.0061 138.974 52.5139L137.991 52.088L137.009 51.662C135.499 55.1433 133.675 59.2478 131.848 63.3585L132.827 63.7934ZM137.991 52.088L138.974 52.5139C140.489 49.0195 141.633 46.2737 142.809 43.451L141.82 43.0391L140.832 42.6272C139.656 45.4497 138.517 48.183 137.009 51.662L137.991 52.088Z" fill="black"/>
<path d="M10.9424 130.76L11.1948 131.012C11.3075 130.9 11.4126 130.752 13.1258 130.065L12.993 129.733L12.8602 129.402C11.1549 130.086 10.9187 130.279 10.69 130.508L10.9424 130.76ZM12.993 129.733L13.1258 130.065C14.8153 129.387 18.0845 128.182 20.7773 127.055L20.6395 126.726L20.5017 126.397C17.8056 127.525 14.5892 128.709 12.8602 129.402L12.993 129.733ZM20.6395 126.726L20.7773 127.055C23.484 125.923 25.5416 124.894 27.6518 123.839L27.4922 123.52L27.3325 123.2C25.2226 124.255 23.1841 125.274 20.5017 126.397L20.6395 126.726Z" fill="black"/>
<path d="M136.625 134.896L136.512 135.235C136.989 135.394 137.474 135.55 139.169 136.649L139.364 136.35L139.558 136.05C137.824 134.926 137.285 134.74 136.738 134.558L136.625 134.896ZM139.364 136.35L139.169 136.649C140.868 137.751 143.794 139.815 146.928 141.478L147.096 141.162L147.263 140.847C144.165 139.204 141.288 137.172 139.558 136.05L139.364 136.35ZM147.096 141.162L146.928 141.478C150.072 143.145 153.338 144.347 157.204 145.58L157.312 145.24L157.421 144.9C153.57 143.672 150.351 142.484 147.263 140.847L147.096 141.162Z" fill="black"/>
<path d="M25.9453 140.068L25.9453 139.711C25.0842 139.711 24.2213 139.712 22.064 139.883L22.0923 140.239L22.1206 140.595C24.2559 140.425 25.0997 140.425 25.9453 140.425L25.9453 140.068ZM22.0923 140.239L22.064 139.883C19.9121 140.054 16.4746 140.397 13.0649 141.264L13.1528 141.61L13.2407 141.956C16.5906 141.105 19.9799 140.765 22.1206 140.595L22.0923 140.239ZM13.1528 141.61L13.0649 141.264C9.65476 142.13 6.38728 143.506 3.05082 144.911L3.18934 145.24L3.32786 145.569C6.67338 144.161 9.89135 142.806 13.2407 141.956L13.1528 141.61Z" fill="black"/>
<path d="M87.4609 245.307L87.1223 245.194C86.8513 246.007 86.5802 246.822 86.1728 248.986L86.5236 249.052L86.8744 249.118C87.275 246.991 87.5373 246.207 87.7996 245.42L87.4609 245.307ZM86.5236 249.052L86.1728 248.986C85.7653 251.15 85.2299 254.635 85.088 260.708L85.4449 260.716L85.8018 260.724C85.9427 254.692 86.4739 251.245 86.8744 249.118L86.5236 249.052ZM85.4449 260.716L85.088 260.708C84.9463 266.772 85.2135 275.316 85.4881 284.104L85.8449 284.092L86.2017 284.081C85.9268 275.286 85.6606 266.764 85.8018 260.724L85.4449 260.716Z" fill="black"/>
<path d="M25.2422 227.531L25.1293 227.193C24.7025 227.335 24.2602 227.486 23.4989 228.105C22.7556 228.709 21.7028 229.763 20.0269 231.702L20.297 231.935L20.5671 232.168C22.2365 230.237 23.2563 229.222 23.9493 228.659C24.6242 228.11 24.982 227.994 25.3551 227.87L25.2422 227.531ZM20.297 231.935L20.0269 231.702C16.6726 235.583 10.7998 243.058 3.94578 252.369L4.23326 252.58L4.52074 252.792C11.371 243.486 17.2309 236.028 20.5671 232.168L20.297 231.935Z" fill="black"/>
<path d="M134.328 242.076L134.054 242.305C135.383 243.9 136.711 245.494 139.526 249.376L139.815 249.167L140.104 248.957C137.278 245.058 135.939 243.452 134.602 241.848L134.328 242.076ZM139.815 249.167L139.526 249.376C142.343 253.263 146.607 259.393 151.004 265.713L151.297 265.509L151.59 265.305C147.195 258.988 142.926 252.851 140.104 248.957L139.815 249.167Z" fill="black"/>
<path d="M31.7109 172.584L31.7109 172.227C30.6244 172.227 29.5383 172.229 26.3033 172.765L26.3617 173.117L26.4201 173.469C29.6172 172.939 30.6643 172.941 31.7109 172.941L31.7109 172.584ZM26.3617 173.117L26.3033 172.765C23.0809 173.3 17.7319 174.369 14.0314 175.458L14.1321 175.8L14.2329 176.142C17.8936 175.066 23.2106 174.002 26.4201 173.469L26.3617 173.117ZM14.1321 175.8L14.0314 175.458C10.312 176.552 8.41773 177.634 6.48473 178.738L6.66183 179.048L6.83894 179.358C8.75218 178.265 10.591 177.214 14.2329 176.142L14.1321 175.8Z" fill="black"/>
<path d="M109.277 175.01L109.129 175.335C112.06 176.667 114.978 177.993 119.004 180.403L119.187 180.096L119.371 179.79C115.308 177.359 112.36 176.019 109.424 174.685L109.277 175.01ZM119.187 180.096L119.004 180.403C123.04 182.818 128.092 186.275 131.246 188.334L131.441 188.035L131.636 187.736C128.504 185.691 123.423 182.215 119.371 179.79L119.187 180.096ZM131.441 188.035L131.246 188.334C134.4 190.394 135.479 190.934 136.59 191.49L136.75 191.17L136.91 190.851C135.823 190.308 134.769 189.782 131.636 187.736L131.441 188.035Z" fill="black"/>
<path d="M139.268 114.792L139.649 113.791C139.603 113.774 139.556 113.759 139.508 113.748L139.268 114.792ZM157.389 120.349L157.697 119.324L157.696 119.323L157.389 120.349ZM128.097 112.705L127.946 113.765C129.055 113.923 133.503 114.56 139.027 115.835L139.268 114.792L139.508 113.748C133.898 112.453 129.381 111.806 128.248 111.645L128.097 112.705ZM139.268 114.792L138.886 115.793C144.018 117.748 151.467 119.692 157.081 121.375L157.389 120.349L157.696 119.323C151.949 117.601 144.685 115.71 139.649 113.791L139.268 114.792ZM157.389 120.349L157.081 121.375C157.961 121.64 158.666 121.812 160.353 121.982L160.461 120.917L160.569 119.851C159.009 119.694 158.439 119.547 157.697 119.324L157.389 120.349Z" fill="black"/>
<path d="M1.05622 128.163L1.81345 128.92C1.98793 128.746 2.18731 128.546 2.47249 128.167L1.61654 127.523L0.7606 126.88C0.562735 127.143 0.443311 127.262 0.298979 127.406L1.05622 128.163ZM1.61654 127.523L2.47249 128.167C2.76475 127.778 2.96169 127.486 3.25905 127.285L2.65991 126.398L2.06077 125.51C1.39205 125.962 0.951373 126.626 0.7606 126.88L1.61654 127.523ZM2.65991 126.398L3.25905 127.285C3.55479 127.086 3.98955 126.964 4.69723 126.787L4.4375 125.748L4.17777 124.709C3.57158 124.861 2.73111 125.058 2.06077 125.51L2.65991 126.398Z" fill="black"/>
<path d="M109.865 107.724L109.828 106.654C109.473 106.666 109.148 106.853 108.959 107.153L109.865 107.724ZM116.132 108.334L115.891 109.377C115.912 109.382 115.933 109.386 115.954 109.39L116.132 108.334ZM112.188 108.473L112.612 107.49C112.028 107.238 111.306 107.081 110.863 106.978C110.605 106.919 110.463 106.883 110.391 106.858C110.335 106.839 110.431 106.862 110.551 106.956C110.612 107.005 110.784 107.151 110.874 107.42C110.985 107.75 110.912 108.07 110.771 108.295L109.865 107.724L108.959 107.153C108.801 107.403 108.725 107.749 108.844 108.103C108.943 108.396 109.134 108.567 109.226 108.639C109.407 108.782 109.607 108.853 109.688 108.881C109.892 108.952 110.16 109.014 110.381 109.065C110.894 109.184 111.398 109.299 111.764 109.456L112.188 108.473ZM109.865 107.724L109.902 108.794C111.823 108.728 114.206 108.988 115.891 109.377L116.132 108.334L116.373 107.29C114.517 106.861 111.947 106.581 109.828 106.654L109.865 107.724ZM116.132 108.334L115.954 109.39C116.877 109.545 117.633 109.544 118.328 109.544L118.328 108.473L118.328 107.402C117.631 107.402 117.037 107.4 116.31 107.278L116.132 108.334Z" fill="black"/>
</g>
<rect x="160.852" y="0.500007" width="286" height="160.348" transform="rotate(90 160.852 0.500007)" stroke="black"/>
<defs>
<clipPath id="clip0_291_22932">
<rect x="161.352" y="7.05276e-06" width="287" height="161.348" transform="rotate(90 161.352 7.05276e-06)" fill="white"/>
</clipPath>
</defs>
</svg>
