<svg width="162" height="287" viewBox="0 0 162 287" fill="none" xmlns="http://www.w3.org/2000/svg">
<g clip-path="url(#clip0_291_24423)">
<rect x="161.734" width="287" height="161.348" transform="rotate(90 161.734 0)" fill="white"/>
<path d="M113.076 182.726L113.882 182.021L113.076 182.726ZM117.461 188.547L118.257 187.831L117.461 188.547ZM122.72 193.328L122.084 194.19V194.19L122.72 193.328ZM127.023 199.541L127.899 198.926C127.89 198.912 127.88 198.898 127.869 198.885L127.023 199.541ZM130.451 203.766L129.56 204.36V204.36L130.451 203.766ZM108.462 176.52L107.477 176.94C107.77 177.626 108.438 178.631 109.251 179.721C110.085 180.841 111.139 182.137 112.27 183.431L113.076 182.726L113.882 182.021C112.781 180.761 111.764 179.509 110.968 178.441C110.15 177.344 109.628 176.523 109.447 176.099L108.462 176.52ZM113.076 182.726L112.27 183.431C113.13 184.413 113.816 185.401 114.499 186.39C115.171 187.364 115.854 188.362 116.664 189.263L117.461 188.547L118.257 187.831C117.556 187.051 116.952 186.173 116.262 185.174C115.582 184.19 114.833 183.107 113.882 182.021L113.076 182.726ZM117.461 188.547L116.664 189.263C118.303 191.086 120.19 192.791 122.084 194.19L122.72 193.328L123.356 192.467C121.578 191.154 119.799 189.546 118.257 187.831L117.461 188.547ZM122.72 193.328L122.084 194.19C122.804 194.721 123.368 195.555 124.003 196.666C124.605 197.718 125.28 199.041 126.177 200.198L127.023 199.541L127.869 198.885C127.093 197.885 126.535 196.779 125.862 195.603C125.223 194.485 124.472 193.29 123.356 192.467L122.72 193.328ZM127.023 199.541L126.147 200.157C126.938 201.282 127.665 202.133 128.264 202.813C128.889 203.522 129.294 203.961 129.56 204.36L130.451 203.766L131.342 203.172C130.973 202.617 130.422 202.022 129.871 201.396C129.294 200.742 128.625 199.958 127.899 198.926L127.023 199.541ZM130.451 203.766L129.56 204.36C129.865 204.817 130.166 205.266 130.955 206.684L131.891 206.164L132.826 205.643C132.009 204.173 131.678 203.675 131.342 203.172L130.451 203.766Z" fill="black"/>
<path d="M120.404 173.086L119.699 173.893C119.705 173.898 119.711 173.903 119.717 173.908L120.404 173.086ZM116.586 168.869L115.569 169.206C115.808 169.927 116.439 170.714 117.111 171.436C117.823 172.202 118.73 173.045 119.699 173.893L120.404 173.086L121.108 172.28C120.163 171.454 119.318 170.665 118.679 169.977C118 169.248 117.679 168.763 117.602 168.532L116.586 168.869ZM120.404 173.086L119.717 173.908C120.248 174.352 120.768 174.698 121.244 175.015L121.838 174.124L122.432 173.233C121.947 172.909 121.52 172.624 121.091 172.265L120.404 173.086ZM121.838 174.124L121.244 175.015C121.704 175.321 122.145 175.614 123.073 176.386L123.758 175.563L124.443 174.74C123.439 173.905 122.934 173.567 122.432 173.233L121.838 174.124Z" fill="black"/>
<path d="M128.139 178.119L127.18 177.644L128.139 178.119ZM139.055 178.906L139.594 177.98L139.055 178.906ZM146.225 182.411L146.725 181.464L146.225 182.411ZM152.522 187.192L151.896 188.061V188.061L152.522 187.192ZM158.262 191.177L157.527 191.956C157.547 191.975 157.567 191.993 157.588 192.01L158.262 191.177ZM127.587 183.692L128.644 183.517C128.488 182.579 128.233 180.345 129.099 178.594L128.139 178.119L127.18 177.644C125.985 180.058 126.371 182.902 126.531 183.867L127.587 183.692ZM128.139 178.119L129.099 178.594C129.301 178.187 129.698 177.898 130.438 177.769C131.199 177.636 132.184 177.705 133.27 177.925C135.438 178.365 137.655 179.33 138.517 179.831L139.055 178.906L139.594 177.98C138.54 177.367 136.104 176.314 133.695 175.826C132.492 175.583 131.208 175.461 130.07 175.659C128.912 175.861 127.783 176.426 127.18 177.644L128.139 178.119ZM139.055 178.906L138.517 179.831C139.527 180.419 140.688 180.958 141.893 181.512C143.113 182.072 144.398 182.657 145.725 183.357L146.225 182.411L146.725 181.464C145.336 180.73 143.994 180.12 142.787 179.565C141.566 179.004 140.5 178.508 139.594 177.98L139.055 178.906ZM146.225 182.411L145.725 183.357C147.027 184.045 148.035 184.826 148.982 185.633C149.902 186.418 150.852 187.31 151.896 188.061L152.522 187.192L153.147 186.322C152.198 185.639 151.4 184.881 150.371 184.003C149.368 183.148 148.225 182.256 146.725 181.464L146.225 182.411ZM152.522 187.192L151.896 188.061C153.148 188.962 154.243 189.625 155.163 190.209C156.094 190.801 156.846 191.314 157.527 191.956L158.262 191.177L158.996 190.398C158.159 189.608 157.261 189.005 156.312 188.402C155.351 187.791 154.334 187.177 153.147 186.322L152.522 187.192ZM158.262 191.177L157.588 192.01C157.874 192.241 158.175 192.403 158.384 192.517C158.617 192.645 158.753 192.722 158.871 192.815L159.536 191.975L160.201 191.136C159.916 190.911 159.616 190.75 159.412 190.639C159.183 190.514 159.049 190.436 158.935 190.344L158.262 191.177ZM159.536 191.975L158.871 192.815C159.114 193.008 159.337 193.324 159.687 193.849L160.578 193.254L161.469 192.66C161.169 192.21 160.76 191.579 160.201 191.136L159.536 191.975Z" fill="black"/>
<path d="M130.449 189.9L129.568 190.509V190.509L130.449 189.9ZM134.831 196.036L134.005 196.719V196.719L134.831 196.036ZM140.965 201.456L141.63 200.617L140.965 201.456ZM146.703 205.998L146.017 206.821V206.821L146.703 205.998ZM152.519 209.584L151.917 210.47L152.519 209.584ZM158.261 214.284L159.182 213.737L158.261 214.284ZM158.508 217.074L157.668 216.409L158.508 217.074ZM147.195 217.084L147.545 216.071L147.195 217.084ZM139.227 212.864L138.647 213.764L139.227 212.864ZM132.772 210.23L132.602 211.287L132.772 210.23ZM128.711 203.545L129.547 202.877C129.525 202.849 129.501 202.822 129.476 202.797L128.711 203.545ZM123.047 197.406L122.047 197.788C122.073 197.858 122.107 197.924 122.147 197.987L123.047 197.406ZM128.063 183.213L126.992 183.213C126.992 184.096 127.27 185.377 127.701 186.654C128.139 187.95 128.775 189.364 129.568 190.509L130.449 189.9L131.329 189.29C130.683 188.358 130.126 187.141 129.731 185.969C129.328 184.778 129.134 183.754 129.134 183.213L128.063 183.213ZM130.449 189.9L129.568 190.509C130.922 192.463 132.449 194.836 134.005 196.719L134.831 196.036L135.656 195.354C134.177 193.565 132.748 191.338 131.329 189.29L130.449 189.9ZM134.831 196.036L134.005 196.719C135.755 198.835 138.442 200.822 140.3 202.295L140.965 201.456L141.63 200.617C139.658 199.054 137.221 197.247 135.656 195.354L134.831 196.036ZM140.965 201.456L140.3 202.295C142.326 203.901 144.113 205.236 146.017 206.821L146.703 205.998L147.388 205.175C145.462 203.572 143.592 202.172 141.63 200.617L140.965 201.456ZM146.703 205.998L146.017 206.821C146.925 207.577 147.959 208.176 148.96 208.733C149.984 209.302 150.971 209.826 151.917 210.47L152.519 209.584L153.121 208.699C152.074 207.986 150.975 207.403 150.001 206.861C149.003 206.306 148.126 205.79 147.388 205.175L146.703 205.998ZM152.519 209.584L151.917 210.47C153.2 211.342 154.311 212.036 155.284 212.764C156.243 213.482 156.928 214.136 157.341 214.832L158.261 214.284L159.182 213.737C158.553 212.68 157.601 211.823 156.567 211.049C155.546 210.285 154.308 209.505 153.121 208.699L152.519 209.584ZM158.261 214.284L157.341 214.832C157.632 215.321 157.8 215.648 157.845 215.902L158.9 215.719L159.955 215.535C159.832 214.829 159.439 214.17 159.182 213.737L158.261 214.284ZM158.9 215.719L157.845 215.902C157.865 216.019 157.841 216.191 157.668 216.409L158.508 217.074L159.347 217.739C159.81 217.154 160.102 216.38 159.955 215.535L158.9 215.719ZM158.508 217.074L157.668 216.409C157.319 216.85 156.736 217.166 155.879 217.328C155.022 217.491 153.993 217.48 152.906 217.354C150.735 217.103 148.558 216.421 147.545 216.071L147.195 217.084L146.846 218.096C147.91 218.463 150.259 219.204 152.66 219.482C153.859 219.621 155.127 219.651 156.279 219.433C157.43 219.214 158.566 218.725 159.347 217.739L158.508 217.074ZM147.195 217.084L147.545 216.071C145.411 215.335 142.515 213.708 139.807 211.964L139.227 212.864L138.647 213.764C141.38 215.525 144.456 217.271 146.846 218.096L147.195 217.084ZM139.227 212.864L139.807 211.964C137.734 210.628 135.607 209.603 132.943 209.172L132.772 210.23L132.602 211.287C134.881 211.655 136.728 212.528 138.647 213.764L139.227 212.864ZM132.772 210.23L132.943 209.172C132.911 209.167 132.802 209.149 132.601 208.855C132.388 208.543 132.182 208.083 131.918 207.428C131.42 206.192 130.782 204.421 129.547 202.877L128.711 203.545L127.874 204.214C128.87 205.46 129.392 206.891 129.932 208.229C130.187 208.861 130.469 209.531 130.832 210.063C131.208 210.613 131.763 211.151 132.602 211.287L132.772 210.23ZM128.711 203.545L129.476 202.797C127.714 200.994 126.489 199.749 125.612 198.813C124.73 197.871 124.249 197.294 123.947 196.826L123.047 197.406L122.147 197.987C122.562 198.63 123.157 199.326 124.049 200.278C124.947 201.235 126.195 202.504 127.945 204.294L128.711 203.545ZM123.047 197.406L124.048 197.024C123.991 196.877 123.954 196.717 124.007 196.421C124.068 196.082 124.248 195.557 124.702 194.719L123.76 194.21L122.817 193.701C122.314 194.631 122.017 195.386 121.899 196.044C121.774 196.743 121.859 197.297 122.047 197.788L123.047 197.406Z" fill="black"/>
<path d="M136.505 188.801L135.612 188.209C135.551 188.302 135.505 188.403 135.474 188.509L136.505 188.801ZM140.004 184.737L139.298 183.932C139.289 183.94 139.281 183.948 139.272 183.956L140.004 184.737ZM136.189 190.865L137.26 190.865C137.26 190.614 137.254 190.082 137.535 189.094L136.505 188.801L135.474 188.509C135.124 189.744 135.118 190.484 135.118 190.865L136.189 190.865ZM136.505 188.801L137.397 189.393C138.288 188.05 139.511 186.669 140.737 185.518L140.004 184.737L139.272 183.956C137.954 185.192 136.615 186.698 135.612 188.209L136.505 188.801ZM140.004 184.737L140.711 185.542C141.287 185.037 141.861 184.6 143.435 183.654L142.883 182.736L142.331 181.819C140.692 182.804 140.003 183.314 139.298 183.932L140.004 184.737Z" fill="black"/>
<path d="M134.203 188.003L134.93 187.216C134.911 187.199 134.892 187.183 134.873 187.167L134.203 188.003ZM130.935 185.452L130.18 186.211C130.202 186.234 130.226 186.255 130.25 186.275L130.935 185.452ZM136.187 189.43L136.187 188.359C136.35 188.359 136.427 188.412 136.363 188.381C136.318 188.359 136.231 188.307 136.093 188.207C135.818 188.008 135.438 187.685 134.93 187.216L134.203 188.003L133.477 188.79C134.002 189.275 134.456 189.666 134.836 189.941C135.025 190.079 135.221 190.205 135.416 190.302C135.593 190.389 135.867 190.501 136.187 190.501L136.187 189.43ZM134.203 188.003L134.873 187.167C134.266 186.681 133.676 186.233 133.13 185.816C132.58 185.396 132.078 185.01 131.62 184.629L130.935 185.452L130.25 186.275C130.747 186.688 131.283 187.1 131.83 187.519C132.383 187.941 132.95 188.371 133.534 188.839L134.203 188.003ZM130.935 185.452L131.691 184.693C131.487 184.49 131.278 184.248 130.91 183.82C130.55 183.4 130.064 182.833 129.334 182.02L128.537 182.736L127.741 183.452C128.454 184.246 128.927 184.798 129.285 185.215C129.635 185.623 129.903 185.936 130.18 186.211L130.935 185.452Z" fill="black"/>
<path d="M129.418 231.575L130.446 231.275L129.418 231.575ZM139.054 240.504L138.44 241.382C138.468 241.401 138.497 241.419 138.526 241.436L139.054 240.504ZM143.838 243.851L143.114 244.64C143.126 244.651 143.139 244.662 143.151 244.673L143.838 243.851ZM129.023 229.115L127.952 229.115C127.952 229.499 127.959 230.4 128.39 231.875L129.418 231.575L130.446 231.275C130.088 230.049 130.094 229.362 130.094 229.115L129.023 229.115ZM129.418 231.575L128.39 231.875C129.198 234.642 131.235 236.632 133.24 238.1C134.25 238.84 135.284 239.469 136.194 240.008C137.13 240.562 137.886 240.994 138.44 241.382L139.054 240.504L139.669 239.627C139.027 239.178 138.159 238.683 137.285 238.166C136.387 237.634 135.427 237.047 134.505 236.372C132.644 235.01 131.058 233.372 130.446 231.275L129.418 231.575ZM139.054 240.504L138.526 241.436C140.86 242.759 142.227 243.826 143.114 244.64L143.838 243.851L144.562 243.062C143.542 242.126 142.04 240.966 139.583 239.573L139.054 240.504ZM143.838 243.851L143.151 244.673C143.727 245.154 144.317 245.538 145.416 245.908L145.758 244.894L146.099 243.879C145.267 243.598 144.91 243.351 144.525 243.03L143.838 243.851Z" fill="black"/>
<path d="M142.411 194.21L143.482 194.21C143.482 194.187 143.482 194.188 143.482 194.192C143.482 194.199 143.481 194.218 143.477 194.245C143.473 194.273 143.466 194.305 143.455 194.339C143.445 194.373 143.432 194.404 143.419 194.431C143.392 194.485 143.369 194.508 143.375 194.502C143.382 194.494 143.411 194.464 143.477 194.41L142.805 193.577L142.133 192.743C141.883 192.944 141.65 193.178 141.502 193.476C141.333 193.815 141.34 194.113 141.34 194.21L142.411 194.21ZM142.805 193.577L143.477 194.41C143.633 194.285 143.877 194.122 144.223 193.884C144.539 193.666 144.919 193.4 145.247 193.12L144.553 192.305L143.859 191.49C143.623 191.69 143.326 191.901 143.008 192.119C142.72 192.318 142.372 192.551 142.133 192.743L142.805 193.577ZM144.553 192.305L145.247 193.12C145.936 192.534 146.322 191.948 146.649 191.457L145.758 190.863L144.867 190.269C144.543 190.754 144.298 191.115 143.859 191.49L144.553 192.305Z" fill="black"/>
<path d="M144.8 195.166L145.871 195.166C145.871 195.155 145.871 195.149 145.871 195.144C145.871 195.14 145.871 195.138 145.871 195.139C145.871 195.14 145.871 195.15 145.869 195.165C145.867 195.181 145.864 195.199 145.86 195.217C145.855 195.236 145.851 195.252 145.846 195.264C145.837 195.288 145.833 195.29 145.848 195.266C145.864 195.24 145.895 195.193 145.954 195.12L145.116 194.453L144.277 193.787C144.083 194.031 143.927 194.273 143.833 194.534C143.726 194.828 143.729 195.065 143.729 195.166L144.8 195.166ZM145.116 194.453L145.954 195.12C146.213 194.793 146.774 194.232 147.249 193.891L146.624 193.021L145.999 192.152C145.35 192.618 144.649 193.32 144.277 193.787L145.116 194.453ZM146.624 193.021L147.249 193.891C147.623 193.622 147.914 193.503 148.803 193.353L148.625 192.297L148.447 191.241C147.405 191.416 146.749 191.612 145.999 192.152L146.624 193.021Z" fill="black"/>
<path d="M151.391 195.893L151.857 196.858C151.885 196.844 151.913 196.829 151.94 196.813L151.391 195.893ZM146.708 197.557L146.708 198.628C147.212 198.628 147.909 198.457 148.707 198.185C149.542 197.901 150.596 197.467 151.857 196.858L151.391 195.893L150.925 194.929C149.721 195.51 148.749 195.908 148.016 196.158C147.247 196.42 146.835 196.486 146.708 196.486L146.708 197.557ZM151.391 195.893L151.94 196.813C153.218 196.051 154.474 195.001 155.167 193.928L154.267 193.347L153.367 192.767C152.921 193.457 151.969 194.301 150.842 194.973L151.391 195.893ZM154.267 193.347L155.167 193.928C155.922 192.757 155.907 191.679 155.907 190.863L154.836 190.863L153.765 190.863C153.765 191.673 153.75 192.173 153.367 192.767L154.267 193.347Z" fill="black"/>
<path d="M102.238 179.393L102.881 180.249V180.249L102.238 179.393ZM108.133 175.886L108.517 176.886L108.133 175.886ZM114.191 171.186L114.81 172.06H114.81L114.191 171.186ZM120.33 165.052L121.194 165.685C121.23 165.636 121.261 165.584 121.288 165.53L120.33 165.052ZM122.723 159.716L123.778 159.902C123.782 159.88 123.785 159.858 123.788 159.836L122.723 159.716ZM97.9419 183.692L98.7643 184.378C99.5637 183.419 101.079 181.604 102.881 180.249L102.238 179.393L101.595 178.537C99.5672 180.061 97.9075 182.061 97.1196 183.006L97.9419 183.692ZM102.238 179.393L102.881 180.249C104.773 178.828 106.587 177.627 108.517 176.886L108.133 175.886L107.749 174.887C105.534 175.737 103.528 177.084 101.595 178.537L102.238 179.393ZM108.133 175.886L108.517 176.886C110.151 176.259 111.306 175.316 112.266 174.405C113.274 173.449 113.935 172.679 114.81 172.06L114.191 171.186L113.572 170.312C112.532 171.048 111.611 172.074 110.792 172.851C109.925 173.673 109.008 174.403 107.749 174.887L108.133 175.886ZM114.191 171.186L114.81 172.06C117.178 170.384 119.615 167.838 121.194 165.685L120.33 165.052L119.467 164.419C118 166.42 115.721 168.791 113.572 170.312L114.191 171.186ZM120.33 165.052L121.288 165.53C121.774 164.557 122.356 163.473 122.789 162.58C123.23 161.67 123.63 160.737 123.778 159.902L122.723 159.716L121.669 159.529C121.578 160.045 121.299 160.744 120.862 161.646C120.417 162.565 119.921 163.474 119.372 164.573L120.33 165.052ZM122.723 159.716L123.788 159.836C123.877 159.045 123.876 158.193 123.876 157.395L122.805 157.395L121.734 157.395C121.734 158.222 121.733 158.947 121.659 159.596L122.723 159.716Z" fill="black"/>
<path d="M97.1474 179.397L96.0913 179.574L97.1474 179.397ZM103.117 173.975L103.543 174.958L103.117 173.975ZM110.368 167.523L111.113 168.292V168.292L110.368 167.523ZM116.265 160.752L115.459 160.047C115.435 160.075 115.412 160.104 115.391 160.134L116.265 160.752ZM121.441 156.521L121.321 155.457C121.299 155.459 121.277 155.463 121.255 155.466L121.441 156.521ZM98.8997 182.259L99.4483 181.339C99.2768 181.237 98.9902 180.939 98.7068 180.461C98.4336 180.001 98.2556 179.53 98.2035 179.22L97.1474 179.397L96.0913 179.574C96.1994 180.218 96.5007 180.941 96.8652 181.555C97.2195 182.152 97.729 182.807 98.3512 183.178L98.8997 182.259ZM97.1474 179.397L98.2035 179.22C98.15 178.901 98.2298 178.557 98.5137 178.147C98.8077 177.722 99.2824 177.288 99.8898 176.863C101.106 176.012 102.61 175.362 103.543 174.958L103.117 173.975L102.691 172.993C101.788 173.384 100.084 174.113 98.6618 175.108C97.9503 175.606 97.249 176.211 96.7526 176.928C96.2461 177.66 95.921 178.561 96.0913 179.574L97.1474 179.397ZM103.117 173.975L103.543 174.958C104.701 174.455 106.001 173.328 107.239 172.144C107.877 171.533 108.534 170.872 109.183 170.217C109.836 169.557 110.481 168.904 111.113 168.292L110.368 167.523L109.622 166.754C108.972 167.385 108.309 168.055 107.661 168.709C107.01 169.367 106.373 170.008 105.759 170.596C104.492 171.808 103.448 172.664 102.691 172.993L103.117 173.975ZM110.368 167.523L111.113 168.292C112.805 166.652 115.165 164.161 117.14 161.371L116.265 160.752L115.391 160.134C113.522 162.775 111.263 165.163 109.622 166.754L110.368 167.523ZM116.265 160.752L117.072 161.457C118.178 160.192 119.091 159.244 119.872 158.59C120.667 157.924 121.228 157.646 121.628 157.576L121.441 156.521L121.255 155.466C120.304 155.635 119.394 156.196 118.496 156.948C117.586 157.711 116.586 158.759 115.459 160.047L116.265 160.752ZM121.441 156.521L121.561 157.585C122.118 157.522 122.768 157.5 124.439 157.952L124.719 156.918L124.998 155.884C123.131 155.379 122.204 155.357 121.321 155.457L121.441 156.521Z" fill="black"/>
<path d="M94.1243 179.784L94.6922 180.692L94.1243 179.784ZM90.065 180.109L89.9148 181.17L90.065 180.109ZM84.1673 174.699L84.9516 173.97V173.97L84.1673 174.699ZM75.8741 166.569L76.7403 165.939V165.939L75.8741 166.569ZM66.5625 157.494L65.7993 158.245V158.245L66.5625 157.494ZM57.4685 147.443L58.2662 146.729L57.4685 147.443ZM51.7333 140.831L50.9499 141.561V141.561L51.7333 140.831ZM43.2848 134.214L42.6713 135.091L43.2848 134.214ZM36.1917 127.68L35.4345 128.437L36.1917 127.68ZM27.6643 119.71L28.4103 118.941C28.378 118.91 28.3438 118.881 28.3078 118.854L27.6643 119.71ZM25.3501 117.24L24.3932 117.721C24.4033 117.741 24.414 117.761 24.4254 117.78L25.3501 117.24ZM98.8984 176.999L98.5613 175.983C97.9516 176.185 97.135 176.649 96.3169 177.145C95.4755 177.656 94.4926 178.291 93.5564 178.876L94.1243 179.784L94.6922 180.692C95.6709 180.08 96.5993 179.48 97.4284 178.976C98.2808 178.459 98.8938 178.129 99.2355 178.016L98.8984 176.999ZM94.1243 179.784L93.5564 178.876C93.3345 179.015 92.9417 179.135 92.3276 179.172C91.7288 179.209 91.0107 179.162 90.2152 179.049L90.065 180.109L89.9148 181.17C90.7903 181.294 91.6635 181.358 92.4575 181.31C93.2361 181.263 94.0374 181.102 94.6922 180.692L94.1243 179.784ZM90.065 180.109L90.2152 179.049C89.293 178.918 88.5714 178.379 87.7524 177.431C87.3391 176.953 86.9399 176.419 86.4773 175.815C86.0249 175.225 85.5251 174.587 84.9516 173.97L84.1673 174.699L83.3829 175.428C83.8828 175.966 84.3307 176.535 84.7775 177.118C85.2141 177.688 85.6658 178.293 86.1322 178.832C87.0728 179.92 88.2267 180.931 89.9148 181.17L90.065 180.109ZM84.1673 174.699L84.9516 173.97C82.9914 171.861 81.3031 170.376 79.9207 169.15C78.5197 167.907 77.5 166.984 76.7403 165.939L75.8741 166.569L75.0079 167.198C75.9288 168.465 77.1343 169.541 78.4992 170.752C79.8825 171.979 81.5005 173.403 83.3829 175.428L84.1673 174.699ZM75.8741 166.569L76.7403 165.939C75.8996 164.783 74.7167 163.693 73.2175 162.332C71.6961 160.952 69.7712 159.227 67.3257 156.743L66.5625 157.494L65.7993 158.245C68.2929 160.778 70.2604 162.541 71.7783 163.918C73.3184 165.316 74.3218 166.255 75.0079 167.198L75.8741 166.569ZM66.5625 157.494L67.3257 156.743C63.9813 153.345 60.368 149.076 58.2662 146.729L57.4685 147.443L56.6707 148.158C58.7096 150.434 62.4085 154.8 65.7993 158.245L66.5625 157.494ZM57.4685 147.443L58.2662 146.729C57.4272 145.792 56.5664 144.756 55.6162 143.63C54.6718 142.511 53.6506 141.317 52.5167 140.101L51.7333 140.831L50.9499 141.561C52.0466 142.738 53.0402 143.898 53.9794 145.011C54.9128 146.117 55.8043 147.19 56.6707 148.158L57.4685 147.443ZM51.7333 140.831L52.5167 140.101C49.1033 136.439 46.1978 134.943 43.8982 133.336L43.2848 134.214L42.6713 135.091C45.1674 136.836 47.7411 138.118 50.9499 141.561L51.7333 140.831ZM43.2848 134.214L43.8982 133.336C40.9903 131.303 39.1708 129.145 36.949 126.923L36.1917 127.68L35.4345 128.437C37.5253 130.528 39.5594 132.916 42.6713 135.091L43.2848 134.214ZM36.1917 127.68L36.949 126.923C35.8104 125.784 34.3417 124.437 32.8348 123.059C31.3193 121.673 29.7601 120.252 28.4103 118.941L27.6643 119.71L26.9182 120.478C28.2962 121.816 29.8824 123.262 31.3895 124.64C32.9053 126.026 34.3363 127.339 35.4345 128.437L36.1917 127.68ZM27.6643 119.71L28.3078 118.854C27.4242 118.189 26.7369 117.491 26.2749 116.7L25.3501 117.24L24.4254 117.78C25.0773 118.897 25.9966 119.796 27.0207 120.565L27.6643 119.71ZM25.3501 117.24L26.307 116.759C26.1061 116.359 25.8907 115.766 25.2026 114.728L24.3102 115.32L23.4178 115.912C24.0111 116.807 24.1112 117.16 24.3932 117.721L25.3501 117.24Z" fill="black"/>
<path d="M31.9497 104.33L31.1016 103.676V103.676L31.9497 104.33ZM40.862 96.4457L41.5191 97.2912V97.2912L40.862 96.4457ZM48.6818 91.3392L49.3005 92.2133C49.3164 92.2021 49.3319 92.1905 49.3471 92.1784L48.6818 91.3392ZM53.3842 87.0361L52.6292 86.2766L52.6252 86.2806L53.3842 87.0361ZM24.3044 115.32L25.3208 115.657C25.4333 115.318 25.7627 114.704 26.2866 113.858C26.7921 113.041 27.4183 112.101 28.0594 111.14L27.1684 110.546L26.2773 109.952C25.6419 110.905 24.9938 111.877 24.4654 112.73C23.9553 113.554 23.491 114.37 23.2879 114.983L24.3044 115.32ZM27.1684 110.546L28.0594 111.14C29.3107 109.263 31.1411 107.133 32.7978 104.984L31.9497 104.33L31.1016 103.676C29.5548 105.682 27.5792 107.999 26.2773 109.952L27.1684 110.546ZM31.9497 104.33L32.7978 104.984C34.0843 103.315 36.8718 100.903 41.5191 97.2912L40.862 96.4457L40.2049 95.6001C35.6052 99.1747 32.585 101.752 31.1016 103.676L31.9497 104.33ZM40.862 96.4457L41.5191 97.2912C43.1566 96.0187 44.5938 95.1052 45.869 94.3369C47.1204 93.5829 48.3001 92.9215 49.3005 92.2133L48.6818 91.3392L48.0631 90.4652C47.1486 91.1125 46.1018 91.6961 44.7636 92.5024C43.4493 93.2943 41.934 94.2563 40.2049 95.6001L40.862 96.4457ZM48.6818 91.3392L49.3471 92.1784C51.3142 90.619 52.6277 89.3142 54.1433 87.7915L53.3842 87.0361L52.6252 86.2806C51.119 87.794 49.8793 89.0233 48.0166 90.5L48.6818 91.3392ZM53.3842 87.0361L54.1392 87.7956C54.4239 87.5126 54.4908 87.409 54.7187 87.2284C54.9082 87.0782 55.2076 86.8883 55.7637 86.6766L55.3828 85.6758L55.0019 84.6749C54.2767 84.9509 53.7775 85.2415 53.3885 85.5497C53.0379 85.8276 52.7462 86.1603 52.6293 86.2766L53.3842 87.0361Z" fill="black"/>
<path d="M59.7672 90.8491L58.9476 91.5384L59.7672 90.8491ZM70.5897 100.876L69.8459 101.646L70.5897 100.876ZM79.5236 109.728L80.3381 109.033V109.033L79.5236 109.728ZM87.5777 118.738L86.7418 119.408V119.408L87.5777 118.738ZM93.0762 124.875L92.3032 125.616L93.0762 124.875ZM100.246 132.444L101.003 131.687L100.246 132.444ZM106.38 139.057L107.16 138.323L106.38 139.057ZM112.756 144.875L112.012 145.645C112.031 145.664 112.05 145.681 112.07 145.698L112.756 144.875ZM118.577 150.137L117.784 150.857C117.795 150.869 117.806 150.881 117.818 150.892L118.577 150.137ZM55.39 85.6758L54.5676 86.3618C55.3579 87.3091 57.2828 89.5586 58.9476 91.5384L59.7672 90.8491L60.5869 90.1599C58.8904 88.1425 57.0094 85.9454 56.2123 84.9898L55.39 85.6758ZM59.7672 90.8491L58.9476 91.5384C60.1328 92.9478 61.7292 94.375 63.5575 95.9728C65.4039 97.5864 67.5243 99.4048 69.8459 101.646L70.5897 100.876L71.3335 100.105C68.9647 97.8184 66.7973 95.9596 64.9669 94.36C63.1183 92.7446 61.6487 91.4226 60.5869 90.1599L59.7672 90.8491ZM70.5897 100.876L69.8459 101.646C74.2936 105.94 76.442 107.767 78.709 110.423L79.5236 109.728L80.3381 109.033C77.9816 106.272 75.6781 104.299 71.3335 100.105L70.5897 100.876ZM79.5236 109.728L78.709 110.423C81.0132 113.123 82.6386 114.889 83.8864 116.229C85.1428 117.577 85.975 118.451 86.7418 119.408L87.5777 118.738L88.4135 118.069C87.5834 117.033 86.6795 116.085 85.4535 114.769C84.2191 113.444 82.6159 111.702 80.3381 109.033L79.5236 109.728ZM87.5777 118.738L86.7418 119.408C88.7179 121.875 90.4671 123.701 92.3032 125.616L93.0762 124.875L93.8492 124.134C92.0132 122.219 90.3237 120.454 88.4135 118.069L87.5777 118.738ZM93.0762 124.875L92.3032 125.616C94.2538 127.651 97.0127 130.726 99.4885 133.201L100.246 132.444L101.003 131.687C98.5301 129.214 95.8931 126.266 93.8492 124.134L93.0762 124.875ZM100.246 132.444L99.4885 133.201C101.48 135.192 102.994 137.017 105.6 139.79L106.38 139.057L107.16 138.323C104.675 135.679 103.004 133.688 101.003 131.687L100.246 132.444ZM106.38 139.057L105.6 139.79C106.61 140.865 107.644 141.773 108.699 142.683C109.76 143.598 110.843 144.515 112.012 145.645L112.756 144.875L113.5 144.106C112.278 142.924 111.142 141.962 110.097 141.061C109.046 140.155 108.087 139.309 107.16 138.323L106.38 139.057ZM112.756 144.875L112.07 145.698C114.482 147.708 116.326 149.25 117.784 150.857L118.577 150.137L119.37 149.418C117.792 147.678 115.82 146.035 113.442 144.053L112.756 144.875ZM118.577 150.137L117.818 150.892C118.306 151.383 118.872 151.756 119.343 152.071L119.937 151.18L120.532 150.289C120.027 149.953 119.647 149.695 119.337 149.382L118.577 150.137Z" fill="black"/>
<path d="M119.859 153.085L118.791 152.997L119.859 153.085ZM115.082 158.823L115.921 159.488L115.082 158.823ZM108.154 166.31L108.934 167.044V167.044L108.154 166.31ZM99.8632 174.044L100.563 174.855L100.568 174.85L99.8632 174.044ZM94.6038 178.428L94.0098 177.537V177.537L94.6038 178.428ZM119.937 151.18L118.867 151.18C118.867 151.482 118.867 152.085 118.791 152.997L119.859 153.085L120.926 153.173C121.008 152.177 121.008 151.508 121.008 151.18L119.937 151.18ZM119.859 153.085L118.791 152.997C118.739 153.629 118.233 154.332 117.238 155.269C116.749 155.729 116.27 156.134 115.724 156.63C115.209 157.097 114.679 157.608 114.243 158.157L115.082 158.823L115.921 159.488C116.244 159.08 116.668 158.665 117.163 158.216C117.627 157.795 118.214 157.292 118.706 156.828C119.675 155.916 120.799 154.708 120.926 153.173L119.859 153.085ZM115.082 158.823L114.243 158.157C112.355 160.538 109.976 162.808 107.374 165.577L108.154 166.31L108.934 167.044C111.424 164.395 113.96 161.961 115.921 159.488L115.082 158.823ZM108.154 166.31L107.374 165.577C104.641 168.484 101.086 171.553 99.1585 173.237L99.8632 174.044L100.568 174.85C102.47 173.188 106.114 170.044 108.934 167.044L108.154 166.31ZM99.8632 174.044L99.1638 173.233C97.3266 174.818 95.8514 176.31 94.0098 177.537L94.6038 178.428L95.1978 179.319C97.186 177.994 98.8856 176.301 100.563 174.855L99.8632 174.044ZM94.6038 178.428L94.0098 177.537C93.5522 177.842 93.1033 178.143 91.6854 178.932L92.206 179.867L92.7266 180.803C94.1965 179.986 94.6943 179.655 95.1978 179.319L94.6038 178.428Z" fill="black"/>
<path d="M77.9495 160.178L77.9428 159.107L77.9495 160.178ZM86.9224 159.204L86.6795 158.161L86.9224 159.204ZM94.6787 157.438L94.9337 158.478L94.6787 157.438ZM101.76 155.833L101.5 154.794L101.76 155.833ZM107.333 154.385L107.635 155.413L107.333 154.385ZM115.35 153.057L115.317 151.987C115.29 151.988 115.264 151.989 115.238 151.992L115.35 153.057ZM117.809 152.868L117.688 151.804C117.666 151.806 117.644 151.81 117.622 151.814L117.809 152.868ZM69.5702 160.209L69.5702 161.28C69.6966 161.28 72.9451 161.28 77.9562 161.249L77.9495 160.178L77.9428 159.107C72.9374 159.138 69.6935 159.138 69.5702 159.138L69.5702 160.209ZM77.9495 160.178L77.9562 161.249C81.3022 161.228 84.6437 160.834 87.1654 160.247L86.9224 159.204L86.6795 158.161C84.3309 158.708 81.1496 159.087 77.9428 159.107L77.9495 160.178ZM86.9224 159.204L87.1654 160.247C91.0422 159.344 93.1332 158.919 94.9337 158.478L94.6787 157.438L94.4237 156.398C92.615 156.841 90.6528 157.235 86.6795 158.161L86.9224 159.204ZM94.6787 157.438L94.9337 158.478C95.6685 158.298 96.4972 158.131 97.6416 157.886C98.775 157.643 100.18 157.332 102.02 156.871L101.76 155.833L101.5 154.794C99.6909 155.246 98.3108 155.552 97.1934 155.792C96.087 156.028 95.1995 156.207 94.4237 156.398L94.6787 157.438ZM101.76 155.833L102.02 156.871C102.986 156.63 104.931 156.208 107.635 155.413L107.333 154.385L107.03 153.358C104.382 154.137 102.532 154.536 101.5 154.794L101.76 155.833ZM107.333 154.385L107.635 155.413C110.469 154.579 113.933 154.283 115.462 154.122L115.35 153.057L115.238 151.992C113.787 152.145 110.095 152.456 107.03 153.358L107.333 154.385ZM115.35 153.057L115.383 154.128C116.419 154.095 117.379 154.032 117.995 153.923L117.809 152.868L117.622 151.814C117.171 151.893 116.346 151.955 115.317 151.987L115.35 153.057ZM117.809 152.868L117.929 153.932C118.142 153.908 118.391 153.907 118.727 153.907L118.727 152.836L118.727 151.765C118.42 151.765 118.044 151.764 117.688 151.804L117.809 152.868Z" fill="black"/>
<path d="M35.4804 122.992L35.5771 121.925L35.4804 122.992ZM75.1883 124.317L75.1826 125.388L75.1883 124.317ZM83.7046 124.537L83.6472 125.607L83.7046 124.537ZM88.9389 125.073L89.0078 124.005L88.9389 125.073ZM92.3439 125.577L92.1496 126.63C92.1965 126.639 92.244 126.645 92.2916 126.647L92.3439 125.577ZM94.1088 125.766L93.8983 126.816C93.9173 126.82 93.9363 126.823 93.9554 126.826L94.1088 125.766ZM32.3202 122.773L32.3202 123.844C32.5203 123.844 32.9845 123.841 35.3837 124.058L35.4804 122.992L35.5771 121.925C33.1609 121.706 32.6193 121.703 32.3202 121.703L32.3202 122.773ZM35.4804 122.992L35.3837 124.058C37.4252 124.243 41.0243 124.706 43.229 124.937L43.3407 123.872L43.4524 122.807C41.3654 122.588 37.6091 122.11 35.5771 121.925L35.4804 122.992ZM43.3407 123.872L43.229 124.937C45.3992 125.164 45.9319 125.167 46.355 125.196L46.43 124.128L46.505 123.06C46.0395 123.027 45.5739 123.029 43.4524 122.807L43.3407 123.872ZM46.43 124.128L46.355 125.196C46.8345 125.23 47.2366 125.292 52.8633 125.325L52.8695 124.254L52.8756 123.183C47.2607 123.151 46.914 123.089 46.505 123.06L46.43 124.128ZM52.8695 124.254L52.8633 125.325C58.44 125.357 69.395 125.357 75.1826 125.388L75.1883 124.317L75.194 123.246C69.2975 123.215 58.5406 123.215 52.8756 123.183L52.8695 124.254ZM75.1883 124.317L75.1826 125.388C81.499 125.422 82.4919 125.545 83.6472 125.607L83.7046 124.537L83.7621 123.468C82.5938 123.405 81.5612 123.28 75.194 123.246L75.1883 124.317ZM83.7046 124.537L83.6472 125.607C84.9294 125.676 85.8389 125.782 86.6157 125.884C87.3841 125.985 88.0839 126.091 88.8699 126.142L88.9389 125.073L89.0078 124.005C88.3135 123.96 87.7144 123.869 86.8949 123.761C86.0838 123.654 85.1164 123.541 83.7621 123.468L83.7046 124.537ZM88.9389 125.073L88.8699 126.142C90.0993 126.221 91.2651 126.467 92.1496 126.63L92.3439 125.577L92.5381 124.524C91.721 124.373 90.3966 124.094 89.0078 124.005L88.9389 125.073ZM92.3439 125.577L92.2916 126.647C92.9269 126.678 93.502 126.737 93.8983 126.816L94.1088 125.766L94.3192 124.716C93.7721 124.607 93.0767 124.541 92.3961 124.508L92.3439 125.577ZM94.1088 125.766L93.9554 126.826C94.2629 126.871 94.521 126.869 94.7109 126.869L94.7109 125.798L94.7109 124.728C94.5152 124.728 94.3989 124.726 94.2621 124.706L94.1088 125.766Z" fill="black"/>
<path d="M17.691 65.0122L16.864 65.6926L17.691 65.0122ZM26.9169 70.3629L27.4161 69.4155V69.4155L26.9169 70.3629ZM38.8529 73.6311L38.588 74.6687L38.8529 73.6311ZM53.056 69.4359L53.7101 70.2838L53.056 69.4359ZM57.6831 63.341L58.6167 63.8658L57.6831 63.341ZM58.8939 56.152L59.9567 56.2832C59.9614 56.2455 59.964 56.2075 59.9647 56.1695L58.8939 56.152ZM59.4709 49.5211L60.4804 49.8784C60.4945 49.8387 60.5062 49.7982 60.5155 49.757L59.4709 49.5211ZM14.489 60.6026L13.4858 60.9773C13.608 61.3043 13.8275 61.6754 14.053 62.0213C14.2906 62.3856 14.5824 62.7928 14.8943 63.209C15.5188 64.0422 16.2536 64.9508 16.864 65.6926L17.691 65.0122L18.5179 64.3317C17.9128 63.5963 17.2028 62.7179 16.6082 61.9245C16.3106 61.5274 16.0492 61.1614 15.8471 60.8514C15.633 60.523 15.5261 60.3187 15.4922 60.2278L14.489 60.6026ZM17.691 65.0122L16.864 65.6926C17.5286 66.5003 18.2917 67.0268 19.6523 67.7753C20.9876 68.5098 23.0749 69.5489 26.4177 71.3104L26.9169 70.3629L27.4161 69.4155C24.0003 67.6156 22.0067 66.6259 20.6846 65.8987C19.388 65.1854 18.9174 64.8173 18.5179 64.3317L17.691 65.0122ZM26.9169 70.3629L26.4177 71.3104C27.9763 72.1317 29.8396 72.6579 31.8596 73.1316C33.9347 73.6182 36.1175 74.0381 38.588 74.6687L38.8529 73.6311L39.1178 72.5935C36.6474 71.9629 34.2916 71.502 32.3486 71.0464C30.3505 70.5778 28.7162 70.1006 27.4161 69.4155L26.9169 70.3629ZM38.8529 73.6311L38.588 74.6687C41.7951 75.4874 45.0083 74.8133 47.6546 73.759C50.3087 72.7015 52.4943 71.2218 53.7101 70.2838L53.056 69.4359L52.4018 68.588C51.286 69.4489 49.2743 70.8081 46.8619 71.7693C44.4417 72.7335 41.7192 73.2576 39.1178 72.5935L38.8529 73.6311ZM53.056 69.4359L53.7101 70.2838C55.978 68.5342 57.6879 65.5181 58.6167 63.8658L57.6831 63.341L56.7496 62.8163C55.7802 64.5409 54.2661 67.1499 52.4018 68.588L53.056 69.4359ZM57.6831 63.341L58.6167 63.8658C59.2619 62.7179 59.4914 61.4939 59.6187 60.2591C59.6821 59.6443 59.7227 58.993 59.7686 58.3418C59.8151 57.6815 59.8681 57.0012 59.9567 56.2832L58.8939 56.152L57.8311 56.0208C57.7353 56.7966 57.6792 57.5226 57.6321 58.1914C57.5844 58.8692 57.547 59.4696 57.4882 60.0395C57.3713 61.1739 57.1799 62.0507 56.7496 62.8163L57.6831 63.341ZM58.8939 56.152L59.9647 56.1695C59.9912 54.5415 60.0559 53.1329 60.1512 52.0301C60.2499 50.8883 60.3739 50.1793 60.4804 49.8784L59.4709 49.5211L58.4614 49.1637C58.2526 49.7535 58.115 50.7165 58.0174 51.8457C57.9164 53.0139 57.8502 54.4754 57.8232 56.1345L58.8939 56.152ZM59.4709 49.5211L60.5155 49.757C60.6539 49.1444 60.649 48.4988 60.649 47.9902L59.5781 47.9902L58.5072 47.9902C58.5072 48.5537 58.5023 48.9487 58.4263 49.2851L59.4709 49.5211Z" fill="black"/>
<path d="M22.4732 60.34L22.5711 61.4064L22.4732 60.34ZM33.6698 58.6594L33.8486 59.7153L33.6698 58.6594ZM39.0852 56.4523L38.6381 55.4791L39.0852 56.4523ZM45.754 53.3008L46.1491 54.2961C46.1537 54.2943 46.1583 54.2924 46.1629 54.2905L45.754 53.3008ZM55.7429 48.9905L55.3201 48.0066C55.3054 48.0129 55.2908 48.0196 55.2763 48.0266L55.7429 48.9905ZM16.3877 61.2323L17.3513 61.6995C17.2514 61.9055 17.112 62.0201 17.0592 62.0608C16.9949 62.1103 16.9415 62.1381 16.9201 62.1488C16.8771 62.1703 16.8571 62.1746 16.8847 62.1658C16.9334 62.1504 17.0333 62.1245 17.1973 62.0906C17.5175 62.0243 17.9822 61.9475 18.5506 61.8664C19.6817 61.7051 21.1597 61.536 22.5711 61.4064L22.4732 60.34L22.3752 59.2736C20.9363 59.4057 19.4219 59.5787 18.2482 59.7461C17.6641 59.8294 17.1482 59.9136 16.7633 59.9932C16.5747 60.0323 16.3909 60.0756 16.2378 60.1241C16.1644 60.1473 16.064 60.1823 15.9626 60.233C15.912 60.2583 15.8349 60.3003 15.7527 60.3637C15.6819 60.4181 15.5303 60.5461 15.4241 60.7651L16.3877 61.2323ZM22.4732 60.34L22.5711 61.4064C27.458 60.9577 31.7326 60.0736 33.8486 59.7153L33.6698 58.6594L33.491 57.6036C31.2872 57.9767 27.1543 58.8348 22.3752 59.2736L22.4732 60.34ZM33.6698 58.6594L33.8486 59.7153C35.0686 59.5087 36.207 59.0568 37.1701 58.6057C37.6536 58.3792 38.1048 58.1471 38.5022 57.9418C38.9091 57.7316 39.2443 57.5576 39.5323 57.4254L39.0852 56.4523L38.6381 55.4791C38.2946 55.637 37.9079 55.8381 37.5192 56.0389C37.1212 56.2445 36.7034 56.4592 36.2616 56.6661C35.3739 57.0819 34.436 57.4435 33.491 57.6036L33.6698 58.6594ZM39.0852 56.4523L39.5323 57.4254C41.1053 56.7027 43.3675 55.4002 46.1491 54.2961L45.754 53.3008L45.3589 52.3054C42.5563 53.4179 39.9326 54.8844 38.6381 55.4791L39.0852 56.4523ZM45.754 53.3008L46.1629 54.2905C50.0915 52.6671 54.5446 50.7603 56.2095 49.9544L55.7429 48.9905L55.2763 48.0266C53.6778 48.8004 49.2834 50.6836 45.345 52.311L45.754 53.3008ZM55.7429 48.9905L56.1658 49.9744C56.5212 49.8216 56.9237 49.6819 57.6545 49.1971L57.0625 48.3047L56.4705 47.4123C55.9274 47.7726 55.7056 47.8409 55.3201 48.0066L55.7429 48.9905Z" fill="black"/>
<path d="M30.4178 65.3876L30.462 66.4576L30.4178 65.3876ZM41.0169 62.7611L41.483 63.7252V63.7252L41.0169 62.7611ZM47.9568 59.608L47.4434 58.6682V58.6682L47.9568 59.608ZM52.3175 57.0855L52.7957 58.0438C52.8399 58.0217 52.8826 57.9966 52.9234 57.9686L52.3175 57.0855ZM56.4623 54.8279L56.0628 53.8343C56.0473 53.8405 56.0319 53.8471 56.0167 53.8541L56.4623 54.8279ZM19.5317 65.6477L19.5317 66.7186C20.166 66.7186 24.1448 66.7185 30.462 66.4576L30.4178 65.3876L30.3736 64.3176C24.0941 64.577 20.1461 64.5768 19.5317 64.5768L19.5317 65.6477ZM30.4178 65.3876L30.462 66.4576C33.9408 66.3139 36.284 65.8413 37.9914 65.2816C39.6784 64.7287 40.7586 64.0755 41.483 63.7252L41.0169 62.7611L40.5507 61.797C39.6482 62.2334 38.8297 62.753 37.3243 63.2464C35.8394 63.7331 33.6965 64.1804 30.3736 64.3176L30.4178 65.3876ZM41.0169 62.7611L41.483 63.7252C43.002 62.9907 44.3066 62.4349 45.4526 61.9443C46.5854 61.4594 47.5984 61.024 48.4702 60.5478L47.9568 59.608L47.4434 58.6682C46.6787 59.0859 45.7658 59.4805 44.6097 59.9753C43.4669 60.4646 42.1198 61.0383 40.5507 61.797L41.0169 62.7611ZM47.9568 59.608L48.4702 60.5478C49.3252 60.0808 50.0474 59.6305 50.7244 59.2169C51.4065 58.8002 52.0507 58.4155 52.7957 58.0438L52.3175 57.0855L51.8394 56.1273C51.0078 56.5423 50.2985 56.9672 49.6077 57.3892C48.9119 57.8144 48.242 58.232 47.4434 58.6682L47.9568 59.608ZM52.3175 57.0855L52.9234 57.9686C53.6994 57.4361 55.1122 56.6233 56.9078 55.8017L56.4623 54.8279L56.0167 53.8541C54.139 54.7132 52.6131 55.5841 51.7117 56.2025L52.3175 57.0855ZM56.4623 54.8279L56.8617 55.8215C57.5794 55.533 58.243 55.3773 59.5177 54.5711L58.9453 53.666L58.3729 52.7609C57.3144 53.4304 56.9374 53.4827 56.0628 53.8343L56.4623 54.8279Z" fill="black"/>
<path d="M36.3972 68.1136L37.3016 67.5402V67.5402L36.3972 68.1136ZM43.0076 67.9102L42.8278 66.8545L43.0076 67.9102ZM49.3232 66.4377L49.5619 67.4816L49.3232 66.4377ZM49.3831 64.497L50.2776 63.9081C50.2385 63.8488 50.1937 63.7935 50.1438 63.7431L49.3831 64.497ZM47.4408 62.8148L46.6212 63.504C46.6504 63.5387 46.6818 63.5716 46.7152 63.6023L47.4408 62.8148ZM34.9814 65.3325L34.0236 65.8114C34.5075 66.7792 35.0884 68.0491 35.4927 68.6869L36.3972 68.1136L37.3016 67.5402C36.9744 67.024 36.5022 65.9795 35.9393 64.8536L34.9814 65.3325ZM36.3972 68.1136L35.4927 68.6869C35.9179 69.3577 36.5706 69.6737 37.2163 69.796C37.8329 69.9129 38.5078 69.8688 39.1425 69.7795C39.7875 69.6886 40.4835 69.5362 41.1581 69.3859C41.8477 69.2323 42.5235 69.079 43.1874 68.9659L43.0076 67.9102L42.8278 66.8545C42.0988 66.9787 41.3637 67.1458 40.6924 67.2953C40.0062 67.4482 39.3915 67.5815 38.8439 67.6586C38.286 67.7371 37.8865 67.7432 37.6151 67.6917C37.3727 67.6458 37.3237 67.575 37.3016 67.5402L36.3972 68.1136ZM43.0076 67.9102L43.1874 68.9659C46.4369 68.4123 49.0097 67.6079 49.5619 67.4816L49.3232 66.4377L49.0845 65.3937C48.2715 65.5796 46.0338 66.3084 42.8278 66.8545L43.0076 67.9102ZM49.3232 66.4377L49.5619 67.4816C50.2112 67.3332 50.5106 66.8263 50.6301 66.4918C50.746 66.167 50.7652 65.832 50.7662 65.6051L49.6953 65.6005L48.6244 65.596C48.6241 65.6573 48.621 65.7064 48.6164 65.7429C48.6115 65.7816 48.6072 65.7879 48.613 65.7715C48.6182 65.7569 48.6451 65.6857 48.7216 65.603C48.808 65.5094 48.9339 65.4282 49.0845 65.3937L49.3232 66.4377ZM49.6953 65.6005L50.7662 65.6051C50.7685 65.0588 50.6204 64.4287 50.2776 63.9081L49.3831 64.497L48.4887 65.0859C48.5653 65.2021 48.6252 65.4044 48.6244 65.596L49.6953 65.6005ZM49.3831 64.497L50.1438 63.7431C49.8393 63.4359 49.4836 63.1401 49.1534 62.8679C48.8096 62.5846 48.4811 62.3171 48.1665 62.0273L47.4408 62.8148L46.7152 63.6023C47.0832 63.9415 47.4649 64.2518 47.7912 64.5207C48.131 64.8007 48.4052 65.0315 48.6225 65.2508L49.3831 64.497ZM47.4408 62.8148L48.2605 62.1256C48.1964 62.0493 48.1453 61.9686 48.0339 61.7726C47.924 61.5793 47.775 61.3107 47.5402 60.9568L46.6478 61.5488L45.7554 62.1408C45.9432 62.4239 46.0575 62.6298 46.1719 62.831C46.2847 63.0295 46.4189 63.2634 46.6212 63.504L47.4408 62.8148Z" fill="black"/>
<path d="M12.0672 70.3194L12.5467 69.3619L12.0672 70.3194ZM24.0442 75.574L24.4363 74.5775L24.0442 75.574ZM32.9848 78.5726L32.6337 79.5843V79.5843L32.9848 78.5726ZM39.6 79.7834L39.4562 80.8446L39.6 79.7834ZM49.6993 79.8906L49.5531 78.8297L49.6993 79.8906ZM59.0529 78.158L59.2889 79.2026L59.0529 78.158ZM64.4147 74.9024L63.7175 74.0896L64.4147 74.9024ZM69.5637 67.603L70.4401 68.2185C70.4783 68.1641 70.5113 68.1063 70.5388 68.0459L69.5637 67.603ZM71.8828 58.3755L72.9519 58.4373C72.9547 58.3898 72.9542 58.3422 72.9507 58.2948L71.8828 58.3755ZM7.24457 66.2787L6.2414 66.6535C6.48355 67.3017 7.06982 68.0679 7.91069 68.8329C8.77705 69.621 9.98796 70.4758 11.5877 71.277L12.0672 70.3194L12.5467 69.3619C11.1022 68.6385 10.0578 67.8907 9.35199 67.2486C8.62065 66.5833 8.31775 66.0913 8.24775 65.904L7.24457 66.2787ZM12.0672 70.3194L11.5877 71.277C14.9623 72.9669 19.2237 74.8283 23.6522 76.5706L24.0442 75.574L24.4363 74.5775C20.0487 72.8513 15.8488 71.0155 12.5467 69.3619L12.0672 70.3194ZM24.0442 75.574L23.6522 76.5706C26.4659 77.6776 30.0124 78.6748 32.6337 79.5843L32.9848 78.5726L33.3358 77.5609C30.4866 76.5723 27.2351 75.6786 24.4363 74.5775L24.0442 75.574ZM32.9848 78.5726L32.6337 79.5843C34.9397 80.3844 36.8215 80.4876 39.4562 80.8446L39.6 79.7834L39.7437 78.7222C36.9331 78.3414 35.3774 78.2693 33.3358 77.5609L32.9848 78.5726ZM39.6 79.7834L39.4562 80.8446C42.5261 81.2606 44.6359 81.3584 46.2383 81.3133C47.8413 81.2682 48.9221 81.0787 49.8454 80.9515L49.6993 79.8906L49.5531 78.8297C48.5767 78.9642 47.6358 79.1314 46.178 79.1724C44.7197 79.2134 42.7297 79.1268 39.7437 78.7222L39.6 79.7834ZM49.6993 79.8906L49.8454 80.9515C52.9225 80.5276 56.9463 79.7318 59.2889 79.2026L59.0529 78.158L58.8169 77.1134C56.5119 77.6342 52.5511 78.4167 49.5531 78.8297L49.6993 79.8906ZM59.0529 78.158L59.2889 79.2026C61.9447 78.6026 63.6945 76.9311 65.1119 75.7153L64.4147 74.9024L63.7175 74.0896C62.1869 75.4025 60.8525 76.6535 58.8169 77.1134L59.0529 78.158ZM64.4147 74.9024L65.1119 75.7153C66.2084 74.7748 67.0391 73.584 67.8306 72.3266C68.6441 71.0342 69.4059 69.6912 70.4401 68.2185L69.5637 67.603L68.6873 66.9876C67.6137 68.5166 66.7683 69.9936 66.018 71.1856C65.2456 72.4126 64.5557 73.3706 63.7175 74.0896L64.4147 74.9024ZM69.5637 67.603L70.5388 68.0459C71.8492 65.1607 72.7286 62.3011 72.9519 58.4373L71.8828 58.3755L70.8137 58.3137C70.6082 61.8692 69.8102 64.4707 68.5887 67.1602L69.5637 67.603ZM71.8828 58.3755L72.9507 58.2948C72.7429 55.5469 71.8935 51.2038 71.042 46.8398L69.991 47.0449L68.9399 47.25C69.8037 51.6769 70.6191 55.866 70.815 58.4563L71.8828 58.3755Z" fill="black"/>
<path d="M60.5245 47.6758L60.5245 48.7467L70.9297 48.7467L70.9297 47.6758L70.9297 46.6049L60.5245 46.6049L60.5245 47.6758Z" fill="black"/>
<path d="M86.9226 48.096L86.9559 47.0256L86.9226 48.096ZM99.844 48.9363L99.8793 47.866L99.844 48.9363ZM110.905 50.1455L110.765 51.2072L110.905 50.1455ZM120.531 50.8817L120.454 51.9499L120.531 50.8817ZM129.246 52.3511L129.41 51.2928L129.246 52.3511ZM142.841 53.4547L142.909 52.3859L142.841 53.4547ZM154.689 55.7138L155.091 54.7214C155.033 54.6979 154.973 54.6795 154.912 54.6664L154.689 55.7138ZM158.633 57.1863L158.971 56.1701C158.959 56.1661 158.947 56.1624 158.935 56.1589L158.633 57.1863ZM72.193 47.3613L72.193 48.4322C72.6191 48.4322 73.6526 48.5299 76.0054 48.678C78.3027 48.8226 81.7615 49.0068 86.8893 49.1664L86.9226 48.096L86.9559 47.0256C81.8504 46.8667 78.4142 46.6836 76.1399 46.5405C73.9212 46.4008 72.7065 46.2904 72.193 46.2904L72.193 47.3613ZM86.9226 48.096L86.8893 49.1664C88.009 49.2012 89.6013 49.3544 91.7798 49.5318C93.9358 49.7074 96.6072 49.901 99.8087 50.0066L99.844 48.9363L99.8793 47.866C96.7257 47.7619 94.0918 47.5713 91.9536 47.3971C89.8379 47.2248 88.1471 47.0627 86.9559 47.0256L86.9226 48.096ZM99.844 48.9363L99.8087 50.0066C104.459 50.16 107.083 50.7227 110.765 51.2072L110.905 50.1455L111.045 49.0838C107.49 48.616 104.669 48.024 99.8793 47.866L99.844 48.9363ZM110.905 50.1455L110.765 51.2072C116.491 51.9607 118.363 51.7991 120.454 51.9499L120.531 50.8817L120.608 49.8136C118.282 49.6459 116.711 49.8294 111.045 49.0838L110.905 50.1455ZM120.531 50.8817L120.454 51.9499C121.606 52.0329 122.627 52.218 123.945 52.4773C125.261 52.7361 126.852 53.0641 129.083 53.4094L129.246 52.3511L129.41 51.2928C127.231 50.9555 125.687 50.6369 124.359 50.3757C123.033 50.1151 121.901 49.9068 120.608 49.8136L120.531 50.8817ZM129.246 52.3511L129.083 53.4094C132.395 53.9221 134.584 54.0006 142.773 54.5234L142.841 53.4547L142.909 52.3859C134.652 51.8588 132.599 51.7865 129.41 51.2928L129.246 52.3511ZM142.841 53.4547L142.773 54.5234C147.799 54.8442 152.118 56.2611 154.466 56.7612L154.689 55.7138L154.912 54.6664C152.849 54.227 148.14 52.7199 142.909 52.3859L142.841 53.4547ZM154.689 55.7138L154.286 56.7063C155.951 57.381 157.381 57.9346 158.331 58.2138L158.633 57.1863L158.935 56.1589C158.104 55.9146 156.772 55.4025 155.091 54.7214L154.689 55.7138ZM158.633 57.1863L158.296 58.2026C158.734 58.3482 159.223 58.5433 159.766 58.7608L160.164 57.7665L160.562 56.7722C160.033 56.5609 159.482 56.3398 158.971 56.1701L158.633 57.1863Z" fill="black"/>
<path d="M5.45237 66.9199L5.45237 67.9908C5.49304 67.9908 5.48365 67.9914 5.4721 67.9902C5.45802 67.9888 5.45984 67.9875 5.48757 67.9948C5.55696 68.0133 5.71769 68.0668 6.06211 68.2194L6.49582 67.2402L6.92953 66.2611C6.55082 66.0933 6.2699 65.9867 6.03839 65.9251C5.76338 65.8519 5.58093 65.849 5.45237 65.849L5.45237 66.9199ZM6.49582 67.2402L6.06211 68.2194C6.75622 68.5268 8.00845 69.1526 9.34139 69.8191L9.82031 68.8612L10.2992 67.9034C8.99199 67.2498 7.68169 66.5943 6.92953 66.2611L6.49582 67.2402Z" fill="black"/>
<path d="M21.5202 36.3515L21.2546 35.314V35.314L21.5202 36.3515ZM43.7215 30.6222L43.4218 29.5941L43.7215 30.6222ZM76.6121 22.6919L76.7907 23.7478L76.6121 22.6919ZM96.9061 19.2024L97.1489 20.2454L96.9061 19.2024ZM109.537 16.4506L109.232 15.4239L109.537 16.4506ZM124.298 12.7379L124.547 13.7793L124.298 12.7379ZM141.974 9.73613L141.767 8.68539C141.743 8.69015 141.719 8.69575 141.695 8.70217L141.974 9.73613ZM154.922 6.82174L154.787 5.75936C154.76 5.76282 154.733 5.76732 154.706 5.77286L154.922 6.82174ZM0.597731 40.7121L0.597731 41.783C0.825941 41.783 1.18379 41.7408 1.57854 41.6852C2.00049 41.6258 2.54286 41.5393 3.18356 41.4292C4.46614 41.2087 6.1635 40.8902 8.12002 40.4962C12.0329 39.708 17.0005 38.6139 21.7857 37.3889L21.5202 36.3515L21.2546 35.314C16.5129 36.5278 11.5823 37.614 7.69713 38.3965C5.75467 38.7878 4.07808 39.1022 2.82074 39.3183C2.19147 39.4265 1.67238 39.5091 1.27998 39.5643C1.08356 39.592 0.924147 39.612 0.801482 39.6249C0.740294 39.6314 0.69174 39.6357 0.654616 39.6383C0.636244 39.6396 0.622145 39.6404 0.61183 39.6408C0.601241 39.6412 0.596938 39.6412 0.597731 39.6412L0.597731 40.7121ZM21.5202 36.3515L21.7857 37.3889C26.2796 36.2386 34.3115 34.4807 44.0212 31.6503L43.7215 30.6222L43.4218 29.5941C33.7523 32.4128 25.8428 34.1395 21.2546 35.314L21.5202 36.3515ZM43.7215 30.6222L44.0212 31.6503C48.5955 30.3168 51.7436 28.998 57.3229 27.6165L57.0656 26.577L56.8082 25.5375C51.2347 26.9175 47.7114 28.3436 43.4218 29.5941L43.7215 30.6222ZM57.0656 26.577L57.3229 27.6165C62.8593 26.2456 70.515 24.8095 76.7907 23.7478L76.6121 22.6919L76.4335 21.636C70.1441 22.7001 62.4246 24.1468 56.8082 25.5375L57.0656 26.577ZM76.6121 22.6919L76.7907 23.7478C87.6402 21.9123 93.6463 21.0609 97.1489 20.2454L96.9061 19.2024L96.6632 18.1594C93.245 18.9553 87.3923 19.7821 76.4335 21.636L76.6121 22.6919ZM96.9061 19.2024L97.1489 20.2454C100.039 19.5726 102.638 19.0489 104.798 18.6105C106.936 18.1768 108.696 17.8168 109.841 17.4773L109.537 16.4506L109.232 15.4239C108.2 15.7299 106.553 16.069 104.373 16.5114C102.216 16.9491 99.5876 17.4786 96.6632 18.1594L96.9061 19.2024ZM109.537 16.4506L109.841 17.4773C112.429 16.71 117.12 15.5585 124.547 13.7793L124.298 12.7379L124.048 11.6964C116.645 13.4699 111.888 14.6365 109.232 15.4239L109.537 16.4506ZM124.298 12.7379L124.547 13.7793C129.096 12.6899 132.952 12.0865 135.939 11.6848C137.453 11.4812 138.691 11.3359 139.759 11.1959C140.784 11.0616 141.648 10.9332 142.252 10.7701L141.974 9.73613L141.695 8.70217C141.251 8.82181 140.53 8.93475 139.481 9.07229C138.474 9.20423 137.147 9.36124 135.653 9.56217C132.624 9.96965 128.691 10.5845 124.048 11.6964L124.298 12.7379ZM141.974 9.73613L142.18 10.7869C144.87 10.2575 147.433 9.66717 149.663 9.13999C151.904 8.60977 153.78 8.15036 155.138 7.87061L154.922 6.82174L154.706 5.77286C153.307 6.06095 151.378 6.53337 149.17 7.0557C146.948 7.58108 144.416 8.164 141.767 8.68539L141.974 9.73613ZM154.922 6.82174L155.057 7.88412C155.673 7.80595 156.415 7.79637 158.149 7.28031L157.844 6.25391L157.538 5.2275C156.011 5.6821 155.472 5.67251 154.787 5.75936L154.922 6.82174Z" fill="black"/>
<path d="M9.52213 19.6298L8.60701 20.186C8.61975 20.2069 8.6332 20.2274 8.64735 20.2475L9.52213 19.6298ZM5.95013 13.8689L5.03257 14.4211C5.04115 14.4354 5.05007 14.4495 5.05932 14.4633L5.95013 13.8689ZM15.1641 27.1232L15.9213 26.366C15.6632 26.1079 15.0257 25.3281 14.0481 24.0354C13.0901 22.7688 11.8469 21.0654 10.3969 19.0121L9.52213 19.6298L8.64735 20.2475C10.107 22.3145 11.3643 24.0376 12.3398 25.3274C13.2956 26.5912 14.0243 27.4979 14.4068 27.8805L15.1641 27.1232ZM9.52213 19.6298L10.4373 19.0736C8.81714 16.408 7.82536 14.75 6.84093 13.2746L5.95013 13.8689L5.05932 14.4633C6.01135 15.8902 6.97058 17.4936 8.60701 20.186L9.52213 19.6298ZM5.95013 13.8689L6.86768 13.3168C6.40578 12.5492 5.94476 11.6286 5.4447 10.6285L4.48686 11.1074L3.52903 11.5863C4.01904 12.5664 4.51897 13.5677 5.03257 14.4211L5.95013 13.8689Z" fill="black"/>
<path d="M28.7578 22.2706L28.7578 21.1997C28.7156 21.1997 28.8016 21.1958 28.9025 21.2224C29.0074 21.2499 29.069 21.2914 29.0788 21.2984C29.0822 21.3009 29.0482 21.2766 28.9668 21.1917C28.8875 21.1089 28.7781 20.9844 28.6294 20.7992L27.7944 21.4698L26.9594 22.1403C27.2895 22.5513 27.5672 22.8512 27.8357 23.0425C27.9859 23.1496 28.1578 23.2411 28.3578 23.2937C28.5538 23.3453 28.72 23.3415 28.7578 23.3415L28.7578 22.2706ZM27.7944 21.4698L28.6294 20.7992C28.0435 20.0696 26.8462 18.3737 24.2704 15.3109L23.4508 16.0001L22.6312 16.6894C25.2144 19.761 26.2592 21.2683 26.9594 22.1403L27.7944 21.4698ZM23.4508 16.0001L24.2704 15.3109C21.6781 12.2285 17.6613 7.72978 13.5408 3.11489L12.742 3.82812L11.9432 4.54136C16.0733 9.1671 20.0644 13.6373 22.6312 16.6894L23.4508 16.0001Z" fill="black"/>
<path d="M44.1427 10.8922L44.9259 10.1618C44.9122 10.1471 44.898 10.1327 44.8835 10.1188L44.1427 10.8922ZM49.6172 16.9321L50.3744 16.1748C50.2432 16.0436 49.7675 15.4943 48.8297 14.4418C47.9204 13.4213 46.6263 11.9853 44.9259 10.1618L44.1427 10.8922L43.3595 11.6225C45.0467 13.4317 46.3297 14.8555 47.2306 15.8667C48.1031 16.8459 48.6708 17.5002 48.8599 17.6893L49.6172 16.9321ZM44.1427 10.8922L44.8835 10.1188C43.0443 8.35707 41.0715 6.87745 39.7997 6.0271L39.2045 6.91733L38.6093 7.80756C39.7981 8.60247 41.6691 10.0057 43.4019 11.6655L44.1427 10.8922ZM39.2045 6.91733L39.7997 6.0271C38.487 5.14935 37.9198 4.94773 37.3373 4.75359L36.9987 5.76953L36.66 6.78547C37.0677 6.92135 37.4614 7.04005 38.6093 7.80756L39.2045 6.91733Z" fill="black"/>
<path d="M70.8203 9.34049L71.8154 8.94484C71.7884 8.8768 71.7544 8.81171 71.7141 8.7506L70.8203 9.34049ZM71.4609 13.0484L72.5318 13.0484C72.5318 12.0484 72.5324 10.7482 71.8154 8.94484L70.8203 9.34049L69.8252 9.73614C70.3894 11.1553 70.39 12.1264 70.39 13.0484L71.4609 13.0484ZM70.8203 9.34049L71.7141 8.7506C70.9937 7.65909 69.6241 6.30106 68.7193 5.47674L67.9981 6.26837L67.2769 7.05999C68.1727 7.87609 69.3657 9.08058 69.9265 9.93038L70.8203 9.34049ZM67.9981 6.26837L68.7193 5.47674C67.8032 4.64206 67.2287 4.24346 66.3218 3.48915L65.637 4.3125L64.9522 5.13585C66.006 6.01224 66.3925 6.25427 67.2769 7.05999L67.9981 6.26837Z" fill="black"/>
<path d="M86.9058 6.83225L87.9415 6.5602C87.9358 6.53848 87.9294 6.51694 87.9224 6.49563L86.9058 6.83225ZM87.4687 9.652L88.5396 9.652C88.5396 9.38053 88.4808 8.97057 88.3902 8.49619C88.2943 7.99443 88.1478 7.34543 87.9415 6.5602L86.9058 6.83225L85.87 7.1043C86.0666 7.85271 86.2015 8.45342 86.2864 8.89806C86.329 9.12062 86.358 9.29891 86.376 9.43372C86.3849 9.50098 86.3907 9.55387 86.3941 9.59355C86.3977 9.63524 86.3979 9.65276 86.3979 9.652L87.4687 9.652ZM86.9058 6.83225L87.9224 6.49563C87.6463 5.66193 87.2748 4.91716 86.7157 4.16795L85.8575 4.80844L84.9992 5.44892C85.4108 6.00039 85.6799 6.53689 85.8892 7.16888L86.9058 6.83225ZM85.8575 4.80844L86.7157 4.16795C86.1751 3.44351 85.4746 2.74612 84.8287 2.10018L84.0715 2.85742L83.3142 3.61466C83.9884 4.28882 84.5692 4.87269 84.9992 5.44892L85.8575 4.80844Z" fill="black"/>
<path d="M124.767 175.882L125.379 175.004C125.337 174.974 125.292 174.947 125.245 174.924L124.767 175.882ZM127.558 177.569L128.035 176.61C128.014 176.599 127.992 176.589 127.97 176.58L127.558 177.569ZM123.032 174.725L121.962 174.725C121.962 175.215 122.251 175.542 122.373 175.668C122.526 175.825 122.711 175.959 122.88 176.07C123.225 176.295 123.708 176.55 124.288 176.84L124.767 175.882L125.245 174.924C124.666 174.635 124.282 174.427 124.05 174.275C123.931 174.198 123.899 174.165 123.908 174.175C123.915 174.181 123.955 174.223 123.998 174.3C124.041 174.38 124.103 174.526 124.103 174.725L123.032 174.725ZM124.767 175.882L124.154 176.76C125.31 177.567 126.333 178.219 127.147 178.558L127.558 177.569L127.97 176.58C127.394 176.34 126.541 175.814 125.379 175.004L124.767 175.882ZM127.558 177.569L127.081 178.528C127.21 178.592 127.296 178.645 127.377 178.716C127.458 178.787 127.565 178.903 127.694 179.115L128.609 178.559L129.525 178.003C129.046 177.214 128.532 176.857 128.035 176.61L127.558 177.569Z" fill="black"/>
<path d="M1.6894 169.214L2.28342 170.105C3.03347 169.605 3.77294 169.112 4.77093 168.488L4.20305 167.58L3.63518 166.672C2.60859 167.314 1.84669 167.822 1.09537 168.323L1.6894 169.214ZM4.20305 167.58L4.77093 168.488C5.77959 167.857 6.96167 167.151 8.13686 166.677L7.73658 165.684L7.33631 164.691C5.9713 165.241 4.65109 166.036 3.63518 166.672L4.20305 167.58ZM7.73658 165.684L8.13686 166.677C9.30049 166.208 10.4556 165.974 11.7569 165.714L11.5469 164.664L11.3369 163.614C10.06 163.869 8.71287 164.136 7.33631 164.691L7.73658 165.684Z" fill="black"/>
<path d="M37.3563 215.908L38.3253 215.452C38.3224 215.446 38.3194 215.44 38.3164 215.434L37.3563 215.908ZM51.2174 239.721L50.4002 240.413C50.4187 240.435 50.4381 240.456 50.4583 240.477L51.2174 239.721ZM13.0614 167.697L12.1035 168.176C12.3554 168.68 12.6074 169.184 17.3647 178.573L18.32 178.089L19.2752 177.605C14.5163 168.213 14.2678 167.716 14.0192 167.218L13.0614 167.697ZM18.32 178.089L17.3647 178.573C22.124 187.967 31.3794 206.228 36.3961 216.382L37.3563 215.908L38.3164 215.434C33.2936 205.267 24.0321 186.994 19.2752 177.605L18.32 178.089ZM37.3563 215.908L36.3872 216.364C43.4479 231.375 47.5287 237.023 50.4002 240.413L51.2174 239.721L52.0346 239.029C49.3252 235.83 45.338 230.362 38.3253 215.452L37.3563 215.908ZM51.2174 239.721L50.4583 240.477C51.2823 241.305 52.3519 242.104 53.3653 242.864L54.0078 242.007L54.6503 241.151C53.6013 240.364 52.669 239.662 51.9765 238.966L51.2174 239.721Z" fill="black"/>
<path d="M57.2778 250.967L56.4943 251.697V251.697L57.2778 250.967ZM75.9577 254.015L75.9425 255.086C76.0214 255.087 76.1003 255.08 76.1776 255.063L75.9577 254.015ZM98.429 245.072L98.8846 246.041C98.9004 246.033 98.916 246.025 98.9313 246.017L98.429 245.072ZM54.7641 245.041L53.6932 245.041C53.6932 247.335 54.5617 249.623 56.4943 251.697L57.2778 250.967L58.0612 250.237C56.4679 248.527 55.835 246.751 55.835 245.041L54.7641 245.041ZM57.2778 250.967L56.4943 251.697C58.5868 253.943 61.235 254.72 64.403 254.984C67.4868 255.241 71.3984 255.021 75.9425 255.086L75.9577 254.015L75.9729 252.945C71.1827 252.876 67.5871 253.1 64.5809 252.849C61.6588 252.606 59.6342 251.925 58.0612 250.237L57.2778 250.967ZM75.9577 254.015L76.1776 255.063C82.9267 253.648 90.3553 250.051 98.8846 246.041L98.429 245.072L97.9733 244.102C89.343 248.16 82.1825 251.615 75.7378 252.967L75.9577 254.015ZM98.429 245.072L98.9313 246.017C102.812 243.956 105.64 241.903 109.942 239.115L109.359 238.217L108.777 237.318C104.374 240.172 101.697 242.123 97.9266 244.126L98.429 245.072Z" fill="black"/>
<path d="M106.327 241.251L106.969 242.108C107.97 241.357 108.971 240.606 111.489 238.718L110.846 237.862L110.204 237.005C107.686 238.893 106.685 239.644 105.684 240.394L106.327 241.251ZM110.846 237.862L111.489 238.718C114.006 236.83 118.01 233.827 122.135 230.734L121.492 229.877L120.85 229.02C116.725 232.114 112.721 235.117 110.204 237.005L110.846 237.862Z" fill="black"/>
<path d="M150.055 117.033L149.237 116.341C149.188 116.399 149.145 116.463 149.109 116.53L150.055 117.033ZM148.8 120.684L149.871 120.684C149.871 120.429 150.037 119.349 151 117.535L150.055 117.033L149.109 116.53C148.063 118.5 147.729 119.938 147.729 120.684L148.8 120.684ZM150.055 117.033L150.872 117.725C151.467 117.022 152.538 116.353 153.731 115.873L153.33 114.879L152.93 113.886C151.582 114.429 150.151 115.262 149.237 116.341L150.055 117.033ZM153.33 114.879L153.731 115.873C154.894 115.404 156.049 115.17 157.351 114.909L157.141 113.859L156.931 112.809C155.654 113.065 154.307 113.331 152.93 113.886L153.33 114.879Z" fill="black"/>
<path d="M155.103 131.035L154.122 131.465C154.175 131.585 154.25 131.695 154.342 131.789L155.103 131.035ZM158.011 135.08L157.022 135.492C157.032 135.514 157.042 135.536 157.052 135.557L158.011 135.08ZM151.065 122.201L150.312 122.962C150.309 122.959 150.323 122.973 150.355 123.017C150.386 123.058 150.425 123.116 150.472 123.192C150.567 123.346 150.68 123.551 150.81 123.809C151.07 124.326 151.374 125.002 151.718 125.802C152.39 127.362 153.239 129.451 154.122 131.465L155.103 131.035L156.084 130.605C155.189 128.563 154.398 126.609 153.685 124.955C153.337 124.147 153.013 123.422 152.723 122.846C152.456 122.317 152.15 121.769 151.819 121.44L151.065 122.201ZM155.103 131.035L154.342 131.789C155.557 133.015 156.47 134.165 157.022 135.492L158.011 135.08L159 134.669C158.293 132.97 157.159 131.588 155.864 130.281L155.103 131.035ZM158.011 135.08L157.052 135.557C157.467 136.391 158.008 137.199 158.515 137.961L159.406 137.367L160.297 136.772C159.773 135.987 159.313 135.294 158.97 134.603L158.011 135.08Z" fill="black"/>
</g>
<rect x="161.234" y="0.5" width="286" height="160.348" transform="rotate(90 161.234 0.5)" stroke="black"/>
<path d="M110.304 190.671L109.373 190.141L110.304 190.671ZM108.526 199L107.465 198.857L108.526 199ZM109.674 211.338L110.574 210.756V210.756L109.674 211.338ZM118.163 220.248L117.469 221.064L118.163 220.248ZM124.105 225.97L124.857 225.208V225.208L124.105 225.97ZM127.735 232.25L126.764 232.702L127.735 232.25ZM128.816 250.853L127.748 250.932L128.816 250.853ZM133.904 255.628L133.412 256.579L133.904 255.628ZM141.388 258.888L141.005 259.889L141.388 258.888ZM147.407 260.796L147.662 259.757L147.407 260.796ZM154.659 263.656L155.248 262.762C155.204 262.733 155.158 262.707 155.11 262.685L154.659 263.656ZM158.905 266.122L159.393 265.169C159.371 265.158 159.349 265.148 159.327 265.138L158.905 266.122ZM114.466 184L113.905 183.088C113.669 183.233 113.471 183.437 113.323 183.607C113.162 183.791 112.997 184.01 112.833 184.244C112.504 184.713 112.136 185.305 111.757 185.947C111.001 187.223 110.134 188.806 109.373 190.141L110.304 190.671L111.234 191.201C112.025 189.814 112.854 188.298 113.6 187.037C113.971 186.411 114.305 185.875 114.586 185.474C114.727 185.273 114.844 185.121 114.937 185.014C115.043 184.893 115.071 184.885 115.027 184.912L114.466 184ZM110.304 190.671L109.373 190.141C108.727 191.274 108.39 192.482 108.144 193.871C107.902 195.231 107.729 196.887 107.465 198.857L108.526 199L109.587 199.142C109.865 197.075 110.021 195.549 110.252 194.246C110.479 192.971 110.76 192.033 111.234 191.201L110.304 190.671ZM108.526 199L107.465 198.857C107.038 202.035 107.095 204.857 107.382 207.084C107.663 209.264 108.181 211 108.775 211.919L109.674 211.338L110.574 210.756C110.246 210.248 109.776 208.901 109.506 206.81C109.243 204.768 109.186 202.134 109.587 199.142L108.526 199ZM109.674 211.338L108.775 211.919C111.177 215.637 114.838 218.826 117.469 221.064L118.163 220.248L118.857 219.432C116.205 217.177 112.782 214.174 110.574 210.756L109.674 211.338ZM118.163 220.248L117.469 221.064C119.288 222.611 121.384 224.789 123.353 226.732L124.105 225.97L124.857 225.208C122.955 223.33 120.756 221.048 118.857 219.432L118.163 220.248ZM124.105 225.97L123.353 226.732C124.97 228.328 125.776 230.579 126.764 232.702L127.735 232.25L128.706 231.798C127.842 229.942 126.831 227.156 124.857 225.208L124.105 225.97ZM127.735 232.25L126.764 232.702C126.824 232.832 126.907 233.108 126.988 233.579C127.065 234.03 127.13 234.595 127.184 235.258C127.293 236.583 127.354 238.235 127.399 240.039C127.488 243.616 127.515 247.795 127.748 250.932L128.816 250.853L129.884 250.774C129.656 247.706 129.631 243.633 129.54 239.986C129.495 238.177 129.433 236.473 129.319 235.083C129.262 234.388 129.191 233.755 129.099 233.217C129.01 232.698 128.89 232.193 128.706 231.798L127.735 232.25ZM128.816 250.853L127.748 250.932C127.869 252.558 128.928 253.739 130.017 254.578C131.11 255.422 132.442 256.078 133.412 256.579L133.904 255.628L134.396 254.677C133.355 254.139 132.229 253.58 131.325 252.882C130.416 252.181 129.937 251.494 129.884 250.774L128.816 250.853ZM133.904 255.628L133.412 256.579C135.777 257.802 138.906 259.085 141.005 259.889L141.388 258.888L141.771 257.888C139.694 257.094 136.654 255.844 134.396 254.677L133.904 255.628ZM141.388 258.888L141.005 259.889C143.264 260.753 145.174 261.35 147.151 261.836L147.407 260.796L147.662 259.757C145.779 259.293 143.954 258.724 141.771 257.888L141.388 258.888ZM147.407 260.796L147.151 261.836C149.475 262.408 151.783 263.502 154.209 264.628L154.659 263.656L155.11 262.685C152.744 261.587 150.23 260.388 147.662 259.757L147.407 260.796ZM154.659 263.656L154.07 264.55C156.012 265.83 157.467 266.671 158.483 267.107L158.905 266.122L159.327 265.138C158.495 264.782 157.172 264.029 155.248 262.762L154.659 263.656ZM158.905 266.122L158.416 267.075C158.875 267.31 159.441 267.685 160.985 268.043L161.227 267L161.469 265.957C160.215 265.666 159.865 265.411 159.393 265.169L158.905 266.122Z" fill="black"/>
<path d="M6.54471 65.2809L6.64872 66.3467C6.7706 66.3348 6.88953 66.3021 7.00035 66.25L6.54471 65.2809ZM14.0601 60.9233L14.7566 61.7368C14.7769 61.7194 14.7965 61.7013 14.8154 61.6824L14.0601 60.9233ZM0.296875 66.9094L0.590485 67.9393C0.966521 67.8321 1.44922 67.6846 1.97035 67.5266C2.49664 67.367 3.0716 67.1936 3.65003 67.0286C4.83327 66.6912 5.94244 66.4156 6.64872 66.3467L6.54471 65.2809L6.4407 64.215C5.51526 64.3054 4.23045 64.6359 3.06268 64.969C2.4656 65.1392 1.87579 65.3171 1.3487 65.477C0.816455 65.6384 0.357168 65.7787 0.00326493 65.8796L0.296875 66.9094ZM6.54471 65.2809L7.00035 66.25C8.42857 65.5785 10.1552 64.6283 11.61 63.772C13.0288 62.9369 14.3033 62.1249 14.7566 61.7368L14.0601 60.9233L13.3636 60.1099C13.0822 60.3508 11.9856 61.0657 10.5236 61.9262C9.09773 62.7654 7.434 63.6794 6.08907 64.3117L6.54471 65.2809ZM14.0601 60.9233L14.8154 61.6824C15.2191 61.2807 15.4801 60.8846 15.6921 60.5667L14.8011 59.9727L13.91 59.3786C13.6932 59.7039 13.538 59.9321 13.3047 60.1642L14.0601 60.9233Z" fill="black"/>
<defs>
<clipPath id="clip0_291_24423">
<rect x="161.734" width="287" height="161.348" transform="rotate(90 161.734 0)" fill="white"/>
</clipPath>
</defs>
</svg>
