<svg width="160" height="287" viewBox="0 0 160 287" fill="none" xmlns="http://www.w3.org/2000/svg">
<g clip-path="url(#clip0_291_24424)">
<rect x="160" width="287" height="160" transform="rotate(90 160 0)" fill="white"/>
<path d="M9.60398 162.596L8.84116 163.289V163.289L9.60398 162.596ZM16.3129 168.976L17.1598 168.39L16.3129 168.976ZM21.8707 174.92L21.2168 175.716L21.8707 174.92ZM25.849 176.884L26.233 175.928L25.849 176.884ZM27.9223 177.322L27.9189 178.352C28.392 178.354 28.8054 178.033 28.9213 177.574L27.9223 177.322ZM29.8305 173.512L30.7368 174.002C30.7423 173.992 30.7476 173.982 30.7528 173.972L29.8305 173.512ZM5.85135 157.918L4.9093 158.335C5.19144 158.972 5.82805 159.811 6.50266 160.626C7.20582 161.476 8.05028 162.418 8.84116 163.289L9.60398 162.596L10.3668 161.903C9.57651 161.033 8.76049 160.123 8.09055 159.313C7.39206 158.468 6.94294 157.838 6.79342 157.501L5.85135 157.918ZM9.60398 162.596L8.84116 163.289C10.5869 165.211 12.0315 166.446 13.1626 167.389C14.3312 168.362 15.0182 168.917 15.466 169.563L16.3129 168.976L17.1598 168.39C16.5121 167.455 15.544 166.691 14.4818 165.805C13.382 164.889 12.0199 163.724 10.3668 161.903L9.60398 162.596ZM16.3129 168.976L15.466 169.563C17.0984 171.919 19.9719 174.694 21.2168 175.716L21.8707 174.92L22.5246 174.124C21.3724 173.178 18.6495 170.54 17.1598 168.39L16.3129 168.976ZM21.8707 174.92L21.2168 175.716C22.5476 176.809 24.2077 177.335 25.4649 177.84L25.849 176.884L26.233 175.928C24.7629 175.337 23.5383 174.956 22.5246 174.124L21.8707 174.92ZM25.849 176.884L25.4649 177.84C26.3681 178.203 27.2979 178.35 27.9189 178.352L27.9223 177.322L27.9258 176.292C27.5657 176.291 26.8941 176.193 26.233 175.928L25.849 176.884ZM27.9223 177.322L28.9213 177.574C29.0251 177.164 29.2565 176.661 29.5975 176.032C29.7645 175.725 29.9472 175.405 30.1422 175.064C30.3351 174.726 30.5387 174.369 30.7368 174.002L29.8305 173.512L28.9243 173.022C28.739 173.365 28.5466 173.702 28.3527 174.042C28.1609 174.378 27.9661 174.718 27.7862 175.05C27.4335 175.7 27.0943 176.393 26.9234 177.07L27.9223 177.322ZM29.8305 173.512L30.7528 173.972C30.9232 173.63 31.1955 173.156 32.1576 171.978L31.3594 171.326L30.5612 170.675C29.548 171.916 29.1728 172.522 28.9083 173.053L29.8305 173.512Z" fill="black"/>
<path d="M30.5963 181.837L31.6207 181.948L30.5963 181.837ZM29.2882 192.789L28.2617 192.701L29.2882 192.789ZM28.2515 203.643L29.2816 203.667L28.2515 203.643ZM28.5769 223.984L27.5466 223.995L28.5769 223.984ZM27.7626 234.65L26.7524 234.447C26.7478 234.47 26.744 234.493 26.741 234.516L27.7626 234.65ZM27.1625 240.646L26.1463 240.476C26.1418 240.503 26.1383 240.531 26.1359 240.558L27.1625 240.646ZM31.0312 174.922L30.0009 174.922C30.0009 175.845 29.788 179.731 29.572 181.726L30.5963 181.837L31.6207 181.948C31.8428 179.897 32.0616 175.935 32.0616 174.922L31.0312 174.922ZM30.5963 181.837L29.572 181.726C29.3235 184.02 28.591 188.874 28.2617 192.701L29.2882 192.789L30.3147 192.877C30.646 189.028 31.3509 184.438 31.6207 181.948L30.5963 181.837ZM29.2882 192.789L28.2617 192.701C28.0873 194.726 27.3846 196.493 27.2215 203.619L28.2515 203.643L29.2816 203.667C29.4455 196.505 30.0978 195.398 30.3147 192.877L29.2882 192.789ZM28.2515 203.643L27.2215 203.619C27.0998 208.934 27.4901 218.839 27.5466 223.995L28.5769 223.984L29.6072 223.973C29.5493 218.687 29.1607 208.948 29.2816 203.667L28.2515 203.643ZM28.5769 223.984L27.5466 223.995C27.6173 230.442 27.1766 232.331 26.7524 234.447L27.7626 234.65L28.7729 234.852C29.2218 232.613 29.6796 230.58 29.6072 223.973L28.5769 223.984ZM27.7626 234.65L26.741 234.516C26.5732 235.795 26.4624 237.071 26.3739 238.136C26.2827 239.232 26.2189 240.042 26.1463 240.476L27.1625 240.646L28.1787 240.816C28.2696 240.273 28.3416 239.338 28.4274 238.307C28.5159 237.244 28.6234 236.01 28.7842 234.784L27.7626 234.65ZM27.1625 240.646L26.1359 240.558C26.0757 241.265 26.0766 242.289 26.0766 243.27L27.1069 243.27L28.1373 243.27C28.1373 242.25 28.1382 241.331 28.1892 240.733L27.1625 240.646Z" fill="black"/>
<path d="M36.2864 245.121L36.3956 244.096L36.2864 245.121ZM70.3592 244.851L70.3719 245.881C70.3807 245.881 70.3894 245.881 70.3982 245.881L70.3592 244.851ZM83.2882 244.306L83.2517 243.277C83.2343 243.277 83.2169 243.278 83.1995 243.28L83.2882 244.306ZM27.4387 243.924L27.2936 244.944C28.0021 245.045 30.0227 245.489 36.1771 246.145L36.2864 245.121L36.3956 244.096C30.2833 243.444 28.3927 243.019 27.5838 242.904L27.4387 243.924ZM36.2864 245.121L36.1771 246.145C39.2353 246.471 43.9947 246.261 46.542 246.208L46.5206 245.178L46.4993 244.148C43.8339 244.203 39.2826 244.404 36.3956 244.096L36.2864 245.121ZM46.5206 245.178L46.542 246.208C47.8594 246.181 48.634 246.14 49.5876 246.099C50.5384 246.059 51.6901 246.018 53.7877 245.991L53.7741 244.96L53.7605 243.93C51.6427 243.958 50.4709 243.999 49.5004 244.04C48.5327 244.081 47.7883 244.121 46.4993 244.148L46.5206 245.178ZM53.7741 244.96L53.7877 245.991C55.8898 245.963 58.9349 245.949 62.0081 245.935C65.0777 245.922 68.175 245.908 70.3719 245.881L70.3592 244.851L70.3465 243.821C68.1597 243.848 65.0721 243.861 61.9989 243.875C58.9293 243.888 55.8737 243.902 53.7605 243.93L53.7741 244.96ZM70.3592 244.851L70.3982 245.881C77.5739 245.609 81.4503 245.499 83.3768 245.333L83.2882 244.306L83.1995 243.28C81.3391 243.441 77.5565 243.547 70.3202 243.821L70.3592 244.851ZM83.2882 244.306L83.3246 245.336C84.8712 245.281 87.6534 245.281 90.5547 245.281L90.5547 244.251L90.5547 243.221C87.6741 243.221 84.8446 243.22 83.2517 243.277L83.2882 244.306Z" fill="black"/>
<path d="M140.802 243.548L139.813 243.261L140.802 243.548ZM138.735 237.008L137.786 237.409L138.735 237.008ZM136.608 226.61L135.578 226.646L136.608 226.61ZM135.954 215.825L134.924 215.853L135.954 215.825ZM135.3 201.149L134.271 201.208L135.3 201.149ZM134.592 195.533L135.616 195.418L134.592 195.533ZM132.577 185.454L133.578 185.208L132.577 185.454ZM131.05 180.105L130.096 180.495V180.495L131.05 180.105ZM128.815 173.511L129.78 173.15V173.15L128.815 173.511ZM129.355 173.177L129.802 172.249L129.802 172.249L129.355 173.177ZM134.255 176.771L133.729 177.657C133.775 177.684 133.822 177.708 133.871 177.727L134.255 176.771ZM106.576 244.578L106.576 245.609C106.684 245.609 106.791 245.609 107.568 245.609C108.344 245.609 109.788 245.609 112.568 245.609L112.568 244.578L112.568 243.548C109.788 243.548 108.344 243.548 107.568 243.548C106.791 243.548 106.684 243.548 106.576 243.548L106.576 244.578ZM112.568 244.578L112.568 245.609C118.122 245.609 129.04 245.609 134.781 245.447L134.752 244.417L134.723 243.387C129.018 243.548 118.137 243.548 112.568 243.548L112.568 244.578ZM134.752 244.417L134.781 245.447C137.635 245.366 139.199 245.244 140.074 245.077C140.499 244.997 140.892 244.884 141.201 244.67C141.375 244.549 141.519 244.4 141.626 244.222C141.727 244.057 141.772 243.902 141.792 243.836L140.802 243.548L139.813 243.261C139.804 243.29 139.819 243.23 139.864 243.155C139.916 243.069 139.98 243.009 140.028 242.975C140.087 242.935 140.048 242.985 139.689 243.053C138.998 243.185 137.592 243.306 134.723 243.387L134.752 244.417ZM140.802 243.548L141.792 243.836C141.988 243.16 141.95 242.454 141.824 241.806C141.697 241.153 141.465 240.492 141.208 239.871C140.951 239.249 140.653 238.634 140.382 238.08C140.104 237.513 139.862 237.025 139.684 236.606L138.735 237.008L137.786 237.409C137.992 237.895 138.266 238.447 138.531 238.987C138.803 239.541 139.074 240.103 139.304 240.66C139.536 241.218 139.711 241.737 139.801 242.201C139.893 242.669 139.884 243.015 139.813 243.261L140.802 243.548ZM138.735 237.008L139.684 236.606C138.745 234.386 137.798 231.121 137.638 226.574L136.608 226.61L135.578 226.646C135.748 231.455 136.753 234.967 137.786 237.409L138.735 237.008ZM136.608 226.61L137.638 226.574C137.594 225.332 137.468 224.086 137.338 222.469C137.207 220.837 137.066 218.765 136.984 215.796L135.954 215.825L134.924 215.853C135.007 218.865 135.151 220.974 135.284 222.634C135.418 224.309 135.537 225.466 135.578 226.646L136.608 226.61ZM135.954 215.825L136.984 215.796C136.833 210.326 136.494 203.984 136.329 201.091L135.3 201.149L134.271 201.208C134.436 204.097 134.774 210.414 134.924 215.853L135.954 215.825ZM135.3 201.149L136.329 201.091C136.259 199.865 136.131 198.915 135.996 198.034C135.859 197.145 135.722 196.371 135.616 195.418L134.592 195.533L133.568 195.647C133.681 196.656 133.83 197.507 133.959 198.347C134.089 199.192 134.206 200.071 134.271 201.208L135.3 201.149ZM134.592 195.533L135.616 195.418C135.259 192.222 134.391 188.523 133.578 185.208L132.577 185.454L131.577 185.699C132.393 189.027 133.228 192.602 133.568 195.647L134.592 195.533ZM132.577 185.454L133.578 185.208C133.127 183.368 132.642 181.279 132.004 179.716L131.05 180.105L130.096 180.495C130.662 181.881 131.107 183.782 131.577 185.699L132.577 185.454ZM131.05 180.105L132.004 179.716C131.565 178.641 131.18 177.463 130.818 176.314C130.461 175.184 130.119 174.055 129.78 173.15L128.815 173.511L127.85 173.872C128.164 174.711 128.483 175.762 128.853 176.934C129.216 178.087 129.623 179.334 130.096 180.495L131.05 180.105ZM128.815 173.511L129.78 173.15C129.841 173.312 129.855 173.551 129.735 173.784C129.631 173.988 129.477 174.082 129.4 174.118C129.318 174.157 129.247 174.169 129.19 174.171C129.137 174.172 129.034 174.167 128.908 174.106L129.355 173.177L129.802 172.249C129.369 172.041 128.875 172.087 128.517 172.257C128.318 172.351 128.064 172.529 127.903 172.841C127.727 173.183 127.731 173.555 127.85 173.872L128.815 173.511ZM129.355 173.177L128.908 174.106C129.067 174.182 129.284 174.326 129.591 174.564C129.895 174.801 130.229 175.083 130.639 175.422C131.443 176.088 132.458 176.903 133.729 177.657L134.255 176.771L134.781 175.885C133.652 175.216 132.738 174.485 131.953 173.835C131.569 173.517 131.193 173.199 130.855 172.937C130.521 172.677 130.164 172.423 129.802 172.249L129.355 173.177ZM134.255 176.771L133.871 177.727C134.491 177.977 134.983 178.099 135.424 178.209L135.674 177.21L135.924 176.21C135.489 176.101 135.118 176.007 134.639 175.815L134.255 176.771ZM135.674 177.21L135.424 178.209C135.813 178.306 136.147 178.386 136.807 178.761L137.316 177.865L137.825 176.969C136.942 176.468 136.412 176.332 135.924 176.21L135.674 177.21Z" fill="black"/>
<path d="M139.005 173.728L139.886 174.263L139.005 173.728ZM145.377 166.972L146.106 167.7L145.377 166.972ZM151.048 161.247L151.816 161.934V161.934L151.048 161.247ZM156.988 155.472L156.221 154.784H156.221L156.988 155.472ZM157.92 153.072L156.925 152.806L157.92 153.072ZM157.708 152.035L158.333 151.216L158.333 151.216L157.708 152.035ZM150.899 148.873L150.428 149.789L150.899 148.873ZM143.436 144.844L142.926 145.739L143.436 144.844ZM133.84 138.409L133.296 139.285V139.285L133.84 138.409ZM128.55 134.158L129.206 133.363V133.363L128.55 134.158ZM123.862 130.396L124.503 129.589C124.483 129.573 124.462 129.557 124.44 129.543L123.862 130.396ZM120.319 128.214L120.838 127.325C120.82 127.314 120.801 127.303 120.781 127.294L120.319 128.214ZM137.319 177.865L138.345 177.967C138.429 177.117 138.98 175.754 139.886 174.263L139.005 173.728L138.124 173.193C137.176 174.756 136.425 176.442 136.294 177.763L137.319 177.865ZM139.005 173.728L139.886 174.263C140.464 173.311 141.433 172.243 142.586 171.098C143.156 170.533 143.755 169.965 144.355 169.394C144.952 168.827 145.551 168.256 146.106 167.7L145.377 166.972L144.648 166.244C144.115 166.778 143.535 167.331 142.935 167.901C142.339 168.467 141.724 169.052 141.135 169.635C139.971 170.79 138.843 172.009 138.124 173.193L139.005 173.728ZM145.377 166.972L146.106 167.7C148.103 165.7 150.378 163.543 151.816 161.934L151.048 161.247L150.28 160.561C148.892 162.114 146.718 164.171 144.648 166.244L145.377 166.972ZM151.048 161.247L151.816 161.934C152.664 160.985 153.631 160.109 154.664 159.172C155.683 158.247 156.762 157.267 157.755 156.16L156.988 155.472L156.221 154.784C155.31 155.8 154.309 156.712 153.279 157.646C152.263 158.567 151.212 159.517 150.28 160.561L151.048 161.247ZM156.988 155.472L157.755 156.16C158.208 155.655 158.445 155.108 158.597 154.614C158.672 154.371 158.729 154.132 158.777 153.921C158.828 153.7 158.868 153.518 158.916 153.337L157.92 153.072L156.925 152.806C156.864 153.033 156.813 153.266 156.769 153.46C156.722 153.665 156.679 153.841 156.628 154.007C156.528 154.331 156.408 154.576 156.221 154.784L156.988 155.472ZM157.92 153.072L158.916 153.337C158.945 153.228 159.069 152.844 159.042 152.458C159.005 151.945 158.741 151.528 158.333 151.216L157.708 152.035L157.082 152.854C157.108 152.874 157.081 152.859 157.047 152.801C157.03 152.772 157.015 152.738 157.004 152.701C156.993 152.664 156.988 152.631 156.986 152.606C156.983 152.559 156.991 152.543 156.982 152.585C156.978 152.604 156.972 152.63 156.962 152.669C156.957 152.688 156.951 152.708 156.945 152.731C156.939 152.753 156.932 152.78 156.925 152.806L157.92 153.072ZM157.708 152.035L158.333 151.216C156.959 150.166 155.683 149.605 154.509 149.172C153.3 148.727 152.358 148.463 151.37 147.956L150.899 148.873L150.428 149.789C151.565 150.372 152.764 150.725 153.797 151.106C154.865 151.5 155.932 151.975 157.082 152.854L157.708 152.035ZM150.899 148.873L151.37 147.956C149.383 146.936 146.975 145.677 143.947 143.949L143.436 144.844L142.926 145.739C145.99 147.487 148.427 148.762 150.428 149.789L150.899 148.873ZM143.436 144.844L143.947 143.949C142.714 143.245 141.153 142.161 139.461 140.976C137.791 139.804 136.006 138.542 134.383 137.534L133.84 138.409L133.296 139.285C134.859 140.255 136.589 141.478 138.278 142.663C139.947 143.833 141.592 144.978 142.926 145.739L143.436 144.844ZM133.84 138.409L134.383 137.534C131.612 135.813 130.937 134.792 129.206 133.363L128.55 134.158L127.894 134.953C129.326 136.134 130.387 137.478 133.296 139.285L133.84 138.409ZM128.55 134.158L129.206 133.363C127.899 132.284 126.086 130.847 124.503 129.589L123.862 130.396L123.221 131.202C124.811 132.466 126.605 133.889 127.894 134.953L128.55 134.158ZM123.862 130.396L124.44 129.543C122.713 128.372 121.473 127.695 120.838 127.325L120.319 128.214L119.799 129.104C120.469 129.495 121.63 130.127 123.284 131.248L123.862 130.396ZM120.319 128.214L120.781 127.294C120.377 127.09 119.984 126.961 119.659 126.853L119.333 127.83L119.007 128.808C119.349 128.922 119.604 129.008 119.856 129.135L120.319 128.214Z" fill="black"/>
<path d="M115.364 126.797L115.138 127.802L115.364 126.797ZM105.499 123.528L105.878 122.57L105.499 123.528ZM99.3432 121.131L98.9161 122.069C98.9235 122.072 98.9309 122.075 98.9383 122.079L99.3432 121.131ZM119.336 127.83L119.848 126.936C119.319 126.633 118.608 126.443 117.928 126.288C117.572 126.207 117.188 126.128 116.798 126.048C116.405 125.967 116.002 125.884 115.59 125.791L115.364 126.797L115.138 127.802C115.571 127.899 115.992 127.986 116.383 128.066C116.778 128.148 117.139 128.222 117.47 128.297C118.164 128.455 118.594 128.592 118.823 128.724L119.336 127.83ZM115.364 126.797L115.59 125.791C112.92 125.192 108.506 123.606 105.878 122.57L105.499 123.528L105.121 124.487C107.758 125.527 112.3 127.165 115.138 127.802L115.364 126.797ZM105.499 123.528L105.878 122.57C103.55 121.652 102.411 121.322 99.7481 120.184L99.3432 121.131L98.9383 122.079C101.609 123.22 102.949 123.63 105.121 124.487L105.499 123.528ZM99.3432 121.131L99.7703 120.193C99.118 119.896 98.7568 119.775 98.41 119.66L98.0842 120.637L97.7583 121.615C98.0689 121.718 98.3551 121.813 98.9161 122.069L99.3432 121.131ZM98.0842 120.637L98.41 119.66C98.0545 119.541 97.6752 119.416 96.9422 119.293L96.7712 120.309L96.6001 121.325C97.1883 121.424 97.4565 121.514 97.7583 121.615L98.0842 120.637Z" fill="black"/>
<path d="M96.0576 125.263L95.0449 125.073L96.0576 125.263ZM94.3702 130.44L93.3986 130.097L94.3702 130.44ZM89.3045 134.587L89.6984 135.539L89.3045 134.587ZM76.7173 135.026L76.6449 136.054V136.054L76.7173 135.026ZM71.6451 133.664L71.3398 134.648L71.6451 133.664ZM67.7731 129.797L68.5299 129.098L67.7731 129.797ZM65.1013 125.873L64.1807 126.336C64.1951 126.364 64.2108 126.392 64.2278 126.419L65.1013 125.873ZM64.7727 124.784L63.7506 124.914L64.7727 124.784ZM96.7656 120.309L95.7353 120.309C95.7353 120.76 95.6404 121.556 95.4971 122.481C95.3572 123.383 95.1827 124.338 95.0449 125.073L96.0576 125.263L97.0703 125.453C97.2089 124.713 97.3884 123.732 97.5334 122.796C97.675 121.883 97.796 120.94 97.796 120.309L96.7656 120.309ZM96.0576 125.263L95.0449 125.073C94.7646 126.569 94.0878 128.144 93.3986 130.097L94.3702 130.44L95.3417 130.783C95.9639 129.02 96.751 127.157 97.0703 125.453L96.0576 125.263ZM94.3702 130.44L93.3986 130.097C93.0851 130.985 92.4047 131.702 91.5375 132.296C90.67 132.891 89.7003 133.308 88.9107 133.634L89.3045 134.587L89.6984 135.539C90.4899 135.211 91.6397 134.725 92.7031 133.996C93.7668 133.266 94.8286 132.237 95.3417 130.783L94.3702 130.44ZM89.3045 134.587L88.9107 133.634C88.6629 133.737 88.0987 133.857 87.2049 133.954C86.3477 134.048 85.2863 134.111 84.1172 134.145C81.7795 134.213 79.0643 134.159 76.7897 133.999L76.7173 135.026L76.6449 136.054C78.9896 136.219 81.773 136.274 84.1767 136.205C85.3782 136.17 86.4982 136.104 87.4284 136.003C88.3221 135.905 89.1512 135.765 89.6984 135.539L89.3045 134.587ZM76.7173 135.026L76.7897 133.999C75.1511 133.883 73.6863 133.219 71.9504 132.68L71.6451 133.664L71.3398 134.648C72.7663 135.091 74.6891 135.916 76.6449 136.054L76.7173 135.026ZM71.6451 133.664L71.9504 132.68C71.5109 132.544 71.0354 132.143 70.4296 131.425C70.1367 131.079 69.8514 130.706 69.5333 130.3C69.2235 129.905 68.8886 129.486 68.5299 129.098L67.7731 129.797L67.0164 130.497C67.3142 130.819 67.6052 131.181 67.9115 131.572C68.2094 131.952 68.5305 132.37 68.8551 132.755C69.4842 133.5 70.2882 134.322 71.3398 134.648L71.6451 133.664ZM67.7731 129.797L68.5299 129.098C67.5875 128.078 66.8436 126.715 65.9749 125.327L65.1013 125.873L64.2278 126.419C64.9975 127.65 65.901 129.289 67.0164 130.497L67.7731 129.797ZM65.1013 125.873L66.022 125.41C65.907 125.181 65.835 124.97 65.7948 124.654L64.7727 124.784L63.7506 124.914C63.8215 125.471 63.9654 125.907 64.1807 126.336L65.1013 125.873ZM64.7727 124.784L65.7948 124.654C65.7492 124.296 65.7474 123.829 65.7474 123.252L64.7171 123.252L63.6867 123.252C63.6867 123.787 63.685 124.399 63.7506 124.914L64.7727 124.784Z" fill="black"/>
<path d="M56.8756 122.324L56.953 123.352L56.8756 122.324ZM50.4462 123.467L50.7171 124.461L50.4462 123.467ZM45.1043 124.612L44.8542 123.612C44.8311 123.618 44.8083 123.625 44.7857 123.632L45.1043 124.612ZM39.3257 125.866L39.1475 124.851C39.1237 124.855 39.1001 124.86 39.0767 124.866L39.3257 125.866ZM64.3906 121.943L64.3906 120.913C62.9424 120.913 58.9912 121.132 56.7981 121.297L56.8756 122.324L56.953 123.352C59.1421 123.187 63.0264 122.974 64.3906 122.974L64.3906 121.943ZM56.8756 122.324L56.7981 121.297C54.8621 121.443 52.6373 121.802 50.1754 122.473L50.4462 123.467L50.7171 124.461C53.0559 123.824 55.1512 123.488 56.953 123.352L56.8756 122.324ZM50.4462 123.467L50.1754 122.473C49.3168 122.707 48.5076 122.864 47.6425 123.028C46.7839 123.19 45.869 123.358 44.8542 123.612L45.1043 124.612L45.3544 125.611C46.3001 125.375 47.1539 125.217 48.025 125.052C48.8895 124.889 49.7711 124.719 50.7171 124.461L50.4462 123.467ZM45.1043 124.612L44.7857 123.632C42.6912 124.313 41.046 124.518 39.1475 124.851L39.3257 125.866L39.504 126.881C41.3106 126.564 43.1516 126.33 45.4228 125.592L45.1043 124.612ZM39.3257 125.866L39.0767 124.866C38.8501 124.923 38.5497 125.002 38.2495 125.163C37.9289 125.335 37.655 125.574 37.4087 125.898L38.2285 126.522L39.0484 127.146C39.1357 127.031 39.1905 126.997 39.225 126.978C39.2801 126.949 39.3615 126.919 39.5747 126.866L39.3257 125.866Z" fill="black"/>
<path d="M35.35 128.592L35.9235 129.448L35.35 128.592ZM31.1019 131.968L31.7253 132.789L31.1019 131.968ZM23.3612 138.782L22.6915 137.999V137.999L23.3612 138.782ZM15.5715 144.338L14.9533 143.514V143.514L15.5715 144.338ZM11.0961 147.613L11.587 148.519V148.519L11.0961 147.613ZM7.17019 151.7L6.37396 151.046C6.33932 151.088 6.30809 151.133 6.28056 151.18L7.17019 151.7ZM5.96837 156.33L4.94546 156.207C4.94065 156.247 4.93816 156.287 4.93803 156.327L5.96837 156.33ZM38.2344 126.523L37.6619 125.667C37.3104 125.902 36.8476 126.248 36.3652 126.604C35.8697 126.97 35.3276 127.367 34.7765 127.736L35.35 128.592L35.9235 129.448C36.517 129.05 37.0917 128.63 37.5896 128.262C38.1005 127.884 38.5076 127.58 38.8069 127.38L38.2344 126.523ZM35.35 128.592L34.7765 127.736C34.0695 128.21 33.3647 128.786 32.6658 129.369C31.9548 129.962 31.2447 130.566 30.4786 131.148L31.1019 131.968L31.7253 132.789C32.5388 132.171 33.2959 131.527 33.9857 130.951C34.6876 130.366 35.317 129.854 35.9235 129.448L35.35 128.592ZM31.1019 131.968L30.4786 131.148C29.0909 132.202 27.6887 133.452 26.3687 134.662C25.0337 135.885 23.7986 137.052 22.6915 137.999L23.3612 138.782L24.031 139.565C25.1738 138.587 26.4616 137.372 27.7608 136.181C29.0749 134.977 30.4182 133.782 31.7253 132.789L31.1019 131.968ZM23.3612 138.782L22.6915 137.999C21.7341 138.818 20.6526 139.562 19.3632 140.431C18.0835 141.293 16.6168 142.266 14.9533 143.514L15.5715 144.338L16.1897 145.162C17.803 143.952 19.2228 143.01 20.5146 142.14C21.7967 141.276 22.9717 140.471 24.031 139.565L23.3612 138.782ZM15.5715 144.338L14.9533 143.514C14.0038 144.226 13.1681 144.901 12.4842 145.427C11.7755 145.972 11.185 146.393 10.6053 146.707L11.0961 147.613L11.587 148.519C12.3171 148.124 13.014 147.62 13.7405 147.061C14.4917 146.483 15.2388 145.876 16.1897 145.162L15.5715 144.338ZM11.0961 147.613L10.6053 146.707C9.51199 147.3 8.67928 148.13 8.01309 148.924C7.67972 149.321 7.37929 149.721 7.11022 150.082C6.83442 150.452 6.60061 150.77 6.37396 151.046L7.17019 151.7L7.96642 152.353C8.23194 152.03 8.50169 151.664 8.76271 151.313C9.03046 150.954 9.3001 150.596 9.59191 150.248C10.1761 149.552 10.8142 148.938 11.587 148.519L11.0961 147.613ZM7.17019 151.7L6.28056 151.18C5.39162 152.701 5.15959 154.434 4.94546 156.207L5.96837 156.33L6.99127 156.454C7.21209 154.626 7.41827 153.317 8.05981 152.219L7.17019 151.7ZM5.96837 156.33L4.93803 156.327C4.9369 156.666 4.97563 157.062 5.15959 157.523C5.33711 157.968 5.62887 158.421 6.06127 158.92L6.83989 158.245L7.61851 157.57C7.28567 157.186 7.14085 156.928 7.07351 156.759C7.01261 156.607 6.99819 156.487 6.9987 156.334L5.96837 156.33Z" fill="black"/>
<path d="M91.811 123.351L92.841 123.326L91.811 123.351ZM90.5045 128.206L91.474 128.555L90.5045 128.206ZM86.5835 132.406L87.0839 133.307V133.307L86.5835 132.406ZM76.5012 132.083L76.2355 133.078V133.078L76.5012 132.083ZM71.2116 128.435L70.3691 129.028L71.2116 128.435ZM69.2462 123.856L70.2701 123.742C70.269 123.732 70.2678 123.722 70.2664 123.712L69.2462 123.856ZM91.2109 119L90.3896 119.622C90.3517 119.572 90.3848 119.596 90.442 119.802C90.4925 119.983 90.5442 120.24 90.5915 120.581C90.686 121.261 90.7528 122.198 90.7809 123.376L91.811 123.351L92.841 123.326C92.8119 122.108 92.7421 121.086 92.6326 120.297C92.578 119.904 92.5109 119.549 92.4271 119.249C92.35 118.972 92.2335 118.644 92.0321 118.378L91.2109 119ZM91.811 123.351L90.7809 123.376C90.7983 124.102 90.6326 124.848 90.3793 125.615C90.2533 125.996 90.1099 126.371 89.9624 126.747C89.8185 127.114 89.6642 127.498 89.535 127.857L90.5045 128.206L91.474 128.555C91.5901 128.232 91.7271 127.892 91.8808 127.5C92.0309 127.117 92.1915 126.699 92.3361 126.261C92.6241 125.388 92.8664 124.388 92.841 123.326L91.811 123.351ZM90.5045 128.206L89.535 127.857C89.0456 129.217 87.5407 130.696 86.083 131.506L86.5835 132.406L87.0839 133.307C88.7984 132.354 90.7574 130.547 91.474 128.555L90.5045 128.206ZM86.5835 132.406L86.083 131.506C84.886 132.171 83.0597 132.241 81.1539 132.011C79.297 131.786 77.5969 131.309 76.767 131.087L76.5012 132.083L76.2355 133.078C77.0407 133.293 78.8812 133.811 80.9064 134.056C82.8827 134.296 85.2799 134.309 87.0839 133.307L86.5835 132.406ZM76.5012 132.083L76.767 131.087C74.9121 130.592 72.9585 129.126 72.0541 127.842L71.2116 128.435L70.3691 129.028C71.5413 130.693 73.8965 132.454 76.2355 133.078L76.5012 132.083ZM71.2116 128.435L72.0541 127.842C70.987 126.326 70.4092 124.984 70.2701 123.742L69.2462 123.856L68.2222 123.971C68.4134 125.678 69.1863 127.348 70.3691 129.028L71.2116 128.435ZM69.2462 123.856L70.2664 123.712C70.1951 123.206 70.1092 122.933 70.0559 122.253L69.0287 122.334L68.0015 122.415C68.0594 123.151 68.1894 123.741 68.2259 124L69.2462 123.856ZM69.0287 122.334L70.0559 122.253C70.0042 121.595 70.0035 120.671 70.0035 119.654L68.9731 119.654L67.9428 119.654C67.9428 120.639 67.942 121.657 68.0015 122.415L69.0287 122.334Z" fill="black"/>
<path d="M65.1049 121.776L64.4284 120.999V120.999L65.1049 121.776ZM68.9688 119.328L68.8002 118.312C68.2622 118.401 67.5728 118.741 66.8873 119.163C66.1608 119.61 65.3123 120.229 64.4284 120.999L65.1049 121.776L65.7815 122.553C66.59 121.849 67.3479 121.299 67.9675 120.917C68.6281 120.511 69.0246 120.363 69.1373 120.345L68.9688 119.328ZM65.1049 121.776L64.4284 120.999C64.3464 121.07 64.2611 121.12 64.1087 121.2C63.9938 121.261 63.6948 121.406 63.4531 121.644L64.1762 122.378L64.8993 123.112C64.8783 123.132 64.8652 123.131 65.0703 123.023C65.2378 122.935 65.5065 122.792 65.7815 122.553L65.1049 121.776ZM64.1762 122.378L63.4531 121.644C62.99 122.1 62.8182 122.714 62.8156 123.242L63.8459 123.248L64.8762 123.253C64.8765 123.197 64.886 123.153 64.8961 123.126C64.9059 123.099 64.9117 123.099 64.8993 123.112L64.1762 122.378ZM63.8459 123.248L62.8156 123.242C62.8129 123.771 62.9862 124.26 63.0859 124.559L64.0634 124.234L65.0408 123.908C64.9181 123.54 64.8756 123.381 64.8762 123.253L63.8459 123.248Z" fill="black"/>
<path d="M74.9627 121.016L74.7641 122.027L74.9627 121.016ZM85.6466 120.31L85.2772 119.348C85.2677 119.352 85.2584 119.355 85.249 119.359L85.6466 120.31ZM89.7311 119.273L89.7797 120.302C89.8008 120.301 89.8218 120.3 89.8427 120.297L89.7311 119.273ZM69.9543 119.981L69.9543 121.011C69.9536 121.011 69.9575 121.011 69.9665 121.012C69.9753 121.012 69.9876 121.013 70.0036 121.015C70.0361 121.018 70.0785 121.022 70.1319 121.03C70.2395 121.045 70.375 121.068 70.5385 121.1C70.8662 121.163 71.2723 121.253 71.7337 121.358C72.6433 121.565 73.7574 121.829 74.7641 122.027L74.9627 121.016L75.1612 120.005C74.1943 119.815 73.1296 119.562 72.1911 119.349C71.7284 119.243 71.2932 119.147 70.9291 119.077C70.5929 119.012 70.2295 118.951 69.9543 118.951L69.9543 119.981ZM74.9627 121.016L74.7641 122.027C76.8276 122.432 79.2854 122.383 81.3568 122.177C83.3998 121.972 85.2396 121.597 86.0441 121.26L85.6466 120.31L85.249 119.359C84.7438 119.57 83.1629 119.925 81.152 120.126C79.1695 120.324 76.9402 120.354 75.1612 120.005L74.9627 121.016ZM85.6466 120.31L86.016 121.272C87.4064 120.738 88.8055 120.348 89.7797 120.302L89.7311 119.273L89.6826 118.244C88.3709 118.306 86.7221 118.793 85.2772 119.348L85.6466 120.31ZM89.7311 119.273L89.8427 120.297C90.1429 120.265 90.3882 120.215 90.6221 120.166C90.8562 120.117 91.0777 120.067 91.382 120.016L91.2109 119L91.0399 117.984C90.6836 118.044 90.4129 118.104 90.1962 118.15C89.9791 118.196 89.8148 118.228 89.6196 118.249L89.7311 119.273Z" fill="black"/>
<path d="M95.511 120.035L95.3341 121.05C95.3451 121.052 95.3561 121.054 95.3671 121.055L95.511 120.035ZM91.2106 119L91.0655 120.02C91.3637 120.062 91.9518 120.225 92.7824 120.449C93.5614 120.659 94.489 120.903 95.3341 121.05L95.511 120.035L95.6878 119.02C94.9469 118.891 94.1036 118.671 93.3186 118.46C92.5852 118.262 91.8162 118.045 91.3557 117.98L91.2106 119ZM95.511 120.035L95.3671 121.055C95.5261 121.078 95.6987 121.112 95.9209 121.155C96.1312 121.195 96.3781 121.242 96.6338 121.275L96.7635 120.253L96.8932 119.23C96.7107 119.207 96.5226 119.172 96.3118 119.132C96.113 119.093 95.8784 119.046 95.6549 119.015L95.511 120.035ZM96.7635 120.253L96.6338 121.275C97.2017 121.347 97.292 121.336 97.4678 121.465L98.0781 120.635L98.6885 119.805C97.9747 119.28 97.2017 119.27 96.8932 119.23L96.7635 120.253Z" fill="black"/>
<path d="M75.0023 124.94L75.0223 123.91L75.0023 124.94ZM88.2223 125.16L88.2308 126.19C88.2489 126.19 88.267 126.189 88.2851 126.188L88.2223 125.16ZM92.1859 124.344L91.8557 123.368C91.8106 123.383 91.7667 123.401 91.7242 123.423L92.1859 124.344ZM70.2801 124.886L70.2801 125.917C70.4912 125.917 72.2142 125.917 74.9823 125.971L75.0023 124.94L75.0223 123.91C72.2375 123.856 70.5006 123.856 70.2801 123.856L70.2801 124.886ZM75.0023 124.94L74.9823 125.971C76.7577 126.005 81.6746 126.244 88.2308 126.19L88.2223 125.16L88.2138 124.129C81.6923 124.183 76.8711 123.946 75.0223 123.91L75.0023 124.94ZM88.2223 125.16L88.2851 126.188C89.6421 126.105 90.5391 125.978 91.202 125.814C91.891 125.643 92.299 125.439 92.6476 125.265L92.1859 124.344L91.7242 123.423C91.4204 123.575 91.1735 123.698 90.7072 123.813C90.215 123.935 89.4563 124.052 88.1596 124.131L88.2223 125.16ZM92.1859 124.344L92.5161 125.32C92.6597 125.271 92.8155 125.263 93.1719 125.263L93.1719 124.232L93.1719 123.202C92.8611 123.202 92.3694 123.194 91.8557 123.368L92.1859 124.344Z" fill="black"/>
<path d="M78.6677 127.769L77.7357 128.208V128.208L78.6677 127.769ZM82.592 127.725L82.9966 128.672C83.0531 128.648 83.1073 128.619 83.1586 128.585L82.592 127.725ZM78.1281 125.215L77.0977 125.215C77.0977 125.687 77.0964 126.852 77.7357 128.208L78.6677 127.769L79.5996 127.329C79.1597 126.396 79.1584 125.606 79.1584 125.215L78.1281 125.215ZM78.6677 127.769L77.7357 128.208C78.0537 128.883 78.5987 129.275 79.2056 129.438C79.765 129.588 80.3403 129.538 80.8114 129.444C81.7432 129.258 82.6796 128.807 82.9966 128.672L82.592 127.725L82.1873 126.777C81.7423 126.967 81.0716 127.291 80.4092 127.423C80.0832 127.488 79.8647 127.481 79.7407 127.448C79.6644 127.427 79.6365 127.408 79.5996 127.329L78.6677 127.769ZM82.592 127.725L83.1586 128.585C83.7366 128.204 84.0838 127.645 84.2478 127.001L83.2493 126.747L82.2508 126.492C82.1924 126.722 82.1079 126.81 82.0254 126.864L82.592 127.725ZM83.2493 126.747L84.2478 127.001C84.3186 126.723 84.3607 126.381 84.4047 126.107C84.4549 125.795 84.5297 125.393 84.6822 124.829L83.6875 124.561L82.6928 124.292C82.5183 124.938 82.4295 125.411 82.3702 125.78C82.3046 126.188 82.2912 126.334 82.2508 126.492L83.2493 126.747Z" fill="black"/>
<path d="M128.766 168.771L129.796 168.802C129.798 168.733 129.793 168.663 129.781 168.594L128.766 168.771ZM127.408 164.798L128.353 164.386C128.346 164.37 128.338 164.354 128.331 164.339L127.408 164.798ZM128.166 172.634L129.086 173.096C129.32 172.63 129.476 172.019 129.584 171.334C129.695 170.633 129.766 169.784 129.796 168.802L128.766 168.771L127.736 168.741C127.708 169.665 127.642 170.423 127.549 171.013C127.453 171.62 127.338 171.986 127.245 172.171L128.166 172.634ZM128.766 168.771L129.781 168.594C129.597 167.547 129.124 166.15 128.353 164.386L127.408 164.798L126.464 165.211C127.214 166.925 127.61 168.145 127.751 168.949L128.766 168.771ZM127.408 164.798L128.331 164.339C127.86 163.394 127.286 162.48 126.383 161.237L125.549 161.842L124.715 162.447C125.579 163.637 126.084 164.45 126.486 165.258L127.408 164.798Z" fill="black"/>
<path d="M34.0271 166.099L33.2669 165.403C33.2291 165.444 33.1948 165.489 33.1642 165.536L34.0271 166.099ZM35.3369 164.136L34.4144 163.677C34.4041 163.698 34.3945 163.719 34.3856 163.741L35.3369 164.136ZM30.7062 171.326L31.6113 171.818C32.2327 170.676 33.9395 168.118 34.89 166.662L34.0271 166.099L33.1642 165.536C32.2605 166.921 30.4747 169.595 29.8011 170.834L30.7062 171.326ZM34.0271 166.099L34.7874 166.794C35.4431 166.077 35.96 165.321 36.2882 164.532L35.3369 164.136L34.3856 163.741C34.1709 164.257 33.8049 164.815 33.2669 165.403L34.0271 166.099ZM35.3369 164.136L36.2594 164.595C36.3189 164.476 36.3681 164.397 36.4324 164.323C36.4969 164.249 36.6034 164.151 36.8004 164.031L36.2656 163.15L35.7309 162.27C34.9855 162.722 34.6479 163.208 34.4144 163.677L35.3369 164.136Z" fill="black"/>
<path d="M77.3629 173.441L78.3579 173.173L77.3629 173.441ZM78.1265 180.094L79.1462 179.946L78.1265 180.094ZM78.617 183.307L79.6396 183.18L78.617 183.307ZM79.5392 183.536L79.9958 184.459V184.459L79.5392 183.536ZM84.8256 182.063L84.7187 181.038L84.8256 182.063ZM87.7165 180.98L88.5179 181.628L87.7165 180.98ZM86.6864 172.912L87.68 172.64L86.6864 172.912ZM85.9784 164.791L84.9552 164.912L85.9784 164.791ZM85.5434 163.591L86.404 163.024L85.5434 163.591ZM76.8772 163.798L75.9875 163.279C75.9277 163.381 75.886 163.493 75.8643 163.61L76.8772 163.798ZM76.8723 169.356L75.8888 169.663C75.8943 169.681 75.9004 169.699 75.907 169.716L76.8723 169.356ZM75.5119 163.476L74.4816 163.476C74.4816 164.234 74.717 165.899 75.0532 167.752C75.3961 169.642 75.8647 171.837 76.3679 173.708L77.3629 173.441L78.3579 173.173C77.8734 171.371 77.4165 169.234 77.0808 167.384C76.7385 165.498 76.5422 164.017 76.5422 163.476L75.5119 163.476ZM77.3629 173.441L76.3679 173.708C76.5758 174.481 76.6807 175.492 76.7725 176.663C76.8614 177.797 76.9377 179.074 77.1068 180.241L78.1265 180.094L79.1462 179.946C78.9898 178.866 78.9204 177.694 78.8269 176.502C78.7364 175.348 78.6221 174.156 78.3579 173.173L77.3629 173.441ZM78.1265 180.094L77.1068 180.241C77.2247 181.056 77.4318 182.119 77.5945 183.433L78.617 183.307L79.6396 183.18C79.4784 181.878 79.2404 180.598 79.1462 179.946L78.1265 180.094ZM78.617 183.307L77.5945 183.433C77.6277 183.702 77.7279 184.008 77.9632 184.266C78.205 184.531 78.5081 184.656 78.7822 184.697C79.2672 184.771 79.7182 184.597 79.9958 184.459L79.5392 183.536L79.0826 182.612C79.0228 182.642 78.985 182.654 78.9714 182.657C78.9527 182.662 78.9994 182.646 79.0901 182.66C79.1956 182.676 79.3537 182.732 79.4852 182.877C79.6104 183.014 79.6354 183.147 79.6396 183.18L78.617 183.307ZM79.5392 183.536L79.9958 184.459C81.8652 183.535 83.4247 183.245 84.9325 183.087L84.8256 182.063L84.7187 181.038C83.0609 181.211 81.242 181.545 79.0826 182.612L79.5392 183.536ZM84.8256 182.063L84.9325 183.087C85.9904 182.977 87.5524 182.823 88.5179 181.628L87.7165 180.98L86.9151 180.333C86.5725 180.756 85.9474 180.91 84.7187 181.038L84.8256 182.063ZM87.7165 180.98L88.5179 181.628C89.3391 180.611 89.7542 179.593 89.8515 178.586C89.9478 177.589 89.7247 176.687 89.4081 175.911C89.0962 175.147 88.6711 174.455 88.3375 173.904C87.9709 173.298 87.7575 172.922 87.68 172.64L86.6864 172.912L85.6927 173.185C85.8622 173.803 86.2568 174.445 86.5744 174.97C86.9251 175.55 87.2603 176.102 87.5002 176.69C87.7351 177.265 87.8549 177.823 87.8003 178.387C87.7468 178.942 87.5172 179.587 86.9151 180.333L87.7165 180.98ZM86.6864 172.912L87.68 172.64C87.4615 171.843 87.3673 170.617 87.2931 169.136C87.2218 167.711 87.1696 166.089 87.0015 164.67L85.9784 164.791L84.9552 164.912C85.1125 166.24 85.1606 167.753 85.235 169.239C85.3067 170.671 85.4038 172.132 85.6927 173.185L86.6864 172.912ZM85.9784 164.791L87.0015 164.67C86.9289 164.056 86.7065 163.483 86.404 163.024L85.5434 163.591L84.6829 164.157C84.8153 164.358 84.9215 164.628 84.9552 164.912L85.9784 164.791ZM85.5434 163.591L86.404 163.024C85.74 162.015 84.6943 161.536 83.6575 161.342C82.626 161.149 81.5039 161.217 80.4932 161.388C79.4742 161.56 78.507 161.847 77.7595 162.138C77.3867 162.284 77.0504 162.437 76.7806 162.588C76.6466 162.663 76.5123 162.747 76.3924 162.838C76.2942 162.913 76.1153 163.06 75.9875 163.279L76.8772 163.798L77.767 164.318C77.6868 164.455 77.6029 164.507 77.642 164.477C77.6593 164.464 77.7044 164.433 77.7868 164.387C77.9498 164.296 78.1942 164.181 78.5083 164.058C79.1344 163.814 79.9658 163.567 80.8362 163.42C81.7149 163.272 82.5732 163.236 83.2792 163.368C83.9799 163.498 84.4288 163.771 84.6829 164.157L85.5434 163.591ZM76.8772 163.798L75.8643 163.61C75.6566 164.726 75.5852 165.968 75.5986 167.038C75.6117 168.075 75.7056 169.076 75.8888 169.663L76.8723 169.356L77.8559 169.049C77.7676 168.766 77.6719 168.021 77.6592 167.012C77.6469 166.037 77.7136 164.936 77.8902 163.987L76.8772 163.798ZM76.8723 169.356L75.907 169.716C76.1236 170.297 76.4118 170.825 77.3226 171.967L78.1281 171.325L78.9336 170.682C78.0916 169.627 77.9481 169.292 77.8377 168.996L76.8723 169.356Z" fill="black"/>
<path d="M80.6877 183.915L81.2108 183.027C81.1313 182.98 81.0458 182.944 80.9568 182.92L80.6877 183.915ZM79.4385 184.08L80.167 184.809C80.093 184.883 80.0434 184.88 80.0864 184.873C80.1266 184.866 80.2346 184.86 80.4187 184.91L80.6877 183.915L80.9568 182.92C80.1647 182.706 79.2872 182.774 78.7099 183.352L79.4385 184.08ZM80.6877 183.915L80.1646 184.803C80.1522 184.795 80.1847 184.812 80.264 184.91C80.3432 185.007 80.4246 185.128 80.5401 185.301L81.3974 184.729L82.2547 184.158C82.151 184.002 82.0149 183.797 81.8628 183.61C81.7108 183.423 81.4979 183.196 81.2108 183.027L80.6877 183.915ZM81.3974 184.729L80.5401 185.301C80.7592 185.629 80.975 185.953 81.1974 186.287L82.0547 185.715L82.912 185.144C82.6896 184.81 82.4738 184.486 82.2547 184.158L81.3974 184.729Z" fill="black"/>
<path d="M86.6294 185.06L87.6597 185.06C87.6597 184.924 87.6597 184.872 87.6597 184.465L86.6294 184.465L85.5991 184.465C85.5991 184.815 85.5991 184.982 85.5991 185.06L86.6294 185.06ZM86.6294 184.465L87.6597 184.465C87.6597 184.059 87.6642 183.528 87.7441 183.162L86.7373 182.943L85.7306 182.723C85.5946 183.348 85.5991 184.113 85.5991 184.465L86.6294 184.465ZM86.7373 182.943L87.7441 183.162C87.7716 183.036 87.7964 182.981 87.8596 182.901C87.9517 182.784 88.1376 182.602 88.5577 182.286L87.9375 181.463L87.3173 180.64C86.861 180.984 86.5007 181.295 86.2388 181.628C85.948 181.999 85.811 182.354 85.7306 182.723L86.7373 182.943Z" fill="black"/>
<path d="M80.6341 185.224L81.4954 185.79L81.4954 185.79L80.6341 185.224ZM85.7406 184.675L85.8463 183.65L85.7406 184.675ZM86.4143 185.924L85.4893 185.47L86.4143 185.924ZM81.1328 187.947L81.2775 188.967L81.1328 187.947ZM79.7576 187.08L79.0969 186.29L79.7576 187.08ZM88.5219 185.713L88.5219 184.683L88.5219 185.713ZM88.5971 185.767L88.4302 184.75C88.4029 184.755 88.3759 184.76 88.349 184.767L88.5971 185.767ZM85.4413 186.094L85.4021 185.065C85.3871 185.065 85.3722 185.066 85.3573 185.067L85.4413 186.094ZM80.7436 185.386L80.7436 184.356C80.7023 184.356 80.7339 184.355 80.7757 184.359C80.7896 184.361 81.0049 184.376 81.2237 184.539C81.3544 184.637 81.4807 184.782 81.5556 184.978C81.628 185.167 81.6284 185.339 81.6118 185.459C81.5959 185.574 81.5624 185.659 81.5426 185.702C81.5216 185.749 81.5025 185.779 81.4954 185.79L80.6341 185.224L79.7728 184.659C79.7205 184.738 79.6054 184.924 79.5705 185.177C79.5508 185.32 79.5531 185.511 79.6315 185.715C79.7125 185.927 79.849 186.085 79.9933 186.192C80.2394 186.376 80.4952 186.402 80.5564 186.408C80.6454 186.418 80.731 186.416 80.7436 186.416L80.7436 185.386ZM80.6341 185.224L81.4954 185.79C81.3822 185.962 81.2883 185.934 81.5431 185.848C81.7411 185.781 82.0454 185.716 82.4566 185.669C83.2728 185.576 84.3841 185.571 85.6349 185.7L85.7406 184.675L85.8463 183.65C84.4809 183.509 83.2169 183.508 82.2229 183.621C81.729 183.678 81.2694 183.766 80.8854 183.895C80.5581 184.005 80.0639 184.215 79.7728 184.659L80.6341 185.224ZM85.7406 184.675L85.6349 185.7C85.7386 185.71 85.7279 185.73 85.6714 185.69C85.6428 185.67 85.6111 185.64 85.5827 185.601C85.5546 185.562 85.5363 185.523 85.5253 185.489C85.5046 185.425 85.5128 185.392 85.5107 185.407C85.5088 185.419 85.5019 185.444 85.4893 185.47L86.4143 185.924L87.3392 186.378C87.5114 186.027 87.679 185.448 87.4849 184.852C87.3799 184.529 87.1749 184.229 86.8611 184.007C86.5579 183.793 86.2048 183.687 85.8463 183.65L85.7406 184.675ZM86.4143 185.924L85.4893 185.47C85.2604 185.937 84.777 186.26 83.9112 186.487C83.0109 186.722 82.0589 186.775 80.988 186.927L81.1328 187.947L81.2775 188.967C82.1198 188.847 83.3832 188.755 84.4327 188.481C85.5166 188.197 86.7174 187.645 87.3392 186.378L86.4143 185.924ZM81.1328 187.947L80.988 186.927C80.7633 186.959 80.4646 186.971 80.1966 186.957C80.064 186.95 79.9577 186.938 79.8841 186.924C79.788 186.906 79.8179 186.899 79.8998 186.946L79.3881 187.84L78.8764 188.735C79.0997 188.863 79.344 188.92 79.5087 188.95C79.6957 188.985 79.8963 189.005 80.0901 189.015C80.475 189.035 80.9072 189.019 81.2775 188.967L81.1328 187.947ZM79.3881 187.84L79.8998 186.946C79.9638 186.983 80.0631 187.054 80.1508 187.178C80.2435 187.309 80.2963 187.462 80.3078 187.615C80.3281 187.887 80.2137 188.054 80.2116 188.058C80.1965 188.081 80.1991 188.071 80.2468 188.024C80.2895 187.982 80.3465 187.931 80.4184 187.871L79.7576 187.08L79.0969 186.29C78.9404 186.42 78.6585 186.661 78.4755 186.947C78.3867 187.086 78.2239 187.382 78.2528 187.769C78.2884 188.244 78.5826 188.567 78.8764 188.735L79.3881 187.84ZM79.7576 187.08L80.4184 187.871C80.7149 187.623 81.1801 187.399 81.8234 187.22C82.4573 187.043 83.1994 186.927 83.9937 186.854C85.5908 186.708 87.2632 186.744 88.5219 186.744L88.5219 185.713L88.5219 184.683C87.3263 184.683 85.5232 184.644 83.8051 184.802C82.9417 184.882 82.0663 185.013 81.2703 185.235C80.4839 185.454 79.707 185.78 79.0969 186.29L79.7576 187.08ZM88.5219 185.713L88.5219 186.744C88.708 186.744 88.8154 186.744 88.8739 186.744C88.9156 186.745 88.8967 186.745 88.8619 186.742C88.8529 186.742 88.8136 186.738 88.7629 186.728C88.7399 186.724 88.6826 186.712 88.6122 186.687C88.597 186.682 88.3414 186.601 88.1452 186.347C88.0166 186.181 87.9004 185.919 87.9374 185.599C87.9713 185.307 88.1176 185.112 88.2069 185.016C88.364 184.847 88.5373 184.779 88.5594 184.769C88.6529 184.73 88.7317 184.714 88.7371 184.713C88.7887 184.702 88.8298 184.698 88.7884 184.703C88.7645 184.706 88.7504 184.707 88.7073 184.712C88.6375 184.721 88.5366 184.733 88.4302 184.75L88.5971 185.767L88.7641 186.784C88.822 186.774 88.8848 186.766 88.9455 186.759C88.9496 186.759 89.093 186.744 89.1743 186.727C89.1835 186.725 89.2651 186.708 89.3604 186.668C89.3834 186.658 89.5572 186.59 89.7147 186.421C89.8041 186.324 89.9506 186.129 89.9844 185.836C90.0215 185.517 89.9052 185.255 89.7765 185.088C89.58 184.834 89.3239 184.753 89.3079 184.747C89.2367 184.722 89.1782 184.71 89.1538 184.705C89.1002 184.695 89.0568 184.691 89.0424 184.69C88.9861 184.685 88.925 184.684 88.8999 184.684C88.8247 184.683 88.6997 184.683 88.5219 184.683L88.5219 185.713ZM88.5971 185.767L88.349 184.767C87.8064 184.902 86.8077 185.011 85.4021 185.065L85.4413 186.094L85.4806 187.124C86.9037 187.069 88.0831 186.956 88.8453 186.767L88.5971 185.767ZM85.4413 186.094L85.3573 185.067C84.5787 185.131 83.9107 185.271 82.9018 185.771L83.3598 186.694L83.8179 187.617C84.5748 187.241 84.9861 187.165 85.5254 187.121L85.4413 186.094Z" fill="black"/>
<path d="M83.084 196.271L82.0537 196.257C82.0531 196.304 82.0557 196.351 82.0615 196.398L83.084 196.271ZM84.0634 201.732L83.0715 202.01C83.0792 202.038 83.0881 202.065 83.0981 202.092L84.0634 201.732ZM83.3571 188.984L82.3267 188.984C82.3267 189.435 82.2763 190.111 82.2131 191.307C82.1514 192.474 82.0826 194.066 82.0537 196.257L83.084 196.271L84.1142 196.284C84.1426 194.125 84.2104 192.561 84.2709 191.416C84.3299 190.3 84.3874 189.508 84.3874 188.984L83.3571 188.984ZM83.084 196.271L82.0615 196.398C82.335 198.595 82.5582 200.183 83.0715 202.01L84.0634 201.732L85.0554 201.453C84.5876 199.788 84.3791 198.334 84.1064 196.143L83.084 196.271ZM84.0634 201.732L83.0981 202.092C83.2706 202.554 83.6542 203.486 84.7763 203.727L84.9922 202.719L85.2081 201.712C85.1866 201.707 85.1854 201.704 85.1927 201.709C85.1989 201.713 85.1965 201.713 85.1851 201.699C85.1722 201.683 85.1507 201.652 85.1224 201.595C85.0937 201.537 85.0639 201.466 85.0288 201.372L84.0634 201.732Z" fill="black"/>
<path d="M86.2963 193.23L87.2468 192.833H87.2468L86.2963 193.23ZM87.3329 197.753L88.3533 197.61C88.3522 197.602 88.351 197.595 88.3498 197.587L87.3329 197.753ZM85.3168 187.676L84.2865 187.676C84.2865 188.458 84.4036 189.581 84.585 190.66C84.7645 191.728 85.0246 192.86 85.3457 193.628L86.2963 193.23L87.2468 192.833C87.0201 192.291 86.7905 191.349 86.6172 190.318C86.4459 189.299 86.3472 188.3 86.3472 187.676L85.3168 187.676ZM86.2963 193.23L85.3457 193.628C85.8088 194.735 86.0314 196.176 86.3161 197.919L87.3329 197.753L88.3498 197.587C88.0818 195.946 87.8258 194.217 87.2468 192.833L86.2963 193.23ZM87.3329 197.753L86.3126 197.896C86.3456 198.131 86.3969 198.358 86.432 198.528C86.4694 198.709 86.5026 198.887 86.5254 199.11L87.5504 199.006L88.5754 198.901C88.5426 198.579 88.4941 198.324 88.4501 198.111C88.4038 197.887 88.3742 197.759 88.3533 197.61L87.3329 197.753ZM87.5504 199.006L86.5254 199.11C86.5718 199.565 86.5634 200.127 86.3291 200.685L87.279 201.084L88.2289 201.483C88.6486 200.484 88.6402 199.535 88.5754 198.901L87.5504 199.006Z" fill="black"/>
<path d="M86.3047 201.739L86.3047 200.709C86.2976 200.709 86.2929 200.709 86.2884 200.709C86.2842 200.709 86.2816 200.708 86.2798 200.708C86.2764 200.708 86.278 200.708 86.2825 200.709C86.2872 200.709 86.2944 200.709 86.3033 200.711C86.3123 200.712 86.3215 200.713 86.3306 200.715C86.3396 200.717 86.3472 200.719 86.3531 200.72C86.359 200.722 86.3623 200.723 86.363 200.723C86.364 200.724 86.3536 200.72 86.3294 200.708L85.8714 201.631L85.4134 202.554C85.5836 202.638 85.7516 202.701 85.9276 202.736C86.1046 202.771 86.2489 202.769 86.3047 202.769L86.3047 201.739ZM85.8714 201.631L86.3294 200.708C86.2632 200.675 86.1692 200.619 86.002 200.521C85.8535 200.433 85.6632 200.321 85.4641 200.221L85.0015 201.142L84.5389 202.063C84.6685 202.128 84.8044 202.207 84.9543 202.295C85.0855 202.373 85.2621 202.479 85.4134 202.554L85.8714 201.631ZM85.0015 201.142L85.4641 200.221C84.9792 199.978 84.518 199.851 83.4767 199.734L83.3615 200.758L83.2462 201.782C84.1801 201.887 84.3664 201.976 84.5389 202.063L85.0015 201.142Z" fill="black"/>
<path d="M83.7769 200.13L84.5927 199.501L83.7769 200.13ZM82.2798 200.328L81.559 199.591L82.2798 200.328ZM81.7574 204.181L82.7847 204.26L81.7574 204.181ZM81.2678 212.518L82.2822 212.699L81.2678 212.518ZM80.691 216.298L79.6797 216.101L80.691 216.298ZM81.3509 221.026L80.4814 221.579L81.3509 221.026ZM82.765 223.42L83.7155 223.022V223.022L82.765 223.42ZM83.6584 225.984L82.6572 226.228C82.6724 226.29 82.6935 226.351 82.7201 226.41L83.6584 225.984ZM84.6962 228.609L83.7223 228.946C83.7368 228.988 83.754 229.029 83.7738 229.068L84.6962 228.609ZM84.4956 202.665L85.5259 202.665C85.5259 202.252 85.4548 201.693 85.32 201.151C85.1896 200.627 84.9677 199.987 84.5927 199.501L83.7769 200.13L82.9611 200.76C83.0765 200.909 83.2139 201.222 83.3203 201.649C83.4222 202.058 83.4652 202.449 83.4652 202.665L84.4956 202.665ZM83.7769 200.13L84.5927 199.501C84.1084 198.873 83.3536 198.932 83.0746 198.959L83.1732 199.984L83.2717 201.01C83.3183 201.005 83.3452 201.005 83.3576 201.005C83.3706 201.005 83.3564 201.006 83.3243 200.999C83.2908 200.992 83.2307 200.975 83.16 200.934C83.086 200.891 83.0169 200.832 82.9611 200.76L83.7769 200.13ZM83.1732 199.984L83.0746 198.959C82.8508 198.98 82.5963 199.033 82.352 199.119C82.122 199.201 81.8131 199.343 81.559 199.591L82.2798 200.328L83.0005 201.064C82.9705 201.093 82.9539 201.1 82.9669 201.093C82.978 201.087 83.0019 201.075 83.0394 201.062C83.1182 201.034 83.2075 201.016 83.2717 201.01L83.1732 199.984ZM82.2798 200.328L81.559 199.591C80.8973 200.239 80.8034 201.106 80.7781 201.774C80.7649 202.12 80.7705 202.517 80.77 202.886C80.7694 203.271 80.763 203.673 80.7301 204.102L81.7574 204.181L82.7847 204.26C82.8235 203.755 82.8301 203.294 82.8306 202.889C82.8312 202.469 82.826 202.148 82.8373 201.852C82.8608 201.233 82.9563 201.107 83.0005 201.064L82.2798 200.328ZM81.7574 204.181L80.7301 204.102C80.5059 207.018 80.4547 208.718 80.4235 209.888C80.3921 211.067 80.3809 211.622 80.2535 212.337L81.2678 212.518L82.2822 212.699C82.442 211.802 82.4531 211.082 82.4834 209.943C82.514 208.795 82.5639 207.132 82.7847 204.26L81.7574 204.181ZM81.2678 212.518L80.2535 212.337C80.1118 213.133 80.0227 213.802 79.9418 214.405C79.8604 215.012 79.7884 215.542 79.6797 216.101L80.691 216.298L81.7023 216.495C81.8244 215.868 81.9036 215.28 81.9842 214.679C82.0654 214.074 82.1493 213.445 82.2822 212.699L81.2678 212.518ZM80.691 216.298L79.6797 216.101C79.4993 217.026 79.5214 218.092 79.6604 219.04C79.7964 219.967 80.0654 220.924 80.4814 221.579L81.3509 221.026L82.2204 220.473C82.031 220.175 81.8179 219.55 81.6992 218.741C81.5836 217.952 81.5784 217.13 81.7023 216.495L80.691 216.298ZM81.3509 221.026L80.4814 221.579C81.1402 222.615 81.5692 223.231 81.8144 223.818L82.765 223.42L83.7155 223.022C83.3813 222.223 82.7958 221.378 82.2204 220.473L81.3509 221.026ZM82.765 223.42L81.8144 223.818C82.1056 224.514 82.4194 225.249 82.6572 226.228L83.6584 225.984L84.6596 225.741C84.3785 224.585 84.0033 223.711 83.7155 223.022L82.765 223.42ZM83.6584 225.984L82.7201 226.41C83.1356 227.326 83.4699 228.215 83.7223 228.946L84.6962 228.609L85.6702 228.273C85.4036 227.501 85.0461 226.549 84.5967 225.559L83.6584 225.984ZM84.6962 228.609L83.7738 229.068C83.9303 229.383 84.1662 229.716 84.6528 230.012L85.1875 229.131L85.7222 228.25C85.6873 228.229 85.6665 228.213 85.6553 228.204C85.6497 228.199 85.6461 228.196 85.6442 228.194C85.6422 228.192 85.6413 228.191 85.6412 228.191C85.641 228.191 85.641 228.191 85.6409 228.191C85.6409 228.191 85.6403 228.19 85.639 228.188C85.6363 228.184 85.6302 228.174 85.6187 228.15L84.6962 228.609Z" fill="black"/>
<path d="M96.5711 222.333L97.5885 222.496L96.5711 222.333ZM97.0027 217.689L95.9892 217.503L97.0027 217.689ZM98.3285 215.152L99.2567 215.599V215.599L98.3285 215.152ZM99.3673 212.702L100.35 213.01L99.3673 212.702ZM99.6284 210.109L98.6048 210.226L99.6284 210.109ZM97.9004 209.008L97.9028 207.977C97.6086 207.977 97.3281 208.102 97.1321 208.321L97.9004 209.008ZM97.3227 209.928L96.4329 209.408C96.422 209.427 96.4117 209.446 96.402 209.465L97.3227 209.928ZM96.2545 225.672L97.2849 225.672C97.2849 224.828 97.3908 223.733 97.5885 222.496L96.5711 222.333L95.5537 222.17C95.3466 223.466 95.2242 224.678 95.2242 225.672L96.2545 225.672ZM96.5711 222.333L97.5885 222.496C97.7214 221.665 97.7742 220.763 97.8219 219.963C97.8716 219.13 97.9153 218.425 98.0161 217.874L97.0027 217.689L95.9892 217.503C95.8609 218.203 95.8121 219.048 95.7649 219.84C95.7158 220.663 95.6674 221.459 95.5537 222.17L96.5711 222.333ZM97.0027 217.689L98.0161 217.874C98.076 217.548 98.222 217.257 98.4524 216.9C98.6505 216.592 99.0186 216.093 99.2567 215.599L98.3285 215.152L97.4003 214.705C97.2354 215.047 97.0365 215.293 96.7204 215.783C96.4366 216.223 96.1212 216.783 95.9892 217.503L97.0027 217.689ZM98.3285 215.152L99.2567 215.599C99.6075 214.871 100.034 214.019 100.35 213.01L99.3673 212.702L98.3841 212.393C98.1212 213.232 97.7683 213.941 97.4003 214.705L98.3285 215.152ZM99.3673 212.702L100.35 213.01C100.68 211.959 100.753 210.879 100.652 209.992L99.6284 210.109L98.6048 210.226C98.6746 210.837 98.6244 211.627 98.3841 212.393L99.3673 212.702ZM99.6284 210.109L100.652 209.992C100.538 208.991 99.8072 208.479 99.2627 208.251C98.7262 208.026 98.1757 207.978 97.9028 207.977L97.9004 209.008L97.898 210.038C97.9348 210.038 98.0265 210.043 98.1422 210.062C98.258 210.082 98.3714 210.112 98.4653 210.151C98.5615 210.191 98.6017 210.227 98.6115 210.237C98.6145 210.24 98.6112 210.238 98.6073 210.229C98.6031 210.22 98.6038 210.217 98.6048 210.226L99.6284 210.109ZM97.9004 209.008L97.1321 208.321C96.9618 208.512 96.8268 208.726 96.7243 208.899C96.6553 209.015 96.4837 209.321 96.4329 209.408L97.3227 209.928L98.2124 210.448C98.3631 210.19 98.3788 210.149 98.4975 209.949C98.5827 209.805 98.6358 209.731 98.6687 209.694L97.9004 209.008ZM97.3227 209.928L96.402 209.465C96.2362 209.795 96.1604 210.104 96.0955 210.68L97.1194 210.796L98.1433 210.911C98.1707 210.668 98.1935 210.546 98.2098 210.482C98.2211 210.436 98.228 210.421 98.2433 210.391L97.3227 209.928Z" fill="black"/>
<path d="M97.1537 207.861L98.1821 207.799C98.1597 207.429 97.9408 207.1 97.6087 206.937L97.1537 207.861ZM94.8773 207.509L95.2031 208.486L94.8773 207.509ZM96.9504 210.45L97.9705 210.596C98.0133 210.294 98.2744 209.318 98.1821 207.799L97.1537 207.861L96.1252 207.923C96.2008 209.168 96.0017 209.804 95.9303 210.305L96.9504 210.45ZM97.1537 207.861L97.6087 206.937C96.3362 206.31 95.1888 206.319 94.5515 206.532L94.8773 207.509L95.2031 208.486C95.1987 208.488 95.237 208.476 95.3223 208.468C95.4035 208.46 95.5139 208.458 95.6494 208.471C95.9189 208.496 96.28 208.579 96.6986 208.785L97.1537 207.861ZM94.8773 207.509L94.5515 206.532C94.4513 206.565 94.254 206.629 94.0246 206.781C93.8116 206.923 93.6125 207.113 93.4029 207.356L94.1828 208.029L94.9627 208.702C95.1025 208.54 95.1638 208.499 95.1672 208.496C95.1677 208.496 95.1658 208.497 95.162 208.499C95.1581 208.501 95.1547 208.503 95.1527 208.504C95.1524 208.504 95.1555 208.502 95.2031 208.486L94.8773 207.509Z" fill="black"/>
<path d="M84.3691 202.336L85.3734 202.105L85.3727 202.102L84.3691 202.336ZM84.7429 204.221L83.73 204.409C83.7338 204.43 83.7383 204.45 83.7434 204.471L84.7429 204.221ZM83.9033 200.582L82.8868 200.751C82.9057 200.864 82.94 200.986 82.9636 201.068C82.9869 201.149 83.0306 201.296 83.0646 201.413C83.1423 201.681 83.246 202.055 83.3655 202.569L84.3691 202.336L85.3727 202.102C85.2429 201.544 85.1291 201.134 85.0439 200.84C84.9965 200.676 84.9724 200.597 84.9444 200.499C84.9167 200.403 84.9162 200.392 84.9197 200.413L83.9033 200.582ZM84.3691 202.336L83.3648 202.566C83.5769 203.491 83.6328 203.888 83.73 204.409L84.7429 204.221L85.7558 204.032C85.6673 203.557 85.5981 203.085 85.3734 202.105L84.3691 202.336ZM84.7429 204.221L83.7434 204.471C83.7599 204.537 83.7994 204.706 83.9011 204.899C84.0003 205.088 84.1329 205.254 84.2918 205.415L85.0234 204.689L85.7551 203.964C85.7254 203.934 85.7125 203.918 85.7096 203.914C85.7084 203.912 85.7097 203.914 85.7127 203.919C85.7157 203.923 85.72 203.93 85.7249 203.94C85.7298 203.949 85.7345 203.959 85.7388 203.969C85.7431 203.98 85.7462 203.988 85.7482 203.994C85.75 204 85.7506 204.002 85.7497 203.999C85.7492 203.997 85.7484 203.994 85.7472 203.989C85.7459 203.984 85.7446 203.979 85.7425 203.971L84.7429 204.221Z" fill="black"/>
<path d="M86.2391 203.028L85.4982 202.312L86.2391 203.028ZM87.2197 201.799L86.4014 201.173L87.2197 201.799ZM88.3245 200.196L89.1287 200.841L88.3245 200.196ZM91.495 199.401L91.5393 200.431L91.495 199.401ZM92.7431 200.473L93.5832 199.877V199.877L92.7431 200.473ZM92.8691 201.889L91.8612 201.675V201.675L92.8691 201.889ZM92.2936 203.025L91.351 202.609L92.2936 203.025ZM91.5473 204.316L90.6844 203.753V203.753L91.5473 204.316ZM90.8621 205.063L89.9117 204.665L90.8621 205.063ZM90.9541 205.312L90.304 206.112L90.9541 205.312ZM92.6021 206.043L92.0941 206.94V206.94L92.6021 206.043ZM94.2674 207.66L95.1096 207.067C95.0996 207.053 95.0893 207.039 95.0786 207.025L94.2674 207.66ZM94.7346 208.408L93.8254 208.892C93.83 208.901 93.8347 208.91 93.8396 208.918L94.7346 208.408ZM85.4009 204.411L86.4068 204.634C86.4056 204.639 86.4424 204.518 86.5622 204.309C86.6719 204.117 86.8169 203.913 86.9801 203.744L86.2391 203.028L85.4982 202.312C85.1946 202.626 84.9514 202.975 84.774 203.284C84.6067 203.576 84.4578 203.904 84.3949 204.188L85.4009 204.411ZM86.2391 203.028L86.9801 203.744C87.4419 203.266 87.7317 202.826 88.0381 202.425L87.2197 201.799L86.4014 201.173C85.9937 201.706 85.8499 201.948 85.4982 202.312L86.2391 203.028ZM87.2197 201.799L88.0381 202.425C88.2664 202.127 88.4859 201.79 88.6684 201.51C88.8657 201.208 89.0111 200.987 89.1287 200.841L88.3245 200.196L87.5203 199.552C87.3261 199.795 87.1198 200.113 86.943 200.384C86.7515 200.677 86.5745 200.947 86.4014 201.173L87.2197 201.799ZM88.3245 200.196L89.1287 200.841C89.0957 200.882 89.1996 200.758 89.7313 200.636C90.1986 200.529 90.8192 200.461 91.5393 200.431L91.495 199.401L91.4508 198.372C90.6731 198.405 89.9122 198.481 89.2705 198.628C88.6932 198.76 87.9607 199.002 87.5203 199.552L88.3245 200.196ZM91.495 199.401L91.5393 200.431C91.3962 200.437 91.3518 200.342 91.4538 200.451C91.5039 200.504 91.5633 200.58 91.6421 200.692C91.6808 200.747 91.7194 200.804 91.7636 200.868C91.806 200.93 91.8538 201 91.903 201.07L92.7431 200.473L93.5832 199.877C93.4709 199.719 93.2188 199.321 92.9581 199.043C92.6655 198.73 92.1686 198.341 91.4508 198.372L91.495 199.401ZM92.7431 200.473L91.903 201.07C91.869 201.022 91.9022 201.038 91.9089 201.198C91.9149 201.341 91.8956 201.514 91.8612 201.675L92.8691 201.889L93.877 202.103C93.9355 201.828 93.9831 201.475 93.9678 201.111C93.9532 200.764 93.8769 200.29 93.5832 199.877L92.7431 200.473ZM92.8691 201.889L91.8612 201.675C91.8613 201.675 91.8602 201.68 91.8563 201.691C91.8523 201.702 91.8458 201.719 91.8354 201.741C91.8133 201.788 91.7814 201.845 91.7317 201.928C91.6534 202.058 91.4717 202.335 91.351 202.609L92.2936 203.025L93.2363 203.441C93.2873 203.325 93.3513 203.233 93.4968 202.991C93.6134 202.798 93.7962 202.484 93.877 202.103L92.8691 201.889ZM92.2936 203.025L91.351 202.609C91.1855 202.984 90.9579 203.334 90.6844 203.753L91.5473 204.316L92.4102 204.879C92.666 204.487 92.9912 203.996 93.2363 203.441L92.2936 203.025ZM91.5473 204.316L90.6844 203.753C90.6275 203.84 90.5615 203.906 90.4546 204C90.4148 204.034 90.3159 204.118 90.2387 204.194C90.1602 204.272 90.0099 204.431 89.9117 204.665L90.8621 205.063L91.8126 205.461C91.7534 205.602 91.6743 205.673 91.6892 205.658C91.7055 205.642 91.7223 205.628 91.8101 205.552C91.9586 205.422 92.1962 205.207 92.4102 204.879L91.5473 204.316ZM90.8621 205.063L89.9117 204.665C89.6121 205.381 90.0828 205.932 90.304 206.112L90.9541 205.312L91.6042 204.513C91.6741 204.57 91.7594 204.662 91.818 204.805C91.8805 204.956 91.9219 205.2 91.8126 205.461L90.8621 205.063ZM90.9541 205.312L90.304 206.112C90.6516 206.394 91.0979 206.547 91.3558 206.639C91.6802 206.754 91.9014 206.83 92.0941 206.94L92.6021 206.043L93.1101 205.147C92.7255 204.929 92.3078 204.79 92.0451 204.697C91.8981 204.645 91.7937 204.606 91.7096 204.568C91.6251 204.53 91.6005 204.51 91.6042 204.513L90.9541 205.312ZM92.6021 206.043L92.0941 206.94C92.5309 207.187 92.9514 207.651 93.4563 208.296L94.2674 207.66L95.0786 207.025C94.5819 206.391 93.9414 205.618 93.1101 205.147L92.6021 206.043ZM94.2674 207.66L93.4253 208.254C93.593 208.492 93.7257 208.705 93.8254 208.892L94.7346 208.408L95.6439 207.923C95.4953 207.644 95.3144 207.357 95.1096 207.067L94.2674 207.66ZM94.7346 208.408L93.8396 208.918C93.8768 208.983 93.9209 209.056 93.9541 209.112C93.9923 209.176 94.0419 209.261 94.1152 209.393L95.0156 208.892L95.916 208.391C95.7762 208.139 95.6432 207.921 95.6297 207.897L94.7346 208.408Z" fill="black"/>
<path d="M87.3594 214.328L88.2809 213.867C88.2628 213.83 88.2628 213.83 88.2627 213.829C88.2626 213.829 88.2625 213.829 88.2622 213.828C88.2619 213.827 88.2613 213.825 88.2604 213.823C88.2588 213.818 88.2558 213.808 88.2516 213.791L87.2525 214.043L86.2534 214.295C86.3152 214.54 86.3867 214.686 86.4378 214.788L87.3594 214.328ZM87.2525 214.043L88.2516 213.791C88.2379 213.737 88.229 213.688 88.1799 213.469C88.136 213.272 88.0678 212.977 87.9509 212.5L86.9501 212.745L85.9494 212.99C86.0634 213.456 86.1284 213.737 86.1689 213.919C86.2043 214.077 86.2311 214.206 86.2534 214.295L87.2525 214.043ZM86.9501 212.745L87.9509 212.5C87.7172 211.546 87.296 209.897 86.8604 207.977L85.8556 208.205L84.8508 208.433C85.2917 210.376 85.7212 212.059 85.9494 212.99L86.9501 212.745Z" fill="black"/>
<path d="M90.8868 210.54L91.8222 210.972C91.8267 210.963 91.831 210.953 91.8352 210.943L90.8868 210.54ZM89.7268 213.791L90.7521 213.892C90.8037 213.372 90.9437 212.874 91.8222 210.972L90.8868 210.54L89.9515 210.108C89.0813 211.992 88.7916 212.78 88.7014 213.689L89.7268 213.791ZM90.8868 210.54L91.8352 210.943C92.0566 210.422 92.1546 210.053 92.2604 209.735L91.2826 209.41L90.3049 209.085C90.1604 209.519 90.1166 209.718 89.9384 210.137L90.8868 210.54ZM91.2826 209.41L92.2604 209.735C92.373 209.396 92.5211 209.016 92.7543 208.635L91.875 208.098L90.9957 207.561C90.6489 208.128 90.4425 208.671 90.3049 209.085L91.2826 209.41Z" fill="black"/>
<path d="M94.1592 213.386L93.385 212.706C93.3777 212.714 93.3706 212.723 93.3636 212.731L94.1592 213.386ZM92.8401 214.865L93.3009 215.787C93.502 215.686 93.6615 215.527 93.7245 215.465C93.8207 215.37 93.9287 215.253 94.0437 215.123C94.2753 214.861 94.58 214.496 94.9547 214.041L94.1592 213.386L93.3636 212.731C92.9886 213.187 92.7046 213.526 92.4996 213.758C92.3963 213.875 92.324 213.952 92.2767 213.999C92.253 214.022 92.2448 214.029 92.249 214.025C92.2516 214.023 92.2622 214.014 92.2799 214.002C92.2959 213.991 92.3302 213.968 92.3793 213.943L92.8401 214.865ZM94.1592 213.386L94.9333 214.066C95.3027 213.645 95.7042 213.244 95.975 212.989L95.2698 212.238L94.5645 211.487C94.2554 211.777 93.8061 212.226 93.385 212.706L94.1592 213.386ZM95.2698 212.238L95.975 212.989C96.2698 212.713 96.3258 212.684 96.7513 212.301L96.0625 211.535L95.3737 210.769C95.0774 211.035 94.8499 211.219 94.5645 211.487L95.2698 212.238Z" fill="black"/>
<path d="M85.6036 231.466L84.6818 231.926L85.6036 231.466ZM87.7369 235.224L88.6534 234.753L87.7369 235.224ZM89.7341 238.677L88.8194 239.151L89.7341 238.677ZM92.5091 245.407L91.5254 245.713V245.713L92.5091 245.407ZM93.5264 254.908L92.4963 254.931L93.5264 254.908ZM93.9326 261.251L92.9063 261.343L93.9326 261.251ZM94.9804 264.838L95.969 264.548L94.9804 264.838ZM95.9288 268.225L94.9439 268.527C94.9463 268.535 94.9487 268.543 94.9513 268.551L95.9288 268.225ZM96.3014 269.645L97.3236 269.515C97.321 269.495 97.3178 269.475 97.314 269.455L96.3014 269.645ZM84.7609 228.223L83.7305 228.223C83.7305 228.964 83.8919 230.344 84.6818 231.926L85.6036 231.466L86.5254 231.005C85.8978 229.748 85.7912 228.691 85.7912 228.223L84.7609 228.223ZM85.6036 231.466L84.6818 231.926C85.0924 232.748 85.4744 233.388 85.8286 233.972C86.1846 234.559 86.5016 235.074 86.8203 235.694L87.7369 235.224L88.6534 234.753C88.2949 234.055 87.9364 233.474 87.5907 232.903C87.2431 232.33 86.897 231.75 86.5254 231.005L85.6036 231.466ZM87.7369 235.224L86.8203 235.694C87.1234 236.284 87.5147 236.933 87.8757 237.53C88.2477 238.144 88.5839 238.697 88.8194 239.151L89.7341 238.677L90.6487 238.202C90.3745 237.674 89.9958 237.053 89.6385 236.462C89.2701 235.854 88.9177 235.268 88.6534 234.753L87.7369 235.224ZM89.7341 238.677L88.8194 239.151C89.6677 240.787 90.7636 243.271 91.5254 245.713L92.5091 245.407L93.4927 245.1C92.6889 242.523 91.5428 239.926 90.6487 238.202L89.7341 238.677ZM92.5091 245.407L91.5254 245.713C92.3634 248.4 92.3932 250.211 92.4963 254.931L93.5264 254.908L94.5565 254.886C94.4546 250.22 94.432 248.112 93.4927 245.1L92.5091 245.407ZM93.5264 254.908L92.4963 254.931C92.5545 257.59 92.8044 260.2 92.9063 261.343L93.9326 261.251L94.9589 261.16C94.8556 260.002 94.6129 257.463 94.5565 254.886L93.5264 254.908ZM93.9326 261.251L92.9063 261.343C92.9678 262.033 93.1803 262.74 93.3911 263.363C93.6189 264.037 93.8293 264.575 93.9918 265.129L94.9804 264.838L95.969 264.548C95.7934 263.95 95.5299 263.255 95.3432 262.703C95.1396 262.101 94.9972 261.59 94.9589 261.16L93.9326 261.251ZM94.9804 264.838L93.9918 265.129C94.203 265.848 94.3697 266.464 94.5192 267.018C94.6675 267.566 94.8021 268.066 94.9439 268.527L95.9288 268.225L96.9137 267.922C96.7844 267.501 96.6594 267.039 96.5086 266.48C96.359 265.927 96.1872 265.291 95.969 264.548L94.9804 264.838ZM95.9288 268.225L94.9513 268.551C95.0755 268.923 95.1979 269.352 95.2888 269.836L96.3014 269.645L97.314 269.455C97.2019 268.858 97.0522 268.337 96.9062 267.899L95.9288 268.225ZM96.3014 269.645L95.2793 269.775C95.3043 269.972 95.3056 270.175 95.3056 270.462L96.3359 270.462L97.3663 270.462C97.3663 270.196 97.3676 269.863 97.3236 269.515L96.3014 269.645Z" fill="black"/>
<path d="M97.1791 270.567L98.0673 271.089L97.1791 270.567ZM101.071 266.3L100.481 265.455V265.455L101.071 266.3ZM106.888 264.369L106.746 263.349V263.349L106.888 264.369ZM112.809 264.873L113.124 263.892V263.892L112.809 264.873ZM119.819 267.141L120.201 266.184L119.819 267.141ZM124.864 270.862L125.737 270.315C125.713 270.277 125.687 270.241 125.659 270.206L124.864 270.862ZM126.896 274.584L127.817 274.122C127.812 274.112 127.807 274.103 127.801 274.093L126.896 274.584ZM96.1332 273.913L97.1636 273.913C97.1636 273.558 97.3827 272.254 98.0673 271.089L97.1791 270.567L96.2908 270.045C95.4199 271.526 95.1029 273.191 95.1029 273.913L96.1332 273.913ZM97.1791 270.567L98.0673 271.089C98.9861 269.526 100.554 267.916 101.66 267.145L101.071 266.3L100.481 265.455C99.1367 266.393 97.363 268.221 96.2908 270.045L97.1791 270.567ZM101.071 266.3L101.66 267.145C102.81 266.343 104.663 265.72 107.03 265.39L106.888 264.369L106.746 263.349C104.231 263.699 102.011 264.388 100.481 265.455L101.071 266.3ZM106.888 264.369L107.03 265.39C108.702 265.157 110.855 265.329 112.495 265.854L112.809 264.873L113.124 263.892C111.182 263.27 108.717 263.074 106.746 263.349L106.888 264.369ZM112.809 264.873L112.495 265.854C116.101 267.009 117.783 267.438 119.438 268.098L119.819 267.141L120.201 266.184C118.461 265.49 116.588 265.001 113.124 263.892L112.809 264.873ZM119.819 267.141L119.438 268.098C120.13 268.375 121.031 268.91 121.912 269.561C122.792 270.211 123.58 270.924 124.069 271.517L124.864 270.862L125.659 270.206C125.027 269.44 124.097 268.614 123.137 267.904C122.179 267.195 121.118 266.55 120.201 266.184L119.819 267.141ZM124.864 270.862L123.99 271.408C125.161 273.278 125.496 274.165 125.99 275.075L126.896 274.584L127.801 274.093C127.415 273.381 126.943 272.24 125.737 270.315L124.864 270.862ZM126.896 274.584L125.975 275.046C126.108 275.312 126.23 275.627 126.548 276.107L127.406 275.537L128.265 274.968C128.039 274.627 128.026 274.541 127.817 274.122L126.896 274.584Z" fill="black"/>
<path d="M115.593 262.34L114.619 262.677V262.677L115.593 262.34ZM113.868 258.145L112.925 258.562L113.868 258.145ZM111.329 252.222L110.392 252.651V252.651L111.329 252.222ZM107.914 245.187L108.833 244.722L107.914 245.187ZM104.224 239.633L103.363 240.199L104.224 239.633ZM101.482 236.045L100.654 236.658L101.482 236.045ZM98.5702 232.388L99.3916 231.766V231.766L98.5702 232.388ZM97.1132 228.802L96.1101 229.037C96.1136 229.053 96.1175 229.068 96.1218 229.083L97.1132 228.802ZM96.4694 224.842L97.4926 224.721C97.4908 224.705 97.4886 224.69 97.486 224.674L96.4694 224.842ZM116.234 264.977L117.198 264.613C117.135 264.445 117.069 264.118 116.962 263.584C116.867 263.112 116.745 262.521 116.567 262.004L115.593 262.34L114.619 262.677C114.745 263.042 114.843 263.501 114.942 263.991C115.028 264.421 115.131 264.972 115.27 265.341L116.234 264.977ZM115.593 262.34L116.567 262.004C116.101 260.656 115.345 258.938 114.81 257.728L113.868 258.145L112.925 258.562C113.469 259.791 114.187 261.426 114.619 262.677L115.593 262.34ZM113.868 258.145L114.81 257.728C114.1 256.122 112.833 253.031 112.266 251.793L111.329 252.222L110.392 252.651C110.977 253.928 112.145 256.797 112.925 258.562L113.868 258.145ZM111.329 252.222L112.266 251.793C111.507 250.136 110.331 247.687 108.833 244.722L107.914 245.187L106.994 245.652C108.483 248.598 109.647 251.023 110.392 252.651L111.329 252.222ZM107.914 245.187L108.833 244.722C108.179 243.428 107.45 242.337 106.781 241.407C106.085 240.439 105.528 239.741 105.085 239.067L104.224 239.633L103.363 240.199C103.831 240.911 104.498 241.761 105.108 242.61C105.746 243.496 106.407 244.49 106.994 245.652L107.914 245.187ZM104.224 239.633L105.085 239.067C104.571 238.285 104.082 237.655 103.619 237.08C103.149 236.496 102.733 236.001 102.31 235.431L101.482 236.045L100.654 236.658C101.11 237.273 101.577 237.829 102.014 238.372C102.458 238.924 102.901 239.496 103.363 240.199L104.224 239.633ZM101.482 236.045L102.31 235.431C101.645 234.534 101.091 233.851 100.612 233.271C100.128 232.685 99.7465 232.235 99.3916 231.766L98.5702 232.388L97.7488 233.01C98.1381 233.524 98.5629 234.026 99.0236 234.584C99.4902 235.149 100.02 235.802 100.654 236.658L101.482 236.045ZM98.5702 232.388L99.3916 231.766C98.6416 230.776 98.5056 229.938 98.1045 228.521L97.1132 228.802L96.1218 229.083C96.468 230.306 96.7043 231.631 97.7488 233.01L98.5702 232.388ZM97.1132 228.802L98.1162 228.567C97.7576 227.038 97.6291 225.874 97.4926 224.721L96.4694 224.842L95.4462 224.963C95.5819 226.109 95.7214 227.382 96.1101 229.037L97.1132 228.802ZM96.4694 224.842L97.486 224.674C97.3954 224.125 97.2938 223.792 97.1501 222.794L96.1303 222.941L95.1105 223.088C95.2429 224.008 95.4095 224.747 95.4528 225.01L96.4694 224.842Z" fill="black"/>
<path d="M35.4673 265.948L34.5692 265.443L35.4673 265.948ZM36.8791 262.891L37.8652 263.19L36.8791 262.891ZM37.9389 259.068L36.9158 258.947L37.9389 259.068ZM39.4954 256.976L40.1321 257.786L39.4954 256.976ZM42.2609 257.385L42.7065 256.456H42.7065L42.2609 257.385ZM43.1168 262.522L42.0867 262.543V262.543L43.1168 262.522ZM39.7972 269.464L40.7232 269.916L39.7972 269.464ZM38.8813 272.588L39.8395 272.967C39.8741 272.879 39.8965 272.788 39.9062 272.694L38.8813 272.588ZM38.411 273.737L39.3884 274.063L38.411 273.737ZM34.5275 267.74L35.544 267.908C35.5356 267.959 35.5289 267.949 35.5764 267.846C35.6176 267.757 35.6785 267.641 35.7615 267.494C35.8438 267.348 35.9374 267.19 36.0421 267.012C36.1448 266.837 36.2564 266.647 36.3654 266.453L35.4673 265.948L34.5692 265.443C34.4713 265.617 34.3692 265.791 34.266 265.967C34.1648 266.139 34.0602 266.316 33.9666 266.482C33.8737 266.647 33.7809 266.819 33.705 266.984C33.6356 267.134 33.5486 267.345 33.5111 267.571L34.5275 267.74ZM35.4673 265.948L36.3654 266.453C36.9668 265.384 37.5368 264.273 37.8652 263.19L36.8791 262.891L35.8931 262.592C35.6338 263.448 35.1592 264.394 34.5692 265.443L35.4673 265.948ZM36.8791 262.891L37.8652 263.19C38.2473 261.928 38.7697 260.807 38.962 259.19L37.9389 259.068L36.9158 258.947C36.7516 260.327 36.3708 261.015 35.8931 262.592L36.8791 262.891ZM37.9389 259.068L38.962 259.19C39.0157 258.738 39.3868 258.372 40.1321 257.786L39.4954 256.976L38.8588 256.166C38.2523 256.643 37.0865 257.51 36.9158 258.947L37.9389 259.068ZM39.4954 256.976L40.1321 257.786C40.1457 257.775 40.2431 257.701 40.6295 257.806C41.0135 257.911 41.3928 258.111 41.8153 258.314L42.2609 257.385L42.7065 256.456C42.3913 256.304 41.7868 255.986 41.1721 255.818C40.5597 255.651 39.6432 255.549 38.8588 256.166L39.4954 256.976ZM42.2609 257.385L41.8153 258.314C41.7394 258.277 41.748 258.232 41.796 258.343C41.8517 258.471 41.9119 258.701 41.958 259.091C42.0514 259.882 42.0549 260.988 42.0867 262.543L43.1168 262.522L44.1469 262.501C44.1169 261.032 44.1133 259.771 44.0045 258.85C43.9495 258.384 43.86 257.922 43.6859 257.522C43.5042 257.104 43.2031 256.694 42.7065 256.456L42.2609 257.385ZM43.1168 262.522L42.0867 262.543C42.09 262.707 42.0423 262.966 41.8819 263.368C41.7241 263.764 41.4866 264.228 41.1757 264.789C40.5707 265.882 39.6983 267.317 38.8713 269.012L39.7972 269.464L40.7232 269.916C41.5198 268.283 42.3219 266.973 42.9783 265.788C43.298 265.211 43.5879 264.654 43.796 264.132C44.0016 263.616 44.1584 263.061 44.1469 262.501L43.1168 262.522ZM39.7972 269.464L38.8713 269.012C38.2075 270.372 37.9871 271.215 37.8564 272.483L38.8813 272.588L39.9062 272.694C40.012 271.669 40.165 271.059 40.7232 269.916L39.7972 269.464ZM38.8813 272.588L37.9231 272.21C37.8433 272.411 37.7644 272.589 37.6785 272.788C37.5967 272.978 37.5073 273.19 37.4335 273.411L38.411 273.737L39.3884 274.063C39.432 273.932 39.4904 273.791 39.5707 273.605C39.647 273.428 39.7446 273.207 39.8395 272.967L38.8813 272.588ZM38.411 273.737L37.4335 273.411C37.3655 273.616 37.2898 273.846 37.2176 274.275L38.2336 274.446L39.2497 274.617C39.275 274.466 39.298 274.365 39.3182 274.29C39.3386 274.213 39.3588 274.152 39.3884 274.063L38.411 273.737Z" fill="black"/>
<path d="M33.2422 263.685L32.3005 264.103L33.2422 263.685ZM32.3872 257.195L31.3571 257.218L32.3872 257.195ZM32.0342 252.918L33.06 252.821L32.0342 252.918ZM32.2098 246.565L33.223 246.752C33.2295 246.717 33.2342 246.682 33.237 246.646L32.2098 246.565ZM32.358 242.102L33.3878 242.068C33.3872 242.049 33.386 242.03 33.3844 242.011L32.358 242.102ZM33.8281 267.562L34.8585 267.562C34.8585 267.06 34.8275 266.313 34.734 265.545C34.643 264.798 34.4824 263.939 34.1839 263.266L33.2422 263.685L32.3005 264.103C32.4715 264.488 32.6038 265.1 32.6884 265.794C32.7705 266.467 32.7978 267.13 32.7978 267.562L33.8281 267.562ZM33.2422 263.685L34.1839 263.266C33.497 261.72 33.5076 261.067 33.4172 257.171L32.3872 257.195L31.3571 257.218C31.4449 261.004 31.4139 262.106 32.3005 264.103L33.2422 263.685ZM32.3872 257.195L33.4172 257.171C33.3714 255.195 33.1429 253.697 33.06 252.821L32.0342 252.918L31.0084 253.015C31.1038 254.023 31.3135 255.339 31.3571 257.218L32.3872 257.195ZM32.0342 252.918L33.06 252.821C32.8744 250.858 33.036 247.765 33.223 246.752L32.2098 246.565L31.1966 246.378C30.9707 247.601 30.8072 250.887 31.0084 253.015L32.0342 252.918ZM32.2098 246.565L33.237 246.646C33.3255 245.523 33.4481 243.894 33.3878 242.068L32.358 242.102L31.3283 242.136C31.3845 243.838 31.2706 245.368 31.1826 246.484L32.2098 246.565ZM32.358 242.102L33.3844 242.011C33.3533 241.66 33.2985 241.29 33.1351 240.96C32.942 240.57 32.6594 240.353 32.4216 240.209L31.8868 241.09L31.3521 241.971C31.3917 241.995 31.383 241.993 31.3596 241.971C31.3297 241.942 31.3041 241.906 31.2884 241.874C31.2764 241.85 31.2821 241.852 31.2937 241.906C31.3056 241.962 31.3192 242.051 31.3317 242.193L32.358 242.102Z" fill="black"/>
<path d="M27.7989 250.108L28.8278 250.163L27.7989 250.108ZM29.7393 243.181L30.5285 243.843C30.563 243.802 30.5942 243.758 30.6219 243.713L29.7393 243.181ZM30.6799 242.208L30.3924 241.219C30.3427 241.233 30.2941 241.252 30.2471 241.273L30.6799 242.208ZM27.6533 261.032L28.6836 261.032C28.6836 261.015 28.6836 260.873 28.6836 258.876L27.6533 258.876L26.623 258.876C26.623 260.954 26.623 260.935 26.623 261.032L27.6533 261.032ZM27.6533 258.876L28.6836 258.876C28.6836 256.828 28.684 252.84 28.8278 250.163L27.7989 250.108L26.77 250.052C26.6226 252.797 26.623 256.846 26.623 258.876L27.6533 258.876ZM27.7989 250.108L28.8278 250.163C28.9743 247.435 29.2965 246.014 29.6086 245.217C29.902 244.467 30.1653 244.276 30.5285 243.843L29.7393 243.181L28.9501 242.518C28.6956 242.822 28.1376 243.321 27.6897 244.465C27.2605 245.561 26.9213 247.236 26.77 250.052L27.7989 250.108ZM29.7393 243.181L30.6219 243.713C30.8575 243.321 31.0191 243.187 31.1128 243.143L30.6799 242.208L30.2471 241.273C29.5783 241.583 29.1505 242.161 28.8567 242.649L29.7393 243.181ZM30.6799 242.208L30.9674 243.198C31.0065 243.187 31.0837 243.179 31.3594 243.179L31.3594 242.148L31.3594 241.118C31.155 241.118 30.7663 241.11 30.3924 241.219L30.6799 242.208Z" fill="black"/>
<path d="M14.9464 265.007L13.9405 265.229L14.9464 265.007ZM14.2105 259.743L15.2333 259.618L14.2105 259.743ZM13.7393 253.637L12.709 253.645L13.7393 253.637ZM14.62 248.74L13.7222 248.234L14.62 248.74ZM15.1485 248.649L15.5465 247.698L15.1485 248.649ZM16.7095 252.851L17.7154 252.629V252.629L16.7095 252.851ZM17.9148 257.204L16.9523 257.572L17.9148 257.204ZM18.4452 260.44L19.4746 260.396C19.4729 260.358 19.4692 260.32 19.4633 260.282L18.4452 260.44ZM18.6508 262.088L17.6733 262.414V262.414L18.6508 262.088ZM15.475 273.562L16.5053 273.562C16.5053 272.516 16.4461 270.69 16.3503 268.963C16.2567 267.273 16.1223 265.55 15.9524 264.784L14.9464 265.007L13.9405 265.229C14.0662 265.797 14.1961 267.332 14.2928 269.077C14.3874 270.783 14.4447 272.568 14.4447 273.562L15.475 273.562ZM14.9464 265.007L15.9524 264.784C15.6528 263.431 15.4485 261.381 15.2333 259.618L14.2105 259.743L13.1878 259.868C13.3908 261.531 13.6124 263.749 13.9405 265.229L14.9464 265.007ZM14.2105 259.743L15.2333 259.618C15.1102 258.61 14.7999 257.658 14.7696 253.629L13.7393 253.637L12.709 253.645C12.7405 257.827 13.0768 258.959 13.1878 259.868L14.2105 259.743ZM13.7393 253.637L14.7696 253.629C14.7533 251.457 15.1443 249.908 15.5178 249.245L14.62 248.74L13.7222 248.234C13.095 249.348 12.6915 251.313 12.709 253.645L13.7393 253.637ZM14.62 248.74L15.5178 249.245C15.3706 249.506 15.1267 249.601 14.9806 249.621C14.853 249.638 14.7749 249.609 14.7505 249.599L15.1485 248.649L15.5465 247.698C15.3156 247.602 15.0197 247.536 14.7027 247.579C14.3672 247.624 13.9623 247.808 13.7222 248.234L14.62 248.74ZM15.1485 248.649L14.7505 249.599C14.8013 249.62 14.8977 249.683 15.0163 249.894C15.1375 250.109 15.2422 250.41 15.33 250.79C15.4167 251.165 15.4759 251.564 15.5302 251.963C15.5806 252.332 15.6327 252.755 15.7035 253.074L16.7095 252.851L17.7154 252.629C17.6685 252.417 17.6309 252.117 17.5721 251.685C17.5171 251.281 17.4475 250.8 17.3377 250.326C17.2292 249.857 17.0701 249.341 16.812 248.883C16.5514 248.42 16.1534 247.952 15.5465 247.698L15.1485 248.649ZM16.7095 252.851L15.7035 253.074C16.0829 254.787 16.5427 256.499 16.9523 257.572L17.9148 257.204L18.8774 256.837C18.5228 255.908 18.0888 254.314 17.7154 252.629L16.7095 252.851ZM17.9148 257.204L16.9523 257.572C17.1332 258.046 17.2165 258.52 17.2698 259.021C17.316 259.455 17.351 260.109 17.427 260.598L18.4452 260.44L19.4633 260.282C19.3928 259.828 19.3884 259.456 19.3189 258.803C19.2565 258.217 19.1479 257.545 18.8774 256.837L17.9148 257.204ZM18.4452 260.44L17.4158 260.484C17.4451 261.17 17.5036 261.905 17.6733 262.414L18.6508 262.088L19.6282 261.763C19.5632 261.567 19.5052 261.113 19.4746 260.396L18.4452 260.44ZM18.6508 262.088L17.6733 262.414C17.6974 262.487 17.7435 262.628 17.7975 262.75C17.8231 262.807 17.8755 262.919 17.9609 263.032C18.01 263.098 18.2713 263.443 18.7676 263.473L18.8281 262.444L18.8886 261.415C19.1324 261.43 19.3115 261.528 19.4149 261.604C19.5153 261.678 19.5769 261.753 19.606 261.791C19.6377 261.834 19.6571 261.867 19.6657 261.883C19.6751 261.9 19.68 261.912 19.6807 261.913C19.6814 261.915 19.6768 261.904 19.6658 261.873C19.6551 261.843 19.6437 261.809 19.6282 261.763L18.6508 262.088Z" fill="black"/>
<path d="M19.2017 251.716L20.2309 251.764L19.2017 251.716ZM19.672 248.624L20.6915 248.773L19.672 248.624ZM20.2014 245.27L19.1922 245.063L20.2014 245.27ZM20.76 241.975L19.7556 241.745L20.76 241.975ZM21.5806 240.681L20.8507 239.954L21.5806 240.681ZM23.1707 240.618L24.0746 240.123C23.9865 239.962 23.8569 239.828 23.6992 239.733L23.1707 240.618ZM23.7901 242.468L22.7612 242.522C22.7622 242.541 22.7638 242.561 22.7659 242.58L23.7901 242.468ZM18.9961 258.561L20.0264 258.561C20.0264 256.955 20.1419 253.669 20.2309 251.764L19.2017 251.716L18.1724 251.668C18.0832 253.578 17.9657 256.904 17.9657 258.561L18.9961 258.561ZM19.2017 251.716L20.2309 251.764C20.2551 251.246 20.3269 250.775 20.4157 250.293C20.5004 249.833 20.6147 249.297 20.6915 248.773L19.672 248.624L18.6525 248.475C18.5827 248.951 18.4892 249.376 18.3891 249.92C18.293 250.442 18.2029 251.016 18.1724 251.668L19.2017 251.716ZM19.672 248.624L20.6915 248.773C20.8669 247.574 21.0121 246.444 21.2107 245.477L20.2014 245.27L19.1922 245.063C18.9778 246.106 18.8195 247.334 18.6525 248.475L19.672 248.624ZM20.2014 245.27L21.2107 245.477C21.3422 244.837 21.4416 244.179 21.5276 243.606C21.6166 243.013 21.6874 242.541 21.7643 242.205L20.76 241.975L19.7556 241.745C19.6569 242.176 19.5736 242.742 19.4897 243.3C19.4028 243.879 19.3109 244.485 19.1922 245.063L20.2014 245.27ZM20.76 241.975L21.7643 242.205C21.7892 242.097 21.9218 241.799 22.3105 241.409L21.5806 240.681L20.8507 239.954C20.3023 240.505 19.8965 241.13 19.7556 241.745L20.76 241.975ZM21.5806 240.681L22.3105 241.409C22.3128 241.406 22.3055 241.412 22.2988 241.414C22.2986 241.414 22.3184 241.408 22.3651 241.413C22.4122 241.417 22.4688 241.43 22.5274 241.451C22.5869 241.472 22.6285 241.494 22.6422 241.502L23.1707 240.618L23.6992 239.733C23.452 239.586 23.0387 239.406 22.5578 239.361C22.0542 239.314 21.3901 239.413 20.8507 239.954L21.5806 240.681ZM23.1707 240.618L22.2668 241.112C22.5872 241.698 22.7436 242.186 22.7612 242.522L23.7901 242.468L24.8191 242.415C24.7784 241.636 24.4619 240.831 24.0746 240.123L23.1707 240.618ZM23.7901 242.468L22.7659 242.58C22.7848 242.753 22.8126 242.91 22.838 243.051C22.8641 243.197 22.8906 243.343 22.9177 243.531L23.9375 243.384L24.9573 243.237C24.9244 243.009 24.8918 242.83 24.8665 242.688C24.8404 242.543 24.8246 242.45 24.8144 242.356L23.7901 242.468Z" fill="black"/>
<path d="M24.8821 240.593L25.8339 240.988L24.8821 240.593ZM26.234 239.385L26.0633 238.368L26.234 239.385ZM26.7343 239.588L27.6225 239.066C27.5772 238.989 27.522 238.918 27.4585 238.856L26.7343 239.588ZM27.6184 244.019L28.6484 243.991C28.648 243.977 28.6474 243.963 28.6464 243.95L27.6184 244.019ZM24.1188 242.679L25.065 243.086C25.1736 242.835 25.2938 242.472 25.4087 242.136C25.5321 241.776 25.6701 241.383 25.8339 240.988L24.8821 240.593L23.9304 240.199C23.7403 240.657 23.5849 241.102 23.4593 241.469C23.325 241.86 23.2405 242.113 23.1727 242.271L24.1188 242.679ZM24.8821 240.593L25.8339 240.988C26.0415 240.488 26.3545 240.409 26.4046 240.401L26.234 239.385L26.0633 238.368C25.4093 238.478 24.4452 238.957 23.9304 240.199L24.8821 240.593ZM26.234 239.385L26.4046 240.401C26.2645 240.424 26.1519 240.395 26.088 240.367C26.029 240.342 26.0059 240.317 26.0101 240.321L26.7343 239.588L27.4585 238.856C27.1933 238.593 26.7001 238.262 26.0633 238.368L26.234 239.385ZM26.7343 239.588L25.8461 240.111C26.206 240.723 26.4419 241.885 26.5904 244.088L27.6184 244.019L28.6464 243.95C28.502 241.807 28.265 240.159 27.6225 239.066L26.7343 239.588ZM27.6184 244.019L26.5885 244.047C26.618 245.14 26.6181 247.044 26.6181 249.032L27.6484 249.032L28.6788 249.032C28.6788 247.059 28.6789 245.12 28.6484 243.991L27.6184 244.019Z" fill="black"/>
<path d="M22.2054 255.421L23.2345 255.472L22.2054 255.421ZM22.5875 250.507L23.6115 250.621L22.5875 250.507ZM23.0878 247.27L22.0627 247.167L23.0878 247.27ZM24.6153 243.331L25.5633 243.735C25.5711 243.716 25.5783 243.698 25.585 243.679L24.6153 243.331ZM21.9998 261.738L23.0302 261.738C23.0302 260.19 23.1454 257.263 23.2345 255.472L22.2054 255.421L21.1764 255.37C21.0872 257.163 20.9695 260.134 20.9695 261.738L21.9998 261.738ZM22.2054 255.421L23.2345 255.472C23.3142 253.871 23.4958 251.657 23.6115 250.621L22.5875 250.507L21.5635 250.392C21.4427 251.474 21.2579 253.73 21.1764 255.37L22.2054 255.421ZM22.5875 250.507L23.6115 250.621C23.6942 249.881 23.7922 249.319 23.8827 248.823C23.9716 248.337 24.0632 247.866 24.113 247.374L23.0878 247.27L22.0627 247.167C22.0233 247.557 21.9513 247.929 21.8556 248.453C21.7616 248.967 21.654 249.583 21.5635 250.392L22.5875 250.507ZM23.0878 247.27L24.113 247.374C24.1447 247.06 24.2964 246.603 24.5812 245.939C24.7182 245.619 24.8733 245.28 25.0425 244.908C25.2097 244.54 25.3884 244.145 25.5633 243.735L24.6153 243.331L23.6673 242.928C23.5033 243.313 23.334 243.687 23.1666 244.055C23.0012 244.419 22.8352 244.782 22.6874 245.126C22.4025 245.79 22.1294 246.507 22.0627 247.167L23.0878 247.27ZM24.6153 243.331L25.585 243.679C25.7553 243.205 25.888 242.676 25.9581 242.225L24.94 242.067L23.9219 241.908C23.872 242.229 23.7717 242.631 23.6455 242.983L24.6153 243.331ZM24.94 242.067L25.9581 242.225C26.0314 241.754 26.0303 241.394 26.0303 241.09L25 241.09L23.9697 241.09C23.9697 241.386 23.9686 241.608 23.9219 241.908L24.94 242.067Z" fill="black"/>
<path d="M40.0904 261.317L39.0601 261.328L40.0904 261.317ZM40.5881 262.09L40.1259 263.011C40.14 263.018 40.1543 263.025 40.1687 263.031L40.5881 262.09ZM42.2929 262.298L42.1888 261.273C42.1724 261.275 42.156 261.277 42.1397 261.279L42.2929 262.298ZM40.1795 257.15L39.1492 257.15C39.1492 257.447 39.1229 257.777 39.0952 258.466C39.0688 259.121 39.0463 260.019 39.0601 261.328L40.0904 261.317L41.1207 261.306C41.1072 260.033 41.1292 259.17 41.1542 258.549C41.1779 257.961 41.2099 257.498 41.2099 257.15L40.1795 257.15ZM40.0904 261.317L39.0601 261.328C39.0648 261.767 39.1759 262.189 39.4697 262.533C39.7261 262.833 40.0614 262.979 40.1259 263.011L40.5881 262.09L41.0502 261.169C41.0109 261.149 40.9955 261.142 40.9746 261.131C40.9578 261.122 40.9528 261.119 40.9537 261.12C40.9575 261.122 40.9948 261.146 41.0364 261.194C41.0569 261.218 41.075 261.244 41.0897 261.271C41.1044 261.298 41.1133 261.32 41.1184 261.336C41.1283 261.367 41.1213 261.364 41.1207 261.306L40.0904 261.317ZM40.5881 262.09L40.1687 263.031C40.8977 263.356 41.691 263.431 42.4461 263.317L42.2929 262.298L42.1397 261.279C41.7211 261.342 41.332 261.294 41.0074 261.149L40.5881 262.09ZM42.2929 262.298L42.3969 263.323C42.6321 263.3 42.8713 263.299 43.1797 263.299L43.1797 262.268L43.1797 261.238C42.888 261.238 42.5448 261.237 42.1888 261.273L42.2929 262.298Z" fill="black"/>
<path d="M30.999 245.474L31.9551 245.858C31.9706 245.82 31.9837 245.78 31.9944 245.74L30.999 245.474ZM31.1181 243.653L32.1452 243.572C32.1426 243.538 32.1383 243.505 32.1324 243.472L31.1181 243.653ZM29.7645 246.913L30.0889 247.891C30.5162 247.749 30.8965 247.417 31.1684 247.115C31.4673 246.783 31.7571 246.351 31.9551 245.858L30.999 245.474L30.0429 245.09C29.9452 245.333 29.7934 245.563 29.6368 245.736C29.5596 245.822 29.4911 245.884 29.4411 245.922C29.3823 245.966 29.3815 245.954 29.4402 245.935L29.7645 246.913ZM30.999 245.474L31.9944 245.74C32.1483 245.164 32.2106 244.395 32.1452 243.572L31.1181 243.653L30.091 243.735C30.1421 244.379 30.0844 244.906 30.0035 245.209L30.999 245.474ZM31.1181 243.653L32.1324 243.472C32.0936 243.254 32.0277 243.034 31.9903 242.892C31.9467 242.727 31.8953 242.511 31.8414 242.165L30.8234 242.324L29.8053 242.483C29.8714 242.907 29.9383 243.192 29.9975 243.417C30.0629 243.666 30.0844 243.726 30.1038 243.834L31.1181 243.653Z" fill="black"/>
<path d="M30.1172 247.091L30.1172 246.061C30.1093 246.061 30.1059 246.061 30.1032 246.061C30.1009 246.061 30.1012 246.061 30.1028 246.061C30.1047 246.061 30.1078 246.061 30.1118 246.061C30.1159 246.061 30.1202 246.062 30.1247 246.062C30.1339 246.063 30.1403 246.064 30.1428 246.065C30.1448 246.065 30.1415 246.064 30.1315 246.062L29.8834 247.062L29.6352 248.062C29.8609 248.118 30.0089 248.121 30.1172 248.121L30.1172 247.091ZM29.8834 247.062L30.1315 246.062C30.0967 246.053 29.8009 245.963 29.4858 245.923L29.3557 246.945L29.2255 247.967C29.2916 247.975 29.3526 247.988 29.414 248.003C29.4457 248.011 29.4763 248.019 29.5121 248.029C29.543 248.038 29.5907 248.051 29.6352 248.062L29.8834 247.062ZM29.3557 246.945L29.4858 245.923C29.1388 245.878 28.5839 245.863 28.0065 246.203L28.5289 247.091L29.0513 247.979C29.0705 247.968 29.0838 247.964 29.1003 247.962C29.1222 247.959 29.1589 247.958 29.2255 247.967L29.3557 246.945Z" fill="black"/>
<path d="M25.7951 243.77L26.5733 244.446C26.5939 244.422 26.6133 244.397 26.6316 244.372L25.7951 243.77ZM24.8271 244.444L24.8271 245.474C25.2515 245.474 25.608 245.279 25.8381 245.122C26.0948 244.945 26.3426 244.711 26.5733 244.446L25.7951 243.77L25.0169 243.095C24.8656 243.269 24.7458 243.372 24.6723 243.422C24.6364 243.447 24.6257 243.449 24.6404 243.444C24.652 243.439 24.7187 243.413 24.8271 243.413L24.8271 244.444ZM25.7951 243.77L26.6316 244.372C26.7556 244.199 26.8646 244.007 26.9412 243.763C27.0122 243.538 27.0421 243.31 27.0597 243.088L26.0325 243.007L25.0053 242.926C24.9929 243.085 24.9787 243.135 24.9758 243.144C24.9754 243.145 24.9764 243.143 24.9777 243.14C24.9782 243.139 24.9743 243.147 24.9586 243.169L25.7951 243.77ZM26.0325 243.007L27.0597 243.088C27.0936 242.656 27.0928 242.024 27.0928 241.443L26.0625 241.443L25.0322 241.443C25.0322 242.062 25.0314 242.595 25.0053 242.926L26.0325 243.007Z" fill="black"/>
<path d="M21.0868 244.885L21.2873 245.896C21.4864 245.856 21.6695 245.759 21.8134 245.616L21.0868 244.885ZM22.5012 242.037L23.5084 242.254C23.5185 242.207 23.5254 242.16 23.5289 242.112L22.5012 242.037ZM20.237 244.973L20.237 246.003C20.3877 246.003 20.7549 246.001 21.2873 245.896L21.0868 244.885L20.8863 243.875C20.538 243.944 20.3193 243.942 20.237 243.942L20.237 244.973ZM21.0868 244.885L21.8134 245.616C22.6698 244.764 23.2124 243.625 23.5084 242.254L22.5012 242.037L21.4941 241.819C21.2571 242.917 20.8609 243.657 20.3601 244.155L21.0868 244.885ZM22.5012 242.037L23.5289 242.112C23.5622 241.654 23.5616 241.088 23.5616 240.561L22.5312 240.561L21.5009 240.561C21.5009 241.114 21.5003 241.595 21.4736 241.962L22.5012 242.037Z" fill="black"/>
<path d="M14.9086 254.974L15.0437 255.995L14.9086 254.974ZM15.3516 254.623L16.3256 254.959C16.3697 254.831 16.3882 254.695 16.38 254.56L15.3516 254.623ZM15.1477 251.862L14.119 251.921C14.1199 251.936 14.121 251.95 14.1225 251.965L15.1477 251.862ZM14.0588 255.032L14.0588 256.062C14.1978 256.062 14.5406 256.062 15.0437 255.995L14.9086 254.974L14.7735 253.952C14.3959 254.002 14.1529 254.002 14.0588 254.002L14.0588 255.032ZM14.9086 254.974L15.0437 255.995C15.641 255.916 16.1364 255.507 16.3256 254.959L15.3516 254.623L14.3776 254.287C14.445 254.091 14.6032 253.975 14.7735 253.952L14.9086 254.974ZM15.3516 254.623L16.38 254.56C16.3228 253.623 16.2635 252.662 16.1729 251.759L15.1477 251.862L14.1225 251.965C14.2084 252.821 14.2656 253.741 14.3231 254.685L15.3516 254.623ZM15.1477 251.862L16.1764 251.804C16.1484 251.31 16.1481 250.645 16.1481 249.914L15.1177 249.914L14.0874 249.914C14.0874 250.623 14.087 251.356 14.119 251.921L15.1477 251.862Z" fill="black"/>
<path d="M15.5562 271.355L14.5455 271.556C14.5727 271.693 14.6275 271.823 14.7065 271.938L15.5562 271.355ZM17.5372 273.405L18.3385 272.758C18.3041 272.715 18.2663 272.675 18.2256 272.639L17.5372 273.405ZM14.9822 269.891L14.9822 270.921C14.8324 270.921 14.69 270.881 14.5698 270.814C14.4573 270.751 14.388 270.678 14.3529 270.635C14.2937 270.562 14.2925 270.526 14.3227 270.61C14.3806 270.773 14.4475 271.062 14.5455 271.556L15.5562 271.355L16.5668 271.155C16.4748 270.691 16.3814 270.248 16.2632 269.917C16.2053 269.755 16.1121 269.532 15.9512 269.334C15.7714 269.113 15.4476 268.86 14.9822 268.86L14.9822 269.891ZM15.5562 271.355L14.7065 271.938C15.3634 272.896 16.2514 273.636 16.8488 274.172L17.5372 273.405L18.2256 272.639C17.5445 272.027 16.8892 271.477 16.4058 270.772L15.5562 271.355ZM17.5372 273.405L16.7359 274.053C16.7843 274.113 16.8383 274.196 16.955 274.45C17.0834 274.73 17.222 275.067 17.4957 275.683L18.4375 275.266L19.3793 274.848C19.1386 274.305 18.9566 273.872 18.8282 273.592C18.6882 273.286 18.5493 273.018 18.3385 272.758L17.5372 273.405Z" fill="black"/>
<path d="M47.6862 64.2796L48.6756 63.9921C48.6738 63.9857 48.6718 63.9792 48.6698 63.9728L47.6862 64.2796ZM50.2969 72.1711L50.2969 71.1408C50.6815 71.1408 50.9107 71.3555 50.9542 71.3969C50.9919 71.4329 51.0164 71.4631 51.0284 71.4786C51.0411 71.4952 51.0479 71.5058 51.0489 71.5074C51.0501 71.5094 51.0414 71.4955 51.0228 71.4577C51.0049 71.4214 50.9822 71.3719 50.9546 71.3067C50.8403 71.0376 50.6824 70.5997 50.4731 69.9611C50.0575 68.6926 49.4727 66.7356 48.6756 63.9921L47.6862 64.2796L46.6968 64.567C47.493 67.3079 48.0869 69.2966 48.5149 70.6028C48.7275 71.2515 48.9076 71.7583 49.0577 72.1118C49.1302 72.2828 49.2127 72.4589 49.3057 72.6065C49.3503 72.6772 49.4247 72.7859 49.5324 72.8886C49.6157 72.9679 49.8806 73.2014 50.2969 73.2014L50.2969 72.1711ZM47.6862 64.2796L48.6698 63.9728C47.7026 60.8718 46.424 57.1634 44.6773 53.0768L43.7299 53.4818L42.7825 53.8867C44.4949 57.8932 45.7502 61.5331 46.7026 64.5864L47.6862 64.2796ZM43.7299 53.4818L44.6773 53.0768C42.9333 48.9966 40.7647 44.6602 38.549 40.2287L37.6274 40.6895L36.7059 41.1502C38.9283 45.595 41.0673 49.8738 42.7825 53.8867L43.7299 53.4818Z" fill="black"/>
<path d="M32.2578 76.0112L33.1413 75.4811C32.778 74.8755 32.4101 74.2657 29.8066 69.3141L28.8946 69.7936L27.9827 70.2731C30.5852 75.2229 30.9775 75.88 31.3743 76.5413L32.2578 76.0112ZM28.8946 69.7936L29.8066 69.3141C27.2044 64.3649 22.3928 55.1215 19.8528 50.1105L18.9338 50.5763L18.0148 51.0422C20.5617 56.0669 25.3789 65.3209 27.9827 70.2731L28.8946 69.7936ZM18.9338 50.5763L19.8528 50.1105C17.323 45.1196 17.209 44.6409 16.7062 43.38L15.7491 43.7617L14.7921 44.1434C15.3182 45.4625 15.4576 45.9974 18.0148 51.0422L18.9338 50.5763Z" fill="black"/>
<path d="M85.2422 63.3403L86.2725 63.3403C86.2725 62.9302 86.2262 62.5193 85.23 58.4062L84.2286 58.6487L83.2272 58.8913C84.2582 63.1477 84.2118 63.2435 84.2118 63.3403L85.2422 63.3403ZM84.2286 58.6487L85.23 58.4062C84.2128 54.2065 82.1981 46.1456 81.0986 39.0435L80.0803 39.2011L79.0621 39.3588C80.1778 46.5655 82.2173 54.7215 83.2272 58.8913L84.2286 58.6487ZM80.0803 39.2011L81.0986 39.0435C80.0026 31.9643 79.8762 26.072 79.7456 19.9351L78.7155 19.957L77.6854 19.9789C77.8159 26.1122 77.9429 32.1292 79.0621 39.3588L80.0803 39.2011Z" fill="black"/>
<path d="M111.822 64.7959L111.003 64.1708V64.1708L111.822 64.7959ZM104.049 72.171L104.375 73.1485C106.214 72.5355 108.553 70.7783 112.641 65.4209L111.822 64.7959L111.003 64.1708C106.941 69.4942 104.925 70.793 103.724 71.1935L104.049 72.171ZM111.822 64.7959L112.641 65.4209C115.665 61.4582 119.364 54.3206 121.745 49.8252L120.835 49.343L119.924 48.8608C117.498 53.4413 113.896 60.3796 111.003 64.1708L111.822 64.7959ZM120.835 49.343L121.745 49.8252C124.172 45.2435 124.949 43.1744 125.779 41.2557L124.833 40.8468L123.887 40.4378C123.047 42.3814 122.304 44.3665 119.924 48.8608L120.835 49.343ZM124.833 40.8468L125.779 41.2557C126.601 39.3549 127.475 37.606 128.39 35.7752L127.469 35.3145L126.547 34.8537C125.635 36.6778 124.736 38.4764 123.887 40.4378L124.833 40.8468Z" fill="black"/>
<path d="M131.925 73.4636L132.385 74.3853C132.402 74.3768 132.419 74.3679 132.435 74.3585L131.925 73.4636ZM146.245 65.6643L146.723 66.577L146.729 66.5735L146.245 65.6643ZM126.317 75.627L126.317 76.6574C126.903 76.6574 127.695 76.4337 128.622 76.0827C129.591 75.7162 130.837 75.1588 132.385 74.3853L131.925 73.4636L131.464 72.542C129.95 73.2984 128.773 73.8227 127.893 74.1554C126.973 74.5036 126.492 74.5967 126.317 74.5967L126.317 75.627ZM131.925 73.4636L132.435 74.3585C135.992 72.3287 141.36 69.3861 146.723 66.577L146.245 65.6643L145.767 64.7515C140.384 67.5707 134.994 70.5252 131.414 72.5688L131.925 73.4636ZM146.245 65.6643L146.729 66.5735C148.696 65.5254 149.109 65.2541 149.54 64.9667L148.969 64.1094L148.397 63.2521C148.045 63.4868 147.698 63.7223 145.76 64.755L146.245 65.6643Z" fill="black"/>
<path d="M72.9531 83.3035L73.6817 82.5749C73.6734 82.5667 73.6761 82.5715 73.6524 82.5401C73.614 82.4891 73.5404 82.3844 73.3974 82.1641C73.1134 81.7268 72.5975 80.8989 71.6144 79.2822L70.7341 79.8175L69.8537 80.3528C70.8363 81.9687 71.3666 82.8205 71.6691 83.2863C71.9707 83.7509 72.0817 83.8892 72.2246 84.0321L72.9531 83.3035ZM70.7341 79.8175L71.6144 79.2822C69.6554 76.0605 65.8457 69.7111 63.5668 66.061L62.6928 66.6067L61.8188 67.1524C64.0894 70.7892 67.8813 77.1092 69.8537 80.3528L70.7341 79.8175ZM62.6928 66.6067L63.5668 66.061C61.2768 62.3933 60.6159 61.5913 59.9234 60.7603L59.1319 61.4199L58.3404 62.0795C58.9532 62.815 59.5593 63.5333 61.8188 67.1524L62.6928 66.6067Z" fill="black"/>
</g>
<rect x="159.5" y="0.5" width="286" height="159" transform="rotate(90 159.5 0.5)" stroke="black"/>
<defs>
<clipPath id="clip0_291_24424">
<rect x="160" width="287" height="160" transform="rotate(90 160 0)" fill="white"/>
</clipPath>
</defs>
</svg>
