<svg width="162" height="287" viewBox="0 0 162 287" fill="none" xmlns="http://www.w3.org/2000/svg">
<g clip-path="url(#clip0_291_23945)">
<rect x="161.352" width="287" height="161.348" transform="rotate(90 161.352 0)" fill="white"/>
<path d="M3.87584 166.08L3.2363 166.888L20.7745 180.772L21.4141 179.965L22.0536 179.157L4.51538 165.272L3.87584 166.08Z" fill="black"/>
<path d="M12.9085 139.861L12.2707 139.052L12.9085 139.861ZM22.6111 131.624L23.2397 132.44L22.6111 131.624ZM31.678 124.926L32.2163 125.805L31.678 124.926ZM41.5432 120.902L41.8744 121.877V121.877L41.5432 120.902ZM56.6152 117.918L56.7674 118.937C56.7807 118.935 56.794 118.933 56.8073 118.931L56.6152 117.918ZM3.5054 147.445L4.23397 148.173C4.54584 147.861 5.54793 147.027 7.18387 145.714C8.79351 144.421 10.9599 142.709 13.5462 140.671L12.9085 139.861L12.2707 139.052C9.68508 141.09 7.51165 142.807 5.89361 144.107C4.30187 145.385 3.18841 146.305 2.77684 146.716L3.5054 147.445ZM12.9085 139.861L13.5462 140.671C15.8567 138.85 17.5113 137.382 18.9751 136.073C20.4406 134.762 21.6949 133.63 23.2397 132.44L22.6111 131.624L21.9825 130.807C20.3668 132.051 19.0547 133.237 17.6015 134.537C16.1466 135.838 14.5301 137.271 12.2707 139.052L12.9085 139.861ZM22.6111 131.624L23.2397 132.44C26.2819 130.098 29.3024 127.59 32.2163 125.805L31.678 124.926L31.1397 124.048C28.1016 125.909 24.9305 128.538 21.9825 130.807L22.6111 131.624ZM31.678 124.926L32.2163 125.805C35.0572 124.064 38.5897 122.992 41.8744 121.877L41.5432 120.902L41.2121 119.926C38.0478 121 34.229 122.155 31.1397 124.048L31.678 124.926ZM41.5432 120.902L41.8744 121.877C43.7479 121.242 49.0362 120.092 56.7674 118.937L56.6152 117.918L56.4629 116.899C48.7349 118.054 43.2799 119.224 41.2121 119.926L41.5432 120.902ZM56.6152 117.918L56.8073 118.931C58.2983 118.648 59.2765 118.379 59.9402 118.168C60.2703 118.062 60.518 117.973 60.6933 117.91C60.901 117.836 60.9325 117.829 60.9233 117.831L60.7403 116.817L60.5573 115.803C60.3609 115.838 60.1464 115.917 59.9997 115.97C59.8205 116.034 59.6053 116.112 59.3143 116.204C58.7357 116.389 57.8386 116.637 56.423 116.906L56.6152 117.918ZM60.7403 116.817L60.9233 117.831C60.9139 117.832 60.6145 117.892 60.309 117.658C59.9799 117.405 59.9625 117.063 59.9619 116.994C59.9612 116.915 59.9763 116.884 59.9598 116.945C59.9463 116.995 59.9259 117.058 59.8925 117.158L60.87 117.484L61.8475 117.809C61.8762 117.723 61.9175 117.6 61.9498 117.48C61.9791 117.371 62.0243 117.184 62.0225 116.976C62.0207 116.779 61.971 116.335 61.563 116.022C61.1787 115.728 60.7539 115.767 60.5573 115.803L60.7403 116.817Z" fill="black"/>
<path d="M62.8764 115.785L62.3049 114.928L62.8764 115.785ZM77.1116 116.264L77.0181 117.29C77.049 117.292 77.08 117.294 77.111 117.294L77.1116 116.264ZM87.1742 114.932L87.6668 115.837C87.7089 115.814 87.7494 115.788 87.788 115.759L87.1742 114.932ZM60.876 117.484L61.9063 117.484C61.9063 117.696 61.8329 117.835 61.8165 117.865C61.7935 117.908 61.7793 117.921 61.7966 117.901C61.8309 117.86 61.9119 117.778 62.063 117.65C62.3596 117.399 62.8223 117.059 63.448 116.642L62.8764 115.785L62.3049 114.928C61.6535 115.362 61.1161 115.751 60.7317 116.077C60.5423 116.237 60.3626 116.405 60.2213 116.572C60.1508 116.656 60.0701 116.762 60.0026 116.888C59.9416 117.001 59.8456 117.212 59.8456 117.484L60.876 117.484ZM62.8764 115.785L63.448 116.642C63.6473 116.509 64.1061 116.365 64.969 116.31C65.7935 116.258 66.8378 116.293 68.077 116.386C70.6023 116.578 73.6039 116.978 77.0181 117.29L77.1116 116.264L77.2051 115.237C73.9639 114.942 70.7233 114.52 68.2325 114.332C66.9637 114.236 65.8065 114.192 64.8377 114.254C63.9072 114.313 62.9809 114.477 62.3049 114.928L62.8764 115.785ZM77.1116 116.264L77.111 117.294C83.2865 117.298 86.079 116.701 87.6668 115.837L87.1742 114.932L86.6816 114.027C85.5911 114.62 83.2683 115.237 77.1122 115.233L77.1116 116.264ZM87.1742 114.932L87.788 115.759C88.5466 115.197 88.7505 114.579 88.8915 114.156L87.9141 113.83L86.9366 113.504C86.8709 113.701 86.8397 113.785 86.795 113.861C86.7607 113.919 86.7021 113.999 86.5604 114.104L87.1742 114.932Z" fill="black"/>
<path d="M96.5777 114.981L96.4222 116L96.5777 114.981ZM112.47 121.361L112.952 120.45L112.946 120.447L112.47 121.361ZM88.2727 113.83L88.2727 114.86C88.2547 114.86 88.4003 114.871 88.8231 114.922C89.2025 114.967 89.7433 115.037 90.4403 115.131C91.8338 115.319 93.8438 115.606 96.4222 116L96.5777 114.981L96.7333 113.962C94.1452 113.567 92.1233 113.279 90.7161 113.089C90.0128 112.994 89.4611 112.923 89.068 112.876C88.7182 112.834 88.4112 112.8 88.2727 112.8L88.2727 113.83ZM96.5777 114.981L96.4222 116C100.593 116.637 106.125 119.218 111.994 122.274L112.47 121.361L112.946 120.447C107.126 117.416 101.296 114.659 96.7333 113.962L96.5777 114.981ZM112.47 121.361L111.988 122.271C114.035 123.354 114.475 123.637 115.294 124.016L115.727 123.081L116.16 122.146C115.402 121.795 115.117 121.596 112.952 120.45L112.47 121.361ZM115.727 123.081L115.294 124.016C116.143 124.409 117.409 124.913 119.444 125.425L119.695 124.426L119.947 123.427C118.035 122.945 116.89 122.484 116.16 122.146L115.727 123.081Z" fill="black"/>
<path d="M135.221 134.068L134.673 134.941L135.221 134.068ZM148.653 143.59L149.24 142.743C149.228 142.735 149.216 142.727 149.203 142.719L148.653 143.59ZM154.393 148.468L153.677 149.208C153.683 149.215 153.689 149.221 153.696 149.227L154.393 148.468ZM119.695 124.426L119.123 125.283C119.859 125.774 125.707 129.309 134.673 134.941L135.221 134.068L135.769 133.196C126.726 127.515 120.977 124.042 120.266 123.568L119.695 124.426ZM135.221 134.068L134.673 134.941C137.354 136.625 139.648 138.328 141.806 139.953C143.954 141.569 145.99 143.125 148.102 144.461L148.653 143.59L149.203 142.719C147.178 141.439 145.219 139.942 143.045 138.306C140.883 136.679 138.53 134.929 135.769 133.196L135.221 134.068ZM148.653 143.59L148.066 144.437C150.203 145.918 151.86 147.452 153.677 149.208L154.393 148.468L155.109 147.727C153.275 145.954 151.52 144.324 149.24 142.743L148.653 143.59ZM154.393 148.468L153.696 149.227C154.485 149.951 154.891 150.225 155.296 150.494L155.867 149.637L156.439 148.78C156.098 148.552 155.781 148.343 155.09 147.709L154.393 148.468Z" fill="black"/>
<path d="M148.605 165.983L149.367 166.677C149.397 166.643 149.426 166.608 149.452 166.57L148.605 165.983ZM156.234 154.027L155.377 153.456C155.368 153.47 155.359 153.484 155.351 153.498L156.234 154.027ZM138.334 176.675L139.159 177.293C139.643 176.646 140.744 175.569 142.528 173.793C144.273 172.056 146.583 169.732 149.367 166.677L148.605 165.983L147.844 165.289C145.092 168.308 142.809 170.605 141.074 172.333C139.378 174.022 138.111 175.255 137.509 176.058L138.334 176.675ZM148.605 165.983L149.452 166.57C152.105 162.748 155.269 157.643 157.118 154.557L156.234 154.027L155.351 153.498C153.51 156.569 150.374 161.629 147.759 165.395L148.605 165.983ZM156.234 154.027L157.092 154.599C157.336 154.232 157.578 153.87 157.826 153.497L156.969 152.926L156.111 152.354C155.863 152.727 155.622 153.089 155.377 153.456L156.234 154.027Z" fill="black"/>
<path d="M23.5991 176.745L22.8284 176.061C22.8225 176.068 22.8166 176.074 22.8108 176.081L23.5991 176.745ZM22.1449 178.868L23.1752 178.868C23.1752 179.07 23.1007 179.169 23.1559 179.059C23.1882 178.995 23.2517 178.887 23.3597 178.728C23.5738 178.413 23.9124 177.972 24.3873 177.408L23.5991 176.745L22.8108 176.081C22.3139 176.672 21.9253 177.172 21.6553 177.57C21.5213 177.767 21.4034 177.958 21.3149 178.134C21.2493 178.264 21.1145 178.545 21.1145 178.868L22.1449 178.868ZM23.5991 176.745L24.3697 177.429C24.7934 176.951 25.3827 176.355 25.7513 175.771L24.8798 175.221L24.0082 174.671C23.7593 175.066 23.384 175.435 22.8284 176.061L23.5991 176.745ZM24.8798 175.221L25.7513 175.771C25.9341 175.481 26.0935 175.136 26.2298 174.876C26.3863 174.577 26.608 174.187 27.0096 173.61L26.1641 173.021L25.3186 172.433C24.8651 173.084 24.599 173.548 24.4044 173.92C24.1894 174.33 24.1342 174.472 24.0082 174.671L24.8798 175.221Z" fill="black"/>
<path d="M20.6797 240.053L19.6501 240.015L20.6797 240.053ZM21.469 231.332L20.4457 231.211L21.469 231.332ZM24.635 191.714L23.6085 191.625C23.6074 191.638 23.6065 191.65 23.6059 191.663L24.635 191.714ZM25.7348 178.335L26.7603 178.435C26.7615 178.422 26.7625 178.41 26.7633 178.397L25.7348 178.335ZM20.3162 251.579L21.3465 251.579C21.3465 250.88 21.4661 246.551 21.7093 240.092L20.6797 240.053L19.6501 240.015C19.4074 246.457 19.2858 250.832 19.2858 251.579L20.3162 251.579ZM20.6797 240.053L21.7093 240.092C21.8327 236.818 22.0694 235.031 22.4922 231.453L21.469 231.332L20.4457 231.211C20.0245 234.776 19.7771 236.644 19.6501 240.015L20.6797 240.053ZM21.469 231.332L22.4922 231.453C22.784 228.983 23.763 224.574 24.3777 216.866L23.3507 216.784L22.3236 216.702C21.7069 224.435 20.7737 228.435 20.4457 231.211L21.469 231.332ZM23.3507 216.784L24.3777 216.866C24.995 209.125 25.3587 197.99 25.6641 191.764L24.635 191.714L23.6059 191.663C23.2974 197.952 22.9376 209.002 22.3236 216.702L23.3507 216.784ZM24.635 191.714L25.6615 191.803C26.4616 182.577 26.5772 180.32 26.7603 178.435L25.7348 178.335L24.7092 178.236C24.5269 180.114 24.4014 182.483 23.6085 191.625L24.635 191.714ZM25.7348 178.335L26.7633 178.397C26.8276 177.322 26.8272 176.083 26.8272 174.85L25.7969 174.85L24.7665 174.85C24.7665 176.101 24.7662 177.273 24.7063 178.274L25.7348 178.335Z" fill="black"/>
<path d="M21.6497 252.18L20.639 252.38L21.6497 252.18ZM37.2076 251.034L37.1671 250.005C37.1436 250.006 37.1201 250.008 37.0967 250.01L37.2076 251.034ZM49.1464 250.545L49.1213 249.515C49.1124 249.515 49.1035 249.515 49.0946 249.516L49.1464 250.545ZM21.4086 249.752L20.3782 249.752C20.3782 250.018 20.3786 251.064 20.639 252.38L21.6497 252.18L22.6605 251.98C22.4386 250.859 22.4389 249.968 22.4389 249.752L21.4086 249.752ZM21.6497 252.18L20.639 252.38C20.7564 252.973 21.1255 253.398 21.5964 253.655C22.023 253.887 22.5217 253.977 22.9946 254.011C23.9435 254.079 25.192 253.939 26.5831 253.726C29.4537 253.288 33.1383 252.511 37.3185 252.059L37.2076 251.034L37.0967 250.01C32.8732 250.467 28.9793 251.276 26.2721 251.689C24.8742 251.903 23.834 252.005 23.1413 251.955C22.7934 251.931 22.6331 251.873 22.5809 251.844C22.5729 251.84 22.6433 251.893 22.6605 251.98L21.6497 252.18ZM37.2076 251.034L37.2481 252.064C41.9759 251.878 45.5569 251.757 49.1981 251.574L49.1464 250.545L49.0946 249.516C45.4684 249.698 41.9099 249.818 37.1671 250.005L37.2076 251.034ZM49.1464 250.545L49.1715 251.575C51.7043 251.513 55.6678 251.513 59.7734 251.513L59.7734 250.483L59.7734 249.452C55.68 249.452 51.6855 249.452 49.1213 249.515L49.1464 250.545Z" fill="black"/>
<path d="M139.669 230.035L138.66 230.246L139.669 230.035ZM142.177 247.675L143.207 247.705L142.177 247.675ZM135.279 248.594L135.316 249.624L135.279 248.594ZM137.243 213.58L136.212 213.58C136.212 217.077 137.2 223.254 138.66 230.246L139.669 230.035L140.678 229.824C139.214 222.818 138.273 216.836 138.273 213.58H137.243ZM139.669 230.035L138.66 230.246C139.467 234.107 140.104 238.005 140.532 241.178C140.965 244.385 141.173 246.769 141.147 247.646L142.177 247.675L143.207 247.705C143.238 246.633 143.004 244.085 142.574 240.903C142.14 237.688 141.495 233.74 140.678 229.824L139.669 230.035ZM142.177 247.675L141.147 247.646C141.152 247.494 141.213 247.343 141.31 247.233C141.388 247.146 141.447 247.131 141.401 247.151C141.293 247.195 141.031 247.26 140.494 247.316C139.446 247.427 137.781 247.472 135.241 247.565L135.279 248.594L135.316 249.624C137.795 249.534 139.569 249.486 140.71 249.365C141.268 249.307 141.788 249.221 142.191 249.054C142.401 248.967 142.648 248.83 142.851 248.602C143.074 248.351 143.197 248.04 143.207 247.705L142.177 247.675ZM135.279 248.594L135.241 247.565C131.222 247.711 124.134 247.626 120.221 247.566L120.205 248.596L120.189 249.626C124.088 249.687 131.233 249.773 135.316 249.624L135.279 248.594ZM120.205 248.596L120.221 247.566C116.355 247.506 115.904 247.389 115.242 247.327L115.146 248.353L115.051 249.379C115.73 249.442 116.243 249.566 120.189 249.626L120.205 248.596ZM115.146 248.353L115.242 247.327C114.513 247.26 113.616 247.261 112.762 247.261L112.762 248.291L112.762 249.321C113.648 249.321 114.439 249.322 115.051 249.379L115.146 248.353Z" fill="black"/>
<path d="M68.9607 125.152L69.6285 124.367L68.9607 125.152ZM78.5154 129.48L78.7752 128.483L78.5154 129.48ZM84.7944 127.359L85.4154 128.181C85.5571 128.074 85.6687 127.932 85.7395 127.769L84.7944 127.359ZM88.6346 115.429L87.6433 115.148C87.6378 115.167 87.633 115.186 87.6287 115.206L88.6346 115.429ZM65.2539 116.023L64.2257 116.089C64.4762 119.998 65.9857 123.973 68.2929 125.936L68.9607 125.152L69.6285 124.367C67.9129 122.907 66.514 119.574 66.2822 115.957L65.2539 116.023ZM68.9607 125.152L68.2929 125.936C70.5445 127.852 74.1699 129.412 78.2556 130.477L78.5154 129.48L78.7752 128.483C74.8116 127.45 71.5348 125.989 69.6285 124.367L68.9607 125.152ZM78.5154 129.48L78.2556 130.477C81.2845 131.266 83.7019 129.475 85.4154 128.181L84.7944 127.359L84.1735 126.536C82.3501 127.913 80.7153 128.988 78.7752 128.483L78.5154 129.48ZM84.7944 127.359L85.7395 127.769C88.1563 122.206 89.1487 117.869 89.6405 115.652L88.6346 115.429L87.6287 115.206C87.1485 117.37 86.1899 121.561 83.8494 126.948L84.7944 127.359ZM88.6346 115.429L89.6259 115.71C89.8305 114.988 89.998 114.745 90.6348 113.6L89.7344 113.1L88.834 112.599C88.2431 113.661 87.9283 114.142 87.6433 115.148L88.6346 115.429Z" fill="black"/>
<path d="M66.5876 129.84L65.8907 130.599V130.599L66.5876 129.84ZM78.5684 135.264L78.411 136.283L78.5684 135.264ZM88.4501 132.778L89.063 133.606C89.1785 133.521 89.2749 133.412 89.3459 133.287L88.4501 132.778ZM94.7894 119.142L95.7686 119.463C95.7952 119.381 95.8116 119.297 95.8174 119.212L94.7894 119.142ZM60.5059 118.216L59.5122 118.488C61.2442 124.809 63.5104 128.413 65.8907 130.599L66.5876 129.84L67.2846 129.081C65.2766 127.237 63.1656 124.024 61.4996 117.943L60.5059 118.216ZM66.5876 129.84L65.8907 130.599C68.4852 132.982 72.6751 135.396 78.411 136.283L78.5684 135.264L78.7259 134.246C73.4017 133.423 69.5852 131.194 67.2846 129.081L66.5876 129.84ZM78.5684 135.264L78.411 136.283C80.9354 136.673 82.9709 136.488 84.7132 135.942C86.447 135.399 87.8313 134.518 89.063 133.606L88.4501 132.778L87.8372 131.95C86.6867 132.801 85.516 133.532 84.0975 133.976C82.6875 134.417 80.9732 134.594 78.7259 134.246L78.5684 135.264ZM88.4501 132.778L89.3459 133.287C90.6321 131.024 94.0642 124.663 95.7686 119.463L94.7894 119.142L93.8103 118.821C92.1751 123.811 88.8331 130.019 87.5544 132.269L88.4501 132.778ZM94.7894 119.142L95.8174 119.212C95.8824 118.254 95.8819 117.131 95.8819 116.023L94.8516 116.023L93.8212 116.023C93.8212 117.152 93.8207 118.199 93.7615 119.072L94.7894 119.142Z" fill="black"/>
<path d="M84.0666 120.348L84.1426 121.376C84.1545 121.375 84.1663 121.374 84.1782 121.372L84.0666 120.348ZM67.451 120.774L67.451 121.804C77.686 121.804 81.6143 121.563 84.1426 121.376L84.0666 120.348L83.9907 119.321C81.5243 119.503 77.6481 119.744 67.451 119.744L67.451 120.774ZM84.0666 120.348L84.1782 121.372C84.5074 121.337 84.7767 121.283 85.036 121.228C85.2957 121.173 85.5434 121.118 85.8815 121.061L85.7108 120.045L85.5402 119.029C85.1494 119.094 84.8518 119.161 84.61 119.212C84.3677 119.263 84.1794 119.299 83.9551 119.324L84.0666 120.348ZM85.7108 120.045L85.8815 121.061C86.0525 121.032 86.2471 121.003 86.4539 120.973C86.656 120.942 86.8703 120.911 87.0637 120.878C87.2503 120.847 87.4508 120.81 87.6163 120.767C87.6932 120.746 87.8096 120.713 87.9258 120.659C87.9818 120.633 88.0833 120.581 88.1883 120.494C88.2788 120.419 88.4986 120.213 88.5615 119.857L87.5469 119.678L86.5322 119.499C86.5924 119.158 86.8012 118.967 86.873 118.908C86.9594 118.836 87.0346 118.8 87.0574 118.79C87.1072 118.767 87.1295 118.764 87.0902 118.774C87.0233 118.792 86.9028 118.816 86.7243 118.846C86.5525 118.874 86.3575 118.903 86.1504 118.934C85.948 118.964 85.7336 118.996 85.5402 119.029L85.7108 120.045Z" fill="black"/>
<path d="M73.4121 124.356L72.4677 124.768L73.4121 124.356ZM77.5409 125.037L77.601 126.066C77.6481 126.063 77.6949 126.057 77.7412 126.048L77.5409 125.037ZM81.5089 123.336L82.2072 124.094C82.2393 124.065 82.2695 124.033 82.2976 124L81.5089 123.336ZM72.928 121.869L71.9056 121.997C71.9651 122.473 72.0285 122.982 72.1093 123.443C72.1878 123.891 72.295 124.372 72.4677 124.768L73.4121 124.356L74.3566 123.944C74.2863 123.783 74.2118 123.503 74.1391 123.088C74.0687 122.686 74.0114 122.23 73.9504 121.742L72.928 121.869ZM73.4121 124.356L72.4677 124.768C72.6875 125.272 73.0891 125.581 73.487 125.766C73.8724 125.944 74.307 126.031 74.7235 126.078C75.5528 126.171 76.5806 126.125 77.601 126.066L77.5409 125.037L77.4809 124.009C76.4351 124.07 75.5799 124.1 74.9522 124.03C74.6401 123.995 74.4527 123.942 74.3527 123.896C74.2653 123.855 74.3183 123.856 74.3566 123.944L73.4121 124.356ZM77.5409 125.037L77.7412 126.048C79.659 125.668 81.2201 125.004 82.2072 124.094L81.5089 123.336L80.8107 122.579C80.2157 123.127 79.073 123.683 77.3406 124.027L77.5409 125.037ZM81.5089 123.336L82.2976 124C82.8411 123.353 82.9667 122.674 83.0892 121.226L82.0625 121.139L81.0358 121.052C80.9738 121.785 80.9178 122.163 80.8586 122.388C80.8141 122.557 80.7794 122.603 80.7203 122.673L81.5089 123.336Z" fill="black"/>
<path d="M31.2751 143.792L31.4934 144.799L61.8199 138.222L61.6016 137.215L61.3832 136.208L31.0567 142.785L31.2751 143.792Z" fill="black"/>
<path d="M75.8735 137.153L75.9139 136.123L75.8735 137.153ZM91.0002 137.034L91.041 138.063L91.0002 137.034ZM105.847 135.938L105.895 136.967L105.847 135.938ZM117.982 133.565L117.797 132.551C117.775 132.555 117.754 132.56 117.733 132.565L117.982 133.565ZM123.956 132.77L124.012 133.799C124.035 133.797 124.058 133.795 124.081 133.793L123.956 132.77ZM67.4515 136.484L67.3948 137.513C68.4563 137.571 69.3518 137.688 70.6317 137.82C71.8998 137.951 73.4803 138.09 75.8331 138.182L75.8735 137.153L75.9139 136.123C73.6118 136.033 72.0756 135.898 70.8436 135.77C69.6234 135.644 68.6354 135.517 67.5082 135.455L67.4515 136.484ZM75.8735 137.153L75.8331 138.182C79.6799 138.333 86.4645 138.245 91.041 138.063L91.0002 137.034L90.9594 136.004C86.4087 136.185 79.6842 136.271 75.9139 136.123L75.8735 137.153ZM91.0002 137.034L91.041 138.063C94.442 137.929 97.1868 137.698 99.569 137.479C101.96 137.26 103.951 137.056 105.895 136.967L105.847 135.938L105.8 134.909C103.796 135 101.738 135.211 99.3806 135.427C97.0137 135.645 94.309 135.872 90.9594 136.004L91.0002 137.034ZM105.847 135.938L105.895 136.967C112.905 136.646 115.46 135.254 118.231 134.564L117.982 133.565L117.733 132.565C114.661 133.329 112.538 134.6 105.8 134.909L105.847 135.938ZM117.982 133.565L118.167 134.578C120.799 134.098 122.972 133.856 124.012 133.799L123.956 132.77L123.899 131.741C122.75 131.804 120.488 132.06 117.797 132.551L117.982 133.565ZM123.956 132.77L124.081 133.793C124.379 133.756 124.634 133.701 124.878 133.648C125.124 133.594 125.377 133.538 125.718 133.481L125.547 132.465L125.376 131.449C124.979 131.516 124.681 131.582 124.439 131.635C124.195 131.688 124.024 131.724 123.83 131.747L123.956 132.77Z" fill="black"/>
<path d="M31.2085 211.897L30.1784 211.915L31.2085 211.897ZM32.8436 227.223L32.5461 226.236L32.8436 227.223ZM44.2343 226.249L44.4122 227.264C44.4948 227.249 44.5753 227.225 44.6519 227.191L44.2343 226.249ZM30.1745 141.965L29.1442 141.965C29.1442 143.11 29.1442 144.256 29.1442 145.715C29.1442 147.173 29.1442 148.945 29.1442 151.344L30.1745 151.344L31.2049 151.344C31.2049 148.945 31.2049 147.173 31.2049 145.715C31.2049 144.256 31.2049 143.11 31.2049 141.965L30.1745 141.965ZM30.1745 151.344L29.1442 151.344C29.1442 156.138 29.1442 163.382 29.2046 167.48L30.2348 167.465L31.265 167.449C31.2049 163.37 31.2049 156.145 31.2049 151.344L30.1745 151.344ZM30.2348 167.465L29.2046 167.48C29.2349 169.536 29.2805 170.748 29.3335 172.189C29.3864 173.626 29.4469 175.295 29.5079 178.277L30.5381 178.256L31.5682 178.235C31.5068 175.238 31.4459 173.556 31.3928 172.113C31.3399 170.676 31.295 169.482 31.265 167.449L30.2348 167.465ZM30.5381 178.256L29.5079 178.277C29.5691 181.263 29.6298 185.557 29.6905 189.877C29.7512 194.193 29.812 198.535 29.8733 201.608L30.9035 201.587L31.9336 201.567C31.8725 198.502 31.8118 194.167 31.751 189.848C31.6903 185.531 31.6295 181.229 31.5682 178.235L30.5381 178.256ZM30.9035 201.587L29.8733 201.608C29.9347 204.685 29.9956 206.406 30.049 207.791C30.1023 209.173 30.1475 210.204 30.1784 211.915L31.2085 211.897L32.2387 211.878C32.2074 210.142 32.1613 209.088 32.1082 207.711C32.0552 206.338 31.9946 204.629 31.9336 201.567L30.9035 201.587ZM31.2085 211.897L30.1784 211.915C30.2647 216.706 30.3709 220.665 30.6103 223.385C30.729 224.733 30.8856 225.847 31.1128 226.621C31.222 226.994 31.3786 227.401 31.6353 227.715C31.7715 227.881 31.9711 228.065 32.2503 228.175C32.5476 228.292 32.8581 228.294 33.1412 228.209L32.8436 227.223L32.5461 226.236C32.6778 226.196 32.8443 226.194 33.0048 226.257C33.1472 226.313 33.217 226.394 33.2301 226.41C33.2406 226.423 33.1775 226.339 33.0901 226.041C32.9242 225.476 32.7802 224.535 32.6631 223.204C32.431 220.569 32.3253 216.683 32.2387 211.878L31.2085 211.897ZM32.8436 227.223L33.1412 228.209C35.0425 227.635 37.0798 227.513 39.052 227.485C40.9487 227.457 42.9235 227.525 44.4122 227.264L44.2343 226.249L44.0565 225.234C42.7829 225.457 41.1077 225.394 39.0223 225.424C37.0124 225.453 34.7355 225.576 32.5461 226.236L32.8436 227.223ZM44.2343 226.249L44.6519 227.191C45.2787 226.913 45.9008 226.596 46.5038 226.354L46.1197 225.397L45.7356 224.441C45.1109 224.692 44.2861 225.099 43.8167 225.307L44.2343 226.249ZM46.1197 225.397L46.5038 226.354C46.7495 226.255 47.1248 226.125 47.5024 225.917C47.9069 225.695 48.3184 225.388 48.8036 224.907L48.0781 224.175L47.3527 223.444C46.9756 223.818 46.7147 223.999 46.5091 224.112C46.2764 224.24 46.1037 224.293 45.7356 224.441L46.1197 225.397Z" fill="black"/>
<path d="M45.2392 162.719L46.1356 163.227L45.2392 162.719ZM49.6602 166.619L49.0539 167.452L49.6602 166.619ZM43.2058 186.279L42.3776 186.892V186.892L43.2058 186.279ZM49.3077 193.413L50.2463 193.838C50.2937 193.733 50.3232 193.621 50.3337 193.507L49.3077 193.413ZM49.5488 160.234L49.1358 159.29C48.1821 159.708 47.1772 160.147 46.3547 160.585C45.9422 160.806 45.5486 161.04 45.2163 161.287C44.8985 161.524 44.5597 161.828 44.3427 162.211L45.2392 162.719L46.1356 163.227C46.1355 163.227 46.1526 163.198 46.2079 163.142C46.2619 163.087 46.3397 163.02 46.4469 162.94C46.6635 162.779 46.9575 162.599 47.3248 162.404C48.062 162.01 48.9863 161.605 49.9618 161.178L49.5488 160.234ZM45.2392 162.719L44.3427 162.211C44.1348 162.578 44.0519 162.984 44.1112 163.397C44.1677 163.79 44.3428 164.121 44.5354 164.382C44.9052 164.884 45.4697 165.302 45.9921 165.64C46.5318 165.988 47.1474 166.325 47.6854 166.625C48.2477 166.939 48.717 167.207 49.0539 167.452L49.6602 166.619L50.2666 165.786C49.8116 165.455 49.2307 165.127 48.6887 164.825C48.1225 164.51 47.5796 164.212 47.1106 163.909C46.6242 163.595 46.3296 163.343 46.1941 163.159C46.134 163.078 46.1449 163.062 46.151 163.104C46.1543 163.128 46.1543 163.156 46.1485 163.186C46.1429 163.214 46.1347 163.229 46.1356 163.227L45.2392 162.719ZM49.6602 166.619L49.0539 167.452C49.0544 167.453 49.0519 167.451 49.0474 167.447C49.043 167.442 49.0375 167.436 49.0319 167.428C49.0198 167.411 49.0126 167.395 49.0092 167.384C49.0031 167.364 49.0171 167.391 48.9992 167.487C48.9604 167.695 48.8093 168.027 48.505 168.412L49.3131 169.051L50.1213 169.69C50.5422 169.158 50.9025 168.52 51.0249 167.865C51.154 167.173 51.0205 166.335 50.2666 165.786L49.6602 166.619ZM49.3131 169.051L48.505 168.412C48.1968 168.802 47.7591 169.203 47.1965 169.75C46.6698 170.262 46.0659 170.875 45.5972 171.586L46.4577 172.153L47.3182 172.72C47.6534 172.211 48.1145 171.731 48.6332 171.227C49.1161 170.757 49.7042 170.218 50.1213 169.69L49.3131 169.051ZM46.4577 172.153L45.5972 171.586C44.6636 173.004 44.3105 174.782 44.7959 176.201L45.7708 175.867L46.7457 175.534C46.5149 174.859 46.6441 173.743 47.3182 172.72L46.4577 172.153ZM45.7708 175.867L44.7959 176.201C45.0467 176.934 45.4982 177.475 45.8743 177.871C46.0513 178.057 46.26 178.259 46.3893 178.39C46.5408 178.543 46.6333 178.646 46.6913 178.727L47.5301 178.129L48.3688 177.53C48.2086 177.306 48.0167 177.104 47.8534 176.939C47.6678 176.752 47.5311 176.623 47.3676 176.451C47.0628 176.13 46.853 175.847 46.7457 175.534L45.7708 175.867ZM47.5301 178.129L46.6913 178.727C46.7421 178.798 46.7473 178.828 46.7458 178.822C46.7426 178.808 46.7449 178.793 46.7444 178.794C46.735 178.829 46.6597 179.013 46.2615 179.361L46.94 180.137L47.6185 180.912C48.1264 180.468 48.5645 179.954 48.7327 179.336C48.922 178.64 48.7194 178.022 48.3688 177.53L47.5301 178.129ZM46.94 180.137L46.2615 179.361C45.8621 179.711 45.2793 180.106 44.5873 180.592C43.9348 181.05 43.1964 181.582 42.6311 182.141L43.3556 182.873L44.0801 183.606C44.505 183.186 45.1058 182.746 45.7713 182.278C46.3974 181.839 47.1118 181.355 47.6185 180.912L46.94 180.137ZM43.3556 182.873L42.6311 182.141C42.0598 182.706 41.5578 183.407 41.4776 184.303C41.3972 185.202 41.7611 186.058 42.3776 186.892L43.2058 186.279L44.0341 185.666C43.5691 185.037 43.5128 184.681 43.5301 184.487C43.5476 184.291 43.6613 184.02 44.0801 183.606L43.3556 182.873ZM43.2058 186.279L42.3776 186.892C43.8847 188.928 45.5021 190.451 46.6716 191.578C47.272 192.156 47.7164 192.595 48.0082 192.957C48.3375 193.366 48.2704 193.44 48.2816 193.318L49.3077 193.413L50.3337 193.507C50.4033 192.748 49.9647 192.101 49.6134 191.665C49.2245 191.182 48.6791 190.65 48.1014 190.094C46.9147 188.95 45.4226 187.542 44.0341 185.666L43.2058 186.279ZM49.3077 193.413L48.369 192.988C48.2356 193.283 47.9773 193.651 47.5563 194.279C47.1633 194.866 46.6907 195.596 46.2598 196.483L47.1866 196.933L48.1135 197.383C48.4809 196.626 48.8898 195.991 49.2682 195.426C49.6186 194.903 50.0217 194.334 50.2463 193.838L49.3077 193.413ZM47.1866 196.933L46.2598 196.483C45.4118 198.229 44.7844 200.502 44.1715 202.708L45.1643 202.984L46.157 203.26C46.7864 200.994 47.3648 198.925 48.1135 197.383L47.1866 196.933Z" fill="black"/>
<path d="M105.089 156.804L105.957 157.36V157.36L105.089 156.804ZM106.773 159.189L107.599 158.572L106.773 159.189ZM100.902 165.632L101.556 166.428L100.902 165.632ZM100.26 170.015L99.3842 170.557L100.26 170.015ZM105.991 178.303L104.962 178.333C104.966 178.491 105.007 178.646 105.081 178.786L105.991 178.303ZM111.542 192.973L112.482 193.394C112.51 193.332 112.531 193.269 112.546 193.204L111.542 192.973ZM111.291 152.561L111.291 151.53C108.888 151.53 106.045 153.397 104.221 156.249L105.089 156.804L105.957 157.36C107.556 154.859 109.836 153.591 111.291 153.591L111.291 152.561ZM105.089 156.804L104.221 156.249C103.875 156.79 103.865 157.374 104.077 157.879C104.258 158.308 104.579 158.637 104.824 158.86C105.074 159.088 105.376 159.315 105.573 159.472C105.813 159.663 105.914 159.76 105.948 159.805L106.773 159.189L107.599 158.572C107.381 158.281 107.071 158.03 106.854 157.858C106.594 157.652 106.393 157.502 106.21 157.335C106.125 157.258 106.064 157.195 106.023 157.144C105.981 157.092 105.973 157.072 105.977 157.081C106.008 157.155 106.002 157.29 105.957 157.36L105.089 156.804ZM106.773 159.189L105.948 159.805C105.785 159.587 105.974 159.449 105.797 159.769C105.632 160.066 105.287 160.483 104.733 161.024C103.635 162.097 102.013 163.383 100.247 164.836L100.902 165.632L101.556 166.428C103.26 165.025 104.993 163.652 106.174 162.498C106.759 161.926 107.284 161.337 107.599 160.767C107.902 160.22 108.181 159.352 107.599 158.572L106.773 159.189ZM100.902 165.632L100.247 164.836C99.3582 165.568 98.7701 166.468 98.6236 167.52C98.4783 168.561 98.7885 169.594 99.3842 170.557L100.26 170.015L101.137 169.473C100.713 168.788 100.604 168.238 100.665 167.804C100.724 167.381 100.966 166.914 101.556 166.428L100.902 165.632ZM100.26 170.015L99.3842 170.557C100.738 172.746 102.218 174.385 103.297 175.656C103.848 176.306 104.272 176.832 104.563 177.301C104.854 177.769 104.955 178.091 104.962 178.333L105.991 178.303L107.021 178.274C107 177.515 106.696 176.828 106.314 176.214C105.933 175.6 105.416 174.969 104.868 174.323C103.748 173.004 102.39 171.499 101.137 169.473L100.26 170.015ZM105.991 178.303L105.081 178.786C106.824 182.07 108.364 184.894 109.387 187.3C110.429 189.748 110.82 191.512 110.537 192.743L111.542 192.973L112.546 193.204C112.989 191.272 112.333 188.959 111.283 186.493C110.215 183.983 108.617 181.054 106.902 177.82L105.991 178.303ZM111.542 192.973L110.601 192.553C110.117 193.636 109.249 194.335 108.101 195.227L108.734 196.041L109.366 196.854C110.455 196.007 111.757 195.018 112.482 193.394L111.542 192.973Z" fill="black"/>
<path d="M123.473 158.889L122.923 159.761L123.473 158.889ZM116.918 164.116L116.191 163.386L116.918 164.116ZM116.957 167.223L116.089 167.779L116.957 167.223ZM120.607 181.698L121.63 181.576L120.607 181.698ZM120.07 157.312L119.609 158.234C119.78 158.32 120.017 158.413 120.239 158.5C120.481 158.595 120.753 158.7 121.053 158.825C121.653 159.073 122.322 159.381 122.923 159.761L123.473 158.889L124.023 158.018C123.278 157.548 122.486 157.188 121.842 156.921C121.519 156.787 121.223 156.673 120.992 156.582C120.741 156.483 120.601 156.426 120.53 156.391L120.07 157.312ZM123.473 158.889L122.923 159.761C122.919 159.758 122.837 159.706 122.766 159.58C122.684 159.435 122.659 159.27 122.681 159.126C122.713 158.915 122.821 158.874 122.667 159.021C122.403 159.275 121.866 159.625 121.079 160.09C120.341 160.526 119.423 161.044 118.571 161.581C117.719 162.119 116.852 162.727 116.191 163.386L116.918 164.116L117.646 164.845C118.142 164.35 118.853 163.841 119.671 163.324C120.491 162.807 121.336 162.332 122.128 161.864C122.87 161.425 123.627 160.957 124.096 160.507C124.308 160.302 124.643 159.937 124.718 159.433C124.762 159.143 124.714 158.839 124.559 158.564C124.413 158.308 124.208 158.134 124.023 158.018L123.473 158.889ZM116.918 164.116L116.191 163.386C115.501 164.074 115.238 164.89 115.308 165.719C115.372 166.49 115.717 167.198 116.089 167.779L116.957 167.223L117.825 166.668C117.531 166.209 117.385 165.835 117.361 165.547C117.342 165.317 117.392 165.099 117.646 164.845L116.918 164.116ZM116.957 167.223L116.089 167.779C117.478 169.95 118.566 173.254 119.584 181.82L120.607 181.698L121.63 181.576C120.609 172.984 119.486 169.266 117.825 166.668L116.957 167.223ZM120.607 181.698L119.584 181.82C119.766 183.354 120.715 184.523 121.536 185.409C121.746 185.637 121.96 185.858 122.159 186.063C122.361 186.273 122.548 186.467 122.72 186.657C123.072 187.046 123.313 187.362 123.451 187.642L124.376 187.188L125.3 186.733C125.032 186.187 124.633 185.699 124.247 185.273C124.05 185.056 123.842 184.84 123.641 184.632C123.437 184.421 123.24 184.217 123.048 184.01C122.257 183.155 121.729 182.407 121.63 181.576L120.607 181.698ZM124.376 187.188L123.451 187.642C124.07 188.901 123.834 190.119 123.318 191.446L124.279 191.819L125.239 192.192C125.82 190.698 126.307 188.781 125.3 186.733L124.376 187.188ZM124.279 191.819L123.318 191.446C122.823 192.721 122.173 193.82 120.772 195.346L121.531 196.043L122.29 196.74C123.841 195.05 124.639 193.737 125.239 192.192L124.279 191.819Z" fill="black"/>
<path d="M91.7988 159.127L91.1492 159.927L91.7988 159.127ZM91.8609 175.8L90.86 176.044C90.8687 176.08 90.8792 176.114 90.8915 176.149L91.8609 175.8ZM93.8121 183.232L92.8008 183.429C92.8041 183.446 92.8079 183.463 92.812 183.48L93.8121 183.232ZM88.6401 149.637L87.614 149.73C87.8608 152.445 88.3285 154.634 88.9264 156.309C89.515 157.958 90.2656 159.21 91.1492 159.927L91.7988 159.127L92.4484 158.328C91.9892 157.955 91.4016 157.113 90.8672 155.616C90.3419 154.145 89.9017 152.134 89.6662 149.543L88.6401 149.637ZM91.7988 159.127L91.1492 159.927C91.7802 160.44 92.0783 161.152 92.1298 162.18C92.1832 163.249 91.9628 164.535 91.6425 166.049C91.0291 168.95 90.0312 172.652 90.86 176.044L91.8609 175.8L92.8618 175.555C92.1725 172.734 92.9969 169.605 93.6586 166.476C93.976 164.975 94.2564 163.446 94.1879 162.077C94.1174 160.669 93.6708 159.321 92.4484 158.328L91.7988 159.127ZM91.8609 175.8L90.8915 176.149C91.6585 178.28 92.2603 180.661 92.8008 183.429L93.8121 183.232L94.8233 183.034C94.2713 180.208 93.6455 177.715 92.8304 175.451L91.8609 175.8ZM93.8121 183.232L92.812 183.48C93.1387 184.796 93.5295 185.705 93.9045 186.581L94.8516 186.175L95.7986 185.769C95.4283 184.905 95.0956 184.126 94.8121 182.983L93.8121 183.232Z" fill="black"/>
<path d="M114.691 216.932L114.472 215.925V215.925L114.691 216.932ZM123.624 214.562L123.329 213.575L123.624 214.562ZM139.171 212.485L139.347 213.5C139.371 213.496 139.396 213.491 139.42 213.485L139.171 212.485ZM145.384 211.266L145.469 212.293C145.507 212.29 145.545 212.285 145.582 212.278L145.384 211.266ZM99.9658 218.695L99.9658 219.725C102.714 219.725 110.059 218.992 114.909 217.939L114.691 216.932L114.472 215.925C109.749 216.95 102.552 217.664 99.9658 217.664L99.9658 218.695ZM114.691 216.932L114.909 217.939C116.742 217.54 119.828 216.772 123.919 215.549L123.624 214.562L123.329 213.575C119.28 214.785 116.245 215.54 114.472 215.925L114.691 216.932ZM123.624 214.562L123.919 215.549C127.393 214.511 130.315 214.154 132.819 213.981C135.255 213.813 137.512 213.818 139.347 213.5L139.171 212.485L138.995 211.47C137.293 211.764 135.346 211.741 132.677 211.925C130.076 212.105 126.993 212.48 123.329 213.575L123.624 214.562ZM139.171 212.485L139.42 213.485C141.863 212.876 144.102 212.406 145.469 212.293L145.384 211.266L145.299 210.24C143.747 210.368 141.361 210.877 138.922 211.485L139.171 212.485ZM145.384 211.266L145.582 212.278C146.411 212.115 146.917 211.773 147.306 211.514L146.734 210.656L146.163 209.799C145.806 210.037 145.588 210.177 145.186 210.255L145.384 211.266Z" fill="black"/>
<path d="M144.431 202.528L145.413 202.218V202.218L144.431 202.528ZM140.039 187.162L139.039 187.413L140.039 187.162ZM135.411 172.852L134.43 173.167L135.411 172.852ZM133.705 162.81L132.683 162.944L133.705 162.81ZM132.552 156.728L133.547 156.458L132.552 156.728ZM128.409 139.42L127.419 139.707L127.422 139.715L128.409 139.42ZM126.339 133.147L127.293 132.758C127.288 132.746 127.283 132.734 127.277 132.722L126.339 133.147ZM146.734 210.291L147.765 210.291C147.765 210.172 147.744 210.064 147.738 210.029C147.727 209.971 147.714 209.908 147.699 209.844C147.669 209.716 147.627 209.552 147.574 209.358C147.469 208.969 147.316 208.431 147.118 207.761C146.722 206.421 146.144 204.534 145.413 202.218L144.431 202.528L143.448 202.839C144.177 205.147 144.751 207.021 145.142 208.345C145.338 209.008 145.486 209.529 145.585 209.895C145.635 210.079 145.67 210.217 145.692 210.312C145.703 210.359 145.709 210.388 145.711 210.401C145.718 210.437 145.704 210.38 145.704 210.291L146.734 210.291ZM144.431 202.528L145.413 202.218C143.493 196.134 141.766 189.816 141.038 186.912L140.039 187.162L139.039 187.413C139.777 190.355 141.514 196.714 143.448 202.839L144.431 202.528ZM140.039 187.162L141.038 186.912C140.036 182.912 137.836 177.04 136.392 172.538L135.411 172.852L134.43 173.167C135.931 177.847 138.056 183.489 139.039 187.413L140.039 187.162ZM135.411 172.852L136.392 172.538C135.551 169.914 135.342 167.37 134.727 162.676L133.705 162.81L132.683 162.944C133.28 167.494 133.515 170.313 134.43 173.167L135.411 172.852ZM133.705 162.81L134.727 162.676C134.488 160.856 134.354 159.435 133.547 156.458L132.552 156.728L131.558 156.998C132.325 159.827 132.445 161.126 132.683 162.944L133.705 162.81ZM132.552 156.728L133.547 156.458C132.062 150.987 131.259 147.44 130.713 144.884C130.172 142.352 129.867 140.702 129.396 139.125L128.409 139.42L127.422 139.715C127.862 141.187 128.139 142.7 128.698 145.314C129.25 147.903 130.063 151.486 131.558 156.998L132.552 156.728ZM128.409 139.42L129.398 139.133C128.73 136.829 127.984 134.454 127.293 132.758L126.339 133.147L125.385 133.535C126.032 135.124 126.754 137.411 127.419 139.707L128.409 139.42ZM126.339 133.147L127.277 132.722C126.936 131.968 126.659 131.552 126.4 131.163L125.542 131.734L124.685 132.306C124.922 132.662 125.128 132.969 125.4 133.572L126.339 133.147Z" fill="black"/>
<path d="M66.6558 208.777L67.6812 208.676L66.6558 208.777ZM65.8647 192.859L64.8346 192.881L65.8647 192.859ZM64.3429 183.456L63.321 183.587L64.3429 183.456ZM63.3053 167.065L64.3334 167.133C64.3348 167.111 64.3355 167.089 64.3356 167.068L63.3053 167.065ZM66.7161 220.522L67.7426 220.61C68.1147 216.294 67.8702 210.609 67.6812 208.676L66.6558 208.777L65.6303 208.877C65.8104 210.718 66.0482 216.273 65.6895 220.433L66.7161 220.522ZM66.6558 208.777L67.6812 208.676C67.4619 206.433 67.139 204.284 66.8948 192.837L65.8647 192.859L64.8346 192.881C65.0801 204.387 65.4065 206.588 65.6303 208.877L66.6558 208.777ZM65.8647 192.859L66.8948 192.837C66.851 190.782 66.5636 189.195 66.2399 187.718C65.9137 186.231 65.5719 184.936 65.3649 183.325L64.3429 183.456L63.321 183.587C63.5433 185.318 63.9206 186.762 64.227 188.16C64.5359 189.569 64.7948 191.012 64.8346 192.881L65.8647 192.859ZM64.3429 183.456L65.3649 183.325C64.2942 174.992 64.097 170.71 64.3334 167.133L63.3053 167.065L62.2772 166.997C62.0275 170.775 62.2451 175.214 63.321 183.587L64.3429 183.456ZM63.3053 167.065L64.3356 167.068C64.3366 166.651 64.303 166.216 64.2654 165.777C64.2269 165.327 64.1831 164.862 64.1531 164.332L63.1244 164.39L62.0957 164.449C62.1278 165.017 62.1754 165.523 62.2122 165.953C62.25 166.394 62.2757 166.747 62.2749 167.062L63.3053 167.065ZM63.1244 164.39L64.1531 164.332C64.093 163.269 64.0926 161.975 64.0926 160.6L63.0623 160.6L62.0319 160.6C62.0319 161.957 62.0316 163.315 62.0957 164.449L63.1244 164.39Z" fill="black"/>
<path d="M38.3597 267.019L37.3552 266.789L38.3597 267.019ZM39.5115 259.925L40.5256 260.107L39.5115 259.925ZM40.5949 253.771L41.5961 254.014L40.5949 253.771ZM43.1104 247.275L44.0582 247.679L43.1104 247.275ZM45.8912 235.468L46.9078 235.636V235.636L45.8912 235.468ZM46.6872 228.787L45.675 228.595L46.6872 228.787ZM47.9744 226.064L48.8599 226.591C48.8696 226.575 48.8789 226.558 48.8877 226.541L47.9744 226.064ZM48.766 224.481L47.9257 223.885C47.901 223.92 47.8785 223.956 47.8583 223.994L48.766 224.481ZM35.3249 277.752L36.2465 278.213C36.4089 277.888 36.5472 277.572 37.1269 275.604L36.1385 275.313L35.1501 275.022C34.5666 277.003 34.4729 277.152 34.4034 277.291L35.3249 277.752ZM36.1385 275.313L37.1269 275.604C37.71 273.624 38.7611 269.888 39.3641 267.248L38.3597 267.019L37.3552 266.789C36.7668 269.365 35.7303 273.052 35.1501 275.022L36.1385 275.313ZM38.3597 267.019L39.3641 267.248C40.2613 263.321 40.3611 261.022 40.5256 260.107L39.5115 259.925L38.4975 259.742C38.2525 261.105 38.2673 262.796 37.3552 266.789L38.3597 267.019ZM39.5115 259.925L40.5256 260.107C41.0085 257.421 41.2548 255.419 41.5961 254.014L40.5949 253.771L39.5937 253.528C39.2356 255.001 38.9479 257.237 38.4975 259.742L39.5115 259.925ZM40.5949 253.771L41.5961 254.014C42.0139 252.295 42.9198 250.349 44.0582 247.679L43.1104 247.275L42.1626 246.871C41.078 249.415 40.0638 251.593 39.5937 253.528L40.5949 253.771ZM43.1104 247.275L44.0582 247.679C44.447 246.767 44.8613 245.604 45.3997 243.31L44.3967 243.075L43.3936 242.839C42.8759 245.044 42.4952 246.091 42.1626 246.871L43.1104 247.275ZM44.3967 243.075L45.3997 243.31C45.9345 241.032 46.5766 237.645 46.9078 235.636L45.8912 235.468L44.8746 235.301C44.5485 237.279 43.9149 240.618 43.3936 242.839L44.3967 243.075ZM45.8912 235.468L46.9078 235.636C47.1829 233.967 47.3116 232.651 47.4078 231.57C47.5058 230.47 47.5657 229.683 47.6994 228.98L46.6872 228.787L45.675 228.595C45.517 229.425 45.4479 230.346 45.3553 231.388C45.2609 232.448 45.1375 233.706 44.8746 235.301L45.8912 235.468ZM46.6872 228.787L47.6994 228.98C47.8151 228.372 48.1832 227.729 48.8599 226.591L47.9744 226.064L47.0889 225.538C46.4775 226.565 45.8734 227.552 45.675 228.595L46.6872 228.787ZM47.9744 226.064L48.8877 226.541C49.0703 226.192 49.2228 225.879 49.3518 225.614C49.4844 225.341 49.584 225.136 49.6737 224.969L48.766 224.481L47.8583 223.994C47.7442 224.206 47.6233 224.457 47.4986 224.713C47.3705 224.976 47.229 225.266 47.0611 225.588L47.9744 226.064ZM48.766 224.481L49.6064 225.077C49.6906 224.959 49.8498 224.795 50.1114 224.533L49.3828 223.805L48.6543 223.076C48.4378 223.293 48.1331 223.593 47.9257 223.885L48.766 224.481Z" fill="black"/>
<path d="M48.855 224.128L49.0649 225.137C49.0779 225.134 49.0908 225.131 49.1037 225.128L48.855 224.128ZM46.9273 224.332L46.9273 225.362C47.5761 225.362 48.2931 225.297 49.0649 225.137L48.855 224.128L48.6452 223.119C48.0147 223.25 47.4384 223.301 46.9273 223.301L46.9273 224.332ZM48.855 224.128L49.1037 225.128C49.5078 225.027 49.8944 224.897 50.3136 224.748L49.9674 223.777L49.6211 222.807C49.2179 222.951 48.9086 223.053 48.6063 223.128L48.855 224.128ZM49.9674 223.777L50.3136 224.748C50.7188 224.603 51.1297 224.449 51.8895 224.284L51.6719 223.277L51.4542 222.27C50.5553 222.465 50.0383 222.658 49.6211 222.807L49.9674 223.777Z" fill="black"/>
<path d="M53.9228 222.956L53.72 221.946C53.6902 221.952 53.6606 221.959 53.6315 221.968L53.9228 222.956ZM55.5658 222.429L55.1575 221.483C55.13 221.495 55.103 221.508 55.0767 221.522L55.5658 222.429ZM49.0376 223.98L49.1399 225.005C50.3845 224.881 52.678 224.397 54.214 223.945L53.9228 222.956L53.6315 221.968C52.1802 222.396 50.0173 222.847 48.9354 222.955L49.0376 223.98ZM53.9228 222.956L54.1255 223.966C54.9053 223.81 55.5488 223.609 56.0549 223.336L55.5658 222.429L55.0767 221.522C54.8236 221.659 54.4023 221.809 53.72 221.946L53.9228 222.956ZM55.5658 222.429L55.9741 223.375C56.0336 223.349 56.0956 223.328 56.2753 223.266C56.4418 223.208 56.6622 223.129 56.9754 223.004L56.5938 222.047L56.2121 221.09C55.9349 221.2 55.7441 221.268 55.5956 221.32C55.4603 221.368 55.3035 221.42 55.1575 221.483L55.5658 222.429Z" fill="black"/>
<path d="M51.2587 227.462L52.2507 227.741C52.2582 227.714 52.2646 227.687 52.27 227.66L51.2587 227.462ZM52.1953 223.805L51.2059 223.517C50.675 225.343 50.4335 226.312 50.2474 227.265L51.2587 227.462L52.27 227.66C52.4389 226.794 52.6613 225.893 53.1847 224.092L52.1953 223.805ZM51.2587 227.462L50.2667 227.184C50.2657 227.188 50.2616 227.201 50.2449 227.244C50.2326 227.276 50.2004 227.357 50.174 227.429C50.1112 227.602 50.0473 227.816 50.0055 228.102L51.025 228.251L52.0445 228.4C52.0624 228.278 52.0864 228.201 52.111 228.133C52.1283 228.085 52.1397 228.058 52.1674 227.986C52.1905 227.926 52.2227 227.84 52.2507 227.741L51.2587 227.462ZM51.025 228.251L50.0055 228.102C49.9253 228.651 49.9364 229.412 50.1328 230.343L51.141 230.131L52.1491 229.918C51.9941 229.183 52.0052 228.669 52.0445 228.4L51.025 228.251Z" fill="black"/>
<path d="M53.8389 225.946L52.9344 225.453C52.9014 225.514 52.8745 225.577 52.8542 225.643L53.8389 225.946ZM55.1261 223.253L54.2212 222.761C54.2179 222.767 54.2146 222.773 54.2114 222.779L55.1261 223.253ZM51.6731 230.482L52.5521 231.019C53.2142 229.937 54.4359 227.509 54.8236 226.25L53.8389 225.946L52.8542 225.643C52.5374 226.672 51.4114 228.935 50.7942 229.944L51.6731 230.482ZM53.8389 225.946L54.7435 226.44C55.0273 225.919 55.2601 225.413 55.4662 224.957C55.6776 224.488 55.8526 224.091 56.0409 223.728L55.1261 223.253L54.2114 222.779C53.9902 223.206 53.7857 223.671 53.5878 224.109C53.3847 224.559 53.1786 225.005 52.9344 225.453L53.8389 225.946ZM55.1261 223.253L56.031 223.746C56.1871 223.459 56.2838 223.315 56.3964 223.146L55.5391 222.574L54.6818 222.003C54.5553 222.192 54.4201 222.395 54.2212 222.761L55.1261 223.253Z" fill="black"/>
<path d="M58.2013 218.74L59.0343 219.346L58.2013 218.74ZM59.4024 217.859L59.9219 218.749V218.749L59.4024 217.859ZM61.4241 218.003L60.8565 218.862L61.4241 218.003ZM60.4892 225.411L61.5144 225.514L60.4892 225.411ZM59.2012 229.804L60.1486 230.209C60.1643 230.172 60.1778 230.135 60.1891 230.097L59.2012 229.804ZM56.242 222.046L57.1836 222.464C57.6148 221.493 58.2734 220.391 59.0343 219.346L58.2013 218.74L57.3683 218.133C56.5441 219.265 55.804 220.494 55.3003 221.628L56.242 222.046ZM58.2013 218.74L59.0343 219.346C59.1025 219.252 59.2009 219.165 59.3511 219.07C59.4271 219.022 59.5091 218.976 59.6059 218.923C59.6915 218.877 59.8155 218.811 59.9219 218.749L59.4024 217.859L58.8828 216.97C58.6951 217.079 57.8761 217.436 57.3683 218.133L58.2013 218.74ZM59.4024 217.859L59.9219 218.749C60.0134 218.696 60.1721 218.665 60.4138 218.71C60.5266 218.731 60.6341 218.765 60.7229 218.8C60.8181 218.838 60.8633 218.867 60.8565 218.862L61.4241 218.003L61.9916 217.143C61.7406 216.977 61.2977 216.779 60.7915 216.684C60.2804 216.589 59.5601 216.574 58.8828 216.97L59.4024 217.859ZM61.4241 218.003L60.8565 218.862C60.861 218.865 60.8644 218.868 60.8697 218.875C60.8759 218.883 60.8892 218.903 60.9045 218.944C60.9376 219.03 60.969 219.182 60.9696 219.422C60.971 219.91 60.847 220.556 60.6417 221.301C60.439 222.035 60.1827 222.778 59.9527 223.472C59.7421 224.107 59.5145 224.806 59.4641 225.308L60.4892 225.411L61.5144 225.514C61.5369 225.291 61.6705 224.839 61.9086 224.12C62.1274 223.461 62.4074 222.648 62.6281 221.849C62.846 221.059 63.0324 220.193 63.0303 219.416C63.0283 218.667 62.8444 217.705 61.9916 217.143L61.4241 218.003ZM60.4892 225.411L59.4641 225.308C59.4154 225.792 59.2104 226.517 58.9417 227.334C58.6955 228.082 58.3785 228.954 58.2133 229.511L59.2012 229.804L60.1891 230.097C60.3472 229.563 60.6128 228.849 60.8991 227.978C61.1629 227.176 61.4403 226.251 61.5144 225.514L60.4892 225.411ZM59.2012 229.804L58.2537 229.399C58.2045 229.514 58.0392 229.862 57.9444 230.114L58.9086 230.477L59.8727 230.84C59.9555 230.621 60.0221 230.505 60.1486 230.209L59.2012 229.804ZM58.9086 230.477L57.9444 230.114C57.8119 230.466 57.7413 230.795 57.677 231.431L58.7021 231.535L59.7272 231.639C59.7824 231.094 59.8278 230.96 59.8727 230.84L58.9086 230.477Z" fill="black"/>
<path d="M52.0483 271.552L51.0293 271.4L52.0483 271.552ZM54.1816 263.568L53.2032 263.245V263.245L54.1816 263.568ZM55.3888 256.173L56.4167 256.244L55.3888 256.173ZM55.7403 252.218L56.7682 252.289L55.7403 252.218ZM58.6678 244.778L59.5893 245.239L58.6678 244.778ZM60.1316 240.65L61.1007 241L60.1316 240.65ZM62.2684 236.314L63.1025 236.919V236.919L62.2684 236.314ZM64.5818 233.298L65.3735 233.957V233.957L64.5818 233.298ZM67.1017 229.696L68 230.2L67.1017 229.696ZM68.5698 226.209L69.5541 225.905L68.5698 226.209ZM67.0779 226L66.8898 224.987L67.0779 226ZM63.2445 230.155L63.8584 230.983C63.8656 230.977 63.8727 230.972 63.8797 230.966L63.2445 230.155ZM60.4619 232.147L59.8713 231.303C59.8623 231.309 59.8535 231.315 59.8447 231.322L60.4619 232.147ZM51.3182 278.103L52.3333 278.28C52.4592 277.555 52.5512 276.495 52.6549 275.367C52.761 274.212 52.8828 272.937 53.0673 271.705L52.0483 271.552L51.0293 271.4C50.8351 272.697 50.7087 274.026 50.6029 275.178C50.4946 276.356 50.4108 277.307 50.3031 277.927L51.3182 278.103ZM52.0483 271.552L53.0673 271.705C53.3415 269.872 54.1674 266.897 55.16 263.891L54.1816 263.568L53.2032 263.245C52.2049 266.268 51.331 269.383 51.0293 271.4L52.0483 271.552ZM54.1816 263.568L55.16 263.891C55.9939 261.366 56.2681 258.396 56.4167 256.244L55.3888 256.173L54.3609 256.102C54.2125 258.251 53.948 260.989 53.2032 263.245L54.1816 263.568ZM55.3888 256.173L56.4167 256.244C56.4633 255.569 56.5274 254.918 56.5924 254.262C56.6569 253.611 56.7225 252.952 56.7682 252.289L55.7403 252.218L54.7123 252.147C54.6692 252.774 54.6069 253.401 54.5418 254.059C54.4771 254.712 54.4099 255.392 54.3609 256.102L55.3888 256.173ZM55.7403 252.218L56.7682 252.289C56.8286 251.409 57.2885 250.096 57.9028 248.704C58.503 247.343 59.1779 246.061 59.5893 245.239L58.6678 244.778L57.7463 244.317C57.3591 245.091 56.6443 246.451 56.0174 247.872C55.4047 249.261 54.8001 250.87 54.7123 252.147L55.7403 252.218ZM58.6678 244.778L59.5893 245.239C59.9396 244.539 60.2004 243.79 60.4291 243.076C60.6662 242.337 60.8598 241.668 61.1007 241L60.1316 240.65L59.1624 240.3C58.9052 241.013 58.6804 241.781 58.4668 242.447C58.245 243.139 58.023 243.764 57.7463 244.317L58.6678 244.778ZM60.1316 240.65L61.1007 241C61.8281 238.985 62.4738 237.786 63.1025 236.919L62.2684 236.314L61.4342 235.709C60.6589 236.779 59.9331 238.165 59.1624 240.3L60.1316 240.65ZM62.2684 236.314L63.1025 236.919C64.1216 235.514 64.6623 234.811 65.3735 233.957L64.5818 233.298L63.7901 232.639C63.0392 233.54 62.4691 234.282 61.4342 235.709L62.2684 236.314ZM64.5818 233.298L65.3735 233.957C66.6623 232.41 67.2931 231.458 68 230.2L67.1017 229.696L66.2034 229.191C65.5607 230.335 65.0022 231.183 63.7901 232.639L64.5818 233.298ZM67.1017 229.696L68 230.2C68.3802 229.523 68.801 228.738 69.1111 228.05C69.265 227.709 69.4041 227.364 69.4954 227.055C69.541 226.901 69.5819 226.732 69.6023 226.561C69.6208 226.406 69.634 226.163 69.5541 225.905L68.5698 226.209L67.5856 226.514C67.5419 226.373 67.5599 226.284 67.5561 226.316C67.5542 226.333 67.5456 226.382 67.5191 226.472C67.4661 226.651 67.3699 226.898 67.2326 227.203C66.9601 227.807 66.5744 228.53 66.2034 229.191L67.1017 229.696ZM68.5698 226.209L69.5541 225.905C69.412 225.445 69.081 225.165 68.7565 225.022C68.4652 224.894 68.1695 224.867 67.9587 224.864C67.5391 224.859 67.0922 224.949 66.8898 224.987L67.0779 226L67.2661 227.013C67.3913 226.99 67.5093 226.967 67.6333 226.95C67.758 226.932 67.8575 226.924 67.9305 226.925C68.0159 226.926 67.9962 226.939 67.9251 226.908C67.882 226.889 67.8124 226.85 67.7421 226.777C67.6684 226.701 67.6149 226.609 67.5856 226.514L68.5698 226.209ZM67.0779 226L66.8898 224.987C66.2655 225.103 65.7879 225.502 65.45 225.852C65.0989 226.217 64.7683 226.67 64.4685 227.093C63.8216 228.005 63.267 228.829 62.6093 229.344L63.2445 230.155L63.8797 230.966C64.8334 230.22 65.5868 229.079 66.1494 228.285C66.4544 227.855 66.7039 227.521 66.9339 227.282C67.1771 227.03 67.2817 227.01 67.2661 227.013L67.0779 226ZM63.2445 230.155L62.6307 229.328C61.7377 229.99 60.7474 230.69 59.8713 231.303L60.4619 232.147L61.0526 232.991C61.9319 232.376 62.9414 231.663 63.8584 230.983L63.2445 230.155ZM60.4619 232.147L59.8447 231.322C59.4251 231.636 59.2066 231.856 58.8486 232.213L59.5772 232.942L60.3057 233.671C60.6577 233.319 60.7871 233.19 61.0792 232.972L60.4619 232.147Z" fill="black"/>
<path d="M63.7052 226.743L62.8353 226.191V226.191L63.7052 226.743ZM64.8236 223.604L65.8436 223.75L64.8236 223.604ZM64.5926 222.956L64.4993 221.93L64.5926 222.956ZM61.0192 225.91L60.3078 225.165C60.2671 225.204 60.2296 225.246 60.1957 225.291L61.0192 225.91ZM60.0238 227.139L59.2246 226.489C59.1985 226.521 59.1743 226.555 59.1522 226.59L60.0238 227.139ZM59.7575 232.415L60.5583 233.063C62.5915 230.552 63.2101 229.445 64.575 227.295L63.7052 226.743L62.8353 226.191C61.4571 228.362 60.9019 229.364 58.9568 231.766L59.7575 232.415ZM63.7052 226.743L64.575 227.295C65.5555 225.751 65.7495 224.406 65.8436 223.75L64.8236 223.604L63.8037 223.458C63.722 224.028 63.5778 225.021 62.8353 226.191L63.7052 226.743ZM64.8236 223.604L65.8436 223.75C65.8712 223.557 65.9036 223.227 65.8233 222.903C65.7817 222.735 65.6853 222.467 65.4427 222.244C65.1662 221.989 64.8184 221.901 64.4993 221.93L64.5926 222.956L64.6859 223.982C64.4973 223.999 64.2493 223.946 64.0477 223.761C63.8802 223.606 63.8339 223.442 63.8232 223.398C63.8103 223.346 63.8137 223.325 63.8134 223.352C63.8131 223.373 63.8107 223.409 63.8037 223.458L64.8236 223.604ZM64.5926 222.956L64.4993 221.93C63.0674 222.06 62.1171 222.85 61.4798 223.594C61.1666 223.959 60.9102 224.335 60.7142 224.621C60.4908 224.946 60.3817 225.094 60.3078 225.165L61.0192 225.91L61.7306 226.655C61.9941 226.404 62.2348 226.046 62.4127 225.787C62.6179 225.489 62.8142 225.203 63.0443 224.935C63.4938 224.41 63.9928 224.045 64.6859 223.982L64.5926 222.956ZM61.0192 225.91L60.1957 225.291C59.9476 225.621 59.6297 225.991 59.2246 226.489L60.0238 227.139L60.8229 227.79C61.1787 227.352 61.5637 226.9 61.8428 226.529L61.0192 225.91ZM60.0238 227.139L59.1522 226.59C58.883 227.017 58.8019 227.429 58.7377 227.875L59.7575 228.021L60.7773 228.168C60.8055 227.973 60.8269 227.869 60.8467 227.801C60.8622 227.748 60.8758 227.72 60.8953 227.689L60.0238 227.139Z" fill="black"/>
<path d="M60.1375 219.648L59.8461 219.467L60.1375 219.648ZM59.044 219.557L58.9841 219.218L59.044 219.557ZM58.4611 220.012L58.6638 220.29V220.29L58.4611 220.012ZM57.8214 221.872L58.1497 221.972L57.8214 221.872ZM57.6612 222.363L58.0038 222.386L57.6612 222.363ZM58.0021 222.774L57.7987 223.05L58.0021 222.774ZM59.0388 222.9L59.0577 223.243L59.0388 222.9ZM60.284 221.271L60.5826 221.441C60.5944 221.42 60.604 221.398 60.6112 221.375L60.284 221.271ZM60.4681 220.209L60.807 220.153C60.8035 220.132 60.7979 220.111 60.7905 220.09L60.4681 220.209ZM59.2699 219.432L59.2321 219.773C59.4166 219.793 59.6221 219.835 59.7779 219.876C59.8566 219.897 59.9143 219.915 59.9465 219.927C59.9658 219.935 59.9612 219.934 59.9462 219.925C59.9429 219.923 59.9073 219.903 59.8723 219.861C59.854 219.839 59.8193 219.792 59.8032 219.721C59.7844 219.638 59.7965 219.546 59.8461 219.467L60.1375 219.648L60.4289 219.83C60.4799 219.748 60.4923 219.654 60.473 219.569C60.4563 219.495 60.42 219.445 60.3993 219.42C60.3594 219.373 60.3153 219.346 60.3002 219.337C60.2614 219.313 60.2196 219.296 60.1906 219.285C60.1259 219.261 60.042 219.235 59.9521 219.212C59.7709 219.164 59.5318 219.115 59.3076 219.09L59.2699 219.432ZM60.1375 219.648L59.8461 219.467C59.8807 219.411 59.9392 219.407 59.931 219.407C59.9043 219.407 59.8491 219.397 59.7453 219.364C59.667 219.339 59.5227 219.288 59.4164 219.258C59.3061 219.227 59.1452 219.19 58.9841 219.218L59.044 219.557L59.1038 219.895C59.1022 219.895 59.1348 219.892 59.2308 219.919C59.3307 219.947 59.4055 219.977 59.5377 220.019C59.6445 220.053 59.7914 220.095 59.9372 220.094C60.1013 220.092 60.3025 220.033 60.4289 219.83L60.1375 219.648ZM59.044 219.557L58.9841 219.218C58.7371 219.262 58.5713 219.407 58.4649 219.517C58.4162 219.567 58.3605 219.632 58.331 219.664C58.2929 219.706 58.2717 219.725 58.2583 219.735L58.4611 220.012L58.6638 220.29C58.7358 220.237 58.7952 220.175 58.8386 220.127C58.8906 220.07 58.9174 220.037 58.9581 219.995C59.0303 219.921 59.0706 219.901 59.1038 219.895L59.044 219.557ZM58.4611 220.012L58.2583 219.735C57.8694 220.02 57.721 220.498 57.644 220.871C57.6038 221.065 57.5782 221.26 57.5562 221.418C57.5326 221.587 57.5148 221.7 57.493 221.771L57.8214 221.872L58.1497 221.972C58.1909 221.838 58.2152 221.666 58.2366 221.512C58.2596 221.346 58.2821 221.178 58.3167 221.01C58.3893 220.657 58.4978 220.411 58.6638 220.29L58.4611 220.012ZM57.8214 221.872L57.493 221.771C57.4724 221.838 57.4484 221.887 57.4072 221.989C57.3719 222.078 57.3281 222.198 57.3185 222.339L57.6612 222.363L58.0038 222.386C58.0059 222.356 58.0161 222.317 58.0448 222.245C58.0678 222.188 58.118 222.076 58.1497 221.972L57.8214 221.872ZM57.6612 222.363L57.3185 222.339C57.3031 222.565 57.4288 222.728 57.517 222.819C57.607 222.912 57.7228 222.995 57.7987 223.05L58.0021 222.774L58.2055 222.497C58.1605 222.464 58.1229 222.436 58.0876 222.409C58.0527 222.381 58.0277 222.359 58.0103 222.341C57.968 222.298 58.0084 222.318 58.0038 222.386L57.6612 222.363ZM58.0021 222.774L57.7987 223.05C57.9826 223.185 58.2192 223.229 58.4162 223.245C58.6235 223.263 58.851 223.255 59.0577 223.243L59.0388 222.9L59.0199 222.557C58.8163 222.569 58.6299 222.574 58.4737 222.561C58.3072 222.547 58.2306 222.515 58.2055 222.497L58.0021 222.774ZM59.0388 222.9L59.0577 223.243C59.3044 223.23 59.5035 223.107 59.6553 222.966C59.806 222.826 59.9325 222.647 60.0396 222.471C60.1478 222.292 60.2464 222.098 60.3352 221.921C60.4267 221.738 60.5057 221.576 60.5826 221.441L60.284 221.271L59.9854 221.101C59.8969 221.257 59.807 221.441 59.7208 221.613C59.632 221.791 59.5444 221.962 59.4522 222.115C59.3588 222.269 59.2709 222.386 59.1877 222.463C59.1055 222.539 59.0513 222.556 59.0199 222.557L59.0388 222.9ZM60.284 221.271L60.6112 221.375C60.6887 221.132 60.7476 220.902 60.7827 220.702C60.8163 220.509 60.8336 220.314 60.807 220.153L60.4681 220.209L60.1293 220.265C60.1366 220.309 60.1359 220.413 60.106 220.583C60.0776 220.746 60.0275 220.945 59.9568 221.167L60.284 221.271ZM60.4681 220.209L60.7905 220.09C60.7151 219.886 60.5631 219.764 60.383 219.673L60.2282 219.979L60.0734 220.286C60.1246 220.312 60.1436 220.328 60.1486 220.333C60.1505 220.335 60.1497 220.334 60.148 220.331C60.1463 220.329 60.1456 220.327 60.1458 220.328L60.4681 220.209Z" fill="black"/>
<path d="M66.0817 229.196L65.9873 229.526L66.0817 229.196ZM66.3672 229.083L66.1043 228.862L66.3672 229.083ZM66.8594 227.92L67.2025 227.934C67.204 227.898 67.1996 227.861 67.1895 227.826L66.8594 227.92ZM65.57 228.877L65.4202 229.186C65.3893 229.171 65.3711 229.155 65.3855 229.166C65.3921 229.171 65.4017 229.179 65.4185 229.192C65.4494 229.218 65.4952 229.255 65.5486 229.295C65.6502 229.37 65.807 229.474 65.9873 229.526L66.0817 229.196L66.1762 228.865C66.1172 228.849 66.0408 228.804 65.9576 228.743C65.9186 228.714 65.8843 228.686 65.8524 228.66C65.8377 228.648 65.8203 228.634 65.8048 228.622C65.7973 228.616 65.7621 228.588 65.7199 228.568L65.57 228.877ZM66.0817 229.196L65.9873 229.526C66.0606 229.547 66.1854 229.575 66.3286 229.527C66.4623 229.483 66.5582 229.39 66.63 229.304L66.3672 229.083L66.1043 228.862C66.0951 228.873 66.088 228.881 66.0828 228.886C66.0777 228.891 66.0752 228.893 66.0752 228.893C66.0757 228.893 66.0881 228.883 66.1114 228.875C66.1363 228.867 66.1593 228.866 66.1751 228.867C66.1875 228.868 66.1908 228.87 66.1762 228.865L66.0817 229.196ZM66.3672 229.083L66.63 229.304C66.9913 228.875 67.1873 228.311 67.2025 227.934L66.8594 227.92L66.5162 227.906C66.5075 228.123 66.3729 228.543 66.1043 228.862L66.3672 229.083ZM66.8594 227.92L67.1895 227.826C67.146 227.674 67.0417 227.55 66.8958 227.487C66.7545 227.426 66.603 227.434 66.4743 227.484L66.5986 227.804L66.7228 228.124C66.7088 228.13 66.6711 228.138 66.6233 228.117C66.5708 228.095 66.5395 228.051 66.5293 228.015L66.8594 227.92ZM66.5986 227.804L66.4743 227.484C66.3455 227.534 66.2451 227.623 66.1684 227.711C66.09 227.801 66.0195 227.909 65.9548 228.024L66.2546 228.192L66.5543 228.36C66.6061 228.267 66.6502 228.204 66.686 228.162C66.7236 228.119 66.737 228.119 66.7228 228.124L66.5986 227.804Z" fill="black"/>
<path d="M63.2281 225.479L63.2983 225.815V225.815L63.2281 225.479ZM61.5297 225.113L61.4466 225.447C61.7879 225.532 62.1912 225.643 62.4895 225.715C62.6455 225.753 62.7933 225.785 62.9195 225.806C63.0303 225.823 63.1754 225.841 63.2983 225.815L63.2281 225.479L63.1579 225.143C63.1726 225.14 63.1422 225.146 63.0279 225.127C62.9289 225.112 62.802 225.084 62.6513 225.047C62.3363 224.971 61.9985 224.876 61.6129 224.78L61.5297 225.113ZM63.2281 225.479L63.2983 225.815C63.4457 225.784 63.5526 225.7 63.6209 225.628C63.6906 225.555 63.741 225.473 63.7746 225.407L63.4684 225.252L63.1621 225.096C63.1562 225.108 63.1494 225.12 63.1421 225.13C63.1348 225.141 63.1283 225.149 63.1235 225.154C63.1185 225.159 63.1177 225.159 63.1221 225.156C63.1268 225.153 63.1389 225.147 63.1579 225.143L63.2281 225.479ZM63.4684 225.252L63.7746 225.407C63.8155 225.327 63.8539 225.213 63.8409 225.086C63.8261 224.941 63.7468 224.808 63.6101 224.727L63.4358 225.023L63.2616 225.319C63.2383 225.305 63.2117 225.283 63.1905 225.249C63.1694 225.216 63.1603 225.182 63.1575 225.155C63.1526 225.107 63.1677 225.085 63.1621 225.096L63.4684 225.252ZM63.4358 225.023L63.6101 224.727C63.4989 224.662 63.3719 224.646 63.2958 224.64C63.2089 224.633 63.1133 224.633 63.0357 224.633L63.0357 224.977L63.0357 225.32C63.1211 225.32 63.186 225.32 63.2387 225.325C63.264 225.327 63.2788 225.329 63.286 225.331C63.2946 225.333 63.2826 225.331 63.2616 225.319L63.4358 225.023Z" fill="black"/>
<path d="M53.02 270.388L54.002 270.7L53.02 270.388ZM55.1637 265.129L54.2121 264.734L55.1637 265.129ZM57.7618 258.666L58.7261 259.029L57.7618 258.666ZM59.6339 253.774L58.6874 253.366L59.6339 253.774ZM62.0419 247.697L61.0683 247.36V247.36L62.0419 247.697ZM63.465 241.411L64.4698 241.639L63.465 241.411ZM64.7333 235.156L63.7765 234.773L64.7333 235.156ZM66.9059 230.749L67.8279 231.209L66.9059 230.749ZM68.234 228.606L69.1489 229.08L68.234 228.606ZM69.4715 225.438L70.4263 225.825L69.4715 225.438ZM71.5165 218.608L70.557 218.233C70.5481 218.255 70.54 218.279 70.5328 218.302L71.5165 218.608ZM74.9302 210.687L75.8474 211.157C75.8524 211.147 75.8573 211.137 75.862 211.127L74.9302 210.687ZM51.2167 275.767L51.9453 276.496C52.0757 276.365 52.1472 276.221 52.1583 276.2C52.1873 276.145 52.2127 276.088 52.2334 276.04C52.2756 275.942 52.3225 275.82 52.3721 275.685C52.4723 275.412 52.602 275.033 52.7567 274.567C53.0669 273.634 53.4898 272.312 54.002 270.7L53.02 270.388L52.038 270.076C51.5254 271.69 51.1064 272.999 50.8011 273.918C50.648 274.379 50.5264 274.733 50.4375 274.975C50.3925 275.098 50.3603 275.18 50.3396 275.228C50.3288 275.253 50.3268 275.256 50.3325 275.245C50.3354 275.239 50.3455 275.22 50.3624 275.194C50.3743 275.175 50.4162 275.11 50.4882 275.039L51.2167 275.767ZM53.02 270.388L54.002 270.7C54.5467 268.985 55.2665 267.569 56.1153 265.524L55.1637 265.129L54.2121 264.734C53.435 266.606 52.6172 268.253 52.038 270.076L53.02 270.388ZM55.1637 265.129L56.1153 265.524C57.2632 262.759 58.0261 260.888 58.7261 259.029L57.7618 258.666L56.7975 258.303C56.1107 260.127 55.3594 261.971 54.2121 264.734L55.1637 265.129ZM57.7618 258.666L58.7261 259.029C59.7476 256.315 60.1385 255.208 60.5804 254.181L59.6339 253.774L58.6874 253.366C58.2204 254.452 57.7979 255.645 56.7975 258.303L57.7618 258.666ZM59.6339 253.774L60.5804 254.181C60.909 253.417 61.8852 251.3 63.0156 248.034L62.0419 247.697L61.0683 247.36C59.9681 250.539 59.027 252.577 58.6874 253.366L59.6339 253.774ZM62.0419 247.697L63.0156 248.034C64.0167 245.142 64.1554 243.025 64.4698 241.639L63.465 241.411L62.4602 241.183C62.054 242.974 62.0332 244.573 61.0683 247.36L62.0419 247.697ZM63.465 241.411L64.4698 241.639C64.8485 239.969 65.109 238.536 65.3032 237.457C65.4011 236.912 65.4798 236.471 65.549 236.127C65.5835 235.955 65.6135 235.818 65.6401 235.712C65.6533 235.659 65.6646 235.618 65.6741 235.587C65.6787 235.571 65.6825 235.559 65.6855 235.551C65.6869 235.547 65.688 235.544 65.6888 235.541C65.6897 235.539 65.6901 235.538 65.69 235.538L64.7333 235.156L63.7765 234.773C63.6762 235.024 63.5979 235.376 63.5287 235.721C63.4543 236.091 63.3709 236.559 63.275 237.092C63.0817 238.167 62.828 239.562 62.4602 241.183L63.465 241.411ZM64.7333 235.156L65.69 235.538C66.4944 233.526 67.1686 232.531 67.8279 231.209L66.9059 230.749L65.984 230.289C65.4357 231.388 64.6171 232.67 63.7765 234.773L64.7333 235.156ZM66.9059 230.749L67.8279 231.209C67.9792 230.906 68.1656 230.63 68.403 230.282C68.6314 229.949 68.9048 229.551 69.1489 229.08L68.234 228.606L67.319 228.132C67.1413 228.476 66.9384 228.774 66.702 229.119C66.4747 229.452 66.208 229.84 65.984 230.289L66.9059 230.749ZM68.234 228.606L69.1489 229.08C69.4861 228.429 69.7159 227.828 69.9071 227.283C70.106 226.717 70.2423 226.279 70.4263 225.825L69.4715 225.438L68.5166 225.051C68.3086 225.564 68.1318 226.119 67.9628 226.6C67.7861 227.103 67.593 227.603 67.319 228.132L68.234 228.606ZM69.4715 225.438L70.4263 225.825C70.6564 225.257 70.8176 224.661 71.0872 223.694C71.3622 222.708 71.7691 221.261 72.5002 218.915L71.5165 218.608L70.5328 218.302C69.7936 220.674 69.3807 222.142 69.1022 223.141C68.8182 224.159 68.692 224.618 68.5166 225.051L69.4715 225.438ZM71.5165 218.608L72.4759 218.984C73.9408 215.242 75.2065 212.409 75.8474 211.157L74.9302 210.687L74.0131 210.218C73.3269 211.558 72.0324 214.464 70.557 218.233L71.5165 218.608ZM74.9302 210.687L75.862 211.127C75.9964 210.842 76.102 210.589 76.1783 210.301C76.2532 210.019 76.2898 209.742 76.322 209.424L75.2969 209.32L74.2718 209.217C74.2424 209.507 74.2184 209.653 74.1866 209.773C74.1563 209.887 74.1095 210.012 73.9985 210.247L74.9302 210.687Z" fill="black"/>
<path d="M83.7604 206.876L83.816 207.905L83.7604 206.876ZM89.1956 208.139L89.5409 207.168L89.1956 208.139ZM95.7072 214.038L94.9624 214.75L95.7072 214.038ZM98.7878 217.268L99.6071 216.644C99.5995 216.634 99.5917 216.624 99.5837 216.614L98.7878 217.268ZM103.902 224.464L102.96 224.883C102.966 224.896 102.973 224.91 102.979 224.924L103.902 224.464ZM75.4781 209.139L76.0286 210.01C78.1259 208.684 79.9858 208.112 83.816 207.905L83.7604 206.876L83.7047 205.847C79.6392 206.067 77.4073 206.701 74.9275 208.268L75.4781 209.139ZM83.7604 206.876L83.816 207.905C85.3457 207.822 86.9904 208.448 88.8503 209.109L89.1956 208.139L89.5409 207.168C87.8431 206.564 85.7435 205.737 83.7047 205.847L83.7604 206.876ZM89.1956 208.139L88.8503 209.109C89.5188 209.347 90.351 209.987 91.4237 211.037C92.4847 212.075 93.6156 213.341 94.9624 214.75L95.7072 214.038L96.4521 213.326C95.1772 211.993 93.9537 210.629 92.865 209.564C91.7881 208.51 90.6753 207.571 89.5409 207.168L89.1956 208.139ZM95.7072 214.038L94.9624 214.75C96.1566 216 96.7815 216.451 97.992 217.923L98.7878 217.268L99.5837 216.614C98.3228 215.081 97.4639 214.385 96.4521 213.326L95.7072 214.038ZM98.7878 217.268L97.9685 217.893C99.4465 219.831 100.657 221.484 101.525 222.716C101.96 223.333 102.306 223.84 102.556 224.222C102.681 224.414 102.779 224.569 102.851 224.689C102.887 224.749 102.914 224.796 102.933 224.832C102.954 224.87 102.961 224.885 102.96 224.883L103.902 224.464L104.843 224.046C104.743 223.821 104.531 223.477 104.281 223.095C104.013 222.685 103.652 222.157 103.21 221.529C102.324 220.272 101.098 218.598 99.6071 216.644L98.7878 217.268ZM103.902 224.464L102.979 224.924C103.133 225.231 103.285 225.458 103.408 225.643L104.266 225.072L105.123 224.5C105 224.316 104.913 224.184 104.824 224.005L103.902 224.464Z" fill="black"/>
<path d="M107.009 240.447L108.022 240.261L107.009 240.447ZM109.302 247.418L108.396 247.91L109.302 247.418ZM117.992 267.535L117.017 267.867C117.02 267.875 117.023 267.884 117.026 267.892L117.992 267.535ZM119.839 272.474L118.93 272.959C118.935 272.967 118.939 272.976 118.944 272.984L119.839 272.474ZM104.27 225.434L103.265 225.657C103.622 227.265 103.977 228.861 104.456 231.582L105.471 231.403L106.485 231.224C105.998 228.459 105.636 226.829 105.276 225.21L104.27 225.434ZM105.471 231.403L104.456 231.582C104.931 234.275 105.541 238.168 105.996 240.634L107.009 240.447L108.022 240.261C107.563 237.771 106.978 234.016 106.485 231.224L105.471 231.403ZM107.009 240.447L105.996 240.634C106.662 244.245 107.409 246.092 108.396 247.91L109.302 247.418L110.207 246.926C109.333 245.317 108.653 243.68 108.022 240.261L107.009 240.447ZM109.302 247.418L108.396 247.91C108.702 248.473 109.149 249.112 109.592 249.799C110.055 250.518 110.592 251.403 111.174 252.591L112.099 252.138L113.024 251.685C112.397 250.404 111.817 249.448 111.324 248.683C110.811 247.887 110.465 247.4 110.207 246.926L109.302 247.418ZM112.099 252.138L111.174 252.591C112.359 255.01 113.778 258.613 114.842 261.528L115.81 261.175L116.778 260.821C115.708 257.89 114.259 254.204 113.024 251.685L112.099 252.138ZM115.81 261.175L114.842 261.528C115.904 264.438 116.55 266.496 117.017 267.867L117.992 267.535L118.968 267.203C118.518 265.882 117.85 263.758 116.778 260.821L115.81 261.175ZM117.992 267.535L117.026 267.892C117.586 269.408 117.985 270.52 118.278 271.326C118.557 272.09 118.767 272.653 118.93 272.959L119.839 272.474L120.748 271.989C120.671 271.844 120.519 271.454 120.214 270.62C119.926 269.829 119.521 268.698 118.959 267.178L117.992 267.535ZM119.839 272.474L118.944 272.984C119.086 273.233 119.224 273.44 119.346 273.622L120.203 273.051L121.06 272.479C120.936 272.292 120.835 272.141 120.734 271.964L119.839 272.474Z" fill="black"/>
<path d="M74.6932 203.833L73.6727 203.975L74.6932 203.833ZM74.7222 199.637L75.7434 199.774L74.7222 199.637ZM75.2346 192.679L76.2617 192.761L75.2346 192.679ZM74.724 185.759L73.7048 185.91L74.724 185.759ZM73.6069 178.939L74.6286 178.806C74.6268 178.793 74.6248 178.779 74.6226 178.766L73.6069 178.939ZM73.2747 175.802L74.3045 175.769C74.304 175.754 74.3032 175.739 74.3021 175.724L73.2747 175.802ZM75.1151 209.501L76.1412 209.595C76.3359 207.455 75.9489 205.385 75.7138 203.692L74.6932 203.833L73.6727 203.975C73.9264 205.803 74.2564 207.568 74.089 209.408L75.1151 209.501ZM74.6932 203.833L75.7138 203.692C75.5202 202.297 75.601 200.838 75.7434 199.774L74.7222 199.637L73.701 199.501C73.5429 200.681 73.4455 202.338 73.6727 203.975L74.6932 203.833ZM74.7222 199.637L75.7434 199.774C75.9123 198.513 75.9681 196.474 76.2617 192.761L75.2346 192.679L74.2075 192.598C73.9 196.486 73.8617 198.3 73.701 199.501L74.7222 199.637ZM75.2346 192.679L76.2617 192.761C76.6033 188.442 75.9343 186.898 75.7433 185.608L74.724 185.759L73.7048 185.91C73.9338 187.456 74.5246 188.589 74.2075 192.598L75.2346 192.679ZM74.724 185.759L75.7433 185.608C75.6295 184.839 75.4225 183.697 75.2119 182.487C74.9988 181.264 74.7785 179.954 74.6286 178.806L73.6069 178.939L72.5853 179.073C72.7413 180.268 72.9684 181.616 73.1817 182.841C73.3975 184.08 73.5961 185.176 73.7048 185.91L74.724 185.759ZM73.6069 178.939L74.6226 178.766C74.45 177.755 74.3327 176.649 74.3045 175.769L73.2747 175.802L72.2449 175.835C72.2765 176.823 72.4054 178.023 72.5913 179.113L73.6069 178.939ZM73.2747 175.802L74.3021 175.724C74.2656 175.239 74.1888 174.933 74.1231 174.67L73.1235 174.92L72.1239 175.17C72.1813 175.399 72.224 175.571 72.2473 175.879L73.2747 175.802Z" fill="black"/>
<path d="M94.7013 208.855L93.6842 209.02V209.02L94.7013 208.855ZM93.3117 203.323L92.3013 203.525L93.3117 203.323ZM91.6215 196.955L92.6286 196.737L91.6215 196.955ZM90.2383 191.359L89.245 191.633L90.2383 191.359ZM85.8984 177.242L86.8486 176.843L85.8984 177.242ZM82.539 170.879L81.5978 171.299C81.6012 171.306 81.6047 171.314 81.6082 171.321L82.539 170.879ZM80.943 167.838L80.0328 168.32C80.0359 168.326 80.0391 168.332 80.0424 168.338L80.943 167.838ZM95.2109 212.941L96.2413 212.941C96.2413 212.489 96.1078 211.093 95.7183 208.69L94.7013 208.855L93.6842 209.02C94.0751 211.432 94.1806 212.676 94.1806 212.941L95.2109 212.941ZM94.7013 208.855L95.7183 208.69C95.4904 207.284 95.1835 206.12 94.9104 205.183C94.6235 204.199 94.4155 203.589 94.3221 203.121L93.3117 203.323L92.3013 203.525C92.4179 204.109 92.686 204.916 92.932 205.76C93.1918 206.651 93.4746 207.727 93.6842 209.02L94.7013 208.855ZM93.3117 203.323L94.3221 203.121C94.032 201.669 93.6969 200.494 93.3901 199.469C93.0793 198.43 92.8137 197.593 92.6286 196.737L91.6215 196.955L90.6145 197.172C90.8213 198.129 91.12 199.071 91.4159 200.059C91.7158 201.062 92.0298 202.165 92.3013 203.525L93.3117 203.323ZM91.6215 196.955L92.6286 196.737C92.408 195.716 92.0505 194.054 91.2315 191.085L90.2383 191.359L89.245 191.633C90.0501 194.552 90.3985 196.173 90.6145 197.172L91.6215 196.955ZM90.2383 191.359L91.2315 191.085C90.9833 190.185 90.7431 189.095 90.4527 187.845C90.1658 186.61 89.836 185.248 89.4186 183.865L88.4323 184.163L87.4459 184.461C87.8433 185.777 88.1609 187.086 88.4455 188.311C88.7266 189.521 88.982 190.68 89.245 191.633L90.2383 191.359ZM88.4323 184.163L89.4186 183.865C88.5887 181.117 87.4975 178.39 86.8486 176.843L85.8984 177.242L84.9483 177.64C85.5866 179.162 86.6463 181.813 87.4459 184.461L88.4323 184.163ZM85.8984 177.242L86.8486 176.843C86.2379 175.387 85.5259 174.074 84.9007 172.979C84.2535 171.846 83.7508 171.029 83.4697 170.437L82.539 170.879L81.6082 171.321C81.9337 172.007 82.5238 172.972 83.1112 174.001C83.7207 175.068 84.3852 176.298 84.9483 177.64L85.8984 177.242ZM82.539 170.879L83.4801 170.46C83.2183 169.872 82.5958 168.691 81.8436 167.337L80.943 167.838L80.0424 168.338C80.7983 169.698 81.378 170.805 81.5978 171.299L82.539 170.879ZM80.943 167.838L81.8532 167.355C81.7229 167.109 81.6527 166.961 81.6104 166.863C81.5711 166.771 81.5518 166.714 81.523 166.627L80.5456 166.953L79.5681 167.279C79.6482 167.519 79.7307 167.751 80.0328 168.32L80.943 167.838Z" fill="black"/>
<path d="M71.6236 170.775L72.6128 170.487C72.6023 170.451 72.5899 170.416 72.5756 170.381L71.6236 170.775ZM69.9615 167.202L70.8933 166.762C70.8901 166.756 70.8868 166.749 70.8835 166.742L69.9615 167.202ZM72.9453 176.911L73.9757 176.911C73.9757 176.315 73.8344 175.413 73.6084 174.355C73.3771 173.272 73.0399 171.953 72.6128 170.487L71.6236 170.775L70.6344 171.064C71.0511 172.493 71.3747 173.763 71.5933 174.786C71.8172 175.834 71.915 176.551 71.915 176.911L72.9453 176.911ZM71.6236 170.775L72.5756 170.381C71.9586 168.89 71.3835 167.801 70.8933 166.762L69.9615 167.202L69.0298 167.642C69.5644 168.774 70.0792 169.738 70.6716 171.169L71.6236 170.775ZM69.9615 167.202L70.8835 166.742C70.6452 166.265 70.5016 166.047 70.3626 165.839L69.5053 166.41L68.648 166.982C68.7552 167.142 68.8506 167.284 69.0396 167.662L69.9615 167.202Z" fill="black"/>
<path d="M78.747 164.38L79.5892 163.786L78.747 164.38ZM76.4937 159.125L75.5281 159.485L76.4937 159.125ZM73.2288 153.833L72.289 154.255L73.2288 153.833ZM69.8472 150.486L70.3377 149.58C70.2379 149.526 70.13 149.489 70.0182 149.47L69.8472 150.486ZM65.6591 149.896L65.4906 150.913C65.4982 150.914 65.5059 150.915 65.5136 150.916L65.6591 149.896ZM81.0937 167.69L81.951 167.119C81.7755 166.855 80.8725 165.607 79.5892 163.786L78.747 164.38L77.9048 164.974C79.2276 166.851 80.0789 168.026 80.2365 168.262L81.0937 167.69ZM78.747 164.38L79.5892 163.786C79.2612 163.321 78.9486 162.675 78.5997 161.81C78.2503 160.943 77.8987 159.945 77.4592 158.765L76.4937 159.125L75.5281 159.485C75.9493 160.615 76.3256 161.68 76.6884 162.58C77.0516 163.481 77.4353 164.307 77.9048 164.974L78.747 164.38ZM76.4937 159.125L77.4592 158.765C76.8765 157.201 76.1162 156.048 75.458 155.169C75.1569 154.766 74.8055 154.33 74.6028 154.065C74.3608 153.748 74.2315 153.55 74.1685 153.41L73.2288 153.833L72.289 154.255C72.4583 154.632 72.7191 154.993 72.9651 155.316C73.2505 155.689 73.4852 155.972 73.8081 156.403C74.398 157.192 75.038 158.169 75.5281 159.485L76.4937 159.125ZM73.2288 153.833L74.1685 153.41C73.8556 152.714 73.2672 151.966 72.6151 151.316C71.9525 150.655 71.1493 150.02 70.3377 149.58L69.8472 150.486L69.3567 151.392C69.9579 151.718 70.605 152.221 71.1597 152.775C71.725 153.339 72.121 153.881 72.289 154.255L73.2288 153.833ZM69.8472 150.486L70.0182 149.47C67.2571 149.006 66.3148 148.949 65.8047 148.876L65.6591 149.896L65.5136 150.916C66.1797 151.011 66.9184 151.038 69.6762 151.502L69.8472 150.486ZM65.6591 149.896L65.8277 148.88C65.6865 148.856 65.3634 148.79 65.0867 148.75L64.9398 149.77L64.7928 150.789C65.1118 150.835 65.1219 150.852 65.4906 150.913L65.6591 149.896Z" fill="black"/>
<path d="M67.7453 153.303L67.1142 152.489L67.7453 153.303ZM64.442 150.93L65.307 150.37L65.2996 150.359L64.442 150.93ZM63.014 148.725L63.8853 148.175C63.8752 148.159 63.8647 148.143 63.8537 148.127L63.014 148.725ZM67.722 150.149L66.6956 150.239C66.7601 150.975 66.8301 151.671 66.853 152.224C66.8646 152.502 66.8616 152.696 66.8492 152.815C66.8429 152.875 66.8378 152.877 66.8484 152.845C66.8514 152.835 66.9073 152.649 67.1142 152.489L67.7453 153.303L68.3765 154.118C68.6513 153.905 68.7614 153.625 68.8067 153.486C68.8596 153.325 68.8848 153.163 68.8987 153.029C68.927 152.759 68.9246 152.445 68.912 152.138C68.8864 151.523 68.8088 150.748 68.7484 150.059L67.722 150.149ZM67.7453 153.303L67.1142 152.489C67.1142 152.489 67.1169 152.487 67.1224 152.484C67.128 152.48 67.1355 152.477 67.1449 152.473C67.1649 152.465 67.1853 152.461 67.2029 152.459C67.237 152.456 67.2322 152.466 67.1744 152.444C67.0381 152.39 66.8205 152.243 66.5435 151.968C66.0027 151.43 65.5193 150.698 65.3069 150.37L64.442 150.93L63.577 151.49C63.7874 151.815 64.3759 152.719 65.0911 153.429C65.4422 153.778 65.8987 154.158 66.4244 154.363C66.9985 154.587 67.7281 154.62 68.3765 154.118L67.7453 153.303ZM64.442 150.93L65.2996 150.359C64.9256 149.797 64.385 148.966 63.8853 148.175L63.014 148.725L62.1427 149.274C62.6513 150.08 63.2011 150.925 63.5844 151.501L64.442 150.93ZM63.014 148.725L63.8537 148.127C63.7136 147.93 63.5987 147.801 63.5023 147.693C63.4144 147.594 63.344 147.516 63.2443 147.384L62.4215 148.004L61.5987 148.624C61.7538 148.83 61.8734 148.962 61.9648 149.065C62.0478 149.158 62.1017 149.219 62.1742 149.322L63.014 148.725Z" fill="black"/>
<path d="M66.1068 163.277L65.2257 163.811V163.811L66.1068 163.277ZM64.3614 161.383L63.5714 162.044C63.6065 162.086 63.645 162.125 63.6864 162.161L64.3614 161.383ZM63.6042 160.5L62.7814 161.12C62.7966 161.14 62.8125 161.16 62.8292 161.179L63.6042 160.5ZM68.7344 166.303L69.4855 165.598C68.1259 164.15 67.3996 163.422 66.9879 162.743L66.1068 163.277L65.2257 163.811C65.7833 164.731 66.7405 165.685 67.9833 167.008L68.7344 166.303ZM66.1068 163.277L66.9879 162.743C66.4391 161.838 65.6641 161.149 65.0365 160.604L64.3614 161.383L63.6864 162.161C64.3233 162.714 64.864 163.214 65.2257 163.811L66.1068 163.277ZM64.3614 161.383L65.1515 160.721C64.9355 160.463 64.678 160.162 64.3793 159.821L63.6042 160.5L62.8292 161.179C63.1185 161.509 63.3659 161.799 63.5714 162.044L64.3614 161.383ZM63.6042 160.5L64.427 159.88C64.3821 159.82 64.3667 159.792 64.2598 159.635C64.1674 159.499 64.0469 159.331 63.8607 159.098L63.0552 159.74L62.2497 160.383C62.4018 160.573 62.4921 160.7 62.5578 160.797C62.6089 160.871 62.6989 161.011 62.7814 161.12L63.6042 160.5Z" fill="black"/>
<path d="M63.0547 159.488L63.0547 158.458L62.8023 158.458L62.8023 159.488L62.8023 160.519L63.0547 160.519L63.0547 159.488Z" fill="black"/>
<path d="M61.0017 148.308L62.0321 148.308L61.0017 148.308ZM61.1755 145.449L60.2531 144.99L61.1755 145.449ZM61.421 145.417L62.2707 144.834C62.1904 144.717 62.0868 144.618 61.9664 144.543L61.421 145.417ZM61.9564 146.72L60.928 146.784C60.9293 146.805 60.9312 146.825 60.9337 146.846L61.9564 146.72ZM61.0837 154.546L62.114 154.546C62.114 154.493 62.1137 154.439 62.0935 153.267L61.0633 153.285L60.0332 153.302C60.0536 154.49 60.0533 154.517 60.0533 154.546L61.0837 154.546ZM61.0633 153.285L62.0935 153.267C62.0731 152.083 62.0327 149.776 62.0321 148.308L61.0017 148.308L59.9714 148.309C59.972 149.798 60.0129 152.126 60.0332 153.302L61.0633 153.285ZM61.0017 148.308L62.0321 148.308C62.0317 147.298 62.057 146.648 62.0887 146.245C62.1045 146.043 62.121 145.916 62.1335 145.843C62.1512 145.74 62.1519 145.8 62.0978 145.908L61.1755 145.449L60.2531 144.99C60.1633 145.17 60.1243 145.367 60.1026 145.494C60.0757 145.651 60.053 145.845 60.0343 146.084C59.9967 146.562 59.971 147.271 59.9714 148.309L61.0017 148.308ZM61.1755 145.449L62.0978 145.908C61.9705 146.164 61.7302 146.342 61.4563 146.393C61.1913 146.442 60.9849 146.359 60.8755 146.291L61.421 145.417L61.9664 144.543C61.744 144.404 61.4328 144.302 61.0823 144.366C60.7229 144.433 60.4163 144.662 60.2531 144.99L61.1755 145.449ZM61.421 145.417L60.5713 146C60.9082 146.491 60.9293 146.805 60.928 146.784L61.9564 146.72L62.9847 146.656C62.9631 146.307 62.8191 145.634 62.2707 144.834L61.421 145.417ZM61.9564 146.72L60.9337 146.846C60.9433 146.924 60.9573 146.997 60.9647 147.037C60.9732 147.084 60.9805 147.124 60.988 147.176L62.0078 147.029L63.0276 146.883C63.0142 146.789 63.0009 146.716 62.9914 146.665C62.9865 146.638 62.9837 146.623 62.9815 146.61C62.9794 146.598 62.979 146.594 62.979 146.594L61.9564 146.72Z" fill="black"/>
<path d="M61.5174 144.564L62.5435 144.658L62.6667 143.302L61.6406 143.209L60.6145 143.116L60.4913 144.471L61.5174 144.564Z" fill="black"/>
<path d="M61.7031 142.532L62.7027 142.282C62.672 142.159 62.6113 142.021 62.5388 139.921L61.5091 139.957L60.4793 139.992C60.551 142.068 60.6123 142.417 60.7035 142.782L61.7031 142.532ZM61.5091 139.957L62.5388 139.921C62.467 137.842 62.3859 133.928 62.302 129.881L61.2719 129.902L60.2417 129.924C60.3254 133.962 60.4069 137.896 60.4793 139.992L61.5091 139.957Z" fill="black"/>
<path d="M61.5781 141.916L60.8496 141.187C60.8455 141.192 60.7752 141.259 60.7087 141.358C60.6399 141.46 60.596 141.561 60.5673 141.651C60.5185 141.804 60.5052 141.953 60.4988 142.054L61.527 142.12L62.5552 142.186C62.5567 142.163 62.5575 142.161 62.5559 142.172C62.5545 142.181 62.5484 142.221 62.5304 142.278C62.5106 142.34 62.4763 142.422 62.4174 142.509C62.3607 142.593 62.3006 142.651 62.3067 142.645L61.5781 141.916ZM61.527 142.12L60.4988 142.054C60.4856 142.259 60.4862 142.607 60.4862 142.902L61.5165 142.902L62.5469 142.902C62.5469 142.568 62.5474 142.307 62.5552 142.186L61.527 142.12Z" fill="black"/>
<path d="M58.9927 145.336L58.3138 146.111L58.9927 145.336ZM58.2022 145.078L58.2789 144.051L58.2022 145.078ZM57.8526 145.17L58.479 145.988V145.988L57.8526 145.17ZM57.5935 147.909L58.6133 147.762L57.5935 147.909ZM58.4841 149.611L57.6246 150.18C57.6411 150.204 57.6587 150.229 57.6774 150.252L58.4841 149.611ZM59.9042 151.894L60.9039 151.645C60.8969 151.617 60.8888 151.589 60.8795 151.562L59.9042 151.894ZM59.6069 146.29L60.5636 145.907C60.3682 145.419 60.0854 144.924 59.6716 144.561L58.9927 145.336L58.3138 146.111C58.3915 146.179 58.5203 146.347 58.6503 146.672L59.6069 146.29ZM58.9927 145.336L59.6716 144.561C59.1757 144.127 58.5672 144.072 58.2789 144.051L58.2022 145.078L58.1256 146.106C58.2412 146.114 58.3041 146.125 58.3412 146.135C58.3726 146.144 58.3503 146.143 58.3138 146.111L58.9927 145.336ZM58.2022 145.078L58.2789 144.051C57.9506 144.026 57.5619 144.094 57.2262 144.351L57.8526 145.17L58.479 145.988C58.3299 146.102 58.186 146.11 58.1256 146.106L58.2022 145.078ZM57.8526 145.17L57.2262 144.351C56.8557 144.635 56.6884 145.036 56.6049 145.32C56.5157 145.625 56.478 145.953 56.464 146.255C56.4359 146.862 56.4975 147.528 56.5737 148.056L57.5935 147.909L58.6133 147.762C58.5466 147.299 58.5028 146.776 58.5225 146.35C58.5324 146.136 58.5569 145.987 58.5826 145.9C58.6141 145.792 58.6145 145.884 58.479 145.988L57.8526 145.17ZM57.5935 147.909L56.5737 148.056C56.6334 148.47 56.8154 148.854 56.9898 149.168C57.1698 149.491 57.3999 149.84 57.6246 150.18L58.4841 149.611L59.3435 149.043C59.1077 148.686 58.9249 148.408 58.7909 148.166C58.6514 147.915 58.6183 147.797 58.6133 147.762L57.5935 147.909ZM58.4841 149.611L57.6774 150.252C58.5723 151.379 58.7695 151.758 58.9289 152.226L59.9042 151.894L60.8795 151.562C60.6045 150.755 60.23 150.152 59.2908 148.97L58.4841 149.611ZM59.9042 151.894L58.9044 152.143C58.9444 152.303 58.9735 152.392 58.9991 152.468L59.9766 152.142L60.954 151.817C60.9435 151.785 60.9378 151.768 60.9312 151.746C60.9248 151.724 60.9161 151.694 60.9039 151.645L59.9042 151.894Z" fill="black"/>
<path d="M59.0272 156.208L58.016 156.406L59.0272 156.208ZM60.2409 156.003L59.5312 156.75L60.2409 156.003ZM58.9172 158.126L57.9322 157.824L58.9172 158.126ZM59.2829 159.217L58.9302 160.185L59.2829 159.217ZM61.0899 159.435L61.1845 160.461C61.2712 160.453 61.3566 160.434 61.4386 160.404L61.0899 159.435ZM61.7084 159.045L60.9159 158.387C60.9049 158.4 60.8942 158.413 60.8839 158.427L61.7084 159.045ZM60.2203 152.637L59.3467 152.09C58.3021 153.76 57.7739 155.166 58.016 156.406L59.0272 156.208L60.0384 156.011C59.9583 155.6 60.0868 154.793 61.0938 153.183L60.2203 152.637ZM59.0272 156.208L58.016 156.406C58.0652 156.658 58.1991 156.959 58.4942 157.175C58.7751 157.382 59.0739 157.417 59.2689 157.412C59.6142 157.404 59.9256 157.264 60.0673 157.198C60.2099 157.132 60.4457 157.006 60.4819 156.988C60.5339 156.962 60.5205 156.972 60.4757 156.986C60.4563 156.992 60.3695 157.02 60.2461 157.024C60.1375 157.028 59.8144 157.019 59.5312 156.75L60.2409 156.003L60.9506 155.256C60.6543 154.975 60.311 154.96 60.1761 154.965C60.0263 154.97 59.907 155.005 59.8498 155.023C59.7295 155.061 59.6194 155.115 59.5607 155.145C59.3754 155.237 59.3335 155.267 59.1985 155.33C59.1501 155.352 59.1228 155.362 59.1122 155.366C59.0953 155.371 59.1385 155.354 59.2212 155.352C59.3059 155.35 59.5085 155.364 59.7144 155.515C59.9345 155.677 60.0147 155.889 60.0384 156.011L59.0272 156.208ZM60.2409 156.003L59.5312 156.75C59.4896 156.71 59.4099 156.61 59.3812 156.451C59.3542 156.301 59.3898 156.193 59.4036 156.159C59.414 156.134 59.3836 156.203 59.1924 156.386C58.99 156.58 58.8544 156.682 58.5974 156.915C58.4942 157.008 58.3739 157.123 58.2676 157.246C58.1754 157.353 58.0153 157.553 57.9322 157.824L58.9172 158.126L59.9022 158.429C59.8577 158.574 59.7901 158.636 59.8277 158.592C59.851 158.565 59.8975 158.518 59.9814 158.442C60.0985 158.335 60.4181 158.065 60.6166 157.876C60.8262 157.675 61.1425 157.35 61.3101 156.941C61.4025 156.716 61.4694 156.419 61.4093 156.086C61.3476 155.743 61.1706 155.465 60.9506 155.256L60.2409 156.003ZM58.9172 158.126L57.9322 157.824C57.7826 158.312 57.8389 158.779 57.8987 159.054L58.9055 158.836L59.9123 158.617C59.904 158.578 59.898 158.533 59.8974 158.491C59.8969 158.448 59.9023 158.429 59.9022 158.429L58.9172 158.126ZM58.9055 158.836L57.8987 159.054C57.942 159.254 58.0334 159.525 58.2663 159.771C58.4815 159.998 58.7363 160.115 58.9302 160.185L59.2829 159.217L59.6356 158.249C59.5741 158.227 59.6605 158.246 59.7611 158.352C59.8793 158.477 59.9097 158.604 59.9123 158.617L58.9055 158.836ZM59.2829 159.217L58.9302 160.185C59.7782 160.494 60.6459 160.51 61.1845 160.461L61.0899 159.435L60.9952 158.409C60.6522 158.44 60.111 158.422 59.6356 158.249L59.2829 159.217ZM61.0899 159.435L61.4386 160.404C61.8929 160.241 62.28 160 62.5329 159.663L61.7084 159.045L60.8839 158.427C60.921 158.378 60.9439 158.367 60.9223 158.382C60.9017 158.395 60.8468 158.427 60.7412 158.465L61.0899 159.435ZM61.7084 159.045L62.5009 159.703C62.5318 159.666 62.6394 159.552 62.8017 159.309L61.9453 158.736L61.0889 158.163C61.0417 158.234 61.0132 158.271 60.997 158.291C60.9881 158.302 60.9798 158.312 60.9682 158.325C60.9602 158.334 60.9361 158.362 60.9159 158.387L61.7084 159.045Z" fill="black"/>
<path d="M62.4404 158.92L61.41 158.92C61.41 158.935 61.4072 159.064 61.4515 159.22C61.492 159.361 61.5537 159.468 61.5979 159.534C61.674 159.648 61.768 159.745 61.8329 159.811L62.5624 159.083L63.2918 158.355C63.2702 158.334 63.2629 158.325 63.2641 158.327C63.265 158.328 63.2701 158.333 63.2778 158.343C63.2854 158.353 63.2982 158.369 63.3134 158.392C63.3423 158.436 63.3964 158.526 63.433 158.654C63.452 158.72 63.4622 158.783 63.4671 158.839C63.4713 158.887 63.4707 158.927 63.4707 158.92L62.4404 158.92ZM62.5624 159.083L61.8329 159.811C61.9756 159.954 62.2424 160.198 62.4835 160.419L63.1797 159.659L63.8759 158.9C63.6142 158.66 63.3931 158.457 63.2918 158.355L62.5624 159.083Z" fill="black"/>
<path d="M62.6875 162.493L63.7075 162.348C63.6861 162.198 63.6643 162.046 63.6011 161.677L62.5855 161.851L61.57 162.025C61.6294 162.372 61.6483 162.505 61.6675 162.639L62.6875 162.493ZM62.5855 161.851L63.6011 161.677C63.537 161.303 63.4416 160.768 63.3932 160.365L62.3702 160.488L61.3472 160.611C61.4035 161.079 61.5115 161.683 61.57 162.025L62.5855 161.851ZM62.3702 160.488L63.3932 160.365C63.3484 159.993 63.3482 159.758 63.3482 159.475L62.3178 159.475L61.2875 159.475C61.2875 159.778 61.2873 160.112 61.3472 160.611L62.3702 160.488Z" fill="black"/>
<path d="M61.5391 155.397L62.5165 155.071C62.5078 155.044 62.498 155.019 62.4872 154.993L61.5391 155.397ZM64.5703 160.802L65.4302 160.234C63.3731 157.117 62.8155 155.967 62.5165 155.071L61.5391 155.397L60.5617 155.723C60.953 156.895 61.6446 158.239 63.7104 161.369L64.5703 160.802ZM61.5391 155.397L62.4872 154.993C62.4193 154.834 62.3429 154.693 62.2908 154.596C62.2327 154.488 62.1997 154.425 62.1728 154.363L61.2268 154.771L60.2808 155.179C60.3487 155.337 60.4249 155.477 60.4758 155.571C60.5327 155.677 60.5652 155.739 60.591 155.8L61.5391 155.397ZM61.2268 154.771L62.1728 154.363C62.1312 154.266 62.0851 154.123 62.0262 153.714L61.0064 153.861L59.9866 154.008C60.0553 154.485 60.133 154.837 60.2808 155.179L61.2268 154.771Z" fill="black"/>
<path d="M59.1336 147.902L60.164 147.902C60.164 147.768 60.1646 147.684 60.1793 147.565L59.1567 147.438L58.1341 147.312C58.1027 147.566 58.1033 147.759 58.1033 147.902L59.1336 147.902ZM59.1567 147.438L60.1793 147.565C60.1966 147.424 60.2337 147.236 60.2838 146.985L59.2734 146.783L58.2631 146.581C58.2181 146.806 58.1629 147.079 58.1341 147.312L59.1567 147.438Z" fill="black"/>
<path d="M3.01015 95.6406L2.99176 96.6708C8.60883 96.7711 14.2265 96.8714 39.0487 97.475L39.0737 96.445L39.0988 95.415C14.274 94.8113 8.6516 94.7109 3.02855 94.6104L3.01015 95.6406ZM39.0737 96.445L39.0487 97.475C63.8702 98.0787 107.729 99.1827 130.474 99.7012L130.497 98.6711L130.52 97.6411C107.778 97.1226 63.9242 96.0187 39.0988 95.415L39.0737 96.445ZM130.497 98.6711L130.474 99.7012C141.844 99.9604 147.612 100.065 150.577 100.092C152.055 100.105 152.854 100.1 153.308 100.083C153.771 100.066 153.962 100.035 154.177 99.9634L153.852 98.9859L153.526 98.0084C153.507 98.0148 153.519 98.0103 153.535 98.0064C153.551 98.0022 153.558 98.0017 153.548 98.0031C153.518 98.0073 153.434 98.0161 153.232 98.0236C152.831 98.0385 152.075 98.0448 150.596 98.0314C147.647 98.0047 141.893 97.9003 130.52 97.6411L130.497 98.6711Z" fill="black"/>
<path d="M65.9318 175.169L66.9469 174.992C66.9457 174.985 66.9444 174.978 66.9431 174.972L65.9318 175.169ZM63.6838 162.133L62.654 162.167C62.7405 164.784 63.3537 167.336 64.9206 175.366L65.9318 175.169L66.9431 174.972C65.3458 166.786 64.7929 164.498 64.7135 162.099L63.6838 162.133ZM65.9318 175.169L64.9168 175.346C66.0827 182.035 67.9868 193.958 69.0078 202.53L70.0309 202.409L71.054 202.287C70.0268 193.661 68.1157 181.698 66.9469 174.992L65.9318 175.169ZM70.0309 202.409L69.0078 202.53C70.0259 211.079 70.1065 215.92 69.9423 220.908L70.9721 220.942L72.0019 220.976C72.1695 215.882 72.0842 210.936 71.054 202.287L70.0309 202.409Z" fill="black"/>
<path d="M65.6953 220.188L65.269 219.25L62.5044 220.506L62.9308 221.444L63.3571 222.382L66.1217 221.125L65.6953 220.188Z" fill="black"/>
<path d="M63.3835 135.742L62.3618 135.609C62.3601 135.622 62.3587 135.635 62.3575 135.648L63.3835 135.742ZM63.6945 132.69L62.6676 132.605C62.6664 132.619 62.6656 132.633 62.665 132.647L63.6945 132.69ZM62.6499 141.834L63.6756 141.932C63.7293 141.367 63.8663 140.337 64.0163 139.18C64.1639 138.04 64.322 136.792 64.4096 135.836L63.3835 135.742L62.3575 135.648C62.274 136.559 62.1211 137.769 61.9727 138.915C61.8265 140.043 61.6822 141.126 61.6242 141.737L62.6499 141.834ZM63.3835 135.742L64.4053 135.875C64.5732 134.581 64.6939 133.458 64.7239 132.732L63.6945 132.69L62.665 132.647C62.6391 133.274 62.5293 134.319 62.3618 135.609L63.3835 135.742ZM63.6945 132.69L64.7213 132.774C64.7452 132.483 64.7934 132.19 64.8523 131.837L63.8359 131.668L62.8196 131.499C62.7632 131.837 62.6996 132.215 62.6676 132.605L63.6945 132.69Z" fill="black"/>
<path d="M69.2656 136.242L69.2656 135.212L64.1825 135.212L64.1825 136.242L64.1825 137.273L69.2656 137.273L69.2656 136.242Z" fill="black"/>
<path d="M61.4687 137.258H60.4384L60.4384 142.68L61.4687 142.68L62.4991 142.68L62.4991 137.258H61.4687Z" fill="black"/>
<path d="M44.6094 80.6456L45.5423 80.2083C42.8345 74.4318 40.1302 68.6627 35.398 57.3884L34.4479 57.7872L33.4979 58.1859C38.2453 69.4963 40.9626 75.2934 43.6764 81.083L44.6094 80.6456ZM34.4479 57.7872L35.398 57.3884C30.6619 46.1049 23.9786 29.4872 17.088 12.3538L16.1321 12.7383L15.1762 13.1227C22.0642 30.2497 28.7543 46.8847 33.4979 58.1859L34.4479 57.7872Z" fill="black"/>
<path d="M75.2812 74.6227L76.2587 74.2969C76.2085 74.1462 76.1258 73.9746 76.0147 72.4784C75.9031 70.9752 75.7675 68.2131 75.5854 62.9225L74.5556 62.958L73.5259 62.9934C73.708 68.2833 73.8447 71.0824 73.9597 72.631C74.0752 74.1866 74.1733 74.5571 74.3038 74.9485L75.2812 74.6227ZM74.5556 62.958L75.5854 62.9225C75.2214 52.3475 74.6793 31.7508 74.1207 10.5217L73.0907 10.5488L72.0607 10.5759C72.6192 31.7999 73.1615 52.4077 73.5259 62.9934L74.5556 62.958Z" fill="black"/>
<path d="M116.355 75.7163L117.323 76.0684C118.047 74.0773 118.771 72.0869 122.125 62.6582L121.155 62.3128L120.184 61.9674C116.83 71.3939 116.108 73.3794 115.386 75.3642L116.355 75.7163ZM121.155 62.3128L122.125 62.6582C125.48 53.23 131.444 36.4224 137.588 19.1063L136.617 18.7617L135.646 18.4172C129.502 35.7338 123.538 52.5403 120.184 61.9674L121.155 62.3128Z" fill="black"/>
<path d="M107.589 37.9296L108.612 38.05L111.898 10.1204L110.875 10L109.852 9.87961L106.566 37.8093L107.589 37.9296Z" fill="black"/>
<path d="M53.375 45.0499L54.3913 44.8805C54.2013 43.7405 54.0087 42.6133 52.5545 37.6075L51.565 37.895L50.5756 38.1824C52.0185 43.1492 52.1872 44.1906 52.3587 45.2193L53.375 45.0499ZM51.565 37.895L52.5545 37.6075C51.1034 32.6123 48.3897 23.7478 45.598 14.6281L44.6128 14.9297L43.6275 15.2313C46.4217 24.359 49.1297 33.2051 50.5756 38.1824L51.565 37.895Z" fill="black"/>
</g>
<rect x="160.852" y="0.5" width="286" height="160.348" transform="rotate(90 160.852 0.5)" stroke="black"/>
<defs>
<clipPath id="clip0_291_23945">
<rect x="161.352" width="287" height="161.348" transform="rotate(90 161.352 0)" fill="white"/>
</clipPath>
</defs>
</svg>
