<svg width="162" height="288" viewBox="0 0 162 288" fill="none" xmlns="http://www.w3.org/2000/svg">
<g clip-path="url(#clip0_291_23950)">
<rect width="288" height="161.91" transform="matrix(4.37114e-08 1 1 -4.37114e-08 0 0)" fill="white"/>
<path d="M130.77 7.49998L131.182 8.44449L130.77 7.49998ZM114.577 15.3785L114.968 16.3317L114.577 15.3785ZM103.072 20.1405L103.391 21.1201L103.072 20.1405ZM87.4753 26.8881L87.9009 27.8264L87.4753 26.8881ZM80.4397 30.619L80.8975 31.5421L80.4397 30.619ZM73.0828 34.0333L73.5104 34.9707L73.0828 34.0333ZM65.8961 37.4428L66.3 38.3907V38.3907L65.8961 37.4428ZM51.6786 44.5024L52.109 45.4385L51.6786 44.5024ZM36.4108 49.9809L36.7312 50.9602L36.4108 49.9809ZM26.5696 53.3952L26.1938 52.4359L26.5696 53.3952ZM16.1912 57.1238L15.7963 56.1721C15.822 56.1615 15.8482 56.1518 15.8747 56.1433L16.1912 57.1238ZM6.8991 61.0976L7.22284 62.0758V62.0758L6.8991 61.0976ZM146.453 1.57617L146.621 2.59268C145.783 2.73146 144.082 3.24778 141.459 4.22657C138.865 5.1949 135.437 6.58965 131.182 8.44449L130.77 7.49998L130.359 6.55547C134.635 4.69126 138.099 3.28124 140.739 2.296C143.35 1.32122 145.224 0.735153 146.285 0.559648L146.453 1.57617ZM130.77 7.49998L131.182 8.44449C126.917 10.3038 123.468 12.0252 120.793 13.4025C118.157 14.76 116.18 15.8343 114.968 16.3317L114.577 15.3785L114.186 14.4254C115.288 13.9728 117.115 12.9791 119.85 11.5705C122.547 10.1817 126.038 8.43883 130.359 6.55547L130.77 7.49998ZM114.577 15.3785L114.968 16.3317C111.384 17.8033 107.819 19.677 103.391 21.1201L103.072 20.1405L102.752 19.1608C107.106 17.742 110.355 15.9981 114.186 14.4254L114.577 15.3785ZM103.072 20.1405L103.391 21.1201C95.7606 23.6069 91.6973 26.1046 87.9009 27.8264L87.4753 26.8881L87.0497 25.9497C90.6343 24.324 94.9817 21.6933 102.752 19.1608L103.072 20.1405ZM87.4753 26.8881L87.9009 27.8264C86.4225 28.4969 85.253 29.1355 84.1648 29.7509C83.0847 30.3617 82.0488 30.9711 80.8975 31.5421L80.4397 30.619L79.9819 29.696C81.0679 29.1574 82.0313 28.5901 83.1504 27.9571C84.2615 27.3288 85.4912 26.6566 87.0497 25.9497L87.4753 26.8881ZM80.4397 30.619L80.8975 31.5421C77.5245 33.2148 75.4071 34.1055 73.5104 34.9707L73.0828 34.0333L72.6551 33.0959C74.5999 32.2088 76.6487 31.349 79.9819 29.696L80.4397 30.619ZM73.0828 34.0333L73.5104 34.9707C72.5383 35.4142 71.6094 35.8945 70.4602 36.4649C69.3202 37.0307 68.0007 37.666 66.3 38.3907L65.8961 37.4428L65.4922 36.495C67.1438 35.7911 68.4251 35.1744 69.5441 34.619C70.6539 34.0682 71.6421 33.558 72.6551 33.0959L73.0828 34.0333ZM65.8961 37.4428L66.3 38.3907C64.2391 39.269 62.3184 40.2796 60.0822 41.4567C57.8518 42.6306 55.3292 43.9581 52.109 45.4385L51.6786 44.5024L51.2482 43.5662C54.4137 42.1109 56.8936 40.8062 59.1224 39.6331C61.3453 38.4631 63.3405 37.4119 65.4922 36.495L65.8961 37.4428ZM51.6786 44.5024L52.109 45.4385C48.1966 47.2371 43.5009 48.7449 36.7312 50.9602L36.4108 49.9809L36.0903 49.0017C42.9122 46.7693 47.47 45.3032 51.2482 43.5662L51.6786 44.5024ZM36.4108 49.9809L36.7312 50.9602C33.4984 52.0181 30.7526 52.8633 26.9453 54.3546L26.5696 53.3952L26.1938 52.4359C30.0696 50.9177 32.8845 50.0508 36.0903 49.0017L36.4108 49.9809ZM26.5696 53.3952L26.9453 54.3546C23.6593 55.6418 21.9521 56.3471 16.5077 58.1043L16.1912 57.1238L15.8747 56.1433C21.2595 54.4053 22.921 53.7178 26.1938 52.4359L26.5696 53.3952ZM16.1912 57.1238L16.5861 58.0755C13.1466 59.5028 11.0706 60.4137 9.73618 61.0067C8.4363 61.5844 7.76461 61.8965 7.22284 62.0758L6.8991 61.0976L6.57536 60.1194C6.99037 59.9821 7.51646 59.7382 8.89929 59.1236C10.2476 58.5244 12.3393 57.6067 15.7963 56.1721L16.1912 57.1238ZM6.8991 61.0976L7.22284 62.0758C6.74156 62.2351 6.26535 62.3927 5.77687 62.5543L5.45313 61.5762L5.12939 60.598C5.61927 60.4359 6.09266 60.2792 6.57536 60.1194L6.8991 61.0976Z" fill="black"/>
<path d="M137.16 11.3176L137.655 12.2212L137.16 11.3176ZM122.873 18.27L122.416 17.3464V17.3464L122.873 18.27ZM101.854 27.6622L101.465 26.7083V26.7083L101.854 27.6622ZM84.6237 35.1269L84.1908 34.1919L84.6237 35.1269ZM75.7603 38.6007L76.2067 39.5293L75.7603 38.6007ZM56.0458 47.3325L56.4196 48.2927L56.0458 47.3325ZM35.3364 56.3193L34.9388 55.3687L35.3364 56.3193ZM17.7293 62.7207L18.1033 63.6808L17.7293 62.7207ZM7.18045 67.5733L7.68946 68.4691C7.68519 68.4716 7.68089 68.474 7.67658 68.4763L7.18045 67.5733ZM2.77868 69.6027L3.08532 70.5864C3.07876 70.5884 3.07218 70.5904 3.06558 70.5923L2.77868 69.6027ZM152.453 3.57617L152.919 4.49516C149.376 6.29144 143.52 9.00839 137.655 12.2212L137.16 11.3176L136.665 10.4139C142.561 7.18409 148.539 4.4051 151.987 2.65717L152.453 3.57617ZM137.16 11.3176L137.655 12.2212C133.565 14.4616 126.912 17.4228 123.33 19.1937L122.873 18.27L122.416 17.3464C126.151 15.5002 132.609 12.6356 136.665 10.4139L137.16 11.3176ZM122.873 18.27L123.33 19.1937C118.951 21.358 112.173 24.5615 102.244 28.6161L101.854 27.6622L101.465 26.7083C111.344 22.6743 118.077 19.4915 122.416 17.3464L122.873 18.27ZM101.854 27.6622L102.244 28.6161C94.7981 31.6566 89.5975 33.9589 85.0567 36.0618L84.6237 35.1269L84.1908 34.1919C88.7603 32.0757 93.9898 29.7607 101.465 26.7083L101.854 27.6622ZM84.6237 35.1269L85.0567 36.0618C83.5946 36.7389 82.1221 37.2422 80.6704 37.7514C79.2059 38.2651 77.7413 38.7916 76.2067 39.5293L75.7603 38.6007L75.3139 37.672C76.9607 36.8804 78.5203 36.3218 79.9883 35.8069C81.4692 35.2874 82.8377 34.8185 84.1908 34.1919L84.6237 35.1269ZM75.7603 38.6007L76.2067 39.5293C71.0393 42.0133 63.7226 45.4495 56.4196 48.2927L56.0458 47.3325L55.672 46.3724C62.8977 43.5593 70.1555 40.1517 75.3139 37.672L75.7603 38.6007ZM56.0458 47.3325L56.4196 48.2927C52.8019 49.7011 50.1568 50.8877 47.1503 52.2526C44.1404 53.619 40.7727 55.1621 35.734 57.2698L35.3364 56.3193L34.9388 55.3687C39.9456 53.2744 43.2876 51.7431 46.2985 50.3762C49.3129 49.0077 51.9998 47.802 55.672 46.3724L56.0458 47.3325ZM35.3364 56.3193L35.734 57.2698C33.278 58.2972 30.2541 59.3592 27.1673 60.4301C24.0668 61.5058 20.8979 62.5922 18.1033 63.6808L17.7293 62.7207L17.3554 61.7606C20.1948 60.6546 23.408 59.5532 26.4919 58.4833C29.5894 57.4086 32.552 56.3671 34.9388 55.3687L35.3364 56.3193ZM17.7293 62.7207L18.1033 63.6808C14.5893 65.0495 11.4636 66.3246 7.68946 68.4691L7.18045 67.5733L6.67143 66.6775C10.5788 64.4573 13.8167 63.1389 17.3554 61.7606L17.7293 62.7207ZM7.18045 67.5733L7.67658 68.4763C5.74119 69.5397 4.21818 70.2332 3.08532 70.5864L2.77868 69.6027L2.47204 68.6191C3.4106 68.3265 4.79333 67.7092 6.68431 66.6703L7.18045 67.5733ZM2.77868 69.6027L3.06558 70.5923C2.52863 70.748 1.9901 70.881 0.966668 71.4694L0.453128 70.5762L-0.0604117 69.6829C1.17938 68.9702 1.90671 68.7828 2.49178 68.6131L2.77868 69.6027Z" fill="black"/>
<path d="M7.45312 61.5762L7.45312 62.6065C6.57577 62.6065 5.95225 62.6192 5.48649 62.7906L5.13062 61.8237L4.77476 60.8567C5.654 60.5331 6.68048 60.5458 7.45312 60.5458L7.45312 61.5762ZM5.13062 61.8237L5.48649 62.7906C5.28012 62.8666 5.07706 62.9888 4.8085 63.1798C4.57094 63.3488 4.20938 63.6286 3.84435 63.8582L3.29562 62.9862L2.7469 62.1141C3.04937 61.9238 3.26906 61.746 3.614 61.5007C3.92794 61.2773 4.30863 61.0283 4.77476 60.8567L5.13062 61.8237ZM3.29562 62.9862L3.84435 63.8582C3.4659 64.0964 3.04102 64.3099 2.60819 64.5365C2.16081 64.7707 1.64198 65.05 0.997457 65.451L0.453125 64.5762L-0.091207 63.7014C0.614268 63.2624 1.18294 62.9566 1.65244 62.7109C2.13648 62.4574 2.45785 62.296 2.7469 62.1141L3.29562 62.9862Z" fill="black"/>
<path d="M71.1242 9.40824L71.5857 10.3295C71.5578 10.3434 71.5293 10.3561 71.5003 10.3675L71.1242 9.40824ZM59.0577 14.091L58.8065 13.0918C58.8151 13.0896 58.8237 13.0875 58.8324 13.0856L59.0577 14.091ZM90.4531 0.57617L90.7145 1.5728C88.9924 2.02448 86.5619 3.02993 83.3484 4.53575C80.15 6.03454 76.2433 7.99627 71.5857 10.3295L71.1242 9.40824L70.6627 8.48702C75.3097 6.15918 79.2453 4.1828 82.4741 2.66978C85.6878 1.16379 88.2695 0.083722 90.1917 -0.420461L90.4531 0.57617ZM71.1242 9.40824L71.5003 10.3675C67.3844 11.9814 64.7345 13.0683 62.9214 13.7972C61.1407 14.5131 60.0985 14.9136 59.283 15.0964L59.0577 14.091L58.8324 13.0856C59.4493 12.9473 60.3189 12.6225 62.1527 11.8853C63.954 11.1611 66.6212 10.0672 70.7481 8.449L71.1242 9.40824ZM59.0577 14.091L59.3089 15.0902C58.7081 15.2413 58.2679 15.3891 57.7817 15.5527L57.4531 14.5762L57.1245 13.5996C57.614 13.4349 58.1207 13.2642 58.8065 13.0918L59.0577 14.091Z" fill="black"/>
<path d="M54.238 6.45291L55.158 5.98913L54.238 6.45291ZM53.8348 5.09704L52.9493 5.62378V5.62378L53.8348 5.09704ZM50.5473 3.57617L50.4081 2.55528C50.4887 2.54428 50.5704 2.54288 50.6514 2.55111L50.5473 3.57617ZM57.4531 14.5762L56.4411 14.7694C55.8372 11.6062 54.3105 8.88581 53.3179 6.91669L54.238 6.45291L55.158 5.98913C56.0965 7.85088 57.7945 10.8696 58.4652 14.383L57.4531 14.5762ZM54.238 6.45291L53.3179 6.91669C53.1248 6.53364 53.0635 6.14264 53.0266 5.94021C52.9804 5.68689 52.9602 5.64208 52.9493 5.62378L53.8348 5.09704L54.7204 4.57031C54.9485 4.95374 55.0154 5.35989 55.0538 5.57058C55.1015 5.83216 55.1223 5.91822 55.158 5.98913L54.238 6.45291ZM53.8348 5.09704L52.9493 5.62378C52.6956 5.19727 51.9702 4.75641 50.4431 4.60124L50.5473 3.57617L50.6514 2.55111C52.325 2.72116 53.9394 3.25739 54.7204 4.57031L53.8348 5.09704ZM50.5473 3.57617L50.6865 4.59707C49.7152 4.7295 48.0722 5.31074 46.8817 5.8585L46.4511 4.92248L46.0204 3.98645C47.2726 3.4103 49.1345 2.72893 50.4081 2.55528L50.5473 3.57617ZM46.4511 4.92248L46.8817 5.8585C45.7795 6.36563 45.2233 6.77391 44.1195 7.70985L43.4531 6.924L42.7868 6.13815C43.9616 5.14192 44.6799 4.60323 46.0204 3.98645L46.4511 4.92248Z" fill="black"/>
<path d="M20.2729 4.79484L19.3189 5.18406C19.3153 5.17521 19.3118 5.16631 19.3085 5.15735L20.2729 4.79484ZM22.294 14.5762L21.3293 14.2145C21.367 14.1138 21.4244 13.8417 21.4227 13.3386C21.4212 12.8553 21.3658 12.2219 21.2302 11.4402C20.9591 9.87813 20.3762 7.77534 19.3189 5.18406L20.2729 4.79484L21.2269 4.40561C22.3288 7.10634 22.9594 9.35288 23.2605 11.0878C23.411 11.9547 23.4814 12.7066 23.4834 13.332C23.4854 13.9375 23.424 14.4973 23.2588 14.9378L22.294 14.5762ZM20.2729 4.79484L19.3085 5.15735C18.8407 3.91274 18.8296 3.14809 18.7693 2.65407L19.792 2.52917L20.8148 2.40427C20.8883 3.00692 20.8773 3.47427 21.2374 4.43232L20.2729 4.79484ZM19.792 2.52917L18.7693 2.65407C18.7411 2.42361 18.6989 2.20909 18.6381 1.89851C18.5782 1.59258 18.5063 1.22187 18.4336 0.725403L19.4531 0.576172L20.4726 0.426941C20.5379 0.873141 20.602 1.20477 20.6603 1.50258C20.7177 1.79576 20.7759 2.0864 20.8148 2.40427L19.792 2.52917Z" fill="black"/>
<path d="M12.5481 8.91799L11.5665 9.23099C11.5608 9.21322 11.5556 9.1953 11.5509 9.17726L12.5481 8.91799ZM15.4531 18.5762L14.4228 18.5762C14.4228 18.6104 14.425 18.5747 14.3913 18.4121C14.3619 18.2706 14.3154 18.0796 14.25 17.8353C14.1195 17.3477 13.925 16.6898 13.6721 15.8684C13.1667 14.2265 12.4433 11.9809 11.5665 9.23099L12.5481 8.91799L13.5298 8.60499C14.403 11.3436 15.1321 13.6071 15.6416 15.2621C15.8963 16.0893 16.0999 16.7768 16.2406 17.3025C16.3108 17.5648 16.3683 17.7975 16.4089 17.993C16.4451 18.1674 16.4835 18.382 16.4835 18.5762L15.4531 18.5762ZM12.5481 8.91799L11.5509 9.17726C10.9291 6.78572 10.9228 5.39712 10.8446 4.54423L11.8706 4.45011L12.8967 4.35599C12.9834 5.30189 12.9771 6.47329 13.5453 8.65872L12.5481 8.91799ZM11.8706 4.45011L10.8446 4.54423C10.7731 3.7644 10.6379 3.37401 10.4787 2.91112L11.4531 2.57617L12.4275 2.24123C12.6084 2.76742 12.8032 3.33703 12.8967 4.35599L11.8706 4.45011Z" fill="black"/>
<path d="M9.86663 21.4916L9.31118 20.6238C9.32926 20.6122 9.3477 20.6012 9.36647 20.5908L9.86663 21.4916ZM5.80988 23.88L5.23129 23.0275C5.26637 23.0037 5.3029 22.982 5.34065 22.9627L5.80988 23.88ZM13.4531 19.5762L13.9233 20.493C13.3339 20.7952 12.1482 21.4033 10.3668 22.3924L9.86663 21.4916L9.36647 20.5908C11.1761 19.586 12.3843 18.9663 12.983 18.6594L13.4531 19.5762ZM9.86663 21.4916L10.4221 22.3594C8.60854 23.5201 7.21525 24.3184 6.2791 24.7973L5.80988 23.88L5.34065 22.9627C6.2 22.5231 7.53371 21.7614 9.31118 20.6238L9.86663 21.4916ZM5.80988 23.88L6.38846 24.7326C6.1056 24.9245 5.77004 25.234 5.37751 26.0313L4.45313 25.5762L3.52874 25.1211C4.05421 24.0538 4.60965 23.4493 5.23129 23.0275L5.80988 23.88Z" fill="black"/>
<path d="M20.5771 21.6201L19.7157 22.1854C19.5666 21.9582 19.3315 21.6083 19.19 21.2421C19.0395 20.8523 18.9247 20.2625 19.2614 19.67L20.1572 20.1791L21.0529 20.6882C21.0905 20.6221 21.1043 20.5496 21.1034 20.4964C21.1027 20.4549 21.0936 20.4512 21.1123 20.4996C21.1309 20.5477 21.1651 20.6176 21.2243 20.7179C21.2838 20.8185 21.353 20.9244 21.4386 21.0548L20.5771 21.6201ZM20.1572 20.1791L19.2614 19.67C19.5502 19.1619 20.0725 18.8465 20.5257 18.6912C20.9963 18.5299 21.6245 18.4604 22.2215 18.7097L21.8245 19.6605L21.4275 20.6113C21.4341 20.614 21.4176 20.6057 21.3696 20.6067C21.3216 20.6077 21.26 20.6179 21.1938 20.6406C21.1272 20.6634 21.0748 20.6925 21.0424 20.716C21.0053 20.7429 21.0228 20.7412 21.0529 20.6882L20.1572 20.1791ZM21.8245 19.6605L22.2215 18.7097C22.8742 18.9822 23.3124 19.568 23.442 20.3C23.5656 20.9983 23.4093 21.7893 23.0287 22.6247L22.0911 22.1975L21.1535 21.7703C21.4317 21.1596 21.4389 20.8061 21.4129 20.6593C21.3929 20.5463 21.3683 20.5866 21.4275 20.6113L21.8245 19.6605ZM22.0911 22.1975L23.0287 22.6247C22.2931 24.2391 20.5279 26.3749 19.2653 27.4837L18.5854 26.7095L17.9055 25.9353C19.0169 24.9593 20.5712 23.0481 21.1535 21.7703L22.0911 22.1975ZM18.5854 26.7095L19.2653 27.4837C18.6297 28.0418 17.9919 28.4556 17.3314 28.5729C16.5614 28.7095 15.9434 28.4183 15.4994 27.9761L16.2265 27.246L16.9535 26.5159C17.0017 26.564 17.0145 26.5611 16.9917 26.5529C16.9616 26.542 16.9456 26.5484 16.9712 26.5439C17.0664 26.527 17.3541 26.4196 17.9055 25.9353L18.5854 26.7095ZM16.2265 27.246L15.4994 27.9761C14.7203 27.2003 14.3433 25.8587 14.4371 24.6234L15.4645 24.7013L16.4918 24.7793C16.4297 25.5981 16.7166 26.2801 16.9535 26.5159L16.2265 27.246ZM15.4645 24.7013L14.4371 24.6234C14.5394 23.2752 15.206 21.9968 16.6 20.9735L17.2098 21.8041L17.8195 22.6346C16.8747 23.3282 16.5454 24.0733 16.4918 24.7793L15.4645 24.7013ZM17.2098 21.8041L16.6 20.9735C17.9131 20.0096 19.9014 19.2848 21.729 18.6097L22.086 19.5762L22.4431 20.5427C20.5085 21.2574 18.8452 21.8816 17.8195 22.6346L17.2098 21.8041Z" fill="black"/>
<path d="M35.3059 10.8193L34.6911 9.99255L35.3059 10.8193ZM32.8665 5.6114L33.568 4.85676V4.85676L32.8665 5.6114ZM37.2769 17.3587L36.3988 17.8976C36.3633 17.8399 36.3337 17.7788 36.3103 17.7153L37.2769 17.3587ZM32.3388 6.06958L33.2632 5.61442C33.2655 5.61909 33.2677 5.62377 33.27 5.62847L32.3388 6.06958ZM22.4531 16.4087L22.1714 15.4176C24.6343 14.7176 27.2657 13.7369 29.5453 12.7339C31.8442 11.7224 33.713 10.7199 34.6911 9.99255L35.3059 10.8193L35.9208 11.6461C34.7505 12.5164 32.708 13.5937 30.3752 14.6201C28.0231 15.6549 25.3023 16.6701 22.7348 17.3998L22.4531 16.4087ZM35.3059 10.8193L34.6911 9.99255C34.5177 10.1215 34.6438 10.2641 34.57 9.93512C34.5006 9.6261 34.3005 9.18908 33.9858 8.67658C33.363 7.66242 32.4928 6.67083 32.1649 6.36604L32.8665 5.6114L33.568 4.85676C34.0375 5.29322 35.0251 6.43107 35.7418 7.5983C36.0969 8.1765 36.4368 8.84317 36.5806 9.4838C36.72 10.1045 36.7323 11.0427 35.9208 11.6461L35.3059 10.8193ZM32.8665 5.6114L32.1649 6.36604C31.9211 6.1394 31.7576 6.01302 31.661 5.95135C31.5065 5.8527 31.6476 5.9951 31.9427 5.96119C32.1503 5.93734 32.3652 5.83206 32.5178 5.64458C32.6477 5.48485 32.6773 5.33332 32.6846 5.2861C32.6967 5.20687 32.6775 5.21753 32.7157 5.39237C32.864 6.07024 33.4432 7.42918 34.2413 9.08895C35.0187 10.7057 35.9435 12.4881 36.7093 13.9568C37.0905 14.6878 37.4341 15.3446 37.6964 15.8573C37.9436 16.3404 38.1581 16.7705 38.2436 17.002L37.2769 17.3587L36.3103 17.7153C36.278 17.6278 36.1346 17.3289 35.8619 16.7959C35.6043 16.2924 35.2662 15.646 34.8821 14.9095C34.1175 13.443 33.178 11.6328 32.3841 9.98195C31.611 8.3741 30.9121 6.79035 30.7026 5.83277C30.6514 5.59874 30.6002 5.28223 30.6478 4.9729C30.6728 4.81062 30.7368 4.56829 30.9194 4.34395C31.1245 4.09187 31.41 3.94816 31.7075 3.91397C32.1824 3.85941 32.5805 4.09355 32.7698 4.21439C33.017 4.3722 33.2843 4.59307 33.568 4.85676L32.8665 5.6114ZM37.2769 17.3587L38.1551 16.8197C38.1994 16.8919 38.2114 16.9056 38.1994 16.8904C38.1944 16.8842 38.1824 16.8693 38.164 16.8498C38.148 16.8327 38.1118 16.7954 38.0578 16.7537C38.0171 16.7222 37.8909 16.628 37.6971 16.578C37.4623 16.5175 37.0873 16.521 36.7698 16.7987C36.5147 17.0217 36.4549 17.2917 36.439 17.3785C36.4188 17.4883 36.4223 17.5744 36.4244 17.6089C36.4269 17.6508 36.4317 17.6817 36.4342 17.696C36.4369 17.712 36.4393 17.7222 36.4399 17.725C36.4404 17.727 36.4325 17.6959 36.4046 17.6149C36.2947 17.2957 36.0301 16.6429 35.6041 15.6588C34.7608 13.7109 33.336 10.5812 31.4077 6.51069L32.3388 6.06958L33.27 5.62847C35.2032 9.7093 36.6389 12.8622 37.4952 14.8401C37.9189 15.8189 38.2138 16.5398 38.353 16.944C38.3874 17.0438 38.4223 17.1529 38.446 17.2536C38.4565 17.2984 38.4754 17.3847 38.4814 17.4863C38.4843 17.5349 38.4875 17.6326 38.4656 17.7514C38.448 17.847 38.3854 18.1234 38.1262 18.35C37.8045 18.6312 37.4242 18.6357 37.1826 18.5735C36.9823 18.5218 36.8482 18.4232 36.7983 18.3847C36.6874 18.299 36.6131 18.2064 36.5865 18.1731C36.5176 18.0863 36.4524 17.985 36.3988 17.8976L37.2769 17.3587ZM32.3388 6.06958L31.4145 6.52474C30.6619 4.99651 30.1319 3.99882 29.7063 3.19513C29.2811 2.39208 28.9475 1.75955 28.6089 0.992127L29.5515 0.576172L30.4942 0.160216C30.7991 0.851308 31.0997 1.42301 31.5274 2.2308C31.9548 3.03795 32.4966 4.05771 33.2632 5.61442L32.3388 6.06958Z" fill="black"/>
<path d="M41.1519 9.02187L40.2443 9.50942C40.2366 9.49522 40.2293 9.48085 40.2224 9.46632L41.1519 9.02187ZM45.4531 17.5762L44.511 17.9934C43.2861 15.2277 41.8863 12.5666 40.2443 9.50942L41.1519 9.02187L42.0596 8.53432C43.7023 11.5925 45.1354 14.3146 46.3952 17.1589L45.4531 17.5762ZM41.1519 9.02187L40.2224 9.46632C39.3376 7.6158 38.3934 5.24579 37.8297 3.7133L38.7967 3.35756L39.7636 3.00183C40.3152 4.501 41.2345 6.80599 42.0815 8.57742L41.1519 9.02187ZM38.7967 3.35756L37.8297 3.7133C37.2249 2.06931 37.1505 1.73863 36.7179 1.29804L37.4531 0.576172L38.1883 -0.145701C39.0169 0.698161 39.2531 1.61415 39.7636 3.00183L38.7967 3.35756Z" fill="black"/>
<path d="M38.4531 20.4427L39.4835 20.4427C39.4835 20.4457 39.4864 20.5825 39.468 20.704C39.4623 20.7417 39.449 20.8196 39.4162 20.9116C39.3947 20.9719 39.3071 21.2142 39.0546 21.4018C38.9074 21.5113 38.7131 21.5942 38.487 21.6053C38.2695 21.6159 38.0916 21.5569 37.9704 21.4961C37.7565 21.3888 37.6378 21.236 37.6033 21.1907C37.5175 21.0784 37.4678 20.9662 37.4505 20.9272C37.4247 20.8689 37.4009 20.8069 37.3793 20.747C37.3358 20.626 37.2835 20.4643 37.2198 20.2549L38.2056 19.9552L39.1914 19.6555C39.2515 19.8532 39.292 19.9763 39.3181 20.0486C39.3313 20.0853 39.3366 20.097 39.3349 20.0933C39.3339 20.0911 39.3279 20.0776 39.317 20.0571C39.308 20.0404 39.2831 19.9952 39.2411 19.9402C39.2143 19.9051 39.1024 19.7586 38.8944 19.6542C38.7762 19.5949 38.6011 19.5365 38.3861 19.5471C38.1625 19.558 37.9706 19.64 37.8255 19.7478C37.5774 19.9322 37.4934 20.1685 37.475 20.2202C37.4452 20.3038 37.4343 20.3709 37.4305 20.3957C37.4199 20.4662 37.4228 20.5213 37.4228 20.4427L38.4531 20.4427ZM38.2056 19.9552L37.2198 20.2549C36.9653 19.4178 36.4833 17.6661 35.6653 15.4731L36.6306 15.113L37.596 14.7529C38.443 17.0235 38.9509 18.8645 39.1914 19.6555L38.2056 19.9552ZM36.6306 15.113L35.6653 15.4731C34.8456 13.2758 33.7045 10.6934 32.5107 7.99274L33.4531 7.57617L34.3955 7.1596C35.5817 9.8431 36.7506 12.4865 37.596 14.7529L36.6306 15.113Z" fill="black"/>
<path d="M16.4531 20.5762L15.4428 20.7782L14.4428 15.7782L15.4531 15.5762L16.4635 15.3741L17.4635 20.3741L16.4531 20.5762Z" fill="black"/>
<path d="M23.8775 12.7344L22.924 13.125C22.9116 13.0947 22.9006 13.0638 22.8912 13.0325L23.8775 12.7344ZM22.0015 7.08905L21.065 7.51866C21.0606 7.50912 21.0563 7.49951 21.0523 7.48984L22.0015 7.08905ZM28.4531 24.5762L27.474 24.8968C26.5637 22.1173 24.8709 17.878 22.924 13.125L23.8775 12.7344L24.8309 12.3439C26.7714 17.0813 28.4946 21.392 29.4323 24.2555L28.4531 24.5762ZM23.8775 12.7344L22.8912 13.0325C22.0126 10.1257 21.571 8.62181 21.065 7.51866L22.0015 7.08905L22.938 6.65943C23.5192 7.92653 24.0109 9.61466 24.8637 12.4363L23.8775 12.7344ZM22.0015 7.08905L21.0523 7.48984C20.7981 6.88784 20.6323 6.38052 20.474 5.89684L21.4531 5.57617L22.4323 5.25551C22.5912 5.74083 22.7335 6.17401 22.9507 6.68825L22.0015 7.08905Z" fill="black"/>
<path d="M30.9769 12.7412L30.826 11.7219C30.8488 11.7186 30.8716 11.716 30.8946 11.7141L30.9769 12.7412ZM34.4531 12.5762L34.4531 13.6065C34.1605 13.6065 33.0838 13.6058 31.0593 13.7682L30.9769 12.7412L30.8946 11.7141C32.9843 11.5465 34.1171 11.5458 34.4531 11.5458L34.4531 12.5762ZM30.9769 12.7412L31.1279 13.7604C30.0873 13.9145 28.8878 14.2277 27.8808 14.5519L27.565 13.5712L27.2493 12.5904C28.3232 12.2446 29.638 11.8979 30.826 11.7219L30.9769 12.7412ZM27.565 13.5712L27.8808 14.5519C26.9318 14.8575 26.0288 15.2252 24.7165 15.5723L24.4531 14.5762L24.1897 13.5801C25.4488 13.2471 26.1173 12.9549 27.2493 12.5904L27.565 13.5712Z" fill="black"/>
<path d="M84.5408 60.3649L84.1241 61.3073C84.1163 61.3038 84.1085 61.3003 84.1008 61.2966L84.5408 60.3649ZM65.0248 50.0419L64.5238 50.9422C64.518 50.939 64.5122 50.9357 64.5065 50.9323L65.0248 50.0419ZM159.453 89.5762L159.089 90.54C157.029 89.7619 154.97 88.9838 149.709 87.0261L150.069 86.0604L150.428 85.0948C155.693 87.0539 157.755 87.8332 159.817 88.6123L159.453 89.5762ZM150.069 86.0604L149.709 87.0261C144.451 85.0693 136.04 81.9515 131.07 80.0326L131.441 79.0715L131.813 78.1103C136.767 80.0233 145.161 83.1348 150.428 85.0948L150.069 86.0604ZM131.441 79.0715L131.07 80.0326C126.029 78.0863 124.868 77.5042 122.063 76.4785L122.417 75.5109L122.771 74.5432C125.554 75.5609 126.929 76.2247 131.813 78.1103L131.441 79.0715ZM122.417 75.5109L122.063 76.4785C119.302 75.4685 114.98 74.0518 107.608 71.1438L107.986 70.1854L108.364 69.2269C115.707 72.1234 119.946 73.5099 122.771 74.5432L122.417 75.5109ZM107.986 70.1854L107.608 71.1438C100.236 68.2356 89.9185 63.8696 84.1241 61.3073L84.5408 60.3649L84.9575 59.4226C90.7309 61.9757 101.022 66.3306 108.364 69.2269L107.986 70.1854ZM84.5408 60.3649L84.1008 61.2966C77.3288 58.0985 71.7204 54.9472 64.5238 50.9422L65.0248 50.0419L65.5259 49.1416C72.7363 53.1543 78.2825 56.27 84.9808 59.4333L84.5408 60.3649ZM65.0248 50.0419L64.5065 50.9323C61.8588 49.391 61.3043 48.8743 60.7311 48.3112L61.4531 47.5762L62.1752 46.8411C62.582 47.2408 62.9786 47.6585 65.5432 49.1515L65.0248 50.0419Z" fill="black"/>
<path d="M161.453 90.5762L160.992 91.4977C160.693 91.3481 160.393 91.1963 159.345 90.7927L159.716 89.8312L160.086 88.8697C161.193 89.296 161.553 89.4742 161.914 89.6546L161.453 90.5762ZM159.716 89.8312L159.345 90.7927C158.28 90.3824 156.475 89.7259 155.294 89.3039L155.641 88.3337L155.987 87.3634C157.171 87.7864 158.996 88.4499 160.086 88.8697L159.716 89.8312ZM155.641 88.3337L155.294 89.3039C154.12 88.8845 153.632 88.7219 153.127 88.5536L153.453 87.5762L153.779 86.5987C154.294 86.7705 154.796 86.9379 155.987 87.3634L155.641 88.3337Z" fill="black"/>
<path d="M126.453 66.5762L125.687 65.8872C130.086 60.9953 134.488 56.1004 137.857 52.3938L138.62 53.0868L139.382 53.7798C136.018 57.4815 131.62 62.3718 127.219 67.2651L126.453 66.5762ZM138.62 53.0868L137.857 52.3938C141.228 48.6854 143.431 46.3146 145.698 43.8748L146.453 44.5762L147.208 45.2776C144.942 47.716 142.745 50.08 139.382 53.7798L138.62 53.0868Z" fill="black"/>
<path d="M111.453 47.5762L110.75 46.8232C111.133 46.4653 111.517 46.1223 115.221 43.4885L115.818 44.3282L116.415 45.1679C112.681 47.8232 112.419 48.0836 112.156 48.3291L111.453 47.5762ZM115.818 44.3282L115.221 43.4885C118.946 40.8397 126.063 35.8535 133.888 30.7149L134.453 31.5762L135.019 32.4374C127.223 37.5571 120.128 42.5275 116.415 45.1679L115.818 44.3282Z" fill="black"/>
<path d="M102.453 45.5762L101.423 45.5762C101.423 45.455 101.432 45.265 101.537 45.0181C101.612 44.8399 101.727 44.6562 101.867 44.4568C102.153 44.0469 102.696 43.3568 103.727 42.1196L104.519 42.7794L105.31 43.4392C104.276 44.6794 103.786 45.3079 103.556 45.637C103.437 45.8072 103.423 45.8482 103.434 45.8223C103.444 45.7989 103.462 45.7489 103.474 45.6793C103.485 45.6119 103.483 45.556 103.483 45.5762L102.453 45.5762ZM104.519 42.7794L103.727 42.1196C105.804 39.6289 109.951 34.8198 114.71 29.8626L115.453 30.5762L116.196 31.2897C111.479 36.2035 107.365 40.975 105.31 43.4392L104.519 42.7794Z" fill="black"/>
<path d="M147.453 73.5762L146.523 73.1327C147.927 70.1887 149.348 67.2061 150.875 64.4861L151.773 64.9903L152.672 65.4945C151.185 68.1439 149.793 71.0625 148.383 74.0196L147.453 73.5762ZM151.773 64.9903L150.875 64.4861C152.404 61.7604 153.989 59.3985 155.598 57.002L156.453 57.5762L157.309 58.1503C155.696 60.5539 154.155 62.8508 152.672 65.4945L151.773 64.9903Z" fill="black"/>
<path d="M96.5773 240.056L97.56 239.746L96.5773 240.056ZM90.4531 223.576L91.4061 223.184C93.619 228.567 95.7174 233.896 97.56 239.746L96.5773 240.056L95.5945 240.365C93.7784 234.6 91.7064 229.334 89.5002 223.968L90.4531 223.576ZM96.5773 240.056L97.56 239.746C98.612 243.086 99.2717 247.163 99.916 252.922L98.892 253.037L97.8681 253.151C97.2258 247.41 96.5826 243.502 95.5945 240.365L96.5773 240.056ZM98.892 253.037L99.916 252.922C100.56 258.68 101.04 266.174 101.437 270.583L100.411 270.675L99.3843 270.768C98.978 266.258 98.5105 258.894 97.8681 253.151L98.892 253.037ZM100.411 270.675L101.437 270.583C101.835 275.006 102.141 276.208 102.31 277.378L101.291 277.525L100.271 277.672C100.115 276.591 99.7894 275.264 99.3843 270.768L100.411 270.675ZM101.291 277.525L102.31 277.378C102.485 278.585 102.483 279.602 102.483 280.576L101.453 280.576L100.423 280.576C100.423 279.596 100.422 278.716 100.271 277.672L101.291 277.525Z" fill="black"/>
<path d="M55.6313 274.859L54.6775 274.469L55.6313 274.859ZM52.4788 285.476L51.5121 285.832C51.4896 285.771 51.4729 285.708 51.4623 285.644L52.4788 285.476ZM60.4531 246.576L61.4819 246.633C60.8381 258.372 59.2331 268.766 56.5852 275.249L55.6313 274.859L54.6775 274.469C57.1895 268.319 58.783 258.213 59.4243 246.52L60.4531 246.576ZM55.6313 274.859L56.5852 275.249C55.6263 277.596 54.7906 279.858 54.2264 281.7C53.9439 282.623 53.7346 283.423 53.6107 284.067C53.4803 284.744 53.4674 285.139 53.4953 285.307L52.4788 285.476L51.4623 285.644C51.3706 285.09 51.4506 284.387 51.5871 283.677C51.7302 282.934 51.9619 282.057 52.256 281.097C52.845 279.174 53.7052 276.85 54.6775 274.469L55.6313 274.859ZM52.4788 285.476L53.4456 285.119C53.5826 285.491 53.8673 285.799 54.2758 286.035L53.7616 286.927L53.2473 287.82C52.5252 287.404 51.8533 286.758 51.5121 285.832L52.4788 285.476ZM53.7616 286.927L54.2758 286.035C54.6948 286.276 55.1877 286.406 55.8712 286.576L55.6217 287.576L55.3722 288.576C54.7415 288.418 53.9589 288.23 53.2473 287.82L53.7616 286.927Z" fill="black"/>
<path d="M41.7494 238.125L42.2074 237.202L42.2084 237.203L41.7494 238.125ZM60.4531 246.576L60.1063 247.546C56.2074 246.153 46.8632 241.821 41.2903 239.048L41.7494 238.125L42.2084 237.203C47.783 239.977 57.0288 244.258 60.7999 245.606L60.4531 246.576ZM41.7494 238.125L41.2913 239.048C40.5042 238.658 39.686 238.232 38.9148 237.83C38.139 237.425 37.4152 237.046 36.8005 236.74L37.2597 235.818L37.719 234.895C38.3555 235.212 39.1 235.602 39.868 236.003C40.6405 236.406 41.4415 236.822 42.2074 237.202L41.7494 238.125ZM37.2597 235.818L36.8005 236.74C35.5874 236.136 34.8523 235.844 34.0724 235.534L34.4531 234.576L34.8338 233.619C35.6326 233.936 36.4296 234.253 37.719 234.895L37.2597 235.818Z" fill="black"/>
<path d="M58.0429 215.615L57.4453 216.454C57.4332 216.445 57.4213 216.436 57.4096 216.427L58.0429 215.615ZM66.4531 221.576L65.73 222.31C65.7471 222.327 65.7209 222.301 65.5916 222.204C65.4806 222.12 65.3269 222.008 65.1278 221.865C64.7302 221.581 64.1737 221.19 63.461 220.692C62.0385 219.696 60.0107 218.28 57.4453 216.454L58.0429 215.615L58.6404 214.775C61.1979 216.596 63.2189 218.007 64.6426 219.003C65.3531 219.501 65.9191 219.898 66.3273 220.19C66.6938 220.452 67.0252 220.693 67.1762 220.842L66.4531 221.576ZM58.0429 215.615L57.4096 216.427C55.0683 214.603 53.2818 212.849 51.821 211.559L52.5031 210.787L53.1852 210.015C54.7466 211.394 56.399 213.028 58.6761 214.802L58.0429 215.615ZM52.5031 210.787L51.821 211.559C50.3468 210.257 49.1284 209.356 47.8408 208.405L48.4531 207.576L49.0654 206.747C50.3547 207.7 51.6373 208.647 53.1852 210.015L52.5031 210.787Z" fill="black"/>
<path d="M45.4531 205.576L45.1701 206.567C44.6422 206.416 44.1053 206.261 42.8955 205.744L43.3006 204.796L43.7058 203.849C44.821 204.326 45.274 204.453 45.7362 204.585L45.4531 205.576ZM43.3006 204.796L42.8955 205.744C41.7133 205.238 39.8791 204.38 38.0167 203.51L38.4531 202.576L38.8895 201.643C40.7672 202.521 42.563 203.36 43.7058 203.849L43.3006 204.796Z" fill="black"/>
<path d="M30.4531 197.576L29.5861 198.133C29.4464 197.915 29.3402 197.751 29.1301 197.525C28.9099 197.289 28.5563 196.966 27.9224 196.489L28.542 195.665L29.1616 194.842C29.8521 195.362 30.3075 195.766 30.6383 196.121C30.9794 196.488 31.1665 196.78 31.3202 197.02L30.4531 197.576ZM28.542 195.665L27.9224 196.489C26.6341 195.519 24.326 194.02 21.8922 192.44L22.4531 191.576L23.0141 190.712C25.4158 192.271 27.8011 193.818 29.1616 194.842L28.542 195.665Z" fill="black"/>
<path d="M17.4531 187.576L16.7826 188.358C16.5047 188.12 16.2229 187.87 14.8517 187.039L15.3856 186.158L15.9196 185.276C17.3634 186.151 17.7415 186.466 18.1237 186.794L17.4531 187.576ZM15.3856 186.158L14.8517 187.039C13.4581 186.194 10.9321 184.751 7.83032 182.397L8.45312 181.576L9.07593 180.755C12.0742 183.03 14.4982 184.415 15.9196 185.276L15.3856 186.158Z" fill="black"/>
<path d="M88.5029 207.589L87.8102 206.826C87.8323 206.806 87.8554 206.787 87.8792 206.769L88.5029 207.589ZM98.644 199.754L99.2749 200.568C99.2639 200.577 99.2527 200.585 99.2414 200.593L98.644 199.754ZM78.4531 217.576L77.6405 216.943C80.0391 213.866 84.164 210.138 87.8102 206.826L88.5029 207.589L89.1957 208.351C85.4928 211.715 81.5293 215.306 79.2657 218.21L78.4531 217.576ZM88.5029 207.589L87.8792 206.769C92.4237 203.313 95.934 200.418 98.0465 198.914L98.644 199.754L99.2414 200.593C97.1459 202.085 93.794 204.86 89.1266 208.409L88.5029 207.589ZM98.644 199.754L98.0131 198.939C98.7862 198.34 99.1294 197.965 99.5216 197.136L100.453 197.576L101.385 198.017C100.822 199.207 100.238 199.822 99.2749 200.568L98.644 199.754Z" fill="black"/>
<path d="M162.453 151.576L163.25 152.23C161.792 154.006 160.304 155.82 157.486 158.306L156.804 157.533L156.123 156.761C158.815 154.385 160.22 152.673 161.657 150.923L162.453 151.576ZM156.804 157.533L157.486 158.306C154.705 160.76 150.637 163.844 148.2 165.785L147.558 164.979L146.916 164.174C149.423 162.176 153.393 159.169 156.123 156.761L156.804 157.533ZM147.558 164.979L148.2 165.785C145.76 167.729 144.984 168.505 144.181 169.306L143.453 168.576L142.726 167.847C143.579 166.996 144.411 166.169 146.916 164.174L147.558 164.979Z" fill="black"/>
<path d="M134.453 174.576L135.232 175.251C134.77 175.784 134.308 176.317 133.454 177.303L132.675 176.628L131.897 175.953C132.751 174.968 133.213 174.434 133.675 173.901L134.453 174.576ZM132.675 176.628L133.454 177.303C132.61 178.276 131.345 179.737 130.362 180.686L129.646 179.945L128.931 179.203C129.833 178.332 131.032 176.95 131.897 175.953L132.675 176.628ZM129.646 179.945L130.362 180.686C129.333 181.68 128.635 182.084 127.968 182.469L127.453 181.576L126.938 180.684C127.54 180.336 128.075 180.03 128.931 179.203L129.646 179.945Z" fill="black"/>
<path d="M123.453 184.576L123.872 185.518C123.616 185.631 123.339 185.743 121.785 186.761L121.221 185.898L120.656 185.036C122.247 183.996 122.63 183.814 123.035 183.635L123.453 184.576ZM121.221 185.898L121.785 186.761C120.242 187.77 117.399 189.702 115.37 190.981L114.821 190.11L114.271 189.238C116.287 187.966 119.054 186.085 120.656 185.036L121.221 185.898ZM114.821 190.11L115.37 190.981C113.309 192.281 112.123 192.884 110.92 193.495L110.453 192.576L109.987 191.658C111.164 191.06 112.287 190.489 114.271 189.238L114.821 190.11Z" fill="black"/>
<path d="M152.085 113.174L151.717 114.136C151.702 114.131 151.688 114.125 151.674 114.119L152.085 113.174ZM160.453 116.576L159.713 117.293C159.796 117.379 159.846 117.39 159.716 117.319C159.623 117.269 159.484 117.201 159.289 117.113C158.902 116.938 158.353 116.709 157.643 116.425C156.225 115.858 154.222 115.094 151.717 114.136L152.085 113.174L152.453 112.211C154.951 113.166 156.972 113.938 158.408 114.512C159.124 114.798 159.709 115.041 160.139 115.236C160.353 115.333 160.543 115.424 160.698 115.508C160.816 115.572 161.03 115.691 161.193 115.859L160.453 116.576ZM152.085 113.174L151.674 114.119C149.471 113.162 148.11 112.29 146.894 111.308L147.542 110.506L148.189 109.705C149.252 110.563 150.451 111.341 152.495 112.229L152.085 113.174ZM147.542 110.506L146.894 111.308C145.699 110.342 144.697 109.308 143.713 108.293L144.453 107.576L145.193 106.859C146.188 107.885 147.106 108.83 148.189 109.705L147.542 110.506Z" fill="black"/>
<path d="M124.772 97.0382L124.326 97.9671L124.772 97.0382ZM98.8761 83.7885L99.3192 82.8583C99.3258 82.8615 99.3324 82.8647 99.3389 82.8679L98.8761 83.7885ZM78.0736 74.058L77.8518 75.0642C77.8433 75.0623 77.8348 75.0603 77.8263 75.0582L78.0736 74.058ZM147.453 108.576L146.916 109.455C142.826 106.957 136.44 103.778 124.326 97.9671L124.772 97.0382L125.217 96.1092C137.301 101.906 143.792 105.132 147.99 107.697L147.453 108.576ZM124.772 97.0382L124.326 97.9671C116.465 94.1964 105.298 88.1704 98.4133 84.7091L98.8761 83.7885L99.3389 82.8679C106.34 86.3874 117.354 92.3372 125.217 96.1092L124.772 97.0382ZM98.8761 83.7885L98.4329 84.7187C91.4729 81.4027 86.5158 78.9935 83.3132 77.4665C81.6805 76.6881 80.4532 76.1144 79.5471 75.7164C78.6132 75.3062 78.099 75.1187 77.8518 75.0642L78.0736 74.058L78.2953 73.0518C78.7715 73.1568 79.4656 73.4299 80.3758 73.8297C81.3139 74.2417 82.5665 74.8276 84.2 75.6065C87.5299 77.1941 92.2507 79.4907 99.3192 82.8583L98.8761 83.7885ZM78.0736 74.058L77.8263 75.0582C77.1347 74.8873 76.6238 74.7179 76.1295 74.5544L76.4531 73.5762L76.7768 72.598C77.2678 72.7605 77.7132 72.9075 78.3209 73.0578L78.0736 74.058Z" fill="black"/>
<path d="M64.13 76.4595L64.3936 77.4556L64.13 76.4595ZM47.9576 80.6667L47.6781 79.6749C47.6955 79.6701 47.7129 79.6656 47.7305 79.6616L47.9576 80.6667ZM36.13 82.1786L36.064 81.1503C36.0719 81.1498 36.0799 81.1494 36.0878 81.1491L36.13 82.1786ZM75.4531 72.5762L75.7194 73.5715C74.9066 73.789 73.6094 74.3398 71.6404 75.0904C69.7257 75.8203 67.2984 76.6869 64.3936 77.4556L64.13 76.4595L63.8664 75.4634C66.6751 74.7202 69.0283 73.8808 70.9063 73.1649C72.73 72.4697 74.2376 71.8348 75.1868 71.5808L75.4531 72.5762ZM64.13 76.4595L64.3936 77.4556C58.9658 78.8919 53.8353 80.3948 48.1847 81.6717L47.9576 80.6667L47.7305 79.6616C53.333 78.3957 58.3725 76.9173 63.8664 75.4634L64.13 76.4595ZM47.9576 80.6667L48.2371 81.6584C44.7271 82.6476 42.0709 82.9663 36.1722 83.208L36.13 82.1786L36.0878 81.1491C41.925 80.9099 44.3957 80.6 47.6781 79.6749L47.9576 80.6667ZM36.13 82.1786L36.196 83.2068C35.0399 83.281 34.6922 83.4149 33.6219 83.5926L33.4531 82.5762L33.2844 81.5597C34.1644 81.4136 34.7726 81.2332 36.064 81.1503L36.13 82.1786Z" fill="black"/>
<path d="M33.4531 82.5762L32.5187 83.0103C31.8446 81.5595 31.1643 80.0915 30.1462 76.6953L31.1331 76.3994L32.1201 76.1036C33.102 79.3791 33.7417 80.752 34.3875 82.142L33.4531 82.5762ZM31.1331 76.3994L30.1462 76.6953C29.1377 73.3312 27.8119 68.0993 27.1283 65.0845L28.1331 64.8566L29.138 64.6287C29.8143 67.6114 31.1285 72.796 32.1201 76.1036L31.1331 76.3994ZM28.1331 64.8566L27.1283 65.0845C26.4402 62.0502 26.4228 61.3351 26.4228 60.5762L27.4531 60.5762L28.4835 60.5762C28.4835 61.1181 28.466 61.6656 29.138 64.6287L28.1331 64.8566Z" fill="black"/>
<path d="M70.3708 70.5557L69.8414 71.4396C69.8207 71.4273 69.8005 71.4142 69.7808 71.4004L70.3708 70.5557ZM75.4531 73.5762L74.8953 74.4424C73.9791 73.8525 72.159 72.8278 69.8414 71.4396L70.3708 70.5557L70.9002 69.6718C73.1284 71.0064 75.0636 72.0999 76.011 72.7099L75.4531 73.5762ZM70.3708 70.5557L69.7808 71.4004C69.288 71.0562 68.9498 70.7537 68.686 70.4998C68.3931 70.2179 68.2984 70.1094 68.1578 69.9996L68.7919 69.1875L69.4261 68.3754C69.6784 68.5725 69.9355 68.8424 70.1149 69.015C70.3235 69.2157 70.5783 69.4439 70.9608 69.711L70.3708 70.5557ZM68.7919 69.1875L68.1578 69.9996C67.933 69.824 67.6478 69.7213 67.1373 69.5569L67.4531 68.5762L67.7689 67.5954C68.2184 67.7401 68.8651 67.9374 69.4261 68.3754L68.7919 69.1875Z" fill="black"/>
<path d="M52.1033 75.7952L52.5268 76.7345V76.7345L52.1033 75.7952ZM41.1817 80.0878L41.5304 81.0573C41.5159 81.0626 41.5012 81.0675 41.4864 81.072L41.1817 80.0878ZM67.4531 68.5762L67.8121 69.542C66.2664 70.1164 63.6539 71.3657 60.7871 72.7653C57.9496 74.1504 54.892 75.6681 52.5268 76.7345L52.1033 75.7952L51.6798 74.8559C54.0073 73.8065 57.0207 72.3108 59.8831 70.9135C62.716 69.5305 65.432 68.2282 67.0942 67.6104L67.4531 68.5762ZM52.1033 75.7952L52.5268 76.7345C48.3683 78.6094 44.6794 79.9249 41.5304 81.0573L41.1817 80.0878L40.833 79.1182C43.988 77.9836 47.6049 76.6931 51.6798 74.8559L52.1033 75.7952ZM41.1817 80.0878L41.4864 81.072C40.2897 81.4425 38.5558 82.0298 37.4421 82.4724L37.0616 81.5149L36.6811 80.5574C37.8628 80.0877 39.6521 79.4827 40.877 79.1035L41.1817 80.0878ZM37.0616 81.5149L37.4421 82.4724C36.8912 82.6913 36.5121 82.8674 36.1096 83.0445C35.7061 83.2221 35.3022 83.3899 34.7611 83.5594L34.4531 82.5762L34.1451 81.5929C34.5843 81.4554 34.9108 81.3206 35.2795 81.1584C35.6493 80.9956 36.0843 80.7946 36.6811 80.5574L37.0616 81.5149Z" fill="black"/>
<path d="M4.45312 180.576L3.72456 181.305L1.72456 179.305L2.45312 178.576L3.18169 177.848L5.18169 179.848L4.45312 180.576Z" fill="black"/>
<path d="M66.4071 235.358L67.4366 235.318L66.4071 235.358ZM65.7758 223.576L66.8061 223.576C66.8061 223.572 66.8076 223.615 66.8178 223.763C66.8268 223.893 66.84 224.072 66.8573 224.31C66.8918 224.784 66.9411 225.473 67.0004 226.413C67.1191 228.291 67.2773 231.166 67.4366 235.318L66.4071 235.358L65.3775 235.397C65.2188 231.261 65.0614 228.403 64.9439 226.542C64.8851 225.612 64.8363 224.93 64.8021 224.46C64.7706 224.028 64.7454 223.705 64.7454 223.576L65.7758 223.576ZM66.4071 235.358L67.4366 235.318C67.6416 240.659 67.1253 248.173 66.8082 252.553L65.7805 252.479L64.7529 252.405C65.0718 247.998 65.5772 240.603 65.3775 235.397L66.4071 235.358ZM65.7805 252.479L66.8082 252.553C66.485 257.017 66.1602 258.181 65.6046 260.826L64.5962 260.614L63.5879 260.403C64.1382 257.783 64.4399 256.727 64.7529 252.405L65.7805 252.479ZM64.5962 260.614L65.6046 260.826C65.0555 263.44 64.2755 267.544 63.4713 272.734L62.4531 272.576L61.4349 272.418C62.2446 267.193 63.031 263.054 63.5879 260.403L64.5962 260.614Z" fill="black"/>
<path d="M76.4531 218.576L77.1817 219.305C76.8133 219.673 76.4489 220.031 74.9361 221.209L74.3031 220.396L73.6702 219.583C75.1373 218.441 75.433 218.139 75.7246 217.848L76.4531 218.576ZM74.3031 220.396L74.9361 221.209C73.4368 222.376 70.7872 224.364 68.0713 226.4L67.4531 225.576L66.8349 224.752C69.559 222.709 72.1894 220.736 73.6702 219.583L74.3031 220.396Z" fill="black"/>
<path d="M87.4531 264.576L86.4706 264.886C84.3236 258.085 82.1845 251.309 80.4265 246.327L81.3981 245.984L82.3697 245.641C84.1418 250.663 86.2926 257.477 88.4357 264.266L87.4531 264.576ZM81.3981 245.984L80.4265 246.327C78.6709 241.351 77.3712 238.404 76.2312 236.29L77.1381 235.801L78.045 235.312C79.255 237.555 80.5954 240.613 82.3697 245.641L81.3981 245.984ZM77.1381 235.801L76.2312 236.29C75.1047 234.201 74.1659 232.999 72.6693 231.245L73.4531 230.576L74.2369 229.907C75.7804 231.716 76.8216 233.043 78.045 235.312L77.1381 235.801Z" fill="black"/>
<path d="M130.505 118.868L130.898 117.915L130.505 118.868ZM119.743 111.706L120.328 110.857C120.335 110.862 120.341 110.867 120.348 110.871L119.743 111.706ZM157.453 127.576L157.22 128.58C144.528 125.636 136.715 122.54 130.113 119.821L130.505 118.868L130.898 117.915C137.447 120.613 145.146 123.664 157.686 126.572L157.453 127.576ZM130.505 118.868L130.113 119.821C126.079 118.159 123.039 115.365 119.139 112.54L119.743 111.706L120.348 110.871C124.5 113.879 127.165 116.378 130.898 117.915L130.505 118.868ZM119.743 111.706L119.159 112.554C116.267 110.562 111.627 107.514 108.988 105.785L109.552 104.923L110.117 104.061C112.751 105.787 117.412 108.849 120.328 110.857L119.743 111.706ZM109.552 104.923L108.988 105.785C106.309 104.031 105.958 103.82 105.138 103.557L105.453 102.576L105.768 101.595C106.912 101.962 107.523 102.362 110.117 104.061L109.552 104.923Z" fill="black"/>
<path d="M87.1179 114.72L86.5428 113.865L87.1179 114.72ZM71.4767 123.274L71.9701 124.178L71.4767 123.274ZM30.5348 145.958L31.0975 146.821C31.0805 146.832 31.0632 146.842 31.0455 146.852L30.5348 145.958ZM21.8913 150.709L21.4369 149.785C21.4575 149.774 21.4785 149.765 21.4997 149.756L21.8913 150.709ZM103.453 102.576L104.098 103.38C99.0479 107.433 93.4376 111.711 87.6929 115.575L87.1179 114.72L86.5428 113.865C92.2226 110.045 97.7839 105.805 102.808 101.773L103.453 102.576ZM87.1179 114.72L87.6929 115.575C82.8547 118.829 78.7199 120.497 71.9701 124.178L71.4767 123.274L70.9833 122.369C77.9666 118.56 81.798 117.057 86.5428 113.865L87.1179 114.72ZM71.4767 123.274L71.9701 124.178C69.191 125.694 65.2806 127.578 61.0992 129.618C56.9027 131.665 52.4141 133.879 48.429 136.078L47.9314 135.175L47.4337 134.273C51.4696 132.047 56.001 129.812 60.1956 127.766C64.4054 125.712 68.2571 123.857 70.9833 122.369L71.4767 123.274ZM47.9314 135.175L48.429 136.078C40.4509 140.478 34.6706 144.491 31.0975 146.821L30.5348 145.958L29.972 145.095C33.5016 142.793 39.3699 138.721 47.4337 134.273L47.9314 135.175ZM30.5348 145.958L31.0455 146.852C24.8258 150.403 23.314 151.239 22.2829 151.662L21.8913 150.709L21.4997 149.756C22.3719 149.398 23.7222 148.66 30.024 145.063L30.5348 145.958ZM21.8913 150.709L22.3457 151.634C21.9351 151.836 21.5181 152.109 21.0198 152.437L20.4531 151.576L19.8865 150.716C20.3612 150.403 20.8887 150.054 21.4369 149.785L21.8913 150.709Z" fill="black"/>
<path d="M47.3313 191.274L47.9074 190.42L47.3313 191.274ZM30.3954 179.204L30.9143 178.313C30.9341 178.325 30.9536 178.337 30.9726 178.35L30.3954 179.204ZM17.664 171.055L17.0622 171.892C17.0366 171.873 17.0118 171.853 16.988 171.833L17.664 171.055ZM53.4531 195.576L52.7171 196.297C52.4728 196.048 52.1825 195.808 51.3244 195.214C50.466 194.619 49.1068 193.714 46.7553 192.128L47.3313 191.274L47.9074 190.42C50.2408 191.993 51.6254 192.915 52.4981 193.52C53.3711 194.125 53.7992 194.457 54.1892 194.855L53.4531 195.576ZM47.3313 191.274L46.7553 192.128C44.5955 190.672 41.5433 188.452 38.4512 186.206C35.3474 183.952 32.1997 181.668 29.8182 180.057L30.3954 179.204L30.9726 178.35C33.3891 179.984 36.5682 182.292 39.6623 184.539C42.768 186.795 45.7848 188.988 47.9074 190.42L47.3313 191.274ZM30.3954 179.204L29.8765 180.094C21.1895 175.03 18.4351 172.88 17.0622 171.892L17.664 171.055L18.2659 170.219C19.6127 171.188 22.3074 173.296 30.9143 178.313L30.3954 179.204ZM17.664 171.055L16.988 171.833C16.3025 171.237 15.9185 170.642 15.5904 170.14L16.4531 169.576L17.3158 169.013C17.6413 169.511 17.8915 169.888 18.3401 170.278L17.664 171.055Z" fill="black"/>
<path d="M30.4531 158.834L31.4768 158.717C31.5023 158.94 31.4543 159.165 31.3401 159.358L30.4531 158.834ZM16.4531 169.576L15.842 168.747C18.4299 166.84 21.7868 164.389 24.5683 162.297C25.9594 161.251 27.1974 160.301 28.118 159.56C28.5793 159.188 28.9512 158.876 29.2195 158.635C29.3541 158.514 29.4535 158.419 29.5216 158.348C29.6041 158.263 29.597 158.257 29.5662 158.309L30.4531 158.834L31.3401 159.358C31.2418 159.524 31.1067 159.673 31.0059 159.778C30.8907 159.897 30.7515 160.029 30.5975 160.167C30.2887 160.445 29.8837 160.783 29.4107 161.164C28.4628 161.928 27.2028 162.894 25.8069 163.944C23.0145 166.044 19.6411 168.507 17.0643 170.406L16.4531 169.576ZM30.4531 158.834L29.4294 158.951C29.4356 159.005 29.4307 158.861 29.0365 158.43C28.6735 158.033 28.0947 157.512 27.2283 156.813L27.8753 156.011L28.5223 155.209C29.4097 155.925 30.0865 156.524 30.5573 157.039C30.9969 157.52 31.404 158.08 31.4768 158.717L30.4531 158.834ZM27.8753 156.011L27.2283 156.813C25.5 155.419 22.7989 153.457 19.9796 151.41L20.585 150.576L21.1903 149.742C23.9903 151.775 26.7432 153.774 28.5223 155.209L27.8753 156.011Z" fill="black"/>
<path d="M158.453 129.576L159.097 130.38C154.961 133.692 150.823 137.005 141.138 144.466L140.509 143.65L139.88 142.833C149.553 135.383 153.68 132.078 157.809 128.772L158.453 129.576ZM140.509 143.65L141.138 144.466C131.459 151.922 116.348 163.433 105.932 170.944L105.329 170.108L104.727 169.273C115.114 161.782 130.202 150.288 139.88 142.833L140.509 143.65ZM105.329 170.108L105.932 170.944C95.5037 178.465 90.2314 181.633 86.7443 183.88L86.1862 183.014L85.628 182.148C89.1345 179.888 94.3526 176.754 104.727 169.273L105.329 170.108ZM86.1862 183.014L86.7443 183.88C85.0099 184.998 83.7509 185.868 82.393 186.795C81.0337 187.723 79.5857 188.7 77.4925 190.019L76.9433 189.147L76.394 188.276C78.4574 186.976 79.8825 186.013 81.2313 185.093C82.5815 184.171 83.8657 183.284 85.628 182.148L86.1862 183.014ZM76.9433 189.147L77.4925 190.019C73.3186 192.649 66.6281 196.597 62.4631 198.947L61.9567 198.05L61.4503 197.152C65.5937 194.814 72.2546 190.884 76.394 188.276L76.9433 189.147ZM61.9567 198.05L62.4631 198.947C58.3084 201.292 56.8012 201.967 55.722 202.327L55.3966 201.349L55.0712 200.371C55.9426 200.081 57.2965 199.497 61.4503 197.152L61.9567 198.05ZM55.3966 201.349L55.722 202.327C55.2178 202.494 54.693 202.634 54.1784 202.602C53.5868 202.564 53.1227 202.312 52.735 201.935L53.4531 201.196L54.1712 200.457C54.2345 200.519 54.2671 200.536 54.2736 200.539C54.2753 200.54 54.2808 200.543 54.3083 200.545C54.3988 200.551 54.6001 200.528 55.0712 200.371L55.3966 201.349Z" fill="black"/>
<path d="M26.4321 142.966L25.9368 143.87V143.87L26.4321 142.966ZM23.4793 143.265L24.1198 144.072L23.4793 143.265ZM20.6865 146.687L21.6116 147.14V147.14L20.6865 146.687ZM31.5794 152.576L31.5674 153.606C31.4061 153.604 31.2475 153.565 31.1043 153.49L31.5794 152.576ZM34.9892 149.238L34.2504 149.956C32.495 148.15 29.491 145.818 25.9368 143.87L26.4321 142.966L26.9275 142.063C30.6337 144.095 33.8091 146.545 35.728 148.519L34.9892 149.238ZM26.4321 142.966L25.9368 143.87C25.4111 143.582 25.0988 143.586 24.9072 143.627C24.6767 143.676 24.4453 143.813 24.1198 144.072L23.4793 143.265L22.8387 142.458C23.2138 142.16 23.7582 141.764 24.4787 141.611C25.2382 141.45 26.052 141.583 26.9275 142.063L26.4321 142.966ZM23.4793 143.265L24.1198 144.072C22.8005 145.119 21.9508 146.448 21.6116 147.14L20.6865 146.687L19.7614 146.233C20.2015 145.335 21.2257 143.738 22.8387 142.458L23.4793 143.265ZM20.6865 146.687L21.6116 147.14C21.4566 147.456 21.4674 147.659 21.5141 147.81C21.5699 147.989 21.721 148.226 22.0559 148.504C22.7451 149.078 23.9189 149.591 25.3272 150.03C26.7063 150.459 28.1878 150.781 29.4062 151.03C30.0032 151.151 30.5595 151.259 30.9775 151.348C31.1887 151.394 31.3832 151.438 31.5455 151.48C31.6802 151.516 31.8835 151.573 32.0544 151.662L31.5794 152.576L31.1043 153.49C31.1598 153.519 31.1611 153.51 31.0195 153.473C30.9054 153.443 30.7491 153.407 30.5475 153.364C30.1398 153.277 29.6221 153.176 28.9951 153.049C27.7654 152.798 26.1985 152.459 24.7144 151.997C23.2596 151.544 21.7556 150.935 20.7381 150.088C20.2197 149.657 19.7601 149.109 19.5464 148.422C19.3235 147.705 19.4057 146.958 19.7614 146.233L20.6865 146.687ZM31.5794 152.576L31.5913 151.546C31.6732 151.547 31.8917 151.505 32.2444 151.346C32.5712 151.199 32.9232 150.994 33.237 150.78L33.8178 151.631L34.3986 152.482C34.0095 152.748 33.5508 153.018 33.0884 153.226C32.6519 153.422 32.1026 153.613 31.5674 153.606L31.5794 152.576ZM33.8178 151.631L33.237 150.78C33.7996 150.396 34.137 150.058 34.5282 149.261L35.4531 149.715L36.3781 150.169C35.8228 151.3 35.2417 151.907 34.3986 152.482L33.8178 151.631Z" fill="black"/>
<path d="M27.9935 145.492L28.6638 144.709L27.9935 145.492ZM24.4531 148.047L23.5786 148.591C23.3576 148.237 23.3728 147.784 23.617 147.444C23.8613 147.105 24.2862 146.947 24.6927 147.045L24.4531 148.047ZM33.2027 153.551L32.7987 154.499C32.7878 154.494 32.777 154.489 32.7663 154.484L33.2027 153.551ZM35.0389 151.774L34.0085 151.774C34.0085 151.954 34.0583 152.085 34.0782 152.132C34.1022 152.191 34.1256 152.229 34.1333 152.241C34.1486 152.265 34.1507 152.264 34.1206 152.228C34.0638 152.162 33.96 152.053 33.7969 151.896C33.4755 151.585 32.9945 151.152 32.3712 150.606C31.1265 149.517 29.3749 148.032 27.3232 146.274L27.9935 145.492L28.6638 144.709C30.7017 146.455 32.4727 147.957 33.7283 149.055C34.3551 149.604 34.8687 150.065 35.2293 150.414C35.4072 150.586 35.5663 150.748 35.6871 150.89C35.7459 150.958 35.8155 151.045 35.876 151.141C35.9064 151.189 35.9469 151.259 35.9824 151.345C36.0136 151.42 36.0692 151.574 36.0692 151.774L35.0389 151.774ZM27.9935 145.492L27.3232 146.274C26.9959 145.994 26.6657 145.663 26.4972 145.295C26.4123 145.11 26.2869 144.737 26.4479 144.316C26.6258 143.852 27.0185 143.662 27.2676 143.596C27.5072 143.532 27.7369 143.541 27.901 143.56C28.0788 143.58 28.2602 143.621 28.4361 143.673C28.7884 143.776 29.1857 143.942 29.6007 144.156L29.1273 145.071L28.6538 145.987C28.324 145.816 28.0509 145.707 27.8556 145.65C27.7577 145.621 27.6961 145.61 27.6676 145.607C27.6254 145.602 27.6855 145.617 27.7984 145.587C27.9207 145.554 28.2295 145.426 28.3723 145.054C28.4983 144.725 28.3866 144.472 28.3704 144.437C28.3457 144.383 28.3355 144.386 28.3938 144.452C28.4458 144.511 28.5318 144.596 28.6638 144.709L27.9935 145.492ZM29.1273 145.071L29.6007 144.156C30.3981 144.569 31.3629 145.177 32.0925 145.723C32.4502 145.991 32.7961 146.276 33.0385 146.539C33.1474 146.657 33.3106 146.849 33.4107 147.089C33.4623 147.213 33.5335 147.433 33.4989 147.706C33.4587 148.022 33.2887 148.297 33.0384 148.476L32.439 147.638L31.8396 146.8C31.6337 146.947 31.4884 147.18 31.4547 147.446C31.4266 147.667 31.4861 147.828 31.5092 147.883C31.5525 147.987 31.5924 148.011 31.5238 147.936C31.4114 147.815 31.1865 147.619 30.8579 147.373C30.2151 146.892 29.3461 146.345 28.6538 145.987L29.1273 145.071ZM32.439 147.638L33.0384 148.476C32.8246 148.629 32.6064 148.673 32.4935 148.69C32.3649 148.709 32.2442 148.709 32.1498 148.705C31.9607 148.697 31.7569 148.666 31.5702 148.632C31.1929 148.562 30.7304 148.446 30.2979 148.338C29.8478 148.226 29.4174 148.119 29.0501 148.048C28.6296 147.965 28.4692 147.968 28.4748 147.968L28.3046 146.951L28.1344 145.935C28.5514 145.865 29.069 145.952 29.4451 146.025C29.8745 146.109 30.3596 146.23 30.7958 146.339C31.2495 146.452 31.6441 146.549 31.9468 146.606C32.1002 146.634 32.1921 146.645 32.2359 146.646C32.258 146.647 32.2382 146.645 32.1924 146.651C32.1622 146.656 32.0089 146.679 31.8396 146.8L32.439 147.638ZM28.3046 146.951L28.4748 147.968C28.5177 147.96 28.7461 147.912 28.9254 147.668C29.1098 147.417 29.0894 147.168 29.0759 147.089C29.0598 146.994 29.0458 147.038 29.221 147.282C29.5392 147.724 30.006 148.21 30.4682 148.757L29.6812 149.422L28.8941 150.087C28.5573 149.688 27.9246 149.008 27.5485 148.486C27.3767 148.247 27.117 147.859 27.0447 147.436C27.0031 147.193 27.0021 146.806 27.2643 146.449C27.5213 146.098 27.8859 145.977 28.1344 145.935L28.3046 146.951ZM29.6812 149.422L30.4682 148.757C30.6777 149.005 30.8732 149.254 31.0175 149.482C31.0892 149.595 31.1665 149.732 31.2247 149.881C31.2746 150.009 31.3593 150.266 31.311 150.574C31.2486 150.972 30.9896 151.296 30.6285 151.451C30.348 151.571 30.08 151.559 29.9339 151.543C29.624 151.511 29.2742 151.392 28.9304 151.253L29.3158 150.298L29.7013 149.342C29.8474 149.401 29.9592 149.441 30.0417 149.466C30.1289 149.492 30.1598 149.495 30.1504 149.494C30.144 149.493 30.112 149.49 30.062 149.494C30.0134 149.498 29.9236 149.511 29.8158 149.557C29.7021 149.606 29.5698 149.692 29.4596 149.833C29.3489 149.974 29.2954 150.126 29.2752 150.255C29.2401 150.479 29.3048 150.629 29.3049 150.63C29.3132 150.651 29.3108 150.639 29.2761 150.584C29.2078 150.476 29.0842 150.312 28.8941 150.087L29.6812 149.422ZM29.3158 150.298L28.9304 151.253C28.2234 150.968 27.1437 150.424 26.2109 149.963C25.7313 149.725 25.283 149.506 24.9109 149.335C24.5083 149.15 24.2848 149.066 24.2136 149.049L24.4531 148.047L24.6927 147.045C24.9927 147.116 25.3977 147.291 25.7701 147.462C26.1732 147.647 26.6466 147.879 27.1249 148.116C28.1079 148.602 29.0883 149.095 29.7013 149.342L29.3158 150.298ZM24.4531 148.047L25.3276 147.502C25.3877 147.598 25.626 147.857 26.1494 148.268C26.6388 148.653 27.2905 149.105 28.0645 149.594C29.6111 150.571 31.5959 151.662 33.6391 152.618L33.2027 153.551L32.7663 154.484C30.6492 153.494 28.588 152.362 26.9643 151.336C26.1532 150.824 25.4387 150.331 24.8759 149.888C24.3471 149.473 23.8474 149.023 23.5786 148.591L24.4531 148.047ZM33.2027 153.551L33.6067 152.603C35.1952 153.28 35.9009 153.416 36.6534 153.565L36.4531 154.576L36.2529 155.587C35.4025 155.418 34.5525 155.246 32.7987 154.499L33.2027 153.551Z" fill="black"/>
<path d="M98.4466 112.335L97.4191 112.412L98.4466 112.335ZM90.8863 113.71L90.1852 114.465V114.465L90.8863 113.71ZM91.28 104.576L91.9561 103.799C94.1981 105.748 96 107.433 97.2594 108.785C97.8878 109.459 98.4007 110.072 98.7687 110.609C99.1079 111.103 99.431 111.682 99.4741 112.258L98.4466 112.335L97.4191 112.412C97.4199 112.422 97.3841 112.233 97.069 111.774C96.7828 111.356 96.3464 110.828 95.7516 110.189C94.5648 108.915 92.8256 107.286 90.6039 105.354L91.28 104.576ZM98.4466 112.335L99.4741 112.258C99.5189 112.858 99.4031 113.417 99.1179 113.903C98.8369 114.382 98.43 114.726 97.993 114.968C97.1467 115.437 96.0766 115.589 95.1055 115.605C94.1099 115.622 93.0886 115.497 92.2514 115.313C91.8321 115.221 91.4411 115.11 91.1109 114.986C90.8164 114.875 90.4506 114.712 90.1852 114.465L90.8863 113.71L91.5875 112.955C91.5413 112.912 91.5838 112.962 91.8353 113.057C92.0511 113.138 92.3436 113.223 92.6936 113.3C93.3949 113.454 94.2556 113.558 95.0714 113.545C95.9119 113.531 96.583 113.394 96.994 113.166C97.1856 113.06 97.2863 112.953 97.3403 112.861C97.39 112.776 97.4364 112.643 97.4191 112.412L98.4466 112.335ZM90.8863 113.71L90.1852 114.465C89.4703 113.801 88.7428 112.591 88.1574 111.475C87.5506 110.317 87.0153 109.098 86.7083 108.29L87.6714 107.924L88.6345 107.558C88.912 108.288 89.4134 109.432 89.9825 110.518C90.573 111.644 91.1607 112.559 91.5875 112.955L90.8863 113.71ZM87.6714 107.924L86.7083 108.29C86.5499 107.873 86.4273 107.448 86.4229 107.053C86.4181 106.62 86.5687 106.048 87.1416 105.732C87.5876 105.486 88.0711 105.536 88.3472 105.583C88.6671 105.637 89.0146 105.744 89.3487 105.861L89.0095 106.834L88.6704 107.807C88.5212 107.755 88.3903 107.712 88.2756 107.679C88.1599 107.646 88.0712 107.626 88.0051 107.615C87.9361 107.603 87.9145 107.606 87.9265 107.605C87.9375 107.604 88.0242 107.598 88.1372 107.536C88.1958 107.504 88.2559 107.459 88.3105 107.401C88.3651 107.342 88.4051 107.28 88.4326 107.221C88.4596 107.163 88.4721 107.114 88.4779 107.082C88.4837 107.05 88.4835 107.031 88.4835 107.03C88.4834 107.029 88.4835 107.039 88.4872 107.064C88.4908 107.089 88.4974 107.124 88.5089 107.171C88.5322 107.266 88.5717 107.393 88.6345 107.558L87.6714 107.924ZM89.0095 106.834L89.3487 105.861C90.021 106.095 90.8621 106.448 91.5373 106.719C91.8868 106.859 92.1928 106.978 92.4369 107.061C92.7293 107.162 92.7978 107.162 92.7424 107.161L92.7148 108.191L92.6872 109.221C92.3782 109.213 92.0174 109.096 91.7682 109.011C91.4708 108.909 91.1232 108.773 90.7704 108.631C90.041 108.339 89.2831 108.02 88.6704 107.807L89.0095 106.834ZM92.7148 108.191L92.7424 107.161C92.7167 107.16 92.3833 107.146 92.0981 107.443C91.7619 107.793 91.8275 108.202 91.8595 108.323C91.8784 108.395 91.9021 108.445 91.9142 108.468C91.9274 108.494 91.9375 108.509 91.9401 108.513C91.9445 108.519 91.938 108.509 91.9161 108.486C91.8678 108.436 91.8158 108.397 91.7978 108.386C91.7837 108.377 91.8271 108.407 91.9164 108.432C91.9625 108.444 92.0597 108.466 92.1891 108.459C92.3241 108.452 92.5295 108.41 92.7255 108.257L92.0916 107.444L91.4577 106.632C91.884 106.299 92.3472 106.413 92.4619 106.444C92.6348 106.492 92.7775 106.57 92.8696 106.626C93.064 106.744 93.2521 106.902 93.4012 107.058C93.478 107.137 93.5596 107.232 93.6327 107.337C93.6967 107.429 93.7975 107.591 93.8522 107.798C93.9054 108 93.9638 108.476 93.5835 108.871C93.2542 109.214 92.8397 109.225 92.6872 109.221L92.7148 108.191ZM92.0916 107.444L92.7255 108.257C92.9291 108.098 93.0197 107.9 93.0578 107.769C93.094 107.644 93.0938 107.546 93.0922 107.504C93.0892 107.424 93.0738 107.388 93.0858 107.428C93.106 107.496 93.1578 107.628 93.2509 107.825C93.4309 108.206 93.6951 108.685 93.934 109.096L93.0433 109.614L92.1526 110.132C91.9036 109.703 91.605 109.165 91.3877 108.705C91.2821 108.482 91.1766 108.237 91.1109 108.017C91.08 107.913 91.0394 107.755 91.0329 107.58C91.029 107.473 91.0176 106.976 91.4577 106.632L92.0916 107.444ZM93.0433 109.614L93.934 109.096C94.0437 109.284 94.1733 109.501 94.2664 109.674C94.3149 109.764 94.3679 109.868 94.4119 109.976C94.4502 110.069 94.5136 110.239 94.5283 110.442C94.5438 110.654 94.5117 111.078 94.1354 111.395C93.8071 111.672 93.4379 111.669 93.2913 111.66C92.9865 111.64 92.6641 111.514 92.4135 111.407L92.8187 110.46L93.2238 109.512C93.3355 109.56 93.4104 109.588 93.4568 109.603C93.5126 109.62 93.4913 109.608 93.4237 109.603C93.3846 109.601 93.09 109.581 92.8079 109.819C92.4778 110.097 92.4636 110.461 92.4731 110.592C92.482 110.714 92.5158 110.783 92.5052 110.757C92.5006 110.746 92.4857 110.713 92.4518 110.65C92.3801 110.517 92.2869 110.363 92.1526 110.132L93.0433 109.614ZM92.8187 110.46L92.4135 111.407C91.8611 111.171 90.9499 110.696 90.2167 110.331C89.8324 110.139 89.4899 109.974 89.2278 109.861C89.0951 109.803 89.0038 109.769 88.9492 109.751C88.9216 109.742 88.9215 109.744 88.9412 109.748C88.9433 109.748 89.0478 109.77 89.1967 109.748L89.0409 108.729L88.8852 107.711C89.0784 107.681 89.2433 107.708 89.3199 107.722C89.4142 107.74 89.5029 107.765 89.5766 107.788C89.7248 107.836 89.8866 107.901 90.0442 107.969C90.3625 108.106 90.7489 108.294 91.1357 108.486C91.9447 108.89 92.7449 109.307 93.2238 109.512L92.8187 110.46ZM89.0409 108.729L89.1967 109.748C89.3743 109.721 89.7445 109.599 89.9343 109.187C90.0911 108.846 90.0005 108.554 89.9786 108.488C89.9291 108.338 89.8603 108.276 89.9186 108.347C89.9925 108.437 90.1544 108.6 90.392 108.81C90.8648 109.227 91.4493 109.667 91.7742 109.852L91.2631 110.747L90.7521 111.642C90.2533 111.357 89.5492 110.814 89.028 110.354C88.7687 110.125 88.5073 109.875 88.3265 109.655C88.2575 109.571 88.1035 109.38 88.0228 109.137C87.9853 109.024 87.8926 108.694 88.0624 108.325C88.2651 107.885 88.6632 107.745 88.8852 107.711L89.0409 108.729ZM91.2631 110.747L91.7742 109.852C91.846 109.893 91.8819 109.908 91.8885 109.91C91.9017 109.915 91.8408 109.889 91.7305 109.887C91.6098 109.885 91.3888 109.913 91.1778 110.082C90.968 110.25 90.8912 110.46 90.8655 110.582C90.8417 110.695 90.8519 110.773 90.8532 110.784C90.8554 110.801 90.8566 110.799 90.8485 110.771C90.8319 110.714 90.7986 110.627 90.7478 110.515L91.6858 110.089L92.6239 109.662C92.6938 109.816 92.7711 110.003 92.8265 110.193C92.8696 110.341 92.9544 110.661 92.8823 111.005C92.8402 111.206 92.7303 111.478 92.4672 111.689C92.203 111.901 91.9085 111.952 91.6908 111.947C91.3175 111.94 90.98 111.772 90.7521 111.642L91.2631 110.747ZM91.6858 110.089L90.7478 110.515C90.6502 110.3 90.5336 110.096 90.4511 109.964C90.4065 109.893 90.3861 109.866 90.3922 109.874C90.3929 109.874 90.4104 109.898 90.4385 109.928C90.4493 109.94 90.4876 109.982 90.5447 110.028C90.5714 110.049 90.6337 110.098 90.7231 110.143C90.7782 110.171 91.0293 110.299 91.367 110.24C91.565 110.205 91.7636 110.11 91.9234 109.948C92.0738 109.796 92.1451 109.629 92.1791 109.512C92.24 109.301 92.216 109.128 92.2092 109.081C92.1919 108.96 92.156 108.871 92.151 108.858C92.1392 108.828 92.1286 108.805 92.124 108.796C92.1186 108.784 92.1144 108.776 92.1124 108.772L91.2003 109.252L90.2882 109.731C90.2794 109.714 90.2541 109.666 90.2306 109.605C90.2239 109.588 90.187 109.496 90.1693 109.373C90.1624 109.325 90.1384 109.151 90.1994 108.939C90.2336 108.821 90.305 108.655 90.4555 108.502C90.6155 108.34 90.8144 108.245 91.0125 108.21C91.3507 108.151 91.6026 108.279 91.6585 108.307C91.7487 108.353 91.812 108.402 91.8398 108.425C91.8992 108.473 91.9405 108.517 91.9548 108.533C91.9899 108.571 92.0168 108.606 92.0291 108.622C92.0815 108.69 92.1418 108.781 92.1978 108.871C92.3164 109.06 92.48 109.346 92.6239 109.662L91.6858 110.089ZM91.2003 109.252L92.1124 108.772C92.109 108.766 92.132 108.807 92.196 108.908C92.2532 108.997 92.3309 109.115 92.4242 109.251C92.6119 109.523 92.8544 109.855 93.1125 110.167L92.3187 110.824L91.5248 111.481C90.9289 110.76 90.4055 109.954 90.2882 109.731L91.2003 109.252ZM92.3187 110.824L93.1125 110.167C93.6291 110.791 94.218 111.345 94.8828 111.967L94.1786 112.719L93.4743 113.471C92.8252 112.864 92.1387 112.223 91.5248 111.481L92.3187 110.824Z" fill="black"/>
<path d="M106.636 127.64L106.162 128.554L106.636 127.64ZM100.313 149.368L100.727 148.424L100.313 149.368ZM81.3498 142.48L81.3355 141.45L81.3498 142.48ZM88.7161 157.397L89.5079 156.738L88.7161 157.397ZM85.5536 158.563L85.8882 157.588L85.5536 158.563ZM66.9634 153.183L67.4141 154.11L66.9634 153.183ZM69.4746 166.925L70.3745 167.427C70.2124 167.718 69.92 167.912 69.5894 167.949L69.4746 166.925ZM50.4994 169.324L49.4813 169.165C49.5237 168.892 49.6743 168.647 49.8991 168.486L50.4994 169.324ZM123.453 136.489L124.483 136.489C124.483 136.798 124.343 137.128 124.045 137.34C123.81 137.507 123.575 137.529 123.484 137.534C123.293 137.544 123.136 137.5 123.09 137.487C122.955 137.45 122.811 137.39 122.691 137.337C122.432 137.224 122.072 137.045 121.639 136.822C120.766 136.372 119.511 135.694 117.983 134.866C114.919 133.205 110.724 130.919 106.162 128.554L106.636 127.64L107.11 126.725C111.693 129.1 115.907 131.396 118.965 133.054C120.498 133.886 121.733 134.552 122.584 134.991C123.013 135.212 123.324 135.365 123.52 135.451C123.627 135.498 123.657 135.506 123.64 135.501C123.632 135.499 123.608 135.492 123.574 135.487C123.545 135.482 123.473 135.471 123.378 135.476C123.301 135.48 123.078 135.499 122.85 135.661C122.559 135.868 122.423 136.19 122.423 136.489L123.453 136.489ZM106.636 127.64L106.162 128.554C106.145 128.546 106.155 128.552 106.184 128.562C106.2 128.568 106.301 128.605 106.449 128.606C106.6 128.608 106.965 128.567 107.232 128.225C107.476 127.913 107.447 127.588 107.434 127.493C107.408 127.307 107.332 127.206 107.373 127.276C107.39 127.305 107.428 127.362 107.494 127.451C107.765 127.818 108.291 128.425 108.975 129.178C110.327 130.666 112.171 132.584 113.493 133.969L112.747 134.681L112.002 135.392C110.692 134.019 108.823 132.076 107.449 130.564C106.77 129.816 106.179 129.138 105.838 128.678C105.752 128.561 105.668 128.441 105.599 128.325C105.555 128.249 105.429 128.036 105.392 127.775C105.374 127.641 105.35 127.287 105.608 126.956C105.891 126.595 106.281 126.544 106.469 126.546C106.653 126.548 106.802 126.595 106.876 126.622C106.964 126.653 107.044 126.691 107.11 126.725L106.636 127.64ZM112.747 134.681L113.493 133.969C114.159 134.667 114.707 135.289 115.079 135.822C115.266 136.087 115.432 136.364 115.545 136.643C115.653 136.91 115.753 137.281 115.671 137.686C115.578 138.149 115.283 138.481 114.93 138.675C114.616 138.847 114.267 138.908 113.964 138.93C113.353 138.974 112.551 138.881 111.598 138.704L111.786 137.691L111.974 136.678C112.898 136.849 113.483 136.899 113.816 136.875C113.984 136.863 113.996 136.837 113.938 136.869C113.839 136.923 113.695 137.062 113.652 137.277C113.62 137.435 113.67 137.504 113.634 137.415C113.603 137.338 113.532 137.204 113.392 137.004C113.112 136.604 112.652 136.074 112.002 135.392L112.747 134.681ZM111.786 137.691L111.598 138.704C109.673 138.346 106.767 137.564 103.939 136.815C101.068 136.055 98.2802 135.331 96.4874 135.046L96.6491 134.028L96.8108 133.011C98.7303 133.316 101.634 134.074 104.466 134.823C107.339 135.584 110.146 136.338 111.974 136.678L111.786 137.691ZM96.6491 134.028L96.4874 135.046C95.5799 134.902 95.0577 134.896 94.789 134.944C94.6639 134.967 94.6746 134.988 94.7327 134.942C94.8143 134.877 94.8682 134.777 94.8838 134.695C94.8946 134.638 94.8638 134.775 95.1066 135.28C95.3227 135.73 95.6674 136.299 96.1281 137.016L95.2616 137.573L94.395 138.131C93.9331 137.413 93.5259 136.748 93.2492 136.172C92.9991 135.652 92.7345 134.971 92.8588 134.313C92.9311 133.93 93.1287 133.584 93.4517 133.327C93.7513 133.09 94.1013 132.974 94.4245 132.916C95.0523 132.803 95.8622 132.86 96.8108 133.011L96.6491 134.028ZM95.2616 137.573L96.1281 137.016C97.042 138.436 98.2885 140.241 99.5035 142.036C100.705 143.812 101.881 145.586 102.61 146.892L101.71 147.394L100.81 147.896C100.132 146.681 99.0068 144.979 97.7969 143.191C96.6007 141.424 95.3263 139.578 94.395 138.131L95.2616 137.573ZM101.71 147.394L102.61 146.892C102.973 147.542 103.249 148.12 103.398 148.609C103.472 148.854 103.53 149.124 103.53 149.398C103.529 149.674 103.468 150.024 103.229 150.336C102.726 150.991 101.926 150.927 101.536 150.86C101.059 150.779 100.5 150.575 99.8983 150.311L100.313 149.368L100.727 148.424C101 148.544 101.234 148.637 101.432 148.705C101.633 148.774 101.781 148.812 101.883 148.829C101.994 148.848 102.005 148.835 101.955 148.845C101.888 148.857 101.724 148.911 101.593 149.082C101.471 149.241 101.469 149.383 101.469 149.393C101.469 149.401 101.469 149.347 101.427 149.209C101.342 148.933 101.151 148.507 100.81 147.896L101.71 147.394ZM100.313 149.368L99.8983 150.311C96.4379 148.79 93.0079 147.095 89.716 145.735C86.4289 144.377 83.5551 143.48 81.3641 143.51L81.3498 142.48L81.3355 141.45C83.9901 141.413 87.2124 142.471 90.5027 143.83C93.7884 145.188 97.4172 146.97 100.727 148.424L100.313 149.368ZM81.3498 142.48L81.3641 143.51C81.1602 143.513 81.2715 143.56 81.3486 143.427C81.3725 143.385 81.3027 143.483 81.3736 143.891C81.5106 144.679 82.0391 145.901 82.894 147.412C84.5752 150.383 87.268 154.048 89.5079 156.738L88.7161 157.397L87.9244 158.056C85.6384 155.311 82.8633 151.542 81.1004 148.426C80.2333 146.894 79.5457 145.408 79.3433 144.244C79.2446 143.676 79.2243 142.986 79.5632 142.398C79.9553 141.717 80.647 141.459 81.3355 141.45L81.3498 142.48ZM88.7161 157.397L89.5079 156.738C89.9047 157.214 90.2659 157.782 90.316 158.388C90.344 158.728 90.2744 159.095 90.0468 159.419C89.827 159.731 89.5236 159.914 89.2429 160.017C88.7151 160.211 88.0779 160.199 87.4644 160.112C86.819 160.021 86.0624 159.827 85.219 159.537L85.5536 158.563L85.8882 157.588C86.6515 157.85 87.2758 158.005 87.7526 158.072C88.2611 158.144 88.4872 158.099 88.5307 158.083C88.5356 158.082 88.4448 158.114 88.3606 158.234C88.2684 158.365 88.2572 158.496 88.2623 158.558C88.2665 158.609 88.2568 158.456 87.9244 158.056L88.7161 157.397ZM85.5536 158.563L85.219 159.537C83.0193 158.782 80.9049 157.992 78.9424 157.255C76.9738 156.515 75.1674 155.832 73.5588 155.279C71.9447 154.724 70.5755 154.317 69.48 154.117C68.3314 153.907 67.7024 153.97 67.4141 154.11L66.9634 153.183L66.5128 152.257C67.4401 151.806 68.6505 151.87 69.8503 152.09C71.1032 152.319 72.5913 152.767 74.2287 153.33C75.8716 153.895 77.7108 154.591 79.6671 155.326C81.6295 156.063 83.7192 156.843 85.8882 157.588L85.5536 158.563ZM66.9634 153.183L67.4141 154.11C67.0149 154.304 66.8413 154.518 66.7539 154.711C66.658 154.923 66.6135 155.229 66.6768 155.677C66.8093 156.613 67.3518 157.804 68.0786 159.193C68.7669 160.508 69.6194 161.998 70.1566 163.326C70.4293 164 70.6489 164.696 70.7252 165.37C70.802 166.049 70.7404 166.771 70.3745 167.427L69.4746 166.925L68.5747 166.423C68.6659 166.26 68.7236 166.008 68.6776 165.602C68.631 165.191 68.4855 164.69 68.2463 164.098C67.7595 162.895 67.0004 161.577 66.2528 160.148C65.5437 158.793 64.8258 157.304 64.6365 155.965C64.5389 155.275 64.5682 154.544 64.8761 153.862C65.1924 153.163 65.7528 152.626 66.5128 152.257L66.9634 153.183ZM69.4746 166.925L69.5894 167.949C65.5359 168.404 61.3937 168.516 58.0691 168.751C56.3832 168.87 54.9031 169.02 53.6875 169.255C52.4494 169.494 51.6027 169.8 51.0997 170.161L50.4994 169.324L49.8991 168.486C50.7728 167.86 51.9786 167.486 53.2969 167.232C54.6377 166.973 56.2178 166.816 57.9238 166.696C61.3832 166.451 65.352 166.351 69.3597 165.901L69.4746 166.925ZM50.4994 169.324L51.5175 169.482C51.4533 169.895 51.4768 170.505 51.613 171.324C51.7469 172.13 51.9781 173.074 52.283 174.126C52.8937 176.234 53.7739 178.692 54.6827 181.229L53.7128 181.576L52.7428 181.924C51.8403 179.405 50.9359 176.882 50.3037 174.7C49.9872 173.607 49.7324 172.579 49.5802 171.662C49.4303 170.76 49.3675 169.898 49.4813 169.165L50.4994 169.324Z" fill="black"/>
<path d="M41.0621 101.02L40.073 101.308L41.0621 101.02ZM41.1537 105.438L42.1397 105.737L41.1537 105.438ZM29.5941 112.889L29.94 113.86L29.5941 112.889ZM12.8223 114.576L12.8313 115.606C12.7415 115.607 12.6519 115.596 12.5649 115.574L12.8223 114.576ZM2.10162 111.778L1.57485 112.664C1.50422 112.621 1.43887 112.571 1.38019 112.514L2.10162 111.778ZM32.7932 84.5762L33.4996 83.8261C36.7448 86.8828 39.3753 91.5556 42.0512 100.731L41.0621 101.02L40.073 101.308C37.4355 92.2644 34.936 88.0099 32.0867 85.3262L32.7932 84.5762ZM41.0621 101.02L42.0512 100.731C42.7116 102.996 42.511 104.513 42.1397 105.737L41.1537 105.438L40.1678 105.139C40.4329 104.265 40.6121 103.157 40.073 101.308L41.0621 101.02ZM41.1537 105.438L42.1397 105.737C41.4124 108.134 39.3395 109.765 37.0977 110.964C34.8378 112.173 32.1587 113.069 29.94 113.86L29.5941 112.889L29.2481 111.919C31.54 111.102 34.0359 110.265 36.1257 109.147C38.2336 108.019 39.6853 106.728 40.1678 105.139L41.1537 105.438ZM29.5941 112.889L29.94 113.86C26.7356 115.002 23.0263 115.518 12.8313 115.606L12.8223 114.576L12.8133 113.546C23.0039 113.457 26.4015 112.933 29.2481 111.919L29.5941 112.889ZM12.8223 114.576L12.5649 115.574C9.63004 114.817 7.16611 114.24 5.3111 113.787C4.38899 113.562 3.60884 113.366 3.00521 113.194C2.44591 113.035 1.91047 112.863 1.57485 112.664L2.10162 111.778L2.62839 110.892C2.62823 110.892 2.64825 110.904 2.69878 110.926C2.7472 110.947 2.81216 110.972 2.89645 111.002C3.06596 111.062 3.28897 111.132 3.56985 111.212C4.13176 111.372 4.87778 111.561 5.79961 111.786C7.63248 112.233 10.1275 112.817 13.0798 113.579L12.8223 114.576ZM2.10162 111.778L1.38019 112.514C0.843662 111.987 0.618725 111.247 0.476101 110.821L1.45312 110.494L2.43015 110.167C2.61539 110.72 2.70868 110.93 2.82306 111.042L2.10162 111.778Z" fill="black"/>
<path d="M17.0405 96.8428L17.7109 97.6253C17.6748 97.6562 17.6366 97.6846 17.5966 97.7103L17.0405 96.8428ZM3.38844 105.798L3.99217 106.633C3.98671 106.637 3.98122 106.641 3.97569 106.645L3.38844 105.798ZM31.4531 84.5762L32.1085 85.3712C28.2822 88.5255 23.1218 92.99 17.7109 97.6253L17.0405 96.8428L16.3702 96.0604C21.7657 91.4382 26.9515 86.9519 30.7977 83.7811L31.4531 84.5762ZM17.0405 96.8428L17.5966 97.7103C12.2927 101.11 8.1558 103.623 3.99217 106.633L3.38844 105.798L2.78471 104.964C7.01045 101.908 11.2339 99.3413 16.4845 95.9754L17.0405 96.8428ZM3.38844 105.798L3.97569 106.645C2.29364 107.812 1.61021 108.153 0.909931 108.5L0.453125 107.576L-0.00368309 106.653C0.613539 106.347 1.20887 106.056 2.80119 104.952L3.38844 105.798Z" fill="black"/>
<path d="M47.1 99.786L48.111 99.5874V99.5874L47.1 99.786ZM44.3899 115.486L43.4681 115.026L44.3899 115.486ZM26.9023 121.484L27.0415 122.505C27.0163 122.508 26.991 122.511 26.9656 122.512L26.9023 121.484ZM4.11261 119.576L3.86161 120.575C3.83704 120.569 3.8127 120.562 3.78865 120.554L4.11261 119.576ZM38.9988 84.5762L39.5815 83.7264C41.8723 85.2974 43.7311 87.9376 45.1389 90.7825C46.5559 93.646 47.5678 96.8225 48.111 99.5874L47.1 99.786L46.0889 99.9846C45.5779 97.3831 44.6211 94.3823 43.292 91.6964C41.9536 88.9919 40.289 86.7103 38.416 85.4259L38.9988 84.5762ZM47.1 99.786L48.111 99.5874C48.8803 103.504 48.6864 109.188 45.3117 115.946L44.3899 115.486L43.4681 115.026C46.6398 108.674 46.7703 103.453 46.0889 99.9846L47.1 99.786ZM44.3899 115.486L45.3117 115.946C44.6885 117.195 43.5595 118.138 42.2439 118.868C40.9208 119.603 39.3213 120.172 37.6268 120.63C34.2423 121.544 30.292 122.062 27.0415 122.505L26.9023 121.484L26.7631 120.463C30.0542 120.014 33.8596 119.512 37.0894 118.64C38.7021 118.205 40.1243 117.688 41.2434 117.067C42.3698 116.441 43.1032 115.757 43.4681 115.026L44.3899 115.486ZM26.9023 121.484L26.9656 122.512C20.3823 122.918 9.39204 121.964 3.86161 120.575L4.11261 119.576L4.36361 118.576C9.66846 119.909 20.445 120.849 26.839 120.456L26.9023 121.484ZM4.11261 119.576L3.78865 120.554C3.03178 120.303 2.52433 120.134 1.03746 119.478L1.45312 118.535L1.86879 117.593C3.2893 118.219 3.73493 118.365 4.43657 118.598L4.11261 119.576Z" fill="black"/>
<path d="M41.5356 183.266L40.5115 183.38C40.5083 183.35 40.5063 183.321 40.5056 183.291L41.5356 183.266ZM42.3681 188.239L43.3802 188.046C43.3847 188.069 43.3883 188.093 43.3912 188.116L42.3681 188.239ZM40.4531 173.576L41.4561 173.34C42.138 176.238 42.4822 179.764 42.5657 183.241L41.5356 183.266L40.5056 183.291C40.4241 179.896 40.0882 176.524 39.4502 173.812L40.4531 173.576ZM41.5356 183.266L42.5597 183.153C42.8014 185.335 43.1241 186.702 43.3802 188.046L42.3681 188.239L41.356 188.432C41.1122 187.153 40.7648 185.666 40.5115 183.38L41.5356 183.266ZM42.3681 188.239L43.3912 188.116C43.4849 188.9 43.4835 189.766 43.4835 190.576L42.4531 190.576L41.4228 190.576C41.4228 189.735 41.4214 188.999 41.3451 188.361L42.3681 188.239Z" fill="black"/>
<path d="M30.6837 168.464L29.8838 167.815C29.9005 167.795 29.918 167.775 29.9362 167.755L30.6837 168.464ZM28.5476 175.505L27.5182 175.46C27.5187 175.448 27.5195 175.436 27.5204 175.424L28.5476 175.505ZM38.4531 174.161L37.4447 174.372C37.0622 172.549 36.7314 171.094 35.9212 170.141L36.7059 169.474L37.4906 168.806C38.7082 170.237 39.1107 172.277 39.4615 173.949L38.4531 174.161ZM36.7059 169.474L35.9212 170.141C35.1302 169.212 33.7642 168.708 32.8204 168.619L32.917 167.594L33.0136 166.568C34.3198 166.691 36.2538 167.352 37.4906 168.806L36.7059 169.474ZM32.917 167.594L32.8204 168.619C32.3979 168.58 32.1654 168.638 32.0126 168.707C31.8453 168.783 31.6776 168.914 31.4311 169.174L30.6837 168.464L29.9362 167.755C30.248 167.427 30.6345 167.069 31.1631 166.83C31.7061 166.584 32.3111 166.502 33.0136 166.568L32.917 167.594ZM30.6837 168.464L31.4836 169.114C30.5675 170.242 29.8458 172.156 29.5747 175.587L28.5476 175.505L27.5204 175.424C27.8049 171.823 28.5832 169.417 29.8838 167.815L30.6837 168.464ZM28.5476 175.505L29.5769 175.551C29.4837 177.679 29.4835 180.566 29.4835 183.576L28.4531 183.576L27.4228 183.576C27.4228 180.584 27.4226 177.645 27.5182 175.46L28.5476 175.505Z" fill="black"/>
<path d="M12.0641 161.743L12.6933 160.927C12.7666 160.983 12.832 161.05 12.8877 161.124L12.0641 161.743ZM6.96412 157.478L7.56253 156.639C7.588 156.657 7.61262 156.677 7.63633 156.697L6.96412 157.478ZM25.4531 181.576L24.7286 182.309C24.1445 181.731 23.2651 180.503 22.2638 179.016C21.2386 177.493 20.0174 175.593 18.7338 173.591C16.1536 169.565 13.328 165.139 11.2405 162.362L12.0641 161.743L12.8877 161.124C15.0332 163.978 17.9092 168.486 20.4687 172.478C21.755 174.485 22.9633 176.365 23.9732 177.865C25.0071 179.401 25.7688 180.439 26.1777 180.844L25.4531 181.576ZM12.0641 161.743L11.435 162.559C9.61579 161.156 7.77543 159.536 6.29192 158.259L6.96412 157.478L7.63633 156.697C9.14682 157.997 10.9305 159.568 12.6933 160.927L12.0641 161.743ZM6.96412 157.478L6.36572 158.317C5.84176 157.943 5.42235 157.783 4.28343 157.592L4.45312 156.576L4.62282 155.56C5.9079 155.774 6.67649 156.007 7.56253 156.639L6.96412 157.478Z" fill="black"/>
<path d="M44.4531 198.568L45.452 198.315C45.4873 198.455 45.493 198.6 45.4686 198.742L44.4531 198.568ZM41.0685 190.576L42.0047 190.146C42.5599 191.354 44.695 195.321 45.452 198.315L44.4531 198.568L43.4542 198.82C42.759 196.071 40.7956 192.45 40.1323 191.006L41.0685 190.576ZM44.4531 198.568L45.4686 198.742C45.3103 199.665 44.6863 200.428 43.9343 201.13L43.2316 200.376L42.5289 199.623C43.2107 198.987 43.3991 198.618 43.4376 198.393L44.4531 198.568ZM43.2316 200.376L43.9343 201.13C43.1659 201.846 42.0971 202.638 41.0675 203.403L40.4531 202.576L39.8387 201.749C40.9015 200.96 41.8634 200.243 42.5289 199.623L43.2316 200.376Z" fill="black"/>
<path d="M43.3552 199.561L44.3666 199.758C44.3551 199.817 44.3383 199.876 44.3165 199.932L43.3552 199.561ZM41.392 187.576L42.3268 187.143C43.1704 188.962 43.7757 191.574 44.1247 193.934C44.3009 195.126 44.4157 196.281 44.4613 197.274C44.5058 198.245 44.488 199.134 44.3666 199.758L43.3552 199.561L42.3438 199.365C42.4164 198.991 42.4457 198.305 42.4028 197.368C42.3609 196.454 42.2538 195.37 42.0862 194.236C41.7474 191.945 41.1772 189.562 40.4573 188.01L41.392 187.576ZM43.3552 199.561L44.3165 199.932C43.8562 201.125 42.967 202.235 42.0802 203.242L41.3068 202.561L40.5334 201.88C41.4159 200.878 42.0784 200.008 42.394 199.19L43.3552 199.561ZM41.3068 202.561L42.0802 203.242C41.1742 204.271 40.1845 205.281 39.1891 206.297L38.4531 205.576L37.7171 204.855C38.7202 203.831 39.6702 202.861 40.5334 201.88L41.3068 202.561Z" fill="black"/>
<path d="M53.0943 224.236L52.2347 224.804L53.0943 224.236ZM71.3061 264.259L70.3805 264.712C70.3727 264.696 70.3653 264.68 70.3583 264.663L71.3061 264.259ZM79.8796 281.164L78.9531 281.615C78.9428 281.594 78.9333 281.572 78.9245 281.551L79.8796 281.164ZM41.4531 205.576L42.3412 205.054C46.989 212.955 50.7379 218.802 53.9539 223.668L53.0943 224.236L52.2347 224.804C49.0036 219.915 45.2349 214.037 40.565 206.099L41.4531 205.576ZM53.0943 224.236L53.9539 223.668C55.9977 226.761 58.2315 231.273 61.6616 238.957L60.7208 239.377L59.7799 239.797C56.3454 232.103 54.1731 227.737 52.2347 224.804L53.0943 224.236ZM60.7208 239.377L61.6616 238.957C65.0979 246.655 69.5761 257.577 72.2538 263.855L71.3061 264.259L70.3583 264.663C67.6595 258.336 63.2084 247.477 59.7799 239.797L60.7208 239.377ZM71.3061 264.259L72.2316 263.806C74.6471 268.745 76.4389 272.106 77.8025 274.665C79.1593 277.211 80.1203 279.013 80.8347 280.778L79.8796 281.164L78.9245 281.551C78.2595 279.908 77.3572 278.211 75.9839 275.634C74.6173 273.07 72.8121 269.683 70.3805 264.712L71.3061 264.259ZM79.8796 281.164L80.8061 280.713C81.1485 281.417 81.6695 282.131 82.2832 282.966L81.4531 283.576L80.623 284.187C80.0368 283.389 79.3931 282.519 78.9531 281.615L79.8796 281.164Z" fill="black"/>
<path d="M84.4531 286.576L83.4228 286.576C83.4228 286.534 83.4211 286.576 83.4307 286.623C83.4389 286.663 83.4462 286.665 83.4195 286.609C83.3575 286.479 83.1962 286.203 82.789 285.631L83.6281 285.033L84.4673 284.435C84.8851 285.022 85.1363 285.421 85.2805 285.724C85.3569 285.885 85.4158 286.044 85.4498 286.211C85.4851 286.384 85.4835 286.522 85.4835 286.576L84.4531 286.576ZM83.6281 285.033L82.789 285.631C81.9803 284.496 80.3485 282.402 78.6404 280.209L79.4531 279.576L80.2659 278.943C81.9577 281.114 83.6259 283.255 84.4673 284.435L83.6281 285.033Z" fill="black"/>
<path d="M40.4179 266.901L39.4097 267.114L40.4179 266.901ZM34.9179 240.23L33.9458 240.572L34.9179 240.23ZM26.4131 225.062L25.4666 225.469L25.4622 225.459L26.4131 225.062ZM24.5808 220.622L25.5109 220.179C25.5192 220.197 25.527 220.214 25.5343 220.232L24.5808 220.622ZM44.4531 285.576L43.4228 285.576C43.4228 285.649 43.4327 285.684 43.4187 285.599C43.4095 285.543 43.3942 285.46 43.3717 285.346C43.327 285.119 43.2592 284.798 43.1682 284.378C42.9864 283.54 42.7179 282.336 42.3697 280.766C41.6739 277.631 40.6642 273.058 39.4097 267.114L40.4179 266.901L41.426 266.688C42.6784 272.622 43.6863 277.187 44.3814 280.32C44.7286 281.885 44.9989 283.097 45.1821 283.942C45.2736 284.364 45.3447 284.7 45.3934 284.947C45.4176 285.069 45.4376 285.176 45.452 285.264C45.4616 285.322 45.4835 285.453 45.4835 285.576L44.4531 285.576ZM40.4179 266.901L39.4097 267.114C38.2949 261.831 37.5155 256.839 36.7238 252.369C35.9277 247.874 35.1195 243.91 33.9458 240.572L34.9179 240.23L35.8899 239.888C37.1247 243.401 37.9563 247.512 38.7529 252.01C39.554 256.532 40.3204 261.449 41.426 266.688L40.4179 266.901ZM34.9179 240.23L33.9458 240.572C32.7075 237.049 31.0482 234.301 29.4694 231.931C27.9257 229.614 26.3436 227.508 25.4666 225.469L26.4131 225.062L27.3596 224.655C28.1384 226.465 29.5293 228.304 31.1843 230.788C32.8043 233.22 34.5694 236.132 35.8899 239.888L34.9179 240.23ZM26.4131 225.062L25.4622 225.459C24.7894 223.846 24.2037 222.421 23.6272 221.013L24.5808 220.622L25.5343 220.232C26.1099 221.638 26.6937 223.058 27.3641 224.665L26.4131 225.062ZM24.5808 220.622L23.6506 221.066C23.2747 220.277 22.7358 219.343 21.5398 217.053L22.4531 216.576L23.3664 216.099C24.5094 218.288 25.1168 219.352 25.5109 220.179L24.5808 220.622Z" fill="black"/>
<path d="M34.829 192.576C35.2228 190.411 35.6167 188.245 36.0165 187.418C36.4163 186.591 36.8101 187.169 37.0786 187.683C37.3471 188.197 37.4784 188.63 37.6117 188.564C38.1975 188.276 38.0115 186.46 37.9458 185.436C37.8503 183.946 38.1388 189.207 38.4093 191.115C38.7166 193.282 37.3511 185.445 36.094 182.306C35.8163 181.612 35.4973 181.21 35.1652 181.42C34.1088 182.088 34.0334 183.966 33.8365 184.625C33.3102 186.384 31.9171 181.21 31.2507 179.891C31.0227 179.44 30.8509 181.341 30.8509 181.783C30.8509 181.647 30.8509 180.781 30.7853 180.118C30.7197 179.456 30.5884 179.022 30.4531 178.576" stroke="white" stroke-width="4.12137" stroke-linecap="round"/>
<path d="M35.4531 198.442C32.6537 196.455 29.8543 194.468 28.6222 193.728C27.39 192.988 27.8099 193.556 28.2362 193.99C29.7964 195.58 31.9072 197.143 33.9622 198.508C34.3837 198.788 34.4606 199.293 34.2528 199.441C32.7397 200.522 27.1567 194.889 19.5729 190.285C14.5529 187.237 12.5659 184.834 10.7866 183.107C8.56775 180.954 5.20263 177.806 3.64811 176.869C2.80685 176.361 1.94938 175.793 1.45312 175.576C2.36505 176.791 4.19739 178.361 5.89187 180.079C6.60657 180.804 7.02648 181.23 7.03496 180.808" stroke="white" stroke-width="4.12137" stroke-linecap="round"/>
<path d="M33.4531 200.576C34.9254 200.906 36.1255 201.406 37.0155 202.071C37.4639 202.406 37.9055 202.736 38.2067 203.154C38.5078 203.571 38.655 204.066 37.9144 205.576" stroke="white" stroke-width="4.12137" stroke-linecap="round"/>
<path d="M63.7005 266.893C58.5446 255.13 57.1467 251.105 56.6571 249.802C55.9041 247.797 57.5569 254.242 60.1328 261.692C61.5951 265.922 63.4159 268.031 64.2529 269.47C64.4628 269.831 64.5375 269.203 64.3304 268.625C63.8886 267.394 60.2437 261.49 54.9496 251.312C48.1398 238.22 48.919 233.447 48.4963 231.633C48.3232 230.89 48.626 237.545 50.2268 245.65C51.9154 254.2 54.4851 256.827 55.4665 258.986C55.681 259.458 56.1591 259.706 56.2344 259.568C56.3097 259.43 56.0335 258.861 55.8222 258.284C55.6108 257.706 55.4727 257.138 55.3304 256.121" stroke="white" stroke-width="4.12137" stroke-linecap="round"/>
<path d="M50.4531 241.576C57.7462 252.489 61.7838 258.52 61.788 257.776C61.831 250.249 59.238 249.021 59.0956 248.742C58.1962 246.979 61.7668 254.225 63.6241 257.55C64.1692 258.526 65.1796 259.619 66.172 260.448C67.3855 261.461 64.3423 256.192 63.2777 254.396C62.8186 253.622 62.6381 252.741 62.4256 252.462C61.9266 251.807 62.9143 254.522 63.6942 255.145C63.9131 255.221 63.7728 254.812 63.6304 254.396C63.4881 253.981 63.3478 253.572 62.7783 253.15" stroke="white" stroke-width="4.12137" stroke-linecap="round"/>
<path d="M62.4531 256.576C61.5393 259.252 59.6839 264.663 59.2247 266.687C58.4562 268.849 57.5331 270.334 57.0716 271.342C56.9147 271.949 56.9147 272.75 56.4531 273.576" stroke="white" stroke-width="4.12137" stroke-linecap="round"/>
<path d="M55.3721 244.073C56.6147 244.89 59.9659 247.667 61.2273 248.428C62.5255 249.212 57.8907 246.704 55.8679 245.048C53.1321 242.809 48.268 241.176 46.2451 239.514C44.4531 238.041 42.5529 236.611 40.7351 235.017C39.9526 234.331 39.0595 233.839 38.5009 233.629C37.1634 233.127 40.7204 236.32 42.2601 238.049C42.4942 238.312 41.7162 238.537 41.2246 238.47C39.3398 237.3 37.8043 235.777 36.9006 235.086C36.4111 234.806 35.8589 234.669 34.4531 234.528" stroke="white" stroke-width="4.12137" stroke-linecap="round"/>
<path d="M61.0875 268.156C61.7505 269.54 62.4135 270.924 62.5561 271.015C65.4929 272.871 60.4205 264.532 58.751 262.292C57.2409 260.265 56.8042 258.932 56.4024 258.718C54.4373 257.671 56.6676 262.694 57.1337 265.071C57.514 267.01 58.4034 269.674 58.6103 276.451C58.6933 279.167 56.2738 280.455 55.197 282.546C54.7499 283.414 55.0604 285.044 54.9278 285.552C54.8225 285.955 54.2567 281.336 54.323 276.09C54.3439 274.443 54.5219 274.859 54.5902 276.25C54.6586 279.994 54.526 282.833 54.3251 283.67C54.2567 284.092 54.2567 284.507 53.4531 284.935" stroke="white" stroke-width="4.12137" stroke-linecap="round"/>
<path d="M32.5129 172.253L32.1598 171.286L32.5129 172.253ZM31.5882 178.803L30.5621 178.895L31.5882 178.803ZM38.2747 177.933L39.2041 177.488C39.223 177.527 39.2394 177.568 39.2531 177.61L38.2747 177.933ZM33.6493 171.653L33.796 170.633C33.8915 170.647 33.9846 170.674 34.0725 170.714L33.6493 171.653ZM34.9314 172.029L34.9314 173.06C34.4726 173.06 34.0579 173.06 33.684 173.085C33.303 173.111 33.0375 173.159 32.8659 173.221L32.5129 172.253L32.1598 171.286C32.6031 171.124 33.096 171.06 33.5451 171.029C34.0013 170.998 34.4884 170.999 34.9314 170.999L34.9314 172.029ZM32.5129 172.253L32.8659 173.221C32.985 173.178 32.9329 173.123 32.8218 173.381C32.7177 173.623 32.6228 174.007 32.5606 174.547C32.4372 175.618 32.4666 177.077 32.6144 178.71L31.5882 178.803L30.5621 178.895C30.4092 177.207 30.3666 175.586 30.5135 174.311C30.5865 173.677 30.7123 173.071 30.9287 172.567C31.1382 172.08 31.5063 171.524 32.1598 171.286L32.5129 172.253ZM31.5882 178.803L32.6144 178.71C32.6337 178.923 32.6764 179.035 32.7058 179.091C32.7308 179.138 32.7593 179.169 32.8079 179.202C32.9484 179.296 33.2253 179.384 33.8316 179.461L33.7017 180.483L33.5717 181.505C32.9665 181.429 32.2436 181.305 31.6588 180.912C30.9833 180.459 30.6404 179.761 30.5621 178.895L31.5882 178.803ZM33.7017 180.483L33.8316 179.461C34.382 179.531 35.0745 179.567 35.7271 179.533C36.4091 179.498 36.9238 179.393 37.1982 179.261L37.6461 180.189L38.094 181.117C37.4392 181.433 36.5875 181.552 35.8325 181.591C35.048 181.631 34.2328 181.59 33.5717 181.505L33.7017 180.483ZM37.6461 180.189L37.1982 179.261C37.3066 179.209 37.3496 179.163 37.3663 179.141C37.3827 179.12 37.3996 179.09 37.4111 179.033C37.439 178.892 37.4232 178.64 37.2962 178.256L38.2747 177.933L39.2531 177.61C39.4267 178.136 39.5612 178.787 39.432 179.435C39.2891 180.152 38.8444 180.755 38.094 181.117L37.6461 180.189ZM38.2747 177.933L37.3452 178.377C36.5668 176.75 35.9986 175.513 35.357 174.539C34.7391 173.602 34.0996 172.986 33.226 172.593L33.6493 171.653L34.0725 170.714C35.4012 171.312 36.3137 172.246 37.0776 173.405C37.8178 174.528 38.4612 175.935 39.2041 177.488L38.2747 177.933ZM33.6493 171.653L33.5025 172.673C33.049 172.608 32.666 172.607 32.1986 172.607L32.1986 171.576L32.1986 170.546C32.6604 170.546 33.1792 170.545 33.796 170.633L33.6493 171.653Z" fill="black"/>
<path d="M5.45312 173.576L4.6369 174.205C3.75478 173.06 2.88123 171.926 2.21499 171.093L3.01979 170.449L3.82459 169.806C4.50502 170.657 5.39147 171.808 6.26935 172.947L5.45312 173.576ZM3.01979 170.449L2.21499 171.093C1.55461 170.266 1.12525 169.771 0.674506 169.251L1.45312 168.576L2.23174 167.901C2.68767 168.427 3.13831 168.947 3.82459 169.806L3.01979 170.449Z" fill="black"/>
<path d="M15.4531 177.576L15.4531 178.607C14.8356 178.607 14.3693 178.611 13.7281 178.864L13.3493 177.906L12.9704 176.948C13.9985 176.542 14.8014 176.546 15.4531 176.546L15.4531 177.576ZM13.3493 177.906L13.7281 178.864C13.0117 179.148 12.0948 179.738 11.0147 180.44L10.4531 179.576L9.8916 178.712C10.9037 178.054 12.0176 177.325 12.9704 176.948L13.3493 177.906Z" fill="black"/>
<path d="M6.45312 183.576L7.43059 183.902L6.43059 186.902L5.45313 186.576L4.47566 186.25L5.47566 183.25L6.45312 183.576Z" fill="black"/>
<path d="M4.45312 191.576L5.22321 192.261C5.19383 192.294 5.18895 192.3 5.18531 192.304C5.1847 192.305 5.18198 192.309 5.17537 192.32C5.15882 192.349 5.11466 192.435 5.04331 192.648L4.06646 192.321L3.08961 191.993C3.18492 191.709 3.27909 191.485 3.38672 191.297C3.50377 191.092 3.61743 190.965 3.68304 190.892L4.45312 191.576ZM4.06646 192.321L5.04331 192.648C4.89216 193.099 4.68356 193.917 4.45177 194.83L3.45313 194.576L2.45449 194.323C2.67602 193.45 2.90742 192.536 3.08961 191.993L4.06646 192.321Z" fill="black"/>
<path d="M2.45313 187.576L1.53156 188.037L0.531558 186.037L1.45312 185.576L2.37469 185.115L3.37469 187.115L2.45313 187.576Z" fill="black"/>
<path d="M37.4531 187.576L37.243 188.585C36.4623 188.422 35.6336 188.25 34.9886 188.072L35.2631 187.079L35.5376 186.086C36.1047 186.242 36.8599 186.4 37.6633 186.567L37.4531 187.576ZM35.2631 187.079L34.9886 188.072C34.265 187.872 34.0197 187.748 33.241 187.584L33.4531 186.576L33.6653 185.568C34.5026 185.744 35.0492 185.951 35.5376 186.086L35.2631 187.079Z" fill="black"/>
<path d="M34.4531 204.576L34.4531 205.607C34.4408 205.607 34.5189 205.607 34.6036 205.584C34.6589 205.568 34.6656 205.556 34.5908 205.598C34.4349 205.686 34.1149 205.897 33.4551 206.391L32.8376 205.566L32.22 204.741C32.8825 204.245 33.2969 203.962 33.5815 203.802C33.727 203.72 33.8805 203.646 34.046 203.6C34.2407 203.545 34.3921 203.546 34.4531 203.546L34.4531 204.576ZM32.8376 205.566L33.4551 206.391C32.1479 207.37 29.6698 209.337 27.0939 211.383L26.4531 210.576L25.8124 209.769C28.3743 207.735 30.8828 205.743 32.22 204.741L32.8376 205.566Z" fill="black"/>
<path d="M21.4531 195.576L20.4228 195.576C20.4228 195.499 20.4299 195.473 20.3765 195.319C20.3031 195.107 20.1318 194.723 19.7268 193.992L20.6281 193.493L21.5294 192.993C21.9494 193.752 22.1906 194.261 22.3235 194.644C22.4763 195.085 22.4835 195.357 22.4835 195.576L21.4531 195.576ZM20.6281 193.493L19.7268 193.992C18.9168 192.529 17.2839 189.884 15.5764 187.117L16.4531 186.576L17.3299 186.035C19.0224 188.777 20.6895 191.477 21.5294 192.993L20.6281 193.493Z" fill="black"/>
<path d="M15.4531 200.576L14.5265 201.027C14.2674 200.494 14.0159 199.961 12.9023 198.526L13.7162 197.894L14.5302 197.262C15.7354 198.815 16.0613 199.471 16.3798 200.126L15.4531 200.576ZM13.7162 197.894L12.9023 198.526C11.7608 197.055 9.75862 194.701 7.66834 192.244L8.45312 191.576L9.23791 190.909C11.3126 193.347 13.353 195.745 14.5302 197.262L13.7162 197.894Z" fill="black"/>
<path d="M10.4531 205.576L9.93714 206.468C9.21305 206.049 8.42637 205.595 7.69864 205.052L8.31535 204.226L8.93205 203.401C9.54654 203.86 10.2265 204.255 10.9691 204.684L10.4531 205.576ZM8.31535 204.226L7.69864 205.052C6.96723 204.505 6.33513 203.894 5.73793 203.318L6.45312 202.576L7.16832 201.834C7.78001 202.424 8.32124 202.944 8.93205 203.401L8.31535 204.226Z" fill="black"/>
<path d="M32.4531 177.642L31.758 178.402C31.5241 178.188 31.4016 177.879 31.4258 177.563C31.45 177.247 31.6183 176.96 31.882 176.784L32.4531 177.642ZM35.6254 178.065L35.6254 179.096C35.3027 179.096 34.5391 179.05 33.8308 178.974C33.4736 178.935 33.1043 178.887 32.7953 178.827C32.6425 178.798 32.4827 178.762 32.3374 178.716C32.2407 178.685 31.9756 178.601 31.758 178.402L32.4531 177.642L33.1483 176.881C33.0004 176.746 32.87 176.723 32.9574 176.751C32.9963 176.763 33.0701 176.782 33.1855 176.804C33.4128 176.848 33.7175 176.889 34.0506 176.925C34.7231 176.997 35.4059 177.035 35.6254 177.035L35.6254 178.065ZM32.4531 177.642L31.882 176.784C32.0448 176.676 32.2047 176.632 32.2753 176.614C32.3649 176.591 32.4516 176.578 32.524 176.57C32.6699 176.552 32.8302 176.546 32.9855 176.546C33.2993 176.545 33.6727 176.57 34.029 176.618L33.8913 177.639L33.7536 178.66C33.4849 178.624 33.2044 178.606 32.988 178.607C32.8782 178.607 32.8043 178.611 32.7659 178.616C32.7462 178.618 32.7533 178.619 32.7781 178.612C32.784 178.611 32.8941 178.586 33.0242 178.499L32.4531 177.642ZM33.8913 177.639L34.029 176.618C34.8188 176.724 35.4833 176.951 36.9081 177.652L36.4531 178.576L35.9982 179.501C34.6418 178.833 34.2137 178.722 33.7536 178.66L33.8913 177.639Z" fill="black"/>
<path d="M19.4827 213.638L20.3346 213.059V213.059L19.4827 213.638ZM11.8319 208.039L11.1616 208.821V208.821L11.8319 208.039ZM7.73872 202.613L6.87092 203.168L7.73872 202.613ZM3.16855 195.352L4.05059 194.82L3.16855 195.352ZM1.42278 193.576C1.42278 193.007 1.88408 192.546 2.45313 192.546C3.02217 192.546 3.48347 193.007 3.48347 193.576L2.45313 193.576L1.42278 193.576ZM2.86601 195.736L3.86322 195.477C3.86621 195.489 3.869 195.5 3.8716 195.512L2.86601 195.736ZM23.4531 217.576L22.9379 218.468C21.5896 217.69 19.8244 215.972 18.6308 214.218L19.4827 213.638L20.3346 213.059C21.4012 214.627 22.9533 216.098 23.9683 216.684L23.4531 217.576ZM19.4827 213.638L18.6308 214.218C18.5238 214.06 18.2399 213.789 17.6999 213.391C17.1864 213.012 16.541 212.589 15.8061 212.113C14.3638 211.178 12.6007 210.054 11.1616 208.821L11.8319 208.039L12.5023 207.256C13.8145 208.381 15.4468 209.424 16.9269 210.384C17.6533 210.855 18.351 211.311 18.9227 211.732C19.468 212.134 20.0116 212.584 20.3346 213.059L19.4827 213.638ZM11.8319 208.039L11.1616 208.821C9.34592 207.266 8.06522 205.034 6.87092 203.168L7.73872 202.613L8.60652 202.057C9.89663 204.073 10.9801 205.952 12.5023 207.256L11.8319 208.039ZM7.73872 202.613L6.87092 203.168C4.87773 200.054 3.36596 197.673 2.28651 195.885L3.16855 195.352L4.05059 194.82C5.11385 196.581 6.61112 198.94 8.60652 202.057L7.73872 202.613ZM3.16855 195.352L2.28651 195.885C2.03517 195.469 1.82929 195.06 1.68291 194.692C1.5487 194.354 1.42278 193.95 1.42278 193.576L2.45313 193.576L3.48347 193.576C3.48347 193.547 3.48791 193.654 3.59773 193.93C3.69538 194.176 3.84722 194.483 4.05059 194.82L3.16855 195.352ZM2.45313 193.576L3.48347 193.576C3.48347 193.762 3.56558 194.332 3.86322 195.477L2.86601 195.736L1.86879 195.996C1.57559 194.867 1.42278 194.059 1.42278 193.576L2.45313 193.576ZM2.86601 195.736L3.8716 195.512C4.05421 196.33 4.29287 197.595 4.53339 198.869L3.52092 199.061L2.50845 199.252C2.2649 197.961 2.03373 196.737 1.86042 195.961L2.86601 195.736Z" fill="black"/>
<path d="M7.45313 158.576L6.42278 158.576C6.42278 158.525 6.41949 158.591 6.43695 158.67C6.44657 158.714 6.4607 158.757 6.47897 158.798C6.49684 158.838 6.5153 158.868 6.52923 158.888C6.55458 158.924 6.56231 158.923 6.51564 158.883C6.4701 158.844 6.38934 158.783 6.25391 158.694L6.8167 157.831L7.37948 156.968C7.72307 157.192 8.02079 157.425 8.21791 157.707C8.32973 157.867 8.40825 158.04 8.44941 158.227C8.48676 158.396 8.48347 158.544 8.48347 158.576L7.45313 158.576ZM6.8167 157.831L6.25391 158.694C5.63599 158.291 4.48222 157.701 3.52135 157.142L4.03955 156.251L4.55776 155.361C5.33261 155.812 6.72455 156.541 7.37948 156.968L6.8167 157.831ZM4.03955 156.251L3.52135 157.142C2.62801 156.622 2.12785 156.242 0.892204 155.44L1.45312 154.576L2.01405 153.712C3.36697 154.59 3.71539 154.87 4.55776 155.361L4.03955 156.251Z" fill="black"/>
<path d="M4.47573 166.57L4.55919 165.543L4.47573 166.57ZM6.45312 162.612L7.42417 162.268C7.47192 162.402 7.49117 162.545 7.48069 162.688L6.45312 162.612ZM4.02704 159.86L3.37035 160.654C3.3595 160.645 3.34884 160.636 3.33837 160.626L4.02704 159.86ZM2.45313 165.83L2.9696 164.939C3.43586 165.209 3.94893 165.493 4.55919 165.543L4.47573 166.57L4.39228 167.597C3.26689 167.505 2.38865 166.983 1.93665 166.722L2.45313 165.83ZM4.47573 166.57L4.55919 165.543C4.78724 165.561 4.86527 165.5 4.92759 165.433C5.03332 165.32 5.15221 165.095 5.24333 164.716C5.43756 163.91 5.38259 163.121 5.42556 162.537L6.45312 162.612L7.48069 162.688C7.46453 162.907 7.49122 164.184 7.24671 165.199C7.11847 165.731 6.88789 166.355 6.4314 166.842C5.93152 167.376 5.23458 167.665 4.39228 167.597L4.47573 166.57ZM6.45312 162.612L5.48208 162.957C5.40646 162.744 5.20908 162.426 4.82576 162.004C4.45334 161.593 3.9597 161.141 3.37035 160.654L4.02704 159.86L4.68373 159.066C5.31003 159.584 5.88683 160.106 6.35223 160.619C6.80674 161.121 7.21458 161.677 7.42417 162.268L6.45312 162.612ZM4.02704 159.86L3.33837 160.626C2.75883 160.105 2.37796 159.663 2.02096 159.249L2.80095 158.576L3.58094 157.903C3.93351 158.311 4.24133 158.667 4.71571 159.093L4.02704 159.86Z" fill="black"/>
<path d="M6.67543 174.555L7.38254 173.806C7.39793 173.82 7.41287 173.835 7.42734 173.851L6.67543 174.555ZM4.45312 172.576L5.11273 171.785C5.42632 172.046 6.20998 172.699 7.38254 173.806L6.67543 174.555L5.96833 175.304C4.83781 174.238 4.08916 173.614 3.79352 173.368L4.45312 172.576ZM6.67543 174.555L7.42734 173.851C7.71284 174.155 8.00017 174.502 8.23042 174.765C8.47819 175.047 8.70571 175.289 8.95333 175.497L8.29082 176.286L7.62831 177.075C7.25977 176.765 6.95075 176.431 6.68044 176.122C6.39262 175.794 6.18033 175.534 5.92353 175.259L6.67543 174.555ZM8.29082 176.286L8.95333 175.497C9.45939 175.922 10.1051 176.25 10.9139 176.655L10.4531 177.576L9.99234 178.498C9.23194 178.118 8.35455 177.685 7.62831 177.075L8.29082 176.286Z" fill="black"/>
<path d="M3.61356 174.069L4.36036 173.359C4.39871 173.399 4.43373 173.443 4.46507 173.489L3.61356 174.069ZM6.865 176.904L6.4089 177.828C6.39316 177.82 6.37761 177.812 6.36229 177.803L6.865 176.904ZM2.53518 172.576L2.53518 173.607C2.61082 173.607 2.97504 173.596 3.25593 173.26C3.54942 172.909 3.48273 172.531 3.46054 172.435C3.44557 172.371 3.427 172.326 3.41776 172.305C3.40778 172.282 3.40052 172.27 3.40023 172.269C3.39958 172.268 3.40244 172.273 3.4105 172.285C3.41838 172.297 3.42964 172.313 3.44504 172.334C3.5869 172.525 3.88109 172.855 4.36036 173.359L3.61356 174.069L2.86677 174.779C2.39787 174.285 2.01858 173.869 1.79114 173.563C1.70651 173.449 1.52254 173.199 1.45353 172.903C1.4169 172.745 1.35571 172.32 1.6751 171.938C1.98189 171.572 2.39239 171.546 2.53518 171.546L2.53518 172.576ZM3.61356 174.069L4.46507 173.489C5.04231 174.336 5.99716 175.238 7.36771 176.004L6.865 176.904L6.36229 177.803C4.75405 176.904 3.54399 175.797 2.76206 174.649L3.61356 174.069ZM6.865 176.904L7.3211 175.98C7.86795 176.25 8.28331 176.392 9.58025 176.554L9.45313 177.576L9.326 178.599C7.88832 178.42 7.22936 178.233 6.4089 177.828L6.865 176.904Z" fill="black"/>
<path d="M3.32031 183.347L4.30777 183.053C4.31155 183.066 4.31509 183.079 4.31838 183.091L3.32031 183.347ZM2.45313 181.576L3.17436 180.84C3.66837 181.325 4.03236 182.129 4.30777 183.053L3.32031 183.347L2.33284 183.641C2.21285 183.239 2.09068 182.927 1.97675 182.697C1.85885 182.459 1.76909 182.348 1.73189 182.312L2.45313 181.576ZM3.32031 183.347L4.31838 183.091C4.43316 183.539 4.58589 184.23 4.38607 184.901L3.39852 184.607L2.41097 184.313C2.43334 184.238 2.43643 184.049 2.32223 183.603L3.32031 183.347ZM3.39852 184.607L4.38607 184.901C4.16021 185.66 3.57369 186.127 2.95987 186.473L2.45313 185.576L1.94639 184.679C2.1677 184.554 2.28728 184.46 2.35116 184.395C2.40567 184.34 2.41022 184.316 2.41097 184.313L3.39852 184.607Z" fill="black"/>
</g>
<rect x="0.5" y="0.5" width="287" height="160.91" transform="matrix(4.37114e-08 1 1 -4.37114e-08 2.18557e-08 -2.18557e-08)" stroke="black"/>
<defs>
<clipPath id="clip0_291_23950">
<rect width="288" height="161.91" transform="matrix(4.37114e-08 1 1 -4.37114e-08 0 0)" fill="white"/>
</clipPath>
</defs>
</svg>
