<svg width="161" height="287" viewBox="0 0 161 287" fill="none" xmlns="http://www.w3.org/2000/svg">
<g clip-path="url(#clip0_291_23576)">
<rect width="287" height="161" transform="matrix(4.37114e-08 1 1 -4.37114e-08 0 7.03753e-06)" fill="white"/>
<path d="M148.708 18.5505L147.694 18.3673L148.708 18.5505ZM147.1 30.2165L146.098 29.9769L147.1 30.2165ZM142.411 43.6721L143.346 44.1051L142.411 43.6721ZM139.191 62.7403L140.212 62.8735L139.191 62.7403ZM135.232 82.0631L134.238 81.7906L135.232 82.0631ZM133.837 90.9272L134.864 91.0044L133.837 90.9272ZM130.912 99.4192L131.84 99.867C131.829 99.8908 131.816 99.9142 131.803 99.9371L130.912 99.4192ZM128.421 104.002L129.293 104.55C129.254 104.613 129.208 104.671 129.157 104.723L128.421 104.002ZM155 4.85352L155.813 5.48689C152.714 9.46255 150.568 14.0506 149.722 18.7337L148.708 18.5505L147.694 18.3673C148.605 13.3226 150.906 8.43081 154.187 4.22016L155 4.85352ZM148.708 18.5505L149.722 18.7337C149.376 20.6483 149.233 22.4441 149.045 24.3604C148.858 26.2635 148.628 28.2535 148.102 30.4561L147.1 30.2165L146.098 29.9769C146.59 27.9157 146.809 26.0395 146.994 24.159C147.178 22.2916 147.329 20.3863 147.694 18.3673L148.708 18.5505ZM147.1 30.2165L148.102 30.4561C146.547 36.9576 144.384 41.8642 143.346 44.1051L142.411 43.6721L141.476 43.2391C142.486 41.059 144.588 36.2913 146.098 29.9769L147.1 30.2165ZM142.411 43.6721L143.346 44.1051C143.182 44.4596 142.975 45.155 142.736 46.238C142.502 47.2966 142.254 48.6532 141.989 50.2803C141.459 53.5335 140.871 57.8205 140.212 62.8735L139.191 62.7403L138.169 62.607C138.828 57.5534 139.419 53.2377 139.955 49.9491C140.222 48.3054 140.478 46.9063 140.723 45.7942C140.963 44.7064 141.209 43.8159 141.476 43.2391L142.411 43.6721ZM139.191 62.7403L140.212 62.8735C138.977 72.3431 137.403 78.0414 136.225 82.3357L135.232 82.0631L134.238 81.7906C135.406 77.5309 136.952 71.9381 138.169 62.607L139.191 62.7403ZM135.232 82.0631L136.225 82.3357C135.358 85.4964 135.084 88.0757 134.864 91.0044L133.837 90.9272L132.809 90.85C133.033 87.8737 133.319 85.1408 134.238 81.7906L135.232 82.0631ZM133.837 90.9272L134.864 91.0044C134.575 94.8471 133.192 97.0663 131.84 99.867L130.912 99.4192L129.984 98.9714C131.41 96.0178 132.557 94.2102 132.809 90.85L133.837 90.9272ZM130.912 99.4192L131.803 99.9371C131.192 100.989 130.705 101.914 130.304 102.686C129.914 103.437 129.577 104.099 129.293 104.55L128.421 104.002L127.549 103.453C127.775 103.094 128.059 102.538 128.476 101.736C128.881 100.957 129.385 99.9961 130.022 98.9013L130.912 99.4192ZM128.421 104.002L129.157 104.723C128.896 104.99 128.568 105.216 128.226 105.46C127.859 105.723 127.362 106.08 126.646 106.656L126 105.854L125.354 105.051C126.114 104.44 126.646 104.057 127.028 103.784C127.437 103.492 127.582 103.386 127.685 103.281L128.421 104.002Z" fill="black"/>
<path d="M122.778 117.882L123.706 118.331L122.778 117.882ZM122.257 118.118L121.231 118.021L122.257 118.118ZM126.904 107.531L126.067 106.93C126.077 106.917 126.086 106.904 126.096 106.891L126.904 107.531ZM126.321 106.854L127.327 107.076C126.734 109.753 124.94 115.775 123.706 118.331L122.778 117.882L121.85 117.434C122.984 115.088 124.737 109.243 125.315 106.631L126.321 106.854ZM122.778 117.882L123.706 118.331C123.628 118.491 123.539 118.657 123.445 118.804C123.371 118.92 123.228 119.133 123.024 119.291C122.938 119.357 122.661 119.559 122.258 119.534C121.734 119.501 121.448 119.134 121.338 118.898C121.243 118.693 121.225 118.496 121.22 118.391C121.214 118.267 121.22 118.141 121.231 118.021L122.257 118.118L123.283 118.215C123.277 118.277 123.279 118.296 123.278 118.286C123.278 118.28 123.276 118.255 123.269 118.218C123.262 118.183 123.246 118.114 123.207 118.03C123.123 117.848 122.871 117.508 122.388 117.477C122.026 117.454 121.796 117.635 121.764 117.66C121.666 117.736 121.649 117.788 121.708 117.696C121.747 117.634 121.797 117.544 121.85 117.434L122.778 117.882ZM122.257 118.118L121.231 118.021C121.795 112.064 124.772 108.733 126.067 106.93L126.904 107.531L127.741 108.132C126.371 110.04 123.784 112.913 123.283 118.215L122.257 118.118ZM126.904 107.531L126.096 106.891C126.12 106.862 126.148 106.827 126.178 106.793C126.195 106.773 126.26 106.698 126.35 106.628C126.376 106.607 126.523 106.489 126.749 106.433C126.878 106.402 127.105 106.373 127.362 106.471C127.641 106.576 127.819 106.778 127.915 106.964C128.065 107.255 128.027 107.525 128.024 107.554C128.016 107.636 127.999 107.702 127.991 107.733C127.961 107.84 127.913 107.954 127.888 108.013C127.853 108.094 127.808 108.195 127.756 108.311C127.546 108.778 127.166 109.612 126.62 110.923L125.669 110.527L124.718 110.131C125.276 108.79 125.667 107.932 125.876 107.467C125.929 107.35 125.966 107.266 125.992 107.205C126.027 107.123 126.016 107.14 126.002 107.192C125.997 107.209 125.983 107.264 125.975 107.337C125.973 107.357 125.935 107.621 126.083 107.908C126.178 108.093 126.355 108.293 126.632 108.398C126.887 108.495 127.112 108.466 127.239 108.435C127.46 108.381 127.601 108.266 127.619 108.251C127.665 108.216 127.695 108.185 127.705 108.175C127.718 108.162 127.726 108.153 127.728 108.151C127.731 108.148 127.726 108.152 127.711 108.171L126.904 107.531ZM125.669 110.527L126.62 110.923C125.525 113.553 123.776 118.081 121.972 123.196L121 122.854L120.028 122.511C121.842 117.368 123.605 112.803 124.718 110.131L125.669 110.527Z" fill="black"/>
<path d="M152.495 124.625L153.322 125.24C153.316 125.247 153.311 125.254 153.306 125.261L152.495 124.625ZM159 116.854L159.612 117.682C159.145 118.027 158.343 118.866 157.23 120.204C156.142 121.515 154.818 123.226 153.322 125.24L152.495 124.625L151.668 124.011C153.174 121.984 154.523 120.238 155.645 118.887C156.744 117.565 157.693 116.538 158.388 116.025L159 116.854ZM152.495 124.625L153.306 125.261C152.016 126.908 151.249 127.667 150.68 128.296L149.916 127.605L149.152 126.913C149.767 126.234 150.452 125.562 151.683 123.99L152.495 124.625ZM149.916 127.605L150.68 128.296C150.078 128.962 149.732 129.432 148.778 130.529L148 129.854L147.222 129.178C148.046 128.23 148.571 127.556 149.152 126.913L149.916 127.605Z" fill="black"/>
<path d="M149.896 134.379L149.227 135.163L149.896 134.379ZM155.031 133.741L155.528 134.644C155.489 134.665 155.45 134.683 155.409 134.699L155.031 133.741ZM157.467 131.586L156.664 130.94C156.683 130.917 156.703 130.894 156.724 130.872L157.467 131.586ZM149 129.854L150.03 129.854C150.03 130.988 150.066 131.883 150.18 132.557C150.299 133.262 150.471 133.516 150.565 133.596L149.896 134.379L149.227 135.163C148.562 134.596 148.287 133.726 148.148 132.899C148.003 132.042 147.97 130.997 147.97 129.854L149 129.854ZM149.896 134.379L150.565 133.596C150.837 133.828 151.316 133.914 152.172 133.703C153.018 133.495 153.837 133.104 154.654 132.782L155.031 133.741L155.409 134.699C154.769 134.952 153.69 135.451 152.666 135.704C151.653 135.954 150.293 136.073 149.227 135.163L149.896 134.379ZM155.031 133.741L154.535 132.838C155.413 132.355 156.013 131.749 156.664 130.94L157.467 131.586L158.27 132.231C157.537 133.144 156.737 133.979 155.528 134.644L155.031 133.741ZM157.467 131.586L156.724 130.872C157.203 130.373 157.818 129.898 158.368 129.471L159 130.285L159.632 131.099C159.049 131.552 158.564 131.931 158.21 132.3L157.467 131.586Z" fill="black"/>
<path d="M155 125.854L155.792 126.513L150.792 132.513L150 131.854L149.208 131.194L154.208 125.194L155 125.854Z" fill="black"/>
<path d="M157.303 126.879L157.635 125.904C157.784 125.954 157.92 126.039 158.032 126.151L157.303 126.879ZM152 129.14L151.449 128.27C152.331 127.712 153.526 127.065 154.6 126.583C155.135 126.343 155.666 126.132 156.126 125.996C156.355 125.928 156.592 125.871 156.817 125.843C157.017 125.818 157.326 125.799 157.635 125.904L157.303 126.879L156.971 127.855C157.107 127.901 157.173 127.875 157.073 127.888C156.999 127.897 156.88 127.922 156.711 127.972C156.375 128.071 155.938 128.241 155.444 128.463C154.459 128.905 153.349 129.506 152.551 130.011L152 129.14ZM157.303 126.879L158.032 126.151C158.382 126.501 158.485 126.945 158.531 127.19C158.557 127.328 158.575 127.468 158.589 127.582C158.605 127.705 158.616 127.803 158.632 127.901L157.615 128.063L156.597 128.225C156.575 128.085 156.558 127.945 156.545 127.838C156.53 127.721 156.519 127.639 156.506 127.571C156.493 127.502 156.484 127.48 156.485 127.483C156.488 127.489 156.511 127.544 156.575 127.608L157.303 126.879ZM157.615 128.063L158.632 127.901C158.663 128.094 158.71 128.29 158.779 128.584C158.847 128.869 158.93 129.218 159.013 129.665L158 129.854L156.987 130.042C156.914 129.648 156.841 129.34 156.775 129.06C156.71 128.789 156.643 128.511 156.597 128.225L157.615 128.063Z" fill="black"/>
<path d="M145.292 131.564L144.773 130.674L145.292 131.564ZM134.755 133.385L134.542 132.377L134.755 133.385ZM127.895 133.757L127.808 134.783C127.709 134.775 127.612 134.753 127.52 134.716L127.895 133.757ZM123.892 130.921L123.152 131.638C123.144 131.63 123.136 131.621 123.128 131.613L123.892 130.921ZM155 120.854L155.79 121.515C155.164 122.263 154.413 123.204 153.585 124.236C152.76 125.263 151.866 126.372 150.966 127.436C150.067 128.499 149.154 129.529 148.291 130.396C147.441 131.25 146.588 132 145.812 132.453L145.292 131.564L144.773 130.674C145.311 130.36 146.011 129.766 146.83 128.943C147.637 128.132 148.51 127.149 149.392 126.106C150.273 125.064 151.154 123.973 151.977 122.947C152.797 121.926 153.566 120.961 154.21 120.192L155 120.854ZM145.292 131.564L145.812 132.453C144.57 133.179 143.076 133.35 141.42 133.509C139.711 133.672 137.645 133.827 134.968 134.393L134.755 133.385L134.542 132.377C137.355 131.782 139.543 131.618 141.223 131.457C142.956 131.292 143.986 131.133 144.773 130.674L145.292 131.564ZM134.755 133.385L134.968 134.393C132.821 134.847 130.461 135.008 127.808 134.783L127.895 133.757L127.982 132.73C130.446 132.938 132.603 132.787 134.542 132.377L134.755 133.385ZM127.895 133.757L127.52 134.716C125.66 133.99 124.328 132.85 123.152 131.638L123.892 130.921L124.632 130.203C125.712 131.318 126.802 132.224 128.269 132.797L127.895 133.757ZM123.892 130.921L123.128 131.613C122.542 130.965 122.058 130.333 121.125 128.832L122 128.288L122.875 127.744C123.769 129.182 124.18 129.704 124.655 130.229L123.892 130.921Z" fill="black"/>
<path d="M122.036 81.518L122.136 82.5435L122.036 81.518ZM116.677 87.7357L116.004 86.9561V86.9561L116.677 87.7357ZM107.363 92.4024L106.77 91.5597L107.363 92.4024ZM100.984 100.398L100.146 99.7982V99.7982L100.984 100.398ZM97.0921 107.509L96.1062 107.21L97.0921 107.509ZM95.0374 118.465L94.0084 118.413C94.0093 118.395 94.0107 118.377 94.0125 118.359L95.0374 118.465ZM135 80.8535L135.05 81.8827C128.914 82.1778 124.375 82.3267 122.136 82.5435L122.036 81.518L121.937 80.4924C124.242 80.2692 128.89 80.1159 134.95 79.8244L135 80.8535ZM122.036 81.518L122.136 82.5435C121.914 82.565 121.675 82.6756 121.37 82.9915C121.05 83.323 120.734 83.7998 120.356 84.4287C119.647 85.6106 118.755 87.3024 117.351 88.5154L116.677 87.7357L116.004 86.9561C117.092 86.0157 117.788 84.7043 118.589 83.3685C118.967 82.7386 119.387 82.0779 119.887 81.5601C120.402 81.0269 121.068 80.5766 121.937 80.4924L122.036 81.518ZM116.677 87.7357L117.351 88.5154C116.829 88.9662 116.134 89.344 115.413 89.6825C114.682 90.0255 113.837 90.367 112.986 90.7168C111.249 91.4314 109.435 92.2043 107.956 93.2451L107.363 92.4024L106.77 91.5597C108.465 90.3672 110.487 89.5165 112.203 88.811C113.078 88.4508 113.864 88.1331 114.537 87.817C115.221 87.4964 115.704 87.2151 116.004 86.9561L116.677 87.7357ZM107.363 92.4024L107.956 93.2451C106.802 94.0571 105.765 95.2758 104.752 96.687C104.249 97.3876 103.765 98.1168 103.279 98.8504C102.797 99.578 102.311 100.313 101.821 100.998L100.984 100.398L100.146 99.7982C100.61 99.1504 101.073 98.4485 101.561 97.7126C102.044 96.9827 102.549 96.2221 103.078 95.4853C104.129 94.0215 105.328 92.5747 106.77 91.5597L107.363 92.4024ZM100.984 100.398L101.821 100.998C99.8129 103.804 98.8356 105.315 98.0779 107.809L97.0921 107.509L96.1062 107.21C96.9677 104.374 98.1164 102.633 100.146 99.7982L100.984 100.398ZM97.0921 107.509L98.0779 107.809C97.0232 111.28 96.424 115.055 96.0623 118.57L95.0374 118.465L94.0125 118.359C94.3812 114.776 94.9982 110.856 96.1062 107.21L97.0921 107.509ZM95.0374 118.465L96.0664 118.517C95.993 119.967 95.9993 122.051 96.4016 123.775L95.3982 124.009L94.3948 124.243C93.9259 122.234 93.9322 119.918 94.0084 118.413L95.0374 118.465ZM95.3982 124.009L96.4016 123.775C96.7959 125.465 97.5829 126.803 98.4883 128.327L97.6024 128.854L96.7166 129.38C95.8269 127.882 94.8716 126.287 94.3948 124.243L95.3982 124.009Z" fill="black"/>
<path d="M99.1428 129.853L99.12 130.883C98.8551 130.877 98.6025 130.769 98.4149 130.582L99.1428 129.853ZM97.7486 128.05L96.8568 128.566C96.8376 128.533 96.8203 128.498 96.8049 128.463L97.7486 128.05ZM104 127.731L104.736 128.452C103.972 129.232 102.974 129.839 101.999 130.248C101.032 130.653 99.9936 130.902 99.12 130.883L99.1428 129.853L99.1655 128.823C99.6608 128.834 100.405 128.681 101.202 128.347C101.991 128.016 102.737 127.547 103.264 127.01L104 127.731ZM99.1428 129.853L98.4149 130.582C97.8429 130.011 97.3278 129.38 96.8568 128.566L97.7486 128.05L98.6404 127.534C99.0094 128.171 99.4082 128.662 99.8706 129.123L99.1428 129.853ZM97.7486 128.05L96.8049 128.463C96.5485 127.878 96.2725 126.984 96.0161 126.159L97 125.854L97.9839 125.548C98.2564 126.425 98.4937 127.183 98.6924 127.636L97.7486 128.05Z" fill="black"/>
<path d="M102.309 117.666L103.326 117.504L102.309 117.666ZM102.4 110.397L103.38 110.714V110.714L102.4 110.397ZM103.324 105.679L102.338 105.382L103.324 105.679ZM107.933 98.5297L107.093 97.9344L107.933 98.5297ZM111.735 95.4016L112.366 96.2157C112.353 96.2258 112.34 96.2356 112.326 96.2451L111.735 95.4016ZM118.156 91.1185L118.718 91.9818C118.714 91.9845 118.71 91.9872 118.706 91.9898L118.156 91.1185ZM104.45 126.854L103.466 127.158C102.818 125.066 101.779 120.883 101.291 117.829L102.309 117.666L103.326 117.504C103.797 120.451 104.812 124.539 105.434 126.549L104.45 126.854ZM102.309 117.666L101.291 117.829C100.744 114.403 100.968 111.476 101.419 110.08L102.4 110.397L103.38 110.714C103.064 111.692 102.809 114.265 103.326 117.504L102.309 117.666ZM102.4 110.397L101.419 110.08C101.548 109.682 101.599 109.19 101.715 108.345C101.825 107.547 101.982 106.563 102.338 105.382L103.324 105.679L104.311 105.976C103.999 107.01 103.86 107.874 103.756 108.626C103.659 109.332 103.582 110.091 103.38 110.714L102.4 110.397ZM103.324 105.679L102.338 105.382C103.168 102.626 104.169 101.011 105.121 99.9117C105.589 99.3714 106.032 98.9725 106.38 98.6576C106.749 98.3232 106.954 98.13 107.093 97.9344L107.933 98.5297L108.774 99.125C108.48 99.5404 108.091 99.8876 107.763 100.185C107.414 100.502 107.056 100.826 106.678 101.261C105.939 102.114 105.068 103.463 104.311 105.976L103.324 105.679ZM107.933 98.5297L107.093 97.9344C107.567 97.264 108.249 96.6644 108.941 96.1299C109.637 95.5933 110.431 95.0575 111.143 94.5582L111.735 95.4016L112.326 96.2451C111.568 96.7769 110.846 97.2628 110.2 97.7612C109.552 98.2618 109.068 98.7107 108.774 99.125L107.933 98.5297ZM111.735 95.4016L111.103 94.5876C112.238 93.7067 114.638 92.1201 117.606 90.2471L118.156 91.1185L118.706 91.9898C115.725 93.8713 113.41 95.4062 112.366 96.2157L111.735 95.4016ZM118.156 91.1185L117.594 90.2551C118.117 89.9144 118.421 89.7014 118.665 89.5271C118.91 89.3523 119.124 89.1954 119.436 88.9914L120 89.8535L120.564 90.7157C120.296 90.891 120.125 91.0168 119.862 91.2047C119.598 91.3932 119.269 91.6229 118.718 91.9818L118.156 91.1185Z" fill="black"/>
<path d="M112.307 106.952L111.277 106.948L112.307 106.952ZM111.812 111.453L110.837 111.119V111.119L111.812 111.453ZM110.679 115.832L111.702 115.959L110.679 115.832ZM110.015 121.986L111.041 122.073L110.015 121.986ZM111.407 126.303L112.189 125.632L111.407 126.303ZM113.3 127.668L112.814 128.576L113.3 127.668ZM114.829 131.346L113.941 131.869V131.869L114.829 131.346ZM116.025 132.394L116.678 131.597L116.025 132.394ZM118.416 132.715L118.133 131.725L118.416 132.715ZM121.043 129.201L120.077 128.842V128.842L121.043 129.201ZM121.513 121.59L122.529 121.42C122.531 121.428 122.532 121.436 122.533 121.444L121.513 121.59ZM125 95.8535L125.39 96.8071C125.076 96.9357 124.711 97.0445 122.659 98.7525L122 97.9605L121.341 97.1684C123.446 95.4163 124.003 95.1482 124.61 94.8999L125 95.8535ZM122 97.9605L122.659 98.7525C120.596 100.468 116.925 103.722 115.003 105.491L114.305 104.733L113.607 103.975C115.546 102.191 119.244 98.9127 121.341 97.1684L122 97.9605ZM114.305 104.733L115.003 105.491C114.031 106.386 113.577 106.837 113.365 107.084C113.259 107.208 113.265 107.223 113.288 107.171C113.304 107.135 113.32 107.087 113.33 107.032C113.338 106.981 113.338 106.945 113.338 106.957L112.307 106.952L111.277 106.948C111.278 106.807 111.291 106.588 111.409 106.326C111.505 106.111 111.648 105.921 111.8 105.743C112.104 105.389 112.648 104.857 113.607 103.975L114.305 104.733ZM112.307 106.952L113.338 106.957C113.334 107.944 113.553 109.549 112.787 111.786L111.812 111.453L110.837 111.119C111.463 109.292 111.272 108.154 111.277 106.948L112.307 106.952ZM111.812 111.453L112.787 111.786C112.159 113.62 111.854 114.731 111.702 115.959L110.679 115.832L109.657 115.705C109.836 114.265 110.195 112.995 110.837 111.119L111.812 111.453ZM110.679 115.832L111.702 115.959C111.437 118.098 111.208 120.12 111.041 122.073L110.015 121.986L108.988 121.898C109.158 119.907 109.39 117.857 109.657 115.705L110.679 115.832ZM110.015 121.986L111.041 122.073C110.992 122.645 111.11 123.352 111.349 124.043C111.589 124.737 111.914 125.311 112.189 125.632L111.407 126.303L110.625 126.974C110.135 126.403 109.699 125.578 109.401 124.715C109.103 123.85 108.907 122.844 108.988 121.898L110.015 121.986ZM111.407 126.303L112.189 125.632C112.654 126.174 113.218 126.455 113.787 126.759L113.3 127.668L112.814 128.576C112.32 128.311 111.387 127.861 110.625 126.974L111.407 126.303ZM113.3 127.668L113.787 126.759C114.284 127.026 114.572 127.456 114.75 127.83C114.927 128.201 115.041 128.616 115.131 128.972C115.333 129.774 115.448 130.367 115.717 130.823L114.829 131.346L113.941 131.869C113.479 131.084 113.285 130.081 113.133 129.476C113.045 129.129 112.971 128.887 112.89 128.716C112.81 128.549 112.771 128.553 112.814 128.576L113.3 127.668ZM114.829 131.346L115.717 130.823C115.75 130.879 115.81 130.949 115.977 131.076C116.065 131.143 116.153 131.205 116.279 131.295C116.397 131.379 116.535 131.48 116.678 131.597L116.025 132.394L115.371 133.19C115.282 133.117 115.189 133.049 115.08 132.971C114.981 132.9 114.849 132.807 114.729 132.716C114.48 132.527 114.174 132.263 113.941 131.869L114.829 131.346ZM116.025 132.394L116.678 131.597C116.829 131.721 117.039 131.799 117.314 131.818C117.593 131.838 117.889 131.794 118.133 131.725L118.416 132.715L118.699 133.706C117.933 133.925 116.487 134.107 115.371 133.19L116.025 132.394ZM118.416 132.715L118.133 131.725C118.55 131.605 118.825 131.401 119.098 131.003C119.408 130.55 119.69 129.885 120.077 128.842L121.043 129.201L122.009 129.559C121.632 130.575 121.273 131.474 120.797 132.168C120.284 132.917 119.627 133.441 118.699 133.706L118.416 132.715ZM121.043 129.201L120.077 128.842C120.525 127.635 120.969 125.063 120.493 121.735L121.513 121.59L122.533 121.444C123.05 125.059 122.593 127.984 122.009 129.559L121.043 129.201ZM121.513 121.59L120.497 121.759C120.381 121.064 120.377 120.601 120.418 120.133L121.444 120.221L122.471 120.309C122.445 120.607 122.442 120.897 122.529 121.42L121.513 121.59ZM121.444 120.221L120.418 120.133C120.455 119.698 120.529 119.277 120.596 118.896L121.611 119.074L122.626 119.251C122.557 119.647 122.499 119.979 122.471 120.309L121.444 120.221Z" fill="black"/>
<path d="M118.709 130.08L117.856 129.502L118.709 130.08ZM118.105 125.567L117.163 125.982L118.105 125.567ZM116.696 123.854L116.219 122.94C116.522 122.782 116.883 122.784 117.183 122.946L116.696 123.854ZM115.287 124.84L114.575 124.095C114.602 124.07 114.63 124.046 114.659 124.023L115.287 124.84ZM117.27 131.854L116.518 131.149C117 130.635 117.478 130.06 117.856 129.502L118.709 130.08L119.562 130.658C119.107 131.329 118.555 131.989 118.021 132.558L117.27 131.854ZM118.709 130.08L117.856 129.502C117.897 129.442 117.954 129.305 117.967 129.034C117.98 128.768 117.945 128.44 117.867 128.067C117.71 127.321 117.407 126.537 117.163 125.982L118.105 125.567L119.048 125.151C119.318 125.762 119.684 126.695 119.883 127.643C119.983 128.118 120.049 128.631 120.026 129.131C120.002 129.625 119.888 130.177 119.562 130.658L118.709 130.08ZM118.105 125.567L117.163 125.982C117.013 125.644 116.816 125.355 116.623 125.134C116.419 124.902 116.258 124.788 116.208 124.761L116.696 123.854L117.183 122.946C117.802 123.279 118.581 124.092 119.048 125.151L118.105 125.567ZM116.696 123.854L117.172 124.767C116.887 124.916 116.519 125.193 115.915 125.657L115.287 124.84L114.659 124.023C115.205 123.603 115.737 123.191 116.219 122.94L116.696 123.854ZM115.287 124.84L115.998 125.585C115.763 125.81 115.434 126.205 114.864 127.081L114 126.52L113.136 125.958C113.735 125.037 114.168 124.484 114.575 124.095L115.287 124.84Z" fill="black"/>
<path d="M100.601 122.494L101.156 121.625C101.326 121.734 101.461 121.891 101.543 122.076L100.601 122.494ZM98.4649 121.884L98.5154 120.855C98.5304 120.856 98.5453 120.857 98.5603 120.859L98.4649 121.884ZM100.001 127.854L99.1098 127.337C100.105 125.62 100.161 124.041 99.6596 122.912L100.601 122.494L101.543 122.076C102.369 123.936 102.142 126.215 100.893 128.37L100.001 127.854ZM100.601 122.494L100.047 123.362C99.716 123.151 99.2648 122.994 98.3696 122.91L98.4649 121.884L98.5603 120.859C99.6215 120.957 100.438 121.167 101.156 121.625L100.601 122.494ZM98.4649 121.884L98.4145 122.914C97.815 122.884 96.9416 122.884 96 122.884L96 121.854L96 120.823C96.92 120.823 97.8534 120.823 98.5154 120.855L98.4649 121.884Z" fill="black"/>
<path d="M105.874 131.615L106.828 131.225L105.874 131.615ZM108.432 133.71L108.843 132.765L108.432 133.71ZM110.43 133.36L111.138 134.108C111.119 134.126 111.099 134.143 111.078 134.16L110.43 133.36ZM111.949 130.373L112.972 130.494C112.97 130.518 112.966 130.541 112.961 130.565L111.949 130.373ZM104 125.854L105.001 125.61C105.581 127.991 106.271 129.863 106.828 131.225L105.874 131.615L104.921 132.005C104.337 130.578 103.609 128.605 102.999 126.097L104 125.854ZM105.874 131.615L106.828 131.225C107.111 131.917 107.77 132.299 108.843 132.765L108.432 133.71L108.021 134.655C107.013 134.217 105.557 133.562 104.921 132.005L105.874 131.615ZM108.432 133.71L108.843 132.765C109.01 132.838 109.171 132.837 109.338 132.79C109.52 132.739 109.683 132.638 109.781 132.559L110.43 133.36L111.078 134.16C110.615 134.535 109.407 135.257 108.021 134.655L108.432 133.71ZM110.43 133.36L109.721 132.611C110.266 132.096 110.706 131.4 110.937 130.181L111.949 130.373L112.961 130.565C112.657 132.171 112.024 133.269 111.138 134.108L110.43 133.36ZM111.949 130.373L110.926 130.253C111.006 129.567 110.996 128.862 110.722 128.159L111.683 127.786L112.643 127.413C113.085 128.549 113.074 129.63 112.972 130.494L111.949 130.373Z" fill="black"/>
<path d="M108.271 128.372L107.329 128.79L108.271 128.372ZM110 132.854L109.029 133.197C108.501 131.707 107.911 130.101 107.329 128.79L108.271 128.372L109.213 127.955C109.829 129.344 110.443 131.016 110.971 132.51L110 132.854ZM108.271 128.372L107.329 128.79C107.299 128.721 107.285 128.708 107.297 128.723C107.313 128.744 107.356 128.789 107.431 128.829C107.505 128.868 107.57 128.88 107.601 128.883C107.624 128.885 107.621 128.882 107.564 128.887L107.471 127.861L107.378 126.835C107.583 126.816 107.985 126.79 108.394 127.007C108.813 127.229 109.056 127.6 109.213 127.955L108.271 128.372ZM107.471 127.861L107.564 128.887C107.413 128.901 107.197 128.952 106.969 129.18L106.24 128.453L105.511 127.725C106.155 127.079 106.863 126.881 107.378 126.835L107.471 127.861ZM106.24 128.453L106.969 129.18C106.667 129.483 106.347 130.063 105.91 130.887L105 130.404L104.09 129.921C104.469 129.208 104.941 128.296 105.511 127.725L106.24 128.453Z" fill="black"/>
<path d="M123.464 130.815L122.71 131.518L123.464 130.815ZM123.916 134.534L122.889 134.456L123.916 134.534ZM122.061 137.045L121.413 136.245L121.413 136.245L122.061 137.045ZM116.856 137.839L116.838 138.869L116.856 137.839ZM115.432 137.162L114.672 137.858C114.587 137.765 114.52 137.657 114.474 137.539L115.432 137.162ZM115.166 133.974L114.269 133.467C114.298 133.415 114.332 133.366 114.37 133.319L115.166 133.974ZM122.24 129.854L122.24 128.823C122.536 128.823 122.777 128.941 122.876 128.992C123.014 129.063 123.153 129.154 123.286 129.254C123.556 129.456 123.871 129.741 124.217 130.112L123.464 130.815L122.71 131.518C122.425 131.211 122.201 131.016 122.054 130.906C121.979 130.85 121.94 130.828 121.933 130.825C121.93 130.823 121.949 130.833 121.986 130.845C122.015 130.855 122.107 130.884 122.24 130.884L122.24 129.854ZM123.464 130.815L124.217 130.112C124.809 130.747 124.967 131.618 125.013 132.33C125.061 133.072 124.998 133.896 124.944 134.611L123.916 134.534L122.889 134.456C122.945 133.705 122.994 133.033 122.957 132.463C122.918 131.864 122.795 131.609 122.71 131.518L123.464 130.815ZM123.916 134.534L124.944 134.611C124.884 135.404 124.522 136.041 124.1 136.549C123.688 137.043 123.168 137.474 122.71 137.846L122.061 137.045L121.413 136.245C121.881 135.865 122.25 135.55 122.515 135.231C122.77 134.925 122.872 134.682 122.889 134.456L123.916 134.534ZM122.061 137.045L122.71 137.846C121.927 138.48 120.863 138.71 119.897 138.808C118.904 138.909 117.807 138.886 116.838 138.869L116.856 137.839L116.874 136.809C117.877 136.826 118.842 136.844 119.689 136.758C120.563 136.669 121.116 136.485 121.413 136.245L122.061 137.045ZM116.856 137.839L116.838 138.869C116.268 138.859 115.803 138.716 115.42 138.491C115.054 138.275 114.81 138.008 114.672 137.858L115.432 137.162L116.192 136.466C116.319 136.605 116.387 136.669 116.467 136.716C116.53 136.753 116.645 136.805 116.874 136.809L116.856 137.839ZM115.432 137.162L114.474 137.539C114.147 136.71 114.004 135.897 113.975 135.223C113.961 134.885 113.975 134.569 114.014 134.291C114.051 134.037 114.12 133.73 114.269 133.467L115.166 133.974L116.062 134.481C116.1 134.415 116.077 134.425 116.054 134.583C116.035 134.716 116.024 134.904 116.034 135.135C116.054 135.599 116.155 136.184 116.391 136.785L115.432 137.162ZM115.166 133.974L114.37 133.319C114.744 132.865 115.25 132.659 115.992 132.499L116.21 133.506L116.428 134.513C116.124 134.578 115.99 134.63 115.938 134.655C115.917 134.665 115.919 134.666 115.933 134.656C115.948 134.644 115.958 134.632 115.961 134.629L115.166 133.974Z" fill="black"/>
<path d="M126.764 137.336L127.211 138.264C127.196 138.271 127.182 138.278 127.168 138.284L126.764 137.336ZM117.879 139.775L117.593 140.765C117.576 140.76 117.559 140.754 117.542 140.749L117.879 139.775ZM132 134.854L132 135.884C132.102 135.884 132.179 135.868 132.201 135.863C132.233 135.856 132.255 135.849 132.262 135.847C132.277 135.842 132.278 135.841 132.257 135.85C132.218 135.865 132.149 135.894 132.043 135.942C131.833 136.037 131.522 136.184 131.096 136.388C130.242 136.798 128.98 137.413 127.211 138.264L126.764 137.336L126.317 136.408C128.068 135.565 129.355 134.938 130.205 134.53C130.631 134.326 130.961 134.17 131.195 134.064C131.311 134.012 131.416 133.966 131.503 133.932C131.545 133.915 131.598 133.896 131.652 133.879C131.67 133.873 131.819 133.823 132 133.823L132 134.854ZM126.764 137.336L127.168 138.284C124.906 139.248 122.95 139.967 121.382 140.4C120.599 140.616 119.892 140.767 119.281 140.838C118.688 140.906 118.098 140.911 117.593 140.765L117.879 139.775L118.166 138.785C118.283 138.819 118.554 138.847 119.044 138.791C119.514 138.736 120.111 138.613 120.833 138.413C122.278 138.014 124.141 137.334 126.36 136.388L126.764 137.336ZM117.879 139.775L117.542 140.749C116.858 140.512 116.193 140.202 115.566 139.911L116 138.976L116.434 138.042C117.079 138.341 117.648 138.604 118.217 138.801L117.879 139.775Z" fill="black"/>
<path d="M88.7922 114.191L88.5356 115.189C88.5233 115.186 88.511 115.182 88.4988 115.179L88.7922 114.191ZM85.7426 113.355L85.9601 112.348L85.7426 113.355ZM95 115.854L94.715 116.844C93.0108 116.353 90.7999 115.771 88.5356 115.189L88.7922 114.191L89.0489 113.193C91.3148 113.776 93.5503 114.364 95.285 114.863L95 115.854ZM88.7922 114.191L88.4988 115.179C87.0853 114.759 86.2498 114.518 85.5252 114.362L85.7426 113.355L85.9601 112.348C86.7754 112.524 87.6884 112.788 89.0856 113.203L88.7922 114.191ZM85.7426 113.355L85.5252 114.362C85.1029 114.271 84.6809 114.178 83.6645 113.828L84 112.854L84.3355 111.879C85.2644 112.199 85.6065 112.271 85.9601 112.348L85.7426 113.355Z" fill="black"/>
<path d="M83.1443 104.713L84.1424 104.457C84.1465 104.473 84.1502 104.489 84.1535 104.505L83.1443 104.713ZM72.9957 99.0461L73.4104 98.1029C73.4164 98.1056 73.4225 98.1083 73.4285 98.1111L72.9957 99.0461ZM84 112.854L82.9697 112.854C82.9697 111.256 82.5992 107.178 82.1351 104.92L83.1443 104.713L84.1535 104.505C84.6465 106.903 85.0303 111.121 85.0303 112.854L84 112.854ZM83.1443 104.713L82.1461 104.968C82.1953 105.16 82.29 105.213 82.18 105.103C82.1016 105.025 81.9638 104.909 81.7474 104.754C81.3177 104.446 80.6747 104.051 79.8178 103.575C78.11 102.627 75.6468 101.408 72.563 99.9812L72.9957 99.0461L73.4285 98.1111C76.5289 99.546 79.045 100.789 80.8179 101.774C81.7013 102.264 82.4241 102.703 82.9488 103.08C83.2096 103.267 83.4461 103.456 83.6346 103.644C83.7915 103.8 84.0458 104.08 84.1424 104.457L83.1443 104.713ZM72.9957 99.0461L72.581 99.9893C71.3404 99.4439 70.4257 99.0782 69.6361 98.7503C68.8517 98.4245 68.1853 98.1339 67.5009 97.7549L68 96.8535L68.4991 95.9521C69.0776 96.2724 69.6554 96.527 70.4264 96.8472C71.1922 97.1652 72.1439 97.5461 73.4104 98.1029L72.9957 99.0461Z" fill="black"/>
<path d="M83.0027 122.357L82.7047 123.343L83.0027 122.357ZM70.1981 118.723L70.4706 117.729L70.1981 118.723ZM95 125.854L94.7285 126.847C91.3998 125.938 86.4795 124.484 82.7047 123.343L83.0027 122.357L83.3007 121.371C87.0723 122.51 91.9708 123.958 95.2715 124.86L95 125.854ZM83.0027 122.357L82.7047 123.343C79.9922 122.524 76.0548 121.397 69.9257 119.717L70.1981 118.723L70.4706 117.729C76.6064 119.412 80.5633 120.544 83.3007 121.371L83.0027 122.357ZM70.1981 118.723L69.9257 119.717C69.3529 119.56 68.9113 119.461 68.2808 119.32C67.6492 119.177 66.8497 118.996 65.5875 118.678L65.8397 117.679L66.092 116.68C67.33 116.992 68.1104 117.169 68.7332 117.309C69.3572 117.45 69.8446 117.558 70.4706 117.729L70.1981 118.723ZM65.8397 117.679L65.5875 118.678C63.0754 118.043 58.7428 116.87 56.1329 116.131L56.4139 115.139L56.6949 114.148C59.2906 114.884 63.6035 116.051 66.092 116.68L65.8397 117.679ZM56.4139 115.139L56.1329 116.131C53.4558 115.372 52.8031 115.13 51.7383 114.85L52 113.854L52.2617 112.857C53.3156 113.134 54.1664 113.431 56.6949 114.148L56.4139 115.139Z" fill="black"/>
<path d="M70.7147 109.36L70.4452 110.354L70.7147 109.36ZM67.0932 108.023L67.7112 107.198V107.198L67.0932 108.023ZM66.5198 100.028L67.5435 100.145L66.5198 100.028ZM66.5692 95.0541L65.5396 95.0924L66.5692 95.0541ZM56.9576 88.6038L56.5063 89.5301L56.9576 88.6038ZM83 112.854L82.269 113.58C82.3729 113.684 82.4723 113.735 82.4738 113.736C82.4966 113.749 82.5084 113.753 82.5001 113.75C82.4847 113.743 82.4458 113.727 82.3737 113.702C82.2326 113.651 82.0196 113.582 81.7307 113.493C81.1559 113.316 80.324 113.074 79.2607 112.774C77.1362 112.174 74.1163 111.349 70.4452 110.354L70.7147 109.36L70.9842 108.365C74.6549 109.36 77.6844 110.188 79.8205 110.791C80.8875 111.092 81.7387 111.339 82.3377 111.524C82.6357 111.615 82.8823 111.695 83.0658 111.761C83.1559 111.793 83.2454 111.827 83.3238 111.861C83.3624 111.878 83.4124 111.901 83.4646 111.929C83.4955 111.946 83.6155 112.011 83.731 112.127L83 112.854ZM70.7147 109.36L70.4452 110.354C67.7493 109.624 67.0287 109.262 66.4753 108.847L67.0932 108.023L67.7112 107.198C67.9204 107.355 68.2965 107.637 70.9842 108.365L70.7147 109.36ZM67.0932 108.023L66.4753 108.847C65.3948 108.038 65.1418 106.604 65.1047 105.225C65.0657 103.778 65.264 101.949 65.4961 99.9117L66.5198 100.028L67.5435 100.145C67.3067 102.224 67.1303 103.897 67.1646 105.17C67.2008 106.512 67.469 107.017 67.7112 107.198L67.0932 108.023ZM66.5198 100.028L65.4961 99.9117C65.6626 98.4494 65.5871 96.3686 65.5396 95.0924L66.5692 95.0541L67.5988 95.0158C67.6446 96.2452 67.7313 98.4961 67.5435 100.145L66.5198 100.028ZM66.5692 95.0541L65.5396 95.0924C65.5399 95.101 65.5237 94.9196 65.1295 94.5195C64.7607 94.1451 64.1822 93.7017 63.3747 93.1858C61.7643 92.157 59.4255 90.9526 56.5063 89.5301L56.9576 88.6038L57.409 87.6776C60.3231 89.0977 62.7614 90.3486 64.4842 91.4493C65.3432 91.9982 66.0703 92.5382 66.5975 93.0734C67.0995 93.5829 67.5699 94.2373 67.5988 95.0158L66.5692 95.0541ZM56.9576 88.6038L56.5063 89.5301C54.3443 88.4765 53.4819 88.2621 50.4139 87.559L50.6441 86.5547L50.8742 85.5504C53.987 86.2637 55.0325 86.5196 57.409 87.6776L56.9576 88.6038ZM50.6441 86.5547L50.4139 87.559C47.3496 86.8568 42.0957 85.7229 38.9775 84.9527L39.2246 83.9524L39.4717 82.9521C42.571 83.7177 47.7577 84.8363 50.8742 85.5504L50.6441 86.5547ZM39.2246 83.9524L38.9775 84.9527C35.8377 84.1771 34.914 83.7799 34.2424 83.4426L34.7048 82.5219L35.1672 81.6011C35.6397 81.8384 36.3939 82.1919 39.4717 82.9521L39.2246 83.9524ZM34.7048 82.5219L34.2424 83.4426C33.6467 83.1435 33.4809 83.019 32.7722 82.8584L33 81.8535L33.2278 80.8487C34.2253 81.0748 34.6189 81.3258 35.1672 81.6011L34.7048 82.5219Z" fill="black"/>
<path d="M36.7112 77.3454L36.2586 76.4198C36.2806 76.409 36.303 76.399 36.3257 76.3899L36.7112 77.3454ZM45 73.8535L46.0303 73.8535C46.0303 74.2006 45.8616 74.4329 45.8053 74.5056C45.7316 74.6009 45.6558 74.6665 45.6131 74.7012C45.5245 74.7735 45.4314 74.8304 45.3655 74.8686C45.2244 74.9502 45.0425 75.0397 44.8428 75.1322C44.4356 75.3208 43.8517 75.5688 43.1278 75.8671C41.6777 76.4647 39.5948 77.293 37.0967 78.3009L36.7112 77.3454L36.3257 76.3899C38.84 75.3755 40.9015 74.5557 42.3427 73.9618C43.0645 73.6644 43.6129 73.4308 43.9767 73.2623C44.1625 73.1763 44.2757 73.1183 44.3334 73.085C44.3668 73.0656 44.349 73.0731 44.3108 73.1043C44.2934 73.1184 44.2366 73.1656 44.1756 73.2444C44.1321 73.3007 43.9697 73.5186 43.9697 73.8535L45 73.8535ZM36.7112 77.3454L37.1638 78.271C36.7573 78.4698 36.4765 78.6333 36.2849 78.7669C36.0904 78.9026 36.0218 78.9842 36.005 79.0076C36 79.0145 36.0257 78.9751 36.0299 78.9109C36.0327 78.8679 36.0207 78.8679 36.0508 78.9615L35.0701 79.2772L34.0893 79.593C34.0238 79.3895 33.9522 79.1056 33.9735 78.7774C33.9962 78.4279 34.1186 78.1018 34.3309 77.8061C34.7096 77.2783 35.3767 76.851 36.2586 76.4198L36.7112 77.3454ZM35.0701 79.2772L36.0508 78.9615C36.1084 79.1403 36.2245 79.3756 36.462 79.774C36.7103 80.1906 36.9922 80.6272 37.4122 81.3185L36.5316 81.8535L35.651 82.3885C35.2826 81.7821 34.9294 81.2276 34.6918 80.829C34.4434 80.4122 34.223 80.0082 34.0893 79.593L35.0701 79.2772Z" fill="black"/>
<path d="M46 73.8535L45.2078 74.5123C43.2781 72.1916 41.3628 69.8882 37.7206 66.2032L38.4534 65.4789L39.1862 64.7546C42.8893 68.5012 44.848 70.8566 46.7922 73.1948L46 73.8535ZM38.4534 65.4789L37.7206 66.2032C34.0918 62.5319 28.6843 57.4416 22.5633 51.0309L23.3085 50.3194L24.0537 49.6079C30.1778 56.0217 35.4697 60.9945 39.1862 64.7546L38.4534 65.4789ZM23.3085 50.3194L22.5633 51.0309C16.4264 44.6036 9.67635 36.9442 5.98672 32.8325L6.75357 32.1443L7.52043 31.4562C11.2292 35.5892 17.9457 43.2108 24.0537 49.6079L23.3085 50.3194ZM6.75357 32.1443L5.98672 32.8325C2.30282 28.7272 1.85455 28.3677 1.48634 27.9972L2.21724 27.2709L2.94813 26.5447C3.33178 26.9308 3.80588 27.3168 7.52043 31.4562L6.75357 32.1443ZM2.21724 27.2709L1.48634 27.9972C1.07269 27.5808 0.729391 27.128 0.213892 26.5196L1 25.8535L1.78611 25.1875C2.3998 25.9118 2.60992 26.2043 2.94813 26.5447L2.21724 27.2709Z" fill="black"/>
<path d="M24.4199 78.8281L23.6321 79.4921V79.4921L24.4199 78.8281ZM22.8152 83.8535L22.8217 84.8838L22.8152 83.8535ZM19.44 81.3833L18.674 82.0724L19.44 81.3833ZM20.1332 76.1574L20.1332 75.127C21.801 75.127 23.6437 76.3081 25.2078 78.1641L24.4199 78.8281L23.6321 79.4921C22.2156 77.8114 20.8962 77.1877 20.1332 77.1877L20.1332 76.1574ZM24.4199 78.8281L25.2078 78.1641C26.1457 79.2769 26.0703 80.5729 25.9806 81.3748L24.9566 81.2603L23.9326 81.1457C24.0139 80.4194 23.9793 79.9041 23.6321 79.4921L24.4199 78.8281ZM24.9566 81.2603L25.9806 81.3748C25.88 82.274 25.5672 83.1929 24.9994 83.8574L24.2161 83.1881L23.4327 82.5188C23.6541 82.2597 23.8623 81.7749 23.9326 81.1457L24.9566 81.2603ZM24.2161 83.1881L24.9994 83.8574C24.3992 84.5598 23.5883 84.879 22.8217 84.8838L22.8152 83.8535L22.8088 82.8232C23.0128 82.8219 23.2437 82.74 23.4327 82.5188L24.2161 83.1881ZM22.8152 83.8535L22.8217 84.8838C21.9853 84.8891 21.2099 84.4181 20.6031 83.9443C19.9575 83.4403 19.2996 82.7679 18.674 82.0724L19.44 81.3833L20.206 80.6942C20.8076 81.363 21.3698 81.9286 21.8712 82.32C22.4114 82.7418 22.71 82.8238 22.8088 82.8232L22.8152 83.8535ZM19.44 81.3833L18.674 82.0724C17.7974 81.098 17.877 79.9676 18.1798 78.9612L19.1664 79.258L20.1531 79.5548C19.9376 80.2711 20.0358 80.505 20.206 80.6942L19.44 81.3833ZM19.1664 79.258L18.1798 78.9612C18.4793 77.9655 19.1555 76.7345 19.7811 76.0048L20.5633 76.6754L21.3456 77.346C20.911 77.8529 20.3718 78.8278 20.1531 79.5548L19.1664 79.258ZM20.5633 76.6754L19.7811 76.0048C20.1296 75.5983 20.5035 75.3012 20.9925 75.111C21.4336 74.9395 21.915 74.8796 22.3921 74.8289L22.5008 75.8535L22.6096 76.8781C22.1133 76.9308 21.891 76.9726 21.7393 77.0316C21.6354 77.072 21.5272 77.1342 21.3456 77.346L20.5633 76.6754Z" fill="black"/>
<path d="M53.7197 101.696L53.3274 102.649L53.7197 101.696ZM43.876 95.8033L44.6234 95.0941L43.876 95.8033ZM66 106.854L65.438 107.717C65.4429 107.72 65.426 107.709 65.372 107.681C65.3223 107.655 65.2551 107.622 65.1681 107.58C64.9941 107.498 64.7594 107.391 64.4619 107.261C63.8675 107.001 63.0467 106.655 62.0076 106.223C59.9291 105.359 57.0064 104.164 53.3274 102.649L53.7197 101.696L54.1121 100.743C57.7829 102.255 60.7163 103.454 62.7986 104.32C63.8398 104.753 64.6755 105.105 65.2885 105.374C65.86 105.624 66.3322 105.84 66.562 105.99L66 106.854ZM53.7197 101.696L53.3274 102.649C47.4225 100.217 44.4479 97.9027 43.1286 96.5126L43.876 95.8033L44.6234 95.0941C45.6877 96.2155 48.3899 98.3867 54.1121 100.743L53.7197 101.696ZM43.876 95.8033L43.1286 96.5126C42.7828 96.1482 42.4364 95.7355 41.9834 95.2094C41.5223 94.6738 40.9188 93.9824 40.0252 93.0174L40.7812 92.3173L41.5372 91.6173C42.452 92.6053 43.0726 93.3161 43.5451 93.8649C44.0257 94.4232 44.3225 94.777 44.6234 95.0941L43.876 95.8033ZM40.7812 92.3173L40.0252 93.0174C38.2415 91.0911 35.2748 88.0069 33.3252 85.7754L34.1011 85.0975L34.877 84.4196C36.8024 86.6234 39.7041 89.6376 41.5372 91.6173L40.7812 92.3173ZM34.1011 85.0975L33.3252 85.7754C31.365 83.5318 30.4534 82.1611 29.8713 81.4152L30.6836 80.7813L31.496 80.1475C32.1702 81.0115 32.9623 82.228 34.877 84.4196L34.1011 85.0975ZM30.6836 80.7813L29.8713 81.4152C29.5869 81.0507 29.3614 80.8078 29.1076 80.5364C28.8486 80.2595 28.561 79.9538 28.1956 79.4974L29 78.8535L29.8044 78.2096C30.1159 78.5989 30.3561 78.8546 30.6126 79.1289C30.8744 79.4087 31.1522 79.7069 31.496 80.1475L30.6836 80.7813Z" fill="black"/>
<path d="M40.6281 108.359L40.0325 109.2L40.6281 108.359ZM33.0526 102.575L33.6158 101.712V101.712L33.0526 102.575ZM28.6116 99.2421L28.0222 100.087V100.087L28.6116 99.2421ZM18.4245 92.8764L18.9208 91.9734L18.4245 92.8764ZM52 115.854L51.5403 116.776C49.9429 115.979 45.7873 113.277 40.0325 109.2L40.6281 108.359L41.2238 107.519C47.0099 111.618 51.0315 114.219 52.4598 114.931L52 115.854ZM40.6281 108.359L40.0325 109.2C37.941 107.718 36.3746 106.483 35.1621 105.51C33.9252 104.516 33.1245 103.852 32.4895 103.438L33.0526 102.575L33.6158 101.712C34.3618 102.199 35.2808 102.962 36.4524 103.903C37.6484 104.863 39.1792 106.07 41.2238 107.519L40.6281 108.359ZM33.0526 102.575L32.4895 103.438C31.6544 102.893 30.8696 102.283 30.1354 101.703C29.389 101.114 28.7053 100.564 28.0222 100.087L28.6116 99.2421L29.201 98.397C29.9477 98.9177 30.6921 99.5169 31.4126 100.086C32.1452 100.665 32.8661 101.223 33.6158 101.712L33.0526 102.575ZM28.6116 99.2421L28.0222 100.087C26.6697 99.1439 23.4967 96.8395 17.9283 93.7793L18.4245 92.8764L18.9208 91.9734C24.5924 95.0904 27.8421 97.4492 29.201 98.397L28.6116 99.2421ZM18.4245 92.8764L17.9283 93.7793C15.083 92.2157 12.2661 91.0487 9.41079 89.6027L9.87629 88.6835L10.3418 87.7643C12.9647 89.0926 16.0894 90.4174 18.9208 91.9734L18.4245 92.8764ZM9.87629 88.6835L9.41079 89.6027C6.646 88.2026 4.1646 86.775 2.7163 85.9562L3.22337 85.0592L3.73044 84.1623C5.19315 84.9892 7.62838 86.3902 10.3418 87.7643L9.87629 88.6835ZM3.22337 85.0592L2.7163 85.9562C1.27195 85.1396 0.909964 84.9599 0.54025 84.7756L1 83.8535L1.45975 82.9314C1.86936 83.1357 2.26378 83.3331 3.73044 84.1623L3.22337 85.0592Z" fill="black"/>
<path d="M51 113.854L51 112.823L55 112.823L55 113.854L55 114.884L51 114.884L51 113.854Z" fill="black"/>
<path d="M52.9409 104.815L53.9586 104.654L52.9409 104.815ZM51.7077 102.256L52.4583 101.55L51.7077 102.256ZM47.1862 100.94L47.0212 99.9229L47.1862 100.94ZM42.5133 105.537L43.3972 106.067L42.5133 105.537ZM42.5962 109.948L43.5344 109.523L42.5962 109.948ZM47.7321 111.808L47.6112 112.832C47.5979 112.83 47.5846 112.828 47.5713 112.826L47.7321 111.808ZM49.9371 111.61L49.1905 110.9C51.3733 108.605 52.1798 106.6 51.9232 104.975L52.9409 104.815L53.9586 104.654C54.3651 107.227 53.0281 109.855 50.6837 112.32L49.9371 111.61ZM52.9409 104.815L51.9232 104.975C51.7938 104.156 51.4347 103.47 50.957 102.962L51.7077 102.256L52.4583 101.55C53.2181 102.358 53.7644 103.424 53.9586 104.654L52.9409 104.815ZM51.7077 102.256L50.957 102.962C50.0255 101.971 48.6741 101.742 47.3512 101.957L47.1862 100.94L47.0212 99.9229C48.7365 99.6447 50.8902 99.8826 52.4583 101.55L51.7077 102.256ZM47.1862 100.94L47.3512 101.957C46.6216 102.075 45.9155 102.576 45.2123 103.388C44.5143 104.195 43.9314 105.175 43.3972 106.067L42.5133 105.537L41.6294 105.008C42.1427 104.151 42.817 103.007 43.654 102.04C44.4859 101.079 45.5924 100.155 47.0212 99.9229L47.1862 100.94ZM42.5133 105.537L43.3972 106.067C42.7893 107.082 43.0102 108.368 43.5344 109.523L42.5962 109.948L41.6579 110.374C41.0474 109.029 40.4881 106.913 41.6294 105.008L42.5133 105.537ZM42.5962 109.948L43.5344 109.523C43.6708 109.823 44.0529 110.112 44.957 110.336C45.8678 110.561 46.814 110.62 47.8929 110.791L47.7321 111.808L47.5713 112.826C46.7482 112.696 45.4715 112.586 44.4623 112.336C43.4465 112.085 42.2117 111.594 41.6579 110.374L42.5962 109.948ZM47.7321 111.808L47.853 110.785C48.2785 110.835 48.486 110.834 48.6476 110.791C48.7718 110.758 48.9591 110.674 49.2389 110.348L50.0214 111.018L50.8039 111.688C50.3192 112.254 49.7941 112.617 49.1809 112.781C48.6051 112.936 48.0503 112.884 47.6112 112.832L47.7321 111.808ZM50.0214 111.018L49.2389 110.348C49.5441 109.992 49.9028 109.409 50.3565 108.582C50.8239 107.73 51.2773 106.839 51.8894 105.71L52.7951 106.201L53.7008 106.693C53.1526 107.703 52.6014 108.774 52.1631 109.573C51.7112 110.397 51.2633 111.152 50.8039 111.688L50.0214 111.018Z" fill="black"/>
<path d="M48.225 103.437L48.9146 102.672L48.225 103.437ZM48.9797 105.667L50.0035 105.783L48.9797 105.667ZM46.5185 108.733L46.0976 107.792V107.792L46.5185 108.733ZM45.9986 101.895L44.9683 101.895C44.9683 101.695 45.0262 101.404 45.2617 101.156C45.4881 100.918 45.7574 100.849 45.9212 100.83C46.2037 100.798 46.4367 100.885 46.5121 100.913C46.7234 100.992 46.9489 101.126 47.1564 101.263C47.5962 101.554 48.1946 102.023 48.9146 102.672L48.225 103.437L47.5354 104.203C46.8591 103.594 46.3444 103.196 46.0201 102.982C45.8455 102.866 45.7762 102.838 45.7882 102.842C45.7963 102.845 45.827 102.857 45.8746 102.867C45.915 102.875 46.0172 102.893 46.1529 102.878C46.2912 102.862 46.5413 102.801 46.7548 102.577C46.9776 102.342 47.029 102.07 47.029 101.895L45.9986 101.895ZM48.225 103.437L48.9146 102.672C49.8871 103.548 50.1166 104.781 50.0035 105.783L48.9797 105.667L47.9558 105.552C48.0188 104.994 47.8714 104.506 47.5354 104.203L48.225 103.437ZM48.9797 105.667L50.0035 105.783C49.759 107.949 48.0622 109.171 46.9395 109.673L46.5185 108.733L46.0976 107.792C46.9259 107.422 47.8302 106.665 47.9558 105.552L48.9797 105.667ZM46.5185 108.733L46.9395 109.673C46.037 110.077 45.0732 109.877 44.2457 109.289L44.8428 108.449L45.4399 107.609C45.6416 107.753 45.7912 107.803 45.8851 107.817C45.9716 107.831 46.0365 107.82 46.0976 107.792L46.5185 108.733ZM44.8428 108.449L44.2457 109.289C43.4365 108.713 42.6732 107.658 42.2815 106.511L43.2565 106.178L44.2316 105.845C44.5052 106.646 45.0332 107.32 45.4399 107.609L44.8428 108.449ZM43.2565 106.178L42.2815 106.511C41.8724 105.314 41.8858 104.048 42.2055 102.803L43.2034 103.059L44.2014 103.315C43.9621 104.247 43.9755 105.095 44.2316 105.845L43.2565 106.178Z" fill="black"/>
<path d="M67.1119 124.993L66.6555 125.917L67.1119 124.993ZM63.0443 128.77L62.0382 128.993L63.0443 128.77ZM68.4798 130.82L69.3136 131.426C69.1506 131.65 68.9038 131.8 68.6291 131.84L68.4798 130.82ZM69.998 127.206L70.9224 126.751C70.9814 126.871 71.0166 127.001 71.0258 127.135L69.998 127.206ZM69.1767 127.628L68.1871 127.915C67.9076 126.951 67.3771 126.273 66.6555 125.917L67.1119 124.993L67.5682 124.069C68.9141 124.734 69.7619 125.946 70.1663 127.341L69.1767 127.628ZM67.1119 124.993L66.6555 125.917C66.5955 125.887 66.5457 125.877 66.4668 125.888C66.3677 125.902 66.1941 125.955 65.9223 126.121L65.3864 125.241L64.8505 124.361C65.7061 123.84 66.6388 123.61 67.5682 124.069L67.1119 124.993ZM65.3864 125.241L65.9223 126.121C65.3677 126.458 64.6248 127.189 64.2665 127.747L63.3992 127.191L62.5319 126.635C63.0546 125.82 64.0216 124.865 64.8505 124.361L65.3864 125.241ZM63.3992 127.191L64.2665 127.747C64.1097 127.992 64.0581 128.161 64.0403 128.266C64.0229 128.368 64.0296 128.454 64.0504 128.548L63.0443 128.77L62.0382 128.993C61.8961 128.349 61.9374 127.562 62.5319 126.635L63.3992 127.191ZM63.0443 128.77L64.0504 128.548C64.0854 128.706 64.2002 128.894 64.5183 129.098C64.8433 129.307 65.3012 129.477 65.8375 129.6C66.9266 129.85 68.0433 129.843 68.3305 129.801L68.4798 130.82L68.6291 131.84C68.0535 131.924 66.6771 131.907 65.3764 131.609C64.7178 131.458 64.0066 131.219 63.4052 130.833C62.7968 130.442 62.2278 129.85 62.0382 128.993L63.0443 128.77ZM68.4798 130.82L67.6459 130.215C68.0643 129.639 68.4155 128.962 68.6551 128.362C68.7744 128.063 68.8602 127.798 68.9127 127.588C68.971 127.354 68.9691 127.262 68.9701 127.278L69.998 127.206L71.0258 127.135C71.0477 127.448 70.9855 127.792 70.912 128.087C70.8327 128.405 70.7151 128.76 70.5688 129.126C70.2773 129.856 69.8487 130.688 69.3136 131.426L68.4798 130.82ZM69.998 127.206L69.0736 127.662C69.1034 127.722 69.1344 127.754 69.1414 127.761C69.1475 127.767 69.1392 127.758 69.104 127.735C69.0693 127.712 69.0213 127.684 68.9539 127.648C68.8858 127.612 68.812 127.575 68.7213 127.531L69.1767 126.606L69.6321 125.682C69.7937 125.762 70.0297 125.876 70.2398 126.015C70.4455 126.151 70.7403 126.381 70.9224 126.751L69.998 127.206Z" fill="black"/>
<path d="M37.9924 108.204L38.7499 107.505L37.9924 108.204ZM35.1403 108.496L34.6811 107.573L35.1403 108.496ZM34 112.976L32.9866 113.163C32.9737 113.092 32.9681 113.021 32.97 112.949L34 112.976ZM40 114.854L38.9806 115.003C38.7352 113.332 38.4513 111.95 38.1357 110.89C37.8092 109.794 37.4853 109.174 37.235 108.902L37.9924 108.204L38.7499 107.505C39.3366 108.141 39.7673 109.149 40.1107 110.302C40.465 111.492 40.7663 112.98 41.0194 114.704L40 114.854ZM37.9924 108.204L37.235 108.902C37.2323 108.899 37.2352 108.897 37.2078 108.891C37.1635 108.882 37.0664 108.876 36.8966 108.909C36.5411 108.978 36.101 109.168 35.5996 109.418L35.1403 108.496L34.6811 107.573C35.1854 107.322 35.8463 107.014 36.5029 106.886C37.1637 106.758 38.0725 106.771 38.7499 107.505L37.9924 108.204ZM35.1403 108.496L35.5996 109.418C35.6121 109.412 35.5472 109.437 35.4526 109.632C35.3583 109.826 35.2739 110.11 35.208 110.486C35.0753 111.243 35.0526 112.151 35.03 113.004L34 112.976L32.97 112.949C32.9915 112.139 33.0141 111.068 33.1782 110.131C33.2607 109.66 33.3875 109.168 33.5985 108.733C33.8093 108.298 34.1437 107.841 34.6811 107.573L35.1403 108.496ZM34 112.976L35.0134 112.79C35.0274 112.866 35.0448 112.906 35.0547 112.924C35.0638 112.941 35.0752 112.957 35.0975 112.977C35.1545 113.029 35.2834 113.112 35.596 113.224L35.2498 114.194L34.9037 115.164C34.5039 115.022 34.069 114.828 33.7096 114.5C33.3195 114.145 33.0845 113.695 32.9866 113.163L34 112.976ZM35.2498 114.194L35.596 113.224C36.2094 113.442 37.1211 113.63 38.4015 113.836L38.2379 114.854L38.0742 115.871C36.7971 115.665 35.715 115.454 34.9037 115.164L35.2498 114.194Z" fill="black"/>
<path d="M74.7699 133.279L74.2364 132.397L74.7699 133.279ZM63.9164 139.104L64.5348 139.929C64.5006 139.954 64.4649 139.978 64.4278 139.999L63.9164 139.104ZM89 125.854L89.3319 126.829C86.1578 127.909 81.5301 130.391 75.3034 134.16L74.7699 133.279L74.2364 132.397C80.4517 128.635 85.2553 126.039 88.6681 124.878L89 125.854ZM74.7699 133.279L75.3034 134.16C72.1357 136.077 69.569 137.418 67.7077 138.344C66.7837 138.804 66.0203 139.168 65.4737 139.435C65.1954 139.572 64.9757 139.681 64.8077 139.771C64.7241 139.815 64.6593 139.852 64.6102 139.881C64.5859 139.895 64.5675 139.907 64.5541 139.915C64.5404 139.924 64.5347 139.929 64.5348 139.929L63.9164 139.104L63.2981 138.28C63.5678 138.078 64.0487 137.838 64.5683 137.584C65.1409 137.304 65.871 136.956 66.7896 136.499C68.6135 135.592 71.1284 134.278 74.2364 132.397L74.7699 133.279ZM63.9164 139.104L64.4278 139.999C64.1643 140.15 63.87 140.278 63.6304 140.384C63.3721 140.498 63.1483 140.598 62.939 140.714L62.4402 139.812L61.9414 138.91C62.2436 138.743 62.55 138.608 62.7979 138.499C63.0646 138.381 63.2528 138.297 63.4051 138.21L63.9164 139.104ZM62.4402 139.812L62.939 140.714C62.5226 140.944 62.1364 141.256 61.6517 141.652L61 140.854L60.3483 140.056C60.8062 139.681 61.3348 139.246 61.9414 138.91L62.4402 139.812Z" fill="black"/>
<path d="M61 140.854L60.0233 141.182C60.0107 141.144 60.0135 141.155 60.0197 141.168C60.0281 141.187 60.035 141.197 60.033 141.194C60.0212 141.177 59.9621 141.098 59.773 140.918C59.3937 140.557 58.6341 139.921 57.0839 138.732L57.7113 137.914L58.3386 137.097C59.8893 138.287 60.7271 138.981 61.1935 139.425C61.4272 139.648 61.6031 139.84 61.7322 140.028C61.8829 140.248 61.9424 140.423 61.9767 140.525L61 140.854ZM57.7113 137.914L57.0839 138.732C53.9959 136.361 47.9028 131.897 44.2989 129.368L44.8908 128.525L45.4827 127.681C49.108 130.226 55.2249 134.707 58.3386 137.097L57.7113 137.914ZM44.8908 128.525L44.2989 129.368C40.7309 126.864 39.8326 126.421 37.1691 125.03L37.6459 124.117L38.1227 123.204C40.8412 124.623 41.8214 125.112 45.4827 127.681L44.8908 128.525ZM37.6459 124.117L37.1691 125.03C34.4695 123.621 30.0661 121.298 27.5595 120.006L28.0316 119.09L28.5036 118.174C31.0148 119.468 35.4402 121.803 38.1227 123.204L37.6459 124.117ZM28.0316 119.09L27.5595 120.006C25.0997 118.738 24.5317 118.504 23.3988 117.69L24 116.854L24.6012 116.017C25.5745 116.716 25.9457 116.855 28.5036 118.174L28.0316 119.09Z" fill="black"/>
<path d="M30.2729 111.224L29.7586 110.331C29.7737 110.322 29.789 110.314 29.8046 110.306L30.2729 111.224ZM23 115.854L22.2435 115.154C22.5098 114.866 22.918 114.548 23.3693 114.228C23.8381 113.896 24.4169 113.518 25.0701 113.11C26.3771 112.294 28.0212 111.332 29.7586 110.331L30.2729 111.224L30.7871 112.117C29.0516 113.116 27.435 114.063 26.1617 114.858C25.5247 115.256 24.9834 115.61 24.5607 115.909C24.1206 116.221 23.8659 116.435 23.7565 116.553L23 115.854ZM30.2729 111.224L29.8046 110.306C30.5833 109.909 30.932 109.791 31.3426 109.679L31.6143 110.673L31.8859 111.667C31.628 111.737 31.4109 111.8 30.7411 112.142L30.2729 111.224ZM31.6143 110.673L31.3426 109.679C31.5169 109.632 31.5957 109.61 31.7072 109.553C31.8216 109.494 32.0066 109.375 32.2917 109.105L33 109.854L33.7083 110.602C33.3191 110.97 32.9784 111.216 32.6521 111.384C32.3229 111.554 32.0459 111.623 31.8859 111.667L31.6143 110.673Z" fill="black"/>
<path d="M86.5129 66.179L86.0779 67.113L86.5129 66.179ZM78.6052 62.6566L78.2595 63.6272V63.6272L78.6052 62.6566ZM74.7679 61.1659L74.4919 62.1586L74.7679 61.1659ZM67.1459 58.1626L66.7759 59.1243L66.768 59.1212L67.1459 58.1626ZM119 83.8535L118.281 84.5913C118.273 84.5835 118.26 84.5389 117.597 84.1405C116.933 83.7422 115.683 83.0275 113.251 81.6768L113.752 80.7761L114.252 79.8754C116.683 81.2256 117.96 81.9555 118.657 82.3736C119.353 82.7916 119.534 82.9353 119.719 83.1158L119 83.8535ZM113.752 80.7761L113.251 81.6768C108.393 78.9781 98.872 73.7726 93.5835 70.9354L94.0706 70.0274L94.5577 69.1195C99.8557 71.9618 109.386 77.1722 114.252 79.8754L113.752 80.7761ZM94.0706 70.0274L93.5835 70.9354C88.3082 68.1053 87.5533 67.8002 86.0779 67.113L86.5129 66.179L86.948 65.245C88.4566 65.9477 89.2464 66.2701 94.5577 69.1195L94.0706 70.0274ZM86.5129 66.179L86.0779 67.113C82.3513 65.3772 79.5305 64.08 78.2595 63.6272L78.6052 62.6566L78.951 61.686C80.3383 62.1802 83.2757 63.5345 86.948 65.245L86.5129 66.179ZM78.6052 62.6566L78.2595 63.6272C77.4965 63.3555 76.7872 63.047 76.1654 62.7843C75.5261 62.5143 74.9874 62.2964 74.4919 62.1586L74.7679 61.1659L75.0439 60.1732C75.6836 60.3511 76.3356 60.6192 76.9672 60.886C77.6162 61.1602 78.258 61.4392 78.951 61.686L78.6052 62.6566ZM74.7679 61.1659L74.4919 62.1586C73.8594 61.9827 72.8098 61.5575 71.536 61.0355C70.2294 60.5002 68.6151 59.8319 66.7759 59.1243L67.1459 58.1626L67.5159 57.201C69.3805 57.9185 71.0182 58.5964 72.3173 59.1287C73.649 59.6744 74.5586 60.0383 75.0439 60.1732L74.7679 61.1659ZM67.1459 58.1626L66.768 59.1212C65.3604 58.5663 64.9527 58.3685 64.6671 58.2444L65.0776 57.2994L65.4881 56.3544C65.7934 56.487 66.158 56.6657 67.5238 57.2041L67.1459 58.1626ZM65.0776 57.2994L64.6671 58.2444C64.5368 58.1879 64.433 58.1473 64.266 58.0804C64.1008 58.0143 63.8963 57.9313 63.5909 57.7992L64 56.8535L64.4091 55.9079C64.6927 56.0306 64.8792 56.1063 65.0318 56.1673C65.1824 56.2276 65.3229 56.2826 65.4881 56.3544L65.0776 57.2994Z" fill="black"/>
<path d="M62 56.8535L62.3187 57.8333C59.9841 58.5928 57.6958 59.3378 55.2214 60.4023L54.8142 59.4559L54.407 58.5094C56.9802 57.4024 59.3539 56.6308 61.6813 55.8737L62 56.8535ZM54.8142 59.4559L55.2214 60.4023C52.7343 61.4723 50.132 62.8399 47.9245 63.948L47.4623 63.0271L47 62.1063C49.1567 61.0237 51.8464 59.6109 54.407 58.5094L54.8142 59.4559ZM47.4623 63.0271L47.9245 63.948C45.7297 65.0497 44.0744 65.8164 43.0837 66.2477L42.6724 65.303L42.2611 64.3583C43.21 63.9452 44.8307 63.1952 47 62.1063L47.4623 63.0271ZM42.6724 65.303L43.0837 66.2477C42.0746 66.687 41.7271 66.7895 41.1474 66.8733L41 65.8535L40.8526 64.8338C41.0473 64.8056 41.162 64.7836 41.3284 64.7306C41.516 64.6707 41.7811 64.5673 42.2611 64.3583L42.6724 65.303Z" fill="black"/>
<path d="M64.9012 59.97L63.9503 60.3666V60.3666L64.9012 59.97ZM64.7258 61.1669L65.4893 61.8588L64.7258 61.1669ZM61.3838 61.7181L61.5791 60.7065L61.3838 61.7181ZM61.1034 60.5995L60.1393 60.2362C60.1621 60.1756 60.1906 60.1173 60.2243 60.0621L61.1034 60.5995ZM64.2618 58.8535L64.1748 57.8269C64.2288 57.8223 64.283 57.822 64.337 57.8259L64.2618 58.8535ZM64.3007 58.8894L63.2703 58.8894C63.2703 58.8277 63.2742 58.6839 63.335 58.5167C63.3986 58.3416 63.5799 58.0099 64.0009 57.8767C64.3822 57.756 64.689 57.8894 64.8002 57.9472C64.9278 58.0136 65.0147 58.0918 65.0556 58.1309C65.1996 58.2686 65.3036 58.4429 65.355 58.531C65.4927 58.7667 65.663 59.1197 65.8522 59.5734L64.9012 59.97L63.9503 60.3666C63.7777 59.9528 63.6477 59.6937 63.5755 59.5702C63.5221 59.4786 63.5438 59.5365 63.6316 59.6205C63.6585 59.6462 63.733 59.715 63.85 59.7758C63.9505 59.828 64.2483 59.9598 64.6224 59.8414C65.0361 59.7105 65.212 59.385 65.2719 59.22C65.329 59.0629 65.331 58.9331 65.331 58.8894L64.3007 58.8894ZM64.9012 59.97L65.8522 59.5734C66.155 60.2996 66.0935 61.1919 65.4893 61.8588L64.7258 61.1669L63.9622 60.4751C63.9645 60.4726 63.9657 60.4709 63.9663 60.4701C63.9668 60.4693 63.967 60.4688 63.9671 60.4685C63.9672 60.4684 63.9682 60.4663 63.9689 60.4609C63.9704 60.4499 63.9714 60.4174 63.9503 60.3666L64.9012 59.97ZM64.7258 61.1669L65.4893 61.8588C64.878 62.5334 64.0282 62.7786 63.3023 62.854C62.5626 62.9309 61.8033 62.8485 61.1886 62.7298L61.3838 61.7181L61.5791 60.7065C62.0795 60.803 62.6216 60.8529 63.0893 60.8044C63.5708 60.7543 63.8343 60.6163 63.9622 60.4751L64.7258 61.1669ZM61.3838 61.7181L61.1886 62.7298C60.4314 62.5836 60.0905 61.9778 60.0014 61.4901C59.9197 61.0434 60.0061 60.5896 60.1393 60.2362L61.1034 60.5995L62.0676 60.9627C62.049 61.0121 62.0378 61.0591 62.033 61.0959C62.0278 61.1353 62.0326 61.1421 62.0285 61.1196C62.0246 61.0983 62.0049 61.0107 61.9212 60.9113C61.8262 60.7983 61.6975 60.7293 61.5791 60.7065L61.3838 61.7181ZM61.1034 60.5995L60.2243 60.0621C61.0333 58.7386 62.641 57.9568 64.1748 57.8269L64.2618 58.8535L64.3488 59.8802C63.2904 59.9698 62.3657 60.51 61.9826 61.1368L61.1034 60.5995ZM64.2618 58.8535L64.337 57.8259C64.5185 57.8392 64.7562 57.8755 64.9941 57.9929C65.2581 58.1232 65.4595 58.3217 65.5964 58.5611C65.7186 58.7745 65.773 58.9921 65.8036 59.1534C65.8348 59.3183 65.8537 59.4973 65.8692 59.663L64.8433 59.7591L63.8175 59.8552C63.8023 59.6926 63.7905 59.5984 63.779 59.5373C63.7667 59.4725 63.7658 59.511 63.8078 59.5844C63.8319 59.6264 63.8684 59.6774 63.9208 59.7274C63.9737 59.7779 64.03 59.8151 64.0823 59.8409C64.1777 59.8879 64.2352 59.8847 64.1865 59.8811L64.2618 58.8535Z" fill="black"/>
<path d="M10 65.8535L9.32157 66.629C7.81468 65.3106 6.33794 64.0191 5.10453 63.0532L5.73977 62.242L6.37502 61.4308C7.66206 62.4387 9.18532 63.7718 10.6784 65.0781L10 65.8535ZM5.73977 62.242L5.10453 63.0532C4.49031 62.5722 3.94979 62.1834 3.42476 61.7973C2.90581 61.4156 2.40282 61.0371 1.90971 60.6038L2.58977 59.8298L3.26984 59.0558C3.6915 59.4262 4.13339 59.7604 4.64569 60.1372C5.15192 60.5095 5.72901 60.9249 6.37502 61.4308L5.73977 62.242ZM2.58977 59.8298L1.90971 60.6038C0.916454 59.7312 0.0389041 58.6968 -0.842085 57.4472L0 56.8535L0.842085 56.2598C1.6611 57.4214 2.43355 58.321 3.26984 59.0558L2.58977 59.8298Z" fill="black"/>
<path d="M8 67.8535L8.42181 68.7936C7.73732 69.1007 7.02996 69.4182 5.92622 69.8171L5.576 68.8481L5.22578 67.8791C6.25461 67.5073 6.90497 67.2156 7.57819 66.9135L8 67.8535ZM5.576 68.8481L5.92622 69.8171C4.87269 70.1979 3.35445 70.6847 2.41364 71.0129L2.07429 70.0401L1.73494 69.0672C2.79869 68.6961 4.14674 68.2691 5.22578 67.8791L5.576 68.8481ZM2.07429 70.0401L2.41364 71.0129C1.44503 71.3508 0.942746 71.5683 0.409162 71.7991L1.31134e-07 70.8535L-0.409162 69.9079C0.145255 69.668 0.698971 69.4286 1.73494 69.0672L2.07429 70.0401Z" fill="black"/>
<path d="M38.0568 99.3993L37.5617 100.303V100.303L38.0568 99.3993ZM45 102.854L45 103.884C44.842 103.884 44.7077 103.849 44.6549 103.835C44.5811 103.816 44.5069 103.792 44.4387 103.767C44.3011 103.718 44.1365 103.652 43.9532 103.573C43.5837 103.413 43.0887 103.182 42.4857 102.885C41.2771 102.291 39.6011 101.42 37.5617 100.303L38.0568 99.3993L38.552 98.4957C40.5724 99.6028 42.2204 100.459 43.3946 101.036C43.983 101.325 44.4442 101.54 44.7698 101.681C44.934 101.752 45.0518 101.798 45.1281 101.825C45.1668 101.839 45.1825 101.843 45.181 101.843C45.1799 101.843 45.1662 101.839 45.1433 101.835C45.1246 101.832 45.0721 101.823 45 101.823L45 102.854ZM38.0568 99.3993L37.5617 100.303C36.6605 99.809 35.9863 99.3243 35.3725 98.7125C34.7719 98.1138 34.257 97.42 33.6572 96.5594L34.5025 95.9702L35.3478 95.3811C35.9402 96.2311 36.3667 96.7939 36.8273 97.253C37.2747 97.699 37.7815 98.0735 38.552 98.4957L38.0568 99.3993ZM34.5025 95.9702L33.6572 96.5594C32.4704 94.8565 30.7752 92.0739 29.6962 90.4493L30.5545 89.8793L31.4128 89.3092C32.5975 91.0929 34.1501 93.6626 35.3478 95.3811L34.5025 95.9702ZM30.5545 89.8793L29.6962 90.4493C28.5957 88.7925 28.0727 88.2355 27.3534 87.6557L28 86.8535L28.6466 86.0513C29.5915 86.8129 30.2495 87.5579 31.4128 89.3092L30.5545 89.8793Z" fill="black"/>
<path d="M13.1072 78.7669L13.5326 77.8284L13.5424 77.833L13.1072 78.7669ZM19 81.8535L18.0921 82.3407C18.1764 82.4978 18.2742 82.5621 18.2227 82.5199C18.1999 82.5012 18.1459 82.461 18.0452 82.3964C17.8459 82.2684 17.5322 82.0879 17.0739 81.845C16.1613 81.3615 14.7432 80.6661 12.672 79.7008L13.1072 78.7669L13.5424 77.833C15.6232 78.8028 17.0791 79.5157 18.0387 80.0242C18.5164 80.2773 18.8884 80.4888 19.1588 80.6625C19.293 80.7487 19.4199 80.8368 19.5283 80.9256C19.608 80.9908 19.7874 81.1417 19.9079 81.3664L19 81.8535ZM13.1072 78.7669L12.6818 79.7054C10.0738 78.5232 6.34898 76.8895 4.10667 75.8124L4.55281 74.8836L4.99894 73.9549C7.21492 75.0194 10.8789 76.6257 13.5326 77.8285L13.1072 78.7669ZM4.55281 74.8836L4.10667 75.8124C1.82273 74.7153 1.11765 74.2113 0.39536 73.6878L1 72.8535L1.60464 72.0192C2.22577 72.4694 2.82459 72.9104 4.99894 73.9549L4.55281 74.8836Z" fill="black"/>
<path d="M28 86.8535L27.2468 87.5565C27.182 87.4871 27.1378 87.4393 27.0302 87.3492C26.9093 87.248 26.7056 87.0917 26.3302 86.8298L26.9197 85.9848L27.5091 85.1397C28.3197 85.7051 28.5348 85.9165 28.7532 86.1505L28 86.8535ZM26.9197 85.9848L26.3302 86.8298C25.5728 86.3015 24.2234 85.4191 23.1742 84.8546L23.6623 83.9473L24.1505 83.0399C25.2992 83.6579 26.7218 84.5905 27.5091 85.1397L26.9197 85.9848ZM23.6623 83.9473L23.1742 84.8546C22.1607 84.3094 21.4637 84.0848 20.6847 83.8344L21 82.8535L21.3153 81.8726C22.1229 82.1322 22.966 82.4026 24.1505 83.0399L23.6623 83.9473Z" fill="black"/>
<path d="M63.4591 106.414L62.6241 107.018L63.4591 106.414ZM64.6557 106.908L65.3842 106.179C65.4362 106.231 65.4826 106.289 65.5224 106.351L64.6557 106.908ZM65.458 111.146L66.4881 111.171C66.4878 111.18 66.4875 111.19 66.487 111.2L65.458 111.146ZM66 117.854L64.9844 118.027C64.6903 116.308 64.2998 113.809 63.86 111.555C63.6405 110.43 63.413 109.388 63.1851 108.555C63.0711 108.139 62.9609 107.788 62.8563 107.512C62.7462 107.222 62.6639 107.073 62.6241 107.018L63.4591 106.414L64.2942 105.81C64.4941 106.087 64.6528 106.438 64.7832 106.782C64.9192 107.141 65.049 107.559 65.1728 108.012C65.4205 108.917 65.6593 110.016 65.8826 111.16C66.3284 113.446 66.7289 116.003 67.0156 117.68L66 117.854ZM63.4591 106.414L62.6241 107.018C62.5457 106.909 62.4627 106.83 62.324 106.678C62.2967 106.649 62.2528 106.6 62.2109 106.545C62.1897 106.518 62.1569 106.474 62.1236 106.418C62.097 106.373 62.0324 106.259 61.9963 106.102C61.9605 105.945 61.9192 105.577 62.1861 105.23C62.4384 104.903 62.7798 104.842 62.9077 104.829C63.1464 104.804 63.3462 104.87 63.373 104.878L63.0786 105.865L62.7842 106.853C62.7914 106.855 62.8192 106.863 62.8605 106.87C62.8912 106.876 62.9909 106.892 63.1225 106.879C63.2379 106.866 63.5708 106.81 63.8184 106.488C64.0806 106.148 64.0384 105.788 64.005 105.642C63.9713 105.495 63.9125 105.394 63.8947 105.364C63.8702 105.323 63.8492 105.296 63.8425 105.287C63.8294 105.27 63.8251 105.266 63.8449 105.288C63.895 105.343 64.1237 105.574 64.2942 105.81L63.4591 106.414ZM63.0786 105.865L63.373 104.878C63.6378 104.957 64.0056 105.156 64.3146 105.35C64.651 105.561 65.0549 105.85 65.3842 106.179L64.6557 106.908L63.9273 107.637C63.7483 107.458 63.4852 107.262 63.2207 107.096C63.0927 107.016 62.976 106.95 62.8848 106.903C62.7767 106.848 62.7494 106.842 62.7842 106.853L63.0786 105.865ZM64.6557 106.908L65.5224 106.351C66.3748 107.677 66.5301 109.432 66.4881 111.171L65.458 111.146L64.428 111.121C64.4686 109.441 64.2834 108.234 63.789 107.465L64.6557 106.908ZM65.458 111.146L66.487 111.2C66.4432 112.03 66.3554 112.684 66.2702 113.319L65.249 113.182L64.2278 113.046C64.3129 112.41 64.3902 111.831 64.4291 111.092L65.458 111.146Z" fill="black"/>
<path d="M150.531 142.829L151.218 143.596L150.531 142.829ZM119.304 169.365L119.974 170.148L119.304 169.365ZM105.654 180.364L106.344 181.129V181.129L105.654 180.364ZM92.7602 189.388L93.3566 190.228V190.228L92.7602 189.388ZM83.568 196.568L84.252 197.339L83.568 196.568ZM68.5069 204.52L68.2919 203.512L68.5069 204.52ZM57.1316 202.388L57.672 201.51L57.1316 202.388ZM46.0819 193.409L45.3431 194.127V194.127L46.0819 193.409ZM33.5703 182.037L32.9021 182.822L33.5703 182.037ZM27.3856 177.466L27.9885 176.63L27.3856 177.466ZM12.5525 166.776L12.0031 167.648C11.9777 167.632 11.9531 167.614 11.9292 167.596L12.5525 166.776ZM3.27848 160.472L3.81971 159.596C3.82398 159.598 3.82823 159.601 3.83246 159.604L3.27848 160.472ZM161 132.854L162.03 132.854C162.03 133.088 161.951 133.263 161.928 133.313C161.894 133.389 161.856 133.452 161.829 133.494C161.773 133.58 161.708 133.665 161.647 133.74C161.521 133.894 161.348 134.088 161.134 134.315C160.703 134.772 160.061 135.415 159.201 136.245C157.478 137.907 154.85 140.346 151.218 143.596L150.531 142.829L149.844 142.061C153.465 138.82 156.072 136.4 157.77 134.762C158.62 133.942 159.236 133.324 159.634 132.901C159.836 132.688 159.97 132.537 160.048 132.44C160.089 132.389 160.1 132.372 160.096 132.379C160.094 132.382 160.075 132.411 160.053 132.46C160.042 132.482 159.97 132.636 159.97 132.854L161 132.854ZM150.531 142.829L151.218 143.596C149.225 145.38 147.002 147.15 144.597 149.054C142.186 150.963 139.584 153.014 136.798 155.38L136.131 154.594L135.464 153.809C138.282 151.416 140.913 149.343 143.318 147.439C145.73 145.529 147.905 143.796 149.844 142.061L150.531 142.829ZM136.131 154.594L136.798 155.38C134.006 157.75 131.038 160.383 128.145 162.955C125.257 165.523 122.443 168.034 119.974 170.148L119.304 169.365L118.634 168.583C121.084 166.484 123.881 163.989 126.776 161.415C129.667 158.844 132.652 156.197 135.464 153.809L136.131 154.594ZM119.304 169.365L119.974 170.148C115.927 173.613 112.826 176.08 110.573 177.829C108.28 179.608 106.955 180.578 106.344 181.129L105.654 180.364L104.964 179.599C105.649 178.98 107.117 177.903 109.309 176.201C111.541 174.469 114.617 172.022 118.634 168.583L119.304 169.365ZM105.654 180.364L106.344 181.129C105.689 181.72 104.055 182.842 101.855 184.344C99.6133 185.875 96.6923 187.86 93.3566 190.228L92.7602 189.388L92.1637 188.548C95.5176 186.166 98.455 184.17 100.693 182.642C102.974 181.085 104.442 180.069 104.964 179.599L105.654 180.364ZM92.7602 189.388L93.3566 190.228C89.2528 193.141 87.0729 194.834 84.252 197.339L83.568 196.568L82.8839 195.798C85.7779 193.229 88.0213 191.488 92.1637 188.548L92.7602 189.388ZM83.568 196.568L84.252 197.339C78.9795 202.019 74.7684 204.238 68.7218 205.528L68.5069 204.52L68.2919 203.512C73.9441 202.307 77.8405 200.275 82.8839 195.798L83.568 196.568ZM68.5069 204.52L68.7218 205.528C63.4455 206.653 59.2411 204.897 56.5912 203.265L57.1316 202.388L57.672 201.51C60.0626 202.983 63.719 204.488 68.2919 203.512L68.5069 204.52ZM57.1316 202.388L56.5912 203.265C51.8786 200.362 47.7808 196.634 45.3431 194.127L46.0819 193.409L46.8207 192.69C49.1857 195.123 53.1514 198.726 57.672 201.51L57.1316 202.388ZM46.0819 193.409L45.3431 194.127C43.7944 192.534 39.3805 188.34 32.9021 182.822L33.5703 182.037L34.2384 181.253C40.7452 186.795 45.2114 191.035 46.8207 192.69L46.0819 193.409ZM33.5703 182.037L32.9021 182.822C30.4788 180.757 29.6296 180.355 26.7827 178.301L27.3856 177.466L27.9885 176.63C30.7005 178.587 31.7332 179.119 34.2384 181.253L33.5703 182.037ZM27.3856 177.466L26.7827 178.301C19.2613 172.874 13.7174 168.728 12.0031 167.648L12.5525 166.776L13.102 165.904C14.8884 167.03 20.5565 171.268 27.9885 176.63L27.3856 177.466ZM12.5525 166.776L11.9292 167.596C10.3387 166.388 6.99658 164.065 2.72449 161.341L3.27848 160.472L3.83246 159.604C8.12885 162.343 11.523 164.7 13.1759 165.956L12.5525 166.776ZM3.27848 160.472L2.73724 161.349C1.05814 160.312 0.314142 159.94 -0.461475 159.552L1.12676e-06 158.631L0.461478 157.71C1.27637 158.118 2.0761 158.519 3.81971 159.596L3.27848 160.472Z" fill="black"/>
<path d="M112.639 188.448L112.038 187.611V187.611L112.639 188.448ZM101.443 196.31L100.926 195.418L101.443 196.31ZM93.662 201.743L93.0727 200.898L93.662 201.743ZM79.6184 212.37L78.9887 211.555L79.6184 212.37ZM69.7414 218.008L69.3837 217.042L69.7414 218.008ZM61.9332 218.213L61.5915 219.185L61.9332 218.213ZM47.9864 208.213L48.6674 207.44L47.9864 208.213ZM34.4891 198.787L35.0101 197.898V197.898L34.4891 198.787ZM27.7385 194.583L27.1958 195.459V195.459L27.7385 194.583ZM13.6969 186.417L13.163 187.298C13.1441 187.287 13.1256 187.275 13.1075 187.262L13.6969 186.417ZM2.27216 178.004L1.63731 178.815C1.63082 178.81 1.62439 178.805 1.61803 178.8L2.27216 178.004ZM160 152.854L160.731 153.58C160.425 153.888 160.115 154.186 156.677 156.941L156.033 156.137L155.389 155.333C158.862 152.55 159.064 152.334 159.269 152.127L160 152.854ZM156.033 156.137L156.677 156.941C153.22 159.712 146.566 164.991 142.685 167.972L142.057 167.154L141.43 166.337C145.293 163.37 151.934 158.102 155.389 155.333L156.033 156.137ZM142.057 167.154L142.685 167.972C138.795 170.959 137.864 171.499 132.763 175.154L132.163 174.316L131.563 173.479C136.716 169.786 137.575 169.298 141.43 166.337L142.057 167.154ZM132.163 174.316L132.763 175.154C127.622 178.837 118.33 185.626 113.241 189.284L112.639 188.448L112.038 187.611C117.076 183.989 126.449 177.143 131.563 173.479L132.163 174.316ZM112.639 188.448L113.241 189.284C106.855 193.876 104.16 195.924 101.96 197.201L101.443 196.31L100.926 195.418C103.01 194.209 105.56 192.269 112.038 187.611L112.639 188.448ZM101.443 196.31L101.96 197.201C99.6184 198.56 98.321 199.751 94.2513 202.588L93.662 201.743L93.0727 200.898C96.941 198.201 98.4983 196.827 100.926 195.418L101.443 196.31ZM93.662 201.743L94.2513 202.588C90.6269 205.115 83.9469 210.33 80.2481 213.186L79.6184 212.37L78.9887 211.555C82.6546 208.724 89.3946 203.462 93.0727 200.898L93.662 201.743ZM79.6184 212.37L80.2481 213.186C74.8999 217.315 72.0938 218.236 70.0992 218.975L69.7414 218.008L69.3837 217.042C71.2631 216.346 73.8618 215.514 78.9887 211.555L79.6184 212.37ZM69.7414 218.008L70.0992 218.975C67.9976 219.753 65.2065 220.456 61.5915 219.185L61.9332 218.213L62.2749 217.241C65.2575 218.289 67.5152 217.734 69.3837 217.042L69.7414 218.008ZM61.9332 218.213L61.5915 219.185C59.4632 218.437 57.0577 216.9 54.6386 215.082C52.2032 213.251 49.6773 211.075 47.3055 208.986L47.9864 208.213L48.6674 207.44C51.0356 209.526 53.5102 211.656 55.8768 213.435C58.2596 215.226 60.4575 216.602 62.2749 217.241L61.9332 218.213ZM47.9864 208.213L47.3055 208.986C45.3922 207.301 38.7494 202.478 33.9681 199.675L34.4891 198.787L35.0101 197.898C39.8792 200.751 46.6348 205.65 48.6674 207.44L47.9864 208.213ZM34.4891 198.787L33.9681 199.675C32.6866 198.924 31.3257 198.017 27.1958 195.459L27.7385 194.583L28.2812 193.707C32.4806 196.309 33.7522 197.16 35.0101 197.898L34.4891 198.787ZM27.7385 194.583L27.1958 195.459C25.4784 194.395 23.0175 192.988 20.4511 191.525C17.8952 190.067 15.2394 188.556 13.163 187.298L13.6969 186.417L14.2307 185.536C16.2783 186.776 18.9064 188.272 21.4718 189.735C24.0267 191.191 26.5247 192.619 28.2812 193.707L27.7385 194.583ZM13.6969 186.417L13.1075 187.262C5.20136 181.749 3.38153 180.18 1.63731 178.815L2.27216 178.004L2.907 177.192C4.64559 178.552 6.42866 180.093 14.2862 185.572L13.6969 186.417ZM2.27216 178.004L1.61803 178.8C0.863703 178.18 0.540919 177.846 -0.575249 177.095L1.02226e-06 176.24L0.575251 175.385C1.79903 176.209 2.24332 176.646 2.92628 177.208L2.27216 178.004Z" fill="black"/>
<path d="M31.9878 41.5348L30.9591 41.5927L31.9878 41.5348ZM28.3472 35.236L28.8077 34.3143C28.8761 34.3485 28.9405 34.3902 28.9997 34.4387L28.3472 35.236ZM23.511 33.1473L23.7712 32.1503C23.7983 32.1574 23.8251 32.1656 23.8515 32.1748L23.511 33.1473ZM27.5906 51.8535L26.7423 51.2687C29.7426 46.9166 31.1055 44.1951 30.9591 41.5927L31.9878 41.5348L33.0165 41.4769C33.2075 44.8719 31.4017 48.1405 28.4389 52.4383L27.5906 51.8535ZM31.9878 41.5348L30.9591 41.5927C30.8127 38.9913 28.9165 37.0335 27.6946 36.0334L28.3472 35.236L28.9997 34.4387C30.3191 35.5186 32.8189 37.9653 33.0165 41.4769L31.9878 41.5348ZM28.3472 35.236L27.8866 36.1577C25.3371 34.8838 23.9709 34.4 23.1705 34.1197L23.511 33.1473L23.8515 32.1748C24.7146 32.477 26.1639 32.9933 28.8077 34.3143L28.3472 35.236ZM23.511 33.1473L23.2508 34.1442C22.8726 34.0455 22.3513 33.9667 20.9384 33.882L21 32.8535L21.0616 31.825C22.4853 31.9103 23.1819 31.9965 23.7712 32.1503L23.511 33.1473Z" fill="black"/>
<path d="M27.4052 38.0585L26.7059 38.8152V38.8152L27.4052 38.0585ZM30 42.8825L31.0045 42.6531C31.0214 42.7272 31.0301 42.803 31.0303 42.8789L30 42.8825ZM27.7361 47.1054L28.5128 47.7824C28.5042 47.7923 28.4954 47.802 28.4864 47.8116L27.7361 47.1054ZM20 35.8535L20.0342 34.8237C21.2993 34.8658 22.8263 35.0546 24.2613 35.4324C25.6705 35.8034 27.1164 36.3886 28.1045 37.3019L27.4052 38.0585L26.7059 38.8152C26.0865 38.2427 25.0288 37.7653 23.7367 37.4252C22.4704 37.0918 21.0985 36.9209 19.9658 36.8833L20 35.8535ZM27.4052 38.0585L28.1045 37.3019C29.7503 38.8229 30.6212 40.9743 31.0045 42.6531L30 42.8825L28.9955 43.1118C28.6635 41.6576 27.9342 39.9504 26.7059 38.8152L27.4052 38.0585ZM30 42.8825L31.0303 42.8789C31.0331 43.698 30.7557 44.507 30.3243 45.2947C29.8918 46.0845 29.2722 46.9111 28.5128 47.7824L27.7361 47.1054L26.9594 46.4284C27.6695 45.6137 28.1839 44.9129 28.5169 44.3049C28.8511 43.6947 28.9708 43.2352 28.9696 42.886L30 42.8825ZM27.7361 47.1054L28.4864 47.8116C27.636 48.7151 26.9589 49.3047 25.8599 50.5388L25.0904 49.8535L24.321 49.1683C25.3974 47.9596 26.3118 47.1154 26.9858 46.3992L27.7361 47.1054Z" fill="black"/>
<path d="M19.2635 36.4385L18.2415 36.5698C18.2398 36.5562 18.2383 36.5426 18.2371 36.529L19.2635 36.4385ZM20.9608 47.6398L21.9776 47.4736C21.9808 47.4933 21.9835 47.5131 21.9856 47.5329L20.9608 47.6398ZM15 0.853523L16.004 0.62184C16.537 2.93176 17.0745 5.26028 17.6199 8.16458L16.6073 8.35477L15.5947 8.54497C15.0578 5.68676 14.5291 3.39529 13.996 1.08521L15 0.853523ZM16.6073 8.35477L17.6199 8.16458C18.167 11.077 18.7051 14.4946 19.1352 19.658L18.1085 19.7435L17.0817 19.8291C16.658 14.7425 16.13 11.395 15.5947 8.54497L16.6073 8.35477ZM18.1085 19.7435L19.1352 19.658C19.3498 22.2336 19.5334 25.2182 19.7156 28.147C19.8983 31.0828 20.0795 33.9613 20.2898 36.3481L19.2635 36.4385L18.2371 36.529C18.024 34.1107 17.8412 31.2043 17.6589 28.275C17.4762 25.3388 17.294 22.3784 17.0817 19.8291L18.1085 19.7435ZM19.2635 36.4385L20.2854 36.3072C21.239 43.7289 21.8586 46.7453 21.9776 47.4736L20.9608 47.6398L19.9439 47.8059C19.8321 47.1218 19.201 44.0381 18.2415 36.5698L19.2635 36.4385ZM20.9608 47.6398L21.9856 47.5329C22.0314 47.9725 22.0303 48.4414 22.0303 48.8535L21 48.8535L19.9697 48.8535C19.9697 48.4157 19.9686 48.0595 19.936 47.7466L20.9608 47.6398Z" fill="black"/>
<path d="M22 33.8535L21.3441 34.6481C21.131 34.4723 20.9318 34.3071 20.4724 34.0004L21.0446 33.1435L21.6168 32.2867C22.1544 32.6456 22.4121 32.8576 22.6559 33.0589L22 33.8535ZM21.0446 33.1435L20.4724 34.0004C19.9924 33.6798 19.2492 33.2196 18.4577 32.7296L19 31.8535L19.5423 30.9775C20.3201 31.4589 21.0999 31.9415 21.6168 32.2867L21.0446 33.1435Z" fill="black"/>
<path d="M20 35.8535L20 34.8232C20.3068 34.8232 20.6103 34.8341 21.352 35.0186L21.1033 36.0185L20.8546 37.0184C20.5464 36.9417 20.3686 36.9104 20.2579 36.8966C20.1581 36.8841 20.1001 36.8839 20 36.8839L20 35.8535ZM21.1033 36.0185L21.352 35.0186C22.0454 35.1911 23.1752 35.5304 24.2961 35.8666L24 36.8535L23.7039 37.8404C22.5581 37.4967 21.4879 37.1759 20.8546 37.0184L21.1033 36.0185Z" fill="black"/>
<path d="M146.098 122.393L146.848 123.099C146.769 123.183 146.677 123.252 146.576 123.306L146.098 122.393ZM152.04 113.544L151.201 112.945C151.213 112.928 151.226 112.912 151.239 112.895L152.04 113.544ZM135 130.854L134.266 130.131C136.632 127.726 141.597 123.584 145.621 121.48L146.098 122.393L146.576 123.306C142.803 125.279 138.008 129.266 135.734 131.576L135 130.854ZM146.098 122.393L145.349 121.686C146.384 120.587 147.31 119.175 148.258 117.621C149.186 116.1 150.148 114.422 151.201 112.945L152.04 113.544L152.879 114.142C151.882 115.539 150.989 117.103 150.017 118.695C149.065 120.255 148.044 121.83 146.848 123.099L146.098 122.393ZM152.04 113.544L151.239 112.895C152.369 111.5 153.537 110.438 155.374 109.035L156 109.854L156.626 110.672C154.863 112.019 153.831 112.969 152.841 114.192L152.04 113.544Z" fill="black"/>
<path d="M59.9208 234.829L60.95 234.878L59.9208 234.829ZM58.0792 243.466L57.1085 243.121L58.0792 243.466ZM53.3821 256.815L52.3934 256.525L53.3821 256.815ZM52.1432 266.183L53.1716 266.247C53.1693 266.284 53.165 266.321 53.1587 266.357L52.1432 266.183ZM48.789 282.707L49.8022 282.894L49.8009 282.901L48.789 282.707ZM59.7513 219.854L60.781 219.818C61.0024 226.287 61.1186 231.341 60.95 234.878L59.9208 234.829L58.8917 234.78C59.0555 231.342 58.9434 226.373 58.7215 219.889L59.7513 219.854ZM59.9208 234.829L60.95 234.878C60.7646 238.768 59.8411 241.588 59.05 243.811L58.0792 243.466L57.1085 243.121C57.8753 240.965 58.7206 238.369 58.8917 234.78L59.9208 234.829ZM58.0792 243.466L59.05 243.811C57.783 247.372 55.8143 252.183 54.3708 257.105L53.3821 256.815L52.3934 256.525C53.8574 251.533 55.8875 246.552 57.1085 243.121L58.0792 243.466ZM53.3821 256.815L54.3708 257.105C53.4907 260.106 53.3952 262.618 53.1716 266.247L52.1432 266.183L51.1148 266.12C51.3343 262.558 51.4349 259.794 52.3934 256.525L53.3821 256.815ZM52.1432 266.183L53.1587 266.357C52.4284 270.618 51.782 273.709 51.2206 276.263C50.6571 278.825 50.1891 280.804 49.8021 282.894L48.789 282.707L47.7759 282.519C48.1712 280.384 48.6534 278.342 49.208 275.82C49.7646 273.289 50.4041 270.23 51.1276 266.009L52.1432 266.183ZM48.789 282.707L49.8009 282.901C49.4562 284.698 49.2421 285.664 49.0164 287.022L48 286.854L46.9836 286.685C47.2145 285.295 47.4436 284.252 47.7771 282.513L48.789 282.707Z" fill="black"/>
<path d="M149.187 273.012L148.244 272.598C148.343 272.371 148.52 272.188 148.743 272.082L149.187 273.012ZM145.311 283.845L146.237 284.296C146.235 284.302 146.232 284.307 146.229 284.313L145.311 283.845ZM159 270.854L159.059 271.882C155.314 272.098 151.912 272.854 149.63 273.942L149.187 273.012L148.743 272.082C151.347 270.84 155.036 270.049 158.941 269.825L159 270.854ZM149.187 273.012L150.13 273.426C149.439 275.001 148.757 277.098 148.097 279.136C147.455 281.122 146.818 283.102 146.237 284.296L145.311 283.845L144.384 283.394C144.886 282.364 145.471 280.559 146.137 278.501C146.787 276.494 147.502 274.288 148.244 272.598L149.187 273.012ZM145.311 283.845L146.229 284.313C145.91 284.939 145.536 285.542 144.818 286.48L144 285.854L143.182 285.227C143.841 284.365 144.143 283.868 144.393 283.377L145.311 283.845Z" fill="black"/>
<path d="M151.138 273.358L150.199 272.934L151.138 273.358ZM152.364 261.186L153.393 261.221L152.364 261.186ZM153.918 251.624L152.901 251.458C152.903 251.448 152.904 251.439 152.906 251.429L153.918 251.624ZM147 281.854L146.277 281.12C146.213 281.183 146.184 281.231 146.205 281.2C146.215 281.186 146.234 281.156 146.264 281.106C146.322 281.007 146.405 280.861 146.51 280.663C146.721 280.27 147.009 279.706 147.365 278.983C148.077 277.539 149.049 275.483 150.199 272.934L151.138 273.358L152.077 273.781C150.92 276.347 149.938 278.425 149.214 279.894C148.852 280.628 148.553 281.215 148.327 281.637C148.214 281.847 148.116 282.024 148.034 282.161C147.994 282.229 147.952 282.295 147.912 282.354C147.884 282.396 147.816 282.496 147.723 282.587L147 281.854ZM151.138 273.358L150.199 272.934C150.784 271.638 151.039 270.027 151.156 268.025C151.275 265.99 151.246 263.787 151.334 261.152L152.364 261.186L153.393 261.221C153.31 263.698 153.332 266.108 153.213 268.145C153.092 270.215 152.821 272.133 152.077 273.781L151.138 273.358ZM152.364 261.186L151.334 261.152C151.396 259.288 151.653 257.713 151.961 256.179C152.272 254.626 152.618 253.19 152.901 251.458L153.918 251.624L154.935 251.79C154.645 253.566 154.273 255.126 153.981 256.585C153.685 258.063 153.451 259.515 153.393 261.221L152.364 261.186ZM153.918 251.624L152.906 251.429C153.377 248.985 154.161 245.463 154.573 243.098L155.588 243.275L156.603 243.452C156.192 245.813 155.376 249.499 154.93 251.819L153.918 251.624ZM155.588 243.275L154.573 243.098C154.972 240.806 154.97 239.854 154.97 238.854L156 238.854L157.03 238.854C157.03 239.942 157.028 241.016 156.603 243.452L155.588 243.275Z" fill="black"/>
<path d="M43.0832 238.256L43.5807 237.354L43.0832 238.256ZM32.0334 228.408L32.799 227.719L32.801 227.721L32.0334 228.408ZM57 244.854L56.6156 245.809C52.1245 244.004 47.2298 241.719 42.5856 239.158L43.0832 238.256L43.5807 237.354C48.1469 239.872 52.9655 242.121 57.3844 243.898L57 244.854ZM43.0832 238.256L42.5856 239.158C36.2619 235.671 33.6823 231.794 31.2659 229.096L32.0334 228.408L32.801 227.721C35.3492 230.567 37.6452 234.081 43.5807 237.354L43.0832 238.256ZM32.0334 228.408L31.2678 229.098C31.0144 228.817 30.7597 228.572 30.5076 228.332C30.2708 228.107 30.0004 227.854 29.7872 227.606L30.5687 226.934L31.3502 226.263C31.4795 226.413 31.6588 226.583 31.9275 226.839C32.1808 227.079 32.4871 227.372 32.799 227.719L32.0334 228.408ZM30.5687 226.934L29.7872 227.606C29.3062 227.046 29.1443 226.546 29.022 226.178L30 225.854L30.978 225.529C31.0375 225.709 31.0753 225.819 31.1278 225.928C31.1752 226.027 31.2399 226.134 31.3502 226.263L30.5687 226.934Z" fill="black"/>
<path d="M30.0958 239.429L29.0748 239.291L30.0958 239.429ZM33.7426 251.624L34.6805 251.198L34.6812 251.199L33.7426 251.624ZM31.5551 224.854L32.5853 224.872C32.4806 230.686 31.8455 234.202 31.1167 239.568L30.0958 239.429L29.0748 239.291C29.8117 233.864 30.423 230.497 30.525 224.835L31.5551 224.854ZM30.0958 239.429L31.1167 239.568C30.8241 241.723 31.3073 243.777 32.0828 245.737C32.4705 246.716 32.925 247.657 33.3831 248.57C33.8336 249.468 34.3028 250.367 34.6805 251.198L33.7426 251.624L32.8047 252.051C32.4488 251.268 32.0139 250.436 31.5413 249.494C31.0763 248.568 30.5888 247.561 30.1667 246.495C29.3228 244.363 28.7162 241.932 29.0748 239.291L30.0958 239.429ZM33.7426 251.624L34.6812 251.199C34.8301 251.528 34.979 251.829 35.1214 252.115C35.26 252.392 35.4011 252.672 35.5163 252.924L34.5788 253.352L33.6412 253.779C33.5451 253.568 33.4255 253.331 33.2776 253.035C33.1334 252.746 32.9699 252.415 32.8041 252.049L33.7426 251.624ZM34.5788 253.352L35.5163 252.924C35.7739 253.49 35.9004 253.925 36.0185 254.698L35 254.854L33.9815 255.009C33.8866 254.389 33.8064 254.142 33.6412 253.779L34.5788 253.352Z" fill="black"/>
<path d="M23.8024 263.155L23.1874 262.329V262.329L23.8024 263.155ZM12.6781 274.448L13.2944 275.273C13.2334 275.319 13.1676 275.358 13.0981 275.389L12.6781 274.448ZM5.73379 277.23L5.44063 276.243C5.45552 276.238 5.47052 276.234 5.4856 276.23L5.73379 277.23ZM34 256.854L34.7633 257.546C34.3646 257.985 33.7728 258.37 33.1512 258.73C32.5126 259.101 31.7117 259.517 30.8383 259.985C29.0694 260.932 26.853 262.17 24.4174 263.982L23.8024 263.155L23.1874 262.329C25.7441 260.427 28.0645 259.133 29.8652 258.168C30.7766 257.68 31.5189 257.295 32.1176 256.948C32.7334 256.59 33.0733 256.342 33.2367 256.161L34 256.854ZM23.8024 263.155L24.4174 263.982C22.3075 265.551 20.5027 267.611 18.7219 269.692C16.9776 271.73 15.2216 273.835 13.2944 275.273L12.6781 274.448L12.0618 273.622C13.7627 272.353 15.3532 270.459 17.1563 268.352C18.9228 266.288 20.8661 264.055 23.1874 262.329L23.8024 263.155ZM12.6781 274.448L13.0981 275.389C8.78088 277.316 7.21972 277.923 5.98199 278.23L5.73379 277.23L5.4856 276.23C6.51325 275.975 7.9022 275.451 12.2582 273.507L12.6781 274.448ZM5.73379 277.23L6.02696 278.218C5.46721 278.384 4.83415 278.631 3.14671 278.873L3 277.854L2.85329 276.834C4.36804 276.616 4.85917 276.415 5.44063 276.243L5.73379 277.23Z" fill="black"/>
<path d="M28.4869 268.32L29.3238 268.922L28.4869 268.32ZM18.0214 278.537L18.621 279.375C18.6008 279.389 18.5801 279.403 18.5589 279.416L18.0214 278.537ZM8.06241 283.389L8.32796 284.384L8.31585 284.387L8.06241 283.389ZM35 255.854L35.9846 256.157C34.8203 259.932 32.7203 264.193 29.3238 268.922L28.4869 268.32L27.6501 267.719C30.9407 263.139 32.928 259.076 34.0154 255.55L35 255.854ZM28.4869 268.32L29.3238 268.922C25.5444 274.183 21.55 277.278 18.621 279.375L18.0214 278.537L17.4217 277.699C20.2688 275.661 24.0588 272.719 27.6501 267.719L28.4869 268.32ZM18.0214 278.537L18.5589 279.416C14.4114 281.952 10.6339 283.769 8.32794 284.384L8.06241 283.389L7.79689 282.393C9.8068 281.857 13.3782 280.169 17.4838 277.658L18.0214 278.537ZM8.06241 283.389L8.31585 284.387C7.37207 284.627 6.78993 284.745 6.20463 284.863L6 283.854L5.79537 282.844C6.37007 282.727 6.91381 282.617 7.80898 282.39L8.06241 283.389Z" fill="black"/>
<path d="M28.9171 214.837L28.0442 215.385V215.385L28.9171 214.837ZM22.8067 208.079L23.4552 207.278L22.8067 208.079ZM9.59747 200.237L9.1785 201.178C9.16119 201.171 9.14409 201.162 9.12723 201.154L9.59747 200.237ZM3.64042 197.589L3.29543 198.56C3.28718 198.557 3.27897 198.554 3.2708 198.551L3.64042 197.589ZM34 223.854L32.9697 223.854C32.9697 224.01 33.0152 224.078 32.9575 223.925C32.9195 223.824 32.8546 223.673 32.7557 223.465C32.5593 223.052 32.2558 222.471 31.8388 221.721C31.0067 220.224 29.7461 218.098 28.0442 215.385L28.9171 214.837L29.7899 214.29C31.5036 217.022 32.7844 219.181 33.6399 220.72C34.0668 221.488 34.3936 222.111 34.6165 222.58C34.7273 222.813 34.8193 223.022 34.8859 223.198C34.9327 223.323 35.0303 223.585 35.0303 223.854L34 223.854ZM28.9171 214.837L28.0442 215.385C26.4703 212.875 24.6671 210.911 22.1583 208.879L22.8067 208.079L23.4552 207.278C26.1135 209.431 28.0782 211.561 29.7899 214.29L28.9171 214.837ZM22.8067 208.079L22.1583 208.879C16.6764 204.44 11.69 202.296 9.1785 201.178L9.59747 200.237L10.0164 199.296C12.5475 200.422 17.7482 202.656 23.4552 207.278L22.8067 208.079ZM9.59747 200.237L9.12723 201.154C6.96523 200.045 4.97745 199.158 3.29543 198.56L3.64042 197.589L3.98541 196.618C5.7796 197.256 7.85414 198.185 10.0677 199.32L9.59747 200.237ZM3.64042 197.589L3.2708 198.551C2.48536 198.249 2.00491 198.008 1.5385 197.775L2 196.854L2.4615 195.932C2.9113 196.158 3.32012 196.362 4.01004 196.628L3.64042 197.589Z" fill="black"/>
<path d="M32 225.854L30.9697 225.854L30.9697 216.854L32 216.854L33.0303 216.854L33.0303 225.854L32 225.854Z" fill="black"/>
<path d="M60 218.854L60.9775 218.528L61.9775 221.528L61 221.854L60.0225 222.179L59.0225 219.179L60 218.854Z" fill="black"/>
<path d="M76.165 236.8L75.1489 236.97V236.97L76.165 236.8ZM74.0567 251.385L73.0286 251.316C73.0308 251.283 73.0346 251.25 73.0399 251.218L74.0567 251.385ZM71 221.854L71.9186 221.387C74.1634 225.805 76.2063 230.822 77.1811 236.629L76.165 236.8L75.1489 236.97C74.2203 231.439 72.2699 226.627 70.0814 222.32L71 221.854ZM76.165 236.8L77.1811 236.629C77.72 239.84 77.3191 242.694 76.7249 245.186C76.4297 246.425 76.0813 247.594 75.7797 248.65C75.4735 249.723 75.2169 250.675 75.0735 251.551L74.0567 251.385L73.0399 251.218C73.2048 250.211 73.4927 249.155 73.7982 248.085C74.1083 246.998 74.4388 245.89 74.7204 244.709C75.28 242.361 75.6249 239.806 75.1489 236.97L76.165 236.8ZM74.0567 251.385L75.0847 251.453C75.0339 252.212 75.0337 252.83 75.4051 253.824L74.44 254.185L73.4749 254.546C72.9663 253.185 72.9661 252.249 73.0286 251.316L74.0567 251.385ZM74.44 254.185L75.4051 253.824C75.8035 254.89 76.6301 256.364 77.8678 258.298L77 258.854L76.1322 259.409C74.8899 257.468 73.9565 255.834 73.4749 254.546L74.44 254.185Z" fill="black"/>
<path d="M141 173.854L141 172.823C141.066 172.823 141.235 172.822 141.449 172.893C141.627 172.951 141.787 173.041 141.932 173.136C142.217 173.323 142.632 173.655 143.293 174.233L142.616 175.009L141.938 175.784C141.277 175.207 140.957 174.961 140.802 174.86C140.727 174.81 140.74 174.828 140.807 174.851C140.911 174.885 141.007 174.884 141 174.884L141 173.854ZM142.616 175.009L143.293 174.233C144.63 175.4 147.138 177.724 149.7 180.098L149 180.854L148.3 181.609C145.724 179.223 143.245 176.927 141.938 175.784L142.616 175.009Z" fill="black"/>
<path d="M130 182.854L130 181.823C130.08 181.823 130.249 181.821 130.45 181.858C130.656 181.896 130.862 181.967 131.079 182.076C131.489 182.281 131.983 182.64 132.662 183.232L131.985 184.009L131.308 184.785C130.662 184.222 130.328 184.004 130.159 183.92C130.088 183.884 130.066 183.883 130.077 183.885C130.081 183.886 130.085 183.884 130 183.884L130 182.854ZM131.985 184.009L132.662 183.232C134.021 184.416 136.363 186.76 138.729 189.125L138 189.854L137.271 190.582C134.877 188.187 132.599 185.911 131.308 184.785L131.985 184.009Z" fill="black"/>
<path d="M120 188.854L121.004 188.622L124.004 201.622L123 201.854L121.996 202.085L118.996 189.085L120 188.854Z" fill="black"/>
<path d="M107 200.854L108.01 200.651L110.01 210.651L109 210.854L107.99 211.056L105.99 201.056L107 200.854Z" fill="black"/>
<path d="M92 208.854L93.0303 208.854C93.0303 209.486 93.0292 210.111 93.1903 211.732L92.165 211.834L91.1397 211.935C90.9708 210.236 90.9697 209.541 90.9697 208.854L92 208.854ZM92.165 211.834L93.1903 211.732C93.3537 213.375 93.6816 215.999 94.0224 218.726L93 218.854L91.9776 218.981C91.6384 216.268 91.3063 213.612 91.1397 211.935L92.165 211.834Z" fill="black"/>
<path d="M82 216.854L83.0303 216.854L83.0303 225.854L82 225.854L80.9697 225.854L80.9697 216.854L82 216.854Z" fill="black"/>
<path d="M47 213.854L47.9996 214.103L46.9996 218.103L46 217.854L45.0004 217.604L46.0004 213.604L47 213.854Z" fill="black"/>
<path d="M36 204.854L36.7286 205.582L32.7286 209.582L32 208.854L31.2714 208.125L35.2714 204.125L36 204.854Z" fill="black"/>
<path d="M22 195.854L22.6437 196.658L17.6437 200.658L17 199.854L16.3564 199.049L21.3563 195.049L22 195.854Z" fill="black"/>
<path d="M10 189.854L10.1457 190.874L3.14571 191.874L3 190.854L2.85429 189.834L9.85429 188.834L10 189.854Z" fill="black"/>
<path d="M104.78 84.1836L104.382 85.134V85.134L104.78 84.1836ZM99.1384 83.8586L99 82.8376L99.1384 83.8586ZM115 87.8535L114.724 88.8462C111.73 88.0133 107.935 86.6218 104.382 85.134L104.78 84.1836L105.178 83.2332C108.687 84.7024 112.395 86.0594 115.276 86.8609L115 87.8535ZM104.78 84.1836L104.382 85.134C103.629 84.8185 103.22 84.6735 102.613 84.6272C101.955 84.577 101.03 84.642 99.2768 84.8796L99.1384 83.8586L99 82.8376C100.748 82.6006 101.87 82.5038 102.77 82.5725C103.721 82.6451 104.382 82.9 105.178 83.2332L104.78 84.1836ZM99.1384 83.8586L99.2768 84.8796C97.7002 85.0933 95.3979 85.5767 93.0072 86.1001C90.6409 86.6182 88.1947 87.1739 86.397 87.5115L86.2069 86.4988L86.0167 85.4862C87.7743 85.1562 90.1685 84.6121 92.5665 84.0871C94.9401 83.5675 97.3259 83.0645 99 82.8376L99.1384 83.8586ZM86.2069 86.4988L86.397 87.5115C84.608 87.8474 83.407 88.0224 81.9656 87.8919C80.5645 87.7651 78.9725 87.3521 76.3817 86.6252L76.66 85.6332L76.9383 84.6412C79.5697 85.3794 80.9735 85.733 82.1514 85.8396C83.2891 85.9426 84.2504 85.8178 86.0167 85.4862L86.2069 86.4988ZM76.66 85.6332L76.3817 86.6252C71.1499 85.1575 61.4853 82.2937 55.3091 80.3048L55.6249 79.3241L55.9408 78.3433C62.0867 80.3225 71.7256 83.1788 76.9383 84.6412L76.66 85.6332ZM55.6249 79.3241L55.3091 80.3048C49.1194 78.3116 46.7057 77.2772 45.3356 76.665L45.7559 75.7243L46.1763 74.7836C47.466 75.36 49.8082 76.3685 55.9408 78.3433L55.6249 79.3241ZM45.7559 75.7243L45.3356 76.665C43.9926 76.0649 43.7239 75.9027 43.439 75.7178L44 74.8535L44.561 73.9893C44.7084 74.085 44.8594 74.1951 46.1763 74.7836L45.7559 75.7243Z" fill="black"/>
<path d="M96.0272 93.1439L96.0268 94.1742L96.0272 93.1439ZM90.7269 94.5574L90.4861 93.5556L90.7269 94.5574ZM75.4533 93.8798L75.6807 92.8748L75.4533 93.8798ZM66.0037 91.3648L65.8331 92.381C65.7887 92.3735 65.7448 92.3631 65.7017 92.3499L66.0037 91.3648ZM60.104 89.5445L59.8422 90.5411L59.8347 90.539L60.104 89.5445ZM105 93.9539L104.808 94.9661C102.338 94.4974 99.1956 94.1754 96.0268 94.1742L96.0272 93.1439L96.0276 92.1135C99.3228 92.1148 102.593 92.4485 105.192 92.9416L105 93.9539ZM96.0272 93.1439L96.0268 94.1742C95.1684 94.1739 94.5179 94.354 93.7778 94.622C93.0464 94.8868 92.136 95.2784 90.9677 95.5592L90.7269 94.5574L90.4861 93.5556C91.5056 93.3106 92.2181 92.9951 93.0763 92.6844C93.9258 92.3768 94.8316 92.1131 96.0276 92.1135L96.0272 93.1439ZM90.7269 94.5574L90.9677 95.5592C89.9391 95.8065 88.5478 95.8759 87.1381 95.8832C85.7099 95.8906 84.1589 95.8328 82.7924 95.7938L82.8219 94.7638L82.8513 93.7339C84.2454 93.7738 85.7445 93.8297 87.1275 93.8226C88.529 93.8153 89.71 93.7421 90.4861 93.5556L90.7269 94.5574ZM82.8219 94.7638L82.7924 95.7938C79.976 95.7132 77.7967 95.4663 75.226 94.8847L75.4533 93.8798L75.6807 92.8748C78.102 93.4226 80.1467 93.6566 82.8513 93.7339L82.8219 94.7638ZM75.4533 93.8798L75.226 94.8847C72.521 94.2728 70.3762 93.6782 68.7901 93.2174C68.3941 93.1023 68.0331 92.9956 67.7083 92.8994C67.3823 92.803 67.0953 92.7179 66.8425 92.6445C66.3171 92.4921 66.0017 92.4093 65.8331 92.381L66.0037 91.3648L66.1743 90.3487C66.4831 90.4006 66.9179 90.5207 67.4168 90.6655C67.6762 90.7407 67.9697 90.8278 68.2931 90.9235C68.6175 91.0195 68.9744 91.125 69.3651 91.2385C70.926 91.6921 73.0286 92.2749 75.6807 92.8748L75.4533 93.8798ZM66.0037 91.3648L65.7017 92.3499C62.4746 91.3606 61.2013 90.898 59.8423 90.541L60.104 89.5445L60.3657 88.548C61.7715 88.9172 63.1947 89.4261 66.3057 90.3797L66.0037 91.3648ZM60.104 89.5445L59.8347 90.539C59.0913 90.3377 58.2889 90.109 56.8332 89.8703L57 88.8535L57.1668 87.8368C58.7319 88.0935 59.6191 88.3457 60.3733 88.55L60.104 89.5445Z" fill="black"/>
</g>
<rect x="0.5" y="0.5" width="286" height="160" transform="matrix(4.37114e-08 1 1 -4.37114e-08 2.18557e-08 7.01568e-06)" stroke="black"/>
<defs>
<clipPath id="clip0_291_23576">
<rect width="287" height="161" transform="matrix(4.37114e-08 1 1 -4.37114e-08 0 7.03753e-06)" fill="white"/>
</clipPath>
</defs>
</svg>
