<svg width="161" height="287" viewBox="0 0 161 287" fill="none" xmlns="http://www.w3.org/2000/svg">
<g clip-path="url(#clip0_291_23742)">
<rect width="287" height="161" transform="matrix(4.37114e-08 1 1 -4.37114e-08 0 7.03753e-06)" fill="white"/>
<path d="M124.059 7.18042L124.473 8.12386L124.059 7.18042ZM108.619 14.7457L109.013 15.6978L108.619 14.7457ZM97.6498 19.3182L97.9712 20.2972V20.2972L97.6498 19.3182ZM82.7799 25.7975L83.208 26.7347V26.7347L82.7799 25.7975ZM76.072 29.3801L76.5324 30.3019L76.072 29.3801ZM69.0578 32.6586L69.4879 33.5949V33.5949L69.0578 32.6586ZM62.2058 35.9325L62.6122 36.8794V36.8794L62.2058 35.9325ZM48.6505 42.7113L49.0834 43.6463L48.6505 42.7113ZM34.0939 47.972L34.4164 48.9506L34.0939 47.972ZM24.711 51.2505L24.3329 50.2921L24.711 51.2505ZM14.816 54.8308L14.4187 53.8802C14.4446 53.8694 14.4709 53.8596 14.4975 53.851L14.816 54.8308ZM5.95675 58.6466L6.28257 59.6241L5.95675 58.6466ZM139.011 1.49219L139.18 2.50851C138.386 2.6408 136.769 3.13474 134.269 4.07474C131.796 5.00412 128.529 6.34302 124.473 8.12386L124.059 7.18042L123.644 6.23699C127.722 4.44668 131.026 3.09235 133.543 2.14585C136.033 1.20996 137.824 0.645366 138.841 0.475865L139.011 1.49219ZM124.059 7.18042L124.473 8.12386C120.407 9.90862 117.12 11.561 114.571 12.8833C112.06 14.1855 110.171 15.2191 109.013 15.6978L108.619 14.7457L108.226 13.7935C109.274 13.3601 111.012 12.4079 113.622 11.054C116.194 9.7202 119.524 8.04606 123.644 6.23699L124.059 7.18042ZM108.619 14.7457L109.013 15.6978C105.602 17.1083 102.195 18.9108 97.9712 20.2972L97.6498 19.3182L97.3285 18.3393C101.477 16.9775 104.567 15.3062 108.226 13.7935L108.619 14.7457ZM97.6498 19.3182L97.9712 20.2972C90.6998 22.6839 86.8329 25.0789 83.208 26.7347L82.7799 25.7975L82.3518 24.8603C85.7641 23.3016 89.9162 20.7722 97.3285 18.3393L97.6498 19.3182ZM82.7799 25.7975L83.208 26.7347C81.8005 27.3777 80.6869 27.99 79.65 28.5806C78.6212 29.1666 77.6317 29.7528 76.5324 30.3019L76.072 29.3801L75.6116 28.4583C76.6454 27.942 77.5622 27.3982 78.6301 26.79C79.69 26.1863 80.8639 25.54 82.3518 24.8603L82.7799 25.7975ZM76.072 29.3801L76.5324 30.3019C73.3155 31.9086 71.2951 32.7646 69.4879 33.5949L69.0578 32.6586L68.6276 31.7223C70.483 30.8699 72.4346 30.0451 75.6116 28.4583L76.072 29.3801ZM69.0578 32.6586L69.4879 33.5949C68.5621 34.0202 67.6779 34.4806 66.5813 35.0288C65.4939 35.5724 64.2349 36.1829 62.6122 36.8794L62.2058 35.9325L61.7994 34.9857C63.3729 34.3104 64.5935 33.7187 65.6599 33.1856C66.7171 32.6572 67.6608 32.1665 68.6276 31.7223L69.0578 32.6586ZM62.2058 35.9325L62.6122 36.8794C60.6495 37.7217 58.8202 38.6911 56.6877 39.8216C54.5612 40.9489 52.155 42.2241 49.0834 43.6463L48.6505 42.7113L48.2176 41.7763C51.2343 40.3796 53.5977 39.1273 55.7226 38.0009C57.8416 36.8776 59.7458 35.8671 61.7994 34.9857L62.2058 35.9325ZM48.6505 42.7113L49.0834 43.6463C45.3499 45.375 40.8694 46.8238 34.4164 48.9506L34.0939 47.972L33.7713 46.9935C40.2768 44.8494 44.6187 43.4427 48.2176 41.7763L48.6505 42.7113ZM34.0939 47.972L34.4164 48.9506C31.3335 49.9666 28.7173 50.7777 25.0891 52.209L24.711 51.2505L24.3329 50.2921C28.0299 48.8336 30.7155 48.0006 33.7713 46.9935L34.0939 47.972ZM24.711 51.2505L25.0891 52.209C21.9558 53.4451 20.327 54.1228 15.1346 55.8107L14.816 54.8308L14.4975 53.851C19.6299 52.1826 21.2129 51.5229 24.3329 50.2921L24.711 51.2505ZM14.816 54.8308L15.2134 55.7815C11.9345 57.1519 9.95563 58.0263 8.68367 58.5957C7.44645 59.1494 6.80235 59.4508 6.28257 59.6241L5.95675 58.6466L5.63092 57.6691C6.02337 57.5383 6.52126 57.3059 7.8418 56.7148C9.1276 56.1393 11.1223 55.2579 14.4187 53.8802L14.816 54.8308ZM5.95675 58.6466L6.28257 59.6241C5.82374 59.777 5.36965 59.9284 4.90395 60.0836L4.57813 59.1061L4.2523 58.1287C4.71941 57.973 5.17067 57.8226 5.63092 57.6691L5.95675 58.6466Z" fill="black"/>
<path d="M130.826 11.5253L131.316 12.4315L130.826 11.5253ZM117.202 18.0732L116.75 17.1473V17.1473L117.202 18.0732ZM97.1587 26.9187L96.7733 25.9632V25.9632L97.1587 26.9187ZM80.7272 33.949L80.2987 33.012L80.7272 33.949ZM72.2749 37.2207L72.7168 38.1514L72.2749 37.2207ZM53.4749 45.4444L53.8447 46.4061L53.4749 45.4444ZM33.7261 53.9081L33.3327 52.9558L33.7261 53.9081ZM16.9358 59.937L17.3057 60.8987L16.9358 59.937ZM6.87621 64.5073L7.38044 65.4058C7.37618 65.4082 7.3719 65.4105 7.3676 65.4129L6.87621 64.5073ZM2.67862 66.4186L2.98179 67.4033C2.97529 67.4053 2.96877 67.4073 2.96224 67.4091L2.67862 66.4186ZM145.41 4.23438L145.872 5.15569C142.491 6.84843 136.909 9.406 131.316 12.4315L130.826 11.5253L130.336 10.619C135.96 7.57682 141.663 4.95828 144.949 3.31306L145.41 4.23438ZM130.826 11.5253L131.316 12.4315C127.415 14.5419 121.067 17.3328 117.654 18.9991L117.202 18.0732L116.75 17.1473C120.315 15.407 126.469 12.711 130.336 10.619L130.826 11.5253ZM117.202 18.0732L117.654 18.9991C113.478 21.0378 107.014 24.0553 97.544 27.8743L97.1587 26.9187L96.7733 25.9632C106.193 22.1644 112.613 19.1672 116.75 17.1473L117.202 18.0732ZM97.1587 26.9187L97.544 27.8743C90.4441 30.7376 85.4854 32.9058 81.1558 34.886L80.7272 33.949L80.2987 33.012C84.6569 31.0187 89.6444 28.8382 96.7733 25.9632L97.1587 26.9187ZM80.7272 33.949L81.1558 34.886C79.7593 35.5247 78.3531 35.9993 76.9693 36.4787C75.5728 36.9625 74.178 37.4577 72.7168 38.1514L72.2749 37.2207L71.833 36.2899C73.4057 35.5432 74.8948 35.0165 76.2948 34.5316C77.7076 34.0421 79.0106 33.6011 80.2987 33.012L80.7272 33.949ZM72.2749 37.2207L72.7168 38.1514C67.7889 40.491 60.8105 43.7278 53.8447 46.4061L53.4749 45.4444L53.1052 44.4827C59.9942 41.8339 66.9141 38.6251 71.833 36.2899L72.2749 37.2207ZM53.4749 45.4444L53.8447 46.4061C50.3958 47.7321 47.8743 48.8493 45.0074 50.1347C42.1371 51.4216 38.9251 52.8751 34.1196 54.8604L33.7261 53.9081L33.3327 52.9558C38.1066 50.9836 41.2931 49.5417 44.1644 48.2543C47.0391 46.9654 49.6022 45.8295 53.1052 44.4827L53.4749 45.4444ZM33.7261 53.9081L34.1196 54.8604C31.7761 55.8286 28.8913 56.8291 25.9479 57.8377C22.9909 58.8509 19.9698 59.8738 17.3057 60.8987L16.9358 59.937L16.5659 58.9754C19.2745 57.9334 22.3395 56.8958 25.2799 55.8883C28.234 54.876 31.058 53.8956 33.3327 52.9558L33.7261 53.9081ZM16.9358 59.937L17.3057 60.8987C13.9552 62.1876 10.9767 63.3876 7.38044 65.4058L6.87621 64.5073L6.37198 63.6087C10.1009 61.5162 13.1909 60.2736 16.5659 58.9754L16.9358 59.937ZM6.87621 64.5073L7.3676 65.4129C5.52095 66.4149 4.0658 67.0696 2.98179 67.4033L2.67862 66.4186L2.37545 65.4339C3.26677 65.1594 4.58258 64.5796 6.38482 63.6016L6.87621 64.5073ZM2.67862 66.4186L2.96224 67.4091C2.45094 67.5555 1.94113 67.6798 0.969678 68.2314L0.46094 67.3354L-0.0477978 66.4394C1.13899 65.7655 1.83632 65.588 2.395 65.428L2.67862 66.4186Z" fill="black"/>
<path d="M6.86249 59.1055L6.86249 60.1358C6.05566 60.1358 5.50268 60.1485 5.09441 60.2988L4.73855 59.3318L4.38268 58.3649C5.20442 58.0625 6.16038 58.0751 6.86249 58.0751L6.86249 59.1055ZM4.73855 59.3318L5.09441 60.2988C4.91679 60.3641 4.73868 60.4705 4.49502 60.6438C4.28236 60.7951 3.94564 61.0553 3.60915 61.267L3.06042 60.3949L2.5117 59.5229C2.78564 59.3505 2.98048 59.1923 3.30052 58.9646C3.58956 58.759 3.94529 58.5259 4.38268 58.3649L4.73855 59.3318ZM3.06042 60.3949L3.60915 61.267C3.25923 61.4872 2.86625 61.6847 2.47261 61.8907C2.06442 62.1044 1.59209 62.3587 1.00527 62.7238L0.460938 61.849L-0.0833944 60.9742C0.564373 60.5711 1.08656 60.2904 1.51686 60.0651C1.96171 59.8322 2.25119 59.6868 2.5117 59.5229L3.06042 60.3949Z" fill="black"/>
<path d="M67.0315 9.39866L67.4896 10.3216C67.4618 10.3354 67.4335 10.3479 67.4046 10.3591L67.0315 9.39866ZM55.495 13.834L55.246 12.8342C55.2545 12.8321 55.2631 12.8301 55.2717 12.8282L55.495 13.834ZM85.5114 1.03321L85.7706 2.03044C84.1278 2.45729 81.8069 3.40822 78.7347 4.83445C75.6774 6.25378 71.9428 8.11157 67.4896 10.3216L67.0315 9.39866L66.5735 8.47573C71.0161 6.27098 74.7794 4.39872 77.867 2.96536C80.9397 1.53889 83.4108 0.514491 85.2523 0.0359816L85.5114 1.03321ZM67.0315 9.39866L67.4046 10.3591C63.4697 11.8876 60.9365 12.917 59.2028 13.6075C57.5013 14.2852 56.5017 14.666 55.7184 14.8399L55.495 13.834L55.2717 12.8282C55.8579 12.698 56.6861 12.3918 58.4403 11.6931C60.1623 11.0073 62.7126 9.97101 66.6585 8.43824L67.0315 9.39866ZM55.495 13.834L55.744 14.8338C55.1712 14.9765 54.7515 15.1161 54.2868 15.271L53.9609 14.2936L53.6351 13.3161C54.1032 13.1601 54.5888 12.9979 55.246 12.8342L55.495 13.834Z" fill="black"/>
<path d="M50.9182 6.52773L51.84 6.06741L50.9182 6.52773ZM50.5364 5.23142L49.6487 5.75451V5.75451L50.5364 5.23142ZM47.4225 3.77735L47.282 2.75663C47.3634 2.74543 47.4458 2.744 47.5276 2.75238L47.4225 3.77735ZM53.9635 14.2942L52.9511 14.4856C52.3804 11.4679 50.9375 8.87259 49.9964 6.98805L50.9182 6.52773L51.84 6.06741C52.7279 7.84547 54.3394 10.7372 54.9759 14.1027L53.9635 14.2942ZM50.9182 6.52773L49.9964 6.98805C49.8105 6.6158 49.7517 6.2363 49.7169 6.044C49.6963 5.92965 49.6834 5.86496 49.6686 5.81188C49.6554 5.7646 49.6471 5.75186 49.6487 5.75451L50.5364 5.23142L51.424 4.70832C51.6444 5.08218 51.7086 5.47732 51.7448 5.6777C51.7902 5.92903 51.8091 6.00564 51.84 6.06741L50.9182 6.52773ZM50.5364 5.23142L49.6487 5.75451C49.4207 5.36758 48.7569 4.94997 47.3173 4.80232L47.4225 3.77735L47.5276 2.75238C49.1196 2.91567 50.6721 3.43223 51.424 4.70832L50.5364 5.23142ZM47.4225 3.77735L47.563 4.79807C46.6522 4.92342 45.1027 5.47606 43.9767 5.999L43.5427 5.06452L43.1087 4.13004C44.2964 3.57843 46.0665 2.92393 47.282 2.75663L47.4225 3.77735ZM43.5427 5.06452L43.9767 5.999C42.9394 6.48074 42.4169 6.86749 41.3731 7.76089L40.7031 6.97813L40.0331 6.19536C41.1476 5.24145 41.8323 4.72284 43.1087 4.13004L43.5427 5.06452Z" fill="black"/>
<path d="M18.7596 4.70975L17.8268 5.14736C17.8223 5.13781 17.818 5.1282 17.8138 5.11852L18.7596 4.70975ZM21.0367 14.2938L20.0905 13.8859C20.1239 13.8086 20.1873 13.564 20.1856 13.0817C20.1839 12.6203 20.123 12.0095 19.9714 11.2501C19.6686 9.73265 19.0156 7.68149 17.8268 5.14736L18.7596 4.70975L19.6924 4.27214C20.9361 6.92328 21.6504 9.13371 21.9923 10.8468C22.1631 11.7026 22.2439 12.4493 22.2462 13.0741C22.2485 13.6781 22.1782 14.2486 21.9829 14.7016L21.0367 14.2938ZM18.7596 4.70975L17.8138 5.11852C17.279 3.88105 17.2644 3.11045 17.1974 2.63307L18.2177 2.48979L19.2381 2.3465C19.3219 2.94367 19.3074 3.38022 19.7054 4.30098L18.7596 4.70975ZM18.2177 2.48979L17.1974 2.63307C17.1667 2.41421 17.1205 2.20993 17.0517 1.90416C16.9841 1.60384 16.9024 1.23759 16.8199 0.747197L17.8359 0.576179L18.852 0.405161C18.9249 0.838417 18.9965 1.16034 19.062 1.45159C19.1264 1.73739 19.1934 2.02809 19.2381 2.3465L18.2177 2.48979Z" fill="black"/>
<path d="M11.9779 8.84417L10.9936 9.14852C10.9882 9.13116 10.9833 9.11367 10.9789 9.09605L11.9779 8.84417ZM14.6346 17.9527L13.6042 17.9527C13.6042 17.988 13.6069 17.9568 13.576 17.8038C13.5493 17.6711 13.507 17.4917 13.4473 17.2616C13.328 16.8023 13.1503 16.1823 12.9191 15.4078C12.4569 13.8596 11.7955 11.7421 10.9936 9.14852L11.9779 8.84417L12.9623 8.53981C13.7608 11.1223 14.4277 13.2573 14.8937 14.8184C15.1266 15.5986 15.313 16.2474 15.4418 16.7438C15.5061 16.9916 15.5588 17.2117 15.5961 17.3968C15.6293 17.5616 15.6649 17.7665 15.6649 17.9527L14.6346 17.9527ZM11.9779 8.84417L10.9789 9.09605C10.4094 6.83751 10.4035 5.52482 10.3321 4.72186L11.3584 4.63057L12.3847 4.53929C12.4641 5.43274 12.4582 6.53435 12.977 8.59228L11.9779 8.84417ZM11.3584 4.63057L10.3321 4.72186C10.267 3.98977 10.1442 3.62435 9.99909 3.18911L10.9766 2.86329L11.954 2.53747C12.1199 3.03502 12.2989 3.57496 12.3847 4.53929L11.3584 4.63057Z" fill="black"/>
<path d="M9.16482 20.7648L8.61933 19.8907C8.63733 19.8795 8.65566 19.8688 8.67431 19.8587L9.16482 20.7648ZM5.04268 23.1311L4.47411 22.2718C4.50904 22.2487 4.54535 22.2277 4.58282 22.2091L5.04268 23.1311ZM12.8091 18.8672L13.2699 19.7888C12.6709 20.0883 11.4658 20.6908 9.65534 21.6709L9.16482 20.7648L8.67431 19.8587C10.5127 18.8635 11.7402 18.2497 12.3484 17.9456L12.8091 18.8672ZM9.16482 20.7648L9.71031 21.6389C7.86787 22.7887 6.45281 23.5792 5.50254 24.0531L5.04268 23.1311L4.58282 22.2091C5.457 21.7731 6.81289 21.018 8.61933 19.8907L9.16482 20.7648ZM5.04268 23.1311L5.61125 23.9903C5.32116 24.1823 4.98104 24.4892 4.5838 25.2759L3.66406 24.8115L2.74432 24.3471C3.27988 23.2865 3.84512 22.688 4.47411 22.2718L5.04268 23.1311Z" fill="black"/>
<path d="M19.2052 21.1532L18.3479 21.7248C18.2143 21.5245 17.9928 21.2007 17.8588 20.8591C17.7152 20.4931 17.5998 19.9224 17.9311 19.3486L18.8234 19.8638L19.7156 20.379C19.761 20.3005 19.7784 20.214 19.7772 20.1455C19.7762 20.0894 19.7633 20.0714 19.7771 20.1064C19.7907 20.1411 19.8182 20.1975 19.8705 20.2847C19.9229 20.372 19.9843 20.4645 20.0625 20.5817L19.2052 21.1532ZM18.8234 19.8638L17.9311 19.3486C18.2114 18.8631 18.7111 18.5705 19.1327 18.4282C19.573 18.2797 20.1646 18.214 20.7308 18.4467L20.3391 19.3997L19.9475 20.3527C19.9659 20.3603 19.9622 20.354 19.9272 20.3547C19.8924 20.3555 19.8444 20.3629 19.7914 20.3808C19.738 20.3988 19.6982 20.4211 19.6769 20.4364C19.667 20.4435 19.6664 20.4452 19.6724 20.439C19.6779 20.4332 19.6954 20.4141 19.7156 20.379L18.8234 19.8638ZM20.3391 19.3997L20.7308 18.4467C21.3535 18.7026 21.7765 19.2562 21.9013 19.9503C22.0198 20.6086 21.8683 21.3427 21.5165 22.1028L20.5815 21.6699L19.6465 21.2371C19.8937 20.7031 19.8908 20.413 19.8732 20.3151C19.862 20.253 19.8643 20.3185 19.9475 20.3527L20.3391 19.3997ZM20.5815 21.6699L21.5165 22.1028C20.8392 23.566 19.223 25.4888 18.0682 26.487L17.3944 25.7075L16.7206 24.928C17.7241 24.0606 19.1258 22.3619 19.6465 21.2371L20.5815 21.6699ZM17.3944 25.7075L18.0682 26.487C17.4855 26.9907 16.8908 27.3733 16.268 27.4821C15.5396 27.6093 14.9513 27.3377 14.5287 26.9234L15.2499 26.1876L15.9712 25.4518C16.007 25.4869 16.0075 25.4761 15.9725 25.4637C15.9307 25.4488 15.9024 25.4541 15.9134 25.4521C15.9776 25.4409 16.2242 25.3571 16.7206 24.928L17.3944 25.7075ZM15.2499 26.1876L14.5287 26.9234C13.7922 26.2015 13.4426 24.9637 13.5299 23.8313L14.5572 23.9105L15.5845 23.9897C15.53 24.6955 15.784 25.2684 15.9712 25.4518L15.2499 26.1876ZM14.5572 23.9105L13.5299 23.8313C13.626 22.5852 14.2528 21.4131 15.5404 20.4827L16.1438 21.3179L16.7473 22.153C15.9087 22.7589 15.6301 23.3976 15.5845 23.9897L14.5572 23.9105ZM16.1438 21.3179L15.5404 20.4827C16.7467 19.611 18.5681 18.9583 20.2248 18.3559L20.5769 19.3242L20.929 20.2925C19.1655 20.9338 17.6672 21.4883 16.7473 22.153L16.1438 21.3179Z" fill="black"/>
<path d="M32.9971 10.3385L32.3877 9.50773L32.9971 10.3385ZM30.64 5.37506L31.3363 4.61563V4.61563L30.64 5.37506ZM34.9016 16.5709L34.0268 17.1152C33.9907 17.0572 33.9605 16.9958 33.9366 16.9319L34.9016 16.5709ZM30.1302 5.81173L31.052 5.35152C31.0544 5.35622 31.0567 5.36093 31.0589 5.36566L30.1302 5.81173ZM20.5781 15.6655L20.3 14.6735C22.6785 14.0067 25.22 13.0724 27.4217 12.1169C29.6427 11.153 31.4458 10.1987 32.3877 9.50773L32.9971 10.3385L33.6065 11.1694C32.4726 12.0011 30.4964 13.0289 28.2421 14.0072C25.9684 14.9939 23.3383 15.9618 20.8562 16.6576L20.5781 15.6655ZM32.9971 10.3385L32.3877 9.50773C32.1987 9.64642 32.3214 9.81118 32.2528 9.50938C32.1879 9.22441 31.9985 8.81415 31.6952 8.32706C31.0959 7.36429 30.2577 6.42242 29.9437 6.13448L30.64 5.37506L31.3363 4.61563C31.7928 5.03414 32.7497 6.12176 33.4446 7.238C33.7885 7.79041 34.121 8.43203 34.2621 9.05212C34.3994 9.6554 34.4122 10.5784 33.6065 11.1694L32.9971 10.3385ZM30.64 5.37506L29.9437 6.13448C29.7089 5.91927 29.5528 5.80046 29.462 5.74325C29.3144 5.65032 29.4569 5.78986 29.7498 5.75666C29.9548 5.73343 30.1705 5.63065 30.3256 5.44258C30.4587 5.28126 30.4902 5.12638 30.4983 5.07449C30.5119 4.98722 30.4911 4.98809 30.5277 5.15306C30.6692 5.79107 31.2254 7.07995 31.9973 8.66342C32.7481 10.2034 33.6413 11.9014 34.3813 13.3012C34.7495 13.9978 35.0817 14.624 35.3352 15.1129C35.5734 15.5719 35.7826 15.9853 35.8666 16.2099L34.9016 16.5709L33.9366 16.9319C33.9367 16.9322 33.936 16.9304 33.9343 16.9263C33.9327 16.9222 33.9303 16.9165 33.9272 16.9091C33.9208 16.8942 33.9121 16.8745 33.9008 16.8497C33.878 16.7998 33.8476 16.7362 33.8092 16.658C33.7324 16.5016 33.6303 16.3014 33.506 16.0617C33.2572 15.5821 32.9307 14.9663 32.5595 14.2642C31.8207 12.8667 30.9125 11.1407 30.145 9.56642C29.3988 8.03564 28.7201 6.51995 28.5159 5.59927C28.466 5.37457 28.4144 5.06364 28.4622 4.75706C28.4874 4.59551 28.5522 4.3541 28.7361 4.13121C28.942 3.88156 29.2259 3.74216 29.5178 3.70908C29.9845 3.65619 30.3753 3.88317 30.5599 3.99942C30.8013 4.1514 31.0614 4.36353 31.3363 4.61563L30.64 5.37506ZM34.9016 16.5709L35.7764 16.0266C35.8189 16.0949 35.8293 16.1059 35.8158 16.0892C35.8105 16.0825 35.798 16.0674 35.7793 16.0477C35.7629 16.0304 35.7262 15.9933 35.6719 15.9519C35.6306 15.9204 35.5049 15.8281 35.313 15.7793C35.0822 15.7206 34.7111 15.7227 34.394 15.9962C34.1366 16.2182 34.0749 16.4891 34.0582 16.5785C34.0374 16.69 34.041 16.7777 34.0432 16.8131C34.0458 16.856 34.0508 16.8878 34.0534 16.9029C34.0563 16.9197 34.0589 16.9307 34.0597 16.9342C34.0609 16.9391 34.054 16.9117 34.0272 16.835C33.9219 16.5332 33.6671 15.9129 33.2554 14.9748C32.441 13.1192 31.0645 10.137 29.2014 6.25781L30.1302 5.81173L31.0589 5.36566C32.927 9.2552 34.3146 12.2608 35.1423 14.1466C35.5516 15.0792 35.8375 15.7682 35.9728 16.1558C36.0062 16.2514 36.0407 16.3577 36.0643 16.4566C36.0748 16.5005 36.0939 16.5867 36.1001 16.6888C36.1031 16.7377 36.1063 16.8364 36.0839 16.9564C36.0657 17.0544 36.0012 17.3313 35.7398 17.5567C35.4187 17.8336 35.0423 17.8367 34.8051 17.7764C34.6068 17.7259 34.4735 17.6294 34.4233 17.5912C34.3123 17.5067 34.238 17.4153 34.2116 17.3826C34.1431 17.2976 34.0788 17.1989 34.0268 17.1152L34.9016 16.5709ZM30.1302 5.81173L29.2083 6.27194C28.4816 4.81619 27.9697 3.8659 27.5585 3.10003C27.1477 2.33481 26.8245 1.73037 26.4964 0.996936L27.4369 0.576179L28.3774 0.155422C28.6712 0.812039 28.9607 1.3553 29.3741 2.12532C29.7871 2.89467 30.311 3.86714 31.052 5.35152L30.1302 5.81173Z" fill="black"/>
<path d="M39.2581 9.21119L38.3511 9.70005C38.3434 9.68584 38.3361 9.67145 38.3291 9.6569L39.2581 9.21119ZM43.4374 17.4943L42.4958 17.9128C41.3062 15.2361 39.9466 12.6603 38.3511 9.70005L39.2581 9.21119L40.1651 8.72233C41.7611 11.6835 43.1543 14.3204 44.3789 17.0759L43.4374 17.4943ZM39.2581 9.21119L38.3291 9.6569C37.4688 7.86372 36.5509 5.56774 36.0029 4.08326L36.9695 3.72643L37.9361 3.36961C38.4718 4.8207 39.3647 7.05153 40.187 8.76549L39.2581 9.21119ZM36.9695 3.72643L36.0029 4.08326C35.4138 2.48732 35.3442 2.17665 34.9301 1.75636L35.6641 1.03321L36.398 0.310064C37.2093 1.1335 37.4416 2.02998 37.9361 3.36961L36.9695 3.72643Z" fill="black"/>
<path d="M36.1272 19.7812L37.1576 19.7812C37.1576 19.7815 37.1604 19.9142 37.1427 20.0329C37.1372 20.0697 37.1242 20.1465 37.092 20.2376C37.0714 20.2962 36.9852 20.5386 36.7339 20.7273C36.5869 20.8377 36.3915 20.9223 36.163 20.9336C35.9433 20.9445 35.7639 20.8842 35.6424 20.8226C35.4284 20.7141 35.3104 20.5602 35.2769 20.5159C35.1926 20.4043 35.1443 20.2937 35.1282 20.257C35.1036 20.2009 35.0813 20.1419 35.0612 20.0857C35.0208 19.9723 34.9726 19.8215 34.9142 19.6277L35.9009 19.3308L36.8875 19.0339C36.9424 19.2162 36.979 19.3286 37.0022 19.3937C37.014 19.4268 37.0182 19.4359 37.0158 19.4303C37.0144 19.4271 37.0081 19.4128 36.9969 19.3918C36.9878 19.3746 36.9628 19.3288 36.9209 19.2734C36.8945 19.2384 36.7827 19.0903 36.5741 18.9846C36.4553 18.9244 36.2785 18.8647 36.0611 18.8755C35.8349 18.8867 35.6417 18.9704 35.4966 19.0794C35.2494 19.265 35.1665 19.5018 35.1486 19.5525C35.1192 19.6358 35.1085 19.7026 35.1047 19.7276C35.094 19.7991 35.0969 19.8563 35.0969 19.7812L36.1272 19.7812ZM35.9009 19.3308L34.9142 19.6277C34.681 18.8526 34.2411 17.2371 33.494 15.2134L34.4605 14.8566L35.4271 14.4997C36.2027 16.6004 36.6681 18.3046 36.8875 19.0339L35.9009 19.3308ZM34.4605 14.8566L33.494 15.2134C32.7453 13.1855 31.7027 10.8015 30.6107 8.30557L31.5547 7.89259L32.4986 7.4796C33.5832 9.95856 34.6531 12.4032 35.4271 14.4997L34.4605 14.8566Z" fill="black"/>
<path d="M15.0864 20.2386L14.076 20.4406L13.1615 15.8681L14.1719 15.666L15.1822 15.464L16.0967 20.0365L15.0864 20.2386Z" fill="black"/>
<path d="M22.0395 12.9533L21.0885 13.3498C21.0757 13.3192 21.0645 13.288 21.0547 13.2563L22.0395 12.9533ZM20.2013 7.51886L19.2678 7.95478C19.2633 7.94516 19.2589 7.93546 19.2547 7.9257L20.2013 7.51886ZM26.5229 24.3527L25.5454 24.6785C24.6542 22.0049 22.9963 17.9257 21.0885 13.3498L22.0395 12.9533L22.9905 12.5568C24.8917 17.1169 26.5808 21.2683 27.5003 24.0268L26.5229 24.3527ZM22.0395 12.9533L21.0547 13.2563C20.1933 10.456 19.7618 9.01284 19.2678 7.95478L20.2013 7.51886L21.1349 7.08294C21.7063 8.30658 22.1893 9.93615 23.0243 12.6504L22.0395 12.9533ZM20.2013 7.51886L19.2547 7.9257C19.0048 7.3441 18.8418 6.85393 18.6866 6.38833L19.6641 6.06251L20.6415 5.73668C20.7973 6.20388 20.9361 6.61908 21.148 7.11202L20.2013 7.51886Z" fill="black"/>
<path d="M29.1238 12.2342L28.9105 11.2261C28.9422 11.2194 28.9742 11.2142 29.0065 11.2105L29.1238 12.2342ZM32.4617 12.0078L32.4617 13.0382C32.191 13.0382 31.1701 13.0368 29.241 13.2578L29.1238 12.2342L29.0065 11.2105C31.0281 10.9789 32.1289 10.9775 32.4617 10.9775L32.4617 12.0078ZM29.1238 12.2342L29.337 13.2422C28.3679 13.4472 27.2369 13.8678 26.2781 14.3088L25.8475 13.3727L25.417 12.4366C26.4564 11.9586 27.7396 11.4738 28.9105 11.2261L29.1238 12.2342ZM25.8475 13.3727L26.2781 14.3088C25.3926 14.7161 24.4925 15.2358 23.2235 15.7152L22.8594 14.7513L22.4953 13.7875C23.6955 13.3341 24.3042 12.9485 25.417 12.4366L25.8475 13.3727Z" fill="black"/>
<path d="M80.0459 57.7803L79.623 58.7198C79.6151 58.7162 79.6073 58.7126 79.5995 58.7089L80.0459 57.7803ZM61.47 47.7778L60.9621 48.6743C60.9563 48.671 60.9505 48.6676 60.9447 48.6642L61.47 47.7778ZM151.35 86.0843L150.98 87.0459C149.02 86.292 147.06 85.5381 142.053 83.6412L142.418 82.6777L142.783 81.7142C147.794 83.6125 149.757 84.3676 151.72 85.1226L151.35 86.0843ZM142.418 82.6777L142.053 83.6412C137.048 81.7453 129.042 78.7242 124.311 76.8647L124.688 75.9058L125.064 74.9469C129.78 76.8003 137.769 79.8149 142.783 81.7142L142.418 82.6777ZM124.688 75.9058L124.311 76.8647C119.508 74.977 118.409 74.4155 115.739 73.4214L116.098 72.4558L116.458 71.4902C119.105 72.4761 120.421 73.1217 125.064 74.9469L124.688 75.9058ZM116.098 72.4558L115.739 73.4214C113.112 72.4435 108.996 71.0698 101.978 68.2518L102.362 67.2957L102.746 66.3396C109.734 69.1458 113.766 70.4882 116.458 71.4902L116.098 72.4558ZM102.362 67.2957L101.978 68.2518C94.9601 65.4336 85.1389 61.2029 79.623 58.7198L80.0459 57.7803L80.4689 56.8407C85.9636 59.3143 95.7586 63.5336 102.746 66.3396L102.362 67.2957ZM80.0459 57.7803L79.5995 58.7089C73.1517 55.6091 67.8116 52.5547 60.9621 48.6743L61.47 47.7778L61.9779 46.8814C68.8414 50.7697 74.1188 53.7876 80.4923 56.8516L80.0459 57.7803ZM61.47 47.7778L60.9447 48.6642C58.4222 47.1693 57.8908 46.6663 57.3418 46.1172L58.0703 45.3887L58.7989 44.6601C59.1826 45.0439 59.5566 45.4462 61.9953 46.8914L61.47 47.7778Z" fill="black"/>
<path d="M153.636 86.9974L153.176 87.919C152.905 87.7835 152.633 87.6458 151.677 87.2776L152.047 86.3161L152.418 85.3546C153.433 85.7455 153.765 85.9096 154.097 86.0759L153.636 86.9974ZM152.047 86.3161L151.677 87.2776C150.704 86.9029 149.054 86.3028 147.974 85.9169L148.321 84.9467L148.667 83.9764C149.75 84.3633 151.42 84.9703 152.418 85.3546L152.047 86.3161ZM148.321 84.9467L147.974 85.9169C146.901 85.5336 146.456 85.3851 145.994 85.2314L146.32 84.2539L146.646 83.2764C147.118 83.4337 147.578 83.587 148.667 83.9764L148.321 84.9467Z" fill="black"/>
<path d="M120.266 63.6782L119.501 62.9876C123.725 58.3106 127.952 53.6306 131.187 50.0867L131.948 50.7814L132.709 51.476C129.479 55.015 125.256 59.6904 121.03 64.3688L120.266 63.6782ZM131.948 50.7814L131.187 50.0867C134.424 46.541 136.54 44.2742 138.717 41.9415L139.47 42.6445L140.224 43.3476C138.048 45.6789 135.938 47.9389 132.709 51.476L131.948 50.7814Z" fill="black"/>
<path d="M106.086 46.3027L105.357 45.5742C105.718 45.2135 106.08 44.8682 109.541 42.2341L110.165 43.0539L110.789 43.8738C107.299 46.5301 107.057 46.7883 106.815 47.0313L106.086 46.3027ZM110.165 43.0539L109.541 42.2341C113.022 39.5843 119.672 34.5964 126.984 29.4559L127.577 30.2988L128.169 31.1417C120.886 36.262 114.258 41.2331 110.789 43.8738L110.165 43.0539Z" fill="black"/>
<path d="M97.3984 44.0147L96.3681 44.0147C96.3681 43.8952 96.3775 43.7068 96.4812 43.4635C96.5554 43.2893 96.6676 43.1117 96.8004 42.9225C97.0739 42.5329 97.5908 41.8791 98.5703 40.7101L99.3601 41.3718L100.15 42.0335C99.1677 43.2056 98.7037 43.7978 98.4869 44.1067C98.3745 44.2667 98.3641 44.3015 98.377 44.2711C98.3879 44.2455 98.4069 44.1936 98.4188 44.1222C98.4302 44.053 98.4288 43.9956 98.4288 44.0147L97.3984 44.0147ZM99.3601 41.3718L98.5703 40.7101C100.543 38.3557 104.483 33.8101 109.003 29.1245L109.744 29.8399L110.486 30.5552C106.007 35.1976 102.1 39.7056 100.15 42.0335L99.3601 41.3718Z" fill="black"/>
<path d="M139.922 70.9939L138.991 70.5528C140.346 67.6924 141.718 64.7935 143.192 62.1497L144.092 62.6513L144.992 63.153C143.558 65.7264 142.214 68.5615 140.853 71.435L139.922 70.9939ZM144.092 62.6513L143.192 62.1497C144.669 59.5001 146.2 57.2042 147.752 54.8757L148.61 55.4473L149.467 56.0188C147.91 58.3544 146.423 60.5853 144.992 63.153L144.092 62.6513Z" fill="black"/>
<path d="M91.3629 229.847L92.3456 229.537L91.3629 229.847ZM85.5078 214.115L86.4605 213.723C88.5764 218.861 90.5832 223.951 92.3456 229.537L91.3629 229.847L90.3803 230.157C88.6447 224.655 86.6642 219.63 84.5551 214.508L85.5078 214.115ZM91.3629 229.847L92.3456 229.537C93.3528 232.73 93.984 236.625 94.6 242.124L93.5761 242.239L92.5521 242.353C91.9381 236.873 91.3235 233.147 90.3803 230.157L91.3629 229.847ZM93.5761 242.239L94.6 242.124C95.2159 247.621 95.6745 254.778 96.054 258.984L95.0278 259.077L94.0017 259.17C93.613 254.862 93.1663 247.835 92.5521 242.353L93.5761 242.239ZM95.0278 259.077L96.054 258.984C96.4348 263.205 96.727 264.349 96.8889 265.468L95.8692 265.616L94.8495 265.763C94.7004 264.733 94.389 263.463 94.0017 259.17L95.0278 259.077ZM95.8692 265.616L96.8889 265.468C97.0563 266.625 97.055 267.598 97.055 268.528L96.0246 268.528L94.9943 268.528C94.9943 267.593 94.993 266.756 94.8495 265.763L95.8692 265.616Z" fill="black"/>
<path d="M53.0548 262.874L52.1007 262.485V262.485L53.0548 262.874ZM50.0712 272.938L49.1042 273.294C49.0818 273.233 49.0652 273.17 49.0546 273.106L50.0712 272.938ZM57.6182 236.063L58.647 236.119C58.0375 247.249 56.5183 257.109 54.0088 263.263L53.0548 262.874L52.1007 262.485C54.4747 256.663 55.9825 247.09 56.5894 236.006L57.6182 236.063ZM53.0548 262.874L54.0088 263.263C53.1016 265.487 52.3114 267.63 51.778 269.374C51.511 270.247 51.3135 271.004 51.1967 271.612C51.0735 272.254 51.063 272.62 51.0877 272.77L50.0712 272.938L49.0546 273.106C48.9662 272.571 49.0436 271.897 49.173 271.223C49.3089 270.516 49.5287 269.683 49.8074 268.772C50.3654 266.947 51.1802 264.742 52.1007 262.485L53.0548 262.874ZM50.0712 272.938L51.0381 272.582C51.1626 272.92 51.422 273.203 51.8001 273.422L51.2852 274.314L50.7703 275.207C50.0784 274.807 49.4324 274.185 49.1042 273.294L50.0712 272.938ZM51.2852 274.314L51.8001 273.422C52.1886 273.646 52.6472 273.767 53.2955 273.929L53.0456 274.929L52.7957 275.929C52.2003 275.78 51.4517 275.6 50.7703 275.207L51.2852 274.314Z" fill="black"/>
<path d="M54.9837 206.443L54.3802 207.278C54.3681 207.269 54.3563 207.26 54.3446 207.251L54.9837 206.443ZM63.1022 212.284L62.3736 213.013C62.3917 213.031 62.3681 213.007 62.2432 212.911C62.1363 212.829 61.9882 212.72 61.7961 212.58C61.4125 212.301 60.8755 211.919 60.1875 211.43C58.8143 210.455 56.8567 209.067 54.3802 207.278L54.9837 206.443L55.5871 205.607C58.0558 207.391 60.0066 208.774 61.3809 209.75C62.0667 210.237 62.6132 210.627 63.0075 210.913C63.3602 211.169 63.6828 211.407 63.8308 211.555L63.1022 212.284ZM54.9837 206.443L54.3446 207.251C52.0834 205.463 50.3568 203.742 48.9483 202.479L49.6361 201.712L50.3239 200.945C51.8326 202.298 53.4257 203.897 55.6228 205.634L54.9837 206.443ZM49.6361 201.712L48.9483 202.479C47.5263 201.205 46.3512 200.323 45.1084 199.391L45.7266 198.566L46.3448 197.742C47.5894 198.676 48.8286 199.605 50.3239 200.945L49.6361 201.712Z" fill="black"/>
<path d="M42.5266 196.738L42.2007 197.715C41.711 197.552 41.2123 197.384 40.0981 196.828L40.5581 195.906L41.0181 194.984C42.0301 195.489 42.4367 195.622 42.8524 195.76L42.5266 196.738ZM40.5581 195.906L40.0981 196.828C39.0138 196.287 37.3335 195.37 35.6316 194.442L36.125 193.537L36.6184 192.633C38.3367 193.57 39.9761 194.464 41.0181 194.984L40.5581 195.906Z" fill="black"/>
<path d="M28.8087 188.966L27.9514 189.537C27.808 189.322 27.6989 189.16 27.4827 188.936C27.2556 188.701 26.891 188.38 26.2378 187.907L26.8425 187.073L27.4472 186.239C28.1566 186.753 28.6243 187.152 28.9641 187.504C29.3149 187.866 29.5076 188.157 29.666 188.394L28.8087 188.966ZM26.8425 187.073L26.2378 187.907C24.9113 186.946 22.5355 185.46 20.032 183.895L20.5781 183.021L21.1242 182.148C23.5956 183.692 26.0484 185.225 27.4472 186.239L26.8425 187.073Z" fill="black"/>
<path d="M83.8954 198.58L83.2279 197.795C83.2504 197.776 83.2737 197.758 83.2978 197.741L83.8954 198.58ZM93.8018 191.415L94.4066 192.249C94.3956 192.257 94.3844 192.265 94.3731 192.273L93.8018 191.415ZM74.0781 207.714L73.2864 207.055C75.634 204.236 79.6682 200.822 83.2279 197.795L83.8954 198.58L84.5628 199.365C80.9436 202.443 77.0765 205.724 74.8699 208.373L74.0781 207.714ZM83.8954 198.58L83.2978 197.741C87.7355 194.582 91.1667 191.933 93.2305 190.558L93.8018 191.415L94.3731 192.273C92.3261 193.636 89.054 196.173 84.4929 199.42L83.8954 198.58ZM93.8018 191.415L93.1969 190.581C93.9511 190.034 94.2759 189.699 94.6493 188.959L95.569 189.424L96.4888 189.888C95.9294 190.996 95.3489 191.566 94.4066 192.249L93.8018 191.415Z" fill="black"/>
<path d="M154.552 145.068L155.349 145.721C153.98 147.394 152.581 149.104 149.933 151.448L149.25 150.677L148.567 149.905C151.09 147.672 152.407 146.063 153.754 144.416L154.552 145.068ZM149.25 150.677L149.933 151.448C147.321 153.759 143.5 156.665 141.214 158.491L140.571 157.686L139.928 156.881C142.283 154.999 146.007 152.171 148.567 149.905L149.25 150.677ZM140.571 157.686L141.214 158.491C138.926 160.32 138.2 161.048 137.447 161.801L136.719 161.072L135.99 160.344C136.792 159.542 137.575 158.761 139.928 156.881L140.571 157.686Z" fill="black"/>
<path d="M128.031 167.475L128.759 168.203C128.307 168.656 127.854 169.109 127.017 169.945L126.289 169.217L125.56 168.488C126.397 167.651 126.849 167.199 127.302 166.746L128.031 167.475ZM126.289 169.217L127.017 169.945C126.191 170.771 124.949 172.015 123.982 172.824L123.321 172.033L122.66 171.243C123.541 170.506 124.712 169.336 125.56 168.488L126.289 169.217ZM123.321 172.033L123.982 172.824C122.969 173.671 122.284 174.015 121.633 174.34L121.172 173.419L120.711 172.497C121.304 172.201 121.826 171.941 122.66 171.243L123.321 172.033Z" fill="black"/>
<path d="M117.06 176.162L117.521 177.084C117.297 177.196 117.05 177.306 115.63 178.352L115.019 177.522L114.408 176.693C115.863 175.621 116.22 175.43 116.6 175.241L117.06 176.162ZM115.019 177.522L115.63 178.352C114.221 179.389 111.618 181.379 109.762 182.695L109.166 181.855L108.57 181.015C110.413 179.707 112.94 177.773 114.408 176.693L115.019 177.522ZM109.166 181.855L109.762 182.695C107.874 184.035 106.785 184.658 105.683 185.287L105.172 184.393L104.661 183.498C105.735 182.884 106.759 182.299 108.57 181.015L109.166 181.855Z" fill="black"/>
<path d="M144.83 108.121L144.472 109.087C144.458 109.082 144.444 109.076 144.43 109.07L144.83 108.121ZM152.722 111.233L151.994 111.961C152.08 112.047 152.134 112.061 152.011 111.996C151.925 111.951 151.794 111.889 151.611 111.808C151.247 111.649 150.729 111.44 150.06 111.18C148.724 110.662 146.835 109.963 144.472 109.087L144.83 108.121L145.188 107.155C147.544 108.028 149.45 108.734 150.805 109.259C151.481 109.521 152.033 109.743 152.44 109.922C152.642 110.01 152.822 110.094 152.969 110.172C153.079 110.23 153.289 110.342 153.451 110.504L152.722 111.233ZM144.83 108.121L144.43 109.07C142.349 108.194 141.062 107.394 139.91 106.493L140.546 105.681L141.181 104.87C142.178 105.651 143.305 106.361 145.23 107.171L144.83 108.121ZM140.546 105.681L139.91 106.493C138.779 105.607 137.831 104.658 136.904 103.731L137.633 103.002L138.361 102.273C139.3 103.212 140.163 104.073 141.181 104.87L140.546 105.681Z" fill="black"/>
<path d="M118.447 92.9128L117.998 93.8405L118.447 92.9128ZM93.9311 80.2766L94.3769 79.3477C94.3835 79.3509 94.3901 79.3541 94.3966 79.3574L93.9311 80.2766ZM74.2372 70.9967L74.0139 72.0025C74.0053 72.0006 73.9967 71.9986 73.9882 71.9965L74.2372 70.9967ZM139.919 103.917L139.379 104.794C135.51 102.413 129.468 99.383 117.998 93.8405L118.447 92.9128L118.895 91.9851C130.334 97.5127 136.482 100.592 140.459 103.039L139.919 103.917ZM118.447 92.9128L117.998 93.8405C110.557 90.2444 99.9806 84.4952 93.4656 81.1958L93.9311 80.2766L94.3966 79.3574C101.028 82.7156 111.451 88.3878 118.895 91.9851L118.447 92.9128ZM93.9311 80.2766L93.4853 81.2055C86.8993 78.0446 82.1996 75.7437 79.1713 74.2891C77.6256 73.5467 76.4645 73 75.6076 72.6208C74.7227 72.2292 74.2411 72.053 74.0139 72.0025L74.2372 70.9967L74.4605 69.9908C74.9181 70.0924 75.5804 70.3554 76.4414 70.7364C77.3304 71.1297 78.5169 71.6888 80.0635 72.4316C83.2194 73.9475 87.6821 76.1345 94.3769 79.3477L93.9311 80.2766ZM74.2372 70.9967L73.9882 71.9965C73.331 71.8328 72.8454 71.6706 72.3773 71.5146L72.7031 70.5371L73.0289 69.5596C73.4937 69.7146 73.9134 69.8542 74.4862 69.9969L74.2372 70.9967Z" fill="black"/>
<path d="M60.6109 73.352L60.8778 74.3471V74.3471L60.6109 73.352ZM45.2929 77.3918L45.0098 76.4011C45.0274 76.3961 45.045 76.3915 45.0628 76.3875L45.2929 77.3918ZM34.0902 78.8436L34.0232 77.8154C34.0313 77.8149 34.0393 77.8145 34.0474 77.8141L34.0902 78.8436ZM71.3358 69.6231L71.6055 70.6175C70.8399 70.8251 69.6177 71.3514 67.7482 72.0739C65.9336 72.7752 63.6323 73.6082 60.8778 74.3471L60.6109 73.352L60.3439 72.3568C63.0011 71.644 65.2277 70.8388 67.0054 70.1518C68.7282 69.4859 70.1627 68.8737 71.066 68.6286L71.3358 69.6231ZM60.6109 73.352L60.8778 74.3471C55.7389 75.7257 50.8766 77.1697 45.523 78.3961L45.2929 77.3918L45.0628 76.3875C50.3678 75.1722 55.1381 73.7534 60.3439 72.3568L60.6109 73.352ZM45.2929 77.3918L45.5759 78.3825C42.2441 79.3345 39.7221 79.6408 34.1329 79.873L34.0902 78.8436L34.0474 77.8141C39.5741 77.5845 41.9081 77.2873 45.0098 76.4011L45.2929 77.3918ZM34.0902 78.8436L34.1571 79.8717C33.0665 79.9427 32.7458 80.0697 31.7257 80.2414L31.5547 79.2254L31.3837 78.2093C32.2109 78.0701 32.7956 77.8953 34.0232 77.8154L34.0902 78.8436Z" fill="black"/>
<path d="M31.5574 79.2251L30.6158 79.6435C29.999 78.2557 29.3765 76.8514 28.4453 73.6036L29.4357 73.3196L30.4261 73.0357C31.3239 76.1666 31.9086 77.4784 32.4989 78.8066L31.5574 79.2251ZM29.4357 73.3196L28.4453 73.6036C27.5229 70.387 26.3105 65.3847 25.6852 62.5022L26.6922 62.2838L27.6991 62.0654C28.3176 64.9169 29.5194 69.8736 30.4261 73.0357L29.4357 73.3196ZM26.6922 62.2838L25.6852 62.5022C25.0559 59.601 25.04 58.9171 25.04 58.1914H26.0703H27.1007C27.1007 58.7095 27.0847 59.2327 27.6991 62.0654L26.6922 62.2838Z" fill="black"/>
<path d="M66.8506 67.4972L66.3076 68.3729C66.2869 68.36 66.2666 68.3464 66.2469 68.3321L66.8506 67.4972ZM71.7889 70.5357L71.2174 71.393C70.3277 70.7998 68.5612 69.7702 66.3076 68.3729L66.8506 67.4972L67.3936 66.6215C69.5571 67.9631 71.4395 69.0644 72.3605 69.6784L71.7889 70.5357ZM66.8506 67.4972L66.2469 68.3321C65.7665 67.9848 65.4372 67.6797 65.1806 67.4241C64.8951 67.1396 64.8043 67.0317 64.6688 66.9221L65.3165 66.1209L65.9642 65.3196C66.2105 65.5187 66.4616 65.7914 66.635 65.9642C66.8374 66.1659 67.0842 66.3946 67.4543 66.6623L66.8506 67.4972ZM65.3165 66.1209L64.6688 66.9221C64.4556 66.7498 64.1859 66.6487 63.6898 66.4833L64.0156 65.5059L64.3414 64.5284C64.7782 64.674 65.4138 64.8746 65.9642 65.3196L65.3165 66.1209Z" fill="black"/>
<path d="M49.5522 72.8151L50.0014 73.7423V73.7423L49.5522 72.8151ZM39.2617 77.1613L39.6331 78.1223C39.6178 78.1282 39.6025 78.1338 39.5869 78.1389L39.2617 77.1613ZM64.0151 65.5059L64.3973 66.4627C62.9467 67.0421 60.4899 68.3043 57.787 69.7222C55.1146 71.1241 52.2317 72.6618 50.0014 73.7423L49.5522 72.8151L49.103 71.8878C51.2943 70.8261 54.1317 69.3128 56.8297 67.8974C59.4973 66.498 62.0611 65.1768 63.633 64.549L64.0151 65.5059ZM49.5522 72.8151L50.0014 73.7423C46.0793 75.6425 42.6 76.9758 39.6331 78.1223L39.2617 77.1613L38.8903 76.2002C41.8631 75.0513 45.2675 73.746 49.103 71.8878L49.5522 72.8151ZM39.2617 77.1613L39.5869 78.1389C38.461 78.5135 36.8302 79.1071 35.7843 79.5537L35.3796 78.6062L34.975 77.6586C36.0919 77.1816 37.7807 76.5681 38.9365 76.1836L39.2617 77.1613ZM35.3796 78.6062L35.7843 79.5537C35.2674 79.7745 34.9129 79.9514 34.5321 80.1315C34.1504 80.312 33.7659 80.4838 33.2506 80.6572L32.9219 79.6807L32.5932 78.7042C33.0015 78.5668 33.3052 78.4322 33.6511 78.2686C33.9979 78.1046 34.4104 77.8997 34.975 77.6586L35.3796 78.6062Z" fill="black"/>
<path d="M3.66082 172.505L2.93226 173.233L1.5605 171.861L2.28906 171.133L3.01762 170.404L4.38939 171.776L3.66082 172.505Z" fill="black"/>
<path d="M62.8011 224.872L63.8307 224.832L62.8011 224.872ZM62.193 213.658H63.2233C63.2233 213.652 63.2245 213.69 63.2344 213.831C63.243 213.956 63.2558 214.126 63.2725 214.353C63.3057 214.803 63.3532 215.46 63.4104 216.354C63.5247 218.143 63.6772 220.879 63.8307 224.832L62.8011 224.872L61.7715 224.912C61.6187 220.976 61.4671 218.256 61.3539 216.485C61.2973 215.6 61.2503 214.951 61.2173 214.504C61.1872 214.095 61.1626 213.784 61.1626 213.658H62.193ZM62.8011 224.872L63.8307 224.832C64.0282 229.92 63.5305 237.076 63.2251 241.244L62.1975 241.169L61.1699 241.094C61.4773 236.899 61.9638 229.863 61.7715 224.912L62.8011 224.872ZM62.1975 241.169L63.2251 241.244C62.9135 245.497 62.5999 246.608 62.0645 249.127L61.0567 248.912L60.0489 248.698C60.5788 246.205 60.8688 245.204 61.1699 241.094L62.1975 241.169ZM61.0567 248.912L62.0645 249.127C61.5358 251.614 60.7846 255.519 60.0101 260.458L58.9922 260.298L57.9743 260.138C58.7544 255.164 59.5122 251.223 60.0489 248.698L61.0567 248.912Z" fill="black"/>
<path d="M72.2462 209.084L72.9748 209.813C72.6346 210.153 72.2984 210.483 70.9129 211.561L70.28 210.748L69.6471 209.935C70.9868 208.892 71.2542 208.619 71.5176 208.355L72.2462 209.084ZM70.28 210.748L70.9129 211.561C69.5411 212.629 67.1172 214.447 64.6338 216.31L64.0156 215.486L63.3974 214.661C65.889 212.793 68.2937 210.989 69.6471 209.935L70.28 210.748Z" fill="black"/>
<path d="M82.764 252.981L81.7778 253.279C79.8143 246.784 77.8582 240.314 76.2506 235.558L77.2267 235.228L78.2028 234.898C79.8235 239.693 81.7905 246.2 83.7503 252.682L82.764 252.981ZM77.2267 235.228L76.2506 235.558C74.6451 230.807 73.457 227.994 72.4154 225.977L73.3309 225.504L74.2463 225.031C75.3539 227.176 76.58 230.096 78.2028 234.898L77.2267 235.228ZM73.3309 225.504L72.4154 225.977C71.3868 223.985 70.5302 222.841 69.1631 221.168L69.9609 220.516L70.7588 219.864C72.1718 221.593 73.1259 222.862 74.2463 225.031L73.3309 225.504Z" fill="black"/>
<path d="M124.173 114.063L124.582 113.118V113.118L124.173 114.063ZM114.047 106.99L114.651 106.155C114.658 106.16 114.664 106.165 114.671 106.17L114.047 106.99ZM149.528 122.664L149.284 123.665C137.335 120.756 129.978 117.696 123.764 115.009L124.173 114.063L124.582 113.118C130.742 115.781 137.98 118.793 149.771 121.663L149.528 122.664ZM124.173 114.063L123.764 115.009C121.83 114.173 120.171 113.071 118.539 111.836C117.725 111.22 116.908 110.565 116.069 109.892C115.227 109.216 114.359 108.521 113.423 107.81L114.047 106.99L114.671 106.17C115.63 106.899 116.518 107.61 117.358 108.284C118.202 108.961 118.995 109.598 119.782 110.193C121.352 111.38 122.862 112.374 124.582 113.118L124.173 114.063ZM114.047 106.99L113.443 107.825C110.723 105.858 106.358 102.847 103.875 101.14L104.458 100.291L105.042 99.4419C107.521 101.146 111.907 104.171 114.651 106.155L114.047 106.99ZM104.458 100.291L103.875 101.14C101.35 99.4043 101.03 99.2039 100.273 98.9492L100.602 97.9727L100.93 96.9962C102.021 97.3633 102.605 97.7664 105.042 99.4419L104.458 100.291Z" fill="black"/>
<path d="M83.1144 109.758L82.5345 108.907L83.1144 109.758ZM68.1211 118.06L68.6192 118.962L68.1211 118.06ZM28.875 140.074L29.4427 140.934C29.4256 140.945 29.4082 140.956 29.3905 140.966L28.875 140.074ZM20.5896 144.686L20.1306 143.763C20.1513 143.753 20.1724 143.743 20.1938 143.734L20.5896 144.686ZM98.7731 97.9727L99.4228 98.7723C94.5814 102.706 89.2024 106.859 83.6944 110.61L83.1144 109.758L82.5345 108.907C87.9776 105.2 93.3076 101.086 98.1233 97.173L98.7731 97.9727ZM83.1144 109.758L83.6944 110.61C79.0546 113.77 75.0842 115.391 68.6192 118.962L68.1211 118.06L67.623 117.158C74.3223 113.458 77.9881 112.003 82.5345 108.907L83.1144 109.758ZM68.1211 118.06L68.6192 118.962C65.954 120.434 62.2042 122.262 58.1967 124.242C54.174 126.229 49.8723 128.377 46.0534 130.51L45.551 129.61L45.0487 128.71C48.9185 126.549 53.2633 124.38 57.2841 122.394C61.3201 120.4 65.0109 118.6 67.623 117.158L68.1211 118.06ZM45.551 129.61L46.0534 130.51C38.4077 134.779 32.8687 138.672 29.4427 140.934L28.875 140.074L28.3073 139.214C31.6898 136.981 37.317 133.028 45.0487 128.71L45.551 129.61ZM28.875 140.074L29.3905 140.966C23.4304 144.411 21.9774 145.224 20.9853 145.637L20.5896 144.686L20.1938 143.734C21.0261 143.388 22.3167 142.674 28.3595 139.182L28.875 140.074ZM20.5896 144.686L21.0485 145.608C20.658 145.802 20.2608 146.065 19.7825 146.384L19.2109 145.527L18.6394 144.67C19.0939 144.367 19.602 144.026 20.1306 143.763L20.5896 144.686Z" fill="black"/>
<path d="M44.4769 182.67L45.0447 181.81L45.0447 181.81L44.4769 182.67ZM28.361 171.419L28.8719 170.524C28.8916 170.535 28.911 170.547 28.93 170.56L28.361 171.419ZM16.246 163.824L15.6524 164.666C15.6267 164.648 15.6019 164.629 15.578 164.608L16.246 163.824ZM50.3023 186.68L49.5737 187.408C49.3454 187.18 49.0728 186.959 48.2565 186.405C47.4399 185.851 46.1471 185.008 43.909 183.529L44.4769 182.67L45.0447 181.81C47.2648 183.276 48.583 184.136 49.4137 184.7C50.2446 185.264 50.6556 185.576 51.0308 185.951L50.3023 186.68ZM44.4769 182.67L43.909 183.529C41.8529 182.171 38.9477 180.102 36.0056 178.009C33.0519 175.907 30.0573 173.779 27.7919 172.278L28.361 171.419L28.93 170.56C31.2303 172.084 34.2562 174.235 37.2003 176.33C40.1559 178.433 43.0259 180.476 45.0447 181.81L44.4769 182.67ZM28.361 171.419L27.8501 172.314C19.5819 167.593 16.9595 165.588 15.6524 164.666L16.246 163.824L16.8397 162.982C18.1206 163.885 20.6835 165.849 28.8719 170.524L28.361 171.419ZM16.246 163.824L15.578 164.608C14.9188 164.047 14.549 163.486 14.2365 163.017L15.0938 162.445L15.951 161.874C16.2603 162.338 16.4941 162.682 16.9141 163.04L16.246 163.824Z" fill="black"/>
<path d="M29.0377 152.165L30.0602 152.038C30.09 152.277 30.0347 152.52 29.904 152.723L29.0377 152.165ZM15.0938 161.989L14.5165 161.136C17.094 159.392 20.4374 157.15 23.2078 155.237C24.5933 154.28 25.8262 153.412 26.743 152.734C27.2024 152.394 27.5725 152.11 27.8392 151.889C27.9731 151.779 28.0713 151.692 28.138 151.629C28.221 151.55 28.2083 151.55 28.1714 151.607L29.0377 152.165L29.904 152.723C29.8 152.884 29.6598 153.025 29.5601 153.12C29.4443 153.231 29.3049 153.352 29.1513 153.478C28.8432 153.733 28.4395 154.042 27.9684 154.391C27.0241 155.089 25.769 155.973 24.3787 156.933C21.5975 158.853 18.2376 161.106 15.671 162.842L15.0938 161.989ZM29.0377 152.165L28.0152 152.292C28.0281 152.396 28.0533 152.288 27.6541 151.887C27.2949 151.526 26.7201 151.051 25.8569 150.412L26.4702 149.584L27.0836 148.756C27.9671 149.41 28.6428 149.959 29.1142 150.433C29.5454 150.866 29.981 151.401 30.0602 152.038L29.0377 152.165ZM26.4702 149.584L25.8569 150.412C24.1358 149.136 21.4457 147.343 18.6375 145.471L19.209 144.613L19.7806 143.756C22.5692 145.615 25.3112 147.443 27.0836 148.756L26.4702 149.584Z" fill="black"/>
<path d="M150.439 124.035L151.087 124.837C147.16 128.008 143.231 131.181 134.036 138.326L133.404 137.513L132.772 136.699C141.954 129.564 145.872 126.399 149.792 123.234L150.439 124.035ZM133.404 137.513L134.036 138.326C124.847 145.467 110.501 156.491 100.612 163.685L100.006 162.851L99.4002 162.018C109.26 154.845 123.584 143.839 132.772 136.699L133.404 137.513ZM100.006 162.851L100.612 163.685C90.7109 170.888 85.7043 173.923 82.3944 176.075L81.8328 175.211L81.2712 174.347C84.6006 172.183 89.5529 169.182 99.4002 162.018L100.006 162.851ZM81.8328 175.211L82.3944 176.075C80.7485 177.145 79.5539 177.977 78.2646 178.865C76.974 179.754 75.5987 180.69 73.6108 181.954L73.0581 181.084L72.5054 180.215C74.4635 178.97 75.8158 178.049 77.096 177.168C78.3776 176.285 79.5974 175.435 81.2712 174.347L81.8328 175.211ZM73.0581 181.084L73.6108 181.954C69.6474 184.473 63.295 188.254 59.3404 190.505L58.8306 189.61L58.3209 188.714C62.2538 186.476 68.5766 182.712 72.5054 180.215L73.0581 181.084ZM58.8306 189.61L59.3404 190.505C55.3962 192.751 53.9612 193.4 52.9308 193.746L52.6028 192.77L52.2748 191.793C53.0964 191.517 54.3774 190.959 58.3209 188.714L58.8306 189.61ZM52.6028 192.77L52.9308 193.746C52.4513 193.907 51.9436 194.045 51.4425 194.013C50.8636 193.976 50.4109 193.726 50.0365 193.359L50.7578 192.623L51.4791 191.887C51.5079 191.916 51.5288 191.933 51.5425 191.943C51.5557 191.952 51.5621 191.956 51.5625 191.956C51.5628 191.956 51.5624 191.956 51.5614 191.955C51.5604 191.955 51.5595 191.955 51.559 191.955C51.5576 191.954 51.5615 191.955 51.5735 191.956C51.6468 191.961 51.8284 191.943 52.2748 191.793L52.6028 192.77Z" fill="black"/>
<path d="M24.9478 137.231L24.4632 138.14V138.14L24.9478 137.231ZM22.0373 137.517L22.6667 138.333L22.0373 137.517ZM19.2847 140.795L20.2046 141.26V141.26L19.2847 140.795ZM30.021 146.438L30.0094 147.468C29.8519 147.466 29.697 147.429 29.5565 147.358L30.021 146.438ZM33.3818 143.239L32.6532 143.968C30.9254 142.24 27.9661 140.007 24.4632 138.14L24.9478 137.231L25.4323 136.322C29.0854 138.269 32.2168 140.617 34.1104 142.511L33.3818 143.239ZM24.9478 137.231L24.4632 138.14C23.9458 137.865 23.6351 137.867 23.4421 137.907C23.2134 137.955 22.9857 138.087 22.6667 138.333L22.0373 137.517L21.408 136.701C21.7794 136.415 22.3164 136.036 23.0251 135.889C23.7695 135.735 24.5687 135.862 25.4323 136.322L24.9478 137.231ZM22.0373 137.517L22.6667 138.333C21.3696 139.333 20.5358 140.603 20.2046 141.26L19.2847 140.795L18.3648 140.331C18.8017 139.465 19.8149 137.93 21.408 136.701L22.0373 137.517ZM19.2847 140.795L20.2046 141.26C20.0578 141.55 20.0723 141.726 20.1121 141.851C20.1623 142.008 20.3032 142.228 20.6329 142.495C21.3099 143.042 22.4659 143.534 23.8553 143.955C25.2149 144.366 26.6755 144.675 27.8765 144.913C28.4651 145.029 29.0132 145.133 29.4251 145.218C29.6332 145.262 29.8247 145.304 29.9845 145.345C30.117 145.379 30.317 145.433 30.4855 145.518L30.021 146.438L29.5565 147.358C29.6112 147.385 29.6121 147.377 29.4722 147.341C29.3596 147.312 29.2054 147.277 29.0066 147.236C28.6047 147.153 28.0943 147.057 27.4764 146.934C26.2645 146.694 24.7205 146.37 23.2581 145.927C21.8255 145.493 20.3422 144.91 19.3371 144.097C18.8257 143.683 18.3648 143.152 18.1493 142.479C17.9234 141.772 18.0083 141.038 18.3648 140.331L19.2847 140.795ZM30.021 146.438L30.0326 145.408C30.1163 145.409 30.3333 145.367 30.6802 145.216C31.0023 145.075 31.3489 144.879 31.6577 144.674L32.2272 145.533L32.7968 146.391C32.4128 146.646 31.9603 146.906 31.5045 147.104C31.0736 147.293 30.5338 147.474 30.0094 147.468L30.021 146.438ZM32.2272 145.533L31.6577 144.674C32.2106 144.307 32.5383 143.987 32.9193 143.232L33.8391 143.697L34.7588 144.161C34.207 145.254 33.6293 145.839 32.7968 146.391L32.2272 145.533Z" fill="black"/>
<path d="M26.5512 139.377L27.225 138.597L26.5512 139.377ZM23.1172 141.878L22.2404 142.419C22.0211 142.064 22.0379 141.611 22.283 141.273C22.5281 140.935 22.9529 140.778 23.3588 140.876L23.1172 141.878ZM31.6038 147.267L31.1967 148.213C31.1857 148.209 31.1748 148.204 31.1641 148.199L31.6038 147.267ZM33.3848 145.527L32.3545 145.527C32.3545 145.706 32.4034 145.835 32.4231 145.883C32.4469 145.941 32.4701 145.979 32.478 145.992C32.4936 146.017 32.4964 146.016 32.4676 145.983C32.4132 145.918 32.3132 145.812 32.1552 145.658C31.844 145.355 31.3779 144.931 30.7734 144.397C29.5662 143.331 27.8675 141.877 25.8773 140.156L26.5512 139.377L27.225 138.597C29.2015 140.306 30.9196 141.777 32.1376 142.853C32.7456 143.39 33.2442 143.842 33.5945 144.184C33.7673 144.352 33.9223 144.512 34.0402 144.651C34.0975 144.719 34.1658 144.804 34.2253 144.9C34.2552 144.947 34.295 145.017 34.3299 145.102C34.3606 145.177 34.4152 145.329 34.4152 145.527L33.3848 145.527ZM26.5512 139.377L25.8773 140.156C25.5589 139.881 25.2355 139.554 25.0702 139.19C24.987 139.007 24.864 138.638 25.022 138.221C25.1973 137.76 25.5864 137.567 25.8368 137.5C26.076 137.436 26.3044 137.445 26.466 137.464C26.6414 137.484 26.8197 137.525 26.9916 137.576C27.3363 137.678 27.7239 137.841 28.1278 138.052L27.6509 138.965L27.174 139.879C26.8554 139.712 26.5927 139.607 26.4063 139.552C26.3127 139.524 26.2552 139.514 26.2305 139.511C26.192 139.507 26.2559 139.521 26.3722 139.49C26.4996 139.456 26.8073 139.325 26.9486 138.953C27.0726 138.626 26.963 138.375 26.9464 138.338C26.9214 138.283 26.9101 138.284 26.9657 138.348C27.0153 138.404 27.0977 138.487 27.225 138.597L26.5512 139.377ZM27.6509 138.965L28.1278 138.052C28.903 138.457 29.8403 139.053 30.5492 139.589C30.8967 139.851 31.2338 140.132 31.4706 140.391C31.5769 140.508 31.7372 140.698 31.8355 140.935C31.8861 141.058 31.9559 141.276 31.922 141.546C31.8826 141.858 31.7158 142.133 31.4661 142.313L30.8631 141.478L30.26 140.643C30.0535 140.792 29.9106 141.025 29.8775 141.288C29.8499 141.508 29.9083 141.668 29.9313 141.723C29.9746 141.828 30.0152 141.853 29.9494 141.781C29.8421 141.664 29.6255 141.474 29.3073 141.233C28.685 140.763 27.8437 140.228 27.174 139.879L27.6509 138.965ZM30.8631 141.478L31.4661 142.313C31.2527 142.467 31.0345 142.512 30.9218 142.529C30.7937 142.548 30.6739 142.548 30.5809 142.544C30.3946 142.537 30.1947 142.506 30.0131 142.472C29.6457 142.403 29.1958 142.289 28.7766 142.184C28.3398 142.074 27.9234 141.97 27.5683 141.9C27.1595 141.819 27.0109 141.824 27.0247 141.822L26.8529 140.806L26.6812 139.79C27.0939 139.72 27.603 139.806 27.9669 139.878C28.3845 139.96 28.8561 140.079 29.2789 140.185C29.7194 140.296 30.1008 140.392 30.393 140.446C30.5412 140.474 30.6281 140.484 30.6678 140.486C30.6878 140.486 30.6658 140.484 30.618 140.491C30.5856 140.496 30.4303 140.52 30.26 140.643L30.8631 141.478ZM26.8529 140.806L27.0247 141.822C27.073 141.814 27.3035 141.763 27.4827 141.517C27.6656 141.265 27.6452 141.017 27.6318 140.938C27.6156 140.842 27.5999 140.882 27.7696 141.12C28.0775 141.552 28.5284 142.026 28.9782 142.563L28.1881 143.225L27.398 143.886C27.0728 143.497 26.4572 142.829 26.0918 142.317C25.9248 142.083 25.6708 141.7 25.6001 141.282C25.5596 141.043 25.5579 140.66 25.8162 140.304C26.0709 139.954 26.4334 139.832 26.6812 139.79L26.8529 140.806ZM28.1881 143.225L28.9782 142.563C29.1816 142.806 29.372 143.051 29.5127 143.275C29.5827 143.387 29.6583 143.522 29.7153 143.669C29.7642 143.795 29.8471 144.05 29.7998 144.354C29.7387 144.748 29.4842 145.073 29.1224 145.229C28.8416 145.351 28.5735 145.338 28.429 145.323C28.1226 145.29 27.7791 145.172 27.4452 145.036L27.8338 144.082L28.2223 143.128C28.3634 143.185 28.4707 143.223 28.5493 143.247C28.6327 143.273 28.6601 143.275 28.6475 143.274C28.6395 143.273 28.6059 143.27 28.5542 143.274C28.5039 143.278 28.4125 143.291 28.3033 143.338C28.1881 143.388 28.0557 143.476 27.946 143.617C27.8361 143.759 27.7834 143.91 27.7636 144.038C27.729 144.261 27.7926 144.41 27.7931 144.412C27.8017 144.434 27.8 144.423 27.7668 144.37C27.7013 144.265 27.5822 144.106 27.398 143.886L28.1881 143.225ZM27.8338 144.082L27.4452 145.036C26.7578 144.756 25.7089 144.223 24.805 143.771C24.3398 143.539 23.9054 143.324 23.545 143.157C23.365 143.074 23.2117 143.007 23.0879 142.956C23.0263 142.932 22.9763 142.913 22.9372 142.899C22.9179 142.892 22.9029 142.888 22.8917 142.884C22.8804 142.881 22.8752 142.88 22.8755 142.88L23.1172 141.878L23.3588 140.876C23.6541 140.948 24.0502 141.12 24.4108 141.287C24.8023 141.469 25.262 141.696 25.7259 141.928C26.6801 142.405 27.6294 142.886 28.2223 143.128L27.8338 144.082ZM23.1172 141.878L23.994 141.337C24.05 141.428 24.2781 141.679 24.7853 142.081C25.2589 142.457 25.89 142.899 26.6403 143.377C28.1391 144.332 30.063 145.4 32.0436 146.335L31.6038 147.267L31.1641 148.199C29.1093 147.229 27.1089 146.119 25.5327 145.115C24.7454 144.613 24.0514 144.129 23.5045 143.695C22.9911 143.288 22.5033 142.845 22.2404 142.419L23.1172 141.878ZM31.6038 147.267L32.011 146.32C33.5489 146.982 34.2307 147.115 34.9586 147.26L34.7566 148.27L34.5545 149.281C33.7278 149.115 32.9007 148.946 31.1967 148.213L31.6038 147.267Z" fill="black"/>
<path d="M93.6635 107.643L92.6356 107.715L93.6635 107.643ZM86.5074 109.033L85.7819 109.764V109.764L86.5074 109.033ZM86.8801 99.8008L87.5812 99.0458C89.7038 101.017 91.41 102.72 92.6026 104.087C93.1977 104.769 93.6832 105.388 94.031 105.93C94.3542 106.434 94.652 107.009 94.6913 107.571L93.6635 107.643L92.6356 107.715C92.6368 107.731 92.6349 107.682 92.577 107.548C92.522 107.422 92.4323 107.254 92.2969 107.043C92.0255 106.621 91.6123 106.087 91.0497 105.442C89.9269 104.154 88.2814 102.508 86.179 100.556L86.8801 99.8008ZM93.6635 107.643L94.6913 107.571C94.7327 108.162 94.6265 108.713 94.3607 109.197C94.097 109.677 93.7104 110.029 93.2861 110.28C92.4664 110.765 91.4324 110.921 90.5031 110.937C89.5497 110.954 88.5735 110.826 87.7734 110.639C87.3726 110.544 86.9974 110.431 86.6794 110.304C86.3957 110.19 86.0395 110.02 85.7819 109.764L86.5074 109.033L87.233 108.301C87.1828 108.251 87.2132 108.297 87.4463 108.391C87.645 108.471 87.9168 108.556 88.2441 108.632C88.9004 108.786 89.7054 108.89 90.4667 108.877C91.252 108.863 91.8662 108.726 92.2365 108.507C92.4072 108.406 92.5011 108.302 92.5544 108.205C92.6057 108.112 92.6531 107.964 92.6356 107.715L93.6635 107.643ZM86.5074 109.033L85.7819 109.764C85.1039 109.092 84.4162 107.87 83.8633 106.744C83.2896 105.575 82.7836 104.345 82.4937 103.53L83.4644 103.184L84.4351 102.839C84.6985 103.579 85.1738 104.737 85.7131 105.836C86.2732 106.977 86.8304 107.902 87.233 108.301L86.5074 109.033ZM83.4644 103.184L82.4937 103.53C82.3441 103.11 82.2316 102.689 82.2276 102.304C82.2233 101.898 82.3501 101.324 82.9111 100.993C83.3636 100.726 83.8557 100.783 84.1245 100.831C84.4373 100.887 84.7733 100.999 85.0904 101.117L84.731 102.082L84.3716 103.048C84.2315 102.996 84.1095 102.954 84.0036 102.921C83.8964 102.889 83.8168 102.869 83.7599 102.859C83.6999 102.848 83.6893 102.852 83.7131 102.851C83.7371 102.849 83.836 102.84 83.9572 102.768C84.0193 102.732 84.0794 102.683 84.1322 102.623C84.1846 102.563 84.2211 102.502 84.2453 102.446C84.2915 102.341 84.288 102.271 84.2882 102.282C84.2882 102.291 84.2907 102.339 84.3142 102.441C84.337 102.54 84.3752 102.671 84.4351 102.839L83.4644 103.184ZM84.731 102.082L85.0904 101.117C85.7296 101.355 86.5296 101.713 87.1662 101.986C87.4969 102.127 87.7846 102.247 88.0131 102.33C88.2932 102.433 88.3416 102.426 88.2676 102.424L88.2381 103.454L88.2087 104.484C87.8946 104.475 87.5366 104.35 87.3042 104.265C87.0202 104.161 86.6892 104.023 86.3551 103.88C85.6622 103.583 84.9487 103.263 84.3716 103.048L84.731 102.082ZM88.2381 103.454L88.2676 102.424C88.2229 102.423 87.8758 102.415 87.5918 102.731C87.2803 103.077 87.3453 103.464 87.3713 103.57C87.3878 103.637 87.4085 103.683 87.4193 103.706C87.431 103.73 87.44 103.744 87.4422 103.747C87.4459 103.753 87.4397 103.743 87.4195 103.72C87.4006 103.699 87.3779 103.677 87.355 103.657C87.344 103.647 87.3344 103.639 87.3268 103.634C87.319 103.628 87.3152 103.625 87.3157 103.625C87.3161 103.626 87.3183 103.627 87.3224 103.63C87.3263 103.632 87.333 103.636 87.3422 103.64C87.3581 103.648 87.3954 103.666 87.4507 103.682C87.5012 103.697 87.607 103.723 87.7473 103.714C87.8966 103.706 88.1108 103.656 88.3079 103.491L87.6483 102.7L86.9887 101.908C87.4237 101.546 87.9094 101.669 88.0304 101.705C88.2072 101.756 88.3503 101.84 88.4391 101.898C88.6284 102.021 88.8089 102.184 88.9505 102.341C89.0582 102.461 89.2867 102.73 89.372 103.076C89.418 103.262 89.4763 103.717 89.123 104.11C88.7972 104.471 88.3734 104.489 88.2087 104.484L88.2381 103.454ZM87.6483 102.7L88.3079 103.491C88.5065 103.326 88.5879 103.128 88.6205 103.008C88.6522 102.891 88.6518 102.8 88.6505 102.763C88.648 102.691 88.6353 102.662 88.6471 102.704C88.6674 102.777 88.7178 102.913 88.806 103.112C88.9771 103.499 89.2278 103.984 89.454 104.4L88.5491 104.892L87.6442 105.385C87.4086 104.952 87.1266 104.41 86.9216 103.946C86.8217 103.721 86.7232 103.476 86.6622 103.258C86.6334 103.155 86.5969 103.002 86.5911 102.834C86.5879 102.742 86.5707 102.257 86.9887 101.908L87.6483 102.7ZM88.5491 104.892L89.454 104.4C89.5581 104.591 89.6803 104.809 89.7681 104.983C89.8138 105.073 89.8632 105.177 89.9041 105.284C89.9399 105.377 89.9968 105.541 90.01 105.735C90.0231 105.927 90.0013 106.341 89.6435 106.662C89.3137 106.959 88.9323 106.96 88.7758 106.949C88.4644 106.928 88.1432 106.792 87.9084 106.685L88.3365 105.747L88.7645 104.81C88.8688 104.858 88.9366 104.884 88.9763 104.898C89.0261 104.915 88.9956 104.899 88.9172 104.893C88.8625 104.889 88.5516 104.873 88.2655 105.13C87.9515 105.413 87.9466 105.765 87.9541 105.875C87.9617 105.987 87.9906 106.049 87.9803 106.022C87.975 106.009 87.9601 105.974 87.9279 105.91C87.8597 105.775 87.771 105.618 87.6442 105.385L88.5491 104.892ZM88.3365 105.747L87.9084 106.685C87.3825 106.444 86.5155 105.962 85.8245 105.595C85.4609 105.401 85.1385 105.235 84.8928 105.122C84.7681 105.064 84.6851 105.031 84.638 105.015C84.6141 105.006 84.6187 105.009 84.6439 105.014C84.6501 105.016 84.7654 105.042 84.9268 105.015L84.7607 103.998L84.5947 102.981C84.7981 102.948 84.9705 102.978 85.0472 102.994C85.1429 103.013 85.2316 103.04 85.3037 103.064C85.4485 103.114 85.605 103.181 85.7551 103.25C86.0588 103.39 86.4263 103.581 86.7925 103.776C87.5613 104.185 88.3142 104.605 88.7645 104.81L88.3365 105.747ZM84.7607 103.998L84.9268 105.015C85.1324 104.982 85.4913 104.839 85.6666 104.433C85.8057 104.11 85.7257 103.838 85.7066 103.776C85.6625 103.635 85.601 103.575 85.6545 103.645C85.7241 103.735 85.8767 103.899 86.1009 104.111C86.5482 104.532 87.0985 104.974 87.4006 105.158L86.8641 106.038L86.3276 106.917C85.8501 106.626 85.1807 106.075 84.6872 105.61C84.441 105.378 84.1928 105.124 84.0214 104.902C83.9544 104.815 83.8123 104.625 83.7387 104.388C83.7049 104.279 83.6229 103.968 83.7742 103.617C83.9617 103.182 84.3471 103.022 84.5947 102.981L84.7607 103.998ZM86.8641 106.038L87.4006 105.158C87.4322 105.177 87.4562 105.191 87.4733 105.2C87.4906 105.209 87.498 105.211 87.4965 105.211C87.4954 105.21 87.4798 105.204 87.4518 105.197C87.4243 105.191 87.375 105.181 87.3089 105.18C87.1698 105.177 86.9364 105.213 86.7233 105.395C86.5193 105.57 86.4524 105.778 86.4312 105.886C86.4108 105.99 86.4197 106.059 86.4204 106.066C86.4219 106.078 86.4222 106.072 86.4139 106.042C86.3971 105.98 86.3645 105.89 86.3161 105.776L87.2642 105.372L88.2123 104.969C88.2782 105.124 88.3502 105.31 88.4016 105.498C88.4422 105.647 88.5177 105.955 88.4533 106.283C88.4165 106.471 88.3183 106.742 88.0638 106.96C87.8003 107.186 87.4975 107.245 87.2664 107.24C86.8807 107.232 86.5414 107.048 86.3276 106.917L86.8641 106.038ZM87.2642 105.372L86.3161 105.776C86.2228 105.557 86.1117 105.349 86.0333 105.215C85.9908 105.143 85.9712 105.115 85.9767 105.122C85.9773 105.123 85.9939 105.147 86.0207 105.178C86.0308 105.189 86.068 105.233 86.124 105.281C86.1498 105.303 86.2123 105.355 86.3033 105.405C86.3563 105.434 86.6228 105.58 86.9836 105.512C87.492 105.418 87.7215 105.018 87.7888 104.769C87.8425 104.571 87.8213 104.408 87.8154 104.364C87.8001 104.251 87.7683 104.166 87.7637 104.154C87.7531 104.124 87.7436 104.103 87.7395 104.094C87.7346 104.083 87.7308 104.075 87.7291 104.072L86.8047 104.527L85.8802 104.981C85.8719 104.964 85.8488 104.917 85.8275 104.859C85.8213 104.842 85.7886 104.754 85.773 104.638C85.7669 104.593 85.7457 104.43 85.7996 104.231C85.867 103.982 86.0969 103.581 86.6058 103.487C86.967 103.419 87.2342 103.565 87.288 103.595C87.3797 103.645 87.4432 103.697 87.4701 103.721C87.5282 103.771 87.5682 103.817 87.5816 103.832C87.6151 103.871 87.6406 103.906 87.6521 103.922C87.7014 103.991 87.7582 104.083 87.811 104.173C87.9229 104.364 88.077 104.651 88.2123 104.969L87.2642 105.372ZM86.8047 104.527L87.7291 104.072C87.7266 104.066 87.7489 104.109 87.8094 104.21C87.8637 104.301 87.9373 104.42 88.0258 104.558C88.2037 104.834 88.4333 105.169 88.6777 105.484L87.8632 106.115L87.0487 106.747C86.4844 106.018 85.9899 105.204 85.8802 104.981L86.8047 104.527ZM87.8632 106.115L88.6777 105.484C89.1663 106.115 89.723 106.674 90.3522 107.303L89.6236 108.031L88.8951 108.76C88.2805 108.145 87.6301 107.497 87.0487 106.747L87.8632 106.115Z" fill="black"/>
<path d="M101.185 122L100.707 122.913L101.185 122ZM95.2151 142.713L95.633 141.772L95.2151 142.713ZM77.3114 136.147L77.2969 135.117L77.3114 136.147ZM84.2662 150.368L85.0611 149.712L84.2662 150.368ZM81.2803 151.479L81.6178 150.506L81.2803 151.479ZM63.7286 146.351L64.1828 147.276V147.276L63.7286 146.351ZM66.0995 159.451L67.0014 159.949C66.8401 160.242 66.5471 160.437 66.2155 160.475L66.0995 159.451ZM48.1843 161.738L47.166 161.581C47.2079 161.309 47.357 161.064 47.5802 160.903L48.1843 161.738ZM117.063 130.436L118.093 130.436C118.093 130.741 117.957 131.07 117.658 131.284C117.423 131.453 117.187 131.476 117.095 131.48C116.904 131.49 116.746 131.446 116.702 131.433C116.57 131.396 116.431 131.338 116.317 131.287C116.07 131.178 115.729 131.007 115.32 130.795C114.495 130.365 113.31 129.719 111.867 128.929C108.975 127.346 105.014 125.166 100.707 122.913L101.185 122L101.662 121.087C105.99 123.351 109.969 125.541 112.857 127.122C114.304 127.914 115.469 128.549 116.272 128.967C116.677 129.178 116.969 129.323 117.152 129.404C117.254 129.449 117.278 129.455 117.257 129.449C117.248 129.446 117.223 129.439 117.188 129.433C117.158 129.428 117.085 129.417 116.988 129.422C116.91 129.427 116.685 129.446 116.456 129.61C116.165 129.819 116.032 130.141 116.032 130.436L117.063 130.436ZM101.185 122L100.707 122.913C100.693 122.906 100.705 122.913 100.736 122.924C100.754 122.93 100.857 122.968 101.008 122.97C101.163 122.971 101.53 122.928 101.796 122.583C102.037 122.272 102.008 121.949 101.995 121.854C101.97 121.669 101.894 121.567 101.933 121.632C101.948 121.658 101.982 121.711 102.044 121.796C102.299 122.143 102.793 122.72 103.439 123.438C104.715 124.856 106.455 126.684 107.704 128.005L106.955 128.712L106.206 129.42C104.97 128.112 103.205 126.259 101.907 124.816C101.265 124.103 100.706 123.455 100.383 123.015C100.301 122.903 100.22 122.786 100.155 122.674C100.112 122.601 99.9891 122.392 99.9537 122.134C99.9358 122.003 99.9114 121.652 100.166 121.323C100.447 120.96 100.838 120.907 101.028 120.909C101.213 120.911 101.361 120.959 101.434 120.985C101.521 121.016 101.599 121.054 101.662 121.087L101.185 122ZM106.955 128.712L107.704 128.005C108.333 128.67 108.852 129.266 109.207 129.776C109.383 130.031 109.543 130.298 109.651 130.568C109.754 130.827 109.852 131.189 109.772 131.585C109.681 132.039 109.395 132.368 109.047 132.561C108.739 132.731 108.399 132.79 108.109 132.811C107.523 132.854 106.758 132.763 105.857 132.594L106.047 131.582L106.238 130.569C107.109 130.733 107.654 130.778 107.959 130.756C108.114 130.745 108.114 130.721 108.048 130.758C107.941 130.817 107.796 130.962 107.752 131.18C107.72 131.34 107.77 131.415 107.738 131.334C107.71 131.264 107.645 131.14 107.514 130.951C107.251 130.573 106.82 130.069 106.206 129.42L106.955 128.712ZM106.047 131.582L105.857 132.594C104.037 132.252 101.29 131.506 98.6212 130.793C95.9097 130.068 93.2813 129.379 91.5928 129.108L91.756 128.09L91.9193 127.073C93.7356 127.365 96.481 128.088 99.1532 128.802C101.868 129.527 104.515 130.245 106.238 130.569L106.047 131.582ZM91.756 128.09L91.5928 129.108C90.7373 128.971 90.2537 128.967 90.0117 129.01C89.9004 129.031 89.9213 129.048 89.9862 128.996C90.0741 128.925 90.1299 128.82 90.1462 128.733C90.157 128.675 90.1397 128.681 90.1686 128.794C90.1962 128.901 90.2527 129.055 90.3532 129.266C90.556 129.692 90.88 130.233 91.3149 130.916L90.446 131.47L89.577 132.023C89.1409 131.339 88.7551 130.703 88.4925 130.152C88.256 129.655 88.0007 128.996 88.1206 128.354C88.1904 127.981 88.3818 127.641 88.6977 127.387C88.9905 127.153 89.3319 127.04 89.6437 126.983C90.2482 126.873 91.0223 126.929 91.9193 127.073L91.756 128.09ZM90.446 131.47L91.3149 130.916C92.1775 132.27 93.3536 133.989 94.5012 135.701C95.6353 137.394 96.747 139.087 97.436 140.333L96.5343 140.832L95.6326 141.33C94.9933 140.174 93.9319 138.553 92.7894 136.849C91.6604 135.164 90.4566 133.404 89.577 132.023L90.446 131.47ZM96.5343 140.832L97.436 140.333C97.779 140.954 98.0418 141.508 98.1837 141.979C98.2547 142.215 98.3102 142.476 98.3097 142.742C98.3092 143.01 98.2504 143.354 98.0166 143.662C97.5214 144.314 96.7315 144.248 96.3588 144.184C95.8999 144.104 95.3661 143.908 94.7972 143.655L95.2151 142.713L95.633 141.772C95.8893 141.885 96.1086 141.973 96.2937 142.037C96.4812 142.102 96.6169 142.137 96.7091 142.153C96.8093 142.17 96.8109 142.157 96.7528 142.168C96.7185 142.174 96.6576 142.191 96.5854 142.232C96.5103 142.274 96.4362 142.336 96.3752 142.416C96.2521 142.578 96.249 142.723 96.249 142.738C96.249 142.75 96.2498 142.703 96.2107 142.574C96.1736 142.451 96.1106 142.286 96.0128 142.073C95.9157 141.861 95.7899 141.615 95.6326 141.33L96.5343 140.832ZM95.2151 142.713L94.7972 143.655C91.5255 142.203 88.2931 140.59 85.185 139.294C82.0814 137.999 79.3792 137.149 77.3258 137.178L77.3114 136.147L77.2969 135.117C79.8183 135.082 82.8718 136.096 85.9782 137.392C89.0801 138.685 92.5123 140.387 95.633 141.772L95.2151 142.713ZM77.3114 136.147L77.3258 137.178C77.1512 137.18 77.2784 137.217 77.3622 137.07C77.3921 137.018 77.3243 137.099 77.3908 137.486C77.5189 138.23 78.0147 139.389 78.8215 140.829C80.4069 143.658 82.9475 147.15 85.0611 149.712L84.2662 150.368L83.4713 151.023C81.3119 148.405 78.69 144.81 77.0237 141.836C76.2047 140.374 75.5523 138.952 75.36 137.835C75.2663 137.291 75.2452 136.622 75.5725 136.049C75.9538 135.381 76.629 135.126 77.2969 135.117L77.3114 136.147ZM84.2662 150.368L85.0611 149.712C85.4378 150.169 85.7858 150.719 85.8341 151.31C85.8611 151.64 85.7942 152 85.5723 152.319C85.3575 152.628 85.0606 152.808 84.7864 152.91C84.2728 153.101 83.6577 153.087 83.0749 153.004C82.4602 152.916 81.7415 152.729 80.9429 152.453L81.2803 151.479L81.6178 150.506C82.336 150.754 82.9212 150.9 83.3659 150.964C83.5875 150.995 83.7595 151.004 83.8861 151C84.0174 150.996 84.0691 150.978 84.0682 150.978C84.0637 150.98 83.9675 151.017 83.8807 151.142C83.7867 151.277 83.7749 151.412 83.7803 151.478C83.7853 151.539 83.783 151.401 83.4713 151.023L84.2662 150.368ZM81.2803 151.479L80.9429 152.453C78.865 151.732 76.868 150.979 75.0151 150.276C73.1561 149.571 71.4516 148.92 69.934 148.393C68.4107 147.865 67.1217 147.478 66.0925 147.288C65.01 147.088 64.4349 147.152 64.1828 147.276L63.7286 146.351L63.2745 145.426C64.1701 144.986 65.3317 145.052 66.4664 145.261C67.6543 145.48 69.063 145.91 70.6096 146.447C72.1618 146.985 73.8993 147.649 75.746 148.35C77.5987 149.052 79.571 149.796 81.6178 150.506L81.2803 151.479ZM63.7286 146.351L64.1828 147.276C63.8171 147.455 63.6625 147.65 63.5848 147.824C63.4984 148.017 63.4561 148.3 63.5152 148.722C63.6392 149.608 64.148 150.737 64.8344 152.061C65.483 153.313 66.2898 154.736 66.7981 156.005C67.0562 156.649 67.265 157.317 67.3376 157.964C67.4106 158.616 67.3526 159.314 67.0014 159.949L66.0995 159.451L65.1976 158.953C65.278 158.808 65.3326 158.577 65.2897 158.194C65.2463 157.807 65.1104 157.333 64.8852 156.771C64.4266 155.627 63.7119 154.374 63.0048 153.009C62.3355 151.718 61.6543 150.292 61.4745 149.008C61.3817 148.346 61.409 147.641 61.7039 146.982C62.0074 146.304 62.5456 145.784 63.2745 145.426L63.7286 146.351ZM66.0995 159.451L66.2155 160.475C62.3868 160.909 58.4704 161.016 55.336 161.24C53.7448 161.353 52.3507 161.496 51.207 161.719C50.0411 161.946 49.2526 162.236 48.7884 162.572L48.1843 161.738L47.5802 160.903C48.4158 160.298 49.5652 159.94 50.8128 159.696C52.0828 159.449 53.5779 159.299 55.1892 159.184C58.4598 158.951 62.2012 158.856 65.9836 158.427L66.0995 159.451ZM48.1843 161.738L49.2027 161.894C49.143 162.282 49.1644 162.859 49.2928 163.639C49.4188 164.405 49.6366 165.303 49.9243 166.305C50.5005 168.313 51.331 170.655 52.1892 173.073L51.2182 173.418L50.2472 173.763C49.3952 171.362 48.5408 168.955 47.9435 166.873C47.6445 165.831 47.4035 164.849 47.2594 163.973C47.1176 163.111 47.0576 162.285 47.166 161.581L48.1843 161.738Z" fill="black"/>
<path d="M38.5198 96.7202L37.5303 97.0075L38.5198 96.7202ZM38.6067 100.929L39.593 101.227L38.6067 100.929ZM27.644 108.028L27.9914 108.998L27.644 108.028ZM11.7385 109.635L11.7475 110.666C11.6572 110.666 11.5673 110.655 11.4799 110.633L11.7385 109.635ZM1.57141 106.97L1.04287 107.854C0.972244 107.812 0.906925 107.761 0.848312 107.704L1.57141 106.97ZM30.6779 81.0547L31.3861 80.3063C34.4732 83.2273 36.9708 87.6889 39.5093 96.433L38.5198 96.7202L37.5303 97.0075C35.0298 88.3942 32.6623 84.3508 29.9697 81.8031L30.6779 81.0547ZM38.5198 96.7202L39.5093 96.433C40.1382 98.5992 39.9475 100.054 39.593 101.227L38.6067 100.929L37.6203 100.631C37.8695 99.8065 38.039 98.7597 37.5303 97.0075L38.5198 96.7202ZM38.6067 100.929L39.593 101.227C38.8977 103.529 36.9173 105.091 34.787 106.236C32.6392 107.39 30.0935 108.245 27.9914 108.998L27.644 108.028L27.2967 107.058C29.4722 106.279 31.8342 105.484 33.8115 104.421C35.8062 103.349 37.1683 102.128 37.6203 100.631L38.6067 100.929ZM27.644 108.028L27.9914 108.998C24.9425 110.09 21.4161 110.581 11.7475 110.666L11.7385 109.635L11.7294 108.605C21.3935 108.52 24.6069 108.021 27.2967 107.058L27.644 108.028ZM11.7385 109.635L11.4799 110.633C8.69711 109.911 6.36129 109.362 4.60147 108.931C3.72697 108.717 2.98617 108.529 2.41257 108.365C1.88335 108.214 1.36836 108.049 1.04287 107.854L1.57141 106.97L2.09996 106.085C2.09715 106.083 2.11385 106.093 2.16043 106.114C2.20492 106.133 2.26531 106.157 2.34442 106.185C2.50358 106.242 2.71379 106.308 2.9796 106.384C3.51133 106.536 4.21788 106.715 5.09209 106.93C6.82969 107.356 9.19672 107.912 11.997 108.638L11.7385 109.635ZM1.57141 106.97L0.848312 107.704C0.329411 107.192 0.113129 106.475 -0.0210609 106.072L0.956409 105.746L1.93388 105.421C2.11062 105.951 2.19613 106.139 2.29452 106.236L1.57141 106.97Z" fill="black"/>
<path d="M16.1522 92.7604L16.8267 93.5393C16.7907 93.5705 16.7525 93.5991 16.7125 93.6251L16.1522 92.7604ZM3.26454 101.306L3.87255 102.138C3.8671 102.142 3.8616 102.146 3.85607 102.15L3.26454 101.306ZM29.7578 81.0547L30.4174 81.8462C26.8059 84.8558 21.9351 89.1156 16.8267 93.5393L16.1522 92.7604L15.4777 91.9815C20.5707 87.5711 25.4668 83.2893 29.0982 80.2632L29.7578 81.0547ZM16.1522 92.7604L16.7125 93.6251C11.7041 96.8705 7.80131 99.2666 3.87255 102.138L3.26454 101.306L2.65652 100.475C6.6474 97.5575 10.6368 95.1066 15.5919 91.8957L16.1522 92.7604ZM3.26454 101.306L3.85607 102.15C2.26568 103.265 1.61795 103.593 0.954363 103.924L0.493578 103.003L0.032795 102.081C0.61294 101.791 1.17237 101.515 2.673 100.463L3.26454 101.306Z" fill="black"/>
<path d="M44.3129 96.0524L45.3242 95.855L44.3129 96.0524ZM41.7386 111.062L40.8156 110.604L41.7386 111.062ZM25.1266 116.796L25.2667 117.816C25.2413 117.82 25.2158 117.822 25.1903 117.824L25.1266 116.796ZM3.47791 114.971L3.2254 115.97C3.2007 115.964 3.17625 115.957 3.15208 115.949L3.47791 114.971ZM36.6174 81.5117L37.2026 80.6637C39.3889 82.1726 41.1589 84.7049 42.4975 87.4272C43.8453 90.1684 44.8077 93.2086 45.3242 95.855L44.3129 96.0524L43.3017 96.2498C42.8168 93.7658 41.909 90.9006 40.6482 88.3365C39.3782 85.7535 37.8011 83.5806 36.0321 82.3597L36.6174 81.5117ZM44.3129 96.0524L45.3242 95.855C46.0567 99.6076 45.8714 105.05 42.6616 111.52L41.7386 111.062L40.8156 110.604C43.8245 104.54 43.9473 99.5574 43.3017 96.2498L44.3129 96.0524ZM41.7386 111.062L42.6616 111.52C42.064 112.724 40.9826 113.632 39.7275 114.333C38.4653 115.039 36.9411 115.584 35.3291 116.022C32.1098 116.897 28.3533 117.393 25.2667 117.816L25.1266 116.796L24.9865 115.775C28.114 115.346 31.7247 114.866 34.7886 114.034C36.3182 113.618 37.6645 113.126 38.7221 112.535C39.7868 111.94 40.4745 111.291 40.8156 110.604L41.7386 111.062ZM25.1266 116.796L25.1903 117.824C18.9312 118.212 8.4852 117.3 3.2254 115.97L3.47791 114.971L3.73041 113.972C8.76339 115.245 18.9944 116.143 25.0629 115.767L25.1266 116.796ZM3.47791 114.971L3.15208 115.949C2.4316 115.709 1.94789 115.546 0.533695 114.919L0.95158 113.977L1.36946 113.035C2.71708 113.633 3.13873 113.772 3.80373 113.994L3.47791 114.971Z" fill="black"/>
<path d="M80.0995 273.763L79.0692 273.763C79.0692 273.722 79.0674 273.77 79.0788 273.823C79.0887 273.869 79.0982 273.876 79.0718 273.823C79.0099 273.699 78.846 273.431 78.4279 272.872L79.253 272.255L80.078 271.638C80.5065 272.211 80.7659 272.603 80.9156 272.903C80.995 273.062 81.0575 273.222 81.0938 273.391C81.1317 273.568 81.1299 273.71 81.1299 273.763L80.0995 273.763ZM79.253 272.255L78.4279 272.872C77.5984 271.763 75.9243 269.717 74.1713 267.574L74.9688 266.922L75.7662 266.269C77.5022 268.391 79.2143 270.483 80.078 271.638L79.253 272.255Z" fill="black"/>
<path d="M32.9682 183.784C33.3675 181.788 33.7669 179.791 34.1722 179.029C34.5776 178.267 34.9769 178.799 35.2492 179.273C35.5215 179.747 35.6546 180.146 35.7897 180.086C36.3837 179.82 36.1951 178.145 36.1285 177.202C36.0317 175.828 36.3242 180.679 36.5984 182.437C36.9101 184.435 35.5255 177.21 34.2509 174.316C33.9693 173.676 33.6458 173.305 33.309 173.499C32.2379 174.115 32.1615 175.846 31.9618 176.453C31.4282 178.076 30.0156 173.305 29.34 172.089C29.1088 171.673 28.9346 173.426 28.9346 173.834C28.9346 173.709 28.9346 172.91 28.8681 172.299C28.8015 171.688 28.6684 171.288 28.5312 170.877" stroke="white" stroke-width="4.12137" stroke-linecap="round"/>
<path d="M31.3594 192.256C32.6905 192.522 33.7755 192.925 34.5802 193.462C34.9856 193.732 35.3849 193.998 35.6572 194.335C35.9294 194.672 36.0625 195.071 35.393 196.289" stroke="white" stroke-width="4.12137" stroke-linecap="round"/>
<path d="M59.189 245.094C58.3903 247.76 56.7688 253.153 56.3675 255.17C55.6959 257.324 54.8892 258.804 54.4858 259.808C54.3487 260.413 54.3487 261.212 53.9453 262.035" stroke="white" stroke-width="4.12137" stroke-linecap="round"/>
<path d="M35.7914 179.346L35.622 180.362C34.8328 180.231 34.0039 180.093 33.3606 179.95L33.583 178.944L33.8055 177.938C34.3843 178.066 35.1527 178.195 35.9608 178.329L35.7914 179.346ZM33.583 178.944L33.3606 179.95C32.6516 179.794 32.3776 179.688 31.5868 179.555L31.7578 178.539L31.9288 177.523C32.7676 177.664 33.2922 177.825 33.8055 177.938L33.583 178.944Z" fill="black"/>
<path d="M32.1667 195.482L32.1667 196.513C32.1589 196.513 32.2444 196.514 32.3385 196.486C32.4019 196.468 32.4169 196.452 32.3524 196.489C32.2172 196.568 31.9313 196.763 31.3324 197.228L30.7005 196.414L30.0686 195.6C30.6697 195.134 31.0503 194.863 31.315 194.709C31.4504 194.63 31.5986 194.555 31.7619 194.508C31.9559 194.451 32.108 194.452 32.1667 194.452L32.1667 195.482ZM30.7005 196.414L31.3324 197.228C30.1473 198.148 27.8996 199.999 25.5612 201.925L24.9063 201.129L24.2513 200.334C26.5757 198.42 28.8537 196.544 30.0686 195.6L30.7005 196.414Z" fill="black"/>
</g>
<rect x="0.5" y="0.5" width="286" height="160" transform="matrix(4.37114e-08 1 1 -4.37114e-08 2.18557e-08 7.01568e-06)" stroke="black"/>
<defs>
<clipPath id="clip0_291_23742">
<rect width="287" height="161" transform="matrix(4.37114e-08 1 1 -4.37114e-08 0 7.03753e-06)" fill="white"/>
</clipPath>
</defs>
</svg>
