<svg width="159" height="288" viewBox="0 0 159 288" fill="none" xmlns="http://www.w3.org/2000/svg">
<g clip-path="url(#clip0_291_23802)">
<rect width="288" height="159" transform="matrix(4.37114e-08 1 1 -4.37114e-08 0 6.95011e-06)" fill="white"/>
<path d="M124.051 7.18042L124.465 8.12386L124.051 7.18042ZM108.612 14.7457L109.005 15.6978L108.612 14.7457ZM97.642 19.3182L97.9633 20.2972V20.2972L97.642 19.3182ZM82.7721 25.7975L83.2002 26.7347V26.7347L82.7721 25.7975ZM76.0642 29.3801L76.5246 30.3019L76.0642 29.3801ZM69.0499 32.6586L69.4801 33.5949V33.5949L69.0499 32.6586ZM62.198 35.9325L62.6044 36.8794V36.8794L62.198 35.9325ZM48.6427 42.7113L49.0756 43.6463L48.6427 42.7113ZM34.086 47.972L34.4085 48.9506L34.086 47.972ZM24.7032 51.2505L24.3251 50.2921L24.7032 51.2505ZM14.8082 54.8308L14.4109 53.8802C14.4368 53.8694 14.4631 53.8596 14.4897 53.851L14.8082 54.8308ZM5.94893 58.6466L6.27476 59.6241L5.94893 58.6466ZM139.003 1.49219L139.172 2.50851C138.379 2.6408 136.761 3.13474 134.261 4.07474C131.789 5.00412 128.521 6.34302 124.465 8.12386L124.051 7.18042L123.637 6.23699C127.715 4.44668 131.018 3.09235 133.536 2.14585C136.025 1.20996 137.817 0.645366 138.834 0.475865L139.003 1.49219ZM124.051 7.18042L124.465 8.12386C120.399 9.90862 117.113 11.561 114.563 12.8833C112.052 14.1855 110.163 15.2191 109.005 15.6978L108.612 14.7457L108.218 13.7935C109.266 13.3601 111.004 12.4079 113.614 11.054C116.186 9.7202 119.516 8.04606 123.637 6.23699L124.051 7.18042ZM108.612 14.7457L109.005 15.6978C105.594 17.1083 102.187 18.9108 97.9633 20.2972L97.642 19.3182L97.3207 18.3393C101.469 16.9775 104.559 15.3062 108.218 13.7935L108.612 14.7457ZM97.642 19.3182L97.9633 20.2972C90.692 22.6839 86.8251 25.0789 83.2002 26.7347L82.7721 25.7975L82.344 24.8603C85.7563 23.3016 89.9084 20.7722 97.3207 18.3393L97.642 19.3182ZM82.7721 25.7975L83.2002 26.7347C81.7927 27.3777 80.6791 27.99 79.6422 28.5806C78.6134 29.1666 77.6239 29.7528 76.5246 30.3019L76.0642 29.3801L75.6038 28.4583C76.6376 27.942 77.5544 27.3982 78.6223 26.79C79.6822 26.1863 80.8561 25.54 82.344 24.8603L82.7721 25.7975ZM76.0642 29.3801L76.5246 30.3019C73.3077 31.9086 71.2873 32.7646 69.4801 33.5949L69.0499 32.6586L68.6198 31.7223C70.4752 30.8699 72.4268 30.0451 75.6038 28.4583L76.0642 29.3801ZM69.0499 32.6586L69.4801 33.5949C68.5543 34.0202 67.6701 34.4806 66.5735 35.0288C65.4861 35.5724 64.2271 36.1829 62.6044 36.8794L62.198 35.9325L61.7916 34.9857C63.3651 34.3104 64.5857 33.7187 65.6521 33.1856C66.7092 32.6572 67.6529 32.1665 68.6198 31.7223L69.0499 32.6586ZM62.198 35.9325L62.6044 36.8794C60.6417 37.7217 58.8124 38.6911 56.6799 39.8216C54.5534 40.9489 52.1472 42.2241 49.0756 43.6463L48.6427 42.7113L48.2098 41.7763C51.2265 40.3796 53.5898 39.1273 55.7148 38.0009C57.8338 36.8776 59.738 35.8671 61.7916 34.9857L62.198 35.9325ZM48.6427 42.7113L49.0756 43.6463C45.3421 45.375 40.8616 46.8238 34.4085 48.9506L34.086 47.972L33.7635 46.9935C40.269 44.8494 44.6109 43.4427 48.2098 41.7763L48.6427 42.7113ZM34.086 47.972L34.4085 48.9506C31.3256 49.9666 28.7095 50.7777 25.0813 52.209L24.7032 51.2505L24.3251 50.2921C28.0221 48.8336 30.7077 48.0006 33.7635 46.9935L34.086 47.972ZM24.7032 51.2505L25.0813 52.209C21.948 53.4451 20.3191 54.1228 15.1267 55.8107L14.8082 54.8308L14.4897 53.851C19.6221 52.1826 21.2051 51.5229 24.3251 50.2921L24.7032 51.2505ZM14.8082 54.8308L15.2055 55.7815C11.9267 57.1519 9.94782 58.0263 8.67586 58.5957C7.43863 59.1494 6.79454 59.4508 6.27476 59.6241L5.94893 58.6466L5.62311 57.6691C6.01555 57.5383 6.51345 57.3059 7.83399 56.7148C9.11979 56.1393 11.1145 55.2579 14.4109 53.8802L14.8082 54.8308ZM5.94893 58.6466L6.27476 59.6241C5.81593 59.777 5.36183 59.9284 4.89614 60.0836L4.57032 59.1061L4.24449 58.1287C4.71159 57.973 5.16286 57.8226 5.62311 57.6691L5.94893 58.6466Z" fill="black"/>
<path d="M130.818 11.5253L131.309 12.4315L130.818 11.5253ZM117.195 18.0732L116.743 17.1473V17.1473L117.195 18.0732ZM97.1508 26.9187L96.7655 25.9632V25.9632L97.1508 26.9187ZM80.7194 33.949L80.2909 33.012L80.7194 33.949ZM72.2671 37.2207L72.709 38.1514L72.2671 37.2207ZM53.4671 45.4444L53.8369 46.4061L53.4671 45.4444ZM33.7183 53.9081L33.3249 52.9558L33.7183 53.9081ZM16.928 59.937L17.2979 60.8987L16.928 59.937ZM6.8684 64.5073L7.37263 65.4058C7.36836 65.4082 7.36409 65.4105 7.35979 65.4129L6.8684 64.5073ZM2.67081 66.4186L2.97398 67.4033C2.96748 67.4053 2.96096 67.4073 2.95442 67.4091L2.67081 66.4186ZM145.403 4.23438L145.864 5.15569C142.483 6.84843 136.901 9.406 131.309 12.4315L130.818 11.5253L130.328 10.619C135.952 7.57682 141.655 4.95828 144.941 3.31306L145.403 4.23438ZM130.818 11.5253L131.309 12.4315C127.408 14.5419 121.06 17.3328 117.647 18.9991L117.195 18.0732L116.743 17.1473C120.307 15.407 126.461 12.711 130.328 10.619L130.818 11.5253ZM117.195 18.0732L117.647 18.9991C113.471 21.0378 107.006 24.0553 97.5362 27.8743L97.1508 26.9187L96.7655 25.9632C106.185 22.1644 112.605 19.1672 116.743 17.1473L117.195 18.0732ZM97.1508 26.9187L97.5362 27.8743C90.4363 30.7376 85.4776 32.9058 81.148 34.886L80.7194 33.949L80.2909 33.012C84.6491 31.0187 89.6366 28.8382 96.7655 25.9632L97.1508 26.9187ZM80.7194 33.949L81.148 34.886C79.7515 35.5247 78.3453 35.9993 76.9615 36.4787C75.5649 36.9625 74.1702 37.4577 72.709 38.1514L72.2671 37.2207L71.8252 36.2899C73.3979 35.5432 74.887 35.0165 76.287 34.5316C77.6998 34.0421 79.0028 33.6011 80.2909 33.012L80.7194 33.949ZM72.2671 37.2207L72.709 38.1514C67.7811 40.491 60.8027 43.7278 53.8369 46.4061L53.4671 45.4444L53.0974 44.4827C59.9864 41.8339 66.9063 38.6251 71.8252 36.2899L72.2671 37.2207ZM53.4671 45.4444L53.8369 46.4061C50.388 47.7321 47.8664 48.8493 44.9996 50.1347C42.1293 51.4216 38.9173 52.8751 34.1117 54.8604L33.7183 53.9081L33.3249 52.9558C38.0988 50.9836 41.2853 49.5417 44.1566 48.2543C47.0313 46.9654 49.5944 45.8295 53.0974 44.4827L53.4671 45.4444ZM33.7183 53.9081L34.1117 54.8604C31.7683 55.8286 28.8834 56.8291 25.9401 57.8377C22.9831 58.8509 19.962 59.8738 17.2979 60.8987L16.928 59.937L16.5581 58.9754C19.2667 57.9334 22.3317 56.8958 25.2721 55.8883C28.2262 54.876 31.0502 53.8956 33.3249 52.9558L33.7183 53.9081ZM16.928 59.937L17.2979 60.8987C13.9473 62.1876 10.9689 63.3876 7.37263 65.4058L6.8684 64.5073L6.36416 63.6087C10.0931 61.5162 13.1831 60.2736 16.5581 58.9754L16.928 59.937ZM6.8684 64.5073L7.35979 65.4129C5.51314 66.4149 4.05799 67.0696 2.97398 67.4033L2.67081 66.4186L2.36764 65.4339C3.25896 65.1594 4.57477 64.5796 6.377 63.6016L6.8684 64.5073ZM2.67081 66.4186L2.95442 67.4091C2.44313 67.5555 1.93332 67.6798 0.961866 68.2314L0.453128 67.3354L-0.0556103 66.4394C1.13118 65.7655 1.82851 65.588 2.38719 65.428L2.67081 66.4186Z" fill="black"/>
<path d="M6.85468 59.1055L6.85468 60.1358C6.04785 60.1358 5.49487 60.1485 5.08659 60.2988L4.73073 59.3318L4.37487 58.3649C5.19661 58.0625 6.15257 58.0751 6.85468 58.0751L6.85468 59.1055ZM4.73073 59.3318L5.08659 60.2988C4.90898 60.3641 4.73087 60.4705 4.48721 60.6438C4.27454 60.7951 3.93783 61.0553 3.60133 61.267L3.05261 60.3949L2.50389 59.5229C2.77783 59.3505 2.97267 59.1923 3.2927 58.9646C3.58175 58.759 3.93748 58.5259 4.37487 58.3649L4.73073 59.3318ZM3.05261 60.3949L3.60133 61.267C3.25142 61.4872 2.85844 61.6847 2.4648 61.8907C2.05661 62.1044 1.58427 62.3587 0.997457 62.7238L0.453125 61.849L-0.0912069 60.9742C0.556561 60.5711 1.07875 60.2904 1.50905 60.0651C1.9539 59.8322 2.24337 59.6868 2.50389 59.5229L3.05261 60.3949Z" fill="black"/>
<path d="M67.0315 9.39866L67.4896 10.3216C67.4618 10.3354 67.4335 10.3479 67.4046 10.3591L67.0315 9.39866ZM55.495 13.834L55.246 12.8342C55.2545 12.8321 55.2631 12.8301 55.2717 12.8282L55.495 13.834ZM85.5114 1.03321L85.7706 2.03044C84.1278 2.45729 81.8069 3.40822 78.7347 4.83445C75.6774 6.25378 71.9428 8.11157 67.4896 10.3216L67.0315 9.39866L66.5735 8.47573C71.0161 6.27098 74.7794 4.39872 77.867 2.96536C80.9397 1.53889 83.4108 0.514491 85.2523 0.0359815L85.5114 1.03321ZM67.0315 9.39866L67.4046 10.3591C63.4697 11.8876 60.9365 12.917 59.2028 13.6075C57.5013 14.2852 56.5017 14.666 55.7184 14.8399L55.495 13.834L55.2717 12.8282C55.8579 12.698 56.6861 12.3918 58.4403 11.6931C60.1623 11.0073 62.7126 9.97101 66.6585 8.43824L67.0315 9.39866ZM55.495 13.834L55.744 14.8338C55.1712 14.9765 54.7515 15.1161 54.2868 15.271L53.9609 14.2936L53.6351 13.3161C54.1032 13.1601 54.5888 12.9979 55.246 12.8342L55.495 13.834Z" fill="black"/>
<path d="M50.9104 6.52773L51.8322 6.06741L50.9104 6.52773ZM50.5286 5.23142L49.6409 5.75451V5.75451L50.5286 5.23142ZM47.4147 3.77735L47.2742 2.75663C47.3556 2.74543 47.438 2.744 47.5198 2.75238L47.4147 3.77735ZM53.9557 14.2942L52.9433 14.4856C52.3726 11.4679 50.9297 8.87259 49.9886 6.98805L50.9104 6.52773L51.8322 6.06741C52.7201 7.84547 54.3316 10.7372 54.9681 14.1027L53.9557 14.2942ZM50.9104 6.52773L49.9886 6.98805C49.8027 6.6158 49.7439 6.2363 49.7091 6.044C49.6885 5.92965 49.6756 5.86496 49.6608 5.81188C49.6476 5.7646 49.6393 5.75186 49.6409 5.75451L50.5286 5.23142L51.4162 4.70832C51.6365 5.08218 51.7008 5.47732 51.737 5.6777C51.7824 5.92903 51.8013 6.00564 51.8322 6.06741L50.9104 6.52773ZM50.5286 5.23142L49.6409 5.75451C49.4129 5.36758 48.7491 4.94997 47.3095 4.80232L47.4147 3.77735L47.5198 2.75238C49.1118 2.91567 50.6643 3.43223 51.4162 4.70832L50.5286 5.23142ZM47.4147 3.77735L47.5551 4.79807C46.6444 4.92342 45.0948 5.47606 43.9689 5.999L43.5349 5.06452L43.1009 4.13004C44.2886 3.57843 46.0587 2.92393 47.2742 2.75663L47.4147 3.77735ZM43.5349 5.06452L43.9689 5.999C42.9316 6.48074 42.4091 6.86749 41.3653 7.76089L40.6953 6.97813L40.0253 6.19536C41.1398 5.24145 41.8244 4.72284 43.1009 4.13004L43.5349 5.06452Z" fill="black"/>
<path d="M18.7518 4.70975L17.819 5.14736C17.8145 5.13781 17.8102 5.1282 17.806 5.11852L18.7518 4.70975ZM21.0289 14.2938L20.0827 13.8859C20.1161 13.8086 20.1795 13.564 20.1778 13.0817C20.1761 12.6203 20.1152 12.0095 19.9636 11.2501C19.6608 9.73265 19.0078 7.68149 17.819 5.14736L18.7518 4.70975L19.6846 4.27214C20.9283 6.92328 21.6426 9.13371 21.9844 10.8468C22.1553 11.7026 22.2361 12.4493 22.2384 13.0741C22.2406 13.6781 22.1704 14.2486 21.9751 14.7016L21.0289 14.2938ZM18.7518 4.70975L17.806 5.11852C17.2711 3.88105 17.2566 3.11045 17.1896 2.63307L18.2099 2.48979L19.2303 2.3465C19.3141 2.94367 19.2996 3.38022 19.6976 4.30098L18.7518 4.70975ZM18.2099 2.48979L17.1896 2.63307C17.1589 2.41421 17.1127 2.20993 17.0438 1.90416C16.9762 1.60384 16.8946 1.23759 16.8121 0.747197L17.8281 0.576179L18.8442 0.40516C18.9171 0.838417 18.9887 1.16034 19.0542 1.45159C19.1186 1.73739 19.1855 2.02809 19.2303 2.3465L18.2099 2.48979Z" fill="black"/>
<path d="M11.9779 8.84417L10.9936 9.14852C10.9882 9.13116 10.9833 9.11367 10.9789 9.09605L11.9779 8.84417ZM14.6346 17.9527L13.6042 17.9527C13.6042 17.988 13.6069 17.9568 13.576 17.8038C13.5493 17.6711 13.507 17.4917 13.4473 17.2616C13.328 16.8023 13.1503 16.1823 12.9191 15.4078C12.4569 13.8596 11.7955 11.7421 10.9936 9.14852L11.9779 8.84417L12.9623 8.53981C13.7608 11.1223 14.4277 13.2573 14.8937 14.8184C15.1266 15.5986 15.313 16.2474 15.4418 16.7438C15.5061 16.9916 15.5588 17.2117 15.5961 17.3968C15.6293 17.5616 15.6649 17.7665 15.6649 17.9527L14.6346 17.9527ZM11.9779 8.84417L10.9789 9.09605C10.4094 6.83751 10.4035 5.52482 10.3321 4.72186L11.3584 4.63057L12.3847 4.53929C12.4641 5.43274 12.4582 6.53435 12.977 8.59228L11.9779 8.84417ZM11.3584 4.63057L10.3321 4.72186C10.267 3.98977 10.1442 3.62435 9.99909 3.18911L10.9766 2.86329L11.954 2.53747C12.1199 3.03502 12.2989 3.57496 12.3847 4.53929L11.3584 4.63057Z" fill="black"/>
<path d="M9.15701 20.7648L8.61152 19.8907C8.62951 19.8795 8.64785 19.8688 8.6665 19.8587L9.15701 20.7648ZM5.03487 23.1311L4.4663 22.2718C4.50123 22.2487 4.53753 22.2277 4.57501 22.2091L5.03487 23.1311ZM12.8013 18.8672L13.2621 19.7888C12.6631 20.0883 11.458 20.6908 9.64753 21.6709L9.15701 20.7648L8.6665 19.8587C10.5049 18.8635 11.7324 18.2497 12.3405 17.9456L12.8013 18.8672ZM9.15701 20.7648L9.7025 21.6389C7.86006 22.7887 6.445 23.5792 5.49473 24.0531L5.03487 23.1311L4.57501 22.2091C5.44919 21.7731 6.80508 21.018 8.61152 19.8907L9.15701 20.7648ZM5.03487 23.1311L5.60344 23.9903C5.31335 24.1823 4.97323 24.4892 4.57599 25.2759L3.65625 24.8115L2.73651 24.3471C3.27207 23.2865 3.83731 22.688 4.4663 22.2718L5.03487 23.1311Z" fill="black"/>
<path d="M19.2052 21.1532L18.3479 21.7248C18.2143 21.5245 17.9928 21.2007 17.8588 20.8591C17.7152 20.4931 17.5998 19.9224 17.9311 19.3486L18.8234 19.8638L19.7156 20.379C19.761 20.3005 19.7784 20.214 19.7772 20.1455C19.7762 20.0894 19.7633 20.0714 19.7771 20.1064C19.7907 20.1411 19.8182 20.1975 19.8705 20.2847C19.9229 20.372 19.9843 20.4645 20.0625 20.5817L19.2052 21.1532ZM18.8234 19.8638L17.9311 19.3486C18.2114 18.8631 18.7111 18.5705 19.1327 18.4282C19.573 18.2797 20.1646 18.214 20.7308 18.4467L20.3391 19.3997L19.9475 20.3527C19.9659 20.3602 19.9622 20.354 19.9272 20.3547C19.8924 20.3555 19.8444 20.3629 19.7914 20.3808C19.738 20.3988 19.6982 20.4211 19.6769 20.4364C19.667 20.4435 19.6664 20.4452 19.6724 20.439C19.6779 20.4332 19.6954 20.4141 19.7156 20.379L18.8234 19.8638ZM20.3391 19.3997L20.7308 18.4467C21.3535 18.7026 21.7765 19.2562 21.9013 19.9503C22.0198 20.6086 21.8683 21.3427 21.5165 22.1028L20.5815 21.6699L19.6465 21.2371C19.8937 20.7031 19.8908 20.413 19.8732 20.3151C19.862 20.253 19.8643 20.3185 19.9475 20.3527L20.3391 19.3997ZM20.5815 21.6699L21.5165 22.1028C20.8392 23.566 19.223 25.4888 18.0682 26.487L17.3944 25.7075L16.7206 24.928C17.7241 24.0606 19.1258 22.3619 19.6465 21.2371L20.5815 21.6699ZM17.3944 25.7075L18.0682 26.487C17.4855 26.9907 16.8908 27.3733 16.268 27.4821C15.5396 27.6093 14.9513 27.3377 14.5287 26.9234L15.2499 26.1876L15.9712 25.4518C16.007 25.4869 16.0075 25.4761 15.9725 25.4637C15.9307 25.4488 15.9024 25.4541 15.9134 25.4521C15.9776 25.4409 16.2242 25.3571 16.7206 24.928L17.3944 25.7075ZM15.2499 26.1876L14.5287 26.9234C13.7922 26.2015 13.4426 24.9637 13.5299 23.8313L14.5572 23.9105L15.5845 23.9897C15.53 24.6955 15.784 25.2684 15.9712 25.4518L15.2499 26.1876ZM14.5572 23.9105L13.5299 23.8313C13.626 22.5852 14.2528 21.4131 15.5404 20.4827L16.1438 21.3179L16.7473 22.153C15.9087 22.7589 15.6301 23.3976 15.5845 23.9897L14.5572 23.9105ZM16.1438 21.3179L15.5404 20.4827C16.7467 19.611 18.5681 18.9583 20.2248 18.3559L20.5769 19.3242L20.929 20.2925C19.1655 20.9338 17.6672 21.4883 16.7473 22.153L16.1438 21.3179Z" fill="black"/>
<path d="M32.9893 10.3385L32.3799 9.50773L32.9893 10.3385ZM30.6322 5.37506L31.3285 4.61563V4.61563L30.6322 5.37506ZM34.8938 16.5709L34.0189 17.1152C33.9829 17.0572 33.9527 16.9958 33.9287 16.9319L34.8938 16.5709ZM30.1223 5.81173L31.0442 5.35152C31.0465 5.35622 31.0488 5.36093 31.0511 5.36566L30.1223 5.81173ZM20.5703 15.6655L20.2922 14.6735C22.6707 14.0067 25.2122 13.0724 27.4139 12.1169C29.6349 11.153 31.438 10.1987 32.3799 9.50773L32.9893 10.3385L33.5987 11.1694C32.4648 12.0011 30.4886 13.0289 28.2343 14.0072C25.9606 14.9939 23.3305 15.9618 20.8484 16.6576L20.5703 15.6655ZM32.9893 10.3385L32.3799 9.50773C32.1909 9.64642 32.3136 9.81118 32.245 9.50938C32.1801 9.22441 31.9907 8.81415 31.6874 8.32706C31.0881 7.36429 30.2499 6.42242 29.9358 6.13448L30.6322 5.37506L31.3285 4.61563C31.7849 5.03414 32.7419 6.12176 33.4368 7.238C33.7807 7.79041 34.1132 8.43203 34.2543 9.05212C34.3916 9.6554 34.4044 10.5784 33.5987 11.1694L32.9893 10.3385ZM30.6322 5.37506L29.9358 6.13448C29.7011 5.91927 29.545 5.80046 29.4541 5.74325C29.3066 5.65032 29.4491 5.78986 29.742 5.75666C29.947 5.73343 30.1627 5.63065 30.3178 5.44258C30.4509 5.28126 30.4824 5.12638 30.4905 5.07449C30.5041 4.98722 30.4833 4.98809 30.5199 5.15306C30.6614 5.79107 31.2176 7.07995 31.9895 8.66342C32.7403 10.2034 33.6335 11.9014 34.3735 13.3012C34.7417 13.9978 35.0739 14.624 35.3274 15.1129C35.5655 15.5719 35.7748 15.9853 35.8588 16.2099L34.8938 16.5709L33.9287 16.9319C33.9289 16.9322 33.9282 16.9304 33.9265 16.9263C33.9249 16.9222 33.9225 16.9165 33.9194 16.9091C33.913 16.8942 33.9043 16.8745 33.893 16.8497C33.8701 16.7998 33.8398 16.7362 33.8014 16.658C33.7246 16.5016 33.6225 16.3014 33.4982 16.0617C33.2494 15.5821 32.9228 14.9663 32.5517 14.2642C31.8129 12.8667 30.9047 11.1407 30.1372 9.56642C29.391 8.03564 28.7123 6.51995 28.5081 5.59927C28.4582 5.37457 28.4066 5.06364 28.4544 4.75706C28.4796 4.59551 28.5444 4.3541 28.7283 4.13121C28.9342 3.88156 29.2181 3.74216 29.51 3.70908C29.9767 3.65619 30.3675 3.88316 30.5521 3.99942C30.7935 4.1514 31.0536 4.36353 31.3285 4.61563L30.6322 5.37506ZM34.8938 16.5709L35.7686 16.0266C35.8111 16.0949 35.8215 16.1059 35.808 16.0892C35.8027 16.0825 35.7902 16.0674 35.7715 16.0477C35.7551 16.0304 35.7184 15.9933 35.6641 15.9519C35.6228 15.9204 35.4971 15.8281 35.3052 15.7793C35.0744 15.7206 34.7033 15.7227 34.3862 15.9962C34.1287 16.2182 34.0671 16.4891 34.0504 16.5785C34.0296 16.69 34.0332 16.7777 34.0354 16.8131C34.038 16.856 34.043 16.8878 34.0456 16.9029C34.0485 16.9197 34.0511 16.9307 34.0519 16.9342C34.0531 16.9391 34.0462 16.9117 34.0194 16.835C33.9141 16.5332 33.6593 15.9129 33.2476 14.9748C32.4331 13.1192 31.0567 10.137 29.1936 6.25781L30.1223 5.81173L31.0511 5.36566C32.9192 9.2552 34.3068 12.2608 35.1345 14.1466C35.5438 15.0792 35.8296 15.7682 35.965 16.1558C35.9984 16.2514 36.0329 16.3577 36.0565 16.4566C36.067 16.5005 36.0861 16.5867 36.0923 16.6888C36.0953 16.7377 36.0985 16.8364 36.0761 16.9564C36.0578 17.0544 35.9934 17.3313 35.732 17.5567C35.4109 17.8336 35.0345 17.8367 34.7973 17.7764C34.5989 17.7259 34.4657 17.6294 34.4155 17.5912C34.3045 17.5067 34.2302 17.4153 34.2038 17.3826C34.1353 17.2976 34.071 17.1989 34.0189 17.1152L34.8938 16.5709ZM30.1223 5.81173L29.2005 6.27194C28.4737 4.81618 27.9619 3.8659 27.5507 3.10003C27.1399 2.33481 26.8167 1.73037 26.4886 0.996936L27.4291 0.576179L28.3696 0.155422C28.6634 0.812039 28.9529 1.3553 29.3663 2.12532C29.7793 2.89467 30.3032 3.86714 31.0442 5.35152L30.1223 5.81173Z" fill="black"/>
<path d="M39.2581 9.21119L38.3511 9.70005C38.3434 9.68584 38.3361 9.67145 38.3291 9.6569L39.2581 9.21119ZM43.4374 17.4943L42.4958 17.9128C41.3062 15.2361 39.9466 12.6603 38.3511 9.70005L39.2581 9.21119L40.1651 8.72233C41.7611 11.6835 43.1543 14.3204 44.3789 17.0759L43.4374 17.4943ZM39.2581 9.21119L38.3291 9.6569C37.4688 7.86372 36.5509 5.56774 36.0029 4.08326L36.9695 3.72643L37.9361 3.36961C38.4718 4.8207 39.3647 7.05153 40.187 8.76549L39.2581 9.21119ZM36.9695 3.72643L36.0029 4.08326C35.4138 2.48732 35.3442 2.17665 34.9301 1.75636L35.6641 1.03321L36.398 0.310064C37.2093 1.1335 37.4416 2.02998 37.9361 3.36961L36.9695 3.72643Z" fill="black"/>
<path d="M36.1194 19.7812L37.1498 19.7812C37.1498 19.7815 37.1526 19.9142 37.1349 20.0329C37.1293 20.0697 37.1163 20.1465 37.0842 20.2376C37.0636 20.2962 36.9773 20.5386 36.7261 20.7273C36.5791 20.8377 36.3837 20.9223 36.1552 20.9336C35.9354 20.9445 35.7561 20.8842 35.6346 20.8226C35.4206 20.7141 35.3026 20.5602 35.2691 20.5159C35.1848 20.4043 35.1365 20.2937 35.1204 20.257C35.0958 20.2009 35.0734 20.1419 35.0534 20.0857C35.013 19.9723 34.9648 19.8215 34.9064 19.6277L35.8931 19.3308L36.8797 19.0339C36.9346 19.2162 36.9712 19.3286 36.9944 19.3937C37.0062 19.4268 37.0104 19.4359 37.0079 19.4303C37.0066 19.4271 37.0003 19.4128 36.9891 19.3918C36.9799 19.3746 36.955 19.3288 36.9131 19.2734C36.8867 19.2384 36.7749 19.0903 36.5663 18.9846C36.4475 18.9244 36.2707 18.8647 36.0532 18.8755C35.8271 18.8867 35.6339 18.9704 35.4888 19.0794C35.2416 19.265 35.1587 19.5018 35.1408 19.5525C35.1114 19.6358 35.1006 19.7026 35.0969 19.7276C35.0862 19.7991 35.0891 19.8563 35.0891 19.7812L36.1194 19.7812ZM35.8931 19.3308L34.9064 19.6277C34.6732 18.8526 34.2333 17.2371 33.4861 15.2134L34.4527 14.8566L35.4193 14.4997C36.1948 16.6004 36.6603 18.3046 36.8797 19.0339L35.8931 19.3308ZM34.4527 14.8566L33.4861 15.2134C32.7375 13.1855 31.6949 10.8015 30.6029 8.30557L31.5469 7.89259L32.4908 7.4796C33.5754 9.95856 34.6453 12.4032 35.4193 14.4997L34.4527 14.8566Z" fill="black"/>
<path d="M15.0864 20.2386L14.076 20.4406L13.1615 15.8681L14.1719 15.666L15.1822 15.464L16.0967 20.0365L15.0864 20.2386Z" fill="black"/>
<path d="M22.0395 12.9533L21.0885 13.3498C21.0757 13.3192 21.0645 13.288 21.0547 13.2563L22.0395 12.9533ZM20.2013 7.51886L19.2678 7.95478C19.2633 7.94516 19.2589 7.93546 19.2547 7.9257L20.2013 7.51886ZM26.5229 24.3527L25.5454 24.6785C24.6542 22.0049 22.9963 17.9257 21.0885 13.3498L22.0395 12.9533L22.9905 12.5568C24.8917 17.1169 26.5808 21.2683 27.5003 24.0268L26.5229 24.3527ZM22.0395 12.9533L21.0547 13.2563C20.1933 10.456 19.7618 9.01284 19.2678 7.95478L20.2013 7.51886L21.1349 7.08294C21.7063 8.30658 22.1893 9.93615 23.0243 12.6504L22.0395 12.9533ZM20.2013 7.51886L19.2547 7.9257C19.0048 7.3441 18.8418 6.85393 18.6866 6.38833L19.6641 6.06251L20.6415 5.73668C20.7973 6.20388 20.9361 6.61908 21.148 7.11202L20.2013 7.51886Z" fill="black"/>
<path d="M29.1238 12.2342L28.9105 11.2261C28.9422 11.2194 28.9742 11.2142 29.0065 11.2105L29.1238 12.2342ZM32.4617 12.0078L32.4617 13.0382C32.191 13.0382 31.1701 13.0368 29.241 13.2578L29.1238 12.2342L29.0065 11.2105C31.0281 10.9789 32.1289 10.9775 32.4617 10.9775L32.4617 12.0078ZM29.1238 12.2342L29.337 13.2422C28.3679 13.4472 27.2369 13.8678 26.2781 14.3088L25.8475 13.3727L25.417 12.4366C26.4564 11.9586 27.7396 11.4738 28.9105 11.2261L29.1238 12.2342ZM25.8475 13.3727L26.2781 14.3088C25.3926 14.7161 24.4925 15.2358 23.2235 15.7152L22.8594 14.7513L22.4953 13.7875C23.6955 13.3341 24.3042 12.9485 25.417 12.4366L25.8475 13.3727Z" fill="black"/>
<path d="M80.0459 57.7803L79.623 58.7198C79.6151 58.7162 79.6073 58.7126 79.5995 58.7089L80.0459 57.7803ZM61.47 47.7778L60.9621 48.6743C60.9563 48.671 60.9505 48.6676 60.9447 48.6642L61.47 47.7778ZM151.35 86.0843L150.98 87.0459C149.02 86.292 147.06 85.5381 142.053 83.6412L142.418 82.6777L142.783 81.7142C147.794 83.6125 149.757 84.3676 151.72 85.1226L151.35 86.0843ZM142.418 82.6777L142.053 83.6412C137.048 81.7453 129.042 78.7242 124.311 76.8647L124.688 75.9058L125.064 74.9469C129.78 76.8003 137.769 79.8149 142.783 81.7142L142.418 82.6777ZM124.688 75.9058L124.311 76.8647C119.508 74.977 118.409 74.4155 115.739 73.4214L116.098 72.4558L116.458 71.4902C119.105 72.4761 120.421 73.1217 125.064 74.9469L124.688 75.9058ZM116.098 72.4558L115.739 73.4214C113.112 72.4435 108.996 71.0698 101.978 68.2518L102.362 67.2957L102.746 66.3396C109.734 69.1458 113.766 70.4882 116.458 71.4902L116.098 72.4558ZM102.362 67.2957L101.978 68.2518C94.9601 65.4336 85.1389 61.2029 79.623 58.7198L80.0459 57.7803L80.4689 56.8407C85.9636 59.3143 95.7586 63.5336 102.746 66.3396L102.362 67.2957ZM80.0459 57.7803L79.5995 58.7089C73.1517 55.6091 67.8116 52.5547 60.9621 48.6743L61.47 47.7778L61.9779 46.8814C68.8414 50.7697 74.1188 53.7876 80.4923 56.8516L80.0459 57.7803ZM61.47 47.7778L60.9447 48.6642C58.4222 47.1693 57.8908 46.6663 57.3418 46.1172L58.0703 45.3887L58.7989 44.6601C59.1826 45.0439 59.5566 45.4462 61.9953 46.8914L61.47 47.7778Z" fill="black"/>
<path d="M153.636 86.9974L153.176 87.919C152.905 87.7835 152.633 87.6458 151.677 87.2776L152.047 86.3161L152.418 85.3546C153.433 85.7455 153.765 85.9096 154.097 86.0759L153.636 86.9974ZM152.047 86.3161L151.677 87.2776C150.704 86.9029 149.054 86.3028 147.974 85.9169L148.321 84.9467L148.667 83.9764C149.75 84.3633 151.42 84.9703 152.418 85.3546L152.047 86.3161ZM148.321 84.9467L147.974 85.9169C146.901 85.5336 146.456 85.3851 145.994 85.2314L146.32 84.2539L146.646 83.2764C147.118 83.4337 147.578 83.587 148.667 83.9764L148.321 84.9467Z" fill="black"/>
<path d="M120.258 63.6782L119.493 62.9876C123.718 58.3106 127.945 53.6306 131.18 50.0867L131.941 50.7814L132.702 51.476C129.471 55.015 125.248 59.6904 121.022 64.3688L120.258 63.6782ZM131.941 50.7814L131.18 50.0867C134.416 46.541 136.532 44.2742 138.709 41.9415L139.462 42.6445L140.216 43.3476C138.04 45.6789 135.93 47.9389 132.702 51.476L131.941 50.7814Z" fill="black"/>
<path d="M106.078 46.3027L105.35 45.5742C105.71 45.2135 106.072 44.8682 109.533 42.2341L110.157 43.0539L110.781 43.8738C107.291 46.5301 107.05 46.7883 106.807 47.0313L106.078 46.3027ZM110.157 43.0539L109.533 42.2341C113.014 39.5843 119.664 34.5964 126.976 29.4559L127.569 30.2988L128.162 31.1417C120.878 36.262 114.25 41.2331 110.781 43.8738L110.157 43.0539Z" fill="black"/>
<path d="M97.3906 44.0147L96.3603 44.0147C96.3603 43.8952 96.3697 43.7068 96.4734 43.4635C96.5476 43.2893 96.6598 43.1117 96.7926 42.9225C97.0661 42.5329 97.583 41.8791 98.5625 40.7101L99.3522 41.3718L100.142 42.0335C99.1599 43.2056 98.6959 43.7978 98.4791 44.1067C98.3667 44.2667 98.3563 44.3015 98.3692 44.2711C98.3801 44.2455 98.3991 44.1936 98.411 44.1222C98.4224 44.053 98.421 43.9956 98.421 44.0147L97.3906 44.0147ZM99.3522 41.3718L98.5625 40.7101C100.535 38.3557 104.475 33.8101 108.995 29.1245L109.736 29.8399L110.478 30.5552C105.999 35.1976 102.093 39.7056 100.142 42.0335L99.3522 41.3718Z" fill="black"/>
<path d="M139.914 70.9939L138.983 70.5528C140.338 67.6924 141.711 64.7935 143.184 62.1497L144.084 62.6513L144.984 63.153C143.55 65.7264 142.206 68.5615 140.845 71.435L139.914 70.9939ZM144.084 62.6513L143.184 62.1497C144.661 59.5001 146.192 57.2042 147.745 54.8757L148.602 55.4473L149.459 56.0188C147.902 58.3544 146.415 60.5853 144.984 63.153L144.084 62.6513Z" fill="black"/>
<path d="M91.3629 229.847L92.3456 229.537L91.3629 229.847ZM85.5078 214.115L86.4605 213.723C88.5764 218.861 90.5832 223.951 92.3456 229.537L91.3629 229.847L90.3803 230.157C88.6447 224.655 86.6642 219.63 84.5551 214.508L85.5078 214.115ZM91.3629 229.847L92.3456 229.537C93.3528 232.73 93.984 236.625 94.6 242.124L93.5761 242.239L92.5521 242.353C91.9381 236.873 91.3235 233.147 90.3803 230.157L91.3629 229.847ZM93.5761 242.239L94.6 242.124C95.2159 247.621 95.6745 254.778 96.054 258.984L95.0278 259.077L94.0017 259.17C93.613 254.862 93.1663 247.835 92.5521 242.353L93.5761 242.239ZM95.0278 259.077L96.054 258.984C96.4348 263.205 96.727 264.349 96.8889 265.468L95.8692 265.616L94.8495 265.763C94.7004 264.733 94.389 263.463 94.0017 259.17L95.0278 259.077ZM95.8692 265.616L96.8889 265.468C97.0563 266.625 97.055 267.598 97.055 268.528L96.0246 268.528L94.9943 268.528C94.9943 267.593 94.993 266.756 94.8495 265.763L95.8692 265.616Z" fill="black"/>
<path d="M53.047 262.874L52.0929 262.485V262.485L53.047 262.874ZM50.0634 272.938L49.0964 273.294C49.074 273.233 49.0574 273.17 49.0468 273.106L50.0634 272.938ZM57.6103 236.063L58.6391 236.119C58.0297 247.249 56.5105 257.109 54.001 263.263L53.047 262.874L52.0929 262.485C54.4668 256.663 55.9747 247.09 56.5815 236.006L57.6103 236.063ZM53.047 262.874L54.001 263.263C53.0938 265.487 52.3036 267.63 51.7702 269.374C51.5031 270.247 51.3057 271.004 51.1889 271.612C51.0657 272.254 51.0552 272.62 51.0799 272.77L50.0634 272.938L49.0468 273.106C48.9584 272.571 49.0358 271.897 49.1652 271.223C49.301 270.516 49.5209 269.683 49.7996 268.772C50.3576 266.947 51.1724 264.742 52.0929 262.485L53.047 262.874ZM50.0634 272.938L51.0303 272.582C51.1548 272.92 51.4142 273.203 51.7923 273.422L51.2774 274.314L50.7625 275.207C50.0706 274.807 49.4246 274.185 49.0964 273.294L50.0634 272.938ZM51.2774 274.314L51.7923 273.422C52.1808 273.646 52.6394 273.767 53.2877 273.929L53.0378 274.929L52.7879 275.929C52.1925 275.78 51.4439 275.6 50.7625 275.207L51.2774 274.314Z" fill="black"/>
<path d="M54.9837 206.443L54.3802 207.278C54.3681 207.269 54.3563 207.26 54.3446 207.251L54.9837 206.443ZM63.1022 212.284L62.3736 213.013C62.3917 213.031 62.3681 213.007 62.2432 212.911C62.1363 212.829 61.9882 212.72 61.7961 212.58C61.4125 212.301 60.8755 211.919 60.1875 211.43C58.8143 210.455 56.8567 209.067 54.3802 207.278L54.9837 206.443L55.5871 205.607C58.0558 207.391 60.0066 208.774 61.3809 209.75C62.0667 210.237 62.6132 210.627 63.0075 210.913C63.3602 211.169 63.6828 211.407 63.8308 211.555L63.1022 212.284ZM54.9837 206.443L54.3446 207.251C52.0834 205.463 50.3568 203.742 48.9483 202.479L49.6361 201.712L50.3239 200.945C51.8326 202.298 53.4257 203.897 55.6228 205.634L54.9837 206.443ZM49.6361 201.712L48.9483 202.479C47.5263 201.205 46.3512 200.323 45.1084 199.391L45.7266 198.566L46.3448 197.742C47.5894 198.676 48.8286 199.605 50.3239 200.945L49.6361 201.712Z" fill="black"/>
<path d="M42.5187 196.738L42.1929 197.715C41.7032 197.552 41.2045 197.384 40.0903 196.828L40.5503 195.906L41.0103 194.984C42.0223 195.489 42.4289 195.622 42.8446 195.76L42.5187 196.738ZM40.5503 195.906L40.0903 196.828C39.006 196.287 37.3257 195.37 35.6238 194.442L36.1172 193.537L36.6106 192.633C38.3289 193.57 39.9683 194.464 41.0103 194.984L40.5503 195.906Z" fill="black"/>
<path d="M28.8009 188.966L27.9436 189.537C27.8002 189.322 27.6911 189.16 27.4749 188.936C27.2477 188.701 26.8832 188.38 26.23 187.907L26.8347 187.073L27.4394 186.239C28.1488 186.753 28.6165 187.152 28.9563 187.504C29.3071 187.866 29.4998 188.157 29.6582 188.394L28.8009 188.966ZM26.8347 187.073L26.23 187.907C24.9035 186.946 22.5277 185.46 20.0242 183.895L20.5703 183.021L21.1164 182.148C23.5878 183.692 26.0406 185.225 27.4394 186.239L26.8347 187.073Z" fill="black"/>
<path d="M83.8954 198.58L83.2279 197.795C83.2504 197.776 83.2737 197.758 83.2978 197.741L83.8954 198.58ZM93.8018 191.415L94.4066 192.249C94.3956 192.257 94.3844 192.265 94.3731 192.273L93.8018 191.415ZM74.0781 207.714L73.2864 207.055C75.634 204.236 79.6682 200.822 83.2279 197.795L83.8954 198.58L84.5628 199.365C80.9436 202.443 77.0765 205.724 74.8699 208.373L74.0781 207.714ZM83.8954 198.58L83.2978 197.741C87.7355 194.582 91.1667 191.933 93.2305 190.558L93.8018 191.415L94.3731 192.273C92.3261 193.636 89.054 196.173 84.4929 199.42L83.8954 198.58ZM93.8018 191.415L93.1969 190.581C93.9511 190.034 94.2759 189.699 94.6493 188.959L95.569 189.424L96.4888 189.888C95.9294 190.996 95.3489 191.566 94.4066 192.249L93.8018 191.415Z" fill="black"/>
<path d="M154.552 145.068L155.349 145.721C153.98 147.394 152.581 149.104 149.933 151.448L149.25 150.677L148.567 149.905C151.09 147.672 152.407 146.063 153.754 144.416L154.552 145.068ZM149.25 150.677L149.933 151.448C147.321 153.759 143.5 156.665 141.214 158.491L140.571 157.686L139.928 156.881C142.283 154.999 146.007 152.171 148.567 149.905L149.25 150.677ZM140.571 157.686L141.214 158.491C138.926 160.32 138.2 161.048 137.447 161.801L136.719 161.072L135.99 160.344C136.792 159.542 137.575 158.761 139.928 156.881L140.571 157.686Z" fill="black"/>
<path d="M128.031 167.475L128.759 168.203C128.307 168.656 127.854 169.109 127.017 169.945L126.289 169.217L125.56 168.488C126.397 167.651 126.849 167.199 127.302 166.746L128.031 167.475ZM126.289 169.217L127.017 169.945C126.191 170.771 124.949 172.015 123.982 172.824L123.321 172.033L122.66 171.243C123.541 170.506 124.712 169.336 125.56 168.488L126.289 169.217ZM123.321 172.033L123.982 172.824C122.969 173.671 122.284 174.015 121.633 174.34L121.172 173.419L120.711 172.497C121.304 172.201 121.826 171.941 122.66 171.243L123.321 172.033Z" fill="black"/>
<path d="M117.06 176.162L117.521 177.084C117.297 177.196 117.05 177.306 115.63 178.352L115.019 177.522L114.408 176.693C115.863 175.621 116.22 175.43 116.6 175.241L117.06 176.162ZM115.019 177.522L115.63 178.352C114.221 179.389 111.618 181.379 109.762 182.695L109.166 181.855L108.57 181.015C110.413 179.707 112.94 177.773 114.408 176.693L115.019 177.522ZM109.166 181.855L109.762 182.695C107.874 184.035 106.785 184.658 105.683 185.287L105.172 184.393L104.661 183.498C105.735 182.884 106.759 182.299 108.57 181.015L109.166 181.855Z" fill="black"/>
<path d="M144.83 108.121L144.472 109.087C144.458 109.082 144.444 109.076 144.43 109.07L144.83 108.121ZM152.722 111.233L151.994 111.961C152.08 112.047 152.134 112.061 152.011 111.996C151.925 111.951 151.794 111.889 151.611 111.808C151.247 111.649 150.729 111.44 150.06 111.18C148.724 110.662 146.835 109.963 144.472 109.087L144.83 108.121L145.188 107.155C147.544 108.028 149.45 108.734 150.805 109.259C151.481 109.521 152.033 109.743 152.44 109.922C152.642 110.01 152.822 110.094 152.969 110.172C153.079 110.23 153.289 110.342 153.451 110.504L152.722 111.233ZM144.83 108.121L144.43 109.07C142.349 108.194 141.062 107.394 139.91 106.493L140.546 105.681L141.181 104.87C142.178 105.651 143.305 106.361 145.23 107.171L144.83 108.121ZM140.546 105.681L139.91 106.493C138.779 105.607 137.831 104.658 136.904 103.731L137.633 103.002L138.361 102.273C139.3 103.212 140.163 104.073 141.181 104.87L140.546 105.681Z" fill="black"/>
<path d="M118.447 92.9128L117.998 93.8405L118.447 92.9128ZM93.9311 80.2766L94.3769 79.3477C94.3835 79.3509 94.3901 79.3541 94.3966 79.3574L93.9311 80.2766ZM74.2372 70.9967L74.0139 72.0025C74.0053 72.0006 73.9967 71.9986 73.9882 71.9965L74.2372 70.9967ZM139.919 103.917L139.379 104.794C135.51 102.413 129.468 99.383 117.998 93.8405L118.447 92.9128L118.895 91.9851C130.334 97.5127 136.482 100.592 140.459 103.039L139.919 103.917ZM118.447 92.9128L117.998 93.8405C110.557 90.2444 99.9806 84.4952 93.4656 81.1958L93.9311 80.2766L94.3966 79.3574C101.028 82.7156 111.451 88.3878 118.895 91.9851L118.447 92.9128ZM93.9311 80.2766L93.4853 81.2055C86.8993 78.0446 82.1996 75.7437 79.1713 74.2891C77.6256 73.5467 76.4645 73 75.6076 72.6208C74.7227 72.2292 74.2411 72.053 74.0139 72.0025L74.2372 70.9967L74.4605 69.9908C74.9181 70.0924 75.5804 70.3554 76.4414 70.7364C77.3304 71.1297 78.5169 71.6888 80.0635 72.4316C83.2194 73.9475 87.6821 76.1345 94.3769 79.3477L93.9311 80.2766ZM74.2372 70.9967L73.9882 71.9965C73.331 71.8328 72.8454 71.6706 72.3773 71.5146L72.7031 70.5371L73.0289 69.5596C73.4937 69.7146 73.9134 69.8542 74.4862 69.9969L74.2372 70.9967Z" fill="black"/>
<path d="M60.6031 73.352L60.87 74.3471V74.3471L60.6031 73.352ZM45.2851 77.3918L45.002 76.4011C45.0195 76.3961 45.0372 76.3915 45.055 76.3875L45.2851 77.3918ZM34.0823 78.8436L34.0154 77.8154C34.0235 77.8149 34.0315 77.8145 34.0396 77.8141L34.0823 78.8436ZM71.3279 69.6231L71.5977 70.6175C70.8321 70.8251 69.6099 71.3514 67.7404 72.0739C65.9258 72.7752 63.6244 73.6082 60.87 74.3471L60.6031 73.352L60.3361 72.3568C62.9933 71.644 65.2199 70.8388 66.9976 70.1518C68.7204 69.4859 70.1549 68.8737 71.0582 68.6286L71.3279 69.6231ZM60.6031 73.352L60.87 74.3471C55.7311 75.7257 50.8688 77.1697 45.5151 78.3961L45.2851 77.3918L45.055 76.3875C50.3599 75.1722 55.1303 73.7534 60.3361 72.3568L60.6031 73.352ZM45.2851 77.3918L45.5681 78.3825C42.2363 79.3345 39.7143 79.6408 34.1251 79.873L34.0823 78.8436L34.0396 77.8141C39.5663 77.5845 41.9003 77.2873 45.002 76.4011L45.2851 77.3918ZM34.0823 78.8436L34.1493 79.8717C33.0587 79.9427 32.738 80.0697 31.7179 80.2414L31.5469 79.2254L31.3759 78.2093C32.2031 78.0701 32.7877 77.8953 34.0154 77.8154L34.0823 78.8436Z" fill="black"/>
<path d="M31.5495 79.2251L30.608 79.6435C29.9912 78.2557 29.3687 76.8514 28.4375 73.6036L29.4279 73.3196L30.4183 73.0357C31.3161 76.1666 31.9008 77.4784 32.4911 78.8066L31.5495 79.2251ZM29.4279 73.3196L28.4375 73.6036C27.5151 70.387 26.3027 65.3847 25.6774 62.5022L26.6844 62.2838L27.6913 62.0654C28.3098 64.9169 29.5116 69.8736 30.4183 73.0357L29.4279 73.3196ZM26.6844 62.2838L25.6774 62.5022C25.0481 59.601 25.0322 58.9171 25.0322 58.1914H26.0625H27.0928C27.0928 58.7095 27.0769 59.2327 27.6913 62.0654L26.6844 62.2838Z" fill="black"/>
<path d="M66.8506 67.4972L66.3076 68.3729C66.2869 68.36 66.2666 68.3464 66.2469 68.3321L66.8506 67.4972ZM71.7889 70.5357L71.2174 71.393C70.3277 70.7998 68.5612 69.7702 66.3076 68.3729L66.8506 67.4972L67.3936 66.6215C69.5571 67.9631 71.4395 69.0644 72.3605 69.6784L71.7889 70.5357ZM66.8506 67.4972L66.2469 68.3321C65.7665 67.9848 65.4372 67.6797 65.1806 67.4241C64.8951 67.1396 64.8043 67.0317 64.6688 66.9221L65.3165 66.1209L65.9642 65.3196C66.2105 65.5187 66.4616 65.7914 66.635 65.9642C66.8374 66.1659 67.0842 66.3946 67.4543 66.6623L66.8506 67.4972ZM65.3165 66.1209L64.6688 66.9221C64.4556 66.7498 64.1859 66.6487 63.6898 66.4833L64.0156 65.5059L64.3414 64.5284C64.7782 64.674 65.4138 64.8746 65.9642 65.3196L65.3165 66.1209Z" fill="black"/>
<path d="M49.5522 72.8151L50.0014 73.7423V73.7423L49.5522 72.8151ZM39.2617 77.1613L39.6331 78.1223C39.6178 78.1282 39.6025 78.1338 39.5869 78.1389L39.2617 77.1613ZM64.0151 65.5059L64.3973 66.4627C62.9467 67.0421 60.4899 68.3043 57.787 69.7222C55.1146 71.1241 52.2317 72.6618 50.0014 73.7423L49.5522 72.8151L49.103 71.8878C51.2943 70.8261 54.1317 69.3128 56.8297 67.8974C59.4973 66.498 62.0611 65.1768 63.633 64.549L64.0151 65.5059ZM49.5522 72.8151L50.0014 73.7423C46.0793 75.6425 42.6 76.9758 39.6331 78.1223L39.2617 77.1613L38.8903 76.2002C41.8631 75.0513 45.2675 73.746 49.103 71.8878L49.5522 72.8151ZM39.2617 77.1613L39.5869 78.1389C38.461 78.5135 36.8302 79.1071 35.7843 79.5537L35.3796 78.6062L34.975 77.6586C36.0919 77.1816 37.7807 76.5681 38.9365 76.1836L39.2617 77.1613ZM35.3796 78.6062L35.7843 79.5537C35.2674 79.7745 34.9129 79.9514 34.5321 80.1315C34.1504 80.312 33.7659 80.4838 33.2506 80.6572L32.9219 79.6807L32.5932 78.7042C33.0015 78.5668 33.3052 78.4322 33.6511 78.2686C33.9979 78.1046 34.4104 77.8997 34.975 77.6586L35.3796 78.6062Z" fill="black"/>
<path d="M3.65301 172.505L2.92445 173.233L1.55269 171.861L2.28125 171.133L3.00981 170.404L4.38157 171.776L3.65301 172.505Z" fill="black"/>
<path d="M62.7933 224.872L63.8229 224.832L62.7933 224.872ZM62.1852 213.658H63.2155C63.2155 213.652 63.2167 213.69 63.2266 213.831C63.2352 213.956 63.2479 214.126 63.2647 214.353C63.2979 214.803 63.3454 215.46 63.4026 216.354C63.5169 218.143 63.6694 220.879 63.8229 224.832L62.7933 224.872L61.7637 224.912C61.6109 220.976 61.4593 218.256 61.3461 216.485C61.2895 215.6 61.2425 214.951 61.2095 214.504C61.1794 214.095 61.1548 213.784 61.1548 213.658H62.1852ZM62.7933 224.872L63.8229 224.832C64.0204 229.92 63.5227 237.076 63.2173 241.244L62.1897 241.169L61.1621 241.094C61.4695 236.899 61.956 229.863 61.7637 224.912L62.7933 224.872ZM62.1897 241.169L63.2173 241.244C62.9057 245.497 62.5921 246.608 62.0567 249.127L61.0489 248.912L60.0411 248.698C60.571 246.205 60.861 245.204 61.1621 241.094L62.1897 241.169ZM61.0489 248.912L62.0567 249.127C61.528 251.614 60.7768 255.519 60.0023 260.458L58.9844 260.298L57.9665 260.138C58.7466 255.164 59.5044 251.223 60.0411 248.698L61.0489 248.912Z" fill="black"/>
<path d="M72.2462 209.084L72.9748 209.813C72.6346 210.153 72.2984 210.483 70.9129 211.561L70.28 210.748L69.6471 209.935C70.9868 208.892 71.2542 208.619 71.5176 208.355L72.2462 209.084ZM70.28 210.748L70.9129 211.561C69.5411 212.629 67.1172 214.447 64.6338 216.31L64.0156 215.486L63.3974 214.661C65.889 212.793 68.2937 210.989 69.6471 209.935L70.28 210.748Z" fill="black"/>
<path d="M82.764 252.981L81.7778 253.279C79.8143 246.784 77.8582 240.314 76.2506 235.558L77.2267 235.228L78.2028 234.898C79.8235 239.693 81.7905 246.2 83.7503 252.682L82.764 252.981ZM77.2267 235.228L76.2506 235.558C74.6451 230.807 73.457 227.994 72.4154 225.977L73.3309 225.504L74.2463 225.031C75.3539 227.176 76.58 230.096 78.2028 234.898L77.2267 235.228ZM73.3309 225.504L72.4154 225.977C71.3868 223.985 70.5302 222.841 69.1631 221.168L69.9609 220.516L70.7588 219.864C72.1718 221.593 73.1259 222.862 74.2463 225.031L73.3309 225.504Z" fill="black"/>
<path d="M101.177 122L100.699 122.913L101.177 122ZM95.2073 142.713L95.6252 141.772L95.2073 142.713ZM77.3036 136.147L77.2891 135.117L77.3036 136.147ZM84.2584 150.368L85.0532 149.712L84.2584 150.368ZM81.2725 151.479L81.61 150.506L81.2725 151.479ZM63.7208 146.351L64.175 147.276V147.276L63.7208 146.351ZM66.0917 159.451L66.9936 159.949C66.8322 160.242 66.5393 160.437 66.2076 160.475L66.0917 159.451ZM48.1765 161.738L47.1581 161.581C47.2001 161.309 47.3492 161.064 47.5724 160.903L48.1765 161.738ZM117.055 130.436L118.085 130.436C118.085 130.741 117.949 131.07 117.651 131.284C117.415 131.453 117.18 131.476 117.087 131.48C116.896 131.49 116.739 131.446 116.694 131.433C116.562 131.396 116.423 131.338 116.309 131.287C116.062 131.178 115.721 131.007 115.312 130.795C114.487 130.365 113.302 129.719 111.859 128.929C108.967 127.346 105.006 125.166 100.699 122.913L101.177 122L101.654 121.087C105.982 123.351 109.961 125.541 112.849 127.122C114.297 127.914 115.462 128.549 116.264 128.967C116.669 129.178 116.961 129.323 117.145 129.404C117.246 129.449 117.27 129.455 117.249 129.449C117.24 129.446 117.215 129.439 117.18 129.433C117.15 129.428 117.077 129.417 116.98 129.422C116.902 129.427 116.677 129.446 116.449 129.61C116.158 129.819 116.025 130.141 116.025 130.436L117.055 130.436ZM101.177 122L100.699 122.913C100.685 122.906 100.697 122.913 100.728 122.924C100.746 122.93 100.849 122.968 101 122.97C101.155 122.971 101.522 122.928 101.789 122.583C102.029 122.272 102.001 121.949 101.988 121.854C101.962 121.669 101.886 121.567 101.925 121.632C101.94 121.658 101.974 121.711 102.036 121.796C102.291 122.143 102.785 122.72 103.431 123.438C104.707 124.856 106.448 126.684 107.696 128.005L106.947 128.712L106.199 129.42C104.962 128.112 103.197 126.259 101.899 124.816C101.258 124.103 100.698 123.455 100.375 123.015C100.293 122.903 100.213 122.786 100.147 122.674C100.104 122.601 99.9813 122.392 99.9459 122.134C99.928 122.003 99.9036 121.652 100.159 121.323C100.439 120.96 100.83 120.907 101.02 120.909C101.205 120.911 101.353 120.959 101.426 120.985C101.513 121.016 101.591 121.054 101.654 121.087L101.177 122ZM106.947 128.712L107.696 128.005C108.325 128.67 108.845 129.266 109.199 129.776C109.376 130.031 109.535 130.298 109.643 130.568C109.747 130.827 109.844 131.189 109.765 131.585C109.674 132.039 109.387 132.368 109.039 132.561C108.732 132.731 108.392 132.79 108.101 132.811C107.515 132.854 106.75 132.763 105.85 132.594L106.04 131.582L106.23 130.569C107.101 130.733 107.646 130.778 107.951 130.756C108.106 130.745 108.106 130.721 108.04 130.758C107.933 130.817 107.788 130.962 107.744 131.18C107.712 131.34 107.762 131.415 107.73 131.334C107.702 131.264 107.637 131.14 107.506 130.951C107.243 130.573 106.812 130.069 106.199 129.42L106.947 128.712ZM106.04 131.582L105.85 132.594C104.029 132.252 101.282 131.506 98.6134 130.793C95.9019 130.068 93.2735 129.379 91.5849 129.108L91.7482 128.09L91.9114 127.073C93.7277 127.365 96.4732 128.088 99.1454 128.802C101.86 129.527 104.507 130.245 106.23 130.569L106.04 131.582ZM91.7482 128.09L91.5849 129.108C90.7295 128.971 90.2459 128.967 90.0039 129.01C89.8926 129.031 89.9135 129.048 89.9784 128.996C90.0663 128.925 90.1221 128.82 90.1384 128.733C90.1492 128.675 90.1319 128.681 90.1608 128.794C90.1883 128.901 90.2449 129.055 90.3454 129.266C90.5481 129.692 90.8722 130.233 91.3071 130.916L90.4382 131.47L89.5692 132.023C89.1331 131.339 88.7472 130.703 88.4847 130.152C88.2481 129.655 87.9929 128.996 88.1128 128.354C88.1826 127.981 88.374 127.641 88.6899 127.387C88.9827 127.153 89.324 127.04 89.6359 126.983C90.2404 126.873 91.0145 126.929 91.9114 127.073L91.7482 128.09ZM90.4382 131.47L91.3071 130.916C92.1696 132.27 93.3458 133.989 94.4934 135.701C95.6275 137.394 96.7392 139.087 97.4282 140.333L96.5265 140.832L95.6248 141.33C94.9855 140.174 93.9241 138.553 92.7816 136.849C91.6526 135.164 90.4488 133.404 89.5692 132.023L90.4382 131.47ZM96.5265 140.832L97.4282 140.333C97.7712 140.954 98.034 141.508 98.1759 141.979C98.2469 142.215 98.3024 142.476 98.3019 142.742C98.3014 143.01 98.2426 143.354 98.0088 143.662C97.5136 144.314 96.7236 144.248 96.351 144.184C95.8921 144.104 95.3583 143.908 94.7894 143.655L95.2073 142.713L95.6252 141.772C95.8815 141.885 96.1008 141.973 96.2858 142.037C96.4734 142.102 96.6091 142.137 96.7013 142.153C96.8015 142.17 96.8031 142.157 96.745 142.168C96.7107 142.174 96.6498 142.191 96.5776 142.232C96.5024 142.274 96.4284 142.336 96.3674 142.416C96.2443 142.578 96.2412 142.723 96.2412 142.738C96.2412 142.75 96.2419 142.703 96.2029 142.574C96.1658 142.451 96.1028 142.286 96.0049 142.073C95.9079 141.861 95.7821 141.615 95.6248 141.33L96.5265 140.832ZM95.2073 142.713L94.7894 143.655C91.5177 142.203 88.2853 140.59 85.1772 139.294C82.0735 137.999 79.3714 137.149 77.318 137.178L77.3036 136.147L77.2891 135.117C79.8105 135.082 82.864 136.096 85.9704 137.392C89.0723 138.685 92.5045 140.387 95.6252 141.772L95.2073 142.713ZM77.3036 136.147L77.318 137.178C77.1434 137.18 77.2705 137.217 77.3544 137.07C77.3843 137.018 77.3165 137.099 77.383 137.486C77.5111 138.23 78.0069 139.389 78.8137 140.829C80.3991 143.658 82.9396 147.15 85.0532 149.712L84.2584 150.368L83.4635 151.023C81.3041 148.405 78.6821 144.81 77.0159 141.836C76.1969 140.374 75.5445 138.952 75.3522 137.835C75.2585 137.291 75.2374 136.622 75.5647 136.049C75.9459 135.381 76.6211 135.126 77.2891 135.117L77.3036 136.147ZM84.2584 150.368L85.0532 149.712C85.43 150.169 85.778 150.719 85.8263 151.31C85.8533 151.64 85.7864 152 85.5645 152.319C85.3497 152.628 85.0528 152.808 84.7786 152.91C84.265 153.101 83.6499 153.087 83.0671 153.004C82.4524 152.916 81.7337 152.729 80.935 152.453L81.2725 151.479L81.61 150.506C82.3282 150.754 82.9134 150.9 83.3581 150.964C83.5797 150.995 83.7517 151.004 83.8783 151C84.0096 150.996 84.0613 150.978 84.0604 150.978C84.0559 150.98 83.9597 151.017 83.8729 151.142C83.7789 151.277 83.7671 151.412 83.7725 151.478C83.7775 151.539 83.7752 151.401 83.4635 151.023L84.2584 150.368ZM81.2725 151.479L80.935 152.453C78.8572 151.732 76.8602 150.979 75.0073 150.276C73.1483 149.571 71.4438 148.92 69.9262 148.393C68.4029 147.865 67.1139 147.478 66.0847 147.288C65.0021 147.088 64.4271 147.152 64.175 147.276L63.7208 146.351L63.2667 145.426C64.1622 144.986 65.3239 145.052 66.4585 145.261C67.6465 145.48 69.0552 145.91 70.6018 146.447C72.154 146.985 73.8915 147.649 75.7382 148.35C77.5909 149.052 79.5632 149.796 81.61 150.506L81.2725 151.479ZM63.7208 146.351L64.175 147.276C63.8093 147.455 63.6547 147.65 63.5769 147.824C63.4906 148.017 63.4483 148.3 63.5074 148.722C63.6314 149.608 64.1402 150.737 64.8266 152.061C65.4752 153.313 66.282 154.736 66.7903 156.005C67.0484 156.649 67.2572 157.317 67.3298 157.964C67.4028 158.616 67.3447 159.314 66.9936 159.949L66.0917 159.451L65.1898 158.953C65.2702 158.808 65.3248 158.577 65.2819 158.194C65.2385 157.807 65.1026 157.333 64.8773 156.771C64.4188 155.627 63.7041 154.374 62.997 153.009C62.3277 151.718 61.6465 150.292 61.4667 149.008C61.3739 148.346 61.4012 147.641 61.6961 146.982C61.9996 146.304 62.5378 145.784 63.2667 145.426L63.7208 146.351ZM66.0917 159.451L66.2076 160.475C62.379 160.909 58.4626 161.016 55.3282 161.24C53.737 161.353 52.3428 161.496 51.1992 161.719C50.0333 161.946 49.2448 162.236 48.7806 162.572L48.1765 161.738L47.5724 160.903C48.408 160.298 49.5574 159.94 50.805 159.696C52.075 159.449 53.57 159.299 55.1814 159.184C58.452 158.951 62.1934 158.856 65.9758 158.427L66.0917 159.451ZM48.1765 161.738L49.1948 161.894C49.1352 162.282 49.1566 162.859 49.2849 163.639C49.411 164.405 49.6288 165.303 49.9165 166.305C50.4927 168.313 51.3232 170.655 52.1814 173.073L51.2104 173.418L50.2394 173.763C49.3874 171.362 48.533 168.955 47.9357 166.873C47.6367 165.831 47.3957 164.849 47.2516 163.973C47.1098 163.111 47.0498 162.285 47.1581 161.581L48.1765 161.738Z" fill="black"/>
<path d="M38.512 96.7202L37.5225 97.0075L38.512 96.7202ZM38.5989 100.929L39.5852 101.227L38.5989 100.929ZM27.6362 108.028L27.9836 108.998L27.6362 108.028ZM11.7306 109.635L11.7397 110.666C11.6494 110.666 11.5595 110.655 11.4721 110.633L11.7306 109.635ZM1.5636 106.97L1.03506 107.854C0.964432 107.812 0.899113 107.761 0.8405 107.704L1.5636 106.97ZM30.6701 81.0547L31.3782 80.3063C34.4654 83.2273 36.963 87.6889 39.5015 96.433L38.512 96.7202L37.5225 97.0075C35.022 88.3942 32.6545 84.3508 29.9619 81.8031L30.6701 81.0547ZM38.512 96.7202L39.5015 96.433C40.1304 98.5992 39.9396 100.054 39.5852 101.227L38.5989 100.929L37.6125 100.631C37.8617 99.8065 38.0312 98.7597 37.5225 97.0075L38.512 96.7202ZM38.5989 100.929L39.5852 101.227C38.8899 103.529 36.9095 105.091 34.7792 106.236C32.6314 107.39 30.0857 108.245 27.9836 108.998L27.6362 108.028L27.2888 107.058C29.4644 106.279 31.8264 105.484 33.8037 104.421C35.7984 103.349 37.1605 102.128 37.6125 100.631L38.5989 100.929ZM27.6362 108.028L27.9836 108.998C24.9347 110.09 21.4083 110.581 11.7397 110.666L11.7306 109.635L11.7216 108.605C21.3857 108.52 24.5991 108.021 27.2888 107.058L27.6362 108.028ZM11.7306 109.635L11.4721 110.633C8.6893 109.911 6.35348 109.362 4.59365 108.931C3.71916 108.717 2.97836 108.529 2.40475 108.365C1.87554 108.214 1.36055 108.049 1.03506 107.854L1.5636 106.97L2.09215 106.085C2.08934 106.083 2.10604 106.093 2.15262 106.114C2.19711 106.133 2.2575 106.157 2.33661 106.185C2.49577 106.242 2.70598 106.308 2.97178 106.384C3.50352 106.536 4.21006 106.715 5.08428 106.93C6.82187 107.356 9.18891 107.912 11.9892 108.638L11.7306 109.635ZM1.5636 106.97L0.8405 107.704C0.321598 107.192 0.105316 106.475 -0.0288734 106.072L0.948597 105.746L1.92606 105.421C2.10281 105.951 2.18832 106.139 2.28671 106.236L1.5636 106.97Z" fill="black"/>
<path d="M16.1522 92.7604L16.8267 93.5393C16.7907 93.5705 16.7525 93.5991 16.7125 93.6251L16.1522 92.7604ZM3.26454 101.306L3.87255 102.138C3.8671 102.142 3.8616 102.146 3.85607 102.15L3.26454 101.306ZM29.7578 81.0547L30.4174 81.8462C26.8059 84.8558 21.9351 89.1156 16.8267 93.5393L16.1522 92.7604L15.4777 91.9815C20.5707 87.5711 25.4668 83.2893 29.0982 80.2632L29.7578 81.0547ZM16.1522 92.7604L16.7125 93.6251C11.7041 96.8705 7.80131 99.2666 3.87255 102.138L3.26454 101.306L2.65652 100.475C6.6474 97.5575 10.6368 95.1066 15.5919 91.8957L16.1522 92.7604ZM3.26454 101.306L3.85607 102.15C2.26568 103.265 1.61795 103.593 0.954363 103.924L0.493578 103.003L0.032795 102.081C0.61294 101.791 1.17237 101.515 2.673 100.463L3.26454 101.306Z" fill="black"/>
<path d="M44.3129 96.0524L45.3242 95.855L44.3129 96.0524ZM41.7386 111.062L40.8156 110.604L41.7386 111.062ZM25.1266 116.796L25.2667 117.816C25.2413 117.82 25.2158 117.822 25.1903 117.824L25.1266 116.796ZM3.47791 114.971L3.2254 115.97C3.2007 115.964 3.17625 115.957 3.15208 115.949L3.47791 114.971ZM36.6174 81.5117L37.2026 80.6637C39.3889 82.1726 41.1589 84.7049 42.4975 87.4272C43.8453 90.1684 44.8077 93.2086 45.3242 95.855L44.3129 96.0524L43.3017 96.2498C42.8168 93.7658 41.909 90.9006 40.6482 88.3365C39.3782 85.7535 37.8011 83.5806 36.0321 82.3597L36.6174 81.5117ZM44.3129 96.0524L45.3242 95.855C46.0567 99.6076 45.8714 105.05 42.6616 111.52L41.7386 111.062L40.8156 110.604C43.8245 104.54 43.9473 99.5574 43.3017 96.2498L44.3129 96.0524ZM41.7386 111.062L42.6616 111.52C42.064 112.724 40.9826 113.632 39.7275 114.333C38.4653 115.039 36.9411 115.584 35.3291 116.022C32.1098 116.897 28.3533 117.393 25.2667 117.816L25.1266 116.796L24.9865 115.775C28.114 115.346 31.7247 114.866 34.7886 114.034C36.3182 113.618 37.6645 113.126 38.7221 112.535C39.7868 111.94 40.4745 111.291 40.8156 110.604L41.7386 111.062ZM25.1266 116.796L25.1903 117.824C18.9312 118.212 8.4852 117.3 3.2254 115.97L3.47791 114.971L3.73041 113.972C8.76339 115.245 18.9944 116.143 25.0629 115.767L25.1266 116.796ZM3.47791 114.971L3.15208 115.949C2.4316 115.709 1.94789 115.546 0.533695 114.919L0.95158 113.977L1.36946 113.035C2.71708 113.633 3.13873 113.772 3.80373 113.994L3.47791 114.971Z" fill="black"/>
<path d="M80.0995 273.763L79.0692 273.763C79.0692 273.722 79.0674 273.77 79.0788 273.823C79.0887 273.869 79.0982 273.876 79.0718 273.823C79.0099 273.699 78.846 273.431 78.4279 272.872L79.253 272.255L80.078 271.638C80.5065 272.211 80.7659 272.603 80.9156 272.903C80.995 273.062 81.0575 273.222 81.0938 273.391C81.1317 273.568 81.1299 273.71 81.1299 273.763L80.0995 273.763ZM79.253 272.255L78.4279 272.872C77.5984 271.763 75.9243 269.717 74.1713 267.574L74.9688 266.922L75.7662 266.269C77.5022 268.391 79.2143 270.483 80.078 271.638L79.253 272.255Z" fill="black"/>
<path d="M31.3516 192.256C32.6826 192.522 33.7677 192.925 34.5724 193.462C34.9778 193.732 35.3771 193.998 35.6494 194.335C35.9216 194.672 36.0547 195.071 35.3852 196.289" stroke="white" stroke-width="4.12137" stroke-linecap="round"/>
<path d="M59.1812 245.094C58.3825 247.76 56.761 253.153 56.3597 255.17C55.6881 257.324 54.8814 258.804 54.478 259.808C54.3409 260.413 54.3409 261.212 53.9375 262.035" stroke="white" stroke-width="4.12137" stroke-linecap="round"/>
<path d="M32.1667 195.482L32.1667 196.513C32.1589 196.513 32.2444 196.514 32.3385 196.486C32.4019 196.468 32.4169 196.452 32.3524 196.489C32.2172 196.568 31.9313 196.763 31.3324 197.228L30.7005 196.414L30.0686 195.6C30.6697 195.134 31.0503 194.863 31.315 194.709C31.4504 194.63 31.5986 194.555 31.7619 194.508C31.9559 194.451 32.108 194.452 32.1667 194.452L32.1667 195.482ZM30.7005 196.414L31.3324 197.228C30.1473 198.148 27.8996 199.999 25.5612 201.925L24.9063 201.129L24.2513 200.334C26.5757 198.42 28.8537 196.544 30.0686 195.6L30.7005 196.414Z" fill="black"/>
</g>
<rect x="0.5" y="0.5" width="287" height="158" transform="matrix(4.37114e-08 1 1 -4.37114e-08 2.18557e-08 6.92826e-06)" stroke="black"/>
<defs>
<clipPath id="clip0_291_23802">
<rect width="288" height="159" transform="matrix(4.37114e-08 1 1 -4.37114e-08 0 6.95011e-06)" fill="white"/>
</clipPath>
</defs>
</svg>
