<svg width="32" height="23" viewBox="0 0 32 23" fill="none" xmlns="http://www.w3.org/2000/svg">
<path fill-rule="evenodd" clip-rule="evenodd" d="M30.6577 11.2859C30.6577 10.6493 30.4479 10.0355 30.0689 9.56297C27.6689 6.65721 22.206 1 15.8289 1C9.45175 1 3.98889 6.65721 1.58889 9.56297C1.20983 10.0355 1 10.6493 1 11.2859C1 11.9224 1.20983 12.5362 1.58889 13.0087C3.98889 15.9145 9.45175 21.5717 15.8289 21.5717C22.206 21.5717 27.6689 15.9145 30.0689 13.0087C30.4479 12.5362 30.6577 11.9224 30.6577 11.2859ZM20.4003 11.2857C20.4003 13.8104 18.3536 15.8571 15.8289 15.8571C13.3042 15.8571 11.2575 13.8104 11.2575 11.2857C11.2575 8.76098 13.3042 6.71429 15.8289 6.71429C18.3536 6.71429 20.4003 8.76098 20.4003 11.2857Z" fill="#F5F1ED"/>
<path d="M30.0689 9.56297C30.4479 10.0355 30.6577 10.6493 30.6577 11.2859C30.6577 11.9224 30.4479 12.5362 30.0689 13.0087C27.6689 15.9145 22.206 21.5717 15.8289 21.5717C9.45175 21.5717 3.98889 15.9145 1.58889 13.0087C1.20983 12.5362 1 11.9224 1 11.2859C1 10.6493 1.20983 10.0355 1.58889 9.56297C3.98889 6.65721 9.45175 1 15.8289 1C22.206 1 27.6689 6.65721 30.0689 9.56297Z" stroke="#3C3744" stroke-width="2" stroke-linecap="round" stroke-linejoin="round"/>
<path d="M15.8214 15.8572C18.3462 15.8572 20.3929 13.8105 20.3929 11.2858C20.3929 8.76105 18.3462 6.71436 15.8214 6.71436C13.2967 6.71436 11.25 8.76105 11.25 11.2858C11.25 13.8105 13.2967 15.8572 15.8214 15.8572Z" fill="white"/>
<path d="M15.8214 15.8572C18.3462 15.8572 20.3929 13.8105 20.3929 11.2858C20.3929 8.76105 18.3462 6.71436 15.8214 6.71436C13.2967 6.71436 11.25 8.76105 11.25 11.2858C11.25 13.8105 13.2967 15.8572 15.8214 15.8572Z" stroke="#3C3744" stroke-width="2" stroke-linecap="round" stroke-linejoin="round"/>
</svg>
