<svg width="1448" height="418" viewBox="0 0 1448 418" fill="none" xmlns="http://www.w3.org/2000/svg">
<path d="M1.1875 273H1447" stroke="#FFCFCF" stroke-width="1.9995" stroke-linecap="round"/>
<path d="M1.1875 289H1447" stroke="#FFCFCF" stroke-width="1.9995" stroke-linecap="round"/>
<path d="M1.1875 305H1447" stroke="#FFCFCF" stroke-width="1.9995" stroke-linecap="round"/>
<path d="M1.1875 321H1447" stroke="#FFCFCF" stroke-width="1.9995" stroke-linecap="round"/>
<path d="M1.1875 337H1447" stroke="#FFCFCF" stroke-width="1.9995" stroke-linecap="round"/>
<path d="M1.1875 353H1447" stroke="#FFCFCF" stroke-width="1.9995" stroke-linecap="round"/>
<path d="M1.1875 369H1447" stroke="#FFCFCF" stroke-width="1.9995" stroke-linecap="round"/>
<path d="M1.1875 385H1447" stroke="#FFCFCF" stroke-width="1.9995" stroke-linecap="round"/>
<path d="M1.1875 401H1447" stroke="#FFCFCF" stroke-width="1.9995" stroke-linecap="round"/>
<path d="M1.1875 417H1447" stroke="#FFCFCF" stroke-width="1.9995" stroke-linecap="round"/>
<path d="M1.1875 257H1447" stroke="#FFCFCF" stroke-width="1.9995" stroke-linecap="round"/>
<path d="M1.1875 241H1447" stroke="#FFCFCF" stroke-width="1.9995" stroke-linecap="round"/>
<path d="M1.1875 225H1447" stroke="#FFCFCF" stroke-width="1.9995" stroke-linecap="round"/>
<path d="M1.1875 209H1447" stroke="#FFCFCF" stroke-width="1.9995" stroke-linecap="round"/>
<path d="M1.1875 193H1447" stroke="#FFCFCF" stroke-width="1.9995" stroke-linecap="round"/>
<path d="M1.1875 177H1447" stroke="#FFCFCF" stroke-width="1.9995" stroke-linecap="round"/>
<path d="M1.1875 161H1447" stroke="#FFCFCF" stroke-width="1.9995" stroke-linecap="round"/>
<path d="M1.1875 145H1447" stroke="#FFCFCF" stroke-width="1.9995" stroke-linecap="round"/>
<path d="M1.1875 129H1447" stroke="#FFCFCF" stroke-width="1.9995" stroke-linecap="round"/>
<path d="M1.1875 113H1447" stroke="#FFCFCF" stroke-width="1.9995" stroke-linecap="round"/>
<path d="M1.1875 96.9998H1447" stroke="#FFCFCF" stroke-width="1.9995" stroke-linecap="round"/>
<path d="M1.1875 80.9998H1447" stroke="#FFCFCF" stroke-width="1.9995" stroke-linecap="round"/>
<path d="M1.1875 64.9998H1447" stroke="#FFCFCF" stroke-width="1.9995" stroke-linecap="round"/>
<path d="M1.1875 48.9998H1447" stroke="#FFCFCF" stroke-width="1.9995" stroke-linecap="round"/>
<path d="M1.1875 16.9998H1447" stroke="#FFCFCF" stroke-width="1.9995" stroke-linecap="round"/>
<path d="M1.1875 0.999756H1447" stroke="#FFCFCF" stroke-width="1.9995" stroke-linecap="round"/>
<path d="M1.1875 32.9998H1447" stroke="#FFCFCF" stroke-width="1.9995" stroke-linecap="round"/>
<path d="M1398.62 0.999756L1398.62 417" stroke="#FFCFCF" stroke-width="1.9995" stroke-linecap="round"/>
<path d="M1414.68 0.999756L1414.68 417" stroke="#FFCFCF" stroke-width="1.9995" stroke-linecap="round"/>
<path d="M1430.75 0.999756L1430.75 417" stroke="#FFCFCF" stroke-width="1.9995" stroke-linecap="round"/>
<path d="M1446.81 0.999756L1446.81 417" stroke="#FFCFCF" stroke-width="1.9995" stroke-linecap="round"/>
<path d="M1366.49 0.999756L1366.49 417" stroke="#FFCFCF" stroke-width="1.9995" stroke-linecap="round"/>
<path d="M1350.42 0.999756L1350.42 417" stroke="#FFCFCF" stroke-width="1.9995" stroke-linecap="round"/>
<path d="M1334.36 0.999756L1334.36 417" stroke="#FFCFCF" stroke-width="1.9995" stroke-linecap="round"/>
<path d="M1318.3 0.999756L1318.3 417" stroke="#FFCFCF" stroke-width="1.9995" stroke-linecap="round"/>
<path d="M1302.23 0.999756L1302.23 417" stroke="#FFCFCF" stroke-width="1.9995" stroke-linecap="round"/>
<path d="M1286.16 0.999756L1286.16 417" stroke="#FFCFCF" stroke-width="1.9995" stroke-linecap="round"/>
<path d="M1270.1 0.999756L1270.1 417" stroke="#FFCFCF" stroke-width="1.9995" stroke-linecap="round"/>
<path d="M1254.04 0.999756L1254.04 417" stroke="#FFCFCF" stroke-width="1.9995" stroke-linecap="round"/>
<path d="M1237.97 0.999756L1237.97 417" stroke="#FFCFCF" stroke-width="1.9995" stroke-linecap="round"/>
<path d="M1221.91 0.999756L1221.91 417" stroke="#FFCFCF" stroke-width="1.9995" stroke-linecap="round"/>
<path d="M1205.84 0.999756L1205.84 417" stroke="#FFCFCF" stroke-width="1.9995" stroke-linecap="round"/>
<path d="M1189.78 0.999756L1189.78 417" stroke="#FFCFCF" stroke-width="1.9995" stroke-linecap="round"/>
<path d="M1173.71 0.999756L1173.71 417" stroke="#FFCFCF" stroke-width="1.9995" stroke-linecap="round"/>
<path d="M1157.65 0.999756L1157.65 417" stroke="#FFCFCF" stroke-width="1.9995" stroke-linecap="round"/>
<path d="M1141.59 0.999756L1141.59 417" stroke="#FFCFCF" stroke-width="1.9995" stroke-linecap="round"/>
<path d="M1125.52 0.999756L1125.52 417" stroke="#FFCFCF" stroke-width="1.9995" stroke-linecap="round"/>
<path d="M1109.45 0.999756L1109.45 417" stroke="#FFCFCF" stroke-width="1.9995" stroke-linecap="round"/>
<path d="M1093.39 0.999756L1093.39 417" stroke="#FFCFCF" stroke-width="1.9995" stroke-linecap="round"/>
<path d="M1077.33 0.999756L1077.33 417" stroke="#FFCFCF" stroke-width="1.9995" stroke-linecap="round"/>
<path d="M1061.27 0.999756L1061.27 417" stroke="#FFCFCF" stroke-width="1.9995" stroke-linecap="round"/>
<path d="M1045.2 0.999756L1045.2 417" stroke="#FFCFCF" stroke-width="1.9995" stroke-linecap="round"/>
<path d="M1029.13 0.999756L1029.13 417" stroke="#FFCFCF" stroke-width="1.9995" stroke-linecap="round"/>
<path d="M1013.07 0.999756L1013.07 417" stroke="#FFCFCF" stroke-width="1.9995" stroke-linecap="round"/>
<path d="M997 0.999756L997 417" stroke="#FFCFCF" stroke-width="1.9995" stroke-linecap="round"/>
<path d="M980.938 0.999756L980.938 417" stroke="#FFCFCF" stroke-width="1.9995" stroke-linecap="round"/>
<path d="M964.875 0.999756L964.875 417" stroke="#FFCFCF" stroke-width="1.9995" stroke-linecap="round"/>
<path d="M948.812 0.999756L948.813 417" stroke="#FFCFCF" stroke-width="1.9995" stroke-linecap="round"/>
<path d="M932.742 0.999756L932.742 417" stroke="#FFCFCF" stroke-width="1.9995" stroke-linecap="round"/>
<path d="M916.68 0.999756L916.68 417" stroke="#FFCFCF" stroke-width="1.9995" stroke-linecap="round"/>
<path d="M900.617 0.999756L900.617 417" stroke="#FFCFCF" stroke-width="1.9995" stroke-linecap="round"/>
<path d="M884.555 0.999756L884.555 417" stroke="#FFCFCF" stroke-width="1.9995" stroke-linecap="round"/>
<path d="M868.484 0.999756L868.484 417" stroke="#FFCFCF" stroke-width="1.9995" stroke-linecap="round"/>
<path d="M852.422 0.999756L852.422 417" stroke="#FFCFCF" stroke-width="1.9995" stroke-linecap="round"/>
<path d="M836.359 0.999756L836.359 417" stroke="#FFCFCF" stroke-width="1.9995" stroke-linecap="round"/>
<path d="M820.297 0.999756L820.297 417" stroke="#FFCFCF" stroke-width="1.9995" stroke-linecap="round"/>
<path d="M804.227 0.999756L804.227 417" stroke="#FFCFCF" stroke-width="1.9995" stroke-linecap="round"/>
<path d="M788.164 0.999756L788.164 417" stroke="#FFCFCF" stroke-width="1.9995" stroke-linecap="round"/>
<path d="M772.102 0.999756L772.102 417" stroke="#FFCFCF" stroke-width="1.9995" stroke-linecap="round"/>
<path d="M756.039 0.999756L756.039 417" stroke="#FFCFCF" stroke-width="1.9995" stroke-linecap="round"/>
<path d="M739.969 0.999756L739.969 417" stroke="#FFCFCF" stroke-width="1.9995" stroke-linecap="round"/>
<path d="M723.906 0.999756L723.906 417" stroke="#FFCFCF" stroke-width="1.9995" stroke-linecap="round"/>
<path d="M707.844 0.999756L707.844 417" stroke="#FFCFCF" stroke-width="1.9995" stroke-linecap="round"/>
<path d="M691.773 0.999756L691.773 417" stroke="#FFCFCF" stroke-width="1.9995" stroke-linecap="round"/>
<path d="M675.711 0.999756L675.711 417" stroke="#FFCFCF" stroke-width="1.9995" stroke-linecap="round"/>
<path d="M659.648 0.999756L659.648 417" stroke="#FFCFCF" stroke-width="1.9995" stroke-linecap="round"/>
<path d="M643.586 0.999756L643.586 417" stroke="#FFCFCF" stroke-width="1.9995" stroke-linecap="round"/>
<path d="M627.516 0.999756L627.516 417" stroke="#FFCFCF" stroke-width="1.9995" stroke-linecap="round"/>
<path d="M611.453 0.999756L611.453 417" stroke="#FFCFCF" stroke-width="1.9995" stroke-linecap="round"/>
<path d="M595.391 0.999756L595.391 417" stroke="#FFCFCF" stroke-width="1.9995" stroke-linecap="round"/>
<path d="M579.328 0.999756L579.328 417" stroke="#FFCFCF" stroke-width="1.9995" stroke-linecap="round"/>
<path d="M563.258 0.999756L563.258 417" stroke="#FFCFCF" stroke-width="1.9995" stroke-linecap="round"/>
<path d="M547.195 0.999756L547.195 417" stroke="#FFCFCF" stroke-width="1.9995" stroke-linecap="round"/>
<path d="M531.133 0.999756L531.133 417" stroke="#FFCFCF" stroke-width="1.9995" stroke-linecap="round"/>
<path d="M515.07 0.999756L515.07 417" stroke="#FFCFCF" stroke-width="1.9995" stroke-linecap="round"/>
<path d="M499 0.999756L499 417" stroke="#FFCFCF" stroke-width="1.9995" stroke-linecap="round"/>
<path d="M482.938 0.999756L482.938 417" stroke="#FFCFCF" stroke-width="1.9995" stroke-linecap="round"/>
<path d="M466.875 0.999756L466.875 417" stroke="#FFCFCF" stroke-width="1.9995" stroke-linecap="round"/>
<path d="M450.805 0.999756L450.805 417" stroke="#FFCFCF" stroke-width="1.9995" stroke-linecap="round"/>
<path d="M434.742 0.999756L434.742 417" stroke="#FFCFCF" stroke-width="1.9995" stroke-linecap="round"/>
<path d="M418.68 0.999756L418.68 417" stroke="#FFCFCF" stroke-width="1.9995" stroke-linecap="round"/>
<path d="M402.617 0.999756L402.617 417" stroke="#FFCFCF" stroke-width="1.9995" stroke-linecap="round"/>
<path d="M386.547 0.999756L386.547 417" stroke="#FFCFCF" stroke-width="1.9995" stroke-linecap="round"/>
<path d="M370.484 0.999756L370.484 417" stroke="#FFCFCF" stroke-width="1.9995" stroke-linecap="round"/>
<path d="M354.422 0.999756L354.422 417" stroke="#FFCFCF" stroke-width="1.9995" stroke-linecap="round"/>
<path d="M338.359 0.999756L338.359 417" stroke="#FFCFCF" stroke-width="1.9995" stroke-linecap="round"/>
<path d="M322.289 0.999756L322.289 417" stroke="#FFCFCF" stroke-width="1.9995" stroke-linecap="round"/>
<path d="M306.227 0.999756L306.227 417" stroke="#FFCFCF" stroke-width="1.9995" stroke-linecap="round"/>
<path d="M290.164 0.999756L290.164 417" stroke="#FFCFCF" stroke-width="1.9995" stroke-linecap="round"/>
<path d="M274.102 0.999756L274.102 417" stroke="#FFCFCF" stroke-width="1.9995" stroke-linecap="round"/>
<path d="M258.031 0.999756L258.031 417" stroke="#FFCFCF" stroke-width="1.9995" stroke-linecap="round"/>
<path d="M241.969 0.999756L241.969 417" stroke="#FFCFCF" stroke-width="1.9995" stroke-linecap="round"/>
<path d="M225.906 0.999756L225.906 417" stroke="#FFCFCF" stroke-width="1.9995" stroke-linecap="round"/>
<path d="M209.836 0.999756L209.836 417" stroke="#FFCFCF" stroke-width="1.9995" stroke-linecap="round"/>
<path d="M193.773 0.999756L193.773 417" stroke="#FFCFCF" stroke-width="1.9995" stroke-linecap="round"/>
<path d="M177.711 0.999756L177.711 417" stroke="#FFCFCF" stroke-width="1.9995" stroke-linecap="round"/>
<path d="M161.648 0.999756L161.648 417" stroke="#FFCFCF" stroke-width="1.9995" stroke-linecap="round"/>
<path d="M145.578 0.999756L145.578 417" stroke="#FFCFCF" stroke-width="1.9995" stroke-linecap="round"/>
<path d="M129.516 0.999756L129.516 417" stroke="#FFCFCF" stroke-width="1.9995" stroke-linecap="round"/>
<path d="M113.453 0.999756L113.453 417" stroke="#FFCFCF" stroke-width="1.9995" stroke-linecap="round"/>
<path d="M97.3906 0.999756L97.3906 417" stroke="#FFCFCF" stroke-width="1.9995" stroke-linecap="round"/>
<path d="M81.3203 0.999756L81.3203 417" stroke="#FFCFCF" stroke-width="1.9995" stroke-linecap="round"/>
<path d="M65.2578 0.999756L65.2578 417" stroke="#FFCFCF" stroke-width="1.9995" stroke-linecap="round"/>
<path d="M49.1953 0.999756L49.1953 417" stroke="#FFCFCF" stroke-width="1.9995" stroke-linecap="round"/>
<path d="M33.1328 0.999756L33.1328 417" stroke="#FFCFCF" stroke-width="1.9995" stroke-linecap="round"/>
<path d="M17.0625 0.999756L17.0625 417" stroke="#FFCFCF" stroke-width="1.9995" stroke-linecap="round"/>
<path d="M1 0.999756L1.00002 417" stroke="#FFCFCF" stroke-width="1.9995" stroke-linecap="round"/>
<path d="M1382.55 0.999756L1382.55 417" stroke="#FFCFCF" stroke-width="1.9995" stroke-linecap="round"/>
<path d="M1.1875 32.9998H1447" stroke="#FF4343" stroke-width="1.9995" stroke-linecap="round"/>
<path d="M1.1875 113H1447" stroke="#FF4343" stroke-width="1.9995" stroke-linecap="round"/>
<path d="M1.1875 257H1447" stroke="#FF4343" stroke-width="1.9995" stroke-linecap="round"/>
<path d="M1.1875 353H1447" stroke="#FF4343" stroke-width="1.9995" stroke-linecap="round"/>
<path d="M1.1875 385H1447" stroke="#FF4343" stroke-width="1.9995" stroke-linecap="round"/>
<path d="M1.1875 289H1447" stroke="#FF4343" stroke-width="1.9995" stroke-linecap="round"/>
</svg>
