<svg width="1440" height="416" viewBox="0 0 1440 416" fill="none" xmlns="http://www.w3.org/2000/svg">
<path fill-rule="evenodd" clip-rule="evenodd" d="M758.64 256.93H624.023V33.0857H743.978L751.991 32.9919C787.329 32.9919 815.975 61.6386 815.975 96.9759C815.975 109.164 812.568 120.555 806.653 130.251C822.074 143.453 831.971 163.062 831.971 184.954C831.971 224.709 799.744 256.936 759.989 256.936L758.64 256.93ZM672.011 80.9799H743.993C775.985 80.9799 775.985 120.97 743.993 120.97H672.011V80.9799ZM672.011 160.96H759.989C791.981 160.96 791.981 208.948 759.989 208.948H672.011V160.96Z" fill="#3C3744"/>
<path d="M1167.89 256.936H1119.95V204.949H1071.71V256.936H1023.92V112.972H1071.71V164.959H1119.95V112.972H1167.89V256.936Z" fill="#3C3744"/>
<path d="M1391.83 288.928H1343.84V256.772H1231.87V288.928H1183.88V208.948H1215.87L1223.87 152.962V112.972H1359.84V208.948H1391.83V288.928ZM1311.85 208.948V160.96H1271.86L1263.86 208.948H1311.85Z" fill="#3C3744"/>
<path d="M592.03 256.936H540.043V191.498L480.058 256.936H432.07V112.972H484.057V179.614L548.041 112.972H592.03V256.936Z" fill="#3C3744"/>
<path d="M400.081 256.936H352.143V204.949H303.908V256.936H256.117V112.972H303.908V164.959H352.143V112.972H400.081V256.936Z" fill="#3C3744"/>
<path fill-rule="evenodd" clip-rule="evenodd" d="M959.941 198.917L1007.33 194.772C1007.72 191.555 1007.93 188.279 1007.93 184.954C1007.93 174.393 1005.88 164.31 1002.16 155.081C990.328 125.707 961.56 104.974 927.949 104.974C883.777 104.974 847.969 140.782 847.969 184.954C847.969 229.126 883.777 264.934 927.949 264.934C967.939 264.934 991.933 248.938 1007.93 216.946L957.832 207.714C953.254 217.773 941.623 224.944 927.949 224.944C912.825 224.944 900.152 216.195 896.815 204.44L959.941 198.917ZM956.197 159.102L897.193 164.264C901.028 153.121 913.346 144.964 927.949 144.964C940.184 144.964 950.816 150.691 956.197 159.102Z" fill="#3C3744"/>
<path d="M121.251 158.207L38.4044 256.936H107.279L295.183 32.9919H226.321L155.681 117.176L85.0397 32.9919H16.1797L121.251 158.207Z" fill="#3C3744"/>
<path d="M1077.46 384.713H1071.86V360.106L1059.48 377.954H1055.21L1042.86 360.106V384.713H1037.27V352.881H1043.56L1057.34 372.993L1071.16 352.881H1077.46V384.713Z" fill="#3C3744"/>
<path d="M1014.65 386.067C1011.21 386.067 1008.15 385.39 1005.46 384.036C1002.8 382.682 1000.69 380.739 999.133 378.209C997.602 375.678 996.836 372.604 996.836 368.985C996.836 363.325 998.578 358.952 1002.06 355.866C1005.37 352.98 1009.56 351.537 1014.62 351.537C1018.01 351.537 1021.05 352.214 1023.74 353.569C1026.43 354.923 1028.55 356.876 1030.1 359.429C1031.68 361.982 1032.46 365.112 1032.46 368.819C1032.46 374.28 1030.76 378.553 1027.34 381.638C1024.03 384.591 1019.8 386.067 1014.65 386.067ZM1015.38 382.005C1019.05 381.738 1021.84 380.34 1023.77 377.809C1025.7 375.279 1026.67 372.271 1026.67 368.786C1026.67 365.3 1025.7 362.293 1023.77 359.762C1021.84 357.231 1019.02 355.833 1015.32 355.566H1013.95C1010.27 355.833 1007.46 357.231 1005.53 359.762C1003.6 362.293 1002.63 365.3 1002.63 368.786C1002.63 372.271 1003.6 375.279 1005.53 377.809C1007.46 380.34 1010.27 381.738 1013.95 382.005H1015.38Z" fill="#3C3744"/>
<path d="M981.453 384.713H975.859V356.81H962.406V352.881H994.905V356.81H981.453V384.713Z" fill="#3C3744"/>
<path d="M941.665 385.93H941.165C938.324 385.93 936.038 385.663 934.306 385.131C932.597 384.62 931.187 383.932 930.077 383.066C927.968 381.335 926.914 379.181 926.914 376.606C926.914 373.987 927.902 371.734 929.878 369.847C931.853 367.938 935.46 366.673 940.699 366.051L954.285 364.419C953.574 361.378 952.32 359.158 950.522 357.76C948.724 356.339 946.327 355.629 943.33 355.629H942.564C941.365 355.629 940.189 355.851 939.034 356.295C937.88 356.739 936.837 357.294 935.904 357.96C934.306 359.114 933.429 359.902 933.274 360.324L928.246 358.426C928.912 356.961 930.666 355.462 933.507 353.931C936.348 352.377 939.578 351.6 943.197 351.6H943.463C946.482 351.6 949.224 352.332 951.688 353.797C954.152 355.263 956.116 357.294 957.581 359.891C959.068 362.488 959.812 365.296 959.812 368.315V376.407C959.812 379.448 960.589 380.968 962.143 380.968C962.343 380.968 962.565 380.946 962.809 380.902H963.175V384.465C961.999 384.909 960.744 385.131 959.413 385.131C958.458 385.131 957.503 384.764 956.549 384.032C955.617 383.299 955.062 382.078 954.884 380.369C950.888 384.076 946.482 385.93 941.665 385.93ZM942.231 381.867C945.561 381.867 948.424 380.835 950.822 378.771C953.219 376.706 954.418 374.076 954.418 370.879V368.082L941.265 369.714C938.446 370.069 936.26 370.746 934.706 371.745C933.152 372.744 932.375 374.087 932.375 375.774C932.375 377.727 933.218 379.215 934.906 380.236C936.659 381.324 939.101 381.867 942.231 381.867Z" fill="#3C3744"/>
<path d="M922.026 384.713H916.432V360.106L904.045 377.954H899.783L887.43 360.106V384.713H881.836V352.881H888.129L901.914 372.993L915.733 352.881H922.026V384.713Z" fill="#3C3744"/>
<path d="M859.22 386.067C855.78 386.067 852.716 385.39 850.03 384.036C847.367 382.682 845.258 380.739 843.704 378.209C842.172 375.678 841.406 372.604 841.406 368.985C841.406 363.325 843.149 358.952 846.634 355.866C849.942 352.98 854.126 351.537 859.187 351.537C862.583 351.537 865.625 352.214 868.311 353.569C870.997 354.923 873.117 356.876 874.671 359.429C876.247 361.982 877.035 365.112 877.035 368.819C877.035 374.28 875.325 378.553 871.907 381.638C868.599 384.591 864.37 386.067 859.22 386.067ZM859.953 382.005C863.616 381.738 866.413 380.34 868.344 377.809C870.275 375.279 871.241 372.271 871.241 368.786C871.241 365.3 870.275 362.293 868.344 359.762C866.413 357.231 863.594 355.833 859.886 355.566H858.521C854.836 355.833 852.028 357.231 850.097 359.762C848.166 362.293 847.2 365.3 847.2 368.786C847.2 372.271 848.166 375.279 850.097 377.809C852.028 380.34 854.836 381.738 858.521 382.005H859.953Z" fill="#3C3744"/>
<path d="M826.023 384.713H820.429V356.81H806.977V352.881H839.475V356.81H826.023V384.713Z" fill="#3C3744"/>
<path d="M797.482 384.713H774.141V352.881H794.452C795.695 352.881 796.85 353.114 797.915 353.58C799.003 354.046 799.957 354.679 800.779 355.478C801.6 356.299 802.244 357.254 802.71 358.342C803.176 359.429 803.409 360.595 803.409 361.838C803.409 363.503 802.732 365.434 801.378 367.632C803.332 368.964 804.663 370.273 805.374 371.561C806.084 372.826 806.439 374.236 806.439 375.79C806.439 377.01 806.206 378.165 805.74 379.252C805.274 380.34 804.641 381.295 803.842 382.116C802.999 382.915 802.033 383.548 800.945 384.014C799.88 384.48 798.725 384.713 797.482 384.713ZM795.817 380.851C797.194 380.851 798.37 380.362 799.347 379.386C800.346 378.409 800.845 377.232 800.845 375.856C800.845 374.48 800.346 373.303 799.347 372.327C798.37 371.328 797.194 370.828 795.817 370.828H779.735V380.851H795.817ZM792.92 366.766C794.297 366.766 795.473 366.278 796.45 365.301C797.427 364.324 797.915 363.136 797.915 361.738C797.915 360.362 797.427 359.185 796.45 358.208C795.473 357.209 794.297 356.71 792.92 356.71H779.868V366.766H792.92Z" fill="#3C3744"/>
<path d="M748.157 385.93H747.658C744.816 385.93 742.53 385.663 740.798 385.131C739.089 384.62 737.679 383.932 736.57 383.066C734.461 381.335 733.406 379.181 733.406 376.606C733.406 373.987 734.394 371.734 736.37 369.847C738.345 367.938 741.953 366.673 747.191 366.051L760.777 364.419C760.067 361.378 758.812 359.158 757.014 357.76C755.216 356.339 752.819 355.629 749.822 355.629H749.056C747.857 355.629 746.681 355.851 745.527 356.295C744.372 356.739 743.329 357.294 742.397 357.96C740.798 359.114 739.921 359.902 739.766 360.324L734.738 358.426C735.404 356.961 737.158 355.462 739.999 353.931C742.841 352.377 746.07 351.6 749.689 351.6H749.955C752.974 351.6 755.716 352.332 758.18 353.797C760.644 355.263 762.608 357.294 764.073 359.891C765.561 362.488 766.304 365.296 766.304 368.315V376.407C766.304 379.448 767.081 380.968 768.635 380.968C768.835 380.968 769.057 380.946 769.301 380.902H769.667V384.465C768.491 384.909 767.237 385.131 765.905 385.131C764.95 385.131 763.996 384.764 763.041 384.032C762.109 383.299 761.554 382.078 761.376 380.369C757.381 384.076 752.974 385.93 748.157 385.93ZM748.723 381.867C752.053 381.867 754.916 380.835 757.314 378.771C759.711 376.706 760.91 374.076 760.91 370.879V368.082L747.758 369.714C744.938 370.069 742.752 370.746 741.198 371.745C739.644 372.744 738.867 374.087 738.867 375.774C738.867 377.727 739.711 379.215 741.398 380.236C743.151 381.324 745.593 381.867 748.723 381.867Z" fill="#3C3744"/>
<path d="M711.61 368.961H694.195V365.065H711.61V368.961ZM711.61 368.961H694.195V365.065H711.61V368.961Z" fill="#3C3744"/>
<path d="M671.428 384.711H665.834V374.356L663.236 375.454C661.083 376.187 658.752 376.553 656.244 376.553C653.78 376.553 651.649 376.254 649.851 375.654C648.075 375.055 646.565 374.333 645.322 373.49C644.101 372.624 643.114 371.758 642.359 370.893C641.626 370.027 641.094 369.306 640.761 368.728C639.207 366.176 638.43 363.101 638.43 359.505V352.912H644.024V359.305C644.024 362.79 645.023 365.798 647.02 368.329C649.041 370.837 651.882 372.236 655.545 372.524H656.244C660.373 372.413 663.569 370.815 665.834 367.729V352.912H671.428V384.711Z" fill="#3C3744"/>
<path d="M603.606 401.779H597.812V352.898H603.606V357.161C607.069 353.453 611.076 351.6 615.627 351.6C620.777 351.6 625.006 353.065 628.313 355.995C631.732 359.081 633.441 363.354 633.441 368.815C633.441 372.522 632.653 375.663 631.077 378.238C629.523 380.791 627.403 382.744 624.717 384.098C622.031 385.452 618.99 386.129 615.593 386.129C611.22 386.129 607.225 384.32 603.606 380.702V401.779ZM616.692 382.067C620.377 381.801 623.185 380.402 625.117 377.872C627.048 375.341 628.013 372.333 628.013 368.848C628.013 365.363 627.048 362.355 625.117 359.824C623.207 357.294 620.41 355.895 616.726 355.629H615.294C611.631 355.895 608.656 357.283 606.37 359.791C604.106 362.299 602.974 365.318 602.974 368.848C602.974 372.378 604.106 375.397 606.37 377.905C608.634 380.413 611.609 381.801 615.294 382.067H616.692Z" fill="#3C3744"/>
<path d="M575.453 386.1C573.721 386.1 571.99 385.923 570.258 385.568C568.549 385.235 567.017 384.724 565.663 384.036C562.999 382.704 560.89 380.762 559.337 378.209C557.805 375.656 557.039 372.593 557.039 369.019C557.039 367.931 557.183 366.61 557.472 365.056C557.761 363.48 558.093 362.226 558.471 361.294C559.403 359.118 560.68 357.32 562.3 355.899C563.943 354.456 565.841 353.369 567.994 352.636C570.147 351.904 572.423 351.537 574.82 351.537C578.216 351.537 581.258 352.226 583.944 353.602C586.63 354.956 588.749 356.909 590.303 359.462C591.879 361.993 592.667 365.123 592.667 368.852V368.952L563.033 371.882C563.255 374.746 564.464 377.11 566.662 378.975C568.882 380.839 571.39 381.86 574.187 382.038H576.785C578.827 381.905 580.714 381.35 582.445 380.373C584.199 379.396 585.353 378.497 585.908 377.676L591.136 379.707C589.648 381.971 587.107 383.725 583.511 384.968C582.401 385.346 581.102 385.623 579.615 385.801C578.128 386 576.74 386.1 575.453 386.1ZM562.766 367.887L586.707 365.522C586.263 362.015 584.976 359.518 582.845 358.03C580.714 356.521 578.283 355.677 575.553 355.5H574.154C570.98 355.722 568.283 356.92 566.063 359.096C563.865 361.249 562.766 364.179 562.766 367.887Z" fill="#3C3744"/>
<path d="M551.557 384.713H545.963V360.106L533.577 377.954H529.315L516.961 360.106V384.713H511.367V352.881H517.66L531.446 372.993L545.264 352.881H551.557V384.713Z" fill="#3C3744"/>
<path d="M472.343 347.924C470.301 347.924 468.403 347.424 466.649 346.425C464.895 345.404 463.486 344.083 462.42 342.463C461.355 340.82 460.822 339.211 460.822 337.635H465.717C465.717 339.166 466.361 340.576 467.648 341.863C468.936 343.151 470.501 343.795 472.343 343.795C474.163 343.795 475.717 343.151 477.005 341.863C478.314 340.576 478.969 339.166 478.969 337.635H483.864C483.864 339.211 483.331 340.82 482.266 342.463C481.2 344.083 479.791 345.404 478.037 346.425C476.283 347.424 474.385 347.924 472.343 347.924ZM488.592 384.717H482.998V359.445L461.654 384.717H456.094V352.885H461.688V378.158L483.032 352.885H488.592V384.717Z" fill="#3C3744"/>
<path d="M433.486 386.067C430.045 386.067 426.982 385.39 424.296 384.036C421.632 382.682 419.523 380.739 417.969 378.209C416.438 375.678 415.672 372.604 415.672 368.985C415.672 363.325 417.414 358.952 420.9 355.866C424.207 352.98 428.392 351.537 433.453 351.537C436.849 351.537 439.89 352.214 442.576 353.569C445.262 354.923 447.382 356.876 448.936 359.429C450.512 361.982 451.3 365.112 451.3 368.819C451.3 374.28 449.591 378.553 446.172 381.638C442.865 384.591 438.636 386.067 433.486 386.067ZM434.219 382.005C437.881 381.738 440.678 380.34 442.61 377.809C444.541 375.279 445.507 372.271 445.507 368.786C445.507 365.3 444.541 362.293 442.61 359.762C440.678 357.231 437.859 355.833 434.152 355.566H432.787C429.102 355.833 426.294 357.231 424.363 359.762C422.431 362.293 421.466 365.3 421.466 368.786C421.466 372.271 422.431 375.279 424.363 377.809C426.294 380.34 429.102 381.738 432.787 382.005H434.219Z" fill="#3C3744"/>
<path d="M403.303 384.713H379.961V352.881H400.272C401.516 352.881 402.67 353.114 403.735 353.58C404.823 354.046 405.778 354.679 406.599 355.478C407.42 356.299 408.064 357.254 408.53 358.342C408.996 359.429 409.23 360.595 409.23 361.838C409.23 363.503 408.552 365.434 407.198 367.632C409.152 368.964 410.484 370.273 411.194 371.561C411.904 372.826 412.26 374.236 412.26 375.79C412.26 377.01 412.027 378.165 411.56 379.252C411.094 380.34 410.462 381.295 409.662 382.116C408.819 382.915 407.853 383.548 406.765 384.014C405.7 384.48 404.546 384.713 403.303 384.713ZM401.638 380.851C403.014 380.851 404.19 380.362 405.167 379.386C406.166 378.409 406.666 377.232 406.666 375.856C406.666 374.48 406.166 373.303 405.167 372.327C404.19 371.328 403.014 370.828 401.638 370.828H385.555V380.851H401.638ZM398.741 366.766C400.117 366.766 401.294 366.278 402.27 365.301C403.247 364.324 403.735 363.136 403.735 361.738C403.735 360.362 403.247 359.185 402.27 358.208C401.294 357.209 400.117 356.71 398.741 356.71H385.688V366.766H398.741Z" fill="#3C3744"/>
<path d="M362.432 384.698H357.005V340.745H336.094V336.916H383.343V340.745H362.432V384.698Z" fill="#3C3744"/>
</svg>
